  0
SECTION
  2
HEADER
  9
$ACADVER
  1
AC1014
  9
$HANDSEED
  5
FFFF
  9
$MEASUREMENT
 70
     1
  0
ENDSEC
  0
SECTION
  2
TABLES
  0
TABLE
  2
VPORT
  5
8
330
0
100
AcDbSymbolTable
 70
     4
  0
VPORT
  5
2E
330
8
100
AcDbSymbolTableRecord
100
AcDbViewportTableRecord
  2
*ACTIVE
 70
     0
 10
0.0
 20
0.0
 11
1.0
 21
1.0
 12
210.0
 22
148.5
 13
0.0
 23
0.0
 14
10.0
 24
10.0
 15
10.0
 25
10.0
 16
0.0
 26
0.0
 36
1.0
 17
0.0
 27
0.0
 37
0.0
 40
341.0
 41
1.24
 42
50.0
 43
0.0
 44
0.0
 50
0.0
 51
0.0
 71
     0
 72
   100
 73
     1
 74
     3
 75
     0
 76
     0
 77
     0
 78
     0
  0
ENDTAB
  0
TABLE
  2
LTYPE
  5
5
330
0
100
AcDbSymbolTable
 70
     1
  0
LTYPE
  5
14
330
5
100
AcDbSymbolTableRecord
100
AcDbLinetypeTableRecord
  2
BYBLOCK
 70
     0
  3

 72
    65
 73
     0
 40
0.0
  0
LTYPE
  5
15
330
5
100
AcDbSymbolTableRecord
100
AcDbLinetypeTableRecord
  2
BYLAYER
 70
     0
  3

 72
    65
 73
     0
 40
0.0
  0
LTYPE
  5
16
330
5
100
AcDbSymbolTableRecord
100
AcDbLinetypeTableRecord
  2
CONTINUOUS
 70
     0
  3
Solid line
 72
    65
 73
     0
 40
0.0
  0
ENDTAB
  0
TABLE
  2
LAYER
  5
2
100
AcDbSymbolTable
 70
1
  0
LAYER
  5
50
100
AcDbSymbolTableRecord
100
AcDbLayerTableRecord
  2
0
 70
0
  6
CONTINUOUS
  0
ENDTAB
  0
TABLE
  2
STYLE
  5
3
330
0
100
AcDbSymbolTable
 70
     1
  0
STYLE
  5
11
330
3
100
AcDbSymbolTableRecord
100
AcDbTextStyleTableRecord
  2
STANDARD
 70
     0
 40
0.0
 41
1.0
 50
0.0
 71
     0
 42
2.5
  3
txt
  4

  0
ENDTAB
  0
TABLE
  2
VIEW
  5
6
330
0
100
AcDbSymbolTable
 70
     0
  0
ENDTAB
  0
TABLE
  2
UCS
  5
7
330
0
100
AcDbSymbolTable
 70
     0
  0
ENDTAB
  0
TABLE
  2
APPID
  5
9
330
0
100
AcDbSymbolTable
 70
     2
  0
APPID
  5
12
330
9
100
AcDbSymbolTableRecord
100
AcDbRegAppTableRecord
  2
ACAD
 70
     0
  0
ENDTAB
  0
TABLE
  2
DIMSTYLE
  5
A
330
0
100
AcDbSymbolTable
 70
     1
  0
DIMSTYLE
105
27
330
A
100
AcDbSymbolTableRecord
100
AcDbDimStyleTableRecord
  2
ISO-25
 70
     0
  3

  4

  5

  6

  7

 40
1.0
 41
2.5
 42
0.625
 43
3.75
 44
1.25
 45
0.0
 46
0.0
 47
0.0
 48
0.0
140
2.5
141
2.5
142
0.0
143
0.03937007874016
144
1.0
145
0.0
146
1.0
147
0.625
 71
     0
 72
     0
 73
     0
 74
     0
 75
     0
 76
     0
 77
     1
 78
     8
170
     0
171
     3
172
     1
173
     0
174
     0
175
     0
176
     0
177
     0
178
     0
270
     2
271
     2
272
     2
273
     2
274
     3
340
11
275
     0
280
     0
281
     0
282
     0
283
     0
284
     8
285
     0
286
     0
287
     3
288
     0
  0
ENDTAB
  0
TABLE
  2
BLOCK_RECORD
  5
1
330
0
100
AcDbSymbolTable
 70
     1
  0
BLOCK_RECORD
  5
1F
330
1
100
AcDbSymbolTableRecord
100
AcDbBlockTableRecord
  2
*MODEL_SPACE
  0
BLOCK_RECORD
  5
1B
330
1
100
AcDbSymbolTableRecord
100
AcDbBlockTableRecord
  2
*PAPER_SPACE
  0
ENDTAB
  0
ENDSEC
  0
SECTION
  2
BLOCKS
  0
BLOCK
  5
20
330
1F
100
AcDbEntity
  8
0
100
AcDbBlockBegin
  2
*MODEL_SPACE
 70
     0
 10
0.0
 20
0.0
 30
0.0
  3
*MODEL_SPACE
  1

  0
ENDBLK
  5
21
330
1F
100
AcDbEntity
  8
0
100
AcDbBlockEnd
  0
BLOCK
  5
1C
330
1B
100
AcDbEntity
 67
     1
  8
0
100
AcDbBlockBegin
  2
*PAPER_SPACE
  1

  0
ENDBLK
  5
1D
330
1B
100
AcDbEntity
 67
     1
  8
0
100
AcDbBlockEnd
  0
ENDSEC
  0
SECTION
  2
ENTITIES
  0
LWPOLYLINE
  5
100
100
AcDbEntity
  8
0
 62
7
100
AcDbPolyline
 90
2
 70
0
 10
8325.555556
 20
-8256.659667
 30
0.0
 10
23847.777778
 20
-8256.659667
 30
0.0
  0
LWPOLYLINE
  5
101
100
AcDbEntity
  8
0
 62
7
100
AcDbPolyline
 90
2
 70
0
 10
7761.111111
 20
-13195.548556
 30
0.0
 10
7761.111111
 20
-8821.104111
 30
0.0
  0
LWPOLYLINE
  5
102
100
AcDbEntity
  8
0
 62
7
100
AcDbPolyline
 90
2
 70
0
 10
23847.777778
 20
-13759.993000
 30
0.0
 10
8325.555556
 20
-13759.993000
 30
0.0
  0
SPLINE
  5
103
100
AcDbEntity
  8
0
 62
7
100
AcDbSpline
 70
0
 71
3
 72
13
 73
9
 74
7
 40
0.000000
 40
0.000000
 40
0.000000
 40
0.000000
 40
147.757377
 40
294.292009
 40
442.049386
 40
589.806763
 40
736.341395
 40
884.098772
 40
884.098772
 40
884.098772
 40
884.098772
 10
7761.111111
 20
-13195.548556
 30
0.0
 10
7764.873836
 20
-13244.944918
 30
0.0
 10
7772.368148
 20
-13343.328869
 30
0.0
 10
7831.592593
 20
-13480.963654
 30
0.0
 10
7921.696732
 20
-13599.407379
 30
0.0
 10
8040.140457
 20
-13689.511518
 30
0.0
 10
8177.775242
 20
-13748.735963
 30
0.0
 10
8276.159193
 20
-13756.230275
 30
0.0
 10
8325.555556
 20
-13759.993000
 30
0.0
 11
7761.111111
 21
-13195.548556
 31
0.0
 11
7780.449276
 21
-13342.034998
 31
0.0
 11
7836.525652
 21
-13477.415345
 31
0.0
 11
7926.433061
 21
-13594.671050
 31
0.0
 11
8043.688766
 21
-13684.578459
 31
0.0
 11
8179.069113
 21
-13740.654835
 31
0.0
 11
8325.555556
 21
-13759.993000
 31
0.0
  0
SPLINE
  5
104
100
AcDbEntity
  8
0
 62
7
100
AcDbSpline
 70
0
 71
3
 72
13
 73
9
 74
7
 40
0.000000
 40
0.000000
 40
0.000000
 40
0.000000
 40
147.757377
 40
294.292009
 40
442.049386
 40
589.806763
 40
736.341395
 40
884.098772
 40
884.098772
 40
884.098772
 40
884.098772
 10
8325.555556
 20
-8256.659667
 30
0.0
 10
8276.159193
 20
-8260.422392
 30
0.0
 10
8177.775242
 20
-8267.916704
 30
0.0
 10
8040.140457
 20
-8327.141149
 30
0.0
 10
7921.696732
 20
-8417.245288
 30
0.0
 10
7831.592593
 20
-8535.689013
 30
0.0
 10
7772.368148
 20
-8673.323797
 30
0.0
 10
7764.873836
 20
-8771.707749
 30
0.0
 10
7761.111111
 20
-8821.104111
 30
0.0
 11
8325.555556
 21
-8256.659667
 31
0.0
 11
8179.069113
 21
-8275.997831
 31
0.0
 11
8043.688766
 21
-8332.074207
 31
0.0
 11
7926.433061
 21
-8421.981617
 31
0.0
 11
7836.525652
 21
-8539.237321
 31
0.0
 11
7780.449276
 21
-8674.617669
 31
0.0
 11
7761.111111
 21
-8821.104111
 31
0.0
  0
SPLINE
  5
105
100
AcDbEntity
  8
0
 62
7
100
AcDbSpline
 70
0
 71
3
 72
13
 73
9
 74
7
 40
0.000000
 40
0.000000
 40
0.000000
 40
0.000000
 40
147.757377
 40
294.292009
 40
442.049386
 40
589.806763
 40
736.341395
 40
884.098772
 40
884.098772
 40
884.098772
 40
884.098772
 10
24412.222222
 20
-8821.104111
 30
0.0
 10
24408.459497
 20
-8771.707749
 30
0.0
 10
24400.965185
 20
-8673.323797
 30
0.0
 10
24341.740740
 20
-8535.689013
 30
0.0
 10
24251.636601
 20
-8417.245288
 30
0.0
 10
24133.192876
 20
-8327.141149
 30
0.0
 10
23995.558092
 20
-8267.916704
 30
0.0
 10
23897.174140
 20
-8260.422392
 30
0.0
 10
23847.777778
 20
-8256.659667
 30
0.0
 11
24412.222222
 21
-8821.104111
 31
0.0
 11
24392.884057
 21
-8674.617669
 31
0.0
 11
24336.807681
 21
-8539.237321
 31
0.0
 11
24246.900272
 21
-8421.981617
 31
0.0
 11
24129.644568
 21
-8332.074207
 31
0.0
 11
23994.264220
 21
-8275.997831
 31
0.0
 11
23847.777778
 21
-8256.659667
 31
0.0
  0
LWPOLYLINE
  5
106
100
AcDbEntity
  8
0
 62
7
100
AcDbPolyline
 90
2
 70
0
 10
24412.222222
 20
-13195.548556
 30
0.0
 10
24412.222222
 20
-8821.104111
 30
0.0
  0
LWPOLYLINE
  5
107
100
AcDbEntity
  8
0
 62
7
100
AcDbPolyline
 90
5
 70
0
 10
16340.948889
 20
-10723.281889
 30
0.0
 10
10752.102222
 20
-10723.281889
 30
0.0
 10
10752.102222
 20
-8611.977444
 30
0.0
 10
16340.948889
 20
-8611.977444
 30
0.0
 10
16340.948889
 20
-10723.281889
 30
0.0
  0
LWPOLYLINE
  5
108
100
AcDbEntity
  8
0
 62
7
100
AcDbPolyline
 90
2
 70
0
 10
15283.180000
 20
-9667.770778
 30
0.0
 10
15838.875556
 20
-9667.770778
 30
0.0
  0
LWPOLYLINE
  5
109
100
AcDbEntity
  8
0
 62
7
100
AcDbPolyline
 90
2
 70
0
 10
15088.728889
 20
-10334.379667
 30
0.0
 10
15672.082222
 20
-10334.379667
 30
0.0
  0
LWPOLYLINE
  5
10a
100
AcDbEntity
  8
0
 62
7
100
AcDbPolyline
 90
2
 70
0
 10
15922.131111
 20
-9612.173000
 30
0.0
 10
16088.642222
 20
-9000.879667
 30
0.0
  0
LWPOLYLINE
  5
10b
100
AcDbEntity
  8
0
 62
7
100
AcDbPolyline
 90
2
 70
0
 10
15727.680000
 20
-10334.379667
 30
0.0
 10
15894.191111
 20
-9723.086333
 30
0.0
  0
LWPOLYLINE
  5
10c
100
AcDbEntity
  8
0
 62
7
100
AcDbPolyline
 90
2
 70
0
 10
15227.582222
 20
-9612.173000
 30
0.0
 10
15394.375556
 20
-9000.879667
 30
0.0
  0
LWPOLYLINE
  5
10d
100
AcDbEntity
  8
0
 62
7
100
AcDbPolyline
 90
2
 70
0
 10
15033.131111
 20
-10334.379667
 30
0.0
 10
15199.924444
 20
-9723.086333
 30
0.0
  0
LWPOLYLINE
  5
10e
100
AcDbEntity
  8
0
 62
7
100
AcDbPolyline
 90
2
 70
0
 10
15449.973333
 20
-9000.879667
 30
0.0
 10
16033.326667
 20
-9000.879667
 30
0.0
  0
LWPOLYLINE
  5
10f
100
AcDbEntity
  8
0
 62
7
100
AcDbPolyline
 90
2
 70
0
 10
11190.957778
 20
-9667.770778
 30
0.0
 10
11746.653333
 20
-9667.770778
 30
0.0
  0
LWPOLYLINE
  5
110
100
AcDbEntity
  8
0
 62
7
100
AcDbPolyline
 90
2
 70
0
 10
10996.506667
 20
-10334.379667
 30
0.0
 10
11579.860000
 20
-10334.379667
 30
0.0
  0
LWPOLYLINE
  5
111
100
AcDbEntity
  8
0
 62
7
100
AcDbPolyline
 90
2
 70
0
 10
11829.908889
 20
-9612.173000
 30
0.0
 10
11996.420000
 20
-9000.879667
 30
0.0
  0
LWPOLYLINE
  5
112
100
AcDbEntity
  8
0
 62
7
100
AcDbPolyline
 90
2
 70
0
 10
11635.457778
 20
-10334.379667
 30
0.0
 10
11801.968889
 20
-9723.086333
 30
0.0
  0
LWPOLYLINE
  5
113
100
AcDbEntity
  8
0
 62
7
100
AcDbPolyline
 90
2
 70
0
 10
11135.360000
 20
-9612.173000
 30
0.0
 10
11302.153333
 20
-9000.879667
 30
0.0
  0
LWPOLYLINE
  5
114
100
AcDbEntity
  8
0
 62
7
100
AcDbPolyline
 90
2
 70
0
 10
10940.908889
 20
-10334.379667
 30
0.0
 10
11107.702222
 20
-9723.086333
 30
0.0
  0
LWPOLYLINE
  5
115
100
AcDbEntity
  8
0
 62
7
100
AcDbPolyline
 90
2
 70
0
 10
11357.751111
 20
-9000.879667
 30
0.0
 10
11941.104444
 20
-9000.879667
 30
0.0
  0
LWPOLYLINE
  5
116
100
AcDbEntity
  8
0
 62
7
100
AcDbPolyline
 90
2
 70
0
 10
12768.862222
 20
-9000.879667
 30
0.0
 10
13352.215556
 20
-9000.879667
 30
0.0
  0
LWPOLYLINE
  5
117
100
AcDbEntity
  8
0
 62
7
100
AcDbPolyline
 90
2
 70
0
 10
12352.020000
 20
-10334.379667
 30
0.0
 10
12518.813333
 20
-9723.086333
 30
0.0
  0
LWPOLYLINE
  5
118
100
AcDbEntity
  8
0
 62
7
100
AcDbPolyline
 90
2
 70
0
 10
12546.471111
 20
-9612.173000
 30
0.0
 10
12713.264444
 20
-9000.879667
 30
0.0
  0
LWPOLYLINE
  5
119
100
AcDbEntity
  8
0
 62
7
100
AcDbPolyline
 90
2
 70
0
 10
13046.568889
 20
-10334.379667
 30
0.0
 10
13213.080000
 20
-9723.086333
 30
0.0
  0
LWPOLYLINE
  5
11a
100
AcDbEntity
  8
0
 62
7
100
AcDbPolyline
 90
2
 70
0
 10
13241.020000
 20
-9612.173000
 30
0.0
 10
13407.531111
 20
-9000.879667
 30
0.0
  0
LWPOLYLINE
  5
11b
100
AcDbEntity
  8
0
 62
7
100
AcDbPolyline
 90
2
 70
0
 10
12407.617778
 20
-10334.379667
 30
0.0
 10
12990.971111
 20
-10334.379667
 30
0.0
  0
LWPOLYLINE
  5
11c
100
AcDbEntity
  8
0
 62
7
100
AcDbPolyline
 90
2
 70
0
 10
12602.068889
 20
-9667.770778
 30
0.0
 10
13157.764444
 20
-9667.770778
 30
0.0
  0
LWPOLYLINE
  5
11d
100
AcDbEntity
  8
0
 62
7
100
AcDbPolyline
 90
2
 70
0
 10
14644.793333
 20
-9612.173000
 30
0.0
 10
14811.586667
 20
-9000.879667
 30
0.0
  0
LWPOLYLINE
  5
11e
100
AcDbEntity
  8
0
 62
7
100
AcDbPolyline
 90
2
 70
0
 10
14172.635556
 20
-9000.879667
 30
0.0
 10
14755.988889
 20
-9000.879667
 30
0.0
  0
LWPOLYLINE
  5
11f
100
AcDbEntity
  8
0
 62
7
100
AcDbPolyline
 90
2
 70
0
 10
13950.526667
 20
-9612.173000
 30
0.0
 10
14117.037778
 20
-9000.879667
 30
0.0
  0
LWPOLYLINE
  5
120
100
AcDbEntity
  8
0
 62
7
100
AcDbPolyline
 90
2
 70
0
 10
14005.842222
 20
-9667.770778
 30
0.0
 10
14561.537778
 20
-9667.770778
 30
0.0
  0
LWPOLYLINE
  5
121
100
AcDbEntity
  8
0
 62
7
100
AcDbPolyline
 90
2
 70
0
 10
13811.391111
 20
-10334.379667
 30
0.0
 10
14394.744444
 20
-10334.379667
 30
0.0
  0
LWPOLYLINE
  5
122
100
AcDbEntity
  8
0
 62
7
100
AcDbPolyline
 90
2
 70
0
 10
13756.075556
 20
-10334.379667
 30
0.0
 10
13922.586667
 20
-9723.086333
 30
0.0
  0
SPLINE
  5
123
100
AcDbEntity
  8
0
 62
7
100
AcDbSpline
 70
0
 71
3
 72
13
 73
9
 74
7
 40
0.000000
 40
0.000000
 40
0.000000
 40
0.000000
 40
147.757377
 40
294.292009
 40
442.049386
 40
589.806763
 40
736.341395
 40
884.098772
 40
884.098772
 40
884.098772
 40
884.098772
 10
23847.777778
 20
-13759.993000
 30
0.0
 10
23897.174140
 20
-13756.230275
 30
0.0
 10
23995.558092
 20
-13748.735963
 30
0.0
 10
24133.192876
 20
-13689.511518
 30
0.0
 10
24251.636601
 20
-13599.407379
 30
0.0
 10
24341.740740
 20
-13480.963654
 30
0.0
 10
24400.965185
 20
-13343.328869
 30
0.0
 10
24408.459497
 20
-13244.944918
 30
0.0
 10
24412.222222
 20
-13195.548556
 30
0.0
 11
23847.777778
 21
-13759.993000
 31
0.0
 11
23994.264220
 21
-13740.654835
 31
0.0
 11
24129.644568
 21
-13684.578459
 31
0.0
 11
24246.900272
 21
-13594.671050
 31
0.0
 11
24336.807681
 21
-13477.415345
 31
0.0
 11
24392.884057
 21
-13342.034998
 31
0.0
 11
24412.222222
 21
-13195.548556
 31
0.0
  0
LWPOLYLINE
  5
124
100
AcDbEntity
  8
0
 62
7
100
AcDbPolyline
 90
2
 70
0
 10
14450.342222
 20
-10334.379667
 30
0.0
 10
14617.135556
 20
-9723.086333
 30
0.0
  0
SPLINE
  5
125
100
AcDbEntity
  8
0
 62
7
100
AcDbSpline
 70
0
 71
3
 72
19
 73
15
 74
13
 40
0.000000
 40
0.000000
 40
0.000000
 40
0.000000
 40
29.047671
 40
57.233797
 40
86.281468
 40
115.329139
 40
143.515265
 40
172.562936
 40
201.610607
 40
229.796734
 40
258.844405
 40
287.892076
 40
316.078202
 40
345.125873
 40
345.125873
 40
345.125873
 40
345.125873
 10
16033.340496
 20
-10278.894213
 30
0.0
 10
16031.813564
 20
-10288.687721
 30
0.0
 10
16028.804989
 20
-10307.984265
 30
0.0
 10
16006.687433
 20
-10329.228183
 30
0.0
 10
15977.836040
 20
-10337.099695
 30
0.0
 10
15948.681737
 20
-10329.228183
 30
0.0
 10
15927.454945
 20
-10307.984265
 30
0.0
 10
15919.577609
 20
-10278.894213
 30
0.0
 10
15927.454945
 20
-10249.804162
 30
0.0
 10
15948.681736
 20
-10228.560244
 30
0.0
 10
15977.836040
 20
-10220.688732
 30
0.0
 10
16006.687433
 20
-10228.560244
 30
0.0
 10
16028.804989
 20
-10249.804162
 30
0.0
 10
16031.813564
 20
-10269.100705
 30
0.0
 10
16033.340496
 20
-10278.894213
 30
0.0
 11
16033.340496
 21
-10278.894213
 31
0.0
 11
16025.755548
 21
-10306.934109
 31
0.0
 11
16005.824947
 21
-10326.864710
 31
0.0
 11
15977.785051
 21
-10334.449658
 31
0.0
 11
15949.745155
 21
-10326.864710
 31
0.0
 11
15929.814554
 21
-10306.934109
 31
0.0
 11
15922.229607
 21
-10278.894214
 31
0.0
 11
15929.814554
 21
-10250.854317
 31
0.0
 11
15949.745155
 21
-10230.923717
 31
0.0
 11
15977.785051
 21
-10223.338769
 31
0.0
 11
16005.824947
 21
-10230.923716
 31
0.0
 11
16025.755548
 21
-10250.854317
 31
0.0
 11
16033.340496
 21
-10278.894213
 31
0.0
  0
LWPOLYLINE
  5
126
100
AcDbEntity
  8
0
 62
7
100
AcDbPolyline
 90
2
 70
1
 10
16033.340496
 20
-10278.894213
 30
0.0
 10
16033.340496
 20
-10278.894213
 30
0.0
  0
SPLINE
  5
127
100
AcDbEntity
  8
0
 62
7
100
AcDbSpline
 70
0
 71
3
 72
19
 73
15
 74
13
 40
0.000000
 40
0.000000
 40
0.000000
 40
0.000000
 40
29.047671
 40
57.233797
 40
86.281468
 40
115.329139
 40
143.515265
 40
172.562936
 40
201.610607
 40
229.796734
 40
258.844405
 40
287.892076
 40
316.078202
 40
345.125873
 40
345.125873
 40
345.125873
 40
345.125873
 10
11941.118273
 20
-10278.894213
 30
0.0
 10
11939.591342
 20
-10288.687721
 30
0.0
 10
11936.582767
 20
-10307.984265
 30
0.0
 10
11914.465211
 20
-10329.228183
 30
0.0
 10
11885.613818
 20
-10337.099695
 30
0.0
 10
11856.459514
 20
-10329.228183
 30
0.0
 10
11835.232723
 20
-10307.984265
 30
0.0
 10
11827.355386
 20
-10278.894213
 30
0.0
 10
11835.232723
 20
-10249.804162
 30
0.0
 10
11856.459514
 20
-10228.560244
 30
0.0
 10
11885.613818
 20
-10220.688732
 30
0.0
 10
11914.465211
 20
-10228.560244
 30
0.0
 10
11936.582767
 20
-10249.804162
 30
0.0
 10
11939.591342
 20
-10269.100705
 30
0.0
 10
11941.118273
 20
-10278.894213
 30
0.0
 11
11941.118273
 21
-10278.894213
 31
0.0
 11
11933.533326
 21
-10306.934109
 31
0.0
 11
11913.602725
 21
-10326.864710
 31
0.0
 11
11885.562829
 21
-10334.449658
 31
0.0
 11
11857.522933
 21
-10326.864710
 31
0.0
 11
11837.592332
 21
-10306.934109
 31
0.0
 11
11830.007384
 21
-10278.894214
 31
0.0
 11
11837.592332
 21
-10250.854317
 31
0.0
 11
11857.522933
 21
-10230.923717
 31
0.0
 11
11885.562829
 21
-10223.338769
 31
0.0
 11
11913.602725
 21
-10230.923716
 31
0.0
 11
11933.533326
 21
-10250.854317
 31
0.0
 11
11941.118273
 21
-10278.894213
 31
0.0
  0
LWPOLYLINE
  5
128
100
AcDbEntity
  8
0
 62
7
100
AcDbPolyline
 90
2
 70
1
 10
11941.118273
 20
-10278.894213
 30
0.0
 10
11941.118273
 20
-10278.894213
 30
0.0
  0
SPLINE
  5
129
100
AcDbEntity
  8
0
 62
7
100
AcDbSpline
 70
0
 71
3
 72
19
 73
15
 74
13
 40
0.000000
 40
0.000000
 40
0.000000
 40
0.000000
 40
29.047671
 40
57.233797
 40
86.281468
 40
115.329139
 40
143.515265
 40
172.562936
 40
201.610607
 40
229.796734
 40
258.844405
 40
287.892076
 40
316.078202
 40
345.125873
 40
345.125873
 40
345.125873
 40
345.125873
 10
14756.116453
 20
-10278.894213
 30
0.0
 10
14754.589522
 20
-10288.687721
 30
0.0
 10
14751.580947
 20
-10307.984265
 30
0.0
 10
14729.463391
 20
-10329.228183
 30
0.0
 10
14700.611998
 20
-10337.099695
 30
0.0
 10
14671.457694
 20
-10329.228183
 30
0.0
 10
14650.230903
 20
-10307.984265
 30
0.0
 10
14642.353566
 20
-10278.894213
 30
0.0
 10
14650.230903
 20
-10249.804162
 30
0.0
 10
14671.457694
 20
-10228.560244
 30
0.0
 10
14700.611998
 20
-10220.688732
 30
0.0
 10
14729.463391
 20
-10228.560244
 30
0.0
 10
14751.580947
 20
-10249.804162
 30
0.0
 10
14754.589522
 20
-10269.100705
 30
0.0
 10
14756.116453
 20
-10278.894213
 30
0.0
 11
14756.116453
 21
-10278.894213
 31
0.0
 11
14748.531506
 21
-10306.934109
 31
0.0
 11
14728.600905
 21
-10326.864710
 31
0.0
 11
14700.561009
 21
-10334.449658
 31
0.0
 11
14672.521113
 21
-10326.864710
 31
0.0
 11
14652.590512
 21
-10306.934109
 31
0.0
 11
14645.005564
 21
-10278.894214
 31
0.0
 11
14652.590512
 21
-10250.854317
 31
0.0
 11
14672.521113
 21
-10230.923717
 31
0.0
 11
14700.561009
 21
-10223.338769
 31
0.0
 11
14728.600905
 21
-10230.923716
 31
0.0
 11
14748.531506
 21
-10250.854317
 31
0.0
 11
14756.116453
 21
-10278.894213
 31
0.0
  0
LWPOLYLINE
  5
12a
100
AcDbEntity
  8
0
 62
7
100
AcDbPolyline
 90
2
 70
1
 10
14756.116453
 20
-10278.894213
 30
0.0
 10
14756.116453
 20
-10278.894213
 30
0.0
  0
LWPOLYLINE
  5
12b
100
AcDbEntity
  8
0
 62
7
100
AcDbPolyline
 90
2
 70
1
 10
13352.229384
 20
-10278.894213
 30
0.0
 10
13352.229384
 20
-10278.894213
 30
0.0
  0
LWPOLYLINE
  5
12c
100
AcDbEntity
  8
0
 62
7
100
AcDbPolyline
 90
2
 70
0
 10
9047.762222
 20
-10639.744111
 30
0.0
 10
10425.288889
 20
-10639.744111
 30
0.0
  0
LWPOLYLINE
  5
12d
100
AcDbEntity
  8
0
 62
7
100
AcDbPolyline
 90
2
 70
0
 10
9047.762222
 20
-8695.515222
 30
0.0
 10
9047.762222
 20
-10639.744111
 30
0.0
  0
LWPOLYLINE
  5
12e
100
AcDbEntity
  8
0
 62
7
100
AcDbPolyline
 90
3
 70
0
 10
9047.762222
 20
-8695.515222
 30
0.0
 10
10425.288889
 20
-8695.515222
 30
0.0
 10
10425.288889
 20
-10639.744111
 30
0.0
  0
LWPOLYLINE
  5
12f
100
AcDbEntity
  8
0
 62
7
100
AcDbPolyline
 90
2
 70
0
 10
20618.873333
 20
-10639.744111
 30
0.0
 10
21996.400000
 20
-10639.744111
 30
0.0
  0
LWPOLYLINE
  5
130
100
AcDbEntity
  8
0
 62
7
100
AcDbPolyline
 90
2
 70
0
 10
20618.873333
 20
-8695.515222
 30
0.0
 10
20618.873333
 20
-10639.744111
 30
0.0
  0
SPLINE
  5
131
100
AcDbEntity
  8
0
 62
7
100
AcDbSpline
 70
0
 71
3
 72
19
 73
15
 74
13
 40
0.000000
 40
0.000000
 40
0.000000
 40
0.000000
 40
29.047671
 40
57.233797
 40
86.281468
 40
115.329139
 40
143.515265
 40
172.562936
 40
201.610607
 40
229.796734
 40
258.844405
 40
287.892076
 40
316.078202
 40
345.125873
 40
345.125873
 40
345.125873
 40
345.125873
 10
13352.229384
 20
-10278.894213
 30
0.0
 10
13350.702453
 20
-10288.687721
 30
0.0
 10
13347.693878
 20
-10307.984265
 30
0.0
 10
13325.576322
 20
-10329.228183
 30
0.0
 10
13296.724929
 20
-10337.099695
 30
0.0
 10
13267.570625
 20
-10329.228183
 30
0.0
 10
13246.343834
 20
-10307.984265
 30
0.0
 10
13238.466498
 20
-10278.894213
 30
0.0
 10
13246.343834
 20
-10249.804162
 30
0.0
 10
13267.570625
 20
-10228.560244
 30
0.0
 10
13296.724929
 20
-10220.688732
 30
0.0
 10
13325.576322
 20
-10228.560244
 30
0.0
 10
13347.693878
 20
-10249.804162
 30
0.0
 10
13350.702453
 20
-10269.100705
 30
0.0
 10
13352.229384
 20
-10278.894213
 30
0.0
 11
13352.229384
 21
-10278.894213
 31
0.0
 11
13344.644437
 21
-10306.934109
 31
0.0
 11
13324.713836
 21
-10326.864710
 31
0.0
 11
13296.673940
 21
-10334.449658
 31
0.0
 11
13268.634044
 21
-10326.864710
 31
0.0
 11
13248.703443
 21
-10306.934109
 31
0.0
 11
13241.118496
 21
-10278.894214
 31
0.0
 11
13248.703443
 21
-10250.854317
 31
0.0
 11
13268.634044
 21
-10230.923717
 31
0.0
 11
13296.673940
 21
-10223.338769
 31
0.0
 11
13324.713836
 21
-10230.923716
 31
0.0
 11
13344.644437
 21
-10250.854317
 31
0.0
 11
13352.229384
 21
-10278.894213
 31
0.0
  0
LWPOLYLINE
  5
132
100
AcDbEntity
  8
0
 62
7
100
AcDbPolyline
 90
3
 70
0
 10
20618.873333
 20
-8695.515222
 30
0.0
 10
21996.400000
 20
-8695.515222
 30
0.0
 10
21996.400000
 20
-10639.744111
 30
0.0
  0
SPLINE
  5
133
100
AcDbEntity
  8
0
 62
7
100
AcDbSpline
 70
0
 71
3
 72
31
 73
27
 74
25
 40
0.000000
 40
0.000000
 40
0.000000
 40
0.000000
 40
101.801139
 40
202.759837
 40
304.560976
 40
406.362115
 40
507.320813
 40
609.121952
 40
710.923091
 40
811.881789
 40
913.682927
 40
1015.484066
 40
1116.442764
 40
1218.243903
 40
1320.045042
 40
1421.003740
 40
1522.804879
 40
1624.606018
 40
1725.564716
 40
1827.365855
 40
1929.166994
 40
2030.125692
 40
2131.926831
 40
2233.727970
 40
2334.686668
 40
2436.487807
 40
2436.487807
 40
2436.487807
 40
2436.487807
 10
18874.443667
 20
-9667.770778
 30
0.0
 10
18871.851244
 20
-9701.801718
 30
0.0
 10
18866.687852
 20
-9769.581979
 30
0.0
 10
18825.883679
 20
-9864.437465
 30
0.0
 10
18763.804221
 20
-9945.933014
 30
0.0
 10
18682.199304
 20
-10008.420247
 30
0.0
 10
18587.372939
 20
-10047.710675
 30
0.0
 10
18485.553893
 20
-10061.151585
 30
0.0
 10
18383.744796
 20
-10047.710675
 30
0.0
 10
18288.888749
 20
-10008.420247
 30
0.0
 10
18207.393351
 20
-9945.933014
 30
0.0
 10
18144.906078
 20
-9864.437465
 30
0.0
 10
18105.615660
 20
-9769.581979
 30
0.0
 10
18092.174747
 20
-9667.770778
 30
0.0
 10
18105.615660
 20
-9565.959577
 30
0.0
 10
18144.906078
 20
-9471.104090
 30
0.0
 10
18207.393351
 20
-9389.608541
 30
0.0
 10
18288.888749
 20
-9327.121309
 30
0.0
 10
18383.744796
 20
-9287.830880
 30
0.0
 10
18485.553893
 20
-9274.389971
 30
0.0
 10
18587.372939
 20
-9287.830880
 30
0.0
 10
18682.199304
 20
-9327.121309
 30
0.0
 10
18763.804221
 20
-9389.608541
 30
0.0
 10
18825.883679
 20
-9471.104090
 30
0.0
 10
18866.687852
 20
-9565.959577
 30
0.0
 10
18871.851244
 20
-9633.739838
 30
0.0
 10
18874.443667
 20
-9667.770778
 30
0.0
 11
18874.443667
 21
-9667.770778
 31
0.0
 11
18861.120155
 21
-9768.696275
 31
0.0
 11
18822.484933
 21
-9861.969949
 31
0.0
 11
18760.540976
 21
-9942.756198
 31
0.0
 11
18679.754727
 21
-10004.700156
 31
0.0
 11
18586.481052
 21
-10043.335377
 31
0.0
 11
18485.555556
 21
-10056.658889
 31
0.0
 11
18384.630059
 21
-10043.335377
 31
0.0
 11
18291.356384
 21
-10004.700156
 31
0.0
 11
18210.570135
 21
-9942.756198
 31
0.0
 11
18148.626178
 21
-9861.969949
 31
0.0
 11
18109.990957
 21
-9768.696275
 31
0.0
 11
18096.667444
 21
-9667.770778
 31
0.0
 11
18109.990957
 21
-9566.845281
 31
0.0
 11
18148.626178
 21
-9473.571606
 31
0.0
 11
18210.570135
 21
-9392.785357
 31
0.0
 11
18291.356384
 21
-9330.841400
 31
0.0
 11
18384.630059
 21
-9292.206179
 31
0.0
 11
18485.555556
 21
-9278.882667
 31
0.0
 11
18586.481052
 21
-9292.206179
 31
0.0
 11
18679.754727
 21
-9330.841400
 31
0.0
 11
18760.540976
 21
-9392.785357
 31
0.0
 11
18822.484933
 21
-9473.571606
 31
0.0
 11
18861.120155
 21
-9566.845281
 31
0.0
 11
18874.443667
 21
-9667.770778
 31
0.0
  0
SPLINE
  5
134
100
AcDbEntity
  8
0
 62
7
100
AcDbSpline
 70
0
 71
3
 72
10
 73
6
 74
4
 40
0.000000
 40
0.000000
 40
0.000000
 40
0.000000
 40
958.576002
 40
1888.720962
 40
2847.297028
 40
2847.297028
 40
2847.297028
 40
2847.297028
 10
20318.890867
 20
-9667.770780
 30
0.0
 10
20268.464660
 20
-9989.018442
 30
0.0
 10
20169.107872
 20
-10621.985669
 30
0.0
 10
19439.770497
 20
-11351.322911
 30
0.0
 10
18806.803243
 20
-11450.679633
 30
0.0
 10
18485.555556
 20
-11501.105807
 30
0.0
 11
20318.890867
 21
-9667.770780
 31
0.0
 11
20068.586822
 21
-10593.090095
 31
0.0
 11
19410.874962
 21
-11250.801853
 31
0.0
 11
18485.555556
 21
-11501.105807
 31
0.0
  0
SPLINE
  5
135
100
AcDbEntity
  8
0
 62
7
100
AcDbSpline
 70
0
 71
3
 72
10
 73
6
 74
4
 40
0.000000
 40
0.000000
 40
0.000000
 40
0.000000
 40
958.576066
 40
1888.721026
 40
2847.297027
 40
2847.297027
 40
2847.297027
 40
2847.297027
 10
18485.555556
 20
-11501.105807
 30
0.0
 10
18164.307869
 20
-11450.679633
 30
0.0
 10
17531.340614
 20
-11351.322911
 30
0.0
 10
16802.003239
 20
-10621.985670
 30
0.0
 10
16702.646451
 20
-9989.018443
 30
0.0
 10
16652.220244
 20
-9667.770780
 30
0.0
 11
18485.555556
 21
-11501.105807
 31
0.0
 11
17560.236149
 21
-11250.801853
 31
0.0
 11
16902.524289
 21
-10593.090096
 31
0.0
 11
16652.220244
 21
-9667.770780
 31
0.0
  0
SPLINE
  5
136
100
AcDbEntity
  8
0
 62
7
100
AcDbSpline
 70
0
 71
3
 72
10
 73
6
 74
4
 40
0.000000
 40
0.000000
 40
0.000000
 40
0.000000
 40
958.576003
 40
1888.720965
 40
2847.297032
 40
2847.297032
 40
2847.297032
 40
2847.297032
 10
16652.220244
 20
-9667.770780
 30
0.0
 10
16702.646450
 20
-9346.523117
 30
0.0
 10
16802.003237
 20
-8713.555889
 30
0.0
 10
17531.340612
 20
-7984.218645
 30
0.0
 10
18164.307868
 20
-7884.861923
 30
0.0
 10
18485.555556
 20
-7834.435749
 30
0.0
 11
16652.220244
 21
-9667.770780
 31
0.0
 11
16902.524288
 21
-8742.451463
 31
0.0
 11
17560.236148
 21
-8084.739703
 31
0.0
 11
18485.555556
 21
-7834.435749
 31
0.0
  0
LWPOLYLINE
  5
137
100
AcDbEntity
  8
0
 62
7
100
AcDbPolyline
 90
2
 70
1
 10
18874.443667
 20
-9667.770778
 30
0.0
 10
18874.443667
 20
-9667.770778
 30
0.0
  0
SPLINE
  5
138
100
AcDbEntity
  8
0
 62
7
100
AcDbSpline
 70
0
 71
3
 72
10
 73
6
 74
4
 40
0.000000
 40
0.000000
 40
0.000000
 40
0.000000
 40
958.576066
 40
1888.721026
 40
2847.297028
 40
2847.297028
 40
2847.297028
 40
2847.297028
 10
18485.555556
 20
-7834.435749
 30
0.0
 10
18806.803243
 20
-7884.861923
 30
0.0
 10
19439.770497
 20
-7984.218645
 30
0.0
 10
20169.107872
 20
-8713.555886
 30
0.0
 10
20268.464660
 20
-9346.523114
 30
0.0
 10
20318.890867
 20
-9667.770776
 30
0.0
 11
18485.555556
 21
-7834.435749
 31
0.0
 11
19410.874962
 21
-8084.739702
 31
0.0
 11
20068.586822
 21
-8742.451460
 31
0.0
 11
20318.890867
 21
-9667.770776
 31
0.0
  0
SPLINE
  5
139
100
AcDbEntity
  8
0
 62
7
100
AcDbSpline
 70
0
 71
3
 72
10
 73
6
 74
4
 40
0.000000
 40
0.000000
 40
0.000000
 40
0.000000
 40
784.289457
 40
1545.317157
 40
2329.606678
 40
2329.606678
 40
2329.606678
 40
2329.606678
 10
19985.557071
 20
-9667.770779
 30
0.0
 10
19944.299287
 20
-9930.609780
 30
0.0
 10
19863.007411
 20
-10448.492066
 30
0.0
 10
19266.276871
 20
-11045.222585
 30
0.0
 10
18748.394573
 20
-11126.514492
 30
0.0
 10
18485.555556
 20
-11167.772293
 30
0.0
 11
19985.557071
 21
-9667.770779
 31
0.0
 11
19780.762913
 21
-10424.850237
 31
0.0
 11
19242.635065
 21
-10962.978084
 31
0.0
 11
18485.555556
 21
-11167.772293
 31
0.0
  0
SPLINE
  5
13a
100
AcDbEntity
  8
0
 62
7
100
AcDbSpline
 70
0
 71
3
 72
10
 73
6
 74
4
 40
0.000000
 40
0.000000
 40
0.000000
 40
0.000000
 40
784.289520
 40
1545.317222
 40
2329.606681
 40
2329.606681
 40
2329.606681
 40
2329.606681
 10
18485.555556
 20
-11167.772293
 30
0.0
 10
18222.716539
 20
-11126.514492
 30
0.0
 10
17704.834240
 20
-11045.222585
 30
0.0
 10
17108.103700
 20
-10448.492064
 30
0.0
 10
17026.811824
 20
-9930.609777
 30
0.0
 10
16985.554040
 20
-9667.770776
 30
0.0
 11
18485.555556
 21
-11167.772293
 31
0.0
 11
17728.476046
 21
-10962.978084
 31
0.0
 11
17190.348198
 21
-10424.850236
 31
0.0
 11
16985.554040
 21
-9667.770776
 31
0.0
  0
SPLINE
  5
13b
100
AcDbEntity
  8
0
 62
7
100
AcDbSpline
 70
0
 71
3
 72
10
 73
6
 74
4
 40
0.000000
 40
0.000000
 40
0.000000
 40
0.000000
 40
784.289457
 40
1545.317157
 40
2329.606678
 40
2329.606678
 40
2329.606678
 40
2329.606678
 10
16985.554040
 20
-9667.770776
 30
0.0
 10
17026.811824
 20
-9404.931776
 30
0.0
 10
17108.103700
 20
-8887.049490
 30
0.0
 10
17704.834240
 20
-8290.318971
 30
0.0
 10
18222.716539
 20
-8209.027064
 30
0.0
 10
18485.555556
 20
-8167.769262
 30
0.0
 11
16985.554040
 21
-9667.770776
 31
0.0
 11
17190.348198
 21
-8910.691319
 31
0.0
 11
17728.476046
 21
-8372.563471
 31
0.0
 11
18485.555556
 21
-8167.769262
 31
0.0
  0
LWPOLYLINE
  5
13c
100
AcDbEntity
  8
0
 62
7
100
AcDbPolyline
 90
2
 70
1
 10
20318.890867
 20
-9667.770776
 30
0.0
 10
20318.890867
 20
-9667.770778
 30
0.0
  0
SPLINE
  5
13d
100
AcDbEntity
  8
0
 62
7
100
AcDbSpline
 70
0
 71
3
 72
10
 73
6
 74
4
 40
0.000000
 40
0.000000
 40
0.000000
 40
0.000000
 40
784.289520
 40
1545.317221
 40
2329.606678
 40
2329.606678
 40
2329.606678
 40
2329.606678
 10
18485.555556
 20
-8167.769262
 30
0.0
 10
18748.394573
 20
-8209.027064
 30
0.0
 10
19266.276871
 20
-8290.318971
 30
0.0
 10
19863.007411
 20
-8887.049490
 30
0.0
 10
19944.299287
 20
-9404.931776
 30
0.0
 10
19985.557071
 20
-9667.770776
 30
0.0
 11
18485.555556
 21
-8167.769262
 31
0.0
 11
19242.635065
 21
-8372.563471
 31
0.0
 11
19780.762913
 21
-8910.691319
 31
0.0
 11
19985.557071
 21
-9667.770776
 31
0.0
  0
SPLINE
  5
13e
100
AcDbEntity
  8
0
 62
7
100
AcDbSpline
 70
0
 71
3
 72
13
 73
9
 74
7
 40
0.000000
 40
0.000000
 40
0.000000
 40
0.000000
 40
668.098395
 40
1316.381227
 40
1984.479686
 40
2652.578144
 40
3300.860977
 40
3968.959372
 40
3968.959372
 40
3968.959372
 40
3968.959372
 10
19763.334729
 20
-9667.770777
 30
0.0
 10
19728.189179
 20
-9893.022118
 30
0.0
 10
19658.940485
 20
-10336.843925
 30
0.0
 10
19150.614436
 20
-10825.455435
 30
0.0
 10
18485.555556
 20
-11006.500682
 30
0.0
 10
17820.496675
 20
-10825.455435
 30
0.0
 10
17312.170626
 20
-10336.843925
 30
0.0
 10
17242.921932
 20
-9893.022118
 30
0.0
 10
17207.776382
 20
-9667.770776
 30
0.0
 11
19763.334729
 21
-9667.770777
 31
0.0
 11
19588.880367
 21
-10312.690261
 31
0.0
 11
19130.475130
 21
-10771.095397
 31
0.0
 11
18485.555556
 21
-10945.549669
 31
0.0
 11
17840.635981
 21
-10771.095397
 31
0.0
 11
17382.230744
 21
-10312.690261
 31
0.0
 11
17207.776382
 21
-9667.770776
 31
0.0
  0
LWPOLYLINE
  5
13f
100
AcDbEntity
  8
0
 62
7
100
AcDbPolyline
 90
2
 70
1
 10
19985.557071
 20
-9667.770776
 30
0.0
 10
19985.557071
 20
-9667.770778
 30
0.0
  0
SPLINE
  5
140
100
AcDbEntity
  8
0
 62
7
100
AcDbSpline
 70
0
 71
3
 72
13
 73
9
 74
7
 40
0.000000
 40
0.000000
 40
0.000000
 40
0.000000
 40
668.098394
 40
1316.381226
 40
1984.479683
 40
2652.578142
 40
3300.860974
 40
3968.959369
 40
3968.959369
 40
3968.959369
 40
3968.959369
 10
17207.776382
 20
-9667.770776
 30
0.0
 10
17242.921932
 20
-9442.519436
 30
0.0
 10
17312.170627
 20
-8998.697629
 30
0.0
 10
17820.496676
 20
-8510.086121
 30
0.0
 10
18485.555556
 20
-8329.040874
 30
0.0
 10
19150.614436
 20
-8510.086121
 30
0.0
 10
19658.940485
 20
-8998.697631
 30
0.0
 10
19728.189179
 20
-9442.519438
 30
0.0
 10
19763.334729
 20
-9667.770779
 30
0.0
 11
17207.776382
 21
-9667.770776
 31
0.0
 11
17382.230745
 21
-9022.851294
 31
0.0
 11
17840.635982
 21
-8564.446158
 31
0.0
 11
18485.555556
 21
-8389.991887
 31
0.0
 11
19130.475130
 21
-8564.446158
 31
0.0
 11
19588.880367
 21
-9022.851295
 31
0.0
 11
19763.334729
 21
-9667.770779
 31
0.0
  0
SPLINE
  5
141
100
AcDbEntity
  8
0
 62
7
100
AcDbSpline
 70
0
 71
3
 72
10
 73
6
 74
4
 40
0.000000
 40
0.000000
 40
0.000000
 40
0.000000
 40
566.431253
 40
1116.062359
 40
1682.493676
 40
1682.493676
 40
1682.493676
 40
1682.493676
 10
19568.890109
 20
-9667.770778
 30
0.0
 10
19539.092795
 20
-9857.598933
 30
0.0
 10
19480.381943
 20
-10231.625010
 30
0.0
 10
19049.409839
 20
-10662.596981
 30
0.0
 10
18675.383736
 20
-10721.307766
 30
0.0
 10
18485.555556
 20
-10751.105049
 30
0.0
 11
19568.890109
 21
-9667.770778
 31
0.0
 11
19420.983146
 21
-10214.550345
 31
0.0
 11
19032.335213
 21
-10603.198177
 31
0.0
 11
18485.555556
 21
-10751.105049
 31
0.0
  0
SPLINE
  5
142
100
AcDbEntity
  8
0
 62
7
100
AcDbSpline
 70
0
 71
3
 72
10
 73
6
 74
4
 40
0.000000
 40
0.000000
 40
0.000000
 40
0.000000
 40
566.431317
 40
1116.062423
 40
1682.493676
 40
1682.493676
 40
1682.493676
 40
1682.493676
 10
18485.555556
 20
-10751.105049
 30
0.0
 10
18295.727376
 20
-10721.307766
 30
0.0
 10
17921.701272
 20
-10662.596981
 30
0.0
 10
17490.729168
 20
-10231.625010
 30
0.0
 10
17432.018317
 20
-9857.598933
 30
0.0
 10
17402.221002
 20
-9667.770778
 30
0.0
 11
18485.555556
 21
-10751.105049
 31
0.0
 11
17938.775898
 21
-10603.198177
 31
0.0
 11
17550.127965
 21
-10214.550345
 31
0.0
 11
17402.221002
 21
-9667.770778
 31
0.0
  0
SPLINE
  5
143
100
AcDbEntity
  8
0
 62
7
100
AcDbSpline
 70
0
 71
3
 72
10
 73
6
 74
4
 40
0.000000
 40
0.000000
 40
0.000000
 40
0.000000
 40
566.431253
 40
1116.062359
 40
1682.493676
 40
1682.493676
 40
1682.493676
 40
1682.493676
 10
17402.221002
 20
-9667.770778
 30
0.0
 10
17432.018317
 20
-9477.942622
 30
0.0
 10
17490.729168
 20
-9103.916546
 30
0.0
 10
17921.701272
 20
-8672.944574
 30
0.0
 10
18295.727376
 20
-8614.233789
 30
0.0
 10
18485.555556
 20
-8584.436507
 30
0.0
 11
17402.221002
 21
-9667.770778
 31
0.0
 11
17550.127965
 21
-9120.991211
 31
0.0
 11
17938.775898
 21
-8732.343379
 31
0.0
 11
18485.555556
 21
-8584.436507
 31
0.0
  0
LWPOLYLINE
  5
144
100
AcDbEntity
  8
0
 62
7
100
AcDbPolyline
 90
2
 70
1
 10
19763.334729
 20
-9667.770779
 30
0.0
 10
19763.334729
 20
-9667.770778
 30
0.0
  0
SPLINE
  5
145
100
AcDbEntity
  8
0
 62
7
100
AcDbSpline
 70
0
 71
3
 72
10
 73
6
 74
4
 40
0.000000
 40
0.000000
 40
0.000000
 40
0.000000
 40
566.431317
 40
1116.062423
 40
1682.493676
 40
1682.493676
 40
1682.493676
 40
1682.493676
 10
18485.555556
 20
-8584.436507
 30
0.0
 10
18675.383736
 20
-8614.233789
 30
0.0
 10
19049.409839
 20
-8672.944574
 30
0.0
 10
19480.381943
 20
-9103.916546
 30
0.0
 10
19539.092795
 20
-9477.942622
 30
0.0
 10
19568.890109
 20
-9667.770778
 30
0.0
 11
18485.555556
 21
-8584.436507
 31
0.0
 11
19032.335213
 21
-8732.343379
 31
0.0
 11
19420.983146
 21
-9120.991211
 31
0.0
 11
19568.890109
 21
-9667.770778
 31
0.0
  0
LWPOLYLINE
  5
146
100
AcDbEntity
  8
0
 62
7
100
AcDbPolyline
 90
2
 70
1
 10
19568.890109
 20
-9667.770778
 30
0.0
 10
19568.890109
 20
-9667.770778
 30
0.0
  0
ENDSEC
  0
SECTION
  2
OBJECTS
  0
DICTIONARY
  5
C
330
0
100
AcDbDictionary
  3
ACAD_GROUP
350
D
  3
ACAD_MLINESTYLE
350
17
  0
DICTIONARY
  5
D
330
C
100
AcDbDictionary
  0
DICTIONARY
  5
1A
330
C
100
AcDbDictionary
  0
DICTIONARY
  5
17
330
C
100
AcDbDictionary
  3
STANDARD
350
18
  0
DICTIONARY
  5
19
330
C
100
AcDbDictionary
  0
ENDSEC
  0
EOF
