<?xml version="1.0" standalone="no"?>
 <!DOCTYPE svg PUBLIC "-//W3C//DTD SVG 1.1//EN" 
 "http://www.w3.org/Graphics/SVG/1.1/DTD/svg11.dtd"> 
<svg xmlns="http://www.w3.org/2000/svg" version="1.1" 
    width="29.7002cm" height="21.0007cm" viewBox="0 0 116930 82680 ">
<title>SVG Picture created as Minuteur-B.SilkS.svg date 2017/09/19 19:39:27 </title>
  <desc>Picture generated by PCBNEW </desc>
<g style="fill:#000000; fill-opacity:1;stroke:#000000; stroke-opacity:1;
stroke-linecap:round; stroke-linejoin:round; "
 transform="translate(0 0) scale(1 1)">
</g>
<g style="fill:#000000; fill-opacity:0.0; 
stroke:#000000; stroke-width:-0.000393701; stroke-opacity:1; 
stroke-linecap:round; stroke-linejoin:round;">
</g>
<g style="fill:#000000; fill-opacity:0.0; 
stroke:#000000; stroke-width:314.961; stroke-opacity:1; 
stroke-linecap:round; stroke-linejoin:round;">
<path d="M75000 43500
L77000 43500
" />
<path d="M74500 43000
L75000 43500
" />
<path d="M74500 42000
L74500 43000
" />
<path d="M75000 41500
L74500 42000
" />
<path d="M77000 41500
L75000 41500
" />
</g>
<g style="fill:#000000; fill-opacity:0.0; 
stroke:#000000; stroke-width:78.7402; stroke-opacity:1; 
stroke-linecap:round; stroke-linejoin:round;">
<path d="M29500 30000
L84500 30000
" />
<path d="M27500 47500
L27500 32000
" />
<path d="M84500 49500
L29500 49500
" />
<path d="M86500 47500
L86500 32000
" />
<path d="M27500 47500 A2000 2000 0.0 0 0 29500 49500 " />
<path d="M29500 30000 A2000 2000 0.0 0 0 27500 32000 " />
<path d="M86500 32000 A2000 2000 0.0 0 0 84500 30000 " />
<path d="M84500 49500 A2000 2000 0.0 0 0 86500 47500 " />
</g>
<g style="fill:#000000; fill-opacity:0.0; 
stroke:#000000; stroke-width:196.85; stroke-opacity:1; 
stroke-linecap:round; stroke-linejoin:round;">
<path d="M72258 40550
L72110 39368
" />
<path d="M71836 40550
L71759 39931
L71792 39818
L71878 39762
L72019 39762
L72120 39818
L72174 39875
" />
<path d="M71410 39762
L71035 39762
" />
<path d="M71220 39368
L71347 40381
L71314 40493
L71227 40550
L71133 40550
" />
<path d="M70847 39762
L70472 39762
" />
<path d="M70658 39368
L70784 40381
L70751 40493
L70665 40550
L70571 40550
" />
<path d="M70144 39762
L70292 40943
" />
<path d="M70151 39818
L70051 39762
L69863 39762
L69776 39818
L69737 39875
L69704 39987
L69746 40325
L69807 40437
L69861 40493
L69962 40550
L70149 40550
L70236 40493
" />
<path d="M69392 40493
L69305 40550
L69118 40550
L69017 40493
L68956 40381
L68949 40325
L68982 40212
L69069 40156
L69209 40156
L69296 40100
L69329 39987
L69322 39931
L69261 39818
L69160 39762
L69019 39762
L68933 39818
" />
<path d="M68541 40437
L68502 40493
L68555 40550
L68595 40493
L68541 40437
L68555 40550
" />
<path d="M68464 39818
L68424 39875
L68478 39931
L68518 39875
L68464 39818
L68478 39931
" />
<path d="M67229 39312
L68263 40831
" />
<path d="M66198 39312
L67231 40831
" />
<path d="M66020 39762
L65931 40550
L65673 39987
L65556 40550
L65270 39762
" />
<path d="M64989 39762
L64900 40550
L64642 39987
L64525 40550
L64239 39762
" />
<path d="M63958 39762
L63869 40550
L63611 39987
L63494 40550
L63208 39762
" />
<path d="M62917 40437
L62877 40493
L62931 40550
L62971 40493
L62917 40437
L62931 40550
" />
<path d="M62322 40550
L62409 40493
L62441 40381
L62315 39368
" />
<path d="M61565 40493
L61666 40550
L61853 40550
L61940 40493
L61973 40381
L61916 39931
L61856 39818
L61755 39762
L61567 39762
L61481 39818
L61448 39931
L61462 40043
L61945 40156
" />
<path d="M60963 40550
L61049 40493
L61082 40381
L60956 39368
" />
<path d="M60166 40550
L60089 39931
L60121 39818
L60208 39762
L60396 39762
L60496 39818
" />
<path d="M60159 40493
L60260 40550
L60494 40550
L60581 40493
L60613 40381
L60599 40268
L60538 40156
L60438 40100
L60203 40100
L60103 40043
" />
<path d="M59697 40550
L59550 39368
" />
<path d="M59606 39818
L59505 39762
L59318 39762
L59231 39818
L59191 39875
L59158 39987
L59200 40325
L59261 40437
L59315 40493
L59416 40550
L59603 40550
L59690 40493
" />
<path d="M58666 40550
L58753 40493
L58793 40437
L58825 40325
L58783 39987
L58722 39875
L58668 39818
L58568 39762
L58427 39762
L58340 39818
L58300 39875
L58268 39987
L58310 40325
L58371 40437
L58425 40493
L58525 40550
L58666 40550
" />
<path d="M57494 40550
L57347 39368
" />
<path d="M57487 40493
L57588 40550
L57776 40550
L57862 40493
L57902 40437
L57935 40325
L57893 39987
L57832 39875
L57778 39818
L57677 39762
L57490 39762
L57403 39818
" />
<path d="M56505 39762
L56604 40550
" />
<path d="M56927 39762
L57005 40381
L56972 40493
L56885 40550
L56744 40550
L56644 40493
L56590 40437
" />
<path d="M56177 39762
L55802 39762
" />
<path d="M55988 39368
L56114 40381
L56081 40493
L55995 40550
L55901 40550
" />
<path d="M55573 40550
L55474 39762
" />
<path d="M55502 39987
L55441 39875
L55388 39818
L55287 39762
L55193 39762
" />
<path d="M54823 40550
L54910 40493
L54949 40437
L54982 40325
L54940 39987
L54879 39875
L54825 39818
L54724 39762
L54584 39762
L54497 39818
L54457 39875
L54424 39987
L54467 40325
L54528 40437
L54581 40493
L54682 40550
L54823 40550
" />
<path d="M54073 40550
L53974 39762
" />
<path d="M53925 39368
L53979 39425
L53939 39481
L53885 39425
L53925 39368
L53939 39481
" />
<path d="M53644 40493
L53557 40550
L53370 40550
L53269 40493
L53208 40381
L53201 40325
L53234 40212
L53321 40156
L53461 40156
L53548 40100
L53581 39987
L53574 39931
L53513 39818
L53412 39762
L53271 39762
L53185 39818
" />
<path d="M52807 40550
L52709 39762
" />
<path d="M52660 39368
L52714 39425
L52674 39481
L52620 39425
L52660 39368
L52674 39481
" />
<path d="M51957 40493
L52058 40550
L52245 40550
L52332 40493
L52365 40381
L52308 39931
L52247 39818
L52147 39762
L51959 39762
L51872 39818
L51840 39931
L51854 40043
L52336 40156
" />
<path d="M51495 40550
L51397 39762
" />
<path d="M51411 39875
L51357 39818
L51256 39762
L51115 39762
L51029 39818
L50996 39931
L51073 40550
" />
<path d="M50996 39931
L50935 39818
L50834 39762
L50694 39762
L50607 39818
L50574 39931
L50651 40550
" />
<path d="M49801 40493
L49902 40550
L50089 40550
L50176 40493
L50209 40381
L50152 39931
L50091 39818
L49991 39762
L49803 39762
L49716 39818
L49684 39931
L49698 40043
L50180 40156
" />
<path d="M49325 40437
L49285 40493
L49339 40550
L49379 40493
L49325 40437
L49339 40550
" />
<path d="M48913 39762
L48538 39762
" />
<path d="M48870 40550
L48744 39537
L48683 39425
L48582 39368
L48488 39368
" />
<path d="M48308 40550
L48210 39762
" />
<path d="M48238 39987
L48177 39875
L48123 39818
L48022 39762
L47928 39762
" />
<path d="M71923 41337
L71829 41337
L71743 41393
L71703 41449
L71670 41562
L71651 41787
L71686 42068
L71761 42293
L71822 42406
L71876 42462
L71977 42518
L72071 42518
L72157 42462
L72197 42406
L72230 42293
L72249 42068
L72214 41787
L72139 41562
L72078 41449
L72024 41393
L71923 41337
" />
<path d="M71274 42518
L71086 42518
L70986 42462
L70932 42406
L70817 42237
L70742 42012
L70686 41562
L70718 41449
L70758 41393
L70845 41337
L71032 41337
L71133 41393
L71187 41449
L71248 41562
L71283 41843
L71250 41956
L71211 42012
L71124 42068
L70936 42068
L70836 42012
L70782 41956
L70721 41843
" />
<path d="M69526 41281
L70559 42799
" />
<path d="M69266 41449
L69212 41393
L69111 41337
L68877 41337
L68790 41393
L68750 41449
L68717 41562
L68731 41674
L68799 41843
L69446 42518
L68837 42518
" />
<path d="M68080 41337
L67986 41337
L67899 41393
L67859 41449
L67827 41562
L67808 41787
L67843 42068
L67918 42293
L67979 42406
L68033 42462
L68134 42518
L68227 42518
L68314 42462
L68354 42406
L68387 42293
L68405 42068
L68370 41787
L68295 41562
L68234 41449
L68181 41393
L68080 41337
" />
<path d="M66962 42518
L67524 42518
" />
<path d="M67243 42518
L67095 41337
L67210 41506
L67318 41618
L67419 41674
" />
<path d="M66486 41337
L65830 41337
L66399 42518
" />
<path d="M58769 35890
L58523 33922
L58043 35328
L57211 33922
L57457 35890
" />
<path d="M56519 35890
L56355 34578
" />
<path d="M56273 33922
L56379 34015
L56297 34109
L56191 34015
L56273 33922
L56297 34109
" />
<path d="M55418 34578
L55582 35890
" />
<path d="M55441 34765
L55336 34671
L55137 34578
L54856 34578
L54680 34671
L54609 34859
L54738 35890
" />
<path d="M52793 34578
L52957 35890
" />
<path d="M53637 34578
L53766 35609
L53696 35796
L53520 35890
L53239 35890
L53039 35796
L52934 35703
" />
<path d="M52137 34578
L51387 34578
" />
<path d="M51774 33922
L51985 35609
L51914 35796
L51739 35890
L51551 35890
" />
<path d="M50133 35796
L50333 35890
L50708 35890
L50883 35796
L50954 35609
L50860 34859
L50743 34671
L50544 34578
L50169 34578
L49993 34671
L49923 34859
L49946 35046
L50907 35234
" />
<path d="M48200 34578
L48364 35890
" />
<path d="M49044 34578
L49173 35609
L49102 35796
L48927 35890
L48645 35890
L48446 35796
L48341 35703
" />
<path d="M47427 35890
L47263 34578
" />
<path d="M47310 34953
L47192 34765
L47087 34671
L46888 34578
L46700 34578
" />
<path d="M44732 34578
L44427 35890
L43794 34578
" />
<path d="M42177 35890
L43302 35890
" />
<path d="M42740 35890
L42494 33922
L42716 34203
L42927 34390
L43127 34484
" />
</g>
<g style="fill:#000000; fill-opacity:0.0; 
stroke:#000000; stroke-width:47.2441; stroke-opacity:1; 
stroke-linecap:round; stroke-linejoin:round;">
<path d="M75081 42009
L75081 39411
" />
<path d="M75081 45552
L75081 42954
" />
<path d="M75081 45552
L82876 45552
" />
<path d="M82876 45552
L82876 39411
" />
<path d="M82876 39411
L75081 39411
" />
<path d="M81203 40828
L81203 41792
" />
<path d="M81203 44135
L81203 43151
" />
<path d="M77029 40100
L78014 40100
" />
<path d="M76675 42462
L76360 42462
" />
<path d="M78014 44824
L77029 44824
" />
<path d="M79352 42462
L79943 42462
" />
<path d="M79943 42462
L81754 43446
" />
<path d="M79352 41044
L76675 41044
" />
<path d="M79352 42462
L79352 41044
" />
<path d="M76675 42462
L76675 41044
" />
<path d="M78014 44824
L78014 43170
" />
<path d="M78014 41753
L78014 40100
" />
<path d="M78801 41753
L77226 43170
" />
<path d="M77226 41753
L77226 43170
" />
<path d="M77226 43170
L78801 43170
" />
<path d="M78801 43170
L78801 41753
" />
<path d="M78801 41753
L77226 41753
" />
</g>
<g style="fill:#000000; fill-opacity:0.0; 
stroke:#000000; stroke-width:59.0551; stroke-opacity:1; 
stroke-linecap:round; stroke-linejoin:round;">
<path d="M79046 39037
L79177 38850
" />
<path d="M79271 39037
L79271 38644
L79121 38644
L79083 38662
L79064 38681
L79046 38719
L79046 38775
L79064 38812
L79083 38831
L79121 38850
L79271 38850
" />
<path d="M78690 39037
L78877 39037
L78877 38644
" />
<path d="M78352 39037
L78577 39037
" />
<path d="M78465 39037
L78465 38644
L78502 38700
L78540 38737
L78577 38756
" />
</g> 
</svg>
