<?xml version="1.0" standalone="no"?>
 <!DOCTYPE svg PUBLIC "-//W3C//DTD SVG 1.1//EN" 
 "http://www.w3.org/Graphics/SVG/1.1/DTD/svg11.dtd"> 
<svg xmlns="http://www.w3.org/2000/svg" version="1.1" 
    width="29.7002cm" height="21.0007cm" viewBox="0 0 116930 82680 ">
<title>SVG Picture created as Minuteur-F.Paste.svg date 2017/09/19 19:39:27 </title>
  <desc>Picture generated by PCBNEW </desc>
<g style="fill:#000000; fill-opacity:1;stroke:#000000; stroke-opacity:1;
stroke-linecap:round; stroke-linejoin:round; "
 transform="translate(0 0) scale(1 1)">
</g>
<g style="fill:#000000; fill-opacity:0.0; 
stroke:#000000; stroke-width:-0.000393701; stroke-opacity:1; 
stroke-linecap:round; stroke-linejoin:round;">
</g>
<g style="fill:#000000; fill-opacity:0.0; 
stroke:#000000; stroke-width:314.961; stroke-opacity:1; 
stroke-linecap:round; stroke-linejoin:round;">
<path d="M75000 43500
L77000 43500
" />
<path d="M74500 43000
L75000 43500
" />
<path d="M74500 42000
L74500 43000
" />
<path d="M75000 41500
L74500 42000
" />
<path d="M77000 41500
L75000 41500
" />
</g>
<g style="fill:#000000; fill-opacity:0.0; 
stroke:#000000; stroke-width:78.7402; stroke-opacity:1; 
stroke-linecap:round; stroke-linejoin:round;">
<path d="M29500 30000
L84500 30000
" />
<path d="M27500 47500
L27500 32000
" />
<path d="M84500 49500
L29500 49500
" />
<path d="M86500 47500
L86500 32000
" />
<path d="M27500 47500 A2000 2000 0.0 0 0 29500 49500 " />
<path d="M29500 30000 A2000 2000 0.0 0 0 27500 32000 " />
<path d="M86500 32000 A2000 2000 0.0 0 0 84500 30000 " />
<path d="M84500 49500 A2000 2000 0.0 0 0 86500 47500 " />
</g>
<g style="fill:#000000; fill-opacity:0.0; 
stroke:#000000; stroke-width:0; stroke-opacity:1; 
stroke-linecap:round; stroke-linejoin:round;">
</g>
<g style="fill:#000000; fill-opacity:1.0; 
stroke:#000000; stroke-width:0; stroke-opacity:1; 
stroke-linecap:round; stroke-linejoin:round;">
<polyline style="fill-rule:evenodd;"
points="51253,34409
51746,34409
51746,34803
51253,34803
51253,34409
" /> 
<polyline style="fill-rule:evenodd;"
points="51253,35196
51746,35196
51746,35590
51253,35590
51253,35196
" /> 
<polyline style="fill-rule:evenodd;"
points="71929,43783
71929,43468
72283,43468
72283,43783
71929,43783
" /> 
<polyline style="fill-rule:evenodd;"
points="71929,44531
71929,44216
72283,44216
72283,44531
71929,44531
" /> 
<polyline style="fill-rule:evenodd;"
points="72716,44157
72716,43842
73070,43842
73070,44157
72716,44157
" /> 
<polyline style="fill-rule:evenodd;"
points="65755,44011
65244,44011
65244,43736
65755,43736
65755,44011
" /> 
<polyline style="fill-rule:evenodd;"
points="65755,43263
65244,43263
65244,42988
65755,42988
65755,43263
" /> 
<polyline style="fill-rule:evenodd;"
points="52755,35511
52244,35511
52244,35236
52755,35236
52755,35511
" /> 
<polyline style="fill-rule:evenodd;"
points="52755,34763
52244,34763
52244,34488
52755,34488
52755,34763
" /> 
<polyline style="fill-rule:evenodd;"
points="61387,32744
61387,33255
61112,33255
61112,32744
61387,32744
" /> 
<polyline style="fill-rule:evenodd;"
points="60639,32744
60639,33255
60364,33255
60364,32744
60639,32744
" /> 
<polyline style="fill-rule:evenodd;"
points="61385,34744
61385,35255
61110,35255
61110,34744
61385,34744
" /> 
<polyline style="fill-rule:evenodd;"
points="60637,34744
60637,35255
60362,35255
60362,34744
60637,34744
" /> 
<polyline style="fill-rule:evenodd;"
points="35011,38744
35011,39255
34736,39255
34736,38744
35011,38744
" /> 
<polyline style="fill-rule:evenodd;"
points="34263,38744
34263,39255
33988,39255
33988,38744
34263,38744
" /> 
<polyline style="fill-rule:evenodd;"
points="67755,44011
67244,44011
67244,43736
67755,43736
67755,44011
" /> 
<polyline style="fill-rule:evenodd;"
points="67755,43263
67244,43263
67244,42988
67755,42988
67755,43263
" /> 
<polyline style="fill-rule:evenodd;"
points="68988,40755
68988,40244
69263,40244
69263,40755
68988,40755
" /> 
<polyline style="fill-rule:evenodd;"
points="69736,40755
69736,40244
70011,40244
70011,40755
69736,40755
" /> 
<polyline style="fill-rule:evenodd;"
points="71988,42255
71988,41744
72263,41744
72263,42255
71988,42255
" /> 
<polyline style="fill-rule:evenodd;"
points="72736,42255
72736,41744
73011,41744
73011,42255
72736,42255
" /> 
<polyline style="fill-rule:evenodd;"
points="57744,37631
57744,37868
56956,37868
56956,37631
57744,37631
" /> 
<polyline style="fill-rule:evenodd;"
points="57744,37131
57744,37368
56956,37368
56956,37131
57744,37131
" /> 
<polyline style="fill-rule:evenodd;"
points="57744,36631
57744,36868
56956,36868
56956,36631
57744,36631
" /> 
<polyline style="fill-rule:evenodd;"
points="57744,36131
57744,36368
56956,36368
56956,36131
57744,36131
" /> 
<polyline style="fill-rule:evenodd;"
points="57744,35631
57744,35868
56956,35868
56956,35631
57744,35631
" /> 
<polyline style="fill-rule:evenodd;"
points="57744,35131
57744,35368
56956,35368
56956,35131
57744,35131
" /> 
<polyline style="fill-rule:evenodd;"
points="57744,34631
57744,34868
56956,34868
56956,34631
57744,34631
" /> 
<polyline style="fill-rule:evenodd;"
points="57744,34131
57744,34368
56956,34368
56956,34131
57744,34131
" /> 
<polyline style="fill-rule:evenodd;"
points="57744,33631
57744,33868
56956,33868
56956,33631
57744,33631
" /> 
<polyline style="fill-rule:evenodd;"
points="57744,33131
57744,33368
56956,33368
56956,33131
57744,33131
" /> 
<polyline style="fill-rule:evenodd;"
points="57744,32631
57744,32868
56956,32868
56956,32631
57744,32631
" /> 
<polyline style="fill-rule:evenodd;"
points="57744,32131
57744,32368
56956,32368
56956,32131
57744,32131
" /> 
<polyline style="fill-rule:evenodd;"
points="54043,32131
54043,32368
53255,32368
53255,32131
54043,32131
" /> 
<polyline style="fill-rule:evenodd;"
points="54043,32631
54043,32868
53255,32868
53255,32631
54043,32631
" /> 
<polyline style="fill-rule:evenodd;"
points="54043,33131
54043,33368
53255,33368
53255,33131
54043,33131
" /> 
<polyline style="fill-rule:evenodd;"
points="54043,33631
54043,33868
53255,33868
53255,33631
54043,33631
" /> 
<polyline style="fill-rule:evenodd;"
points="54043,34131
54043,34368
53255,34368
53255,34131
54043,34131
" /> 
<polyline style="fill-rule:evenodd;"
points="54043,34631
54043,34868
53255,34868
53255,34631
54043,34631
" /> 
<polyline style="fill-rule:evenodd;"
points="54043,35131
54043,35368
53255,35368
53255,35131
54043,35131
" /> 
<polyline style="fill-rule:evenodd;"
points="54043,35631
54043,35868
53255,35868
53255,35631
54043,35631
" /> 
<polyline style="fill-rule:evenodd;"
points="54043,36131
54043,36368
53255,36368
53255,36131
54043,36131
" /> 
<polyline style="fill-rule:evenodd;"
points="54043,36631
54043,36868
53255,36868
53255,36631
54043,36631
" /> 
<polyline style="fill-rule:evenodd;"
points="54043,37131
54043,37368
53255,37368
53255,37131
54043,37131
" /> 
<polyline style="fill-rule:evenodd;"
points="54043,37631
54043,37868
53255,37868
53255,37631
54043,37631
" /> 
<polyline style="fill-rule:evenodd;"
points="67263,41330
67736,41330
67736,41803
67263,41803
67263,41330
" /> 
<polyline style="fill-rule:evenodd;"
points="67263,42196
67736,42196
67736,42669
67263,42669
67263,42196
" /> 
<polyline style="fill-rule:evenodd;"
points="45736,44669
45263,44669
45263,44196
45736,44196
45736,44669
" /> 
<polyline style="fill-rule:evenodd;"
points="45736,43803
45263,43803
45263,43330
45736,43330
45736,43803
" /> 
<polyline style="fill-rule:evenodd;"
points="45755,42511
45244,42511
45244,42236
45755,42236
45755,42511
" /> 
<polyline style="fill-rule:evenodd;"
points="45755,41763
45244,41763
45244,41488
45755,41488
45755,41763
" /> 
<polyline style="fill-rule:evenodd;"
points="69649,41106
70350,41106
70350,41893
69649,41893
69649,41106
" /> 
<polyline style="fill-rule:evenodd;"
points="68649,44106
69350,44106
69350,44893
68649,44893
68649,44106
" /> 
<polyline style="fill-rule:evenodd;"
points="68649,41106
69350,41106
69350,41893
68649,41893
68649,41106
" /> 
<polyline style="fill-rule:evenodd;"
points="69649,44106
70350,44106
70350,44893
69649,44893
69649,44106
" /> 
<polyline style="fill-rule:evenodd;"
points="38346,43748
38346,42251
39133,42251
39133,43748
38346,43748
" /> 
<polyline style="fill-rule:evenodd;"
points="35866,43295
35866,42704
36653,42704
36653,43295
35866,43295
" /> 
<polyline style="fill-rule:evenodd;"
points="35866,44200
35866,43610
36653,43610
36653,44200
35866,44200
" /> 
<polyline style="fill-rule:evenodd;"
points="35866,42389
35866,41799
36653,41799
36653,42389
35866,42389
" /> 
<polyline style="fill-rule:evenodd;"
points="56255,48060
55744,48060
55744,47785
56255,47785
56255,48060
" /> 
<polyline style="fill-rule:evenodd;"
points="56255,47312
55744,47312
55744,47037
56255,47037
56255,47312
" /> 
<polyline style="fill-rule:evenodd;"
points="74988,39255
74988,38744
75263,38744
75263,39255
74988,39255
" /> 
<polyline style="fill-rule:evenodd;"
points="75736,39255
75736,38744
76011,38744
76011,39255
75736,39255
" /> 
<polyline style="fill-rule:evenodd;"
points="33185,43374
33814,43374
33814,44751
33185,44751
33185,43374
" /> 
<polyline style="fill-rule:evenodd;"
points="33185,41248
33814,41248
33814,42625
33185,42625
33185,41248
" /> 
<polyline style="fill-rule:evenodd;"
points="41185,43374
41814,43374
41814,44751
41185,44751
41185,43374
" /> 
<polyline style="fill-rule:evenodd;"
points="41185,41248
41814,41248
41814,42625
41185,42625
41185,41248
" /> 
<polyline style="fill-rule:evenodd;"
points="65263,41173
65736,41173
65736,41527
65263,41527
65263,41173
" /> 
<polyline style="fill-rule:evenodd;"
points="65263,42472
65736,42472
65736,42826
65263,42826
65263,42472
" /> 
<polyline style="fill-rule:evenodd;"
points="73326,39763
73326,40236
72972,40236
72972,39763
73326,39763
" /> 
<polyline style="fill-rule:evenodd;"
points="72027,39763
72027,40236
71673,40236
71673,39763
72027,39763
" /> 
<polyline style="fill-rule:evenodd;"
points="29265,36066
29265,35909
29797,35909
29797,36066
29265,36066
" /> 
<polyline style="fill-rule:evenodd;"
points="29265,36322
29265,36165
29797,36165
29797,36322
29265,36322
" /> 
<polyline style="fill-rule:evenodd;"
points="29265,36578
29265,36421
29797,36421
29797,36578
29265,36578
" /> 
<polyline style="fill-rule:evenodd;"
points="29265,36834
29265,36677
29797,36677
29797,36834
29265,36834
" /> 
<polyline style="fill-rule:evenodd;"
points="29265,37090
29265,36933
29797,36933
29797,37090
29265,37090
" /> 
<polyline style="fill-rule:evenodd;"
points="60364,37255
60364,36744
60639,36744
60639,37255
60364,37255
" /> 
<polyline style="fill-rule:evenodd;"
points="61112,37255
61112,36744
61387,36744
61387,37255
61112,37255
" /> 
<polyline style="fill-rule:evenodd;"
points="51125,45421
51874,45421
51874,45578
51125,45578
51125,45421
" /> 
<polyline style="fill-rule:evenodd;"
points="51125,45893
51874,45893
51874,46051
51125,46051
51125,45893
" /> 
<polyline style="fill-rule:evenodd;"
points="51125,44948
51874,44948
51874,45106
51125,45106
51125,44948
" /> 
<polyline style="fill-rule:evenodd;"
points="43996,43590
43503,43590
43503,43196
43996,43196
43996,43590
" /> 
<polyline style="fill-rule:evenodd;"
points="43996,42803
43503,42803
43503,42409
43996,42409
43996,42803
" /> 
<polyline style="fill-rule:evenodd;"
points="51103,43353
51596,43353
51596,43746
51103,43746
51103,43353
" /> 
<polyline style="fill-rule:evenodd;"
points="51103,44140
51596,44140
51596,44534
51103,44534
51103,44140
" /> 
<polyline style="fill-rule:evenodd;"
points="53011,43505
53011,43289
53641,43289
53641,43505
53011,43505
" /> 
<polyline style="fill-rule:evenodd;"
points="53011,43820
53011,43604
53641,43604
53641,43820
53011,43820
" /> 
<polyline style="fill-rule:evenodd;"
points="53011,44135
53011,43919
53641,43919
53641,44135
53011,44135
" /> 
<polyline style="fill-rule:evenodd;"
points="53011,44450
53011,44234
53641,44234
53641,44450
53011,44450
" /> 
<polyline style="fill-rule:evenodd;"
points="53011,44765
53011,44549
53641,44549
53641,44765
53011,44765
" /> 
<polyline style="fill-rule:evenodd;"
points="53011,45080
53011,44864
53641,44864
53641,45080
53011,45080
" /> 
<polyline style="fill-rule:evenodd;"
points="53011,45395
53011,45179
53641,45179
53641,45395
53011,45395
" /> 
<polyline style="fill-rule:evenodd;"
points="53011,45710
53011,45494
53641,45494
53641,45710
53011,45710
" /> 
<polyline style="fill-rule:evenodd;"
points="54005,46488
53789,46488
53789,45858
54005,45858
54005,46488
" /> 
<polyline style="fill-rule:evenodd;"
points="54320,46488
54104,46488
54104,45858
54320,45858
54320,46488
" /> 
<polyline style="fill-rule:evenodd;"
points="54635,46488
54419,46488
54419,45858
54635,45858
54635,46488
" /> 
<polyline style="fill-rule:evenodd;"
points="54950,46488
54734,46488
54734,45858
54950,45858
54950,46488
" /> 
<polyline style="fill-rule:evenodd;"
points="55265,46488
55049,46488
55049,45858
55265,45858
55265,46488
" /> 
<polyline style="fill-rule:evenodd;"
points="55580,46488
55364,46488
55364,45858
55580,45858
55580,46488
" /> 
<polyline style="fill-rule:evenodd;"
points="55895,46488
55679,46488
55679,45858
55895,45858
55895,46488
" /> 
<polyline style="fill-rule:evenodd;"
points="56210,46488
55994,46488
55994,45858
56210,45858
56210,46488
" /> 
<polyline style="fill-rule:evenodd;"
points="56358,45710
56358,45494
56988,45494
56988,45710
56358,45710
" /> 
<polyline style="fill-rule:evenodd;"
points="56358,45395
56358,45179
56988,45179
56988,45395
56358,45395
" /> 
<polyline style="fill-rule:evenodd;"
points="56358,45080
56358,44864
56988,44864
56988,45080
56358,45080
" /> 
<polyline style="fill-rule:evenodd;"
points="56358,44765
56358,44549
56988,44549
56988,44765
56358,44765
" /> 
<polyline style="fill-rule:evenodd;"
points="56358,44450
56358,44234
56988,44234
56988,44450
56358,44450
" /> 
<polyline style="fill-rule:evenodd;"
points="56358,44135
56358,43919
56988,43919
56988,44135
56358,44135
" /> 
<polyline style="fill-rule:evenodd;"
points="56358,43820
56358,43604
56988,43604
56988,43820
56358,43820
" /> 
<polyline style="fill-rule:evenodd;"
points="56358,43505
56358,43289
56988,43289
56988,43505
56358,43505
" /> 
<polyline style="fill-rule:evenodd;"
points="56210,43141
55994,43141
55994,42511
56210,42511
56210,43141
" /> 
<polyline style="fill-rule:evenodd;"
points="55895,43141
55679,43141
55679,42511
55895,42511
55895,43141
" /> 
<polyline style="fill-rule:evenodd;"
points="55580,43141
55364,43141
55364,42511
55580,42511
55580,43141
" /> 
<polyline style="fill-rule:evenodd;"
points="55265,43141
55049,43141
55049,42511
55265,42511
55265,43141
" /> 
<polyline style="fill-rule:evenodd;"
points="54950,43141
54734,43141
54734,42511
54950,42511
54950,43141
" /> 
<polyline style="fill-rule:evenodd;"
points="54635,43141
54419,43141
54419,42511
54635,42511
54635,43141
" /> 
<polyline style="fill-rule:evenodd;"
points="54320,43141
54104,43141
54104,42511
54320,42511
54320,43141
" /> 
<polyline style="fill-rule:evenodd;"
points="54005,43141
53789,43141
53789,42511
54005,42511
54005,43141
" /> 
</g> 
</svg>
