<?xml version="1.0" standalone="no"?>
 <!DOCTYPE svg PUBLIC "-//W3C//DTD SVG 1.1//EN" 
 "http://www.w3.org/Graphics/SVG/1.1/DTD/svg11.dtd"> 
<svg xmlns="http://www.w3.org/2000/svg" version="1.1" 
    width="29.7002cm" height="21.0007cm" viewBox="0 0 116930 82680 ">
<title>SVG Picture created as Minuteur-drl_map.svg date 2017/06/09 22:33:30 </title>
  <desc>Picture generated by PCBNEW </desc>
<g style="fill:#000000; fill-opacity:1;stroke:#000000; stroke-opacity:1;
stroke-linecap:round; stroke-linejoin:round; "
 transform="translate(0 0) scale(1 1)">
</g>
<g style="fill:#000000; fill-opacity:0.0; 
stroke:#000000; stroke-width:-0.000393701; stroke-opacity:1; 
stroke-linecap:round; stroke-linejoin:round;">
</g>
<g style="fill:#000000; fill-opacity:0.0; 
stroke:#000000; stroke-width:314.961; stroke-opacity:1; 
stroke-linecap:round; stroke-linejoin:round;">
<path d="M75000 43500
L77000 43500
" />
<path d="M74500 43000
L75000 43500
" />
<path d="M74500 42000
L74500 43000
" />
<path d="M75000 41500
L74500 42000
" />
<path d="M77000 41500
L75000 41500
" />
</g>
<g style="fill:#000000; fill-opacity:0.0; 
stroke:#000000; stroke-width:78.7402; stroke-opacity:1; 
stroke-linecap:round; stroke-linejoin:round;">
<path d="M29500 30000
L84500 30000
" />
<path d="M27500 47500
L27500 32000
" />
<path d="M84500 49500
L29500 49500
" />
<path d="M86500 47500
L86500 32000
" />
<path d="M27500 47500 A2000 2000 0.0 0 0 29500 49500 " />
<path d="M29500 30000 A2000 2000 0.0 0 0 27500 32000 " />
<path d="M86500 32000 A2000 2000 0.0 0 0 84500 30000 " />
<path d="M84500 49500 A2000 2000 0.0 0 0 86500 47500 " />
</g>
<g style="fill:#000000; fill-opacity:0.0; 
stroke:#000000; stroke-width:78.7402; stroke-opacity:1; 
stroke-linecap:round; stroke-linejoin:round;">
<path d="M30771 36171
L30928 36328
" />
<path d="M30928 36171
L30771 36328
" />
<path d="M36921 42421
L37078 42578
" />
<path d="M37078 42421
L36921 42578
" />
<path d="M36921 42921
L37078 43078
" />
<path d="M37078 42921
L36921 43078
" />
<path d="M36921 43421
L37078 43578
" />
<path d="M37078 43421
L36921 43578
" />
<path d="M37421 42421
L37578 42578
" />
<path d="M37578 42421
L37421 42578
" />
<path d="M37421 42921
L37578 43078
" />
<path d="M37578 42921
L37421 43078
" />
<path d="M37421 43421
L37578 43578
" />
<path d="M37578 43421
L37421 43578
" />
<path d="M37921 42421
L38078 42578
" />
<path d="M38078 42421
L37921 42578
" />
<path d="M37921 42921
L38078 43078
" />
<path d="M38078 42921
L37921 43078
" />
<path d="M37921 43421
L38078 43578
" />
<path d="M38078 43421
L37921 43578
" />
<path d="M41421 39921
L41578 40078
" />
<path d="M41578 39921
L41421 40078
" />
<path d="M41921 45921
L42078 46078
" />
<path d="M42078 45921
L41921 46078
" />
<path d="M41921 45921
L42078 46078
" />
<path d="M42078 45921
L41921 46078
" />
<path d="M44421 45921
L44578 46078
" />
<path d="M44578 45921
L44421 46078
" />
<path d="M46271 44871
L46428 45028
" />
<path d="M46428 44871
L46271 45028
" />
<path d="M46896 44746
L47053 44903
" />
<path d="M47053 44746
L46896 44903
" />
<path d="M46921 37171
L47078 37328
" />
<path d="M47078 37171
L46921 37328
" />
<path d="M47505 38921
L47663 39078
" />
<path d="M47663 38921
L47505 39078
" />
<path d="M48921 33921
L49078 34078
" />
<path d="M49078 33921
L48921 34078
" />
<path d="M49417 36486
L49575 36643
" />
<path d="M49575 36486
L49417 36643
" />
<path d="M49696 36671
L49853 36828
" />
<path d="M49853 36671
L49696 36828
" />
<path d="M50121 35446
L50278 35603
" />
<path d="M50278 35446
L50121 35603
" />
<path d="M50171 46921
L50328 47078
" />
<path d="M50328 46921
L50171 47078
" />
<path d="M50203 41173
L50361 41331
" />
<path d="M50361 41173
L50203 41331
" />
<path d="M50602 33486
L50759 33643
" />
<path d="M50759 33486
L50602 33643
" />
<path d="M50921 35421
L51078 35578
" />
<path d="M51078 35421
L50921 35578
" />
<path d="M51171 37171
L51328 37328
" />
<path d="M51328 37171
L51171 37328
" />
<path d="M51171 47921
L51328 48078
" />
<path d="M51328 47921
L51171 48078
" />
<path d="M51421 34171
L51578 34328
" />
<path d="M51578 34171
L51421 34328
" />
<path d="M51921 38421
L52078 38578
" />
<path d="M52078 38421
L51921 38578
" />
<path d="M52171 33171
L52328 33328
" />
<path d="M52328 33171
L52171 33328
" />
<path d="M52184 43712
L52342 43869
" />
<path d="M52342 43712
L52184 43869
" />
<path d="M52421 37421
L52578 37578
" />
<path d="M52578 37421
L52421 37578
" />
<path d="M52421 42421
L52578 42578
" />
<path d="M52578 42421
L52421 42578
" />
<path d="M53421 42921
L53578 43078
" />
<path d="M53578 42921
L53421 43078
" />
<path d="M54096 43521
L54253 43678
" />
<path d="M54253 43521
L54096 43678
" />
<path d="M54171 45421
L54328 45578
" />
<path d="M54328 45421
L54171 45578
" />
<path d="M54221 46821
L54378 46978
" />
<path d="M54378 46821
L54221 46978
" />
<path d="M54271 41896
L54428 42053
" />
<path d="M54428 41896
L54271 42053
" />
<path d="M54446 43521
L54603 43678
" />
<path d="M54603 43521
L54446 43678
" />
<path d="M54806 45421
L54963 45578
" />
<path d="M54963 45421
L54806 45578
" />
<path d="M54921 43921
L55078 44078
" />
<path d="M55078 43921
L54921 44078
" />
<path d="M54921 47421
L55078 47578
" />
<path d="M55078 47421
L54921 47578
" />
<path d="M54996 41996
L55153 42153
" />
<path d="M55153 41996
L54996 42153
" />
<path d="M55140 45421
L55298 45578
" />
<path d="M55298 45421
L55140 45578
" />
<path d="M55946 34721
L56103 34878
" />
<path d="M56103 34721
L55946 34878
" />
<path d="M56321 34371
L56478 34528
" />
<path d="M56478 34371
L56321 34528
" />
<path d="M56421 36171
L56578 36328
" />
<path d="M56578 36171
L56421 36328
" />
<path d="M56521 32746
L56678 32903
" />
<path d="M56678 32746
L56521 32903
" />
<path d="M56666 34711
L56823 34868
" />
<path d="M56823 34711
L56666 34868
" />
<path d="M56921 46721
L57078 46878
" />
<path d="M57078 46721
L56921 46878
" />
<path d="M57521 44421
L57678 44578
" />
<path d="M57678 44421
L57521 44578
" />
<path d="M57847 42322
L58005 42479
" />
<path d="M58005 42322
L57847 42479
" />
<path d="M57921 40771
L58078 40928
" />
<path d="M58078 40771
L57921 40928
" />
<path d="M58021 44421
L58178 44578
" />
<path d="M58178 44421
L58021 44578
" />
<path d="M58521 44421
L58678 44578
" />
<path d="M58678 44421
L58521 44578
" />
<path d="M59040 45877
L59197 46035
" />
<path d="M59197 45877
L59040 46035
" />
<path d="M59071 44846
L59228 45003
" />
<path d="M59228 44846
L59071 45003
" />
<path d="M59553 44052
L59710 44209
" />
<path d="M59710 44052
L59553 44209
" />
<path d="M59671 36421
L59828 36578
" />
<path d="M59828 36421
L59671 36578
" />
<path d="M60150 46471
L60308 46628
" />
<path d="M60308 46471
L60150 46628
" />
<path d="M60721 47621
L60878 47778
" />
<path d="M60878 47621
L60721 47778
" />
<path d="M60921 40921
L61078 41078
" />
<path d="M61078 40921
L60921 41078
" />
<path d="M61421 35921
L61578 36078
" />
<path d="M61578 35921
L61421 36078
" />
<path d="M62171 31671
L62328 31828
" />
<path d="M62328 31671
L62171 31828
" />
<path d="M62421 33171
L62578 33328
" />
<path d="M62578 33171
L62421 33328
" />
<path d="M63421 42421
L63578 42578
" />
<path d="M63578 42421
L63421 42578
" />
<path d="M64921 39921
L65078 40078
" />
<path d="M65078 39921
L64921 40078
" />
<path d="M65371 40721
L65528 40878
" />
<path d="M65528 40721
L65371 40878
" />
<path d="M66671 41171
L66828 41328
" />
<path d="M66828 41171
L66671 41328
" />
<path d="M68171 43671
L68328 43828
" />
<path d="M68328 43671
L68171 43828
" />
<path d="M71171 40921
L71328 41078
" />
<path d="M71328 40921
L71171 41078
" />
<path d="M73671 40921
L73828 41078
" />
<path d="M73828 40921
L73671 41078
" />
<path d="M73921 39421
L74078 39578
" />
<path d="M74078 39421
L73921 39578
" />
<path d="M75371 37971
L75528 38128
" />
<path d="M75528 37971
L75371 38128
" />
<path d="M77648 37398
L77806 37556
" />
<path d="M77806 37398
L77648 37556
" />
<path d="M78421 33421
L78578 33578
" />
<path d="M78578 33421
L78421 33578
" />
<path d="M79921 32921
L80078 33078
" />
<path d="M80078 32921
L79921 33078
" />
<circle cx="28468.5" cy="35122" r="98.4252" /> 
<path d="M28340 35181
L28596 35181
" />
<path d="M28340 35062
L28596 35062
" />
<path d="M28596.5 35181.1 A59.0551 59.0551 0.0 0 0 28596.5 35063 " />
<path d="M28340.6 35063 A59.0551 59.0551 0.0 0 0 28340.6 35181.1 " />
<circle cx="28468.5" cy="37878" r="98.4252" /> 
<path d="M28340 37937
L28596 37937
" />
<path d="M28340 37818
L28596 37818
" />
<path d="M28596.5 37937 A59.0551 59.0551 0.0 0 0 28596.5 37818.9 " />
<path d="M28340.6 37818.9 A59.0551 59.0551 0.0 0 0 28340.6 37937 " />
<path d="M29531 35407
L29531 35624
" />
<path d="M29423 35515
L29639 35515
" />
<path d="M29462 35456
L29462 35574
" />
<path d="M29600 35456
L29600 35574
" />
<path d="M29462.6 35574.8 A68.8976 68.8976 0.0 0 0 29600.4 35574.8 " />
<path d="M29600.4 35456.7 A68.8976 68.8976 0.0 0 0 29462.6 35456.7 " />
<path d="M29531 37375
L29531 37592
" />
<path d="M29423 37484
L29639 37484
" />
<path d="M29462 37425
L29462 37543
" />
<path d="M29600 37425
L29600 37543
" />
<path d="M29462.6 37543.3 A68.8976 68.8976 0.0 0 0 29600.4 37543.3 " />
<path d="M29600.4 37425.2 A68.8976 68.8976 0.0 0 0 29462.6 37425.2 " />
<polyline fill="none;"
points="33097,33097
33097,32902
32902,32902
32902,33097
33097,33097
" /> 
<polyline fill="none;"
points="34097,33097
34097,32902
33902,32902
33902,33097
34097,33097
" /> 
<polyline fill="none;"
points="35097,33097
35097,32902
34902,32902
34902,33097
35097,33097
" /> 
<polyline fill="none;"
points="36097,33097
36097,32902
35902,32902
35902,33097
36097,33097
" /> 
<polyline fill="none;"
points="74097,33097
74097,32902
73902,32902
73902,33097
74097,33097
" /> 
<polyline fill="none;"
points="75097,33097
75097,32902
74902,32902
74902,33097
75097,33097
" /> 
<polyline fill="none;"
points="76097,33097
76097,32902
75902,32902
75902,33097
76097,33097
" /> 
<polyline fill="none;"
points="77097,33097
77097,32902
76902,32902
76902,33097
77097,33097
" /> 
<polyline fill="none;"
points="33000,35177
33177,35000
33000,34822
32822,35000
33000,35177
" /> 
<polyline fill="none;"
points="33000,37177
33177,37000
33000,36822
32822,37000
33000,37177
" /> 
<polyline fill="none;"
points="36000,35177
36177,35000
36000,34822
35822,35000
36000,35177
" /> 
<polyline fill="none;"
points="36000,37177
36177,37000
36000,36822
35822,37000
36000,37177
" /> 
<polyline fill="none;"
points="74000,35177
74177,35000
74000,34822
73822,35000
74000,35177
" /> 
<polyline fill="none;"
points="74000,37177
74177,37000
74000,36822
73822,37000
74000,37177
" /> 
<polyline fill="none;"
points="77000,35177
77177,35000
77000,34822
76822,35000
77000,35177
" /> 
<polyline fill="none;"
points="77000,37177
77177,37000
77000,36822
76822,37000
77000,37177
" /> 
<path d="M45320 37820
L45680 38180
" />
<path d="M45680 37820
L45320 38180
" />
<circle cx="45500" cy="38000" r="180" /> 
<path d="M39803 47303
L40196 47696
" />
<path d="M40196 47303
L39803 47696
" />
<path d="M40000 47303
L40000 47696
" />
<path d="M39803 47500
L40196 47500
" />
<path d="M40803 47303
L41196 47696
" />
<path d="M41196 47303
L40803 47696
" />
<path d="M41000 47303
L41000 47696
" />
<path d="M40803 47500
L41196 47500
" />
<path d="M41803 47303
L42196 47696
" />
<path d="M42196 47303
L41803 47696
" />
<path d="M42000 47303
L42000 47696
" />
<path d="M41803 47500
L42196 47500
" />
<path d="M42803 47303
L43196 47696
" />
<path d="M43196 47303
L42803 47696
" />
<path d="M43000 47303
L43000 47696
" />
<path d="M42803 47500
L43196 47500
" />
<path d="M43803 47303
L44196 47696
" />
<path d="M44196 47303
L43803 47696
" />
<path d="M44000 47303
L44000 47696
" />
<path d="M43803 47500
L44196 47500
" />
<path d="M44803 47303
L45196 47696
" />
<path d="M45196 47303
L44803 47696
" />
<path d="M45000 47303
L45000 47696
" />
<path d="M44803 47500
L45196 47500
" />
<path d="M45303 31803
L45696 32196
" />
<path d="M45696 31803
L45303 32196
" />
<path d="M45500 31803
L45500 32196
" />
<path d="M45303 32000
L45696 32000
" />
<path d="M46303 31803
L46696 32196
" />
<path d="M46696 31803
L46303 32196
" />
<path d="M46500 31803
L46500 32196
" />
<path d="M46303 32000
L46696 32000
" />
<path d="M46303 37803
L46696 38196
" />
<path d="M46696 37803
L46303 38196
" />
<path d="M46500 37803
L46500 38196
" />
<path d="M46303 38000
L46696 38000
" />
<path d="M47303 31803
L47696 32196
" />
<path d="M47696 31803
L47303 32196
" />
<path d="M47500 31803
L47500 32196
" />
<path d="M47303 32000
L47696 32000
" />
<path d="M47303 37803
L47696 38196
" />
<path d="M47696 37803
L47303 38196
" />
<path d="M47500 37803
L47500 38196
" />
<path d="M47303 38000
L47696 38000
" />
<path d="M48303 31803
L48696 32196
" />
<path d="M48696 31803
L48303 32196
" />
<path d="M48500 31803
L48500 32196
" />
<path d="M48303 32000
L48696 32000
" />
<path d="M48303 37803
L48696 38196
" />
<path d="M48696 37803
L48303 38196
" />
<path d="M48500 37803
L48500 38196
" />
<path d="M48303 38000
L48696 38000
" />
<path d="M49303 31803
L49696 32196
" />
<path d="M49696 31803
L49303 32196
" />
<path d="M49500 31803
L49500 32196
" />
<path d="M49303 32000
L49696 32000
" />
<path d="M49303 37803
L49696 38196
" />
<path d="M49696 37803
L49303 38196
" />
<path d="M49500 37803
L49500 38196
" />
<path d="M49303 38000
L49696 38000
" />
<path d="M50303 31803
L50696 32196
" />
<path d="M50696 31803
L50303 32196
" />
<path d="M50500 31803
L50500 32196
" />
<path d="M50303 32000
L50696 32000
" />
<path d="M50303 37803
L50696 38196
" />
<path d="M50696 37803
L50303 38196
" />
<path d="M50500 37803
L50500 38196
" />
<path d="M50303 38000
L50696 38000
" />
<path d="M57803 47303
L58196 47696
" />
<path d="M58196 47303
L57803 47696
" />
<path d="M58000 47303
L58000 47696
" />
<path d="M57803 47500
L58196 47500
" />
<path d="M58803 47303
L59196 47696
" />
<path d="M59196 47303
L58803 47696
" />
<path d="M59000 47303
L59000 47696
" />
<path d="M58803 47500
L59196 47500
" />
<path d="M64318 31850
L64712 32244
" />
<path d="M64712 31850
L64318 32244
" />
<path d="M64515 31850
L64515 32244
" />
<path d="M64318 32047
L64712 32047
" />
<path d="M64318 37559
L64712 37952
" />
<path d="M64712 37559
L64318 37952
" />
<path d="M64515 37559
L64515 37952
" />
<path d="M64318 37755
L64712 37755
" />
<path d="M65303 31850
L65696 32244
" />
<path d="M65696 31850
L65303 32244
" />
<path d="M65500 31850
L65500 32244
" />
<path d="M65303 32047
L65696 32047
" />
<path d="M66287 31850
L66681 32244
" />
<path d="M66681 31850
L66287 32244
" />
<path d="M66484 31850
L66484 32244
" />
<path d="M66287 32047
L66681 32047
" />
<path d="M66287 37559
L66681 37952
" />
<path d="M66681 37559
L66287 37952
" />
<path d="M66484 37559
L66484 37952
" />
<path d="M66287 37755
L66681 37755
" />
<path d="M76070 39960
L76464 40354
" />
<path d="M76464 39960
L76070 40354
" />
<path d="M76267 39960
L76267 40354
" />
<path d="M76070 40157
L76464 40157
" />
<path d="M76070 44685
L76464 45078
" />
<path d="M76464 44685
L76070 45078
" />
<path d="M76267 44685
L76267 45078
" />
<path d="M76070 44881
L76464 44881
" />
<path d="M81553 31803
L81946 32196
" />
<path d="M81946 31803
L81553 32196
" />
<path d="M81750 31803
L81750 32196
" />
<path d="M81553 32000
L81946 32000
" />
<path d="M81553 32803
L81946 33196
" />
<path d="M81946 32803
L81553 33196
" />
<path d="M81750 32803
L81750 33196
" />
<path d="M81553 33000
L81946 33000
" />
<path d="M81553 33803
L81946 34196
" />
<path d="M81946 33803
L81553 34196
" />
<path d="M81750 33803
L81750 34196
" />
<path d="M81553 34000
L81946 34000
" />
<path d="M81553 34803
L81946 35196
" />
<path d="M81946 34803
L81553 35196
" />
<path d="M81750 34803
L81750 35196
" />
<path d="M81553 35000
L81946 35000
" />
<path d="M81553 35803
L81946 36196
" />
<path d="M81946 35803
L81553 36196
" />
<path d="M81750 35803
L81750 36196
" />
<path d="M81553 36000
L81946 36000
" />
<path d="M81553 36803
L81946 37196
" />
<path d="M81946 36803
L81553 37196
" />
<path d="M81750 36803
L81750 37196
" />
<path d="M81553 37000
L81946 37000
" />
<path d="M81553 37803
L81946 38196
" />
<path d="M81946 37803
L81553 38196
" />
<path d="M81750 37803
L81750 38196
" />
<path d="M81553 38000
L81946 38000
" />
<path d="M61800 43300
L62200 43700
" />
<path d="M62200 43300
L61800 43700
" />
<polyline fill="none;"
points="62141,43641
62141,43358
61858,43358
61858,43641
62141,43641
" /> 
<path d="M61800 44300
L62200 44700
" />
<path d="M62200 44300
L61800 44700
" />
<polyline fill="none;"
points="62141,44641
62141,44358
61858,44358
61858,44641
62141,44641
" /> 
<path d="M61800 45300
L62200 45700
" />
<path d="M62200 45300
L61800 45700
" />
<polyline fill="none;"
points="62141,45641
62141,45358
61858,45358
61858,45641
62141,45641
" /> 
<path d="M62800 43300
L63200 43700
" />
<path d="M63200 43300
L62800 43700
" />
<polyline fill="none;"
points="63141,43641
63141,43358
62858,43358
62858,43641
63141,43641
" /> 
<path d="M62800 44300
L63200 44700
" />
<path d="M63200 44300
L62800 44700
" />
<polyline fill="none;"
points="63141,44641
63141,44358
62858,44358
62858,44641
63141,44641
" /> 
<path d="M62800 45300
L63200 45700
" />
<path d="M63200 45300
L62800 45700
" />
<polyline fill="none;"
points="63141,45641
63141,45358
62858,45358
62858,45641
63141,45641
" /> 
<path d="M32783 37783
L33216 38216
" />
<path d="M33216 37783
L32783 38216
" />
<polyline fill="none;"
points="33000,38216
33216,38000
33000,37783
32783,38000
33000,38216
" /> 
<path d="M35783 31783
L36216 32216
" />
<path d="M36216 31783
L35783 32216
" />
<polyline fill="none;"
points="36000,32216
36216,32000
36000,31783
35783,32000
36000,32216
" /> 
<path d="M73783 37783
L74216 38216
" />
<path d="M74216 37783
L73783 38216
" />
<polyline fill="none;"
points="74000,38216
74216,38000
74000,37783
73783,38000
74000,38216
" /> 
<path d="M76783 31783
L77216 32216
" />
<path d="M77216 31783
L76783 32216
" />
<polyline fill="none;"
points="77000,32216
77216,32000
77000,31783
76783,32000
77000,32216
" /> 
<path d="M75500 42244
L75500 42755
" />
<path d="M75244 42500
L75755 42500
" />
<circle cx="75500" cy="42500" r="255.906" /> 
<path d="M81070 44625
L81070 45137
" />
<path d="M80814 44881
L81326 44881
" />
<circle cx="81070.9" cy="44881.9" r="255.906" /> 
<path d="M81090 39881
L81090 40393
" />
<path d="M80834 40137
L81346 40137
" />
<circle cx="81090.6" cy="40137.8" r="255.906" /> 
<polyline fill="none;"
points="29711,42211
29711,41788
29288,41788
29288,42211
29711,42211
" /> 
<circle cx="29500" cy="42000" r="299.213" /> 
<polyline fill="none;"
points="29711,44211
29711,43788
29288,43788
29288,44211
29711,44211
" /> 
<circle cx="29500" cy="44000" r="299.213" /> 
<polyline fill="none;"
points="84711,40711
84711,40288
84288,40288
84288,40711
84711,40711
" /> 
<circle cx="84500" cy="40500" r="299.213" /> 
<polyline fill="none;"
points="84711,42711
84711,42288
84288,42288
84288,42711
84711,42711
" /> 
<circle cx="84500" cy="42500" r="299.213" /> 
<polyline fill="none;"
points="84711,44711
84711,44288
84288,44288
84288,44711
84711,44711
" /> 
<circle cx="84500" cy="44500" r="299.213" /> 
<polyline fill="none;"
points="63255,35433
63688,35000
63255,34566
62822,35000
63255,35433
" /> 
<circle cx="63255.9" cy="35000" r="433.071" /> 
<polyline fill="none;"
points="67744,35433
68177,35000
67744,34566
67311,35000
67744,35433
" /> 
<circle cx="67744.1" cy="35000" r="433.071" /> 
<path d="M29500 31370
L29500 32629
" />
<path d="M28870 32000
L30129 32000
" />
<polyline fill="none;"
points="29945,32445
29945,31554
29054,31554
29054,32445
29945,32445
" /> 
<path d="M29500 46870
L29500 48129
" />
<path d="M28870 47500
L30129 47500
" />
<polyline fill="none;"
points="29945,47945
29945,47054
29054,47054
29054,47945
29945,47945
" /> 
<path d="M84500 31370
L84500 32629
" />
<path d="M83870 32000
L85129 32000
" />
<polyline fill="none;"
points="84945,32445
84945,31554
84054,31554
84054,32445
84945,32445
" /> 
<path d="M84500 46870
L84500 48129
" />
<path d="M83870 47500
L85129 47500
" />
<polyline fill="none;"
points="84945,47945
84945,47054
84054,47054
84054,47945
84945,47945
" /> 
</g>
<g style="fill:#000000; fill-opacity:0.0; 
stroke:#000000; stroke-width:118.11; stroke-opacity:1; 
stroke-linecap:round; stroke-linejoin:round;">
<path d="M28529 51372
L28529 50191
L28810 50191
L28979 50248
L29091 50360
L29147 50473
L29204 50697
L29204 50866
L29147 51091
L29091 51204
L28979 51316
L28810 51372
L28529 51372
" />
<path d="M29710 51372
L29710 50585
" />
<path d="M29710 50810
L29766 50697
L29822 50641
L29935 50585
L30047 50585
" />
<path d="M30441 51372
L30441 50585
" />
<path d="M30441 50191
L30385 50248
L30441 50304
L30497 50248
L30441 50191
L30441 50304
" />
<path d="M31172 51372
L31060 51316
L31003 51204
L31003 50191
" />
<path d="M31791 51372
L31678 51316
L31622 51204
L31622 50191
" />
<path d="M33141 51372
L33141 50191
L33534 51035
L33928 50191
L33928 51372
" />
<path d="M34997 51372
L34997 50754
L34940 50641
L34828 50585
L34603 50585
L34491 50641
" />
<path d="M34997 51316
L34884 51372
L34603 51372
L34491 51316
L34434 51204
L34434 51091
L34491 50979
L34603 50922
L34884 50922
L34997 50866
" />
<path d="M35559 50585
L35559 51766
" />
<path d="M35559 50641
L35672 50585
L35897 50585
L36009 50641
L36065 50697
L36122 50810
L36122 51147
L36065 51260
L36009 51316
L35897 51372
L35672 51372
L35559 51316
" />
<path d="M36628 51260
L36684 51316
L36628 51372
L36571 51316
L36628 51260
L36628 51372
" />
<path d="M36628 50641
L36684 50697
L36628 50754
L36571 50697
L36628 50641
L36628 50754
" />
<path d="M27303 53240
L27460 53397
" />
<path d="M27460 53240
L27303 53397
" />
<path d="M28754 52672
L28866 52672
L28979 52728
L29035 52784
L29091 52897
L29147 53122
L29147 53403
L29091 53628
L29035 53740
L28979 53796
L28866 53853
L28754 53853
L28641 53796
L28585 53740
L28529 53628
L28473 53403
L28473 53122
L28529 52897
L28585 52784
L28641 52728
L28754 52672
" />
<path d="M29654 53740
L29710 53796
L29654 53853
L29597 53796
L29654 53740
L29654 53853
" />
<path d="M30722 53065
L30722 53853
" />
<path d="M30441 52615
L30160 53459
L30891 53459
" />
<path d="M31566 52672
L31678 52672
L31791 52728
L31847 52784
L31903 52897
L31960 53122
L31960 53403
L31903 53628
L31847 53740
L31791 53796
L31678 53853
L31566 53853
L31453 53796
L31397 53740
L31341 53628
L31285 53403
L31285 53122
L31341 52897
L31397 52784
L31453 52728
L31566 52672
" />
<path d="M32466 53853
L32466 53065
" />
<path d="M32466 53178
L32522 53122
L32634 53065
L32803 53065
L32916 53122
L32972 53234
L32972 53853
" />
<path d="M32972 53234
L33028 53122
L33141 53065
L33309 53065
L33422 53122
L33478 53234
L33478 53853
" />
<path d="M34041 53853
L34041 53065
" />
<path d="M34041 53178
L34097 53122
L34209 53065
L34378 53065
L34491 53122
L34547 53234
L34547 53853
" />
<path d="M34547 53234
L34603 53122
L34715 53065
L34884 53065
L34997 53122
L35053 53234
L35053 53853
" />
<path d="M37359 52615
L36347 54134
" />
<path d="M38877 52672
L38990 52672
L39102 52728
L39159 52784
L39215 52897
L39271 53122
L39271 53403
L39215 53628
L39159 53740
L39102 53796
L38990 53853
L38877 53853
L38765 53796
L38709 53740
L38652 53628
L38596 53403
L38596 53122
L38652 52897
L38709 52784
L38765 52728
L38877 52672
" />
<path d="M39777 53740
L39834 53796
L39777 53853
L39721 53796
L39777 53740
L39777 53853
" />
<path d="M40565 52672
L40677 52672
L40790 52728
L40846 52784
L40902 52897
L40958 53122
L40958 53403
L40902 53628
L40846 53740
L40790 53796
L40677 53853
L40565 53853
L40452 53796
L40396 53740
L40340 53628
L40284 53403
L40284 53122
L40340 52897
L40396 52784
L40452 52728
L40565 52672
" />
<path d="M42083 53853
L41408 53853
" />
<path d="M41746 53853
L41746 52672
L41633 52840
L41521 52953
L41408 53009
" />
<path d="M43096 52672
L42871 52672
L42758 52728
L42702 52784
L42589 52953
L42533 53178
L42533 53628
L42589 53740
L42646 53796
L42758 53853
L42983 53853
L43096 53796
L43152 53740
L43208 53628
L43208 53347
L43152 53234
L43096 53178
L42983 53122
L42758 53122
L42646 53178
L42589 53234
L42533 53347
" />
<path d="M43658 52672
L43658 52897
" />
<path d="M44108 52672
L44108 52897
" />
<path d="M45852 54303
L45795 54246
L45683 54078
L45627 53965
L45570 53796
L45514 53515
L45514 53290
L45570 53009
L45627 52840
L45683 52728
L45795 52559
L45852 52503
" />
<path d="M46189 52672
L46976 52672
L46470 53853
" />
<path d="M47595 53178
L47483 53122
L47426 53065
L47370 52953
L47370 52897
L47426 52784
L47483 52728
L47595 52672
L47820 52672
L47933 52728
L47989 52784
L48045 52897
L48045 52953
L47989 53065
L47933 53122
L47820 53178
L47595 53178
L47483 53234
L47426 53290
L47370 53403
L47370 53628
L47426 53740
L47483 53796
L47595 53853
L47820 53853
L47933 53796
L47989 53740
L48045 53628
L48045 53403
L47989 53290
L47933 53234
L47820 53178
" />
<path d="M49451 53853
L49451 52672
" />
<path d="M49957 53853
L49957 53234
L49901 53122
L49789 53065
L49620 53065
L49507 53122
L49451 53178
" />
<path d="M50688 53853
L50576 53796
L50520 53740
L50464 53628
L50464 53290
L50520 53178
L50576 53122
L50688 53065
L50857 53065
L50970 53122
L51026 53178
L51082 53290
L51082 53628
L51026 53740
L50970 53796
L50857 53853
L50688 53853
" />
<path d="M51757 53853
L51645 53796
L51588 53684
L51588 52672
" />
<path d="M52657 53796
L52544 53853
L52320 53853
L52207 53796
L52151 53684
L52151 53234
L52207 53122
L52320 53065
L52544 53065
L52657 53122
L52713 53234
L52713 53347
L52151 53459
" />
<path d="M53163 53796
L53276 53853
L53501 53853
L53613 53796
L53669 53684
L53669 53628
L53613 53515
L53501 53459
L53332 53459
L53219 53403
L53163 53290
L53163 53234
L53219 53122
L53332 53065
L53501 53065
L53613 53122
" />
<path d="M54063 54303
L54119 54246
L54232 54078
L54288 53965
L54344 53796
L54401 53515
L54401 53290
L54344 53009
L54288 52840
L54232 52728
L54119 52559
L54063 52503
" />
<circle cx="27362.2" cy="54878" r="98.4252" /> 
<path d="M28754 54231
L28866 54231
L28979 54287
L29035 54343
L29091 54456
L29147 54681
L29147 54962
L29091 55187
L29035 55299
L28979 55356
L28866 55412
L28754 55412
L28641 55356
L28585 55299
L28529 55187
L28473 54962
L28473 54681
L28529 54456
L28585 54343
L28641 54287
L28754 54231
" />
<path d="M29654 55299
L29710 55356
L29654 55412
L29597 55356
L29654 55299
L29654 55412
" />
<path d="M30778 54231
L30216 54231
L30160 54793
L30216 54737
L30329 54681
L30610 54681
L30722 54737
L30778 54793
L30835 54906
L30835 55187
L30778 55299
L30722 55356
L30610 55412
L30329 55412
L30216 55356
L30160 55299
" />
<path d="M31566 54231
L31678 54231
L31791 54287
L31847 54343
L31903 54456
L31960 54681
L31960 54962
L31903 55187
L31847 55299
L31791 55356
L31678 55412
L31566 55412
L31453 55356
L31397 55299
L31341 55187
L31285 54962
L31285 54681
L31341 54456
L31397 54343
L31453 54287
L31566 54231
" />
<path d="M32466 55412
L32466 54624
" />
<path d="M32466 54737
L32522 54681
L32634 54624
L32803 54624
L32916 54681
L32972 54793
L32972 55412
" />
<path d="M32972 54793
L33028 54681
L33141 54624
L33309 54624
L33422 54681
L33478 54793
L33478 55412
" />
<path d="M34041 55412
L34041 54624
" />
<path d="M34041 54737
L34097 54681
L34209 54624
L34378 54624
L34491 54681
L34547 54793
L34547 55412
" />
<path d="M34547 54793
L34603 54681
L34715 54624
L34884 54624
L34997 54681
L35053 54793
L35053 55412
" />
<path d="M37359 54174
L36347 55693
" />
<path d="M38877 54231
L38990 54231
L39102 54287
L39159 54343
L39215 54456
L39271 54681
L39271 54962
L39215 55187
L39159 55299
L39102 55356
L38990 55412
L38877 55412
L38765 55356
L38709 55299
L38652 55187
L38596 54962
L38596 54681
L38652 54456
L38709 54343
L38765 54287
L38877 54231
" />
<path d="M39777 55299
L39834 55356
L39777 55412
L39721 55356
L39777 55299
L39777 55412
" />
<path d="M40565 54231
L40677 54231
L40790 54287
L40846 54343
L40902 54456
L40958 54681
L40958 54962
L40902 55187
L40846 55299
L40790 55356
L40677 55412
L40565 55412
L40452 55356
L40396 55299
L40340 55187
L40284 54962
L40284 54681
L40340 54456
L40396 54343
L40452 54287
L40565 54231
" />
<path d="M41408 54343
L41465 54287
L41577 54231
L41858 54231
L41971 54287
L42027 54343
L42083 54456
L42083 54568
L42027 54737
L41352 55412
L42083 55412
" />
<path d="M42814 54231
L42927 54231
L43039 54287
L43096 54343
L43152 54456
L43208 54681
L43208 54962
L43152 55187
L43096 55299
L43039 55356
L42927 55412
L42814 55412
L42702 55356
L42646 55299
L42589 55187
L42533 54962
L42533 54681
L42589 54456
L42646 54343
L42702 54287
L42814 54231
" />
<path d="M43658 54231
L43658 54456
" />
<path d="M44108 54231
L44108 54456
" />
<path d="M45852 55862
L45795 55805
L45683 55637
L45627 55524
L45570 55356
L45514 55074
L45514 54849
L45570 54568
L45627 54399
L45683 54287
L45795 54118
L45852 54062
" />
<path d="M46526 54231
L46639 54231
L46751 54287
L46808 54343
L46864 54456
L46920 54681
L46920 54962
L46864 55187
L46808 55299
L46751 55356
L46639 55412
L46526 55412
L46414 55356
L46358 55299
L46302 55187
L46245 54962
L46245 54681
L46302 54456
L46358 54343
L46414 54287
L46526 54231
" />
<path d="M48326 55412
L48326 54231
" />
<path d="M48832 55412
L48832 54793
L48776 54681
L48664 54624
L48495 54624
L48383 54681
L48326 54737
" />
<path d="M49564 55412
L49451 55356
L49395 55299
L49339 55187
L49339 54849
L49395 54737
L49451 54681
L49564 54624
L49732 54624
L49845 54681
L49901 54737
L49957 54849
L49957 55187
L49901 55299
L49845 55356
L49732 55412
L49564 55412
" />
<path d="M50632 55412
L50520 55356
L50464 55243
L50464 54231
" />
<path d="M51532 55356
L51420 55412
L51195 55412
L51082 55356
L51026 55243
L51026 54793
L51082 54681
L51195 54624
L51420 54624
L51532 54681
L51588 54793
L51588 54906
L51026 55018
" />
<path d="M52038 55356
L52151 55412
L52376 55412
L52488 55356
L52544 55243
L52544 55187
L52488 55074
L52376 55018
L52207 55018
L52095 54962
L52038 54849
L52038 54793
L52095 54681
L52207 54624
L52376 54624
L52488 54681
" />
<path d="M53951 54962
L54850 54962
" />
<path d="M54401 55412
L54401 54512
" />
<path d="M56257 54343
L56313 54287
L56425 54231
L56706 54231
L56819 54287
L56875 54343
L56931 54456
L56931 54568
L56875 54737
L56200 55412
L56931 55412
" />
<path d="M58281 55356
L58394 55412
L58619 55412
L58731 55356
L58787 55243
L58787 55187
L58731 55074
L58619 55018
L58450 55018
L58338 54962
L58281 54849
L58281 54793
L58338 54681
L58450 54624
L58619 54624
L58731 54681
" />
<path d="M59462 55412
L59350 55356
L59294 55243
L59294 54231
" />
<path d="M60081 55412
L59969 55356
L59912 55299
L59856 55187
L59856 54849
L59912 54737
L59969 54681
L60081 54624
L60250 54624
L60362 54681
L60419 54737
L60475 54849
L60475 55187
L60419 55299
L60362 55356
L60250 55412
L60081 55412
" />
<path d="M60812 54624
L61262 54624
" />
<path d="M60981 54231
L60981 55243
L61037 55356
L61150 55412
L61262 55412
" />
<path d="M61600 55356
L61712 55412
L61937 55412
L62050 55356
L62106 55243
L62106 55187
L62050 55074
L61937 55018
L61768 55018
L61656 54962
L61600 54849
L61600 54793
L61656 54681
L61768 54624
L61937 54624
L62050 54681
" />
<path d="M62499 55862
L62556 55805
L62668 55637
L62724 55524
L62781 55356
L62837 55074
L62837 54849
L62781 54568
L62724 54399
L62668 54287
L62556 54118
L62499 54062
" />
<path d="M27352 56328
L27352 56545
" />
<path d="M27244 56437
L27460 56437
" />
<path d="M28754 55790
L28866 55790
L28979 55846
L29035 55902
L29091 56015
L29147 56240
L29147 56521
L29091 56746
L29035 56858
L28979 56915
L28866 56971
L28754 56971
L28641 56915
L28585 56858
L28529 56746
L28473 56521
L28473 56240
L28529 56015
L28585 55902
L28641 55846
L28754 55790
" />
<path d="M29654 56858
L29710 56915
L29654 56971
L29597 56915
L29654 56858
L29654 56971
" />
<path d="M30778 55790
L30216 55790
L30160 56352
L30216 56296
L30329 56240
L30610 56240
L30722 56296
L30778 56352
L30835 56465
L30835 56746
L30778 56858
L30722 56915
L30610 56971
L30329 56971
L30216 56915
L30160 56858
" />
<path d="M31903 55790
L31341 55790
L31285 56352
L31341 56296
L31453 56240
L31735 56240
L31847 56296
L31903 56352
L31960 56465
L31960 56746
L31903 56858
L31847 56915
L31735 56971
L31453 56971
L31341 56915
L31285 56858
" />
<path d="M32466 56971
L32466 56183
" />
<path d="M32466 56296
L32522 56240
L32634 56183
L32803 56183
L32916 56240
L32972 56352
L32972 56971
" />
<path d="M32972 56352
L33028 56240
L33141 56183
L33309 56183
L33422 56240
L33478 56352
L33478 56971
" />
<path d="M34041 56971
L34041 56183
" />
<path d="M34041 56296
L34097 56240
L34209 56183
L34378 56183
L34491 56240
L34547 56352
L34547 56971
" />
<path d="M34547 56352
L34603 56240
L34715 56183
L34884 56183
L34997 56240
L35053 56352
L35053 56971
" />
<path d="M37359 55733
L36347 57252
" />
<path d="M38877 55790
L38990 55790
L39102 55846
L39159 55902
L39215 56015
L39271 56240
L39271 56521
L39215 56746
L39159 56858
L39102 56915
L38990 56971
L38877 56971
L38765 56915
L38709 56858
L38652 56746
L38596 56521
L38596 56240
L38652 56015
L38709 55902
L38765 55846
L38877 55790
" />
<path d="M39777 56858
L39834 56915
L39777 56971
L39721 56915
L39777 56858
L39777 56971
" />
<path d="M40565 55790
L40677 55790
L40790 55846
L40846 55902
L40902 56015
L40958 56240
L40958 56521
L40902 56746
L40846 56858
L40790 56915
L40677 56971
L40565 56971
L40452 56915
L40396 56858
L40340 56746
L40284 56521
L40284 56240
L40340 56015
L40396 55902
L40452 55846
L40565 55790
" />
<path d="M41408 55902
L41465 55846
L41577 55790
L41858 55790
L41971 55846
L42027 55902
L42083 56015
L42083 56127
L42027 56296
L41352 56971
L42083 56971
" />
<path d="M42533 55902
L42589 55846
L42702 55790
L42983 55790
L43096 55846
L43152 55902
L43208 56015
L43208 56127
L43152 56296
L42477 56971
L43208 56971
" />
<path d="M43658 55790
L43658 56015
" />
<path d="M44108 55790
L44108 56015
" />
<path d="M45852 57421
L45795 57365
L45683 57196
L45627 57083
L45570 56915
L45514 56633
L45514 56408
L45570 56127
L45627 55958
L45683 55846
L45795 55677
L45852 55621
" />
<path d="M46526 55790
L46639 55790
L46751 55846
L46808 55902
L46864 56015
L46920 56240
L46920 56521
L46864 56746
L46808 56858
L46751 56915
L46639 56971
L46526 56971
L46414 56915
L46358 56858
L46302 56746
L46245 56521
L46245 56240
L46302 56015
L46358 55902
L46414 55846
L46526 55790
" />
<path d="M48326 56971
L48326 55790
" />
<path d="M48832 56971
L48832 56352
L48776 56240
L48664 56183
L48495 56183
L48383 56240
L48326 56296
" />
<path d="M49564 56971
L49451 56915
L49395 56858
L49339 56746
L49339 56408
L49395 56296
L49451 56240
L49564 56183
L49732 56183
L49845 56240
L49901 56296
L49957 56408
L49957 56746
L49901 56858
L49845 56915
L49732 56971
L49564 56971
" />
<path d="M50632 56971
L50520 56915
L50464 56802
L50464 55790
" />
<path d="M51532 56915
L51420 56971
L51195 56971
L51082 56915
L51026 56802
L51026 56352
L51082 56240
L51195 56183
L51420 56183
L51532 56240
L51588 56352
L51588 56465
L51026 56577
" />
<path d="M52038 56915
L52151 56971
L52376 56971
L52488 56915
L52544 56802
L52544 56746
L52488 56633
L52376 56577
L52207 56577
L52095 56521
L52038 56408
L52038 56352
L52095 56240
L52207 56183
L52376 56183
L52488 56240
" />
<path d="M53951 56521
L54850 56521
" />
<path d="M54401 56971
L54401 56071
" />
<path d="M56257 55902
L56313 55846
L56425 55790
L56706 55790
L56819 55846
L56875 55902
L56931 56015
L56931 56127
L56875 56296
L56200 56971
L56931 56971
" />
<path d="M58281 56915
L58394 56971
L58619 56971
L58731 56915
L58787 56802
L58787 56746
L58731 56633
L58619 56577
L58450 56577
L58338 56521
L58281 56408
L58281 56352
L58338 56240
L58450 56183
L58619 56183
L58731 56240
" />
<path d="M59462 56971
L59350 56915
L59294 56802
L59294 55790
" />
<path d="M60081 56971
L59969 56915
L59912 56858
L59856 56746
L59856 56408
L59912 56296
L59969 56240
L60081 56183
L60250 56183
L60362 56240
L60419 56296
L60475 56408
L60475 56746
L60419 56858
L60362 56915
L60250 56971
L60081 56971
" />
<path d="M60812 56183
L61262 56183
" />
<path d="M60981 55790
L60981 56802
L61037 56915
L61150 56971
L61262 56971
" />
<path d="M61600 56915
L61712 56971
L61937 56971
L62050 56915
L62106 56802
L62106 56746
L62050 56633
L61937 56577
L61768 56577
L61656 56521
L61600 56408
L61600 56352
L61656 56240
L61768 56183
L61937 56183
L62050 56240
" />
<path d="M62499 57421
L62556 57365
L62668 57196
L62724 57083
L62781 56915
L62837 56633
L62837 56408
L62781 56127
L62724 55958
L62668 55846
L62556 55677
L62499 55621
" />
<polyline fill="none;"
points="27420,58093
27420,57898
27225,57898
27225,58093
27420,58093
" /> 
<path d="M28754 57349
L28866 57349
L28979 57405
L29035 57461
L29091 57574
L29147 57799
L29147 58080
L29091 58305
L29035 58417
L28979 58474
L28866 58530
L28754 58530
L28641 58474
L28585 58417
L28529 58305
L28473 58080
L28473 57799
L28529 57574
L28585 57461
L28641 57405
L28754 57349
" />
<path d="M29654 58417
L29710 58474
L29654 58530
L29597 58474
L29654 58417
L29654 58530
" />
<path d="M30104 57349
L30891 57349
L30385 58530
" />
<path d="M31566 57349
L31678 57349
L31791 57405
L31847 57461
L31903 57574
L31960 57799
L31960 58080
L31903 58305
L31847 58417
L31791 58474
L31678 58530
L31566 58530
L31453 58474
L31397 58417
L31341 58305
L31285 58080
L31285 57799
L31341 57574
L31397 57461
L31453 57405
L31566 57349
" />
<path d="M32466 58530
L32466 57742
" />
<path d="M32466 57855
L32522 57799
L32634 57742
L32803 57742
L32916 57799
L32972 57911
L32972 58530
" />
<path d="M32972 57911
L33028 57799
L33141 57742
L33309 57742
L33422 57799
L33478 57911
L33478 58530
" />
<path d="M34041 58530
L34041 57742
" />
<path d="M34041 57855
L34097 57799
L34209 57742
L34378 57742
L34491 57799
L34547 57911
L34547 58530
" />
<path d="M34547 57911
L34603 57799
L34715 57742
L34884 57742
L34997 57799
L35053 57911
L35053 58530
" />
<path d="M37359 57293
L36347 58811
" />
<path d="M38877 57349
L38990 57349
L39102 57405
L39159 57461
L39215 57574
L39271 57799
L39271 58080
L39215 58305
L39159 58417
L39102 58474
L38990 58530
L38877 58530
L38765 58474
L38709 58417
L38652 58305
L38596 58080
L38596 57799
L38652 57574
L38709 57461
L38765 57405
L38877 57349
" />
<path d="M39777 58417
L39834 58474
L39777 58530
L39721 58474
L39777 58417
L39777 58530
" />
<path d="M40565 57349
L40677 57349
L40790 57405
L40846 57461
L40902 57574
L40958 57799
L40958 58080
L40902 58305
L40846 58417
L40790 58474
L40677 58530
L40565 58530
L40452 58474
L40396 58417
L40340 58305
L40284 58080
L40284 57799
L40340 57574
L40396 57461
L40452 57405
L40565 57349
" />
<path d="M41408 57461
L41465 57405
L41577 57349
L41858 57349
L41971 57405
L42027 57461
L42083 57574
L42083 57686
L42027 57855
L41352 58530
L42083 58530
" />
<path d="M42758 57855
L42646 57799
L42589 57742
L42533 57630
L42533 57574
L42589 57461
L42646 57405
L42758 57349
L42983 57349
L43096 57405
L43152 57461
L43208 57574
L43208 57630
L43152 57742
L43096 57799
L42983 57855
L42758 57855
L42646 57911
L42589 57967
L42533 58080
L42533 58305
L42589 58417
L42646 58474
L42758 58530
L42983 58530
L43096 58474
L43152 58417
L43208 58305
L43208 58080
L43152 57967
L43096 57911
L42983 57855
" />
<path d="M43658 57349
L43658 57574
" />
<path d="M44108 57349
L44108 57574
" />
<path d="M45852 58980
L45795 58924
L45683 58755
L45627 58642
L45570 58474
L45514 58192
L45514 57967
L45570 57686
L45627 57517
L45683 57405
L45795 57236
L45852 57180
" />
<path d="M46470 57855
L46358 57799
L46302 57742
L46245 57630
L46245 57574
L46302 57461
L46358 57405
L46470 57349
L46695 57349
L46808 57405
L46864 57461
L46920 57574
L46920 57630
L46864 57742
L46808 57799
L46695 57855
L46470 57855
L46358 57911
L46302 57967
L46245 58080
L46245 58305
L46302 58417
L46358 58474
L46470 58530
L46695 58530
L46808 58474
L46864 58417
L46920 58305
L46920 58080
L46864 57967
L46808 57911
L46695 57855
" />
<path d="M48326 58530
L48326 57349
" />
<path d="M48832 58530
L48832 57911
L48776 57799
L48664 57742
L48495 57742
L48383 57799
L48326 57855
" />
<path d="M49564 58530
L49451 58474
L49395 58417
L49339 58305
L49339 57967
L49395 57855
L49451 57799
L49564 57742
L49732 57742
L49845 57799
L49901 57855
L49957 57967
L49957 58305
L49901 58417
L49845 58474
L49732 58530
L49564 58530
" />
<path d="M50632 58530
L50520 58474
L50464 58361
L50464 57349
" />
<path d="M51532 58474
L51420 58530
L51195 58530
L51082 58474
L51026 58361
L51026 57911
L51082 57799
L51195 57742
L51420 57742
L51532 57799
L51588 57911
L51588 58024
L51026 58136
" />
<path d="M52038 58474
L52151 58530
L52376 58530
L52488 58474
L52544 58361
L52544 58305
L52488 58192
L52376 58136
L52207 58136
L52095 58080
L52038 57967
L52038 57911
L52095 57799
L52207 57742
L52376 57742
L52488 57799
" />
<path d="M52938 58980
L52994 58924
L53107 58755
L53163 58642
L53219 58474
L53276 58192
L53276 57967
L53219 57686
L53163 57517
L53107 57405
L52994 57236
L52938 57180
" />
<polyline fill="none;"
points="27283,59732
27460,59555
27283,59377
27106,59555
27283,59732
" /> 
<path d="M28754 58908
L28866 58908
L28979 58964
L29035 59020
L29091 59133
L29147 59358
L29147 59639
L29091 59864
L29035 59976
L28979 60033
L28866 60089
L28754 60089
L28641 60033
L28585 59976
L28529 59864
L28473 59639
L28473 59358
L28529 59133
L28585 59020
L28641 58964
L28754 58908
" />
<path d="M29654 59976
L29710 60033
L29654 60089
L29597 60033
L29654 59976
L29654 60089
" />
<path d="M30272 60089
L30497 60089
L30610 60033
L30666 59976
L30778 59808
L30835 59583
L30835 59133
L30778 59020
L30722 58964
L30610 58908
L30385 58908
L30272 58964
L30216 59020
L30160 59133
L30160 59414
L30216 59526
L30272 59583
L30385 59639
L30610 59639
L30722 59583
L30778 59526
L30835 59414
" />
<path d="M31566 58908
L31678 58908
L31791 58964
L31847 59020
L31903 59133
L31960 59358
L31960 59639
L31903 59864
L31847 59976
L31791 60033
L31678 60089
L31566 60089
L31453 60033
L31397 59976
L31341 59864
L31285 59639
L31285 59358
L31341 59133
L31397 59020
L31453 58964
L31566 58908
" />
<path d="M32466 60089
L32466 59302
" />
<path d="M32466 59414
L32522 59358
L32634 59302
L32803 59302
L32916 59358
L32972 59470
L32972 60089
" />
<path d="M32972 59470
L33028 59358
L33141 59302
L33309 59302
L33422 59358
L33478 59470
L33478 60089
" />
<path d="M34041 60089
L34041 59302
" />
<path d="M34041 59414
L34097 59358
L34209 59302
L34378 59302
L34491 59358
L34547 59470
L34547 60089
" />
<path d="M34547 59470
L34603 59358
L34715 59302
L34884 59302
L34997 59358
L35053 59470
L35053 60089
" />
<path d="M37359 58852
L36347 60370
" />
<path d="M38877 58908
L38990 58908
L39102 58964
L39159 59020
L39215 59133
L39271 59358
L39271 59639
L39215 59864
L39159 59976
L39102 60033
L38990 60089
L38877 60089
L38765 60033
L38709 59976
L38652 59864
L38596 59639
L38596 59358
L38652 59133
L38709 59020
L38765 58964
L38877 58908
" />
<path d="M39777 59976
L39834 60033
L39777 60089
L39721 60033
L39777 59976
L39777 60089
" />
<path d="M40565 58908
L40677 58908
L40790 58964
L40846 59020
L40902 59133
L40958 59358
L40958 59639
L40902 59864
L40846 59976
L40790 60033
L40677 60089
L40565 60089
L40452 60033
L40396 59976
L40340 59864
L40284 59639
L40284 59358
L40340 59133
L40396 59020
L40452 58964
L40565 58908
" />
<path d="M41352 58908
L42083 58908
L41690 59358
L41858 59358
L41971 59414
L42027 59470
L42083 59583
L42083 59864
L42027 59976
L41971 60033
L41858 60089
L41521 60089
L41408 60033
L41352 59976
" />
<path d="M43152 58908
L42589 58908
L42533 59470
L42589 59414
L42702 59358
L42983 59358
L43096 59414
L43152 59470
L43208 59583
L43208 59864
L43152 59976
L43096 60033
L42983 60089
L42702 60089
L42589 60033
L42533 59976
" />
<path d="M43658 58908
L43658 59133
" />
<path d="M44108 58908
L44108 59133
" />
<path d="M45852 60539
L45795 60483
L45683 60314
L45627 60201
L45570 60033
L45514 59751
L45514 59526
L45570 59245
L45627 59077
L45683 58964
L45795 58795
L45852 58739
" />
<path d="M46470 59414
L46358 59358
L46302 59302
L46245 59189
L46245 59133
L46302 59020
L46358 58964
L46470 58908
L46695 58908
L46808 58964
L46864 59020
L46920 59133
L46920 59189
L46864 59302
L46808 59358
L46695 59414
L46470 59414
L46358 59470
L46302 59526
L46245 59639
L46245 59864
L46302 59976
L46358 60033
L46470 60089
L46695 60089
L46808 60033
L46864 59976
L46920 59864
L46920 59639
L46864 59526
L46808 59470
L46695 59414
" />
<path d="M48326 60089
L48326 58908
" />
<path d="M48832 60089
L48832 59470
L48776 59358
L48664 59302
L48495 59302
L48383 59358
L48326 59414
" />
<path d="M49564 60089
L49451 60033
L49395 59976
L49339 59864
L49339 59526
L49395 59414
L49451 59358
L49564 59302
L49732 59302
L49845 59358
L49901 59414
L49957 59526
L49957 59864
L49901 59976
L49845 60033
L49732 60089
L49564 60089
" />
<path d="M50632 60089
L50520 60033
L50464 59920
L50464 58908
" />
<path d="M51532 60033
L51420 60089
L51195 60089
L51082 60033
L51026 59920
L51026 59470
L51082 59358
L51195 59302
L51420 59302
L51532 59358
L51588 59470
L51588 59583
L51026 59695
" />
<path d="M52038 60033
L52151 60089
L52376 60089
L52488 60033
L52544 59920
L52544 59864
L52488 59751
L52376 59695
L52207 59695
L52095 59639
L52038 59526
L52038 59470
L52095 59358
L52207 59302
L52376 59302
L52488 59358
" />
<path d="M52938 60539
L52994 60483
L53107 60314
L53163 60201
L53219 60033
L53276 59751
L53276 59526
L53219 59245
L53163 59077
L53107 58964
L52994 58795
L52938 58739
" />
<path d="M27100 60934
L27460 61294
" />
<path d="M27460 60934
L27100 61294
" />
<circle cx="27280.6" cy="61114.2" r="180" /> 
<path d="M28754 60467
L28866 60467
L28979 60523
L29035 60579
L29091 60692
L29147 60917
L29147 61198
L29091 61423
L29035 61535
L28979 61592
L28866 61648
L28754 61648
L28641 61592
L28585 61535
L28529 61423
L28473 61198
L28473 60917
L28529 60692
L28585 60579
L28641 60523
L28754 60467
" />
<path d="M29654 61535
L29710 61592
L29654 61648
L29597 61592
L29654 61535
L29654 61648
" />
<path d="M30272 61648
L30497 61648
L30610 61592
L30666 61535
L30778 61367
L30835 61142
L30835 60692
L30778 60579
L30722 60523
L30610 60467
L30385 60467
L30272 60523
L30216 60579
L30160 60692
L30160 60973
L30216 61086
L30272 61142
L30385 61198
L30610 61198
L30722 61142
L30778 61086
L30835 60973
" />
<path d="M31960 61648
L31285 61648
" />
<path d="M31622 61648
L31622 60467
L31510 60636
L31397 60748
L31285 60804
" />
<path d="M32466 61648
L32466 60861
" />
<path d="M32466 60973
L32522 60917
L32634 60861
L32803 60861
L32916 60917
L32972 61029
L32972 61648
" />
<path d="M32972 61029
L33028 60917
L33141 60861
L33309 60861
L33422 60917
L33478 61029
L33478 61648
" />
<path d="M34041 61648
L34041 60861
" />
<path d="M34041 60973
L34097 60917
L34209 60861
L34378 60861
L34491 60917
L34547 61029
L34547 61648
" />
<path d="M34547 61029
L34603 60917
L34715 60861
L34884 60861
L34997 60917
L35053 61029
L35053 61648
" />
<path d="M37359 60411
L36347 61929
" />
<path d="M38877 60467
L38990 60467
L39102 60523
L39159 60579
L39215 60692
L39271 60917
L39271 61198
L39215 61423
L39159 61535
L39102 61592
L38990 61648
L38877 61648
L38765 61592
L38709 61535
L38652 61423
L38596 61198
L38596 60917
L38652 60692
L38709 60579
L38765 60523
L38877 60467
" />
<path d="M39777 61535
L39834 61592
L39777 61648
L39721 61592
L39777 61535
L39777 61648
" />
<path d="M40565 60467
L40677 60467
L40790 60523
L40846 60579
L40902 60692
L40958 60917
L40958 61198
L40902 61423
L40846 61535
L40790 61592
L40677 61648
L40565 61648
L40452 61592
L40396 61535
L40340 61423
L40284 61198
L40284 60917
L40340 60692
L40396 60579
L40452 60523
L40565 60467
" />
<path d="M41352 60467
L42083 60467
L41690 60917
L41858 60917
L41971 60973
L42027 61029
L42083 61142
L42083 61423
L42027 61535
L41971 61592
L41858 61648
L41521 61648
L41408 61592
L41352 61535
" />
<path d="M43096 60467
L42871 60467
L42758 60523
L42702 60579
L42589 60748
L42533 60973
L42533 61423
L42589 61535
L42646 61592
L42758 61648
L42983 61648
L43096 61592
L43152 61535
L43208 61423
L43208 61142
L43152 61029
L43096 60973
L42983 60917
L42758 60917
L42646 60973
L42589 61029
L42533 61142
" />
<path d="M43658 60467
L43658 60692
" />
<path d="M44108 60467
L44108 60692
" />
<path d="M45852 62098
L45795 62042
L45683 61873
L45627 61760
L45570 61592
L45514 61311
L45514 61086
L45570 60804
L45627 60636
L45683 60523
L45795 60354
L45852 60298
" />
<path d="M46920 61648
L46245 61648
" />
<path d="M46583 61648
L46583 60467
L46470 60636
L46358 60748
L46245 60804
" />
<path d="M48326 61648
L48326 60467
" />
<path d="M48832 61648
L48832 61029
L48776 60917
L48664 60861
L48495 60861
L48383 60917
L48326 60973
" />
<path d="M49564 61648
L49451 61592
L49395 61535
L49339 61423
L49339 61086
L49395 60973
L49451 60917
L49564 60861
L49732 60861
L49845 60917
L49901 60973
L49957 61086
L49957 61423
L49901 61535
L49845 61592
L49732 61648
L49564 61648
" />
<path d="M50632 61648
L50520 61592
L50464 61479
L50464 60467
" />
<path d="M51532 61592
L51420 61648
L51195 61648
L51082 61592
L51026 61479
L51026 61029
L51082 60917
L51195 60861
L51420 60861
L51532 60917
L51588 61029
L51588 61142
L51026 61254
" />
<path d="M51982 62098
L52038 62042
L52151 61873
L52207 61760
L52263 61592
L52320 61311
L52320 61086
L52263 60804
L52207 60636
L52151 60523
L52038 60354
L51982 60298
" />
<path d="M27066 62476
L27460 62870
" />
<path d="M27460 62476
L27066 62870
" />
<path d="M27263 62476
L27263 62870
" />
<path d="M27066 62673
L27460 62673
" />
<path d="M29147 63207
L28473 63207
" />
<path d="M28810 63207
L28810 62026
L28697 62195
L28585 62307
L28473 62363
" />
<path d="M29654 63095
L29710 63151
L29654 63207
L29597 63151
L29654 63095
L29654 63207
" />
<path d="M30441 62026
L30553 62026
L30666 62082
L30722 62138
L30778 62251
L30835 62476
L30835 62757
L30778 62982
L30722 63095
L30666 63151
L30553 63207
L30441 63207
L30329 63151
L30272 63095
L30216 62982
L30160 62757
L30160 62476
L30216 62251
L30272 62138
L30329 62082
L30441 62026
" />
<path d="M31566 62026
L31678 62026
L31791 62082
L31847 62138
L31903 62251
L31960 62476
L31960 62757
L31903 62982
L31847 63095
L31791 63151
L31678 63207
L31566 63207
L31453 63151
L31397 63095
L31341 62982
L31285 62757
L31285 62476
L31341 62251
L31397 62138
L31453 62082
L31566 62026
" />
<path d="M32466 63207
L32466 62420
" />
<path d="M32466 62532
L32522 62476
L32634 62420
L32803 62420
L32916 62476
L32972 62588
L32972 63207
" />
<path d="M32972 62588
L33028 62476
L33141 62420
L33309 62420
L33422 62476
L33478 62588
L33478 63207
" />
<path d="M34041 63207
L34041 62420
" />
<path d="M34041 62532
L34097 62476
L34209 62420
L34378 62420
L34491 62476
L34547 62588
L34547 63207
" />
<path d="M34547 62588
L34603 62476
L34715 62420
L34884 62420
L34997 62476
L35053 62588
L35053 63207
" />
<path d="M37359 61970
L36347 63488
" />
<path d="M38877 62026
L38990 62026
L39102 62082
L39159 62138
L39215 62251
L39271 62476
L39271 62757
L39215 62982
L39159 63095
L39102 63151
L38990 63207
L38877 63207
L38765 63151
L38709 63095
L38652 62982
L38596 62757
L38596 62476
L38652 62251
L38709 62138
L38765 62082
L38877 62026
" />
<path d="M39777 63095
L39834 63151
L39777 63207
L39721 63151
L39777 63095
L39777 63207
" />
<path d="M40565 62026
L40677 62026
L40790 62082
L40846 62138
L40902 62251
L40958 62476
L40958 62757
L40902 62982
L40846 63095
L40790 63151
L40677 63207
L40565 63207
L40452 63151
L40396 63095
L40340 62982
L40284 62757
L40284 62476
L40340 62251
L40396 62138
L40452 62082
L40565 62026
" />
<path d="M41352 62026
L42083 62026
L41690 62476
L41858 62476
L41971 62532
L42027 62588
L42083 62701
L42083 62982
L42027 63095
L41971 63151
L41858 63207
L41521 63207
L41408 63151
L41352 63095
" />
<path d="M42646 63207
L42871 63207
L42983 63151
L43039 63095
L43152 62926
L43208 62701
L43208 62251
L43152 62138
L43096 62082
L42983 62026
L42758 62026
L42646 62082
L42589 62138
L42533 62251
L42533 62532
L42589 62645
L42646 62701
L42758 62757
L42983 62757
L43096 62701
L43152 62645
L43208 62532
" />
<path d="M43658 62026
L43658 62251
" />
<path d="M44108 62026
L44108 62251
" />
<path d="M45852 63657
L45795 63601
L45683 63432
L45627 63320
L45570 63151
L45514 62870
L45514 62645
L45570 62363
L45627 62195
L45683 62082
L45795 61913
L45852 61857
" />
<path d="M46189 62026
L46920 62026
L46526 62476
L46695 62476
L46808 62532
L46864 62588
L46920 62701
L46920 62982
L46864 63095
L46808 63151
L46695 63207
L46358 63207
L46245 63151
L46189 63095
" />
<path d="M47314 62026
L48045 62026
L47651 62476
L47820 62476
L47933 62532
L47989 62588
L48045 62701
L48045 62982
L47989 63095
L47933 63151
L47820 63207
L47483 63207
L47370 63151
L47314 63095
" />
<path d="M49451 63207
L49451 62026
" />
<path d="M49957 63207
L49957 62588
L49901 62476
L49789 62420
L49620 62420
L49507 62476
L49451 62532
" />
<path d="M50688 63207
L50576 63151
L50520 63095
L50464 62982
L50464 62645
L50520 62532
L50576 62476
L50688 62420
L50857 62420
L50970 62476
L51026 62532
L51082 62645
L51082 62982
L51026 63095
L50970 63151
L50857 63207
L50688 63207
" />
<path d="M51757 63207
L51645 63151
L51588 63038
L51588 62026
" />
<path d="M52657 63151
L52544 63207
L52320 63207
L52207 63151
L52151 63038
L52151 62588
L52207 62476
L52320 62420
L52544 62420
L52657 62476
L52713 62588
L52713 62701
L52151 62813
" />
<path d="M53163 63151
L53276 63207
L53501 63207
L53613 63151
L53669 63038
L53669 62982
L53613 62870
L53501 62813
L53332 62813
L53219 62757
L53163 62645
L53163 62588
L53219 62476
L53332 62420
L53501 62420
L53613 62476
" />
<path d="M54063 63657
L54119 63601
L54232 63432
L54288 63320
L54344 63151
L54401 62870
L54401 62645
L54344 62363
L54288 62195
L54232 62082
L54119 61913
L54063 61857
" />
<path d="M27060 64032
L27460 64432
" />
<path d="M27460 64032
L27060 64432
" />
<polyline fill="none;"
points="27402,64373
27402,64090
27119,64090
27119,64373
27402,64373
" /> 
<path d="M29147 64766
L28473 64766
" />
<path d="M28810 64766
L28810 63585
L28697 63754
L28585 63866
L28473 63922
" />
<path d="M29654 64654
L29710 64710
L29654 64766
L29597 64710
L29654 64654
L29654 64766
" />
<path d="M30441 63585
L30553 63585
L30666 63641
L30722 63697
L30778 63810
L30835 64035
L30835 64316
L30778 64541
L30722 64654
L30666 64710
L30553 64766
L30441 64766
L30329 64710
L30272 64654
L30216 64541
L30160 64316
L30160 64035
L30216 63810
L30272 63697
L30329 63641
L30441 63585
" />
<path d="M31285 63697
L31341 63641
L31453 63585
L31735 63585
L31847 63641
L31903 63697
L31960 63810
L31960 63922
L31903 64091
L31228 64766
L31960 64766
" />
<path d="M32466 64766
L32466 63979
" />
<path d="M32466 64091
L32522 64035
L32634 63979
L32803 63979
L32916 64035
L32972 64147
L32972 64766
" />
<path d="M32972 64147
L33028 64035
L33141 63979
L33309 63979
L33422 64035
L33478 64147
L33478 64766
" />
<path d="M34041 64766
L34041 63979
" />
<path d="M34041 64091
L34097 64035
L34209 63979
L34378 63979
L34491 64035
L34547 64147
L34547 64766
" />
<path d="M34547 64147
L34603 64035
L34715 63979
L34884 63979
L34997 64035
L35053 64147
L35053 64766
" />
<path d="M37359 63529
L36347 65047
" />
<path d="M38877 63585
L38990 63585
L39102 63641
L39159 63697
L39215 63810
L39271 64035
L39271 64316
L39215 64541
L39159 64654
L39102 64710
L38990 64766
L38877 64766
L38765 64710
L38709 64654
L38652 64541
L38596 64316
L38596 64035
L38652 63810
L38709 63697
L38765 63641
L38877 63585
" />
<path d="M39777 64654
L39834 64710
L39777 64766
L39721 64710
L39777 64654
L39777 64766
" />
<path d="M40565 63585
L40677 63585
L40790 63641
L40846 63697
L40902 63810
L40958 64035
L40958 64316
L40902 64541
L40846 64654
L40790 64710
L40677 64766
L40565 64766
L40452 64710
L40396 64654
L40340 64541
L40284 64316
L40284 64035
L40340 63810
L40396 63697
L40452 63641
L40565 63585
" />
<path d="M41971 63979
L41971 64766
" />
<path d="M41690 63529
L41408 64372
L42140 64372
" />
<path d="M42814 63585
L42927 63585
L43039 63641
L43096 63697
L43152 63810
L43208 64035
L43208 64316
L43152 64541
L43096 64654
L43039 64710
L42927 64766
L42814 64766
L42702 64710
L42646 64654
L42589 64541
L42533 64316
L42533 64035
L42589 63810
L42646 63697
L42702 63641
L42814 63585
" />
<path d="M43658 63585
L43658 63810
" />
<path d="M44108 63585
L44108 63810
" />
<path d="M45852 65216
L45795 65160
L45683 64991
L45627 64879
L45570 64710
L45514 64429
L45514 64204
L45570 63922
L45627 63754
L45683 63641
L45795 63473
L45852 63416
" />
<path d="M46808 63585
L46583 63585
L46470 63641
L46414 63697
L46302 63866
L46245 64091
L46245 64541
L46302 64654
L46358 64710
L46470 64766
L46695 64766
L46808 64710
L46864 64654
L46920 64541
L46920 64260
L46864 64147
L46808 64091
L46695 64035
L46470 64035
L46358 64091
L46302 64147
L46245 64260
" />
<path d="M48326 64766
L48326 63585
" />
<path d="M48832 64766
L48832 64147
L48776 64035
L48664 63979
L48495 63979
L48383 64035
L48326 64091
" />
<path d="M49564 64766
L49451 64710
L49395 64654
L49339 64541
L49339 64204
L49395 64091
L49451 64035
L49564 63979
L49732 63979
L49845 64035
L49901 64091
L49957 64204
L49957 64541
L49901 64654
L49845 64710
L49732 64766
L49564 64766
" />
<path d="M50632 64766
L50520 64710
L50464 64597
L50464 63585
" />
<path d="M51532 64710
L51420 64766
L51195 64766
L51082 64710
L51026 64597
L51026 64147
L51082 64035
L51195 63979
L51420 63979
L51532 64035
L51588 64147
L51588 64260
L51026 64372
" />
<path d="M52038 64710
L52151 64766
L52376 64766
L52488 64710
L52544 64597
L52544 64541
L52488 64429
L52376 64372
L52207 64372
L52095 64316
L52038 64204
L52038 64147
L52095 64035
L52207 63979
L52376 63979
L52488 64035
" />
<path d="M52938 65216
L52994 65160
L53107 64991
L53163 64879
L53219 64710
L53276 64429
L53276 64204
L53219 63922
L53163 63754
L53107 63641
L52994 63473
L52938 63416
" />
<path d="M27027 65574
L27460 66007
" />
<path d="M27460 65574
L27027 66007
" />
<polyline fill="none;"
points="27244,66007
27460,65791
27244,65574
27027,65791
27244,66007
" /> 
<path d="M29147 66325
L28473 66325
" />
<path d="M28810 66325
L28810 65144
L28697 65313
L28585 65425
L28473 65482
" />
<path d="M29654 66213
L29710 66269
L29654 66325
L29597 66269
L29654 66213
L29654 66325
" />
<path d="M30835 66325
L30160 66325
" />
<path d="M30497 66325
L30497 65144
L30385 65313
L30272 65425
L30160 65482
" />
<path d="M31566 65144
L31678 65144
L31791 65200
L31847 65257
L31903 65369
L31960 65594
L31960 65875
L31903 66100
L31847 66213
L31791 66269
L31678 66325
L31566 66325
L31453 66269
L31397 66213
L31341 66100
L31285 65875
L31285 65594
L31341 65369
L31397 65257
L31453 65200
L31566 65144
" />
<path d="M32466 66325
L32466 65538
" />
<path d="M32466 65650
L32522 65594
L32634 65538
L32803 65538
L32916 65594
L32972 65706
L32972 66325
" />
<path d="M32972 65706
L33028 65594
L33141 65538
L33309 65538
L33422 65594
L33478 65706
L33478 66325
" />
<path d="M34041 66325
L34041 65538
" />
<path d="M34041 65650
L34097 65594
L34209 65538
L34378 65538
L34491 65594
L34547 65706
L34547 66325
" />
<path d="M34547 65706
L34603 65594
L34715 65538
L34884 65538
L34997 65594
L35053 65706
L35053 66325
" />
<path d="M37359 65088
L36347 66606
" />
<path d="M38877 65144
L38990 65144
L39102 65200
L39159 65257
L39215 65369
L39271 65594
L39271 65875
L39215 66100
L39159 66213
L39102 66269
L38990 66325
L38877 66325
L38765 66269
L38709 66213
L38652 66100
L38596 65875
L38596 65594
L38652 65369
L38709 65257
L38765 65200
L38877 65144
" />
<path d="M39777 66213
L39834 66269
L39777 66325
L39721 66269
L39777 66213
L39777 66325
" />
<path d="M40565 65144
L40677 65144
L40790 65200
L40846 65257
L40902 65369
L40958 65594
L40958 65875
L40902 66100
L40846 66213
L40790 66269
L40677 66325
L40565 66325
L40452 66269
L40396 66213
L40340 66100
L40284 65875
L40284 65594
L40340 65369
L40396 65257
L40452 65200
L40565 65144
" />
<path d="M41971 65538
L41971 66325
" />
<path d="M41690 65088
L41408 65931
L42140 65931
" />
<path d="M42477 65144
L43208 65144
L42814 65594
L42983 65594
L43096 65650
L43152 65706
L43208 65819
L43208 66100
L43152 66213
L43096 66269
L42983 66325
L42646 66325
L42533 66269
L42477 66213
" />
<path d="M43658 65144
L43658 65369
" />
<path d="M44108 65144
L44108 65369
" />
<path d="M45852 66775
L45795 66719
L45683 66550
L45627 66438
L45570 66269
L45514 65988
L45514 65763
L45570 65482
L45627 65313
L45683 65200
L45795 65032
L45852 64975
" />
<path d="M46808 65538
L46808 66325
" />
<path d="M46526 65088
L46245 65931
L46976 65931
" />
<path d="M48326 66325
L48326 65144
" />
<path d="M48832 66325
L48832 65706
L48776 65594
L48664 65538
L48495 65538
L48383 65594
L48326 65650
" />
<path d="M49564 66325
L49451 66269
L49395 66213
L49339 66100
L49339 65763
L49395 65650
L49451 65594
L49564 65538
L49732 65538
L49845 65594
L49901 65650
L49957 65763
L49957 66100
L49901 66213
L49845 66269
L49732 66325
L49564 66325
" />
<path d="M50632 66325
L50520 66269
L50464 66156
L50464 65144
" />
<path d="M51532 66269
L51420 66325
L51195 66325
L51082 66269
L51026 66156
L51026 65706
L51082 65594
L51195 65538
L51420 65538
L51532 65594
L51588 65706
L51588 65819
L51026 65931
" />
<path d="M52038 66269
L52151 66325
L52376 66325
L52488 66269
L52544 66156
L52544 66100
L52488 65988
L52376 65931
L52207 65931
L52095 65875
L52038 65763
L52038 65706
L52095 65594
L52207 65538
L52376 65538
L52488 65594
" />
<path d="M52938 66775
L52994 66719
L53107 66550
L53163 66438
L53219 66269
L53276 65988
L53276 65763
L53219 65482
L53163 65313
L53107 65200
L52994 65032
L52938 64975
" />
<path d="M27204 67094
L27204 67606
" />
<path d="M26948 67350
L27460 67350
" />
<circle cx="27204.7" cy="67350.4" r="255.906" /> 
<path d="M29147 67884
L28473 67884
" />
<path d="M28810 67884
L28810 66703
L28697 66872
L28585 66984
L28473 67041
" />
<path d="M29654 67772
L29710 67828
L29654 67884
L29597 67828
L29654 67772
L29654 67884
" />
<path d="M30104 66703
L30835 66703
L30441 67153
L30610 67153
L30722 67209
L30778 67266
L30835 67378
L30835 67659
L30778 67772
L30722 67828
L30610 67884
L30272 67884
L30160 67828
L30104 67772
" />
<path d="M31566 66703
L31678 66703
L31791 66759
L31847 66816
L31903 66928
L31960 67153
L31960 67434
L31903 67659
L31847 67772
L31791 67828
L31678 67884
L31566 67884
L31453 67828
L31397 67772
L31341 67659
L31285 67434
L31285 67153
L31341 66928
L31397 66816
L31453 66759
L31566 66703
" />
<path d="M32466 67884
L32466 67097
" />
<path d="M32466 67209
L32522 67153
L32634 67097
L32803 67097
L32916 67153
L32972 67266
L32972 67884
" />
<path d="M32972 67266
L33028 67153
L33141 67097
L33309 67097
L33422 67153
L33478 67266
L33478 67884
" />
<path d="M34041 67884
L34041 67097
" />
<path d="M34041 67209
L34097 67153
L34209 67097
L34378 67097
L34491 67153
L34547 67266
L34547 67884
" />
<path d="M34547 67266
L34603 67153
L34715 67097
L34884 67097
L34997 67153
L35053 67266
L35053 67884
" />
<path d="M37359 66647
L36347 68165
" />
<path d="M38877 66703
L38990 66703
L39102 66759
L39159 66816
L39215 66928
L39271 67153
L39271 67434
L39215 67659
L39159 67772
L39102 67828
L38990 67884
L38877 67884
L38765 67828
L38709 67772
L38652 67659
L38596 67434
L38596 67153
L38652 66928
L38709 66816
L38765 66759
L38877 66703
" />
<path d="M39777 67772
L39834 67828
L39777 67884
L39721 67828
L39777 67772
L39777 67884
" />
<path d="M40565 66703
L40677 66703
L40790 66759
L40846 66816
L40902 66928
L40958 67153
L40958 67434
L40902 67659
L40846 67772
L40790 67828
L40677 67884
L40565 67884
L40452 67828
L40396 67772
L40340 67659
L40284 67434
L40284 67153
L40340 66928
L40396 66816
L40452 66759
L40565 66703
" />
<path d="M42027 66703
L41465 66703
L41408 67266
L41465 67209
L41577 67153
L41858 67153
L41971 67209
L42027 67266
L42083 67378
L42083 67659
L42027 67772
L41971 67828
L41858 67884
L41577 67884
L41465 67828
L41408 67772
" />
<path d="M43208 67884
L42533 67884
" />
<path d="M42871 67884
L42871 66703
L42758 66872
L42646 66984
L42533 67041
" />
<path d="M43658 66703
L43658 66928
" />
<path d="M44108 66703
L44108 66928
" />
<path d="M45852 68334
L45795 68278
L45683 68109
L45627 67997
L45570 67828
L45514 67547
L45514 67322
L45570 67041
L45627 66872
L45683 66759
L45795 66591
L45852 66534
" />
<path d="M46189 66703
L46920 66703
L46526 67153
L46695 67153
L46808 67209
L46864 67266
L46920 67378
L46920 67659
L46864 67772
L46808 67828
L46695 67884
L46358 67884
L46245 67828
L46189 67772
" />
<path d="M48326 67884
L48326 66703
" />
<path d="M48832 67884
L48832 67266
L48776 67153
L48664 67097
L48495 67097
L48383 67153
L48326 67209
" />
<path d="M49564 67884
L49451 67828
L49395 67772
L49339 67659
L49339 67322
L49395 67209
L49451 67153
L49564 67097
L49732 67097
L49845 67153
L49901 67209
L49957 67322
L49957 67659
L49901 67772
L49845 67828
L49732 67884
L49564 67884
" />
<path d="M50632 67884
L50520 67828
L50464 67715
L50464 66703
" />
<path d="M51532 67828
L51420 67884
L51195 67884
L51082 67828
L51026 67715
L51026 67266
L51082 67153
L51195 67097
L51420 67097
L51532 67153
L51588 67266
L51588 67378
L51026 67491
" />
<path d="M52038 67828
L52151 67884
L52376 67884
L52488 67828
L52544 67715
L52544 67659
L52488 67547
L52376 67491
L52207 67491
L52095 67434
L52038 67322
L52038 67266
L52095 67153
L52207 67097
L52376 67097
L52488 67153
" />
<path d="M52938 68334
L52994 68278
L53107 68109
L53163 67997
L53219 67828
L53276 67547
L53276 67322
L53219 67041
L53163 66872
L53107 66759
L52994 66591
L52938 66534
" />
<polyline fill="none;"
points="27372,69121
27372,68697
26949,68697
26949,69121
27372,69121
" /> 
<circle cx="27161.4" cy="68909.4" r="299.213" /> 
<path d="M29147 69443
L28473 69443
" />
<path d="M28810 69443
L28810 68262
L28697 68431
L28585 68543
L28473 68600
" />
<path d="M29654 69331
L29710 69387
L29654 69443
L29597 69387
L29654 69331
L29654 69443
" />
<path d="M30778 68262
L30216 68262
L30160 68825
L30216 68768
L30329 68712
L30610 68712
L30722 68768
L30778 68825
L30835 68937
L30835 69218
L30778 69331
L30722 69387
L30610 69443
L30329 69443
L30216 69387
L30160 69331
" />
<path d="M31285 68375
L31341 68318
L31453 68262
L31735 68262
L31847 68318
L31903 68375
L31960 68487
L31960 68600
L31903 68768
L31228 69443
L31960 69443
" />
<path d="M32466 69443
L32466 68656
" />
<path d="M32466 68768
L32522 68712
L32634 68656
L32803 68656
L32916 68712
L32972 68825
L32972 69443
" />
<path d="M32972 68825
L33028 68712
L33141 68656
L33309 68656
L33422 68712
L33478 68825
L33478 69443
" />
<path d="M34041 69443
L34041 68656
" />
<path d="M34041 68768
L34097 68712
L34209 68656
L34378 68656
L34491 68712
L34547 68825
L34547 69443
" />
<path d="M34547 68825
L34603 68712
L34715 68656
L34884 68656
L34997 68712
L35053 68825
L35053 69443
" />
<path d="M37359 68206
L36347 69724
" />
<path d="M38877 68262
L38990 68262
L39102 68318
L39159 68375
L39215 68487
L39271 68712
L39271 68993
L39215 69218
L39159 69331
L39102 69387
L38990 69443
L38877 69443
L38765 69387
L38709 69331
L38652 69218
L38596 68993
L38596 68712
L38652 68487
L38709 68375
L38765 68318
L38877 68262
" />
<path d="M39777 69331
L39834 69387
L39777 69443
L39721 69387
L39777 69331
L39777 69443
" />
<path d="M40565 68262
L40677 68262
L40790 68318
L40846 68375
L40902 68487
L40958 68712
L40958 68993
L40902 69218
L40846 69331
L40790 69387
L40677 69443
L40565 69443
L40452 69387
L40396 69331
L40340 69218
L40284 68993
L40284 68712
L40340 68487
L40396 68375
L40452 68318
L40565 68262
" />
<path d="M41971 68262
L41746 68262
L41633 68318
L41577 68375
L41465 68543
L41408 68768
L41408 69218
L41465 69331
L41521 69387
L41633 69443
L41858 69443
L41971 69387
L42027 69331
L42083 69218
L42083 68937
L42027 68825
L41971 68768
L41858 68712
L41633 68712
L41521 68768
L41465 68825
L41408 68937
" />
<path d="M42814 68262
L42927 68262
L43039 68318
L43096 68375
L43152 68487
L43208 68712
L43208 68993
L43152 69218
L43096 69331
L43039 69387
L42927 69443
L42814 69443
L42702 69387
L42646 69331
L42589 69218
L42533 68993
L42533 68712
L42589 68487
L42646 68375
L42702 68318
L42814 68262
" />
<path d="M43658 68262
L43658 68487
" />
<path d="M44108 68262
L44108 68487
" />
<path d="M45852 69893
L45795 69837
L45683 69668
L45627 69556
L45570 69387
L45514 69106
L45514 68881
L45570 68600
L45627 68431
L45683 68318
L45795 68150
L45852 68093
" />
<path d="M46864 68262
L46302 68262
L46245 68825
L46302 68768
L46414 68712
L46695 68712
L46808 68768
L46864 68825
L46920 68937
L46920 69218
L46864 69331
L46808 69387
L46695 69443
L46414 69443
L46302 69387
L46245 69331
" />
<path d="M48326 69443
L48326 68262
" />
<path d="M48832 69443
L48832 68825
L48776 68712
L48664 68656
L48495 68656
L48383 68712
L48326 68768
" />
<path d="M49564 69443
L49451 69387
L49395 69331
L49339 69218
L49339 68881
L49395 68768
L49451 68712
L49564 68656
L49732 68656
L49845 68712
L49901 68768
L49957 68881
L49957 69218
L49901 69331
L49845 69387
L49732 69443
L49564 69443
" />
<path d="M50632 69443
L50520 69387
L50464 69275
L50464 68262
" />
<path d="M51532 69387
L51420 69443
L51195 69443
L51082 69387
L51026 69275
L51026 68825
L51082 68712
L51195 68656
L51420 68656
L51532 68712
L51588 68825
L51588 68937
L51026 69050
" />
<path d="M52038 69387
L52151 69443
L52376 69443
L52488 69387
L52544 69275
L52544 69218
L52488 69106
L52376 69050
L52207 69050
L52095 68993
L52038 68881
L52038 68825
L52095 68712
L52207 68656
L52376 68656
L52488 68712
" />
<path d="M52938 69893
L52994 69837
L53107 69668
L53163 69556
L53219 69387
L53276 69106
L53276 68881
L53219 68600
L53163 68431
L53107 68318
L52994 68150
L52938 68093
" />
<polyline fill="none;"
points="27027,70901
27460,70468
27027,70035
26594,70468
27027,70901
" /> 
<circle cx="27027.6" cy="70468.5" r="433.071" /> 
<path d="M28473 69934
L28529 69877
L28641 69821
L28922 69821
L29035 69877
L29091 69934
L29147 70046
L29147 70159
L29091 70327
L28416 71002
L29147 71002
" />
<path d="M29654 70890
L29710 70946
L29654 71002
L29597 70946
L29654 70890
L29654 71002
" />
<path d="M30160 69934
L30216 69877
L30329 69821
L30610 69821
L30722 69877
L30778 69934
L30835 70046
L30835 70159
L30778 70327
L30104 71002
L30835 71002
" />
<path d="M31566 69821
L31678 69821
L31791 69877
L31847 69934
L31903 70046
L31960 70271
L31960 70552
L31903 70777
L31847 70890
L31791 70946
L31678 71002
L31566 71002
L31453 70946
L31397 70890
L31341 70777
L31285 70552
L31285 70271
L31341 70046
L31397 69934
L31453 69877
L31566 69821
" />
<path d="M32466 71002
L32466 70215
" />
<path d="M32466 70327
L32522 70271
L32634 70215
L32803 70215
L32916 70271
L32972 70384
L32972 71002
" />
<path d="M32972 70384
L33028 70271
L33141 70215
L33309 70215
L33422 70271
L33478 70384
L33478 71002
" />
<path d="M34041 71002
L34041 70215
" />
<path d="M34041 70327
L34097 70271
L34209 70215
L34378 70215
L34491 70271
L34547 70384
L34547 71002
" />
<path d="M34547 70384
L34603 70271
L34715 70215
L34884 70215
L34997 70271
L35053 70384
L35053 71002
" />
<path d="M37359 69765
L36347 71284
" />
<path d="M38877 69821
L38990 69821
L39102 69877
L39159 69934
L39215 70046
L39271 70271
L39271 70552
L39215 70777
L39159 70890
L39102 70946
L38990 71002
L38877 71002
L38765 70946
L38709 70890
L38652 70777
L38596 70552
L38596 70271
L38652 70046
L38709 69934
L38765 69877
L38877 69821
" />
<path d="M39777 70890
L39834 70946
L39777 71002
L39721 70946
L39777 70890
L39777 71002
" />
<path d="M40565 69821
L40677 69821
L40790 69877
L40846 69934
L40902 70046
L40958 70271
L40958 70552
L40902 70777
L40846 70890
L40790 70946
L40677 71002
L40565 71002
L40452 70946
L40396 70890
L40340 70777
L40284 70552
L40284 70271
L40340 70046
L40396 69934
L40452 69877
L40565 69821
" />
<path d="M41633 70327
L41521 70271
L41465 70215
L41408 70102
L41408 70046
L41465 69934
L41521 69877
L41633 69821
L41858 69821
L41971 69877
L42027 69934
L42083 70046
L42083 70102
L42027 70215
L41971 70271
L41858 70327
L41633 70327
L41521 70384
L41465 70440
L41408 70552
L41408 70777
L41465 70890
L41521 70946
L41633 71002
L41858 71002
L41971 70946
L42027 70890
L42083 70777
L42083 70552
L42027 70440
L41971 70384
L41858 70327
" />
<path d="M42477 69821
L43264 69821
L42758 71002
" />
<path d="M43658 69821
L43658 70046
" />
<path d="M44108 69821
L44108 70046
" />
<path d="M45852 71452
L45795 71396
L45683 71227
L45627 71115
L45570 70946
L45514 70665
L45514 70440
L45570 70159
L45627 69990
L45683 69877
L45795 69709
L45852 69652
" />
<path d="M46245 69934
L46302 69877
L46414 69821
L46695 69821
L46808 69877
L46864 69934
L46920 70046
L46920 70159
L46864 70327
L46189 71002
L46920 71002
" />
<path d="M48326 71002
L48326 69821
" />
<path d="M48832 71002
L48832 70384
L48776 70271
L48664 70215
L48495 70215
L48383 70271
L48326 70327
" />
<path d="M49564 71002
L49451 70946
L49395 70890
L49339 70777
L49339 70440
L49395 70327
L49451 70271
L49564 70215
L49732 70215
L49845 70271
L49901 70327
L49957 70440
L49957 70777
L49901 70890
L49845 70946
L49732 71002
L49564 71002
" />
<path d="M50632 71002
L50520 70946
L50464 70834
L50464 69821
" />
<path d="M51532 70946
L51420 71002
L51195 71002
L51082 70946
L51026 70834
L51026 70384
L51082 70271
L51195 70215
L51420 70215
L51532 70271
L51588 70384
L51588 70496
L51026 70609
" />
<path d="M52038 70946
L52151 71002
L52376 71002
L52488 70946
L52544 70834
L52544 70777
L52488 70665
L52376 70609
L52207 70609
L52095 70552
L52038 70440
L52038 70384
L52095 70271
L52207 70215
L52376 70215
L52488 70271
" />
<path d="M52938 71452
L52994 71396
L53107 71227
L53163 71115
L53219 70946
L53276 70665
L53276 70440
L53219 70159
L53163 69990
L53107 69877
L52994 69709
L52938 69652
" />
<path d="M26830 71397
L26830 72657
" />
<path d="M26200 72027
L27460 72027
" />
<polyline fill="none;"
points="27276,72472
27276,71582
26385,71582
26385,72472
27276,72472
" /> 
<path d="M28416 71380
L29147 71380
L28754 71830
L28922 71830
L29035 71886
L29091 71943
L29147 72055
L29147 72336
L29091 72449
L29035 72505
L28922 72561
L28585 72561
L28473 72505
L28416 72449
" />
<path d="M29654 72449
L29710 72505
L29654 72561
L29597 72505
L29654 72449
L29654 72561
" />
<path d="M30160 71493
L30216 71437
L30329 71380
L30610 71380
L30722 71437
L30778 71493
L30835 71605
L30835 71718
L30778 71886
L30104 72561
L30835 72561
" />
<path d="M31566 71380
L31678 71380
L31791 71437
L31847 71493
L31903 71605
L31960 71830
L31960 72111
L31903 72336
L31847 72449
L31791 72505
L31678 72561
L31566 72561
L31453 72505
L31397 72449
L31341 72336
L31285 72111
L31285 71830
L31341 71605
L31397 71493
L31453 71437
L31566 71380
" />
<path d="M32466 72561
L32466 71774
" />
<path d="M32466 71886
L32522 71830
L32634 71774
L32803 71774
L32916 71830
L32972 71943
L32972 72561
" />
<path d="M32972 71943
L33028 71830
L33141 71774
L33309 71774
L33422 71830
L33478 71943
L33478 72561
" />
<path d="M34041 72561
L34041 71774
" />
<path d="M34041 71886
L34097 71830
L34209 71774
L34378 71774
L34491 71830
L34547 71943
L34547 72561
" />
<path d="M34547 71943
L34603 71830
L34715 71774
L34884 71774
L34997 71830
L35053 71943
L35053 72561
" />
<path d="M37359 71324
L36347 72843
" />
<path d="M38877 71380
L38990 71380
L39102 71437
L39159 71493
L39215 71605
L39271 71830
L39271 72111
L39215 72336
L39159 72449
L39102 72505
L38990 72561
L38877 72561
L38765 72505
L38709 72449
L38652 72336
L38596 72111
L38596 71830
L38652 71605
L38709 71493
L38765 71437
L38877 71380
" />
<path d="M39777 72449
L39834 72505
L39777 72561
L39721 72505
L39777 72449
L39777 72561
" />
<path d="M40958 72561
L40284 72561
" />
<path d="M40621 72561
L40621 71380
L40508 71549
L40396 71661
L40284 71718
" />
<path d="M41408 71493
L41465 71437
L41577 71380
L41858 71380
L41971 71437
L42027 71493
L42083 71605
L42083 71718
L42027 71886
L41352 72561
L42083 72561
" />
<path d="M43096 71380
L42871 71380
L42758 71437
L42702 71493
L42589 71661
L42533 71886
L42533 72336
L42589 72449
L42646 72505
L42758 72561
L42983 72561
L43096 72505
L43152 72449
L43208 72336
L43208 72055
L43152 71943
L43096 71886
L42983 71830
L42758 71830
L42646 71886
L42589 71943
L42533 72055
" />
<path d="M43658 71380
L43658 71605
" />
<path d="M44108 71380
L44108 71605
" />
<path d="M45852 73011
L45795 72955
L45683 72786
L45627 72674
L45570 72505
L45514 72224
L45514 71999
L45570 71718
L45627 71549
L45683 71437
L45795 71268
L45852 71212
" />
<path d="M46808 71774
L46808 72561
" />
<path d="M46526 71324
L46245 72168
L46976 72168
" />
<path d="M48326 72561
L48326 71380
" />
<path d="M48832 72561
L48832 71943
L48776 71830
L48664 71774
L48495 71774
L48383 71830
L48326 71886
" />
<path d="M49564 72561
L49451 72505
L49395 72449
L49339 72336
L49339 71999
L49395 71886
L49451 71830
L49564 71774
L49732 71774
L49845 71830
L49901 71886
L49957 71999
L49957 72336
L49901 72449
L49845 72505
L49732 72561
L49564 72561
" />
<path d="M50632 72561
L50520 72505
L50464 72393
L50464 71380
" />
<path d="M51532 72505
L51420 72561
L51195 72561
L51082 72505
L51026 72393
L51026 71943
L51082 71830
L51195 71774
L51420 71774
L51532 71830
L51588 71943
L51588 72055
L51026 72168
" />
<path d="M52038 72505
L52151 72561
L52376 72561
L52488 72505
L52544 72393
L52544 72336
L52488 72224
L52376 72168
L52207 72168
L52095 72111
L52038 71999
L52038 71943
L52095 71830
L52207 71774
L52376 71774
L52488 71830
" />
<path d="M52938 73011
L52994 72955
L53107 72786
L53163 72674
L53219 72505
L53276 72224
L53276 71999
L53219 71718
L53163 71549
L53107 71437
L52994 71268
L52938 71212
" />
</g> 
</svg>
