<?xml version="1.0" standalone="no"?>
 <!DOCTYPE svg PUBLIC "-//W3C//DTD SVG 1.1//EN" 
 "http://www.w3.org/Graphics/SVG/1.1/DTD/svg11.dtd"> 
<svg xmlns="http://www.w3.org/2000/svg" version="1.1" 
    width="29.7002cm" height="21.0007cm" viewBox="0 0 116930 82680 ">
<title>SVG Picture created as Minuteur-F.SilkS.svg date 2017/09/19 19:39:27 </title>
  <desc>Picture generated by PCBNEW </desc>
<g style="fill:#000000; fill-opacity:1;stroke:#000000; stroke-opacity:1;
stroke-linecap:round; stroke-linejoin:round; "
 transform="translate(0 0) scale(1 1)">
</g>
<g style="fill:#000000; fill-opacity:0.0; 
stroke:#000000; stroke-width:-0.000393701; stroke-opacity:1; 
stroke-linecap:round; stroke-linejoin:round;">
</g>
<g style="fill:#000000; fill-opacity:0.0; 
stroke:#000000; stroke-width:314.961; stroke-opacity:1; 
stroke-linecap:round; stroke-linejoin:round;">
<path d="M75000 43500
L77000 43500
" />
<path d="M74500 43000
L75000 43500
" />
<path d="M74500 42000
L74500 43000
" />
<path d="M75000 41500
L74500 42000
" />
<path d="M77000 41500
L75000 41500
" />
</g>
<g style="fill:#000000; fill-opacity:0.0; 
stroke:#000000; stroke-width:78.7402; stroke-opacity:1; 
stroke-linecap:round; stroke-linejoin:round;">
<path d="M29500 30000
L84500 30000
" />
<path d="M27500 47500
L27500 32000
" />
<path d="M84500 49500
L29500 49500
" />
<path d="M86500 47500
L86500 32000
" />
<path d="M27500 47500 A2000 2000 0.0 0 0 29500 49500 " />
<path d="M29500 30000 A2000 2000 0.0 0 0 27500 32000 " />
<path d="M86500 32000 A2000 2000 0.0 0 0 84500 30000 " />
<path d="M84500 49500 A2000 2000 0.0 0 0 86500 47500 " />
<path d="M44534 44243
L44534 44168
L44553 44131
L44590 44093
L44665 44074
L44796 44074
L44871 44093
L44909 44131
L44928 44168
L44928 44243
L44909 44281
L44871 44318
L44796 44337
L44665 44337
L44590 44318
L44553 44281
L44534 44243
" />
<path d="M44928 43906
L44534 43906
L44928 43681
L44534 43681
" />
<path d="M86428 40818
L86034 40818
L86428 40593
L86034 40593
" />
<path d="M86034 40331
L86034 40256
L86053 40218
L86090 40181
L86165 40162
L86296 40162
L86371 40181
L86409 40218
L86428 40256
L86428 40331
L86409 40368
L86371 40406
L86296 40425
L86165 40425
L86090 40406
L86053 40368
L86034 40331
" />
<path d="M86428 44809
L86034 44809
L86428 44584
L86034 44584
" />
<path d="M86390 44171
L86409 44190
L86428 44246
L86428 44284
L86409 44340
L86371 44378
L86334 44396
L86259 44415
L86203 44415
L86128 44396
L86090 44378
L86053 44340
L86034 44284
L86034 44246
L86053 44190
L86071 44171
" />
<path d="M86390 42809
L86409 42828
L86428 42884
L86428 42921
L86409 42978
L86371 43015
L86334 43034
L86259 43053
L86203 43053
L86128 43034
L86090 43015
L86053 42978
L86034 42921
L86034 42884
L86053 42828
L86071 42809
" />
<path d="M86034 42565
L86034 42490
L86053 42453
L86090 42415
L86165 42396
L86296 42396
L86371 42415
L86409 42453
L86428 42490
L86428 42565
L86409 42603
L86371 42640
L86296 42659
L86165 42659
L86090 42640
L86053 42603
L86034 42565
" />
<path d="M86428 42228
L86034 42228
L86315 42096
L86034 41965
L86428 41965
" />
<path d="M27975 45284
L28106 45678
L28237 45284
" />
<path d="M28593 45640
L28574 45659
L28518 45678
L28481 45678
L28425 45659
L28387 45621
L28368 45584
L28350 45509
L28350 45453
L28368 45378
L28387 45340
L28425 45303
L28481 45284
L28518 45284
L28574 45303
L28593 45321
" />
<path d="M28987 45640
L28968 45659
L28912 45678
L28874 45678
L28818 45659
L28781 45621
L28762 45584
L28743 45509
L28743 45453
L28762 45378
L28781 45340
L28818 45303
L28874 45284
L28912 45284
L28968 45303
L28987 45321
" />
<path d="M28200 40303
L28162 40284
L28106 40284
L28050 40303
L28012 40340
L27993 40378
L27975 40453
L27975 40509
L27993 40584
L28012 40621
L28050 40659
L28106 40678
L28143 40678
L28200 40659
L28218 40640
L28218 40509
L28143 40509
" />
<path d="M28387 40678
L28387 40284
L28612 40678
L28612 40284
" />
<path d="M28799 40678
L28799 40284
L28893 40284
L28949 40303
L28987 40340
L29006 40378
L29024 40453
L29024 40509
L29006 40584
L28987 40621
L28949 40659
L28893 40678
L28799 40678
" />
<path d="M79584 31971
L79640 31990
L79659 32009
L79678 32046
L79678 32103
L79659 32140
L79640 32159
L79603 32178
L79453 32178
L79453 31784
L79584 31784
L79621 31803
L79640 31821
L79659 31859
L79659 31896
L79640 31934
L79621 31953
L79584 31971
L79453 31971
" />
<path d="M79790 31784
L80015 31784
" />
<path d="M79903 32178
L79903 31784
" />
<path d="M80146 32178
L80146 31784
L80371 32178
L80371 31784
" />
<path d="M80821 31784
L81065 31784
L80934 31934
L80990 31934
L81028 31953
L81046 31971
L81065 32009
L81065 32103
L81046 32140
L81028 32159
L80990 32178
L80878 32178
L80840 32159
L80821 32140
" />
<path d="M79415 32971
L79546 32971
" />
<path d="M79603 33178
L79415 33178
L79415 32784
L79603 32784
" />
<path d="M79771 33178
L79771 32784
L79996 33178
L79996 32784
" />
<path d="M80409 33140
L80390 33159
L80334 33178
L80296 33178
L80240 33159
L80203 33121
L80184 33084
L80165 33009
L80165 32953
L80184 32878
L80203 32840
L80240 32803
L80296 32784
L80334 32784
L80390 32803
L80409 32821
" />
<path d="M81009 32971
L81065 32990
L81084 33009
L81103 33046
L81103 33103
L81084 33140
L81065 33159
L81028 33178
L80878 33178
L80878 32784
L81009 32784
L81046 32803
L81065 32821
L81084 32859
L81084 32896
L81065 32934
L81046 32953
L81009 32971
L80878 32971
" />
<path d="M79443 33971
L79575 33971
" />
<path d="M79631 34178
L79443 34178
L79443 33784
L79631 33784
" />
<path d="M79800 34178
L79800 33784
L80025 34178
L80025 33784
" />
<path d="M80437 34140
L80418 34159
L80362 34178
L80324 34178
L80268 34159
L80231 34121
L80212 34084
L80193 34009
L80193 33953
L80212 33878
L80231 33840
L80268 33803
L80324 33784
L80362 33784
L80418 33803
L80437 33821
" />
<path d="M80887 34065
L81074 34065
" />
<path d="M80849 34178
L80981 33784
L81112 34178
" />
<path d="M79584 34971
L79640 34990
L79659 35009
L79678 35046
L79678 35103
L79659 35140
L79640 35159
L79603 35178
L79453 35178
L79453 34784
L79584 34784
L79621 34803
L79640 34821
L79659 34859
L79659 34896
L79640 34934
L79621 34953
L79584 34971
L79453 34971
" />
<path d="M79790 34784
L80015 34784
" />
<path d="M79903 35178
L79903 34784
" />
<path d="M80146 35178
L80146 34784
L80371 35178
L80371 34784
" />
<path d="M80840 34821
L80859 34803
L80896 34784
L80990 34784
L81028 34803
L81046 34821
L81065 34859
L81065 34896
L81046 34953
L80821 35178
L81065 35178
" />
<path d="M79584 35971
L79640 35990
L79659 36009
L79678 36046
L79678 36103
L79659 36140
L79640 36159
L79603 36178
L79453 36178
L79453 35784
L79584 35784
L79621 35803
L79640 35821
L79659 35859
L79659 35896
L79640 35934
L79621 35953
L79584 35971
L79453 35971
" />
<path d="M79790 35784
L80015 35784
" />
<path d="M79903 36178
L79903 35784
" />
<path d="M80146 36178
L80146 35784
L80371 36178
L80371 35784
" />
<path d="M81065 36178
L80840 36178
" />
<path d="M80953 36178
L80953 35784
L80915 35840
L80878 35878
L80840 35896
" />
<path d="M80200 37803
L80162 37784
L80106 37784
L80050 37803
L80012 37840
L79993 37878
L79975 37953
L79975 38009
L79993 38084
L80012 38121
L80050 38159
L80106 38178
L80143 38178
L80200 38159
L80218 38140
L80218 38009
L80143 38009
" />
<path d="M80387 38178
L80387 37784
L80612 38178
L80612 37784
" />
<path d="M80799 38178
L80799 37784
L80893 37784
L80949 37803
L80987 37840
L81006 37878
L81024 37953
L81024 38009
L81006 38084
L80987 38121
L80949 38159
L80893 38178
L80799 38178
" />
<path d="M80675 36784
L80487 36784
L80468 36971
L80487 36953
L80525 36934
L80618 36934
L80656 36953
L80675 36971
L80693 37009
L80693 37103
L80675 37140
L80656 37159
L80618 37178
L80525 37178
L80487 37159
L80468 37140
" />
<path d="M80806 36784
L80937 37178
L81068 36784
" />
<path d="M60925 45284
L60737 45284
L60718 45471
L60737 45453
L60775 45434
L60868 45434
L60906 45453
L60925 45471
L60943 45509
L60943 45603
L60925 45640
L60906 45659
L60868 45678
L60775 45678
L60737 45659
L60718 45640
" />
<path d="M61056 45284
L61187 45678
L61318 45284
" />
<path d="M60381 44678
L60381 44284
L60512 44565
L60643 44284
L60643 44678
" />
<path d="M60906 44284
L60981 44284
L61018 44303
L61056 44340
L61074 44415
L61074 44546
L61056 44621
L61018 44659
L60981 44678
L60906 44678
L60868 44659
L60831 44621
L60812 44546
L60812 44415
L60831 44340
L60868 44303
L60906 44284
" />
<path d="M61224 44659
L61281 44678
L61374 44678
L61412 44659
L61431 44640
L61449 44603
L61449 44565
L61431 44528
L61412 44509
L61374 44490
L61299 44471
L61262 44453
L61243 44434
L61224 44396
L61224 44359
L61243 44321
L61262 44303
L61299 44284
L61393 44284
L61449 44303
" />
<path d="M61618 44678
L61618 44284
" />
<path d="M60700 43303
L60662 43284
L60606 43284
L60550 43303
L60512 43340
L60493 43378
L60475 43453
L60475 43509
L60493 43584
L60512 43621
L60550 43659
L60606 43678
L60643 43678
L60700 43659
L60718 43640
L60718 43509
L60643 43509
" />
<path d="M60887 43678
L60887 43284
L61112 43678
L61112 43284
" />
<path d="M61299 43678
L61299 43284
L61393 43284
L61449 43303
L61487 43340
L61506 43378
L61524 43453
L61524 43509
L61506 43584
L61487 43621
L61449 43659
L61393 43678
L61299 43678
" />
<path d="M63381 45678
L63381 45284
L63512 45565
L63643 45284
L63643 45678
" />
<path d="M63831 45678
L63831 45284
" />
<path d="M64000 45659
L64056 45678
L64149 45678
L64187 45659
L64206 45640
L64224 45603
L64224 45565
L64206 45528
L64187 45509
L64149 45490
L64074 45471
L64037 45453
L64018 45434
L64000 45396
L64000 45359
L64018 45321
L64037 45303
L64074 45284
L64168 45284
L64224 45303
" />
<path d="M64468 45284
L64543 45284
L64581 45303
L64618 45340
L64637 45415
L64637 45546
L64618 45621
L64581 45659
L64543 45678
L64468 45678
L64431 45659
L64393 45621
L64374 45546
L64374 45415
L64393 45340
L64431 45303
L64468 45284
" />
<path d="M63493 44659
L63550 44678
L63643 44678
L63681 44659
L63700 44640
L63718 44603
L63718 44565
L63700 44528
L63681 44509
L63643 44490
L63568 44471
L63531 44453
L63512 44434
L63493 44396
L63493 44359
L63512 44321
L63531 44303
L63568 44284
L63662 44284
L63718 44303
" />
<path d="M64112 44640
L64093 44659
L64037 44678
L64000 44678
L63943 44659
L63906 44621
L63887 44584
L63868 44509
L63868 44453
L63887 44378
L63906 44340
L63943 44303
L64000 44284
L64037 44284
L64093 44303
L64112 44321
" />
<path d="M64281 44678
L64281 44284
" />
<path d="M64506 44678
L64337 44453
" />
<path d="M64506 44284
L64281 44509
" />
<path d="M63784 43678
L63653 43490
" />
<path d="M63559 43678
L63559 43284
L63709 43284
L63746 43303
L63765 43321
L63784 43359
L63784 43415
L63765 43453
L63746 43471
L63709 43490
L63559 43490
" />
<path d="M63934 43659
L63990 43678
L64084 43678
L64121 43659
L64140 43640
L64159 43603
L64159 43565
L64140 43528
L64121 43509
L64084 43490
L64009 43471
L63971 43453
L63953 43434
L63934 43396
L63934 43359
L63953 43321
L63971 43303
L64009 43284
L64103 43284
L64159 43303
" />
<path d="M64271 43284
L64496 43284
" />
<path d="M64384 43678
L64384 43284
" />
<path d="M44784 49049
L44784 48824
" />
<path d="M45178 48937
L44784 48937
" />
<path d="M44784 48731
L45178 48468
" />
<path d="M44784 48468
L45178 48731
" />
<path d="M44178 48815
L43990 48946
" />
<path d="M44178 49040
L43784 49040
L43784 48890
L43803 48853
L43821 48834
L43859 48815
L43915 48815
L43953 48834
L43971 48853
L43990 48890
L43990 49040
" />
<path d="M43784 48684
L44178 48421
" />
<path d="M43784 48421
L44178 48684
" />
<path d="M43159 49228
L43178 49171
L43178 49078
L43159 49040
L43140 49021
L43103 49003
L43065 49003
L43028 49021
L43009 49040
L42990 49078
L42971 49153
L42953 49190
L42934 49209
L42896 49228
L42859 49228
L42821 49209
L42803 49190
L42784 49153
L42784 49059
L42803 49003
" />
<path d="M43178 48834
L42784 48834
L42784 48740
L42803 48684
L42840 48646
L42878 48628
L42953 48609
L43009 48609
L43084 48628
L43121 48646
L43159 48684
L43178 48740
L43178 48834
" />
<path d="M43065 48459
L43065 48271
" />
<path d="M43178 48496
L42784 48365
L43178 48234
" />
<path d="M42159 49218
L42178 49162
L42178 49068
L42159 49031
L42140 49012
L42103 48993
L42065 48993
L42028 49012
L42009 49031
L41990 49068
L41971 49143
L41953 49181
L41934 49199
L41896 49218
L41859 49218
L41821 49199
L41803 49181
L41784 49143
L41784 49049
L41803 48993
" />
<path d="M42140 48600
L42159 48618
L42178 48675
L42178 48712
L42159 48768
L42121 48806
L42084 48824
L42009 48843
L41953 48843
L41878 48824
L41840 48806
L41803 48768
L41784 48712
L41784 48675
L41803 48618
L41821 48600
" />
<path d="M42178 48243
L42178 48431
L41784 48431
" />
<path d="M40784 48824
L40784 49012
L40971 49031
L40953 49012
L40934 48974
L40934 48881
L40953 48843
L40971 48824
L41009 48806
L41103 48806
L41140 48824
L41159 48843
L41178 48881
L41178 48974
L41159 49012
L41140 49031
" />
<path d="M40784 48693
L41178 48562
L40784 48431
" />
<path d="M39803 49049
L39784 49087
L39784 49143
L39803 49199
L39840 49237
L39878 49256
L39953 49274
L40009 49274
L40084 49256
L40121 49237
L40159 49199
L40178 49143
L40178 49106
L40159 49049
L40140 49031
L40009 49031
L40009 49106
" />
<path d="M40178 48862
L39784 48862
L40178 48637
L39784 48637
" />
<path d="M40178 48450
L39784 48450
L39784 48356
L39803 48300
L39840 48262
L39878 48243
L39953 48225
L40009 48225
L40084 48243
L40121 48262
L40159 48300
L40178 48356
L40178 48450
" />
</g>
<g style="fill:#000000; fill-opacity:0.0; 
stroke:#000000; stroke-width:59.0551; stroke-opacity:1; 
stroke-linecap:round; stroke-linejoin:round;">
<path d="M57901 38740
L38098 38740
" />
<path d="M38098 38740
L38098 31259
" />
<path d="M38098 31259
L57901 31259
" />
<path d="M57901 31259
L57901 38740
" />
<path d="M54153 35000
L56122 35000
" />
<path d="M53464 37362
L55531 37362
" />
<path d="M56417 34803
L57007 32637
" />
<path d="M55728 37362
L56318 35196
" />
<path d="M53956 34803
L54547 32637
" />
<path d="M53267 37362
L53858 35196
" />
<path d="M54744 32637
L56811 32637
" />
<path d="M39653 35000
L41622 35000
" />
<path d="M38964 37362
L41031 37362
" />
<path d="M41917 34803
L42507 32637
" />
<path d="M41228 37362
L41818 35196
" />
<path d="M39456 34803
L40047 32637
" />
<path d="M38767 37362
L39358 35196
" />
<path d="M40244 32637
L42311 32637
" />
<path d="M45244 32637
L47311 32637
" />
<path d="M43767 37362
L44358 35196
" />
<path d="M44456 34803
L45047 32637
" />
<path d="M46228 37362
L46818 35196
" />
<path d="M46917 34803
L47507 32637
" />
<path d="M43964 37362
L46031 37362
" />
<path d="M44653 35000
L46622 35000
" />
<path d="M51891 34803
L52482 32637
" />
<path d="M50218 32637
L52285 32637
" />
<path d="M49431 34803
L50021 32637
" />
<path d="M49627 35000
L51596 35000
" />
<path d="M48938 37362
L51005 37362
" />
<path d="M48742 37362
L49332 35196
" />
<path d="M51202 37362
L51793 35196
" />
<circle cx="56614.2" cy="37165.4" r="196.85" /> 
<circle cx="42114.2" cy="37165.4" r="196.85" /> 
<circle cx="52088.6" cy="37165.4" r="196.85" /> 
<circle cx="47114.2" cy="37165.4" r="196.85" /> 
</g>
<g style="fill:#000000; fill-opacity:0.0; 
stroke:#000000; stroke-width:47.2441; stroke-opacity:1; 
stroke-linecap:round; stroke-linejoin:round;">
<path d="M51834 35196
L51834 34803
" />
<path d="M51165 34803
L51165 35196
" />
<path d="M60610 47598
L60610 41401
" />
<path d="M60610 41401
L64389 41401
" />
<path d="M64389 41401
L64389 47598
" />
<path d="M64389 47598
L60610 47598
" />
<path d="M86000 45500
L83000 45500
" />
<path d="M86000 39500
L83000 39500
" />
<path d="M85500 45500
L85500 39500
" />
<path d="M83000 45500
L83000 39500
" />
<path d="M86000 45500
L86000 39500
" />
<path d="M28500 45000
L28500 41000
" />
<path d="M28000 45000
L31000 45000
" />
<path d="M31000 45000
L31000 41000
" />
<path d="M31000 41000
L28000 41000
" />
<path d="M28000 41000
L28000 45000
" />
<path d="M72799 44622
L72799 44255
" />
<path d="M72799 43377
L72799 43744
" />
<path d="M72799 43377
L71948 43377
" />
<path d="M72799 44622
L72224 44622
" />
<path d="M65846 43263
L65846 43736
" />
<path d="M65153 43736
L65153 43263
" />
<path d="M52846 34763
L52846 35236
" />
<path d="M52153 35236
L52153 34763
" />
<path d="M60639 32653
L61112 32653
" />
<path d="M61112 33346
L60639 33346
" />
<path d="M60637 34653
L61110 34653
" />
<path d="M61110 35346
L60637 35346
" />
<path d="M34263 38653
L34736 38653
" />
<path d="M34736 39346
L34263 39346
" />
<path d="M67846 43263
L67846 43736
" />
<path d="M67153 43736
L67153 43263
" />
<path d="M69736 40846
L69263 40846
" />
<path d="M69263 40153
L69736 40153
" />
<path d="M72736 42346
L72263 42346
" />
<path d="M72263 41653
L72736 41653
" />
</g>
<g style="fill:#000000; fill-opacity:0.0; 
stroke:#000000; stroke-width:59.0551; stroke-opacity:1; 
stroke-linecap:round; stroke-linejoin:round;">
<circle cx="34500" cy="33000" r="787.402" /> 
<path d="M32059 38444
L36940 38444
" />
<path d="M32059 31555
L32059 38444
" />
<path d="M32059 31555
L36940 31555
" />
<path d="M36940 31555
L36940 38444
" />
<path d="M57025 38100
L57025 37992
" />
<path d="M53974 38100
L53974 37956
" />
<path d="M53974 31899
L53974 32043
" />
<path d="M57025 31899
L57025 32043
" />
<path d="M57025 38100
L53974 38100
" />
<path d="M57025 31899
L53974 31899
" />
<path d="M57025 37992
L57744 37992
" />
</g>
<g style="fill:#000000; fill-opacity:0.0; 
stroke:#000000; stroke-width:47.2441; stroke-opacity:1; 
stroke-linecap:round; stroke-linejoin:round;">
<path d="M67224 42708
L67775 42708
" />
<path d="M67775 42708
L67775 41606
" />
<path d="M67224 42708
L67224 41606
" />
<path d="M45775 43291
L45224 43291
" />
<path d="M45224 43291
L45224 44393
" />
<path d="M45775 43291
L45775 44393
" />
<path d="M45846 41763
L45846 42236
" />
<path d="M45153 42236
L45153 41763
" />
<path d="M70547 42606
L70547 41988
" />
<path d="M70547 41988
L68452 41988
" />
<path d="M68452 41988
L68452 44011
" />
<path d="M68452 44011
L70547 44011
" />
<path d="M70547 44011
L70547 43393
" />
<path d="M70547.2 42606.3 A393.701 393.701 0.0 0 0 70547.2 43393.7 " />
<path d="M38251 44342
L38251 43846
" />
<path d="M38251 41657
L38251 42153
" />
<path d="M36771 44342
L38251 44342
" />
<path d="M35885 41657
L38251 41657
" />
<path d="M58500 48023
L59523 48023
" />
<path d="M59523 48023
L59523 46976
" />
<path d="M59523 46976
L58500 46976
" />
<path d="M58500 46976
L58500 48023
" />
<path d="M58000 48023
L57476 48023
" />
<path d="M57476 48023
L57476 47500
" />
<path d="M56346 47312
L56346 47785
" />
<path d="M55653 47785
L55653 47312
" />
<path d="M75736 39346
L75263 39346
" />
<path d="M75263 38653
L75736 38653
" />
</g>
<g style="fill:#000000; fill-opacity:0.0; 
stroke:#000000; stroke-width:59.0551; stroke-opacity:1; 
stroke-linecap:round; stroke-linejoin:round;">
<circle cx="75500" cy="33000" r="787.402" /> 
<path d="M73059 38444
L77940 38444
" />
<path d="M73059 31555
L73059 38444
" />
<path d="M73059 31555
L77940 31555
" />
<path d="M77940 31555
L77940 38444
" />
</g>
<g style="fill:#000000; fill-opacity:0.0; 
stroke:#000000; stroke-width:47.2441; stroke-opacity:1; 
stroke-linecap:round; stroke-linejoin:round;">
<path d="M44500 46976
L39476 46976
" />
<path d="M39476 46976
L39476 48023
" />
<path d="M39476 48023
L44500 48023
" />
<path d="M44500 48023
L44500 46976
" />
<path d="M45000 46976
L45523 46976
" />
<path d="M45523 46976
L45523 47500
" />
<path d="M34799 41700
L33940 41700
" />
<path d="M32200 41700
L33059 41700
" />
<path d="M34500 44299
L33940 44299
" />
<path d="M32500 44299
L33059 44299
" />
<path d="M34799 41700
L34799 44000
" />
<path d="M34799 44000
L34500 44299
" />
<path d="M32500 44299
L32200 44000
" />
<path d="M32200 44000
L32200 41700
" />
<path d="M42799 41700
L41940 41700
" />
<path d="M40200 41700
L41059 41700
" />
<path d="M42500 44299
L41940 44299
" />
<path d="M40500 44299
L41059 44299
" />
<path d="M42799 41700
L42799 44000
" />
<path d="M42799 44000
L42500 44299
" />
<path d="M40500 44299
L40200 44000
" />
<path d="M40200 44000
L40200 41700
" />
<path d="M65893 41114
L65106 41114
" />
<path d="M65106 41114
L65106 42649
" />
<path d="M65893 41114
L65893 42649
" />
<path d="M73385 40393
L73385 39606
" />
<path d="M73385 39606
L71850 39606
" />
<path d="M73385 40393
L71850 40393
" />
<path d="M27413 34787
L27413 38212
" />
<path d="M29937 34787
L29937 38212
" />
<path d="M29937 38212
L27413 38212
" />
<path d="M27897 38212
L27897 34787
" />
<path d="M27413 34787
L29937 34787
" />
<path d="M61112 37346
L60639 37346
" />
<path d="M60639 36653
L61112 36653
" />
</g>
<g style="fill:#000000; fill-opacity:0.0; 
stroke:#000000; stroke-width:59.0551; stroke-opacity:1; 
stroke-linecap:round; stroke-linejoin:round;">
<path d="M67940 37598
L63059 37598
" />
<path d="M63059 37598
L63059 32401
" />
<path d="M67940 32401
L63059 32401
" />
<path d="M67940 37598
L67940 32401
" />
<circle cx="65500" cy="35000" r="1377.95" /> 
</g>
<g style="fill:#000000; fill-opacity:0.0; 
stroke:#000000; stroke-width:47.2441; stroke-opacity:1; 
stroke-linecap:round; stroke-linejoin:round;">
<path d="M81226 32500
L81226 38523
" />
<path d="M81226 38523
L82273 38523
" />
<path d="M82273 38523
L82273 32500
" />
<path d="M82273 32500
L81226 32500
" />
<path d="M81226 32000
L81226 31476
" />
<path d="M81226 31476
L81750 31476
" />
<path d="M43415 42803
L43415 43196
" />
<path d="M44084 43196
L44084 42803
" />
<path d="M51684 44140
L51684 43746
" />
<path d="M51015 43746
L51015 44140
" />
</g>
<g style="fill:#000000; fill-opacity:0.0; 
stroke:#000000; stroke-width:59.0551; stroke-opacity:1; 
stroke-linecap:round; stroke-linejoin:round;">
<path d="M53572 43072
L53572 43161
" />
<path d="M56427 43072
L56427 43200
" />
<path d="M56427 45927
L56427 45799
" />
<path d="M53572 45927
L53572 45799
" />
<path d="M53572 43072
L53700 43072
" />
<path d="M53572 45927
L53700 45927
" />
<path d="M56427 45927
L56299 45927
" />
<path d="M56427 43072
L56299 43072
" />
<path d="M53572 43161
L53011 43161
" />
<path d="M38381 31065
L38568 31065
" />
<path d="M38343 31178
L38475 30784
L38606 31178
" />
<path d="M38868 30971
L38737 30971
" />
<path d="M38737 31178
L38737 30784
L38925 30784
" />
<path d="M39206 30971
L39074 30971
" />
<path d="M39074 31178
L39074 30784
L39262 30784
" />
<path d="M39618 31178
L39393 31178
" />
<path d="M39506 31178
L39506 30784
L39468 30840
L39431 30878
L39393 30896
" />
<path d="M51640 36215
L51659 36234
L51678 36290
L51678 36328
L51659 36384
L51621 36421
L51584 36440
L51509 36459
L51453 36459
L51378 36440
L51340 36421
L51303 36384
L51284 36328
L51284 36290
L51303 36234
L51321 36215
" />
<path d="M51284 35859
L51284 36046
L51471 36065
L51453 36046
L51434 36009
L51434 35915
L51453 35878
L51471 35859
L51509 35840
L51603 35840
L51640 35859
L51659 35878
L51678 35915
L51678 36009
L51659 36046
L51640 36065
" />
<path d="M59831 44450
L60112 44450
L60169 44468
L60206 44506
L60225 44562
L60225 44600
" />
<path d="M60225 44056
L60225 44281
" />
<path d="M60225 44168
L59831 44168
L59887 44206
L59925 44243
L59944 44281
" />
<path d="M61918 48178
L61918 47784
" />
<path d="M62331 48140
L62312 48159
L62256 48178
L62218 48178
L62162 48159
L62125 48121
L62106 48084
L62087 48009
L62087 47953
L62106 47878
L62125 47840
L62162 47803
L62218 47784
L62256 47784
L62312 47803
L62331 47821
" />
<path d="M62481 48159
L62537 48178
L62631 48178
L62668 48159
L62687 48140
L62706 48103
L62706 48065
L62687 48028
L62668 48009
L62631 47990
L62556 47971
L62518 47953
L62500 47934
L62481 47896
L62481 47859
L62500 47821
L62518 47803
L62556 47784
L62649 47784
L62706 47803
" />
<path d="M62874 48178
L62874 47784
L63024 47784
L63062 47803
L63081 47821
L63099 47859
L63099 47915
L63081 47953
L63062 47971
L63024 47990
L62874 47990
" />
</g>
<g style="fill:#000000; fill-opacity:0.0; 
stroke:#000000; stroke-width:47.2441; stroke-opacity:1; 
stroke-linecap:round; stroke-linejoin:round;">
<path d="M63855 45379
L63855 45604
" />
<path d="M63855 45492
L63461 45492
L63517 45529
L63555 45567
L63574 45604
" />
</g>
<g style="fill:#000000; fill-opacity:0.0; 
stroke:#000000; stroke-width:59.0551; stroke-opacity:1; 
stroke-linecap:round; stroke-linejoin:round;">
<path d="M82453 42643
L82734 42643
L82791 42661
L82828 42699
L82847 42755
L82847 42793
" />
<path d="M82453 42493
L82453 42230
L82847 42399
" />
<path d="M31284 43131
L31565 43131
L31621 43149
L31659 43187
L31678 43243
L31678 43281
" />
<path d="M31321 42962
L31303 42943
L31284 42906
L31284 42812
L31303 42775
L31321 42756
L31359 42737
L31396 42737
L31453 42756
L31678 42981
L31678 42737
" />
<path d="M72462 43231
L72425 43212
L72387 43175
L72331 43118
L72293 43100
L72256 43100
" />
<path d="M72275 43193
L72237 43175
L72200 43137
L72181 43062
L72181 42931
L72200 42856
L72237 42818
L72275 42800
L72350 42800
L72387 42818
L72425 42856
L72443 42931
L72443 43062
L72425 43137
L72387 43175
L72350 43193
L72275 43193
" />
<path d="M72818 43193
L72593 43193
" />
<path d="M72706 43193
L72706 42800
L72668 42856
L72631 42893
L72593 42912
" />
<path d="M65028 43565
L64841 43696
" />
<path d="M65028 43790
L64634 43790
L64634 43640
L64653 43603
L64672 43584
L64709 43565
L64766 43565
L64803 43584
L64822 43603
L64841 43640
L64841 43790
" />
<path d="M64672 43415
L64653 43396
L64634 43359
L64634 43265
L64653 43228
L64672 43209
L64709 43190
L64747 43190
L64803 43209
L65028 43434
L65028 43190
" />
<path d="M52678 36215
L52490 36346
" />
<path d="M52678 36440
L52284 36440
L52284 36290
L52303 36253
L52321 36234
L52359 36215
L52415 36215
L52453 36234
L52471 36253
L52490 36290
L52490 36440
" />
<path d="M52284 35878
L52284 35953
L52303 35990
L52321 36009
L52378 36046
L52453 36065
L52603 36065
L52640 36046
L52659 36028
L52678 35990
L52678 35915
L52659 35878
L52640 35859
L52603 35840
L52509 35840
L52471 35859
L52453 35878
L52434 35915
L52434 35990
L52453 36028
L52471 36046
L52509 36065
" />
<path d="M60810 33827
L60679 33640
" />
<path d="M60585 33827
L60585 33434
L60735 33434
L60772 33452
L60791 33471
L60810 33508
L60810 33565
L60791 33602
L60772 33621
L60735 33640
L60585 33640
" />
<path d="M61147 33565
L61147 33827
" />
<path d="M61054 33415
L60960 33696
L61204 33696
" />
<path d="M60808 35827
L60677 35640
" />
<path d="M60583 35827
L60583 35434
L60733 35434
L60770 35452
L60789 35471
L60808 35508
L60808 35565
L60789 35602
L60770 35621
L60733 35640
L60583 35640
" />
<path d="M61164 35434
L60977 35434
L60958 35621
L60977 35602
L61014 35583
L61108 35583
L61145 35602
L61164 35621
L61183 35658
L61183 35752
L61164 35790
L61145 35808
L61108 35827
L61014 35827
L60977 35808
L60958 35790
" />
<path d="M34246 39827
L34115 39640
" />
<path d="M34021 39827
L34021 39434
L34171 39434
L34209 39452
L34228 39471
L34246 39508
L34246 39565
L34228 39602
L34209 39621
L34171 39640
L34021 39640
" />
<path d="M34621 39827
L34396 39827
" />
<path d="M34509 39827
L34509 39434
L34471 39490
L34434 39527
L34396 39546
" />
<path d="M34996 39827
L34771 39827
" />
<path d="M34884 39827
L34884 39434
L34846 39490
L34809 39527
L34771 39546
" />
<path d="M67028 43565
L66841 43696
" />
<path d="M67028 43790
L66634 43790
L66634 43640
L66653 43603
L66672 43584
L66709 43565
L66766 43565
L66803 43584
L66822 43603
L66841 43640
L66841 43790
" />
<path d="M66803 43340
L66784 43378
L66766 43396
L66728 43415
L66709 43415
L66672 43396
L66653 43378
L66634 43340
L66634 43265
L66653 43228
L66672 43209
L66709 43190
L66728 43190
L66766 43209
L66784 43228
L66803 43265
L66803 43340
L66822 43378
L66841 43396
L66878 43415
L66953 43415
L66991 43396
L67009 43378
L67028 43340
L67028 43265
L67009 43228
L66991 43209
L66953 43190
L66878 43190
L66841 43209
L66822 43228
L66803 43265
" />
<path d="M69434 40028
L69303 39841
" />
<path d="M69209 40028
L69209 39634
L69359 39634
L69396 39653
L69415 39672
L69434 39709
L69434 39766
L69415 39803
L69396 39822
L69359 39841
L69209 39841
" />
<path d="M69621 40028
L69696 40028
L69734 40009
L69753 39991
L69790 39934
L69809 39859
L69809 39709
L69790 39672
L69771 39653
L69734 39634
L69659 39634
L69621 39653
L69603 39672
L69584 39709
L69584 39803
L69603 39841
L69621 39859
L69659 39878
L69734 39878
L69771 39859
L69790 39841
L69809 39803
" />
<path d="M72246 41528
L72115 41341
" />
<path d="M72021 41528
L72021 41134
L72171 41134
L72209 41153
L72228 41172
L72246 41209
L72246 41266
L72228 41303
L72209 41322
L72171 41341
L72021 41341
" />
<path d="M72621 41528
L72396 41528
" />
<path d="M72509 41528
L72509 41134
L72471 41191
L72434 41228
L72396 41247
" />
<path d="M72865 41134
L72903 41134
L72940 41153
L72959 41172
L72978 41209
L72996 41284
L72996 41378
L72978 41453
L72959 41491
L72940 41509
L72903 41528
L72865 41528
L72828 41509
L72809 41491
L72790 41453
L72771 41378
L72771 41284
L72790 41209
L72809 41172
L72828 41153
L72865 41134
" />
<path d="M32475 31159
L32531 31178
L32625 31178
L32662 31159
L32681 31140
L32700 31103
L32700 31065
L32681 31028
L32662 31009
L32625 30990
L32550 30971
L32512 30953
L32493 30934
L32475 30896
L32475 30859
L32493 30821
L32512 30803
L32550 30784
L32643 30784
L32700 30803
" />
<path d="M32831 30784
L32925 31178
L33000 30896
L33074 31178
L33168 30784
" />
<path d="M33299 30821
L33318 30803
L33356 30784
L33449 30784
L33487 30803
L33506 30821
L33524 30859
L33524 30896
L33506 30953
L33281 31178
L33524 31178
" />
<path d="M55200 38248
L55200 38567
L55218 38605
L55237 38623
L55275 38642
L55350 38642
L55387 38623
L55406 38605
L55425 38567
L55425 38248
" />
<path d="M55574 38248
L55818 38248
L55687 38398
L55743 38398
L55781 38417
L55799 38436
L55818 38473
L55818 38567
L55799 38605
L55781 38623
L55743 38642
L55631 38642
L55593 38623
L55574 38605
" />
<path d="M67107 42290
L66713 42290
L66713 42196
L66732 42140
L66769 42103
L66807 42084
L66882 42065
L66938 42065
L67013 42084
L67050 42103
L67088 42140
L67107 42196
L67107 42290
" />
<path d="M66713 41934
L66713 41690
L66863 41821
L66863 41765
L66882 41728
L66901 41709
L66938 41690
L67032 41690
L67069 41709
L67088 41728
L67107 41765
L67107 41878
L67088 41915
L67069 41934
" />
<path d="M46248 44290
L45855 44290
L45855 44196
L45874 44140
L45911 44103
L45949 44084
L46023 44065
L46080 44065
L46155 44084
L46192 44103
L46230 44140
L46248 44196
L46248 44290
" />
<path d="M45892 43915
L45874 43896
L45855 43859
L45855 43765
L45874 43728
L45892 43709
L45930 43690
L45967 43690
L46023 43709
L46248 43934
L46248 43690
" />
<path d="M45028 42065
L44841 42196
" />
<path d="M45028 42290
L44634 42290
L44634 42140
L44653 42103
L44672 42084
L44709 42065
L44766 42065
L44803 42084
L44822 42103
L44841 42140
L44841 42290
" />
<path d="M44634 41934
L44634 41690
L44784 41821
L44784 41765
L44803 41728
L44822 41709
L44859 41690
L44953 41690
L44991 41709
L45009 41728
L45028 41765
L45028 41878
L45009 41915
L44991 41934
" />
<path d="M70725 43299
L71044 43299
L71081 43281
L71100 43262
L71119 43224
L71119 43149
L71100 43112
L71081 43093
L71044 43074
L70725 43074
" />
<path d="M70856 42718
L71119 42718
" />
<path d="M70706 42812
L70987 42906
L70987 42662
" />
<path d="M37200 41012
L37200 41331
L37218 41368
L37237 41387
L37275 41406
L37350 41406
L37387 41387
L37406 41368
L37425 41331
L37425 41012
" />
<path d="M37593 41050
L37612 41031
L37649 41012
L37743 41012
L37781 41031
L37799 41050
L37818 41087
L37818 41125
L37799 41181
L37574 41406
L37818 41406
" />
<path d="M56867 47631
L57148 47631
L57204 47649
L57242 47687
L57260 47743
L57260 47781
" />
<path d="M56867 47481
L56867 47237
L57017 47368
L57017 47312
L57035 47275
L57054 47256
L57092 47237
L57185 47237
L57223 47256
L57242 47275
L57260 47312
L57260 47425
L57242 47462
L57223 47481
" />
<path d="M57796 48678
L57796 48284
L57946 48284
L57984 48303
L58003 48321
L58021 48359
L58021 48415
L58003 48453
L57984 48471
L57946 48490
L57796 48490
" />
<path d="M58190 48678
L58190 48415
" />
<path d="M58190 48284
L58171 48303
L58190 48321
L58209 48303
L58190 48284
L58190 48321
" />
<path d="M58528 48659
L58490 48678
L58415 48678
L58378 48659
L58359 48621
L58359 48471
L58378 48434
L58415 48415
L58490 48415
L58528 48434
L58546 48471
L58546 48509
L58359 48546
" />
<path d="M58678 48415
L58884 48415
L58678 48678
L58884 48678
" />
<path d="M59090 48678
L59053 48659
L59034 48640
L59015 48603
L59015 48490
L59034 48453
L59053 48434
L59090 48415
L59146 48415
L59184 48434
L59203 48453
L59221 48490
L59221 48603
L59203 48640
L59184 48659
L59146 48678
L59090 48678
" />
<path d="M55528 47614
L55341 47745
" />
<path d="M55528 47839
L55134 47839
L55134 47689
L55153 47652
L55172 47633
L55209 47614
L55266 47614
L55303 47633
L55322 47652
L55341 47689
L55341 47839
" />
<path d="M55528 47239
L55528 47464
" />
<path d="M55528 47352
L55134 47352
L55191 47389
L55228 47427
L55247 47464
" />
<path d="M75246 38528
L75115 38341
" />
<path d="M75021 38528
L75021 38134
L75171 38134
L75209 38153
L75228 38172
L75246 38209
L75246 38266
L75228 38303
L75209 38322
L75171 38341
L75021 38341
" />
<path d="M75621 38528
L75396 38528
" />
<path d="M75509 38528
L75509 38134
L75471 38191
L75434 38228
L75396 38247
" />
<path d="M75771 38172
L75790 38153
L75828 38134
L75921 38134
L75959 38153
L75978 38172
L75996 38209
L75996 38247
L75978 38303
L75753 38528
L75996 38528
" />
<path d="M73475 31159
L73531 31178
L73625 31178
L73662 31159
L73681 31140
L73700 31103
L73700 31065
L73681 31028
L73662 31009
L73625 30990
L73550 30971
L73512 30953
L73493 30934
L73475 30896
L73475 30859
L73493 30821
L73512 30803
L73550 30784
L73643 30784
L73700 30803
" />
<path d="M73831 30784
L73925 31178
L74000 30896
L74074 31178
L74168 30784
" />
<path d="M74281 30784
L74524 30784
L74393 30934
L74449 30934
L74487 30953
L74506 30971
L74524 31009
L74524 31103
L74506 31140
L74487 31159
L74449 31178
L74337 31178
L74299 31159
L74281 31140
" />
<path d="M45701 47631
L45982 47631
L46039 47649
L46076 47687
L46095 47743
L46095 47781
" />
<path d="M45701 47256
L45701 47443
L45889 47462
L45870 47443
L45851 47406
L45851 47312
L45870 47275
L45889 47256
L45926 47237
L46020 47237
L46057 47256
L46076 47275
L46095 47312
L46095 47406
L46076 47443
L46057 47462
" />
<path d="M37928 47678
L37928 47284
L38021 47284
L38078 47303
L38115 47340
L38134 47378
L38153 47453
L38153 47509
L38134 47584
L38115 47621
L38078 47659
L38021 47678
L37928 47678
" />
<path d="M38490 47678
L38490 47471
L38471 47434
L38434 47415
L38359 47415
L38321 47434
" />
<path d="M38490 47659
L38453 47678
L38359 47678
L38321 47659
L38303 47621
L38303 47584
L38321 47546
L38359 47528
L38453 47528
L38490 47509
" />
<path d="M38621 47415
L38771 47415
" />
<path d="M38678 47284
L38678 47621
L38696 47659
L38734 47678
L38771 47678
" />
<path d="M39071 47678
L39071 47471
L39053 47434
L39015 47415
L38940 47415
L38903 47434
" />
<path d="M39071 47659
L39034 47678
L38940 47678
L38903 47659
L38884 47621
L38884 47584
L38903 47546
L38940 47528
L39034 47528
L39071 47509
" />
<path d="M35435 43065
L35454 43084
L35473 43140
L35473 43178
L35454 43234
L35417 43271
L35379 43290
L35304 43309
L35248 43309
L35173 43290
L35135 43271
L35098 43234
L35079 43178
L35079 43140
L35098 43084
L35117 43065
" />
<path d="M35117 42915
L35098 42896
L35079 42859
L35079 42765
L35098 42728
L35117 42709
L35154 42690
L35192 42690
L35248 42709
L35473 42934
L35473 42690
" />
<path d="M34713 44835
L34713 44535
" />
<path d="M34863 44685
L34563 44685
" />
<path d="M43435 43065
L43454 43084
L43473 43140
L43473 43178
L43454 43234
L43417 43271
L43379 43290
L43304 43309
L43248 43309
L43173 43290
L43135 43271
L43098 43234
L43079 43178
L43079 43140
L43098 43084
L43117 43065
" />
<path d="M43079 42934
L43079 42690
L43229 42821
L43229 42765
L43248 42728
L43267 42709
L43304 42690
L43398 42690
L43435 42709
L43454 42728
L43473 42765
L43473 42878
L43454 42915
L43435 42934
" />
<path d="M42713 44835
L42713 44535
" />
<path d="M42863 44685
L42563 44685
" />
<path d="M66465 42290
L66071 42290
L66071 42196
L66090 42140
L66128 42103
L66165 42084
L66240 42065
L66296 42065
L66371 42084
L66409 42103
L66446 42140
L66465 42196
L66465 42290
" />
<path d="M66465 41690
L66465 41915
" />
<path d="M66465 41803
L66071 41803
L66128 41840
L66165 41878
L66184 41915
" />
<path d="M72209 40965
L72209 40571
L72303 40571
L72359 40590
L72396 40628
L72415 40665
L72434 40740
L72434 40796
L72415 40871
L72396 40909
L72359 40946
L72303 40965
L72209 40965
" />
<path d="M72771 40703
L72771 40965
" />
<path d="M72678 40553
L72584 40834
L72828 40834
" />
<path d="M30059 36631
L30341 36631
L30397 36649
L30434 36687
L30453 36743
L30453 36781
" />
<path d="M30059 36275
L30059 36350
L30078 36387
L30097 36406
L30153 36443
L30228 36462
L30378 36462
L30416 36443
L30434 36425
L30453 36387
L30453 36312
L30434 36275
L30416 36256
L30378 36237
L30284 36237
L30247 36256
L30228 36275
L30209 36312
L30209 36387
L30228 36425
L30247 36443
L30284 36462
" />
<path d="M60810 36528
L60679 36341
" />
<path d="M60585 36528
L60585 36134
L60735 36134
L60772 36153
L60791 36172
L60810 36209
L60810 36266
L60791 36303
L60772 36322
L60735 36341
L60585 36341
" />
<path d="M60941 36134
L61204 36134
L61035 36528
" />
<path d="M62975 31159
L63031 31178
L63125 31178
L63162 31159
L63181 31140
L63200 31103
L63200 31065
L63181 31028
L63162 31009
L63125 30990
L63050 30971
L63012 30953
L62993 30934
L62975 30896
L62975 30859
L62993 30821
L63012 30803
L63050 30784
L63143 30784
L63200 30803
" />
<path d="M63331 30784
L63425 31178
L63500 30896
L63574 31178
L63668 30784
" />
<path d="M64024 31178
L63799 31178
" />
<path d="M63912 31178
L63912 30784
L63874 30840
L63837 30878
L63799 30896
" />
<path d="M50490 45687
L50678 45687
" />
<path d="M50284 45818
L50490 45687
L50284 45556
" />
<path d="M50678 45218
L50678 45443
" />
<path d="M50678 45331
L50284 45331
L50340 45368
L50378 45406
L50396 45443
" />
<path d="M81618 30867
L81618 31148
L81600 31204
L81562 31242
L81506 31260
L81468 31260
" />
<path d="M81974 30998
L81974 31260
" />
<path d="M81881 30848
L81787 31129
L82031 31129
" />
<path d="M83140 36584
L83159 36602
L83178 36659
L83178 36696
L83159 36752
L83121 36790
L83084 36809
L83009 36827
L82953 36827
L82878 36809
L82840 36790
L82803 36752
L82784 36696
L82784 36659
L82803 36602
L82821 36584
" />
<path d="M82784 36340
L82784 36265
L82803 36227
L82840 36190
L82915 36171
L83046 36171
L83121 36190
L83159 36227
L83178 36265
L83178 36340
L83159 36377
L83121 36415
L83046 36434
L82915 36434
L82840 36415
L82803 36377
L82784 36340
" />
<path d="M83178 36002
L82784 36002
L83178 35778
L82784 35778
" />
<path d="M83178 35590
L82784 35590
L83178 35365
L82784 35365
" />
<path d="M83215 35271
L83215 34971
" />
<path d="M82784 34803
L82784 34765
L82803 34728
L82821 34709
L82859 34690
L82934 34671
L83028 34671
L83103 34690
L83140 34709
L83159 34728
L83178 34765
L83178 34803
L83159 34840
L83140 34859
L83103 34878
L83028 34896
L82934 34896
L82859 34878
L82821 34859
L82803 34840
L82784 34803
" />
<path d="M83178 34296
L83178 34521
" />
<path d="M83178 34409
L82784 34409
L82840 34446
L82878 34484
L82896 34521
" />
<path d="M82784 34165
L83178 33903
" />
<path d="M82784 33903
L83178 34165
" />
<path d="M82784 33678
L82784 33640
L82803 33603
L82821 33584
L82859 33565
L82934 33547
L83028 33547
L83103 33565
L83140 33584
L83159 33603
L83178 33640
L83178 33678
L83159 33715
L83140 33734
L83103 33753
L83028 33772
L82934 33772
L82859 33753
L82821 33734
L82803 33715
L82784 33678
" />
<path d="M82784 33415
L82784 33153
L83178 33322
" />
<path d="M43300 43065
L43318 43084
L43337 43140
L43337 43178
L43318 43234
L43281 43271
L43243 43290
L43168 43309
L43112 43309
L43037 43290
L43000 43271
L42962 43234
L42943 43178
L42943 43140
L42962 43084
L42981 43065
" />
<path d="M43075 42728
L43337 42728
" />
<path d="M42925 42821
L43206 42915
L43206 42671
" />
<path d="M52081 44009
L52099 44028
L52118 44084
L52118 44121
L52099 44178
L52062 44215
L52024 44234
L51949 44253
L51893 44253
L51818 44234
L51781 44215
L51743 44178
L51724 44121
L51724 44084
L51743 44028
L51762 44009
" />
<path d="M52118 43634
L52118 43859
" />
<path d="M52118 43746
L51724 43746
L51781 43784
L51818 43821
L51837 43859
" />
<path d="M54700 41902
L54700 42221
L54718 42258
L54737 42277
L54775 42296
L54850 42296
L54887 42277
L54906 42258
L54925 42221
L54925 41902
" />
<path d="M55318 42296
L55093 42296
" />
<path d="M55206 42296
L55206 41902
L55168 41958
L55131 41996
L55093 42014
" />
</g> 
</svg>
