<?xml version="1.0" standalone="no"?>
 <!DOCTYPE svg PUBLIC "-//W3C//DTD SVG 1.1//EN" 
 "http://www.w3.org/Graphics/SVG/1.1/DTD/svg11.dtd"> 
<svg xmlns="http://www.w3.org/2000/svg" version="1.1" 
    width="29.7002cm" height="21.0007cm" viewBox="0 0 116930 82680 ">
<title>SVG Picture created as Minuteur-Edge.Cuts.svg date 2017/09/19 19:39:27 </title>
  <desc>Picture generated by PCBNEW </desc>
<g style="fill:#000000; fill-opacity:1;stroke:#000000; stroke-opacity:1;
stroke-linecap:round; stroke-linejoin:round; "
 transform="translate(0 0) scale(1 1)">
</g>
<g style="fill:#000000; fill-opacity:0.0; 
stroke:#000000; stroke-width:-0.000393701; stroke-opacity:1; 
stroke-linecap:round; stroke-linejoin:round;">
</g>
<g style="fill:#000000; fill-opacity:0.0; 
stroke:#000000; stroke-width:314.961; stroke-opacity:1; 
stroke-linecap:round; stroke-linejoin:round;">
<path d="M75000 43500
L77000 43500
" />
<path d="M74500 43000
L75000 43500
" />
<path d="M74500 42000
L74500 43000
" />
<path d="M75000 41500
L74500 42000
" />
<path d="M77000 41500
L75000 41500
" />
</g>
<g style="fill:#000000; fill-opacity:0.0; 
stroke:#000000; stroke-width:78.7402; stroke-opacity:1; 
stroke-linecap:round; stroke-linejoin:round;">
<path d="M29500 30000
L84500 30000
" />
<path d="M27500 47500
L27500 32000
" />
<path d="M84500 49500
L29500 49500
" />
<path d="M86500 47500
L86500 32000
" />
<path d="M27500 47500 A2000 2000 0.0 0 0 29500 49500 " />
<path d="M29500 30000 A2000 2000 0.0 0 0 27500 32000 " />
<path d="M86500 32000 A2000 2000 0.0 0 0 84500 30000 " />
<path d="M84500 49500 A2000 2000 0.0 0 0 86500 47500 " />
</g> 
</svg>
