M48
;DRILL file {KiCad 4.0.6} date Friday 09 June 2017 22:32:40
;FORMAT={-:-/ absolute / metric / decimal}
FMAT,2
METRIC,TZ
T1C0.400
T2C0.500
T3C0.550
T4C0.700
T5C0.900
T6C0.914
T7C1.000
T8C1.016
T9C1.100
T10C1.300
T11C1.520
T12C2.200
T13C3.200
%
G90
G05
M71
T1
X8.509Y33.655
X24.13Y17.78
X24.13Y16.51
X24.13Y15.24
X25.4Y17.78
X25.4Y16.51
X25.4Y15.24
X26.67Y17.78
X26.67Y16.51
X26.67Y15.24
X35.56Y24.13
X36.83Y8.89
X36.83Y8.89
X43.18Y8.89
X47.879Y11.557
X49.466Y11.874
X49.53Y31.115
X51.015Y26.67
X54.61Y39.37
X55.871Y32.855
X56.578Y32.385
X57.658Y35.496
X57.785Y6.35
X57.867Y20.949
X58.88Y40.475
X59.69Y35.56
X60.325Y31.115
X60.325Y3.81
X60.96Y38.735
X62.23Y27.94
X62.865Y41.275
X62.899Y14.501
X63.5Y30.48
X63.5Y17.78
X66.04Y16.51
X67.754Y14.986
X67.945Y10.16
X68.072Y6.604
X68.199Y19.113
X68.644Y14.986
X69.558Y10.16
X69.85Y13.97
X69.85Y5.08
X70.04Y18.86
X70.408Y10.16
X72.453Y37.338
X73.406Y38.227
X73.66Y33.655
X73.914Y42.355
X74.283Y37.364
X74.93Y6.858
X76.454Y12.7
X77.283Y18.031
X77.47Y21.971
X77.724Y12.7
X78.994Y12.7
X80.312Y9.
X80.391Y11.62
X81.615Y13.637
X81.915Y33.02
X83.133Y7.493
X84.582Y4.572
X85.09Y21.59
X86.36Y34.29
X88.265Y45.085
X88.9Y41.275
X91.44Y17.78
X95.25Y24.13
X96.393Y22.098
X99.695Y20.955
X103.505Y14.605
X111.125Y21.59
X117.475Y21.59
X118.11Y25.4
X121.793Y29.083
X127.577Y30.538
X129.54Y40.64
X133.35Y41.91
T4
X13.97Y41.91
X16.51Y41.91
X19.05Y41.91
X21.59Y41.91
X118.11Y41.91
X120.65Y41.91
X123.19Y41.91
X125.73Y41.91
T5
X13.97Y36.83
X13.97Y31.75
X21.59Y36.83
X21.59Y31.75
X118.11Y36.83
X118.11Y31.75
X125.73Y36.83
X125.73Y31.75
T6
X45.72Y29.21
T7
X31.75Y5.08
X34.29Y5.08
X36.83Y5.08
X39.37Y5.08
X41.91Y5.08
X44.45Y5.08
X45.72Y44.45
X48.26Y44.45
X48.26Y29.21
X50.8Y44.45
X50.8Y29.21
X53.34Y44.45
X53.34Y29.21
X55.88Y44.45
X55.88Y29.21
X58.42Y44.45
X58.42Y29.21
X77.47Y5.08
X80.01Y5.08
X94.02Y44.33
X94.02Y29.83
X96.52Y44.33
X99.02Y44.33
X99.02Y29.83
X123.87Y23.73
X123.87Y11.73
X137.795Y44.45
X137.795Y41.91
X137.795Y39.37
X137.795Y36.83
X137.795Y34.29
X137.795Y31.75
X137.795Y29.21
T8
X87.63Y15.24
X87.63Y12.7
X87.63Y10.16
X90.17Y15.24
X90.17Y12.7
X90.17Y10.16
T9
X13.97Y29.21
X21.59Y44.45
X118.11Y29.21
X125.73Y44.45
T10
X121.92Y17.78
X136.07Y11.73
X136.12Y23.78
T11
X5.08Y19.05
X5.08Y13.97
X144.78Y22.86
X144.78Y17.78
X144.78Y12.7
T12
X90.82Y36.83
X102.22Y36.83
T13
X5.08Y44.45
X5.08Y5.08
X144.78Y44.45
X144.78Y5.08
T2
X2.135Y36.52G85X2.785Y36.52
G05
X2.135Y29.52G85X2.785Y29.52
G05
T3
X5.16Y35.67G85X5.16Y35.37
G05
X5.16Y30.67G85X5.16Y30.37
G05
T0
M30
