G04 #@! TF.FileFunction,Other,Fab,Top*
%FSLAX46Y46*%
G04 Gerber Fmt 4.6, Leading zero omitted, Abs format (unit mm)*
G04 Created by KiCad (PCBNEW 4.0.7-e2-6376~58~ubuntu16.04.1) date Fri Oct 20 12:03:34 2017*
%MOMM*%
%LPD*%
G01*
G04 APERTURE LIST*
%ADD10C,0.100000*%
%ADD11C,0.150000*%
%ADD12C,0.075000*%
%ADD13C,0.120000*%
G04 APERTURE END LIST*
D10*
X60340000Y37830000D02*
X61580000Y37830000D01*
X60340000Y35830000D02*
X60340000Y37830000D01*
X61580000Y35830000D02*
X60340000Y35830000D01*
X61580000Y37830000D02*
X61580000Y35830000D01*
X84350000Y5080000D02*
X84350000Y20320000D01*
X84900000Y5620000D02*
X84900000Y19760000D01*
X93450000Y5080000D02*
X93450000Y20320000D01*
X92900000Y5620000D02*
X92900000Y10450000D01*
X92900000Y14950000D02*
X92900000Y19760000D01*
X92900000Y10450000D02*
X93450000Y10450000D01*
X92900000Y14950000D02*
X93450000Y14950000D01*
X84350000Y5080000D02*
X93450000Y5080000D01*
X84900000Y5620000D02*
X92900000Y5620000D01*
X84350000Y20320000D02*
X93450000Y20320000D01*
X84900000Y19760000D02*
X92900000Y19760000D01*
X84350000Y5080000D02*
X84900000Y5620000D01*
X84350000Y20320000D02*
X84900000Y19760000D01*
X93450000Y5080000D02*
X92900000Y5620000D01*
X93450000Y20320000D02*
X92900000Y19760000D01*
X147330000Y10230000D02*
X147330000Y25330000D01*
X141030000Y10230000D02*
X141030000Y25330000D01*
X141030000Y25330000D02*
X148530000Y25330000D01*
X148530000Y25330000D02*
X148530000Y10230000D01*
X148530000Y10230000D02*
X141030000Y10230000D01*
X2530000Y21460000D02*
X2530000Y11560000D01*
X8830000Y21510000D02*
X1330000Y21510000D01*
X1330000Y21510000D02*
X1330000Y11510000D01*
X1330000Y11510000D02*
X8830000Y11510000D01*
X8830000Y11510000D02*
X8830000Y21510000D01*
X113600000Y14920000D02*
X113600000Y12470000D01*
X114150000Y15490000D02*
X115000000Y15490000D01*
X113600000Y14920000D02*
X114150000Y15490000D01*
X115000000Y15490000D02*
X115000000Y12450000D01*
X113600000Y12450000D02*
X115000000Y12450000D01*
X97140000Y14240000D02*
X95900000Y14240000D01*
X97140000Y16240000D02*
X97140000Y14240000D01*
X95900000Y16240000D02*
X97140000Y16240000D01*
X95900000Y14240000D02*
X95900000Y16240000D01*
X64120000Y35830000D02*
X62880000Y35830000D01*
X64120000Y37830000D02*
X64120000Y35830000D01*
X62880000Y37830000D02*
X64120000Y37830000D01*
X62880000Y35830000D02*
X62880000Y37830000D01*
X85775000Y42530000D02*
X85775000Y41290000D01*
X83775000Y42530000D02*
X85775000Y42530000D01*
X83775000Y41290000D02*
X83775000Y42530000D01*
X85775000Y41290000D02*
X83775000Y41290000D01*
X85770000Y37450000D02*
X85770000Y36210000D01*
X83770000Y37450000D02*
X85770000Y37450000D01*
X83770000Y36210000D02*
X83770000Y37450000D01*
X85770000Y36210000D02*
X83770000Y36210000D01*
X18780000Y27290000D02*
X18780000Y26050000D01*
X16780000Y27290000D02*
X18780000Y27290000D01*
X16780000Y26050000D02*
X16780000Y27290000D01*
X18780000Y26050000D02*
X16780000Y26050000D01*
X102220000Y14240000D02*
X100980000Y14240000D01*
X102220000Y16240000D02*
X102220000Y14240000D01*
X100980000Y16240000D02*
X102220000Y16240000D01*
X100980000Y14240000D02*
X100980000Y16240000D01*
X105680000Y22240000D02*
X105680000Y23480000D01*
X107680000Y22240000D02*
X105680000Y22240000D01*
X107680000Y23480000D02*
X107680000Y22240000D01*
X105680000Y23480000D02*
X107680000Y23480000D01*
X113300000Y18430000D02*
X113300000Y19670000D01*
X115300000Y18430000D02*
X113300000Y18430000D01*
X115300000Y19670000D02*
X115300000Y18430000D01*
X113300000Y19670000D02*
X115300000Y19670000D01*
D11*
X73870000Y29130000D02*
X67370000Y29130000D01*
X67370000Y29130000D02*
X67370000Y44530000D01*
X67370000Y44530000D02*
X74870000Y44530000D01*
X74870000Y44530000D02*
X74870000Y30130000D01*
X74870000Y30130000D02*
X73870000Y29130000D01*
D10*
X101200000Y18650000D02*
X102000000Y18650000D01*
X101600000Y18650000D02*
X101200000Y19250000D01*
X102000000Y19250000D02*
X101600000Y18650000D01*
X101200000Y19250000D02*
X102000000Y19250000D01*
X102200000Y20050000D02*
X102200000Y18050000D01*
X101000000Y20050000D02*
X102200000Y20050000D01*
X101000000Y18050000D02*
X101000000Y20050000D01*
X102200000Y18050000D02*
X101000000Y18050000D01*
X46120000Y14370000D02*
X45320000Y14370000D01*
X45720000Y14370000D02*
X46120000Y13770000D01*
X45320000Y13770000D02*
X45720000Y14370000D01*
X46120000Y13770000D02*
X45320000Y13770000D01*
X45120000Y12970000D02*
X45120000Y14970000D01*
X46320000Y12970000D02*
X45120000Y12970000D01*
X46320000Y14970000D02*
X46320000Y12970000D01*
X45120000Y14970000D02*
X46320000Y14970000D01*
X46340000Y18050000D02*
X45100000Y18050000D01*
X46340000Y20050000D02*
X46340000Y18050000D01*
X45100000Y20050000D02*
X46340000Y20050000D01*
X45100000Y18050000D02*
X45100000Y20050000D01*
X109220000Y18685000D02*
X109220000Y13335000D01*
X109220000Y13335000D02*
X104140000Y13335000D01*
X104140000Y13335000D02*
X104140000Y19685000D01*
X104140000Y19685000D02*
X108220000Y19685000D01*
X108220000Y19685000D02*
X109220000Y18685000D01*
X23550000Y18860000D02*
X24550000Y19860000D01*
X23550000Y18860000D02*
X23550000Y13160000D01*
X24550000Y19860000D02*
X27250000Y19860000D01*
X23550000Y13160000D02*
X27250000Y13160000D01*
X27250000Y19860000D02*
X27250000Y13160000D01*
X76200000Y3810000D02*
X81280000Y3810000D01*
X81280000Y3810000D02*
X81280000Y6350000D01*
X81280000Y6350000D02*
X76200000Y6350000D01*
X76200000Y6350000D02*
X76200000Y3810000D01*
X73010000Y3955500D02*
X71770000Y3955500D01*
X73010000Y5955500D02*
X73010000Y3955500D01*
X71770000Y5955500D02*
X73010000Y5955500D01*
X71770000Y3955500D02*
X71770000Y5955500D01*
X120920000Y26050000D02*
X120920000Y27290000D01*
X122920000Y26050000D02*
X120920000Y26050000D01*
X122920000Y27290000D02*
X122920000Y26050000D01*
X120920000Y27290000D02*
X122920000Y27290000D01*
X45720000Y6350000D02*
X30480000Y6350000D01*
X30480000Y6350000D02*
X30480000Y3810000D01*
X30480000Y3810000D02*
X45720000Y3810000D01*
X45720000Y3810000D02*
X45720000Y6350000D01*
X18299412Y16510000D02*
G75*
G03X18299412Y16510000I-3059412J0D01*
G01*
X18390000Y19660000D02*
X12090000Y19660000D01*
X18390000Y14030000D02*
X18390000Y19660000D01*
X17720000Y13360000D02*
X18390000Y14030000D01*
X12760000Y13360000D02*
X17720000Y13360000D01*
X12090000Y14030000D02*
X12760000Y13360000D01*
X12090000Y19660000D02*
X12090000Y14030000D01*
X38619412Y16510000D02*
G75*
G03X38619412Y16510000I-3059412J0D01*
G01*
X38710000Y19660000D02*
X32410000Y19660000D01*
X38710000Y14030000D02*
X38710000Y19660000D01*
X38040000Y13360000D02*
X38710000Y14030000D01*
X33080000Y13360000D02*
X38040000Y13360000D01*
X32410000Y14030000D02*
X33080000Y13360000D01*
X32410000Y19660000D02*
X32410000Y14030000D01*
X96520000Y18800000D02*
X96520000Y18300000D01*
X96120000Y18800000D02*
X96520000Y19400000D01*
X96920000Y18800000D02*
X96120000Y18800000D01*
X96520000Y19400000D02*
X96920000Y18800000D01*
X96520000Y19400000D02*
X95970000Y19400000D01*
X96520000Y19400000D02*
X97070000Y19400000D01*
X96520000Y19800000D02*
X96520000Y19400000D01*
X95620000Y20450000D02*
X97420000Y20450000D01*
X95620000Y17650000D02*
X95620000Y20450000D01*
X97420000Y17650000D02*
X95620000Y17650000D01*
X97420000Y20450000D02*
X97420000Y17650000D01*
X114050000Y24130000D02*
X113550000Y24130000D01*
X114050000Y24530000D02*
X114650000Y24130000D01*
X114050000Y23730000D02*
X114050000Y24530000D01*
X114650000Y24130000D02*
X114050000Y23730000D01*
X114650000Y24130000D02*
X114650000Y24680000D01*
X114650000Y24130000D02*
X114650000Y23580000D01*
X115050000Y24130000D02*
X114650000Y24130000D01*
X115700000Y25030000D02*
X115700000Y23230000D01*
X112900000Y25030000D02*
X115700000Y25030000D01*
X112900000Y23230000D02*
X112900000Y25030000D01*
X115700000Y23230000D02*
X112900000Y23230000D01*
X83775000Y31130000D02*
X83775000Y32370000D01*
X85775000Y31130000D02*
X83775000Y31130000D01*
X85775000Y32370000D02*
X85775000Y31130000D01*
X83775000Y32370000D02*
X85775000Y32370000D01*
X136525000Y45720000D02*
X136525000Y27940000D01*
X136525000Y27940000D02*
X139065000Y27940000D01*
X139065000Y27940000D02*
X139065000Y45720000D01*
X139065000Y45720000D02*
X136525000Y45720000D01*
X41895000Y15510000D02*
X40655000Y15510000D01*
X41895000Y17510000D02*
X41895000Y15510000D01*
X40655000Y17510000D02*
X41895000Y17510000D01*
X40655000Y15510000D02*
X40655000Y17510000D01*
X59959000Y15113000D02*
X61199000Y15113000D01*
X59959000Y13113000D02*
X59959000Y15113000D01*
X61199000Y13113000D02*
X59959000Y13113000D01*
X61199000Y15113000D02*
X61199000Y13113000D01*
D11*
X67350000Y16200000D02*
X73350000Y16200000D01*
X73350000Y16200000D02*
X73350000Y9200000D01*
X73350000Y9200000D02*
X66350000Y9200000D01*
X66350000Y9200000D02*
X66350000Y15200000D01*
X66350000Y15200000D02*
X67350000Y16200000D01*
D10*
X107950000Y5715000D02*
X107950000Y3810000D01*
X107950000Y3810000D02*
X97790000Y3810000D01*
X97790000Y3810000D02*
X97790000Y6350000D01*
X97790000Y6350000D02*
X107315000Y6350000D01*
X107315000Y6350000D02*
X107950000Y5715000D01*
D11*
X49355715Y25472857D02*
X49308096Y25425238D01*
X49165239Y25377619D01*
X49070001Y25377619D01*
X48927143Y25425238D01*
X48831905Y25520476D01*
X48784286Y25615714D01*
X48736667Y25806190D01*
X48736667Y25949048D01*
X48784286Y26139524D01*
X48831905Y26234762D01*
X48927143Y26330000D01*
X49070001Y26377619D01*
X49165239Y26377619D01*
X49308096Y26330000D01*
X49355715Y26282381D01*
X50355715Y25472857D02*
X50308096Y25425238D01*
X50165239Y25377619D01*
X50070001Y25377619D01*
X49927143Y25425238D01*
X49831905Y25520476D01*
X49784286Y25615714D01*
X49736667Y25806190D01*
X49736667Y25949048D01*
X49784286Y26139524D01*
X49831905Y26234762D01*
X49927143Y26330000D01*
X50070001Y26377619D01*
X50165239Y26377619D01*
X50308096Y26330000D01*
X50355715Y26282381D01*
X51260477Y26377619D02*
X50784286Y26377619D01*
X50736667Y25901429D01*
X50784286Y25949048D01*
X50879524Y25996667D01*
X51117620Y25996667D01*
X51212858Y25949048D01*
X51260477Y25901429D01*
X51308096Y25806190D01*
X51308096Y25568095D01*
X51260477Y25472857D01*
X51212858Y25425238D01*
X51117620Y25377619D01*
X50879524Y25377619D01*
X50784286Y25425238D01*
X50736667Y25472857D01*
X52165239Y26377619D02*
X51974762Y26377619D01*
X51879524Y26330000D01*
X51831905Y26282381D01*
X51736667Y26139524D01*
X51689048Y25949048D01*
X51689048Y25568095D01*
X51736667Y25472857D01*
X51784286Y25425238D01*
X51879524Y25377619D01*
X52070001Y25377619D01*
X52165239Y25425238D01*
X52212858Y25472857D01*
X52260477Y25568095D01*
X52260477Y25806190D01*
X52212858Y25901429D01*
X52165239Y25949048D01*
X52070001Y25996667D01*
X51879524Y25996667D01*
X51784286Y25949048D01*
X51736667Y25901429D01*
X51689048Y25806190D01*
X52689048Y25758571D02*
X53450953Y25758571D01*
X54450953Y25377619D02*
X53879524Y25377619D01*
X54165238Y25377619D02*
X54165238Y26377619D01*
X54070000Y26234762D01*
X53974762Y26139524D01*
X53879524Y26091905D01*
X54831905Y26282381D02*
X54879524Y26330000D01*
X54974762Y26377619D01*
X55212858Y26377619D01*
X55308096Y26330000D01*
X55355715Y26282381D01*
X55403334Y26187143D01*
X55403334Y26091905D01*
X55355715Y25949048D01*
X54784286Y25377619D01*
X55403334Y25377619D01*
X61412381Y39393953D02*
X61412381Y38822524D01*
X61412381Y39108238D02*
X60412381Y39108238D01*
X60555238Y39013000D01*
X60650476Y38917762D01*
X60698095Y38822524D01*
X60412381Y40013000D02*
X60412381Y40108239D01*
X60460000Y40203477D01*
X60507619Y40251096D01*
X60602857Y40298715D01*
X60793333Y40346334D01*
X61031429Y40346334D01*
X61221905Y40298715D01*
X61317143Y40251096D01*
X61364762Y40203477D01*
X61412381Y40108239D01*
X61412381Y40013000D01*
X61364762Y39917762D01*
X61317143Y39870143D01*
X61221905Y39822524D01*
X61031429Y39774905D01*
X60793333Y39774905D01*
X60602857Y39822524D01*
X60507619Y39870143D01*
X60460000Y39917762D01*
X60412381Y40013000D01*
X60412381Y40965381D02*
X60412381Y41060620D01*
X60460000Y41155858D01*
X60507619Y41203477D01*
X60602857Y41251096D01*
X60793333Y41298715D01*
X61031429Y41298715D01*
X61221905Y41251096D01*
X61317143Y41203477D01*
X61364762Y41155858D01*
X61412381Y41060620D01*
X61412381Y40965381D01*
X61364762Y40870143D01*
X61317143Y40822524D01*
X61221905Y40774905D01*
X61031429Y40727286D01*
X60793333Y40727286D01*
X60602857Y40774905D01*
X60507619Y40822524D01*
X60460000Y40870143D01*
X60412381Y40965381D01*
X60745714Y41727286D02*
X61412381Y41727286D01*
X60840952Y41727286D02*
X60793333Y41774905D01*
X60745714Y41870143D01*
X60745714Y42013001D01*
X60793333Y42108239D01*
X60888571Y42155858D01*
X61412381Y42155858D01*
X59920143Y36663334D02*
X59967762Y36615715D01*
X60015381Y36472858D01*
X60015381Y36377620D01*
X59967762Y36234762D01*
X59872524Y36139524D01*
X59777286Y36091905D01*
X59586810Y36044286D01*
X59443952Y36044286D01*
X59253476Y36091905D01*
X59158238Y36139524D01*
X59063000Y36234762D01*
X59015381Y36377620D01*
X59015381Y36472858D01*
X59063000Y36615715D01*
X59110619Y36663334D01*
X59015381Y37568096D02*
X59015381Y37091905D01*
X59491571Y37044286D01*
X59443952Y37091905D01*
X59396333Y37187143D01*
X59396333Y37425239D01*
X59443952Y37520477D01*
X59491571Y37568096D01*
X59586810Y37615715D01*
X59824905Y37615715D01*
X59920143Y37568096D01*
X59967762Y37520477D01*
X60015381Y37425239D01*
X60015381Y37187143D01*
X59967762Y37091905D01*
X59920143Y37044286D01*
X150264762Y10018094D02*
X150312381Y10160951D01*
X150312381Y10399047D01*
X150264762Y10494285D01*
X150217143Y10541904D01*
X150121905Y10589523D01*
X150026667Y10589523D01*
X149931429Y10541904D01*
X149883810Y10494285D01*
X149836190Y10399047D01*
X149788571Y10208570D01*
X149740952Y10113332D01*
X149693333Y10065713D01*
X149598095Y10018094D01*
X149502857Y10018094D01*
X149407619Y10065713D01*
X149360000Y10113332D01*
X149312381Y10208570D01*
X149312381Y10446666D01*
X149360000Y10589523D01*
X150264762Y11446666D02*
X150312381Y11351428D01*
X150312381Y11160951D01*
X150264762Y11065713D01*
X150217143Y11018094D01*
X150121905Y10970475D01*
X149836190Y10970475D01*
X149740952Y11018094D01*
X149693333Y11065713D01*
X149645714Y11160951D01*
X149645714Y11351428D01*
X149693333Y11446666D01*
X150312381Y11875237D02*
X149645714Y11875237D01*
X149836190Y11875237D02*
X149740952Y11922856D01*
X149693333Y11970475D01*
X149645714Y12065713D01*
X149645714Y12160952D01*
X150264762Y12875238D02*
X150312381Y12780000D01*
X150312381Y12589523D01*
X150264762Y12494285D01*
X150169524Y12446666D01*
X149788571Y12446666D01*
X149693333Y12494285D01*
X149645714Y12589523D01*
X149645714Y12780000D01*
X149693333Y12875238D01*
X149788571Y12922857D01*
X149883810Y12922857D01*
X149979048Y12446666D01*
X149645714Y13256190D02*
X150312381Y13446666D01*
X149836190Y13637143D01*
X150312381Y13827619D01*
X149645714Y14018095D01*
X150407619Y14160952D02*
X150407619Y14922857D01*
X149312381Y15018095D02*
X149312381Y15589524D01*
X150312381Y15303809D02*
X149312381Y15303809D01*
X150264762Y16303810D02*
X150312381Y16208572D01*
X150312381Y16018095D01*
X150264762Y15922857D01*
X150169524Y15875238D01*
X149788571Y15875238D01*
X149693333Y15922857D01*
X149645714Y16018095D01*
X149645714Y16208572D01*
X149693333Y16303810D01*
X149788571Y16351429D01*
X149883810Y16351429D01*
X149979048Y15875238D01*
X150312381Y16780000D02*
X149645714Y16780000D01*
X149836190Y16780000D02*
X149740952Y16827619D01*
X149693333Y16875238D01*
X149645714Y16970476D01*
X149645714Y17065715D01*
X150312381Y17399048D02*
X149645714Y17399048D01*
X149740952Y17399048D02*
X149693333Y17446667D01*
X149645714Y17541905D01*
X149645714Y17684763D01*
X149693333Y17780001D01*
X149788571Y17827620D01*
X150312381Y17827620D01*
X149788571Y17827620D02*
X149693333Y17875239D01*
X149645714Y17970477D01*
X149645714Y18113334D01*
X149693333Y18208572D01*
X149788571Y18256191D01*
X150312381Y18256191D01*
X150312381Y18732381D02*
X149645714Y18732381D01*
X149312381Y18732381D02*
X149360000Y18684762D01*
X149407619Y18732381D01*
X149360000Y18780000D01*
X149312381Y18732381D01*
X149407619Y18732381D01*
X149645714Y19208571D02*
X150312381Y19208571D01*
X149740952Y19208571D02*
X149693333Y19256190D01*
X149645714Y19351428D01*
X149645714Y19494286D01*
X149693333Y19589524D01*
X149788571Y19637143D01*
X150312381Y19637143D01*
X150312381Y20541905D02*
X149788571Y20541905D01*
X149693333Y20494286D01*
X149645714Y20399048D01*
X149645714Y20208571D01*
X149693333Y20113333D01*
X150264762Y20541905D02*
X150312381Y20446667D01*
X150312381Y20208571D01*
X150264762Y20113333D01*
X150169524Y20065714D01*
X150074286Y20065714D01*
X149979048Y20113333D01*
X149931429Y20208571D01*
X149931429Y20446667D01*
X149883810Y20541905D01*
X150312381Y21160952D02*
X150264762Y21065714D01*
X150169524Y21018095D01*
X149312381Y21018095D01*
X150407619Y21303810D02*
X150407619Y22065715D01*
X150312381Y22827620D02*
X150312381Y22256191D01*
X150312381Y22541905D02*
X149312381Y22541905D01*
X149455238Y22446667D01*
X149550476Y22351429D01*
X149598095Y22256191D01*
X150312381Y23160953D02*
X149645714Y23684763D01*
X149645714Y23160953D02*
X150312381Y23684763D01*
X149312381Y24256191D02*
X149312381Y24351430D01*
X149360000Y24446668D01*
X149407619Y24494287D01*
X149502857Y24541906D01*
X149693333Y24589525D01*
X149931429Y24589525D01*
X150121905Y24541906D01*
X150217143Y24494287D01*
X150264762Y24446668D01*
X150312381Y24351430D01*
X150312381Y24256191D01*
X150264762Y24160953D01*
X150217143Y24113334D01*
X150121905Y24065715D01*
X149931429Y24018096D01*
X149693333Y24018096D01*
X149502857Y24065715D01*
X149407619Y24113334D01*
X149360000Y24160953D01*
X149312381Y24256191D01*
X149312381Y24922858D02*
X149312381Y25541906D01*
X149693333Y25208572D01*
X149693333Y25351430D01*
X149740952Y25446668D01*
X149788571Y25494287D01*
X149883810Y25541906D01*
X150121905Y25541906D01*
X150217143Y25494287D01*
X150264762Y25446668D01*
X150312381Y25351430D01*
X150312381Y25065715D01*
X150264762Y24970477D01*
X150217143Y24922858D01*
X404762Y8748094D02*
X452381Y8890951D01*
X452381Y9129047D01*
X404762Y9224285D01*
X357143Y9271904D01*
X261905Y9319523D01*
X166667Y9319523D01*
X71429Y9271904D01*
X23810Y9224285D01*
X-23810Y9129047D01*
X-71429Y8938570D01*
X-119048Y8843332D01*
X-166667Y8795713D01*
X-261905Y8748094D01*
X-357143Y8748094D01*
X-452381Y8795713D01*
X-500000Y8843332D01*
X-547619Y8938570D01*
X-547619Y9176666D01*
X-500000Y9319523D01*
X404762Y10176666D02*
X452381Y10081428D01*
X452381Y9890951D01*
X404762Y9795713D01*
X357143Y9748094D01*
X261905Y9700475D01*
X-23810Y9700475D01*
X-119048Y9748094D01*
X-166667Y9795713D01*
X-214286Y9890951D01*
X-214286Y10081428D01*
X-166667Y10176666D01*
X452381Y10605237D02*
X-214286Y10605237D01*
X-23810Y10605237D02*
X-119048Y10652856D01*
X-166667Y10700475D01*
X-214286Y10795713D01*
X-214286Y10890952D01*
X404762Y11605238D02*
X452381Y11510000D01*
X452381Y11319523D01*
X404762Y11224285D01*
X309524Y11176666D01*
X-71429Y11176666D01*
X-166667Y11224285D01*
X-214286Y11319523D01*
X-214286Y11510000D01*
X-166667Y11605238D01*
X-71429Y11652857D01*
X23810Y11652857D01*
X119048Y11176666D01*
X-214286Y11986190D02*
X452381Y12176666D01*
X-23810Y12367143D01*
X452381Y12557619D01*
X-214286Y12748095D01*
X547619Y12890952D02*
X547619Y13652857D01*
X-547619Y13748095D02*
X-547619Y14319524D01*
X452381Y14033809D02*
X-547619Y14033809D01*
X404762Y15033810D02*
X452381Y14938572D01*
X452381Y14748095D01*
X404762Y14652857D01*
X309524Y14605238D01*
X-71429Y14605238D01*
X-166667Y14652857D01*
X-214286Y14748095D01*
X-214286Y14938572D01*
X-166667Y15033810D01*
X-71429Y15081429D01*
X23810Y15081429D01*
X119048Y14605238D01*
X452381Y15510000D02*
X-214286Y15510000D01*
X-23810Y15510000D02*
X-119048Y15557619D01*
X-166667Y15605238D01*
X-214286Y15700476D01*
X-214286Y15795715D01*
X452381Y16129048D02*
X-214286Y16129048D01*
X-119048Y16129048D02*
X-166667Y16176667D01*
X-214286Y16271905D01*
X-214286Y16414763D01*
X-166667Y16510001D01*
X-71429Y16557620D01*
X452381Y16557620D01*
X-71429Y16557620D02*
X-166667Y16605239D01*
X-214286Y16700477D01*
X-214286Y16843334D01*
X-166667Y16938572D01*
X-71429Y16986191D01*
X452381Y16986191D01*
X452381Y17462381D02*
X-214286Y17462381D01*
X-547619Y17462381D02*
X-500000Y17414762D01*
X-452381Y17462381D01*
X-500000Y17510000D01*
X-547619Y17462381D01*
X-452381Y17462381D01*
X-214286Y17938571D02*
X452381Y17938571D01*
X-119048Y17938571D02*
X-166667Y17986190D01*
X-214286Y18081428D01*
X-214286Y18224286D01*
X-166667Y18319524D01*
X-71429Y18367143D01*
X452381Y18367143D01*
X452381Y19271905D02*
X-71429Y19271905D01*
X-166667Y19224286D01*
X-214286Y19129048D01*
X-214286Y18938571D01*
X-166667Y18843333D01*
X404762Y19271905D02*
X452381Y19176667D01*
X452381Y18938571D01*
X404762Y18843333D01*
X309524Y18795714D01*
X214286Y18795714D01*
X119048Y18843333D01*
X71429Y18938571D01*
X71429Y19176667D01*
X23810Y19271905D01*
X452381Y19890952D02*
X404762Y19795714D01*
X309524Y19748095D01*
X-547619Y19748095D01*
X547619Y20033810D02*
X547619Y20795715D01*
X452381Y21557620D02*
X452381Y20986191D01*
X452381Y21271905D02*
X-547619Y21271905D01*
X-404762Y21176667D01*
X-309524Y21081429D01*
X-261905Y20986191D01*
X452381Y21890953D02*
X-214286Y22414763D01*
X-214286Y21890953D02*
X452381Y22414763D01*
X-547619Y22986191D02*
X-547619Y23081430D01*
X-500000Y23176668D01*
X-452381Y23224287D01*
X-357143Y23271906D01*
X-166667Y23319525D01*
X71429Y23319525D01*
X261905Y23271906D01*
X357143Y23224287D01*
X404762Y23176668D01*
X452381Y23081430D01*
X452381Y22986191D01*
X404762Y22890953D01*
X357143Y22843334D01*
X261905Y22795715D01*
X71429Y22748096D01*
X-166667Y22748096D01*
X-357143Y22795715D01*
X-452381Y22843334D01*
X-500000Y22890953D01*
X-547619Y22986191D01*
X-452381Y23700477D02*
X-500000Y23748096D01*
X-547619Y23843334D01*
X-547619Y24081430D01*
X-500000Y24176668D01*
X-452381Y24224287D01*
X-357143Y24271906D01*
X-261905Y24271906D01*
X-119048Y24224287D01*
X452381Y23652858D01*
X452381Y24271906D01*
X110871429Y11541429D02*
X111014286Y11493810D01*
X111061905Y11446190D01*
X111109524Y11350952D01*
X111109524Y11208095D01*
X111061905Y11112857D01*
X111014286Y11065238D01*
X110919048Y11017619D01*
X110538095Y11017619D01*
X110538095Y12017619D01*
X110871429Y12017619D01*
X110966667Y11970000D01*
X111014286Y11922381D01*
X111061905Y11827143D01*
X111061905Y11731905D01*
X111014286Y11636667D01*
X110966667Y11589048D01*
X110871429Y11541429D01*
X110538095Y11541429D01*
X112109524Y11112857D02*
X112061905Y11065238D01*
X111919048Y11017619D01*
X111823810Y11017619D01*
X111680952Y11065238D01*
X111585714Y11160476D01*
X111538095Y11255714D01*
X111490476Y11446190D01*
X111490476Y11589048D01*
X111538095Y11779524D01*
X111585714Y11874762D01*
X111680952Y11970000D01*
X111823810Y12017619D01*
X111919048Y12017619D01*
X112061905Y11970000D01*
X112109524Y11922381D01*
X112680952Y11589048D02*
X112585714Y11636667D01*
X112538095Y11684286D01*
X112490476Y11779524D01*
X112490476Y11827143D01*
X112538095Y11922381D01*
X112585714Y11970000D01*
X112680952Y12017619D01*
X112871429Y12017619D01*
X112966667Y11970000D01*
X113014286Y11922381D01*
X113061905Y11827143D01*
X113061905Y11779524D01*
X113014286Y11684286D01*
X112966667Y11636667D01*
X112871429Y11589048D01*
X112680952Y11589048D01*
X112585714Y11541429D01*
X112538095Y11493810D01*
X112490476Y11398571D01*
X112490476Y11208095D01*
X112538095Y11112857D01*
X112585714Y11065238D01*
X112680952Y11017619D01*
X112871429Y11017619D01*
X112966667Y11065238D01*
X113014286Y11112857D01*
X113061905Y11208095D01*
X113061905Y11398571D01*
X113014286Y11493810D01*
X112966667Y11541429D01*
X112871429Y11589048D01*
X114014286Y11017619D02*
X113442857Y11017619D01*
X113728571Y11017619D02*
X113728571Y12017619D01*
X113633333Y11874762D01*
X113538095Y11779524D01*
X113442857Y11731905D01*
X114585714Y11589048D02*
X114490476Y11636667D01*
X114442857Y11684286D01*
X114395238Y11779524D01*
X114395238Y11827143D01*
X114442857Y11922381D01*
X114490476Y11970000D01*
X114585714Y12017619D01*
X114776191Y12017619D01*
X114871429Y11970000D01*
X114919048Y11922381D01*
X114966667Y11827143D01*
X114966667Y11779524D01*
X114919048Y11684286D01*
X114871429Y11636667D01*
X114776191Y11589048D01*
X114585714Y11589048D01*
X114490476Y11541429D01*
X114442857Y11493810D01*
X114395238Y11398571D01*
X114395238Y11208095D01*
X114442857Y11112857D01*
X114490476Y11065238D01*
X114585714Y11017619D01*
X114776191Y11017619D01*
X114871429Y11065238D01*
X114919048Y11112857D01*
X114966667Y11208095D01*
X114966667Y11398571D01*
X114919048Y11493810D01*
X114871429Y11541429D01*
X114776191Y11589048D01*
X115395238Y11398571D02*
X116157143Y11398571D01*
X117061905Y11684286D02*
X117061905Y11017619D01*
X116823809Y12065238D02*
X116585714Y11350952D01*
X117204762Y11350952D01*
X117776190Y12017619D02*
X117871429Y12017619D01*
X117966667Y11970000D01*
X118014286Y11922381D01*
X118061905Y11827143D01*
X118109524Y11636667D01*
X118109524Y11398571D01*
X118061905Y11208095D01*
X118014286Y11112857D01*
X117966667Y11065238D01*
X117871429Y11017619D01*
X117776190Y11017619D01*
X117680952Y11065238D01*
X117633333Y11112857D01*
X117585714Y11208095D01*
X117538095Y11398571D01*
X117538095Y11636667D01*
X117585714Y11827143D01*
X117633333Y11922381D01*
X117680952Y11970000D01*
X117776190Y12017619D01*
D12*
X114252381Y13696190D02*
X114204762Y13720000D01*
X114157143Y13767619D01*
X114085714Y13839048D01*
X114038095Y13862857D01*
X113990476Y13862857D01*
X114014286Y13743810D02*
X113966667Y13767619D01*
X113919048Y13815238D01*
X113895238Y13910476D01*
X113895238Y14077143D01*
X113919048Y14172381D01*
X113966667Y14220000D01*
X114014286Y14243810D01*
X114109524Y14243810D01*
X114157143Y14220000D01*
X114204762Y14172381D01*
X114228571Y14077143D01*
X114228571Y13910476D01*
X114204762Y13815238D01*
X114157143Y13767619D01*
X114109524Y13743810D01*
X114014286Y13743810D01*
X114704762Y13743810D02*
X114419048Y13743810D01*
X114561905Y13743810D02*
X114561905Y14243810D01*
X114514286Y14172381D01*
X114466667Y14124762D01*
X114419048Y14100952D01*
D11*
X96972381Y11501524D02*
X96972381Y10930095D01*
X96972381Y11215809D02*
X95972381Y11215809D01*
X96115238Y11120571D01*
X96210476Y11025333D01*
X96258095Y10930095D01*
X95972381Y12120571D02*
X95972381Y12215810D01*
X96020000Y12311048D01*
X96067619Y12358667D01*
X96162857Y12406286D01*
X96353333Y12453905D01*
X96591429Y12453905D01*
X96781905Y12406286D01*
X96877143Y12358667D01*
X96924762Y12311048D01*
X96972381Y12215810D01*
X96972381Y12120571D01*
X96924762Y12025333D01*
X96877143Y11977714D01*
X96781905Y11930095D01*
X96591429Y11882476D01*
X96353333Y11882476D01*
X96162857Y11930095D01*
X96067619Y11977714D01*
X96020000Y12025333D01*
X95972381Y12120571D01*
X96972381Y12882476D02*
X95972381Y12882476D01*
X96972381Y13453905D02*
X96400952Y13025333D01*
X95972381Y13453905D02*
X96543810Y12882476D01*
D12*
X96746190Y15156667D02*
X96508095Y14990000D01*
X96746190Y14870953D02*
X96246190Y14870953D01*
X96246190Y15061429D01*
X96270000Y15109048D01*
X96293810Y15132857D01*
X96341429Y15156667D01*
X96412857Y15156667D01*
X96460476Y15132857D01*
X96484286Y15109048D01*
X96508095Y15061429D01*
X96508095Y14870953D01*
X96293810Y15347143D02*
X96270000Y15370953D01*
X96246190Y15418572D01*
X96246190Y15537619D01*
X96270000Y15585238D01*
X96293810Y15609048D01*
X96341429Y15632857D01*
X96389048Y15632857D01*
X96460476Y15609048D01*
X96746190Y15323334D01*
X96746190Y15632857D01*
D11*
X62952381Y38568476D02*
X62952381Y39187524D01*
X63333333Y38854190D01*
X63333333Y38997048D01*
X63380952Y39092286D01*
X63428571Y39139905D01*
X63523810Y39187524D01*
X63761905Y39187524D01*
X63857143Y39139905D01*
X63904762Y39092286D01*
X63952381Y38997048D01*
X63952381Y38711333D01*
X63904762Y38616095D01*
X63857143Y38568476D01*
X62952381Y39806571D02*
X62952381Y39901810D01*
X63000000Y39997048D01*
X63047619Y40044667D01*
X63142857Y40092286D01*
X63333333Y40139905D01*
X63571429Y40139905D01*
X63761905Y40092286D01*
X63857143Y40044667D01*
X63904762Y39997048D01*
X63952381Y39901810D01*
X63952381Y39806571D01*
X63904762Y39711333D01*
X63857143Y39663714D01*
X63761905Y39616095D01*
X63571429Y39568476D01*
X63333333Y39568476D01*
X63142857Y39616095D01*
X63047619Y39663714D01*
X63000000Y39711333D01*
X62952381Y39806571D01*
X63952381Y40568476D02*
X62952381Y40568476D01*
X63952381Y41139905D02*
X63380952Y40711333D01*
X62952381Y41139905D02*
X63523810Y40568476D01*
D12*
X63726190Y36746667D02*
X63488095Y36580000D01*
X63726190Y36460953D02*
X63226190Y36460953D01*
X63226190Y36651429D01*
X63250000Y36699048D01*
X63273810Y36722857D01*
X63321429Y36746667D01*
X63392857Y36746667D01*
X63440476Y36722857D01*
X63464286Y36699048D01*
X63488095Y36651429D01*
X63488095Y36460953D01*
X63226190Y37175238D02*
X63226190Y37080000D01*
X63250000Y37032381D01*
X63273810Y37008572D01*
X63345238Y36960953D01*
X63440476Y36937143D01*
X63630952Y36937143D01*
X63678571Y36960953D01*
X63702381Y36984762D01*
X63726190Y37032381D01*
X63726190Y37127619D01*
X63702381Y37175238D01*
X63678571Y37199048D01*
X63630952Y37222857D01*
X63511905Y37222857D01*
X63464286Y37199048D01*
X63440476Y37175238D01*
X63416667Y37127619D01*
X63416667Y37032381D01*
X63440476Y36984762D01*
X63464286Y36960953D01*
X63511905Y36937143D01*
D11*
X80899096Y42124286D02*
X80899096Y41457619D01*
X80661000Y42505238D02*
X80422905Y41790952D01*
X81041953Y41790952D01*
X81327667Y42457619D02*
X81994334Y42457619D01*
X81565762Y41457619D01*
X82565762Y42457619D02*
X82661001Y42457619D01*
X82756239Y42410000D01*
X82803858Y42362381D01*
X82851477Y42267143D01*
X82899096Y42076667D01*
X82899096Y41838571D01*
X82851477Y41648095D01*
X82803858Y41552857D01*
X82756239Y41505238D01*
X82661001Y41457619D01*
X82565762Y41457619D01*
X82470524Y41505238D01*
X82422905Y41552857D01*
X82375286Y41648095D01*
X82327667Y41838571D01*
X82327667Y42076667D01*
X82375286Y42267143D01*
X82422905Y42362381D01*
X82470524Y42410000D01*
X82565762Y42457619D01*
D12*
X84691667Y41683810D02*
X84525000Y41921905D01*
X84405953Y41683810D02*
X84405953Y42183810D01*
X84596429Y42183810D01*
X84644048Y42160000D01*
X84667857Y42136190D01*
X84691667Y42088571D01*
X84691667Y42017143D01*
X84667857Y41969524D01*
X84644048Y41945714D01*
X84596429Y41921905D01*
X84405953Y41921905D01*
X85120238Y42017143D02*
X85120238Y41683810D01*
X85001191Y42207619D02*
X84882143Y41850476D01*
X85191667Y41850476D01*
D11*
X80899096Y37044286D02*
X80899096Y36377619D01*
X80661000Y37425238D02*
X80422905Y36710952D01*
X81041953Y36710952D01*
X81327667Y37377619D02*
X81994334Y37377619D01*
X81565762Y36377619D01*
X82565762Y37377619D02*
X82661001Y37377619D01*
X82756239Y37330000D01*
X82803858Y37282381D01*
X82851477Y37187143D01*
X82899096Y36996667D01*
X82899096Y36758571D01*
X82851477Y36568095D01*
X82803858Y36472857D01*
X82756239Y36425238D01*
X82661001Y36377619D01*
X82565762Y36377619D01*
X82470524Y36425238D01*
X82422905Y36472857D01*
X82375286Y36568095D01*
X82327667Y36758571D01*
X82327667Y36996667D01*
X82375286Y37187143D01*
X82422905Y37282381D01*
X82470524Y37330000D01*
X82565762Y37377619D01*
D12*
X84686667Y36603810D02*
X84520000Y36841905D01*
X84400953Y36603810D02*
X84400953Y37103810D01*
X84591429Y37103810D01*
X84639048Y37080000D01*
X84662857Y37056190D01*
X84686667Y37008571D01*
X84686667Y36937143D01*
X84662857Y36889524D01*
X84639048Y36865714D01*
X84591429Y36841905D01*
X84400953Y36841905D01*
X85139048Y37103810D02*
X84900953Y37103810D01*
X84877143Y36865714D01*
X84900953Y36889524D01*
X84948572Y36913333D01*
X85067619Y36913333D01*
X85115238Y36889524D01*
X85139048Y36865714D01*
X85162857Y36818095D01*
X85162857Y36699048D01*
X85139048Y36651429D01*
X85115238Y36627619D01*
X85067619Y36603810D01*
X84948572Y36603810D01*
X84900953Y36627619D01*
X84877143Y36651429D01*
D11*
X17018096Y28634286D02*
X17018096Y27967619D01*
X16780000Y29015238D02*
X16541905Y28300952D01*
X17160953Y28300952D01*
X17446667Y28967619D02*
X18113334Y28967619D01*
X17684762Y27967619D01*
X18684762Y28967619D02*
X18780001Y28967619D01*
X18875239Y28920000D01*
X18922858Y28872381D01*
X18970477Y28777143D01*
X19018096Y28586667D01*
X19018096Y28348571D01*
X18970477Y28158095D01*
X18922858Y28062857D01*
X18875239Y28015238D01*
X18780001Y27967619D01*
X18684762Y27967619D01*
X18589524Y28015238D01*
X18541905Y28062857D01*
X18494286Y28158095D01*
X18446667Y28348571D01*
X18446667Y28586667D01*
X18494286Y28777143D01*
X18541905Y28872381D01*
X18589524Y28920000D01*
X18684762Y28967619D01*
D12*
X17458572Y26443810D02*
X17291905Y26681905D01*
X17172858Y26443810D02*
X17172858Y26943810D01*
X17363334Y26943810D01*
X17410953Y26920000D01*
X17434762Y26896190D01*
X17458572Y26848571D01*
X17458572Y26777143D01*
X17434762Y26729524D01*
X17410953Y26705714D01*
X17363334Y26681905D01*
X17172858Y26681905D01*
X17934762Y26443810D02*
X17649048Y26443810D01*
X17791905Y26443810D02*
X17791905Y26943810D01*
X17744286Y26872381D01*
X17696667Y26824762D01*
X17649048Y26800952D01*
X18410952Y26443810D02*
X18125238Y26443810D01*
X18268095Y26443810D02*
X18268095Y26943810D01*
X18220476Y26872381D01*
X18172857Y26824762D01*
X18125238Y26800952D01*
D11*
X102052381Y12485715D02*
X102052381Y11914286D01*
X102052381Y12200000D02*
X101052381Y12200000D01*
X101195238Y12104762D01*
X101290476Y12009524D01*
X101338095Y11914286D01*
X102052381Y12914286D02*
X101052381Y12914286D01*
X102052381Y13485715D02*
X101480952Y13057143D01*
X101052381Y13485715D02*
X101623810Y12914286D01*
D12*
X101826190Y15156667D02*
X101588095Y14990000D01*
X101826190Y14870953D02*
X101326190Y14870953D01*
X101326190Y15061429D01*
X101350000Y15109048D01*
X101373810Y15132857D01*
X101421429Y15156667D01*
X101492857Y15156667D01*
X101540476Y15132857D01*
X101564286Y15109048D01*
X101588095Y15061429D01*
X101588095Y14870953D01*
X101540476Y15442381D02*
X101516667Y15394762D01*
X101492857Y15370953D01*
X101445238Y15347143D01*
X101421429Y15347143D01*
X101373810Y15370953D01*
X101350000Y15394762D01*
X101326190Y15442381D01*
X101326190Y15537619D01*
X101350000Y15585238D01*
X101373810Y15609048D01*
X101421429Y15632857D01*
X101445238Y15632857D01*
X101492857Y15609048D01*
X101516667Y15585238D01*
X101540476Y15537619D01*
X101540476Y15442381D01*
X101564286Y15394762D01*
X101588095Y15370953D01*
X101635714Y15347143D01*
X101730952Y15347143D01*
X101778571Y15370953D01*
X101802381Y15394762D01*
X101826190Y15442381D01*
X101826190Y15537619D01*
X101802381Y15585238D01*
X101778571Y15609048D01*
X101730952Y15632857D01*
X101635714Y15632857D01*
X101588095Y15609048D01*
X101564286Y15585238D01*
X101540476Y15537619D01*
D11*
X106465715Y20657619D02*
X105894286Y20657619D01*
X106180000Y20657619D02*
X106180000Y21657619D01*
X106084762Y21514762D01*
X105989524Y21419524D01*
X105894286Y21371905D01*
X106894286Y20657619D02*
X106894286Y21657619D01*
X107465715Y20657619D02*
X107037143Y21229048D01*
X107465715Y21657619D02*
X106894286Y21086190D01*
D12*
X106596667Y22633810D02*
X106430000Y22871905D01*
X106310953Y22633810D02*
X106310953Y23133810D01*
X106501429Y23133810D01*
X106549048Y23110000D01*
X106572857Y23086190D01*
X106596667Y23038571D01*
X106596667Y22967143D01*
X106572857Y22919524D01*
X106549048Y22895714D01*
X106501429Y22871905D01*
X106310953Y22871905D01*
X106834762Y22633810D02*
X106930000Y22633810D01*
X106977619Y22657619D01*
X107001429Y22681429D01*
X107049048Y22752857D01*
X107072857Y22848095D01*
X107072857Y23038571D01*
X107049048Y23086190D01*
X107025238Y23110000D01*
X106977619Y23133810D01*
X106882381Y23133810D01*
X106834762Y23110000D01*
X106810953Y23086190D01*
X106787143Y23038571D01*
X106787143Y22919524D01*
X106810953Y22871905D01*
X106834762Y22848095D01*
X106882381Y22824286D01*
X106977619Y22824286D01*
X107025238Y22848095D01*
X107049048Y22871905D01*
X107072857Y22919524D01*
D11*
X113585715Y17847619D02*
X113109524Y17847619D01*
X113061905Y17371429D01*
X113109524Y17419048D01*
X113204762Y17466667D01*
X113442858Y17466667D01*
X113538096Y17419048D01*
X113585715Y17371429D01*
X113633334Y17276190D01*
X113633334Y17038095D01*
X113585715Y16942857D01*
X113538096Y16895238D01*
X113442858Y16847619D01*
X113204762Y16847619D01*
X113109524Y16895238D01*
X113061905Y16942857D01*
X114585715Y16847619D02*
X114014286Y16847619D01*
X114300000Y16847619D02*
X114300000Y17847619D01*
X114204762Y17704762D01*
X114109524Y17609524D01*
X114014286Y17561905D01*
X115204762Y17847619D02*
X115300001Y17847619D01*
X115395239Y17800000D01*
X115442858Y17752381D01*
X115490477Y17657143D01*
X115538096Y17466667D01*
X115538096Y17228571D01*
X115490477Y17038095D01*
X115442858Y16942857D01*
X115395239Y16895238D01*
X115300001Y16847619D01*
X115204762Y16847619D01*
X115109524Y16895238D01*
X115061905Y16942857D01*
X115014286Y17038095D01*
X114966667Y17228571D01*
X114966667Y17466667D01*
X115014286Y17657143D01*
X115061905Y17752381D01*
X115109524Y17800000D01*
X115204762Y17847619D01*
D12*
X113978572Y18823810D02*
X113811905Y19061905D01*
X113692858Y18823810D02*
X113692858Y19323810D01*
X113883334Y19323810D01*
X113930953Y19300000D01*
X113954762Y19276190D01*
X113978572Y19228571D01*
X113978572Y19157143D01*
X113954762Y19109524D01*
X113930953Y19085714D01*
X113883334Y19061905D01*
X113692858Y19061905D01*
X114454762Y18823810D02*
X114169048Y18823810D01*
X114311905Y18823810D02*
X114311905Y19323810D01*
X114264286Y19252381D01*
X114216667Y19204762D01*
X114169048Y19180952D01*
X114764286Y19323810D02*
X114811905Y19323810D01*
X114859524Y19300000D01*
X114883333Y19276190D01*
X114907143Y19228571D01*
X114930952Y19133333D01*
X114930952Y19014286D01*
X114907143Y18919048D01*
X114883333Y18871429D01*
X114859524Y18847619D01*
X114811905Y18823810D01*
X114764286Y18823810D01*
X114716667Y18847619D01*
X114692857Y18871429D01*
X114669048Y18919048D01*
X114645238Y19014286D01*
X114645238Y19133333D01*
X114669048Y19228571D01*
X114692857Y19276190D01*
X114716667Y19300000D01*
X114764286Y19323810D01*
D11*
X9946666Y34266238D02*
X10089523Y34218619D01*
X10327619Y34218619D01*
X10422857Y34266238D01*
X10470476Y34313857D01*
X10518095Y34409095D01*
X10518095Y34504333D01*
X10470476Y34599571D01*
X10422857Y34647190D01*
X10327619Y34694810D01*
X10137142Y34742429D01*
X10041904Y34790048D01*
X9994285Y34837667D01*
X9946666Y34932905D01*
X9946666Y35028143D01*
X9994285Y35123381D01*
X10041904Y35171000D01*
X10137142Y35218619D01*
X10375238Y35218619D01*
X10518095Y35171000D01*
X10851428Y35218619D02*
X11089523Y34218619D01*
X11280000Y34932905D01*
X11470476Y34218619D01*
X11708571Y35218619D01*
X11851428Y34123381D02*
X12613333Y34123381D01*
X12851428Y34218619D02*
X12851428Y35218619D01*
X13232381Y35218619D01*
X13327619Y35171000D01*
X13375238Y35123381D01*
X13422857Y35028143D01*
X13422857Y34885286D01*
X13375238Y34790048D01*
X13327619Y34742429D01*
X13232381Y34694810D01*
X12851428Y34694810D01*
X14280000Y34885286D02*
X14280000Y34218619D01*
X13851428Y34885286D02*
X13851428Y34361476D01*
X13899047Y34266238D01*
X13994285Y34218619D01*
X14137143Y34218619D01*
X14232381Y34266238D01*
X14280000Y34313857D01*
X14708571Y34266238D02*
X14803809Y34218619D01*
X14994285Y34218619D01*
X15089524Y34266238D01*
X15137143Y34361476D01*
X15137143Y34409095D01*
X15089524Y34504333D01*
X14994285Y34551952D01*
X14851428Y34551952D01*
X14756190Y34599571D01*
X14708571Y34694810D01*
X14708571Y34742429D01*
X14756190Y34837667D01*
X14851428Y34885286D01*
X14994285Y34885286D01*
X15089524Y34837667D01*
X15565714Y34218619D02*
X15565714Y35218619D01*
X15994286Y34218619D02*
X15994286Y34742429D01*
X15946667Y34837667D01*
X15851429Y34885286D01*
X15708571Y34885286D01*
X15613333Y34837667D01*
X15565714Y34790048D01*
X16232381Y34123381D02*
X16994286Y34123381D01*
X17184762Y34266238D02*
X17327619Y34218619D01*
X17565715Y34218619D01*
X17660953Y34266238D01*
X17708572Y34313857D01*
X17756191Y34409095D01*
X17756191Y34504333D01*
X17708572Y34599571D01*
X17660953Y34647190D01*
X17565715Y34694810D01*
X17375238Y34742429D01*
X17280000Y34790048D01*
X17232381Y34837667D01*
X17184762Y34932905D01*
X17184762Y35028143D01*
X17232381Y35123381D01*
X17280000Y35171000D01*
X17375238Y35218619D01*
X17613334Y35218619D01*
X17756191Y35171000D01*
X18184762Y34218619D02*
X18184762Y35218619D01*
X18565715Y35218619D01*
X18660953Y35171000D01*
X18708572Y35123381D01*
X18756191Y35028143D01*
X18756191Y34885286D01*
X18708572Y34790048D01*
X18660953Y34742429D01*
X18565715Y34694810D01*
X18184762Y34694810D01*
X19184762Y34218619D02*
X19184762Y35218619D01*
X19422857Y35218619D01*
X19565715Y35171000D01*
X19660953Y35075762D01*
X19708572Y34980524D01*
X19756191Y34790048D01*
X19756191Y34647190D01*
X19708572Y34456714D01*
X19660953Y34361476D01*
X19565715Y34266238D01*
X19422857Y34218619D01*
X19184762Y34218619D01*
X20041905Y35218619D02*
X20613334Y35218619D01*
X20327619Y34218619D02*
X20327619Y35218619D01*
X20708572Y34123381D02*
X21470477Y34123381D01*
X21660953Y35123381D02*
X21708572Y35171000D01*
X21803810Y35218619D01*
X22041906Y35218619D01*
X22137144Y35171000D01*
X22184763Y35123381D01*
X22232382Y35028143D01*
X22232382Y34932905D01*
X22184763Y34790048D01*
X21613334Y34218619D01*
X22232382Y34218619D01*
X23137144Y34218619D02*
X22660953Y34218619D01*
X22660953Y35218619D01*
X23851430Y34266238D02*
X23756192Y34218619D01*
X23565715Y34218619D01*
X23470477Y34266238D01*
X23422858Y34361476D01*
X23422858Y34742429D01*
X23470477Y34837667D01*
X23565715Y34885286D01*
X23756192Y34885286D01*
X23851430Y34837667D01*
X23899049Y34742429D01*
X23899049Y34647190D01*
X23422858Y34551952D01*
X24756192Y34218619D02*
X24756192Y35218619D01*
X24756192Y34266238D02*
X24660954Y34218619D01*
X24470477Y34218619D01*
X24375239Y34266238D01*
X24327620Y34313857D01*
X24280001Y34409095D01*
X24280001Y34694810D01*
X24327620Y34790048D01*
X24375239Y34837667D01*
X24470477Y34885286D01*
X24660954Y34885286D01*
X24756192Y34837667D01*
X25184763Y34266238D02*
X25280001Y34218619D01*
X25470477Y34218619D01*
X25565716Y34266238D01*
X25613335Y34361476D01*
X25613335Y34409095D01*
X25565716Y34504333D01*
X25470477Y34551952D01*
X25327620Y34551952D01*
X25232382Y34599571D01*
X25184763Y34694810D01*
X25184763Y34742429D01*
X25232382Y34837667D01*
X25327620Y34885286D01*
X25470477Y34885286D01*
X25565716Y34837667D01*
X67977143Y45177619D02*
X67977143Y46177619D01*
X68310477Y45463333D01*
X68643810Y46177619D01*
X68643810Y45177619D01*
X69072381Y45463333D02*
X69548572Y45463333D01*
X68977143Y45177619D02*
X69310476Y46177619D01*
X69643810Y45177619D01*
X69881905Y46177619D02*
X70548572Y45177619D01*
X70548572Y46177619D02*
X69881905Y45177619D01*
X70834286Y46177619D02*
X71500953Y46177619D01*
X71072381Y45177619D01*
X71834286Y46082381D02*
X71881905Y46130000D01*
X71977143Y46177619D01*
X72215239Y46177619D01*
X72310477Y46130000D01*
X72358096Y46082381D01*
X72405715Y45987143D01*
X72405715Y45891905D01*
X72358096Y45749048D01*
X71786667Y45177619D01*
X72405715Y45177619D01*
X73358096Y45177619D02*
X72786667Y45177619D01*
X73072381Y45177619D02*
X73072381Y46177619D01*
X72977143Y46034762D01*
X72881905Y45939524D01*
X72786667Y45891905D01*
X73834286Y45177619D02*
X74024762Y45177619D01*
X74120001Y45225238D01*
X74167620Y45272857D01*
X74262858Y45415714D01*
X74310477Y45606190D01*
X74310477Y45987143D01*
X74262858Y46082381D01*
X74215239Y46130000D01*
X74120001Y46177619D01*
X73929524Y46177619D01*
X73834286Y46130000D01*
X73786667Y46082381D01*
X73739048Y45987143D01*
X73739048Y45749048D01*
X73786667Y45653810D01*
X73834286Y45606190D01*
X73929524Y45558571D01*
X74120001Y45558571D01*
X74215239Y45606190D01*
X74262858Y45653810D01*
X74310477Y45749048D01*
X70358095Y37377619D02*
X70358095Y36568095D01*
X70405714Y36472857D01*
X70453333Y36425238D01*
X70548571Y36377619D01*
X70739048Y36377619D01*
X70834286Y36425238D01*
X70881905Y36472857D01*
X70929524Y36568095D01*
X70929524Y37377619D01*
X71310476Y37377619D02*
X71929524Y37377619D01*
X71596190Y36996667D01*
X71739048Y36996667D01*
X71834286Y36949048D01*
X71881905Y36901429D01*
X71929524Y36806190D01*
X71929524Y36568095D01*
X71881905Y36472857D01*
X71834286Y36425238D01*
X71739048Y36377619D01*
X71453333Y36377619D01*
X71358095Y36425238D01*
X71310476Y36472857D01*
X102052381Y21582143D02*
X102052381Y21105952D01*
X101052381Y21105952D01*
X101528571Y21915476D02*
X101528571Y22248810D01*
X102052381Y22391667D02*
X102052381Y21915476D01*
X101052381Y21915476D01*
X101052381Y22391667D01*
X102052381Y22820238D02*
X101052381Y22820238D01*
X101052381Y23058333D01*
X101100000Y23201191D01*
X101195238Y23296429D01*
X101290476Y23344048D01*
X101480952Y23391667D01*
X101623810Y23391667D01*
X101814286Y23344048D01*
X101909524Y23296429D01*
X102004762Y23201191D01*
X102052381Y23058333D01*
X102052381Y22820238D01*
X46172381Y10025143D02*
X46172381Y9548952D01*
X45172381Y9548952D01*
X45648571Y10358476D02*
X45648571Y10691810D01*
X46172381Y10834667D02*
X46172381Y10358476D01*
X45172381Y10358476D01*
X45172381Y10834667D01*
X46172381Y11263238D02*
X45172381Y11263238D01*
X45172381Y11501333D01*
X45220000Y11644191D01*
X45315238Y11739429D01*
X45410476Y11787048D01*
X45600952Y11834667D01*
X45743810Y11834667D01*
X45934286Y11787048D01*
X46029524Y11739429D01*
X46124762Y11644191D01*
X46172381Y11501333D01*
X46172381Y11263238D01*
X46172381Y21375715D02*
X46172381Y20804286D01*
X46172381Y21090000D02*
X45172381Y21090000D01*
X45315238Y20994762D01*
X45410476Y20899524D01*
X45458095Y20804286D01*
X46172381Y21804286D02*
X45172381Y21804286D01*
X46172381Y22375715D02*
X45600952Y21947143D01*
X45172381Y22375715D02*
X45743810Y21804286D01*
D12*
X45946190Y18966667D02*
X45708095Y18800000D01*
X45946190Y18680953D02*
X45446190Y18680953D01*
X45446190Y18871429D01*
X45470000Y18919048D01*
X45493810Y18942857D01*
X45541429Y18966667D01*
X45612857Y18966667D01*
X45660476Y18942857D01*
X45684286Y18919048D01*
X45708095Y18871429D01*
X45708095Y18680953D01*
X45446190Y19133334D02*
X45446190Y19442857D01*
X45636667Y19276191D01*
X45636667Y19347619D01*
X45660476Y19395238D01*
X45684286Y19419048D01*
X45731905Y19442857D01*
X45850952Y19442857D01*
X45898571Y19419048D01*
X45922381Y19395238D01*
X45946190Y19347619D01*
X45946190Y19204762D01*
X45922381Y19157143D01*
X45898571Y19133334D01*
D11*
X110815381Y14319524D02*
X109815381Y14319524D01*
X109815381Y14700477D01*
X109863000Y14795715D01*
X109910619Y14843334D01*
X110005857Y14890953D01*
X110148714Y14890953D01*
X110243952Y14843334D01*
X110291571Y14795715D01*
X110339190Y14700477D01*
X110339190Y14319524D01*
X110720143Y15890953D02*
X110767762Y15843334D01*
X110815381Y15700477D01*
X110815381Y15605239D01*
X110767762Y15462381D01*
X110672524Y15367143D01*
X110577286Y15319524D01*
X110386810Y15271905D01*
X110243952Y15271905D01*
X110053476Y15319524D01*
X109958238Y15367143D01*
X109863000Y15462381D01*
X109815381Y15605239D01*
X109815381Y15700477D01*
X109863000Y15843334D01*
X109910619Y15890953D01*
X110243952Y16462381D02*
X110196333Y16367143D01*
X110148714Y16319524D01*
X110053476Y16271905D01*
X110005857Y16271905D01*
X109910619Y16319524D01*
X109863000Y16367143D01*
X109815381Y16462381D01*
X109815381Y16652858D01*
X109863000Y16748096D01*
X109910619Y16795715D01*
X110005857Y16843334D01*
X110053476Y16843334D01*
X110148714Y16795715D01*
X110196333Y16748096D01*
X110243952Y16652858D01*
X110243952Y16462381D01*
X110291571Y16367143D01*
X110339190Y16319524D01*
X110434429Y16271905D01*
X110624905Y16271905D01*
X110720143Y16319524D01*
X110767762Y16367143D01*
X110815381Y16462381D01*
X110815381Y16652858D01*
X110767762Y16748096D01*
X110720143Y16795715D01*
X110624905Y16843334D01*
X110434429Y16843334D01*
X110339190Y16795715D01*
X110291571Y16748096D01*
X110243952Y16652858D01*
X110815381Y17795715D02*
X110815381Y17224286D01*
X110815381Y17510000D02*
X109815381Y17510000D01*
X109958238Y17414762D01*
X110053476Y17319524D01*
X110101095Y17224286D01*
X109815381Y18129048D02*
X109815381Y18795715D01*
X110815381Y18367143D01*
X106132381Y15748095D02*
X106941905Y15748095D01*
X107037143Y15795714D01*
X107084762Y15843333D01*
X107132381Y15938571D01*
X107132381Y16129048D01*
X107084762Y16224286D01*
X107037143Y16271905D01*
X106941905Y16319524D01*
X106132381Y16319524D01*
X106465714Y17224286D02*
X107132381Y17224286D01*
X106084762Y16986190D02*
X106799048Y16748095D01*
X106799048Y17367143D01*
X20995238Y11557619D02*
X20519047Y11557619D01*
X20519047Y12557619D01*
X21328571Y11557619D02*
X21328571Y12557619D01*
X21566666Y12557619D01*
X21709524Y12510000D01*
X21804762Y12414762D01*
X21852381Y12319524D01*
X21900000Y12129048D01*
X21900000Y11986190D01*
X21852381Y11795714D01*
X21804762Y11700476D01*
X21709524Y11605238D01*
X21566666Y11557619D01*
X21328571Y11557619D01*
X22852381Y11557619D02*
X22280952Y11557619D01*
X22566666Y11557619D02*
X22566666Y12557619D01*
X22471428Y12414762D01*
X22376190Y12319524D01*
X22280952Y12271905D01*
X23804762Y11557619D02*
X23233333Y11557619D01*
X23519047Y11557619D02*
X23519047Y12557619D01*
X23423809Y12414762D01*
X23328571Y12319524D01*
X23233333Y12271905D01*
X24757143Y11557619D02*
X24185714Y11557619D01*
X24471428Y11557619D02*
X24471428Y12557619D01*
X24376190Y12414762D01*
X24280952Y12319524D01*
X24185714Y12271905D01*
X25090476Y12557619D02*
X25757143Y12557619D01*
X25328571Y11557619D01*
X26090476Y11605238D02*
X26233333Y11557619D01*
X26471429Y11557619D01*
X26566667Y11605238D01*
X26614286Y11652857D01*
X26661905Y11748095D01*
X26661905Y11843333D01*
X26614286Y11938571D01*
X26566667Y11986190D01*
X26471429Y12033810D01*
X26280952Y12081429D01*
X26185714Y12129048D01*
X26138095Y12176667D01*
X26090476Y12271905D01*
X26090476Y12367143D01*
X26138095Y12462381D01*
X26185714Y12510000D01*
X26280952Y12557619D01*
X26519048Y12557619D01*
X26661905Y12510000D01*
X27566667Y12557619D02*
X27090476Y12557619D01*
X27042857Y12081429D01*
X27090476Y12129048D01*
X27185714Y12176667D01*
X27423810Y12176667D01*
X27519048Y12129048D01*
X27566667Y12081429D01*
X27614286Y11986190D01*
X27614286Y11748095D01*
X27566667Y11652857D01*
X27519048Y11605238D01*
X27423810Y11557619D01*
X27185714Y11557619D01*
X27090476Y11605238D01*
X27042857Y11652857D01*
X28233333Y12557619D02*
X28328572Y12557619D01*
X28423810Y12510000D01*
X28471429Y12462381D01*
X28519048Y12367143D01*
X28566667Y12176667D01*
X28566667Y11938571D01*
X28519048Y11748095D01*
X28471429Y11652857D01*
X28423810Y11605238D01*
X28328572Y11557619D01*
X28233333Y11557619D01*
X28138095Y11605238D01*
X28090476Y11652857D01*
X28042857Y11748095D01*
X27995238Y11938571D01*
X27995238Y12176667D01*
X28042857Y12367143D01*
X28090476Y12462381D01*
X28138095Y12510000D01*
X28233333Y12557619D01*
X28852381Y12557619D02*
X29423810Y12557619D01*
X29138095Y11557619D02*
X29138095Y12557619D01*
X30328572Y11557619D02*
X29995238Y12033810D01*
X29757143Y11557619D02*
X29757143Y12557619D01*
X30138096Y12557619D01*
X30233334Y12510000D01*
X30280953Y12462381D01*
X30328572Y12367143D01*
X30328572Y12224286D01*
X30280953Y12129048D01*
X30233334Y12081429D01*
X30138096Y12033810D01*
X29757143Y12033810D01*
D13*
X24790476Y16948095D02*
X24790476Y16300476D01*
X24828571Y16224286D01*
X24866667Y16186190D01*
X24942857Y16148095D01*
X25095238Y16148095D01*
X25171429Y16186190D01*
X25209524Y16224286D01*
X25247619Y16300476D01*
X25247619Y16948095D01*
X25590476Y16871905D02*
X25628571Y16910000D01*
X25704762Y16948095D01*
X25895238Y16948095D01*
X25971428Y16910000D01*
X26009524Y16871905D01*
X26047619Y16795714D01*
X26047619Y16719524D01*
X26009524Y16605238D01*
X25552381Y16148095D01*
X26047619Y16148095D01*
D11*
X74592381Y4746667D02*
X75306667Y4746667D01*
X75449524Y4699047D01*
X75544762Y4603809D01*
X75592381Y4460952D01*
X75592381Y4365714D01*
X74592381Y5127619D02*
X74592381Y5746667D01*
X74973333Y5413333D01*
X74973333Y5556191D01*
X75020952Y5651429D01*
X75068571Y5699048D01*
X75163810Y5746667D01*
X75401905Y5746667D01*
X75497143Y5699048D01*
X75544762Y5651429D01*
X75592381Y5556191D01*
X75592381Y5270476D01*
X75544762Y5175238D01*
X75497143Y5127619D01*
X72175714Y1397096D02*
X72842381Y1397096D01*
X71794762Y1159000D02*
X72509048Y920905D01*
X72509048Y1539953D01*
X71842381Y1825667D02*
X71842381Y2492334D01*
X72842381Y2063762D01*
X71842381Y3063762D02*
X71842381Y3159001D01*
X71890000Y3254239D01*
X71937619Y3301858D01*
X72032857Y3349477D01*
X72223333Y3397096D01*
X72461429Y3397096D01*
X72651905Y3349477D01*
X72747143Y3301858D01*
X72794762Y3254239D01*
X72842381Y3159001D01*
X72842381Y3063762D01*
X72794762Y2968524D01*
X72747143Y2920905D01*
X72651905Y2873286D01*
X72461429Y2825667D01*
X72223333Y2825667D01*
X72032857Y2873286D01*
X71937619Y2920905D01*
X71890000Y2968524D01*
X71842381Y3063762D01*
D12*
X72616190Y4872167D02*
X72378095Y4705500D01*
X72616190Y4586453D02*
X72116190Y4586453D01*
X72116190Y4776929D01*
X72140000Y4824548D01*
X72163810Y4848357D01*
X72211429Y4872167D01*
X72282857Y4872167D01*
X72330476Y4848357D01*
X72354286Y4824548D01*
X72378095Y4776929D01*
X72378095Y4586453D01*
X72616190Y5348357D02*
X72616190Y5062643D01*
X72616190Y5205500D02*
X72116190Y5205500D01*
X72187619Y5157881D01*
X72235238Y5110262D01*
X72259048Y5062643D01*
D11*
X124206096Y26884286D02*
X124206096Y26217619D01*
X123968000Y27265238D02*
X123729905Y26550952D01*
X124348953Y26550952D01*
X124634667Y27217619D02*
X125301334Y27217619D01*
X124872762Y26217619D01*
X125872762Y27217619D02*
X125968001Y27217619D01*
X126063239Y27170000D01*
X126110858Y27122381D01*
X126158477Y27027143D01*
X126206096Y26836667D01*
X126206096Y26598571D01*
X126158477Y26408095D01*
X126110858Y26312857D01*
X126063239Y26265238D01*
X125968001Y26217619D01*
X125872762Y26217619D01*
X125777524Y26265238D01*
X125729905Y26312857D01*
X125682286Y26408095D01*
X125634667Y26598571D01*
X125634667Y26836667D01*
X125682286Y27027143D01*
X125729905Y27122381D01*
X125777524Y27170000D01*
X125872762Y27217619D01*
D12*
X121598572Y26443810D02*
X121431905Y26681905D01*
X121312858Y26443810D02*
X121312858Y26943810D01*
X121503334Y26943810D01*
X121550953Y26920000D01*
X121574762Y26896190D01*
X121598572Y26848571D01*
X121598572Y26777143D01*
X121574762Y26729524D01*
X121550953Y26705714D01*
X121503334Y26681905D01*
X121312858Y26681905D01*
X122074762Y26443810D02*
X121789048Y26443810D01*
X121931905Y26443810D02*
X121931905Y26943810D01*
X121884286Y26872381D01*
X121836667Y26824762D01*
X121789048Y26800952D01*
X122265238Y26896190D02*
X122289048Y26920000D01*
X122336667Y26943810D01*
X122455714Y26943810D01*
X122503333Y26920000D01*
X122527143Y26896190D01*
X122550952Y26848571D01*
X122550952Y26800952D01*
X122527143Y26729524D01*
X122241429Y26443810D01*
X122550952Y26443810D01*
D11*
X114086666Y34139238D02*
X114229523Y34091619D01*
X114467619Y34091619D01*
X114562857Y34139238D01*
X114610476Y34186857D01*
X114658095Y34282095D01*
X114658095Y34377333D01*
X114610476Y34472571D01*
X114562857Y34520190D01*
X114467619Y34567810D01*
X114277142Y34615429D01*
X114181904Y34663048D01*
X114134285Y34710667D01*
X114086666Y34805905D01*
X114086666Y34901143D01*
X114134285Y34996381D01*
X114181904Y35044000D01*
X114277142Y35091619D01*
X114515238Y35091619D01*
X114658095Y35044000D01*
X114991428Y35091619D02*
X115229523Y34091619D01*
X115420000Y34805905D01*
X115610476Y34091619D01*
X115848571Y35091619D01*
X115991428Y33996381D02*
X116753333Y33996381D01*
X116991428Y34091619D02*
X116991428Y35091619D01*
X117372381Y35091619D01*
X117467619Y35044000D01*
X117515238Y34996381D01*
X117562857Y34901143D01*
X117562857Y34758286D01*
X117515238Y34663048D01*
X117467619Y34615429D01*
X117372381Y34567810D01*
X116991428Y34567810D01*
X118420000Y34758286D02*
X118420000Y34091619D01*
X117991428Y34758286D02*
X117991428Y34234476D01*
X118039047Y34139238D01*
X118134285Y34091619D01*
X118277143Y34091619D01*
X118372381Y34139238D01*
X118420000Y34186857D01*
X118848571Y34139238D02*
X118943809Y34091619D01*
X119134285Y34091619D01*
X119229524Y34139238D01*
X119277143Y34234476D01*
X119277143Y34282095D01*
X119229524Y34377333D01*
X119134285Y34424952D01*
X118991428Y34424952D01*
X118896190Y34472571D01*
X118848571Y34567810D01*
X118848571Y34615429D01*
X118896190Y34710667D01*
X118991428Y34758286D01*
X119134285Y34758286D01*
X119229524Y34710667D01*
X119705714Y34091619D02*
X119705714Y35091619D01*
X120134286Y34091619D02*
X120134286Y34615429D01*
X120086667Y34710667D01*
X119991429Y34758286D01*
X119848571Y34758286D01*
X119753333Y34710667D01*
X119705714Y34663048D01*
X120372381Y33996381D02*
X121134286Y33996381D01*
X121324762Y34139238D02*
X121467619Y34091619D01*
X121705715Y34091619D01*
X121800953Y34139238D01*
X121848572Y34186857D01*
X121896191Y34282095D01*
X121896191Y34377333D01*
X121848572Y34472571D01*
X121800953Y34520190D01*
X121705715Y34567810D01*
X121515238Y34615429D01*
X121420000Y34663048D01*
X121372381Y34710667D01*
X121324762Y34805905D01*
X121324762Y34901143D01*
X121372381Y34996381D01*
X121420000Y35044000D01*
X121515238Y35091619D01*
X121753334Y35091619D01*
X121896191Y35044000D01*
X122324762Y34091619D02*
X122324762Y35091619D01*
X122705715Y35091619D01*
X122800953Y35044000D01*
X122848572Y34996381D01*
X122896191Y34901143D01*
X122896191Y34758286D01*
X122848572Y34663048D01*
X122800953Y34615429D01*
X122705715Y34567810D01*
X122324762Y34567810D01*
X123324762Y34091619D02*
X123324762Y35091619D01*
X123562857Y35091619D01*
X123705715Y35044000D01*
X123800953Y34948762D01*
X123848572Y34853524D01*
X123896191Y34663048D01*
X123896191Y34520190D01*
X123848572Y34329714D01*
X123800953Y34234476D01*
X123705715Y34139238D01*
X123562857Y34091619D01*
X123324762Y34091619D01*
X124181905Y35091619D02*
X124753334Y35091619D01*
X124467619Y34091619D02*
X124467619Y35091619D01*
X124848572Y33996381D02*
X125610477Y33996381D01*
X125800953Y34996381D02*
X125848572Y35044000D01*
X125943810Y35091619D01*
X126181906Y35091619D01*
X126277144Y35044000D01*
X126324763Y34996381D01*
X126372382Y34901143D01*
X126372382Y34805905D01*
X126324763Y34663048D01*
X125753334Y34091619D01*
X126372382Y34091619D01*
X127277144Y34091619D02*
X126800953Y34091619D01*
X126800953Y35091619D01*
X127991430Y34139238D02*
X127896192Y34091619D01*
X127705715Y34091619D01*
X127610477Y34139238D01*
X127562858Y34234476D01*
X127562858Y34615429D01*
X127610477Y34710667D01*
X127705715Y34758286D01*
X127896192Y34758286D01*
X127991430Y34710667D01*
X128039049Y34615429D01*
X128039049Y34520190D01*
X127562858Y34424952D01*
X128896192Y34091619D02*
X128896192Y35091619D01*
X128896192Y34139238D02*
X128800954Y34091619D01*
X128610477Y34091619D01*
X128515239Y34139238D01*
X128467620Y34186857D01*
X128420001Y34282095D01*
X128420001Y34567810D01*
X128467620Y34663048D01*
X128515239Y34710667D01*
X128610477Y34758286D01*
X128800954Y34758286D01*
X128896192Y34710667D01*
X129324763Y34139238D02*
X129420001Y34091619D01*
X129610477Y34091619D01*
X129705716Y34139238D01*
X129753335Y34234476D01*
X129753335Y34282095D01*
X129705716Y34377333D01*
X129610477Y34424952D01*
X129467620Y34424952D01*
X129372382Y34472571D01*
X129324763Y34567810D01*
X129324763Y34615429D01*
X129372382Y34710667D01*
X129467620Y34758286D01*
X129610477Y34758286D01*
X129705716Y34710667D01*
X46232381Y4746667D02*
X46946667Y4746667D01*
X47089524Y4699047D01*
X47184762Y4603809D01*
X47232381Y4460952D01*
X47232381Y4365714D01*
X46232381Y5699048D02*
X46232381Y5222857D01*
X46708571Y5175238D01*
X46660952Y5222857D01*
X46613333Y5318095D01*
X46613333Y5556191D01*
X46660952Y5651429D01*
X46708571Y5699048D01*
X46803810Y5746667D01*
X47041905Y5746667D01*
X47137143Y5699048D01*
X47184762Y5651429D01*
X47232381Y5556191D01*
X47232381Y5318095D01*
X47184762Y5222857D01*
X47137143Y5175238D01*
X10465714Y15771905D02*
X11132381Y15771905D01*
X10084762Y15533809D02*
X10799048Y15295714D01*
X10799048Y15914762D01*
X10132381Y16200476D02*
X10132381Y16867143D01*
X11132381Y16438571D01*
X10465714Y17676667D02*
X11132381Y17676667D01*
X10465714Y17248095D02*
X10989524Y17248095D01*
X11084762Y17295714D01*
X11132381Y17390952D01*
X11132381Y17533810D01*
X11084762Y17629048D01*
X11037143Y17676667D01*
X15231429Y14379048D02*
X15231429Y15140953D01*
X15612381Y14760001D02*
X14850476Y14760001D01*
X20157143Y16343334D02*
X20204762Y16295715D01*
X20252381Y16152858D01*
X20252381Y16057620D01*
X20204762Y15914762D01*
X20109524Y15819524D01*
X20014286Y15771905D01*
X19823810Y15724286D01*
X19680952Y15724286D01*
X19490476Y15771905D01*
X19395238Y15819524D01*
X19300000Y15914762D01*
X19252381Y16057620D01*
X19252381Y16152858D01*
X19300000Y16295715D01*
X19347619Y16343334D01*
X19347619Y16724286D02*
X19300000Y16771905D01*
X19252381Y16867143D01*
X19252381Y17105239D01*
X19300000Y17200477D01*
X19347619Y17248096D01*
X19442857Y17295715D01*
X19538095Y17295715D01*
X19680952Y17248096D01*
X20252381Y16676667D01*
X20252381Y17295715D01*
X30785714Y15771905D02*
X31452381Y15771905D01*
X30404762Y15533809D02*
X31119048Y15295714D01*
X31119048Y15914762D01*
X30452381Y16200476D02*
X30452381Y16867143D01*
X31452381Y16438571D01*
X30785714Y17676667D02*
X31452381Y17676667D01*
X30785714Y17248095D02*
X31309524Y17248095D01*
X31404762Y17295714D01*
X31452381Y17390952D01*
X31452381Y17533810D01*
X31404762Y17629048D01*
X31357143Y17676667D01*
X35551429Y14379048D02*
X35551429Y15140953D01*
X35932381Y14760001D02*
X35170476Y14760001D01*
X38076143Y20915334D02*
X38123762Y20867715D01*
X38171381Y20724858D01*
X38171381Y20629620D01*
X38123762Y20486762D01*
X38028524Y20391524D01*
X37933286Y20343905D01*
X37742810Y20296286D01*
X37599952Y20296286D01*
X37409476Y20343905D01*
X37314238Y20391524D01*
X37219000Y20486762D01*
X37171381Y20629620D01*
X37171381Y20724858D01*
X37219000Y20867715D01*
X37266619Y20915334D01*
X37171381Y21248667D02*
X37171381Y21867715D01*
X37552333Y21534381D01*
X37552333Y21677239D01*
X37599952Y21772477D01*
X37647571Y21820096D01*
X37742810Y21867715D01*
X37980905Y21867715D01*
X38076143Y21820096D01*
X38123762Y21772477D01*
X38171381Y21677239D01*
X38171381Y21391524D01*
X38123762Y21296286D01*
X38076143Y21248667D01*
X97099381Y21963095D02*
X96099381Y21963095D01*
X96099381Y22201190D01*
X96147000Y22344048D01*
X96242238Y22439286D01*
X96337476Y22486905D01*
X96527952Y22534524D01*
X96670810Y22534524D01*
X96861286Y22486905D01*
X96956524Y22439286D01*
X97051762Y22344048D01*
X97099381Y22201190D01*
X97099381Y21963095D01*
X98972381Y18311905D02*
X97972381Y18311905D01*
X97972381Y18550000D01*
X98020000Y18692858D01*
X98115238Y18788096D01*
X98210476Y18835715D01*
X98400952Y18883334D01*
X98543810Y18883334D01*
X98734286Y18835715D01*
X98829524Y18788096D01*
X98924762Y18692858D01*
X98972381Y18550000D01*
X98972381Y18311905D01*
X98972381Y19835715D02*
X98972381Y19264286D01*
X98972381Y19550000D02*
X97972381Y19550000D01*
X98115238Y19454762D01*
X98210476Y19359524D01*
X98258095Y19264286D01*
X114038095Y25777619D02*
X114038095Y26777619D01*
X114276190Y26777619D01*
X114419048Y26730000D01*
X114514286Y26634762D01*
X114561905Y26539524D01*
X114609524Y26349048D01*
X114609524Y26206190D01*
X114561905Y26015714D01*
X114514286Y25920476D01*
X114419048Y25825238D01*
X114276190Y25777619D01*
X114038095Y25777619D01*
X113561905Y21677619D02*
X113561905Y22677619D01*
X113800000Y22677619D01*
X113942858Y22630000D01*
X114038096Y22534762D01*
X114085715Y22439524D01*
X114133334Y22249048D01*
X114133334Y22106190D01*
X114085715Y21915714D01*
X114038096Y21820476D01*
X113942858Y21725238D01*
X113800000Y21677619D01*
X113561905Y21677619D01*
X114990477Y22344286D02*
X114990477Y21677619D01*
X114752381Y22725238D02*
X114514286Y22010952D01*
X115133334Y22010952D01*
X-1747619Y29972381D02*
X-938095Y29972381D01*
X-842857Y30020000D01*
X-795238Y30067619D01*
X-747619Y30162857D01*
X-747619Y30353334D01*
X-795238Y30448572D01*
X-842857Y30496191D01*
X-938095Y30543810D01*
X-1747619Y30543810D01*
X-795238Y30972381D02*
X-747619Y31115238D01*
X-747619Y31353334D01*
X-795238Y31448572D01*
X-842857Y31496191D01*
X-938095Y31543810D01*
X-1033333Y31543810D01*
X-1128571Y31496191D01*
X-1176190Y31448572D01*
X-1223810Y31353334D01*
X-1271429Y31162857D01*
X-1319048Y31067619D01*
X-1366667Y31020000D01*
X-1461905Y30972381D01*
X-1557143Y30972381D01*
X-1652381Y31020000D01*
X-1700000Y31067619D01*
X-1747619Y31162857D01*
X-1747619Y31400953D01*
X-1700000Y31543810D01*
X-1271429Y32305715D02*
X-1223810Y32448572D01*
X-1176190Y32496191D01*
X-1080952Y32543810D01*
X-938095Y32543810D01*
X-842857Y32496191D01*
X-795238Y32448572D01*
X-747619Y32353334D01*
X-747619Y31972381D01*
X-1747619Y31972381D01*
X-1747619Y32305715D01*
X-1700000Y32400953D01*
X-1652381Y32448572D01*
X-1557143Y32496191D01*
X-1461905Y32496191D01*
X-1366667Y32448572D01*
X-1319048Y32400953D01*
X-1271429Y32305715D01*
X-1271429Y31972381D01*
X-652381Y32734286D02*
X-652381Y33496191D01*
X-1747619Y33924762D02*
X-1747619Y34115239D01*
X-1700000Y34210477D01*
X-1604762Y34305715D01*
X-1414286Y34353334D01*
X-1080952Y34353334D01*
X-890476Y34305715D01*
X-795238Y34210477D01*
X-747619Y34115239D01*
X-747619Y33924762D01*
X-795238Y33829524D01*
X-890476Y33734286D01*
X-1080952Y33686667D01*
X-1414286Y33686667D01*
X-1604762Y33734286D01*
X-1700000Y33829524D01*
X-1747619Y33924762D01*
X-1747619Y34639048D02*
X-1747619Y35210477D01*
X-747619Y34924762D02*
X-1747619Y34924762D01*
X-1700000Y36067620D02*
X-1747619Y35972382D01*
X-1747619Y35829525D01*
X-1700000Y35686667D01*
X-1604762Y35591429D01*
X-1509524Y35543810D01*
X-1319048Y35496191D01*
X-1176190Y35496191D01*
X-985714Y35543810D01*
X-890476Y35591429D01*
X-795238Y35686667D01*
X-747619Y35829525D01*
X-747619Y35924763D01*
X-795238Y36067620D01*
X-842857Y36115239D01*
X-1176190Y36115239D01*
X-1176190Y35924763D01*
X80899096Y31964286D02*
X80899096Y31297619D01*
X80661000Y32345238D02*
X80422905Y31630952D01*
X81041953Y31630952D01*
X81327667Y32297619D02*
X81994334Y32297619D01*
X81565762Y31297619D01*
X82565762Y32297619D02*
X82661001Y32297619D01*
X82756239Y32250000D01*
X82803858Y32202381D01*
X82851477Y32107143D01*
X82899096Y31916667D01*
X82899096Y31678571D01*
X82851477Y31488095D01*
X82803858Y31392857D01*
X82756239Y31345238D01*
X82661001Y31297619D01*
X82565762Y31297619D01*
X82470524Y31345238D01*
X82422905Y31392857D01*
X82375286Y31488095D01*
X82327667Y31678571D01*
X82327667Y31916667D01*
X82375286Y32107143D01*
X82422905Y32202381D01*
X82470524Y32250000D01*
X82565762Y32297619D01*
D12*
X84691667Y31523810D02*
X84525000Y31761905D01*
X84405953Y31523810D02*
X84405953Y32023810D01*
X84596429Y32023810D01*
X84644048Y32000000D01*
X84667857Y31976190D01*
X84691667Y31928571D01*
X84691667Y31857143D01*
X84667857Y31809524D01*
X84644048Y31785714D01*
X84596429Y31761905D01*
X84405953Y31761905D01*
X84858334Y32023810D02*
X85191667Y32023810D01*
X84977381Y31523810D01*
D11*
X88805713Y27487619D02*
X88472379Y27963810D01*
X88234284Y27487619D02*
X88234284Y28487619D01*
X88615237Y28487619D01*
X88710475Y28440000D01*
X88758094Y28392381D01*
X88805713Y28297143D01*
X88805713Y28154286D01*
X88758094Y28059048D01*
X88710475Y28011429D01*
X88615237Y27963810D01*
X88234284Y27963810D01*
X89377141Y27487619D02*
X89281903Y27535238D01*
X89234284Y27582857D01*
X89186665Y27678095D01*
X89186665Y27963810D01*
X89234284Y28059048D01*
X89281903Y28106667D01*
X89377141Y28154286D01*
X89519999Y28154286D01*
X89615237Y28106667D01*
X89662856Y28059048D01*
X89710475Y27963810D01*
X89710475Y27678095D01*
X89662856Y27582857D01*
X89615237Y27535238D01*
X89519999Y27487619D01*
X89377141Y27487619D01*
X89996189Y28154286D02*
X90377141Y28154286D01*
X90139046Y28487619D02*
X90139046Y27630476D01*
X90186665Y27535238D01*
X90281903Y27487619D01*
X90377141Y27487619D01*
X91139047Y27487619D02*
X91139047Y28011429D01*
X91091428Y28106667D01*
X90996190Y28154286D01*
X90805713Y28154286D01*
X90710475Y28106667D01*
X91139047Y27535238D02*
X91043809Y27487619D01*
X90805713Y27487619D01*
X90710475Y27535238D01*
X90662856Y27630476D01*
X90662856Y27725714D01*
X90710475Y27820952D01*
X90805713Y27868571D01*
X91043809Y27868571D01*
X91139047Y27916190D01*
X91615237Y27487619D02*
X91615237Y28154286D01*
X91615237Y27963810D02*
X91662856Y28059048D01*
X91710475Y28106667D01*
X91805713Y28154286D01*
X91900952Y28154286D01*
X92139047Y28154286D02*
X92377142Y27487619D01*
X92615238Y28154286D02*
X92377142Y27487619D01*
X92281904Y27249524D01*
X92234285Y27201905D01*
X92139047Y27154286D01*
X92758095Y27392381D02*
X93520000Y27392381D01*
X93758095Y28011429D02*
X94091429Y28011429D01*
X94234286Y27487619D02*
X93758095Y27487619D01*
X93758095Y28487619D01*
X94234286Y28487619D01*
X94662857Y28154286D02*
X94662857Y27487619D01*
X94662857Y28059048D02*
X94710476Y28106667D01*
X94805714Y28154286D01*
X94948572Y28154286D01*
X95043810Y28106667D01*
X95091429Y28011429D01*
X95091429Y27487619D01*
X95996191Y27535238D02*
X95900953Y27487619D01*
X95710476Y27487619D01*
X95615238Y27535238D01*
X95567619Y27582857D01*
X95520000Y27678095D01*
X95520000Y27963810D01*
X95567619Y28059048D01*
X95615238Y28106667D01*
X95710476Y28154286D01*
X95900953Y28154286D01*
X95996191Y28106667D01*
X96567619Y27487619D02*
X96472381Y27535238D01*
X96424762Y27582857D01*
X96377143Y27678095D01*
X96377143Y27963810D01*
X96424762Y28059048D01*
X96472381Y28106667D01*
X96567619Y28154286D01*
X96710477Y28154286D01*
X96805715Y28106667D01*
X96853334Y28059048D01*
X96900953Y27963810D01*
X96900953Y27678095D01*
X96853334Y27582857D01*
X96805715Y27535238D01*
X96710477Y27487619D01*
X96567619Y27487619D01*
X97758096Y27487619D02*
X97758096Y28487619D01*
X97758096Y27535238D02*
X97662858Y27487619D01*
X97472381Y27487619D01*
X97377143Y27535238D01*
X97329524Y27582857D01*
X97281905Y27678095D01*
X97281905Y27963810D01*
X97329524Y28059048D01*
X97377143Y28106667D01*
X97472381Y28154286D01*
X97662858Y28154286D01*
X97758096Y28106667D01*
X98615239Y27535238D02*
X98520001Y27487619D01*
X98329524Y27487619D01*
X98234286Y27535238D01*
X98186667Y27630476D01*
X98186667Y28011429D01*
X98234286Y28106667D01*
X98329524Y28154286D01*
X98520001Y28154286D01*
X98615239Y28106667D01*
X98662858Y28011429D01*
X98662858Y27916190D01*
X98186667Y27820952D01*
X99091429Y27487619D02*
X99091429Y28154286D01*
X99091429Y27963810D02*
X99139048Y28059048D01*
X99186667Y28106667D01*
X99281905Y28154286D01*
X99377144Y28154286D01*
X99472382Y27392381D02*
X100234287Y27392381D01*
X100424763Y27535238D02*
X100567620Y27487619D01*
X100805716Y27487619D01*
X100900954Y27535238D01*
X100948573Y27582857D01*
X100996192Y27678095D01*
X100996192Y27773333D01*
X100948573Y27868571D01*
X100900954Y27916190D01*
X100805716Y27963810D01*
X100615239Y28011429D01*
X100520001Y28059048D01*
X100472382Y28106667D01*
X100424763Y28201905D01*
X100424763Y28297143D01*
X100472382Y28392381D01*
X100520001Y28440000D01*
X100615239Y28487619D01*
X100853335Y28487619D01*
X100996192Y28440000D01*
X101329525Y28154286D02*
X101520001Y27487619D01*
X101710478Y27963810D01*
X101900954Y27487619D01*
X102091430Y28154286D01*
X102472382Y27487619D02*
X102472382Y28154286D01*
X102472382Y28487619D02*
X102424763Y28440000D01*
X102472382Y28392381D01*
X102520001Y28440000D01*
X102472382Y28487619D01*
X102472382Y28392381D01*
X102805715Y28154286D02*
X103186667Y28154286D01*
X102948572Y28487619D02*
X102948572Y27630476D01*
X102996191Y27535238D01*
X103091429Y27487619D01*
X103186667Y27487619D01*
X103948573Y27535238D02*
X103853335Y27487619D01*
X103662858Y27487619D01*
X103567620Y27535238D01*
X103520001Y27582857D01*
X103472382Y27678095D01*
X103472382Y27963810D01*
X103520001Y28059048D01*
X103567620Y28106667D01*
X103662858Y28154286D01*
X103853335Y28154286D01*
X103948573Y28106667D01*
X104377144Y27487619D02*
X104377144Y28487619D01*
X104805716Y27487619D02*
X104805716Y28011429D01*
X104758097Y28106667D01*
X104662859Y28154286D01*
X104520001Y28154286D01*
X104424763Y28106667D01*
X104377144Y28059048D01*
X61412381Y4278524D02*
X61412381Y3707095D01*
X61412381Y3992809D02*
X60412381Y3992809D01*
X60555238Y3897571D01*
X60650476Y3802333D01*
X60698095Y3707095D01*
X60412381Y5135667D02*
X60412381Y4945190D01*
X60460000Y4849952D01*
X60507619Y4802333D01*
X60650476Y4707095D01*
X60840952Y4659476D01*
X61221905Y4659476D01*
X61317143Y4707095D01*
X61364762Y4754714D01*
X61412381Y4849952D01*
X61412381Y5040429D01*
X61364762Y5135667D01*
X61317143Y5183286D01*
X61221905Y5230905D01*
X60983810Y5230905D01*
X60888571Y5183286D01*
X60840952Y5135667D01*
X60793333Y5040429D01*
X60793333Y4849952D01*
X60840952Y4754714D01*
X60888571Y4707095D01*
X60983810Y4659476D01*
X61412381Y5659476D02*
X60412381Y5659476D01*
X61126667Y5992810D01*
X60412381Y6326143D01*
X61412381Y6326143D01*
X61412381Y6802333D02*
X60412381Y6802333D01*
X60888571Y6802333D02*
X60888571Y7373762D01*
X61412381Y7373762D02*
X60412381Y7373762D01*
X60745714Y7754714D02*
X60745714Y8278524D01*
X61412381Y7754714D01*
X61412381Y8278524D01*
X137461667Y47327619D02*
X137461667Y46613333D01*
X137414047Y46470476D01*
X137318809Y46375238D01*
X137175952Y46327619D01*
X137080714Y46327619D01*
X138366429Y46994286D02*
X138366429Y46327619D01*
X138128333Y47375238D02*
X137890238Y46660952D01*
X138509286Y46660952D01*
X-5824762Y39797619D02*
X-5824762Y40797619D01*
X-5491428Y40083333D01*
X-5158095Y40797619D01*
X-5158095Y39797619D01*
X-4539048Y39797619D02*
X-4634286Y39845238D01*
X-4681905Y39892857D01*
X-4729524Y39988095D01*
X-4729524Y40273810D01*
X-4681905Y40369048D01*
X-4634286Y40416667D01*
X-4539048Y40464286D01*
X-4396190Y40464286D01*
X-4300952Y40416667D01*
X-4253333Y40369048D01*
X-4205714Y40273810D01*
X-4205714Y39988095D01*
X-4253333Y39892857D01*
X-4300952Y39845238D01*
X-4396190Y39797619D01*
X-4539048Y39797619D01*
X-3348571Y40464286D02*
X-3348571Y39797619D01*
X-3777143Y40464286D02*
X-3777143Y39940476D01*
X-3729524Y39845238D01*
X-3634286Y39797619D01*
X-3491428Y39797619D01*
X-3396190Y39845238D01*
X-3348571Y39892857D01*
X-2872381Y40464286D02*
X-2872381Y39797619D01*
X-2872381Y40369048D02*
X-2824762Y40416667D01*
X-2729524Y40464286D01*
X-2586666Y40464286D01*
X-2491428Y40416667D01*
X-2443809Y40321429D01*
X-2443809Y39797619D01*
X-2110476Y40464286D02*
X-1729524Y40464286D01*
X-1967619Y40797619D02*
X-1967619Y39940476D01*
X-1920000Y39845238D01*
X-1824762Y39797619D01*
X-1729524Y39797619D01*
X-1396190Y39797619D02*
X-1396190Y40464286D01*
X-1396190Y40797619D02*
X-1443809Y40750000D01*
X-1396190Y40702381D01*
X-1348571Y40750000D01*
X-1396190Y40797619D01*
X-1396190Y40702381D01*
X-920000Y40464286D02*
X-920000Y39797619D01*
X-920000Y40369048D02*
X-872381Y40416667D01*
X-777143Y40464286D01*
X-634285Y40464286D01*
X-539047Y40416667D01*
X-491428Y40321429D01*
X-491428Y39797619D01*
X413334Y40464286D02*
X413334Y39654762D01*
X365715Y39559524D01*
X318096Y39511905D01*
X222857Y39464286D01*
X80000Y39464286D01*
X-15238Y39511905D01*
X413334Y39845238D02*
X318096Y39797619D01*
X127619Y39797619D01*
X32381Y39845238D01*
X-15238Y39892857D01*
X-62857Y39988095D01*
X-62857Y40273810D01*
X-15238Y40369048D01*
X32381Y40416667D01*
X127619Y40464286D01*
X318096Y40464286D01*
X413334Y40416667D01*
X889524Y39797619D02*
X889524Y40797619D01*
X889524Y40321429D02*
X1460953Y40321429D01*
X1460953Y39797619D02*
X1460953Y40797619D01*
X2080000Y39797619D02*
X1984762Y39845238D01*
X1937143Y39892857D01*
X1889524Y39988095D01*
X1889524Y40273810D01*
X1937143Y40369048D01*
X1984762Y40416667D01*
X2080000Y40464286D01*
X2222858Y40464286D01*
X2318096Y40416667D01*
X2365715Y40369048D01*
X2413334Y40273810D01*
X2413334Y39988095D01*
X2365715Y39892857D01*
X2318096Y39845238D01*
X2222858Y39797619D01*
X2080000Y39797619D01*
X2984762Y39797619D02*
X2889524Y39845238D01*
X2841905Y39940476D01*
X2841905Y40797619D01*
X3746668Y39845238D02*
X3651430Y39797619D01*
X3460953Y39797619D01*
X3365715Y39845238D01*
X3318096Y39940476D01*
X3318096Y40321429D01*
X3365715Y40416667D01*
X3460953Y40464286D01*
X3651430Y40464286D01*
X3746668Y40416667D01*
X3794287Y40321429D01*
X3794287Y40226190D01*
X3318096Y40130952D01*
X3984763Y39702381D02*
X4746668Y39702381D01*
X4889525Y40797619D02*
X5508573Y40797619D01*
X5175239Y40416667D01*
X5318097Y40416667D01*
X5413335Y40369048D01*
X5460954Y40321429D01*
X5508573Y40226190D01*
X5508573Y39988095D01*
X5460954Y39892857D01*
X5413335Y39845238D01*
X5318097Y39797619D01*
X5032382Y39797619D01*
X4937144Y39845238D01*
X4889525Y39892857D01*
X5937144Y39892857D02*
X5984763Y39845238D01*
X5937144Y39797619D01*
X5889525Y39845238D01*
X5937144Y39892857D01*
X5937144Y39797619D01*
X6365715Y40702381D02*
X6413334Y40750000D01*
X6508572Y40797619D01*
X6746668Y40797619D01*
X6841906Y40750000D01*
X6889525Y40702381D01*
X6937144Y40607143D01*
X6937144Y40511905D01*
X6889525Y40369048D01*
X6318096Y39797619D01*
X6937144Y39797619D01*
X7365715Y39797619D02*
X7365715Y40464286D01*
X7365715Y40369048D02*
X7413334Y40416667D01*
X7508572Y40464286D01*
X7651430Y40464286D01*
X7746668Y40416667D01*
X7794287Y40321429D01*
X7794287Y39797619D01*
X7794287Y40321429D02*
X7841906Y40416667D01*
X7937144Y40464286D01*
X8080001Y40464286D01*
X8175239Y40416667D01*
X8222858Y40321429D01*
X8222858Y39797619D01*
X8699048Y39797619D02*
X8699048Y40464286D01*
X8699048Y40369048D02*
X8746667Y40416667D01*
X8841905Y40464286D01*
X8984763Y40464286D01*
X9080001Y40416667D01*
X9127620Y40321429D01*
X9127620Y39797619D01*
X9127620Y40321429D02*
X9175239Y40416667D01*
X9270477Y40464286D01*
X9413334Y40464286D01*
X9508572Y40416667D01*
X9556191Y40321429D01*
X9556191Y39797619D01*
X9794286Y39702381D02*
X10556191Y39702381D01*
X10794286Y39797619D02*
X10794286Y40797619D01*
X11127620Y40083333D01*
X11460953Y40797619D01*
X11460953Y39797619D01*
X11841905Y40797619D02*
X12460953Y40797619D01*
X12127619Y40416667D01*
X12270477Y40416667D01*
X12365715Y40369048D01*
X12413334Y40321429D01*
X12460953Y40226190D01*
X12460953Y39988095D01*
X12413334Y39892857D01*
X12365715Y39845238D01*
X12270477Y39797619D01*
X11984762Y39797619D01*
X11889524Y39845238D01*
X11841905Y39892857D01*
X12651429Y39702381D02*
X13413334Y39702381D01*
X13651429Y39797619D02*
X13651429Y40797619D01*
X14032382Y40797619D01*
X14127620Y40750000D01*
X14175239Y40702381D01*
X14222858Y40607143D01*
X14222858Y40464286D01*
X14175239Y40369048D01*
X14127620Y40321429D01*
X14032382Y40273810D01*
X13651429Y40273810D01*
X15080001Y39797619D02*
X15080001Y40321429D01*
X15032382Y40416667D01*
X14937144Y40464286D01*
X14746667Y40464286D01*
X14651429Y40416667D01*
X15080001Y39845238D02*
X14984763Y39797619D01*
X14746667Y39797619D01*
X14651429Y39845238D01*
X14603810Y39940476D01*
X14603810Y40035714D01*
X14651429Y40130952D01*
X14746667Y40178571D01*
X14984763Y40178571D01*
X15080001Y40226190D01*
X15984763Y39797619D02*
X15984763Y40797619D01*
X15984763Y39845238D02*
X15889525Y39797619D01*
X15699048Y39797619D01*
X15603810Y39845238D01*
X15556191Y39892857D01*
X15508572Y39988095D01*
X15508572Y40273810D01*
X15556191Y40369048D01*
X15603810Y40416667D01*
X15699048Y40464286D01*
X15889525Y40464286D01*
X15984763Y40416667D01*
X-5824762Y427619D02*
X-5824762Y1427619D01*
X-5491428Y713333D01*
X-5158095Y1427619D01*
X-5158095Y427619D01*
X-4539048Y427619D02*
X-4634286Y475238D01*
X-4681905Y522857D01*
X-4729524Y618095D01*
X-4729524Y903810D01*
X-4681905Y999048D01*
X-4634286Y1046667D01*
X-4539048Y1094286D01*
X-4396190Y1094286D01*
X-4300952Y1046667D01*
X-4253333Y999048D01*
X-4205714Y903810D01*
X-4205714Y618095D01*
X-4253333Y522857D01*
X-4300952Y475238D01*
X-4396190Y427619D01*
X-4539048Y427619D01*
X-3348571Y1094286D02*
X-3348571Y427619D01*
X-3777143Y1094286D02*
X-3777143Y570476D01*
X-3729524Y475238D01*
X-3634286Y427619D01*
X-3491428Y427619D01*
X-3396190Y475238D01*
X-3348571Y522857D01*
X-2872381Y1094286D02*
X-2872381Y427619D01*
X-2872381Y999048D02*
X-2824762Y1046667D01*
X-2729524Y1094286D01*
X-2586666Y1094286D01*
X-2491428Y1046667D01*
X-2443809Y951429D01*
X-2443809Y427619D01*
X-2110476Y1094286D02*
X-1729524Y1094286D01*
X-1967619Y1427619D02*
X-1967619Y570476D01*
X-1920000Y475238D01*
X-1824762Y427619D01*
X-1729524Y427619D01*
X-1396190Y427619D02*
X-1396190Y1094286D01*
X-1396190Y1427619D02*
X-1443809Y1380000D01*
X-1396190Y1332381D01*
X-1348571Y1380000D01*
X-1396190Y1427619D01*
X-1396190Y1332381D01*
X-920000Y1094286D02*
X-920000Y427619D01*
X-920000Y999048D02*
X-872381Y1046667D01*
X-777143Y1094286D01*
X-634285Y1094286D01*
X-539047Y1046667D01*
X-491428Y951429D01*
X-491428Y427619D01*
X413334Y1094286D02*
X413334Y284762D01*
X365715Y189524D01*
X318096Y141905D01*
X222857Y94286D01*
X80000Y94286D01*
X-15238Y141905D01*
X413334Y475238D02*
X318096Y427619D01*
X127619Y427619D01*
X32381Y475238D01*
X-15238Y522857D01*
X-62857Y618095D01*
X-62857Y903810D01*
X-15238Y999048D01*
X32381Y1046667D01*
X127619Y1094286D01*
X318096Y1094286D01*
X413334Y1046667D01*
X889524Y427619D02*
X889524Y1427619D01*
X889524Y951429D02*
X1460953Y951429D01*
X1460953Y427619D02*
X1460953Y1427619D01*
X2080000Y427619D02*
X1984762Y475238D01*
X1937143Y522857D01*
X1889524Y618095D01*
X1889524Y903810D01*
X1937143Y999048D01*
X1984762Y1046667D01*
X2080000Y1094286D01*
X2222858Y1094286D01*
X2318096Y1046667D01*
X2365715Y999048D01*
X2413334Y903810D01*
X2413334Y618095D01*
X2365715Y522857D01*
X2318096Y475238D01*
X2222858Y427619D01*
X2080000Y427619D01*
X2984762Y427619D02*
X2889524Y475238D01*
X2841905Y570476D01*
X2841905Y1427619D01*
X3746668Y475238D02*
X3651430Y427619D01*
X3460953Y427619D01*
X3365715Y475238D01*
X3318096Y570476D01*
X3318096Y951429D01*
X3365715Y1046667D01*
X3460953Y1094286D01*
X3651430Y1094286D01*
X3746668Y1046667D01*
X3794287Y951429D01*
X3794287Y856190D01*
X3318096Y760952D01*
X3984763Y332381D02*
X4746668Y332381D01*
X4889525Y1427619D02*
X5508573Y1427619D01*
X5175239Y1046667D01*
X5318097Y1046667D01*
X5413335Y999048D01*
X5460954Y951429D01*
X5508573Y856190D01*
X5508573Y618095D01*
X5460954Y522857D01*
X5413335Y475238D01*
X5318097Y427619D01*
X5032382Y427619D01*
X4937144Y475238D01*
X4889525Y522857D01*
X5937144Y522857D02*
X5984763Y475238D01*
X5937144Y427619D01*
X5889525Y475238D01*
X5937144Y522857D01*
X5937144Y427619D01*
X6365715Y1332381D02*
X6413334Y1380000D01*
X6508572Y1427619D01*
X6746668Y1427619D01*
X6841906Y1380000D01*
X6889525Y1332381D01*
X6937144Y1237143D01*
X6937144Y1141905D01*
X6889525Y999048D01*
X6318096Y427619D01*
X6937144Y427619D01*
X7365715Y427619D02*
X7365715Y1094286D01*
X7365715Y999048D02*
X7413334Y1046667D01*
X7508572Y1094286D01*
X7651430Y1094286D01*
X7746668Y1046667D01*
X7794287Y951429D01*
X7794287Y427619D01*
X7794287Y951429D02*
X7841906Y1046667D01*
X7937144Y1094286D01*
X8080001Y1094286D01*
X8175239Y1046667D01*
X8222858Y951429D01*
X8222858Y427619D01*
X8699048Y427619D02*
X8699048Y1094286D01*
X8699048Y999048D02*
X8746667Y1046667D01*
X8841905Y1094286D01*
X8984763Y1094286D01*
X9080001Y1046667D01*
X9127620Y951429D01*
X9127620Y427619D01*
X9127620Y951429D02*
X9175239Y1046667D01*
X9270477Y1094286D01*
X9413334Y1094286D01*
X9508572Y1046667D01*
X9556191Y951429D01*
X9556191Y427619D01*
X9794286Y332381D02*
X10556191Y332381D01*
X10794286Y427619D02*
X10794286Y1427619D01*
X11127620Y713333D01*
X11460953Y1427619D01*
X11460953Y427619D01*
X11841905Y1427619D02*
X12460953Y1427619D01*
X12127619Y1046667D01*
X12270477Y1046667D01*
X12365715Y999048D01*
X12413334Y951429D01*
X12460953Y856190D01*
X12460953Y618095D01*
X12413334Y522857D01*
X12365715Y475238D01*
X12270477Y427619D01*
X11984762Y427619D01*
X11889524Y475238D01*
X11841905Y522857D01*
X12651429Y332381D02*
X13413334Y332381D01*
X13651429Y427619D02*
X13651429Y1427619D01*
X14032382Y1427619D01*
X14127620Y1380000D01*
X14175239Y1332381D01*
X14222858Y1237143D01*
X14222858Y1094286D01*
X14175239Y999048D01*
X14127620Y951429D01*
X14032382Y903810D01*
X13651429Y903810D01*
X15080001Y427619D02*
X15080001Y951429D01*
X15032382Y1046667D01*
X14937144Y1094286D01*
X14746667Y1094286D01*
X14651429Y1046667D01*
X15080001Y475238D02*
X14984763Y427619D01*
X14746667Y427619D01*
X14651429Y475238D01*
X14603810Y570476D01*
X14603810Y665714D01*
X14651429Y760952D01*
X14746667Y808571D01*
X14984763Y808571D01*
X15080001Y856190D01*
X15984763Y427619D02*
X15984763Y1427619D01*
X15984763Y475238D02*
X15889525Y427619D01*
X15699048Y427619D01*
X15603810Y475238D01*
X15556191Y522857D01*
X15508572Y618095D01*
X15508572Y903810D01*
X15556191Y999048D01*
X15603810Y1046667D01*
X15699048Y1094286D01*
X15889525Y1094286D01*
X15984763Y1046667D01*
X133875238Y427619D02*
X133875238Y1427619D01*
X134208572Y713333D01*
X134541905Y1427619D01*
X134541905Y427619D01*
X135160952Y427619D02*
X135065714Y475238D01*
X135018095Y522857D01*
X134970476Y618095D01*
X134970476Y903810D01*
X135018095Y999048D01*
X135065714Y1046667D01*
X135160952Y1094286D01*
X135303810Y1094286D01*
X135399048Y1046667D01*
X135446667Y999048D01*
X135494286Y903810D01*
X135494286Y618095D01*
X135446667Y522857D01*
X135399048Y475238D01*
X135303810Y427619D01*
X135160952Y427619D01*
X136351429Y1094286D02*
X136351429Y427619D01*
X135922857Y1094286D02*
X135922857Y570476D01*
X135970476Y475238D01*
X136065714Y427619D01*
X136208572Y427619D01*
X136303810Y475238D01*
X136351429Y522857D01*
X136827619Y1094286D02*
X136827619Y427619D01*
X136827619Y999048D02*
X136875238Y1046667D01*
X136970476Y1094286D01*
X137113334Y1094286D01*
X137208572Y1046667D01*
X137256191Y951429D01*
X137256191Y427619D01*
X137589524Y1094286D02*
X137970476Y1094286D01*
X137732381Y1427619D02*
X137732381Y570476D01*
X137780000Y475238D01*
X137875238Y427619D01*
X137970476Y427619D01*
X138303810Y427619D02*
X138303810Y1094286D01*
X138303810Y1427619D02*
X138256191Y1380000D01*
X138303810Y1332381D01*
X138351429Y1380000D01*
X138303810Y1427619D01*
X138303810Y1332381D01*
X138780000Y1094286D02*
X138780000Y427619D01*
X138780000Y999048D02*
X138827619Y1046667D01*
X138922857Y1094286D01*
X139065715Y1094286D01*
X139160953Y1046667D01*
X139208572Y951429D01*
X139208572Y427619D01*
X140113334Y1094286D02*
X140113334Y284762D01*
X140065715Y189524D01*
X140018096Y141905D01*
X139922857Y94286D01*
X139780000Y94286D01*
X139684762Y141905D01*
X140113334Y475238D02*
X140018096Y427619D01*
X139827619Y427619D01*
X139732381Y475238D01*
X139684762Y522857D01*
X139637143Y618095D01*
X139637143Y903810D01*
X139684762Y999048D01*
X139732381Y1046667D01*
X139827619Y1094286D01*
X140018096Y1094286D01*
X140113334Y1046667D01*
X140589524Y427619D02*
X140589524Y1427619D01*
X140589524Y951429D02*
X141160953Y951429D01*
X141160953Y427619D02*
X141160953Y1427619D01*
X141780000Y427619D02*
X141684762Y475238D01*
X141637143Y522857D01*
X141589524Y618095D01*
X141589524Y903810D01*
X141637143Y999048D01*
X141684762Y1046667D01*
X141780000Y1094286D01*
X141922858Y1094286D01*
X142018096Y1046667D01*
X142065715Y999048D01*
X142113334Y903810D01*
X142113334Y618095D01*
X142065715Y522857D01*
X142018096Y475238D01*
X141922858Y427619D01*
X141780000Y427619D01*
X142684762Y427619D02*
X142589524Y475238D01*
X142541905Y570476D01*
X142541905Y1427619D01*
X143446668Y475238D02*
X143351430Y427619D01*
X143160953Y427619D01*
X143065715Y475238D01*
X143018096Y570476D01*
X143018096Y951429D01*
X143065715Y1046667D01*
X143160953Y1094286D01*
X143351430Y1094286D01*
X143446668Y1046667D01*
X143494287Y951429D01*
X143494287Y856190D01*
X143018096Y760952D01*
X143684763Y332381D02*
X144446668Y332381D01*
X144589525Y1427619D02*
X145208573Y1427619D01*
X144875239Y1046667D01*
X145018097Y1046667D01*
X145113335Y999048D01*
X145160954Y951429D01*
X145208573Y856190D01*
X145208573Y618095D01*
X145160954Y522857D01*
X145113335Y475238D01*
X145018097Y427619D01*
X144732382Y427619D01*
X144637144Y475238D01*
X144589525Y522857D01*
X145637144Y522857D02*
X145684763Y475238D01*
X145637144Y427619D01*
X145589525Y475238D01*
X145637144Y522857D01*
X145637144Y427619D01*
X146065715Y1332381D02*
X146113334Y1380000D01*
X146208572Y1427619D01*
X146446668Y1427619D01*
X146541906Y1380000D01*
X146589525Y1332381D01*
X146637144Y1237143D01*
X146637144Y1141905D01*
X146589525Y999048D01*
X146018096Y427619D01*
X146637144Y427619D01*
X147065715Y427619D02*
X147065715Y1094286D01*
X147065715Y999048D02*
X147113334Y1046667D01*
X147208572Y1094286D01*
X147351430Y1094286D01*
X147446668Y1046667D01*
X147494287Y951429D01*
X147494287Y427619D01*
X147494287Y951429D02*
X147541906Y1046667D01*
X147637144Y1094286D01*
X147780001Y1094286D01*
X147875239Y1046667D01*
X147922858Y951429D01*
X147922858Y427619D01*
X148399048Y427619D02*
X148399048Y1094286D01*
X148399048Y999048D02*
X148446667Y1046667D01*
X148541905Y1094286D01*
X148684763Y1094286D01*
X148780001Y1046667D01*
X148827620Y951429D01*
X148827620Y427619D01*
X148827620Y951429D02*
X148875239Y1046667D01*
X148970477Y1094286D01*
X149113334Y1094286D01*
X149208572Y1046667D01*
X149256191Y951429D01*
X149256191Y427619D01*
X149494286Y332381D02*
X150256191Y332381D01*
X150494286Y427619D02*
X150494286Y1427619D01*
X150827620Y713333D01*
X151160953Y1427619D01*
X151160953Y427619D01*
X151541905Y1427619D02*
X152160953Y1427619D01*
X151827619Y1046667D01*
X151970477Y1046667D01*
X152065715Y999048D01*
X152113334Y951429D01*
X152160953Y856190D01*
X152160953Y618095D01*
X152113334Y522857D01*
X152065715Y475238D01*
X151970477Y427619D01*
X151684762Y427619D01*
X151589524Y475238D01*
X151541905Y522857D01*
X152351429Y332381D02*
X153113334Y332381D01*
X153351429Y427619D02*
X153351429Y1427619D01*
X153732382Y1427619D01*
X153827620Y1380000D01*
X153875239Y1332381D01*
X153922858Y1237143D01*
X153922858Y1094286D01*
X153875239Y999048D01*
X153827620Y951429D01*
X153732382Y903810D01*
X153351429Y903810D01*
X154780001Y427619D02*
X154780001Y951429D01*
X154732382Y1046667D01*
X154637144Y1094286D01*
X154446667Y1094286D01*
X154351429Y1046667D01*
X154780001Y475238D02*
X154684763Y427619D01*
X154446667Y427619D01*
X154351429Y475238D01*
X154303810Y570476D01*
X154303810Y665714D01*
X154351429Y760952D01*
X154446667Y808571D01*
X154684763Y808571D01*
X154780001Y856190D01*
X155684763Y427619D02*
X155684763Y1427619D01*
X155684763Y475238D02*
X155589525Y427619D01*
X155399048Y427619D01*
X155303810Y475238D01*
X155256191Y522857D01*
X155208572Y618095D01*
X155208572Y903810D01*
X155256191Y999048D01*
X155303810Y1046667D01*
X155399048Y1094286D01*
X155589525Y1094286D01*
X155684763Y1046667D01*
X133875238Y39797619D02*
X133875238Y40797619D01*
X134208572Y40083333D01*
X134541905Y40797619D01*
X134541905Y39797619D01*
X135160952Y39797619D02*
X135065714Y39845238D01*
X135018095Y39892857D01*
X134970476Y39988095D01*
X134970476Y40273810D01*
X135018095Y40369048D01*
X135065714Y40416667D01*
X135160952Y40464286D01*
X135303810Y40464286D01*
X135399048Y40416667D01*
X135446667Y40369048D01*
X135494286Y40273810D01*
X135494286Y39988095D01*
X135446667Y39892857D01*
X135399048Y39845238D01*
X135303810Y39797619D01*
X135160952Y39797619D01*
X136351429Y40464286D02*
X136351429Y39797619D01*
X135922857Y40464286D02*
X135922857Y39940476D01*
X135970476Y39845238D01*
X136065714Y39797619D01*
X136208572Y39797619D01*
X136303810Y39845238D01*
X136351429Y39892857D01*
X136827619Y40464286D02*
X136827619Y39797619D01*
X136827619Y40369048D02*
X136875238Y40416667D01*
X136970476Y40464286D01*
X137113334Y40464286D01*
X137208572Y40416667D01*
X137256191Y40321429D01*
X137256191Y39797619D01*
X137589524Y40464286D02*
X137970476Y40464286D01*
X137732381Y40797619D02*
X137732381Y39940476D01*
X137780000Y39845238D01*
X137875238Y39797619D01*
X137970476Y39797619D01*
X138303810Y39797619D02*
X138303810Y40464286D01*
X138303810Y40797619D02*
X138256191Y40750000D01*
X138303810Y40702381D01*
X138351429Y40750000D01*
X138303810Y40797619D01*
X138303810Y40702381D01*
X138780000Y40464286D02*
X138780000Y39797619D01*
X138780000Y40369048D02*
X138827619Y40416667D01*
X138922857Y40464286D01*
X139065715Y40464286D01*
X139160953Y40416667D01*
X139208572Y40321429D01*
X139208572Y39797619D01*
X140113334Y40464286D02*
X140113334Y39654762D01*
X140065715Y39559524D01*
X140018096Y39511905D01*
X139922857Y39464286D01*
X139780000Y39464286D01*
X139684762Y39511905D01*
X140113334Y39845238D02*
X140018096Y39797619D01*
X139827619Y39797619D01*
X139732381Y39845238D01*
X139684762Y39892857D01*
X139637143Y39988095D01*
X139637143Y40273810D01*
X139684762Y40369048D01*
X139732381Y40416667D01*
X139827619Y40464286D01*
X140018096Y40464286D01*
X140113334Y40416667D01*
X140589524Y39797619D02*
X140589524Y40797619D01*
X140589524Y40321429D02*
X141160953Y40321429D01*
X141160953Y39797619D02*
X141160953Y40797619D01*
X141780000Y39797619D02*
X141684762Y39845238D01*
X141637143Y39892857D01*
X141589524Y39988095D01*
X141589524Y40273810D01*
X141637143Y40369048D01*
X141684762Y40416667D01*
X141780000Y40464286D01*
X141922858Y40464286D01*
X142018096Y40416667D01*
X142065715Y40369048D01*
X142113334Y40273810D01*
X142113334Y39988095D01*
X142065715Y39892857D01*
X142018096Y39845238D01*
X141922858Y39797619D01*
X141780000Y39797619D01*
X142684762Y39797619D02*
X142589524Y39845238D01*
X142541905Y39940476D01*
X142541905Y40797619D01*
X143446668Y39845238D02*
X143351430Y39797619D01*
X143160953Y39797619D01*
X143065715Y39845238D01*
X143018096Y39940476D01*
X143018096Y40321429D01*
X143065715Y40416667D01*
X143160953Y40464286D01*
X143351430Y40464286D01*
X143446668Y40416667D01*
X143494287Y40321429D01*
X143494287Y40226190D01*
X143018096Y40130952D01*
X143684763Y39702381D02*
X144446668Y39702381D01*
X144589525Y40797619D02*
X145208573Y40797619D01*
X144875239Y40416667D01*
X145018097Y40416667D01*
X145113335Y40369048D01*
X145160954Y40321429D01*
X145208573Y40226190D01*
X145208573Y39988095D01*
X145160954Y39892857D01*
X145113335Y39845238D01*
X145018097Y39797619D01*
X144732382Y39797619D01*
X144637144Y39845238D01*
X144589525Y39892857D01*
X145637144Y39892857D02*
X145684763Y39845238D01*
X145637144Y39797619D01*
X145589525Y39845238D01*
X145637144Y39892857D01*
X145637144Y39797619D01*
X146065715Y40702381D02*
X146113334Y40750000D01*
X146208572Y40797619D01*
X146446668Y40797619D01*
X146541906Y40750000D01*
X146589525Y40702381D01*
X146637144Y40607143D01*
X146637144Y40511905D01*
X146589525Y40369048D01*
X146018096Y39797619D01*
X146637144Y39797619D01*
X147065715Y39797619D02*
X147065715Y40464286D01*
X147065715Y40369048D02*
X147113334Y40416667D01*
X147208572Y40464286D01*
X147351430Y40464286D01*
X147446668Y40416667D01*
X147494287Y40321429D01*
X147494287Y39797619D01*
X147494287Y40321429D02*
X147541906Y40416667D01*
X147637144Y40464286D01*
X147780001Y40464286D01*
X147875239Y40416667D01*
X147922858Y40321429D01*
X147922858Y39797619D01*
X148399048Y39797619D02*
X148399048Y40464286D01*
X148399048Y40369048D02*
X148446667Y40416667D01*
X148541905Y40464286D01*
X148684763Y40464286D01*
X148780001Y40416667D01*
X148827620Y40321429D01*
X148827620Y39797619D01*
X148827620Y40321429D02*
X148875239Y40416667D01*
X148970477Y40464286D01*
X149113334Y40464286D01*
X149208572Y40416667D01*
X149256191Y40321429D01*
X149256191Y39797619D01*
X149494286Y39702381D02*
X150256191Y39702381D01*
X150494286Y39797619D02*
X150494286Y40797619D01*
X150827620Y40083333D01*
X151160953Y40797619D01*
X151160953Y39797619D01*
X151541905Y40797619D02*
X152160953Y40797619D01*
X151827619Y40416667D01*
X151970477Y40416667D01*
X152065715Y40369048D01*
X152113334Y40321429D01*
X152160953Y40226190D01*
X152160953Y39988095D01*
X152113334Y39892857D01*
X152065715Y39845238D01*
X151970477Y39797619D01*
X151684762Y39797619D01*
X151589524Y39845238D01*
X151541905Y39892857D01*
X152351429Y39702381D02*
X153113334Y39702381D01*
X153351429Y39797619D02*
X153351429Y40797619D01*
X153732382Y40797619D01*
X153827620Y40750000D01*
X153875239Y40702381D01*
X153922858Y40607143D01*
X153922858Y40464286D01*
X153875239Y40369048D01*
X153827620Y40321429D01*
X153732382Y40273810D01*
X153351429Y40273810D01*
X154780001Y39797619D02*
X154780001Y40321429D01*
X154732382Y40416667D01*
X154637144Y40464286D01*
X154446667Y40464286D01*
X154351429Y40416667D01*
X154780001Y39845238D02*
X154684763Y39797619D01*
X154446667Y39797619D01*
X154351429Y39845238D01*
X154303810Y39940476D01*
X154303810Y40035714D01*
X154351429Y40130952D01*
X154446667Y40178571D01*
X154684763Y40178571D01*
X154780001Y40226190D01*
X155684763Y39797619D02*
X155684763Y40797619D01*
X155684763Y39845238D02*
X155589525Y39797619D01*
X155399048Y39797619D01*
X155303810Y39845238D01*
X155256191Y39892857D01*
X155208572Y39988095D01*
X155208572Y40273810D01*
X155256191Y40369048D01*
X155303810Y40416667D01*
X155399048Y40464286D01*
X155589525Y40464286D01*
X155684763Y40416667D01*
X-2196667Y2992429D02*
X-2530001Y2992429D01*
X-2530001Y2468619D02*
X-2530001Y3468619D01*
X-2053810Y3468619D01*
X-1672858Y2468619D02*
X-1672858Y3135286D01*
X-1672858Y3468619D02*
X-1720477Y3421000D01*
X-1672858Y3373381D01*
X-1625239Y3421000D01*
X-1672858Y3468619D01*
X-1672858Y3373381D01*
X-768096Y2468619D02*
X-768096Y3468619D01*
X-768096Y2516238D02*
X-863334Y2468619D01*
X-1053811Y2468619D01*
X-1149049Y2516238D01*
X-1196668Y2563857D01*
X-1244287Y2659095D01*
X-1244287Y2944810D01*
X-1196668Y3040048D01*
X-1149049Y3087667D01*
X-1053811Y3135286D01*
X-863334Y3135286D01*
X-768096Y3087667D01*
X136666Y3135286D02*
X136666Y2468619D01*
X-291906Y3135286D02*
X-291906Y2611476D01*
X-244287Y2516238D01*
X-149049Y2468619D01*
X-6191Y2468619D01*
X89047Y2516238D01*
X136666Y2563857D01*
X1041428Y2516238D02*
X946190Y2468619D01*
X755713Y2468619D01*
X660475Y2516238D01*
X612856Y2563857D01*
X565237Y2659095D01*
X565237Y2944810D01*
X612856Y3040048D01*
X660475Y3087667D01*
X755713Y3135286D01*
X946190Y3135286D01*
X1041428Y3087667D01*
X1469999Y2468619D02*
X1469999Y3135286D01*
X1469999Y3468619D02*
X1422380Y3421000D01*
X1469999Y3373381D01*
X1517618Y3421000D01*
X1469999Y3468619D01*
X1469999Y3373381D01*
X2374761Y2468619D02*
X2374761Y2992429D01*
X2327142Y3087667D01*
X2231904Y3135286D01*
X2041427Y3135286D01*
X1946189Y3087667D01*
X2374761Y2516238D02*
X2279523Y2468619D01*
X2041427Y2468619D01*
X1946189Y2516238D01*
X1898570Y2611476D01*
X1898570Y2706714D01*
X1946189Y2801952D01*
X2041427Y2849571D01*
X2279523Y2849571D01*
X2374761Y2897190D01*
X2993808Y2468619D02*
X2898570Y2516238D01*
X2850951Y2611476D01*
X2850951Y3468619D01*
X3136666Y2373381D02*
X3898571Y2373381D01*
X4660476Y2468619D02*
X4089047Y2468619D01*
X4374761Y2468619D02*
X4374761Y3468619D01*
X4279523Y3325762D01*
X4184285Y3230524D01*
X4089047Y3182905D01*
X5089047Y2468619D02*
X5089047Y3135286D01*
X5089047Y3040048D02*
X5136666Y3087667D01*
X5231904Y3135286D01*
X5374762Y3135286D01*
X5470000Y3087667D01*
X5517619Y2992429D01*
X5517619Y2468619D01*
X5517619Y2992429D02*
X5565238Y3087667D01*
X5660476Y3135286D01*
X5803333Y3135286D01*
X5898571Y3087667D01*
X5946190Y2992429D01*
X5946190Y2468619D01*
X6422380Y2468619D02*
X6422380Y3135286D01*
X6422380Y3040048D02*
X6469999Y3087667D01*
X6565237Y3135286D01*
X6708095Y3135286D01*
X6803333Y3087667D01*
X6850952Y2992429D01*
X6850952Y2468619D01*
X6850952Y2992429D02*
X6898571Y3087667D01*
X6993809Y3135286D01*
X7136666Y3135286D01*
X7231904Y3087667D01*
X7279523Y2992429D01*
X7279523Y2468619D01*
X7517618Y2373381D02*
X8279523Y2373381D01*
X8517618Y2468619D02*
X8517618Y3468619D01*
X8755713Y3468619D01*
X8898571Y3421000D01*
X8993809Y3325762D01*
X9041428Y3230524D01*
X9089047Y3040048D01*
X9089047Y2897190D01*
X9041428Y2706714D01*
X8993809Y2611476D01*
X8898571Y2516238D01*
X8755713Y2468619D01*
X8517618Y2468619D01*
X9517618Y2468619D02*
X9517618Y3135286D01*
X9517618Y3468619D02*
X9469999Y3421000D01*
X9517618Y3373381D01*
X9565237Y3421000D01*
X9517618Y3468619D01*
X9517618Y3373381D01*
X10422380Y2468619D02*
X10422380Y2992429D01*
X10374761Y3087667D01*
X10279523Y3135286D01*
X10089046Y3135286D01*
X9993808Y3087667D01*
X10422380Y2516238D02*
X10327142Y2468619D01*
X10089046Y2468619D01*
X9993808Y2516238D01*
X9946189Y2611476D01*
X9946189Y2706714D01*
X9993808Y2801952D01*
X10089046Y2849571D01*
X10327142Y2849571D01*
X10422380Y2897190D01*
X10660475Y2373381D02*
X11422380Y2373381D01*
X11612856Y3373381D02*
X11660475Y3421000D01*
X11755713Y3468619D01*
X11993809Y3468619D01*
X12089047Y3421000D01*
X12136666Y3373381D01*
X12184285Y3278143D01*
X12184285Y3182905D01*
X12136666Y3040048D01*
X11565237Y2468619D01*
X12184285Y2468619D01*
X12612856Y2563857D02*
X12660475Y2516238D01*
X12612856Y2468619D01*
X12565237Y2516238D01*
X12612856Y2563857D01*
X12612856Y2468619D01*
X13565237Y3468619D02*
X13089046Y3468619D01*
X13041427Y2992429D01*
X13089046Y3040048D01*
X13184284Y3087667D01*
X13422380Y3087667D01*
X13517618Y3040048D01*
X13565237Y2992429D01*
X13612856Y2897190D01*
X13612856Y2659095D01*
X13565237Y2563857D01*
X13517618Y2516238D01*
X13422380Y2468619D01*
X13184284Y2468619D01*
X13089046Y2516238D01*
X13041427Y2563857D01*
X14469999Y3135286D02*
X14469999Y2468619D01*
X14231903Y3516238D02*
X13993808Y2801952D01*
X14612856Y2801952D01*
X14993808Y2468619D02*
X14993808Y3135286D01*
X14993808Y3040048D02*
X15041427Y3087667D01*
X15136665Y3135286D01*
X15279523Y3135286D01*
X15374761Y3087667D01*
X15422380Y2992429D01*
X15422380Y2468619D01*
X15422380Y2992429D02*
X15469999Y3087667D01*
X15565237Y3135286D01*
X15708094Y3135286D01*
X15803332Y3087667D01*
X15850951Y2992429D01*
X15850951Y2468619D01*
X16327141Y2468619D02*
X16327141Y3135286D01*
X16327141Y3040048D02*
X16374760Y3087667D01*
X16469998Y3135286D01*
X16612856Y3135286D01*
X16708094Y3087667D01*
X16755713Y2992429D01*
X16755713Y2468619D01*
X16755713Y2992429D02*
X16803332Y3087667D01*
X16898570Y3135286D01*
X17041427Y3135286D01*
X17136665Y3087667D01*
X17184284Y2992429D01*
X17184284Y2468619D01*
X17422379Y2373381D02*
X18184284Y2373381D01*
X18612855Y3468619D02*
X18803332Y3468619D01*
X18898570Y3421000D01*
X18993808Y3325762D01*
X19041427Y3135286D01*
X19041427Y2801952D01*
X18993808Y2611476D01*
X18898570Y2516238D01*
X18803332Y2468619D01*
X18612855Y2468619D01*
X18517617Y2516238D01*
X18422379Y2611476D01*
X18374760Y2801952D01*
X18374760Y3135286D01*
X18422379Y3325762D01*
X18517617Y3421000D01*
X18612855Y3468619D01*
X19898570Y3135286D02*
X19898570Y2468619D01*
X19469998Y3135286D02*
X19469998Y2611476D01*
X19517617Y2516238D01*
X19612855Y2468619D01*
X19755713Y2468619D01*
X19850951Y2516238D01*
X19898570Y2563857D01*
X20231903Y3135286D02*
X20612855Y3135286D01*
X20374760Y3468619D02*
X20374760Y2611476D01*
X20422379Y2516238D01*
X20517617Y2468619D01*
X20612855Y2468619D01*
X21327142Y2516238D02*
X21231904Y2468619D01*
X21041427Y2468619D01*
X20946189Y2516238D01*
X20898570Y2611476D01*
X20898570Y2992429D01*
X20946189Y3087667D01*
X21041427Y3135286D01*
X21231904Y3135286D01*
X21327142Y3087667D01*
X21374761Y2992429D01*
X21374761Y2897190D01*
X20898570Y2801952D01*
X21803332Y2468619D02*
X21803332Y3135286D01*
X21803332Y2944810D02*
X21850951Y3040048D01*
X21898570Y3087667D01*
X21993808Y3135286D01*
X22089047Y3135286D01*
X22184285Y2373381D02*
X22946190Y2373381D01*
X23755714Y2563857D02*
X23708095Y2516238D01*
X23565238Y2468619D01*
X23470000Y2468619D01*
X23327142Y2516238D01*
X23231904Y2611476D01*
X23184285Y2706714D01*
X23136666Y2897190D01*
X23136666Y3040048D01*
X23184285Y3230524D01*
X23231904Y3325762D01*
X23327142Y3421000D01*
X23470000Y3468619D01*
X23565238Y3468619D01*
X23708095Y3421000D01*
X23755714Y3373381D01*
X24327142Y2468619D02*
X24231904Y2516238D01*
X24184285Y2563857D01*
X24136666Y2659095D01*
X24136666Y2944810D01*
X24184285Y3040048D01*
X24231904Y3087667D01*
X24327142Y3135286D01*
X24470000Y3135286D01*
X24565238Y3087667D01*
X24612857Y3040048D01*
X24660476Y2944810D01*
X24660476Y2659095D01*
X24612857Y2563857D01*
X24565238Y2516238D01*
X24470000Y2468619D01*
X24327142Y2468619D01*
X25089047Y3135286D02*
X25089047Y2135286D01*
X25089047Y3087667D02*
X25184285Y3135286D01*
X25374762Y3135286D01*
X25470000Y3087667D01*
X25517619Y3040048D01*
X25565238Y2944810D01*
X25565238Y2659095D01*
X25517619Y2563857D01*
X25470000Y2516238D01*
X25374762Y2468619D01*
X25184285Y2468619D01*
X25089047Y2516238D01*
X25993809Y3135286D02*
X25993809Y2135286D01*
X25993809Y3087667D02*
X26089047Y3135286D01*
X26279524Y3135286D01*
X26374762Y3087667D01*
X26422381Y3040048D01*
X26470000Y2944810D01*
X26470000Y2659095D01*
X26422381Y2563857D01*
X26374762Y2516238D01*
X26279524Y2468619D01*
X26089047Y2468619D01*
X25993809Y2516238D01*
X27279524Y2516238D02*
X27184286Y2468619D01*
X26993809Y2468619D01*
X26898571Y2516238D01*
X26850952Y2611476D01*
X26850952Y2992429D01*
X26898571Y3087667D01*
X26993809Y3135286D01*
X27184286Y3135286D01*
X27279524Y3087667D01*
X27327143Y2992429D01*
X27327143Y2897190D01*
X26850952Y2801952D01*
X27755714Y2468619D02*
X27755714Y3135286D01*
X27755714Y2944810D02*
X27803333Y3040048D01*
X27850952Y3087667D01*
X27946190Y3135286D01*
X28041429Y3135286D01*
X28231905Y3468619D02*
X28803334Y3468619D01*
X28517619Y2468619D02*
X28517619Y3468619D01*
X29279524Y2468619D02*
X29184286Y2516238D01*
X29136667Y2563857D01*
X29089048Y2659095D01*
X29089048Y2944810D01*
X29136667Y3040048D01*
X29184286Y3087667D01*
X29279524Y3135286D01*
X29422382Y3135286D01*
X29517620Y3087667D01*
X29565239Y3040048D01*
X29612858Y2944810D01*
X29612858Y2659095D01*
X29565239Y2563857D01*
X29517620Y2516238D01*
X29422382Y2468619D01*
X29279524Y2468619D01*
X30041429Y3135286D02*
X30041429Y2135286D01*
X30041429Y3087667D02*
X30136667Y3135286D01*
X30327144Y3135286D01*
X30422382Y3087667D01*
X30470001Y3040048D01*
X30517620Y2944810D01*
X30517620Y2659095D01*
X30470001Y2563857D01*
X30422382Y2516238D01*
X30327144Y2468619D01*
X30136667Y2468619D01*
X30041429Y2516238D01*
X145123333Y32075429D02*
X144789999Y32075429D01*
X144789999Y31551619D02*
X144789999Y32551619D01*
X145266190Y32551619D01*
X145647142Y31551619D02*
X145647142Y32218286D01*
X145647142Y32551619D02*
X145599523Y32504000D01*
X145647142Y32456381D01*
X145694761Y32504000D01*
X145647142Y32551619D01*
X145647142Y32456381D01*
X146551904Y31551619D02*
X146551904Y32551619D01*
X146551904Y31599238D02*
X146456666Y31551619D01*
X146266189Y31551619D01*
X146170951Y31599238D01*
X146123332Y31646857D01*
X146075713Y31742095D01*
X146075713Y32027810D01*
X146123332Y32123048D01*
X146170951Y32170667D01*
X146266189Y32218286D01*
X146456666Y32218286D01*
X146551904Y32170667D01*
X147456666Y32218286D02*
X147456666Y31551619D01*
X147028094Y32218286D02*
X147028094Y31694476D01*
X147075713Y31599238D01*
X147170951Y31551619D01*
X147313809Y31551619D01*
X147409047Y31599238D01*
X147456666Y31646857D01*
X148361428Y31599238D02*
X148266190Y31551619D01*
X148075713Y31551619D01*
X147980475Y31599238D01*
X147932856Y31646857D01*
X147885237Y31742095D01*
X147885237Y32027810D01*
X147932856Y32123048D01*
X147980475Y32170667D01*
X148075713Y32218286D01*
X148266190Y32218286D01*
X148361428Y32170667D01*
X148789999Y31551619D02*
X148789999Y32218286D01*
X148789999Y32551619D02*
X148742380Y32504000D01*
X148789999Y32456381D01*
X148837618Y32504000D01*
X148789999Y32551619D01*
X148789999Y32456381D01*
X149694761Y31551619D02*
X149694761Y32075429D01*
X149647142Y32170667D01*
X149551904Y32218286D01*
X149361427Y32218286D01*
X149266189Y32170667D01*
X149694761Y31599238D02*
X149599523Y31551619D01*
X149361427Y31551619D01*
X149266189Y31599238D01*
X149218570Y31694476D01*
X149218570Y31789714D01*
X149266189Y31884952D01*
X149361427Y31932571D01*
X149599523Y31932571D01*
X149694761Y31980190D01*
X150313808Y31551619D02*
X150218570Y31599238D01*
X150170951Y31694476D01*
X150170951Y32551619D01*
X150456666Y31456381D02*
X151218571Y31456381D01*
X151980476Y31551619D02*
X151409047Y31551619D01*
X151694761Y31551619D02*
X151694761Y32551619D01*
X151599523Y32408762D01*
X151504285Y32313524D01*
X151409047Y32265905D01*
X152409047Y31551619D02*
X152409047Y32218286D01*
X152409047Y32123048D02*
X152456666Y32170667D01*
X152551904Y32218286D01*
X152694762Y32218286D01*
X152790000Y32170667D01*
X152837619Y32075429D01*
X152837619Y31551619D01*
X152837619Y32075429D02*
X152885238Y32170667D01*
X152980476Y32218286D01*
X153123333Y32218286D01*
X153218571Y32170667D01*
X153266190Y32075429D01*
X153266190Y31551619D01*
X153742380Y31551619D02*
X153742380Y32218286D01*
X153742380Y32123048D02*
X153789999Y32170667D01*
X153885237Y32218286D01*
X154028095Y32218286D01*
X154123333Y32170667D01*
X154170952Y32075429D01*
X154170952Y31551619D01*
X154170952Y32075429D02*
X154218571Y32170667D01*
X154313809Y32218286D01*
X154456666Y32218286D01*
X154551904Y32170667D01*
X154599523Y32075429D01*
X154599523Y31551619D01*
X154837618Y31456381D02*
X155599523Y31456381D01*
X155837618Y31551619D02*
X155837618Y32551619D01*
X156075713Y32551619D01*
X156218571Y32504000D01*
X156313809Y32408762D01*
X156361428Y32313524D01*
X156409047Y32123048D01*
X156409047Y31980190D01*
X156361428Y31789714D01*
X156313809Y31694476D01*
X156218571Y31599238D01*
X156075713Y31551619D01*
X155837618Y31551619D01*
X156837618Y31551619D02*
X156837618Y32218286D01*
X156837618Y32551619D02*
X156789999Y32504000D01*
X156837618Y32456381D01*
X156885237Y32504000D01*
X156837618Y32551619D01*
X156837618Y32456381D01*
X157742380Y31551619D02*
X157742380Y32075429D01*
X157694761Y32170667D01*
X157599523Y32218286D01*
X157409046Y32218286D01*
X157313808Y32170667D01*
X157742380Y31599238D02*
X157647142Y31551619D01*
X157409046Y31551619D01*
X157313808Y31599238D01*
X157266189Y31694476D01*
X157266189Y31789714D01*
X157313808Y31884952D01*
X157409046Y31932571D01*
X157647142Y31932571D01*
X157742380Y31980190D01*
X157980475Y31456381D02*
X158742380Y31456381D01*
X158932856Y32456381D02*
X158980475Y32504000D01*
X159075713Y32551619D01*
X159313809Y32551619D01*
X159409047Y32504000D01*
X159456666Y32456381D01*
X159504285Y32361143D01*
X159504285Y32265905D01*
X159456666Y32123048D01*
X158885237Y31551619D01*
X159504285Y31551619D01*
X159932856Y31646857D02*
X159980475Y31599238D01*
X159932856Y31551619D01*
X159885237Y31599238D01*
X159932856Y31646857D01*
X159932856Y31551619D01*
X160885237Y32551619D02*
X160409046Y32551619D01*
X160361427Y32075429D01*
X160409046Y32123048D01*
X160504284Y32170667D01*
X160742380Y32170667D01*
X160837618Y32123048D01*
X160885237Y32075429D01*
X160932856Y31980190D01*
X160932856Y31742095D01*
X160885237Y31646857D01*
X160837618Y31599238D01*
X160742380Y31551619D01*
X160504284Y31551619D01*
X160409046Y31599238D01*
X160361427Y31646857D01*
X161789999Y32218286D02*
X161789999Y31551619D01*
X161551903Y32599238D02*
X161313808Y31884952D01*
X161932856Y31884952D01*
X162313808Y31551619D02*
X162313808Y32218286D01*
X162313808Y32123048D02*
X162361427Y32170667D01*
X162456665Y32218286D01*
X162599523Y32218286D01*
X162694761Y32170667D01*
X162742380Y32075429D01*
X162742380Y31551619D01*
X162742380Y32075429D02*
X162789999Y32170667D01*
X162885237Y32218286D01*
X163028094Y32218286D01*
X163123332Y32170667D01*
X163170951Y32075429D01*
X163170951Y31551619D01*
X163647141Y31551619D02*
X163647141Y32218286D01*
X163647141Y32123048D02*
X163694760Y32170667D01*
X163789998Y32218286D01*
X163932856Y32218286D01*
X164028094Y32170667D01*
X164075713Y32075429D01*
X164075713Y31551619D01*
X164075713Y32075429D02*
X164123332Y32170667D01*
X164218570Y32218286D01*
X164361427Y32218286D01*
X164456665Y32170667D01*
X164504284Y32075429D01*
X164504284Y31551619D01*
X164742379Y31456381D02*
X165504284Y31456381D01*
X165932855Y32551619D02*
X166123332Y32551619D01*
X166218570Y32504000D01*
X166313808Y32408762D01*
X166361427Y32218286D01*
X166361427Y31884952D01*
X166313808Y31694476D01*
X166218570Y31599238D01*
X166123332Y31551619D01*
X165932855Y31551619D01*
X165837617Y31599238D01*
X165742379Y31694476D01*
X165694760Y31884952D01*
X165694760Y32218286D01*
X165742379Y32408762D01*
X165837617Y32504000D01*
X165932855Y32551619D01*
X167218570Y32218286D02*
X167218570Y31551619D01*
X166789998Y32218286D02*
X166789998Y31694476D01*
X166837617Y31599238D01*
X166932855Y31551619D01*
X167075713Y31551619D01*
X167170951Y31599238D01*
X167218570Y31646857D01*
X167551903Y32218286D02*
X167932855Y32218286D01*
X167694760Y32551619D02*
X167694760Y31694476D01*
X167742379Y31599238D01*
X167837617Y31551619D01*
X167932855Y31551619D01*
X168647142Y31599238D02*
X168551904Y31551619D01*
X168361427Y31551619D01*
X168266189Y31599238D01*
X168218570Y31694476D01*
X168218570Y32075429D01*
X168266189Y32170667D01*
X168361427Y32218286D01*
X168551904Y32218286D01*
X168647142Y32170667D01*
X168694761Y32075429D01*
X168694761Y31980190D01*
X168218570Y31884952D01*
X169123332Y31551619D02*
X169123332Y32218286D01*
X169123332Y32027810D02*
X169170951Y32123048D01*
X169218570Y32170667D01*
X169313808Y32218286D01*
X169409047Y32218286D01*
X169504285Y31456381D02*
X170266190Y31456381D01*
X171075714Y31646857D02*
X171028095Y31599238D01*
X170885238Y31551619D01*
X170790000Y31551619D01*
X170647142Y31599238D01*
X170551904Y31694476D01*
X170504285Y31789714D01*
X170456666Y31980190D01*
X170456666Y32123048D01*
X170504285Y32313524D01*
X170551904Y32408762D01*
X170647142Y32504000D01*
X170790000Y32551619D01*
X170885238Y32551619D01*
X171028095Y32504000D01*
X171075714Y32456381D01*
X171647142Y31551619D02*
X171551904Y31599238D01*
X171504285Y31646857D01*
X171456666Y31742095D01*
X171456666Y32027810D01*
X171504285Y32123048D01*
X171551904Y32170667D01*
X171647142Y32218286D01*
X171790000Y32218286D01*
X171885238Y32170667D01*
X171932857Y32123048D01*
X171980476Y32027810D01*
X171980476Y31742095D01*
X171932857Y31646857D01*
X171885238Y31599238D01*
X171790000Y31551619D01*
X171647142Y31551619D01*
X172409047Y32218286D02*
X172409047Y31218286D01*
X172409047Y32170667D02*
X172504285Y32218286D01*
X172694762Y32218286D01*
X172790000Y32170667D01*
X172837619Y32123048D01*
X172885238Y32027810D01*
X172885238Y31742095D01*
X172837619Y31646857D01*
X172790000Y31599238D01*
X172694762Y31551619D01*
X172504285Y31551619D01*
X172409047Y31599238D01*
X173313809Y32218286D02*
X173313809Y31218286D01*
X173313809Y32170667D02*
X173409047Y32218286D01*
X173599524Y32218286D01*
X173694762Y32170667D01*
X173742381Y32123048D01*
X173790000Y32027810D01*
X173790000Y31742095D01*
X173742381Y31646857D01*
X173694762Y31599238D01*
X173599524Y31551619D01*
X173409047Y31551619D01*
X173313809Y31599238D01*
X174599524Y31599238D02*
X174504286Y31551619D01*
X174313809Y31551619D01*
X174218571Y31599238D01*
X174170952Y31694476D01*
X174170952Y32075429D01*
X174218571Y32170667D01*
X174313809Y32218286D01*
X174504286Y32218286D01*
X174599524Y32170667D01*
X174647143Y32075429D01*
X174647143Y31980190D01*
X174170952Y31884952D01*
X175075714Y31551619D02*
X175075714Y32218286D01*
X175075714Y32027810D02*
X175123333Y32123048D01*
X175170952Y32170667D01*
X175266190Y32218286D01*
X175361429Y32218286D01*
X175551905Y32551619D02*
X176123334Y32551619D01*
X175837619Y31551619D02*
X175837619Y32551619D01*
X176599524Y31551619D02*
X176504286Y31599238D01*
X176456667Y31646857D01*
X176409048Y31742095D01*
X176409048Y32027810D01*
X176456667Y32123048D01*
X176504286Y32170667D01*
X176599524Y32218286D01*
X176742382Y32218286D01*
X176837620Y32170667D01*
X176885239Y32123048D01*
X176932858Y32027810D01*
X176932858Y31742095D01*
X176885239Y31646857D01*
X176837620Y31599238D01*
X176742382Y31551619D01*
X176599524Y31551619D01*
X177361429Y32218286D02*
X177361429Y31218286D01*
X177361429Y32170667D02*
X177456667Y32218286D01*
X177647144Y32218286D01*
X177742382Y32170667D01*
X177790001Y32123048D01*
X177837620Y32027810D01*
X177837620Y31742095D01*
X177790001Y31646857D01*
X177742382Y31599238D01*
X177647144Y31551619D01*
X177456667Y31551619D01*
X177361429Y31599238D01*
X41727381Y19073953D02*
X41727381Y18502524D01*
X41727381Y18788238D02*
X40727381Y18788238D01*
X40870238Y18693000D01*
X40965476Y18597762D01*
X41013095Y18502524D01*
X40727381Y19693000D02*
X40727381Y19788239D01*
X40775000Y19883477D01*
X40822619Y19931096D01*
X40917857Y19978715D01*
X41108333Y20026334D01*
X41346429Y20026334D01*
X41536905Y19978715D01*
X41632143Y19931096D01*
X41679762Y19883477D01*
X41727381Y19788239D01*
X41727381Y19693000D01*
X41679762Y19597762D01*
X41632143Y19550143D01*
X41536905Y19502524D01*
X41346429Y19454905D01*
X41108333Y19454905D01*
X40917857Y19502524D01*
X40822619Y19550143D01*
X40775000Y19597762D01*
X40727381Y19693000D01*
X40727381Y20645381D02*
X40727381Y20740620D01*
X40775000Y20835858D01*
X40822619Y20883477D01*
X40917857Y20931096D01*
X41108333Y20978715D01*
X41346429Y20978715D01*
X41536905Y20931096D01*
X41632143Y20883477D01*
X41679762Y20835858D01*
X41727381Y20740620D01*
X41727381Y20645381D01*
X41679762Y20550143D01*
X41632143Y20502524D01*
X41536905Y20454905D01*
X41346429Y20407286D01*
X41108333Y20407286D01*
X40917857Y20454905D01*
X40822619Y20502524D01*
X40775000Y20550143D01*
X40727381Y20645381D01*
X41060714Y21407286D02*
X41727381Y21407286D01*
X41155952Y21407286D02*
X41108333Y21454905D01*
X41060714Y21550143D01*
X41060714Y21693001D01*
X41108333Y21788239D01*
X41203571Y21835858D01*
X41727381Y21835858D01*
X41632143Y13422334D02*
X41679762Y13374715D01*
X41727381Y13231858D01*
X41727381Y13136620D01*
X41679762Y12993762D01*
X41584524Y12898524D01*
X41489286Y12850905D01*
X41298810Y12803286D01*
X41155952Y12803286D01*
X40965476Y12850905D01*
X40870238Y12898524D01*
X40775000Y12993762D01*
X40727381Y13136620D01*
X40727381Y13231858D01*
X40775000Y13374715D01*
X40822619Y13422334D01*
X41060714Y14279477D02*
X41727381Y14279477D01*
X40679762Y14041381D02*
X41394048Y13803286D01*
X41394048Y14422334D01*
X59281381Y12993953D02*
X59281381Y12422524D01*
X59281381Y12708238D02*
X58281381Y12708238D01*
X58424238Y12613000D01*
X58519476Y12517762D01*
X58567095Y12422524D01*
X58281381Y13613000D02*
X58281381Y13708239D01*
X58329000Y13803477D01*
X58376619Y13851096D01*
X58471857Y13898715D01*
X58662333Y13946334D01*
X58900429Y13946334D01*
X59090905Y13898715D01*
X59186143Y13851096D01*
X59233762Y13803477D01*
X59281381Y13708239D01*
X59281381Y13613000D01*
X59233762Y13517762D01*
X59186143Y13470143D01*
X59090905Y13422524D01*
X58900429Y13374905D01*
X58662333Y13374905D01*
X58471857Y13422524D01*
X58376619Y13470143D01*
X58329000Y13517762D01*
X58281381Y13613000D01*
X58281381Y14565381D02*
X58281381Y14660620D01*
X58329000Y14755858D01*
X58376619Y14803477D01*
X58471857Y14851096D01*
X58662333Y14898715D01*
X58900429Y14898715D01*
X59090905Y14851096D01*
X59186143Y14803477D01*
X59233762Y14755858D01*
X59281381Y14660620D01*
X59281381Y14565381D01*
X59233762Y14470143D01*
X59186143Y14422524D01*
X59090905Y14374905D01*
X58900429Y14327286D01*
X58662333Y14327286D01*
X58471857Y14374905D01*
X58376619Y14422524D01*
X58329000Y14470143D01*
X58281381Y14565381D01*
X58614714Y15327286D02*
X59281381Y15327286D01*
X58709952Y15327286D02*
X58662333Y15374905D01*
X58614714Y15470143D01*
X58614714Y15613001D01*
X58662333Y15708239D01*
X58757571Y15755858D01*
X59281381Y15755858D01*
X62436143Y13946334D02*
X62483762Y13898715D01*
X62531381Y13755858D01*
X62531381Y13660620D01*
X62483762Y13517762D01*
X62388524Y13422524D01*
X62293286Y13374905D01*
X62102810Y13327286D01*
X61959952Y13327286D01*
X61769476Y13374905D01*
X61674238Y13422524D01*
X61579000Y13517762D01*
X61531381Y13660620D01*
X61531381Y13755858D01*
X61579000Y13898715D01*
X61626619Y13946334D01*
X62531381Y14898715D02*
X62531381Y14327286D01*
X62531381Y14613000D02*
X61531381Y14613000D01*
X61674238Y14517762D01*
X61769476Y14422524D01*
X61817095Y14327286D01*
X63651571Y18629333D02*
X64127762Y18629333D01*
X63556333Y18343619D02*
X63889666Y19343619D01*
X64223000Y18343619D01*
X64413476Y19343619D02*
X64984905Y19343619D01*
X64699190Y18343619D02*
X64699190Y19343619D01*
X65318238Y18343619D02*
X65318238Y19343619D01*
X65651572Y18629333D01*
X65984905Y19343619D01*
X65984905Y18343619D01*
X66461095Y18867429D02*
X66794429Y18867429D01*
X66937286Y18343619D02*
X66461095Y18343619D01*
X66461095Y19343619D01*
X66937286Y19343619D01*
X67889667Y19296000D02*
X67794429Y19343619D01*
X67651572Y19343619D01*
X67508714Y19296000D01*
X67413476Y19200762D01*
X67365857Y19105524D01*
X67318238Y18915048D01*
X67318238Y18772190D01*
X67365857Y18581714D01*
X67413476Y18486476D01*
X67508714Y18391238D01*
X67651572Y18343619D01*
X67746810Y18343619D01*
X67889667Y18391238D01*
X67937286Y18438857D01*
X67937286Y18772190D01*
X67746810Y18772190D01*
X68318238Y18629333D02*
X68794429Y18629333D01*
X68223000Y18343619D02*
X68556333Y19343619D01*
X68889667Y18343619D01*
X69127762Y19343619D02*
X69746810Y19343619D01*
X69413476Y18962667D01*
X69556334Y18962667D01*
X69651572Y18915048D01*
X69699191Y18867429D01*
X69746810Y18772190D01*
X69746810Y18534095D01*
X69699191Y18438857D01*
X69651572Y18391238D01*
X69556334Y18343619D01*
X69270619Y18343619D01*
X69175381Y18391238D01*
X69127762Y18438857D01*
X70127762Y19248381D02*
X70175381Y19296000D01*
X70270619Y19343619D01*
X70508715Y19343619D01*
X70603953Y19296000D01*
X70651572Y19248381D01*
X70699191Y19153143D01*
X70699191Y19057905D01*
X70651572Y18915048D01*
X70080143Y18343619D01*
X70699191Y18343619D01*
X71270619Y18915048D02*
X71175381Y18962667D01*
X71127762Y19010286D01*
X71080143Y19105524D01*
X71080143Y19153143D01*
X71127762Y19248381D01*
X71175381Y19296000D01*
X71270619Y19343619D01*
X71461096Y19343619D01*
X71556334Y19296000D01*
X71603953Y19248381D01*
X71651572Y19153143D01*
X71651572Y19105524D01*
X71603953Y19010286D01*
X71556334Y18962667D01*
X71461096Y18915048D01*
X71270619Y18915048D01*
X71175381Y18867429D01*
X71127762Y18819810D01*
X71080143Y18724571D01*
X71080143Y18534095D01*
X71127762Y18438857D01*
X71175381Y18391238D01*
X71270619Y18343619D01*
X71461096Y18343619D01*
X71556334Y18391238D01*
X71603953Y18438857D01*
X71651572Y18534095D01*
X71651572Y18724571D01*
X71603953Y18819810D01*
X71556334Y18867429D01*
X71461096Y18915048D01*
X72080143Y18343619D02*
X72080143Y19343619D01*
X72461096Y19343619D01*
X72556334Y19296000D01*
X72603953Y19248381D01*
X72651572Y19153143D01*
X72651572Y19010286D01*
X72603953Y18915048D01*
X72556334Y18867429D01*
X72461096Y18819810D01*
X72080143Y18819810D01*
X73080143Y18724571D02*
X73842048Y18724571D01*
X74270619Y18629333D02*
X74746810Y18629333D01*
X74175381Y18343619D02*
X74508714Y19343619D01*
X74842048Y18343619D01*
X75175381Y19343619D02*
X75175381Y18534095D01*
X75223000Y18438857D01*
X75270619Y18391238D01*
X75365857Y18343619D01*
X75556334Y18343619D01*
X75651572Y18391238D01*
X75699191Y18438857D01*
X75746810Y18534095D01*
X75746810Y19343619D01*
X69088095Y13247619D02*
X69088095Y12438095D01*
X69135714Y12342857D01*
X69183333Y12295238D01*
X69278571Y12247619D01*
X69469048Y12247619D01*
X69564286Y12295238D01*
X69611905Y12342857D01*
X69659524Y12438095D01*
X69659524Y13247619D01*
X70659524Y12247619D02*
X70088095Y12247619D01*
X70373809Y12247619D02*
X70373809Y13247619D01*
X70278571Y13104762D01*
X70183333Y13009524D01*
X70088095Y12961905D01*
X102536667Y5627619D02*
X102536667Y4913333D01*
X102489047Y4770476D01*
X102393809Y4675238D01*
X102250952Y4627619D01*
X102155714Y4627619D01*
X103155714Y5199048D02*
X103060476Y5246667D01*
X103012857Y5294286D01*
X102965238Y5389524D01*
X102965238Y5437143D01*
X103012857Y5532381D01*
X103060476Y5580000D01*
X103155714Y5627619D01*
X103346191Y5627619D01*
X103441429Y5580000D01*
X103489048Y5532381D01*
X103536667Y5437143D01*
X103536667Y5389524D01*
X103489048Y5294286D01*
X103441429Y5246667D01*
X103346191Y5199048D01*
X103155714Y5199048D01*
X103060476Y5151429D01*
X103012857Y5103810D01*
X102965238Y5008571D01*
X102965238Y4818095D01*
X103012857Y4722857D01*
X103060476Y4675238D01*
X103155714Y4627619D01*
X103346191Y4627619D01*
X103441429Y4675238D01*
X103489048Y4722857D01*
X103536667Y4818095D01*
X103536667Y5008571D01*
X103489048Y5103810D01*
X103441429Y5151429D01*
X103346191Y5199048D01*
M02*
