G04 #@! TF.FileFunction,Copper,L2,Bot,Signal*
%FSLAX46Y46*%
G04 Gerber Fmt 4.6, Leading zero omitted, Abs format (unit mm)*
G04 Created by KiCad (PCBNEW 4.0.7-e2-6376~58~ubuntu16.04.1) date Fri Oct 20 12:03:34 2017*
%MOMM*%
%LPD*%
G01*
G04 APERTURE LIST*
%ADD10C,0.100000*%
%ADD11C,2.500000*%
%ADD12C,3.000000*%
%ADD13R,2.032000X2.032000*%
%ADD14C,2.000000*%
%ADD15R,1.727200X1.727200*%
%ADD16O,1.727200X1.727200*%
%ADD17R,3.000000X3.000000*%
%ADD18C,1.524000*%
%ADD19R,2.000000X2.000000*%
%ADD20R,1.700000X1.700000*%
%ADD21O,1.700000X1.700000*%
%ADD22O,0.950000X1.250000*%
%ADD23O,1.550000X1.000000*%
%ADD24C,4.000000*%
%ADD25C,6.400000*%
%ADD26C,0.600000*%
%ADD27C,0.500000*%
%ADD28C,2.000000*%
%ADD29C,0.254000*%
G04 APERTURE END LIST*
D10*
D11*
X124206000Y23876000D03*
D12*
X136406000Y23876000D03*
X136456000Y11826000D03*
D11*
X124206000Y11876000D03*
D12*
X122256000Y17826000D03*
D13*
X45720000Y29210000D03*
D14*
X48260000Y29210000D03*
X50800000Y29210000D03*
X53340000Y29210000D03*
X55880000Y29210000D03*
X58420000Y29210000D03*
X53340000Y44450000D03*
X55880000Y44450000D03*
X45720000Y44450000D03*
X48260000Y44450000D03*
X58420000Y44450000D03*
X50800000Y44450000D03*
D15*
X90170000Y10160000D03*
D16*
X87630000Y10160000D03*
X90170000Y12700000D03*
X87630000Y12700000D03*
X90170000Y15240000D03*
X87630000Y15240000D03*
D17*
X144780000Y12700000D03*
D12*
X144780000Y17780000D03*
X144780000Y22860000D03*
D17*
X5080000Y19050000D03*
D12*
X5080000Y13970000D03*
D18*
X13970000Y29210000D03*
X13970000Y41910000D03*
X16510000Y41910000D03*
X19050000Y41910000D03*
X21590000Y41910000D03*
D14*
X21590000Y36830000D03*
X21590000Y31750000D03*
X13970000Y31750000D03*
D19*
X13970000Y36830000D03*
D18*
X21590000Y44450000D03*
D20*
X77470000Y5080000D03*
D21*
X80010000Y5080000D03*
D18*
X118110000Y29210000D03*
X118110000Y41910000D03*
X120650000Y41910000D03*
X123190000Y41910000D03*
X125730000Y41910000D03*
D14*
X125730000Y36830000D03*
X125730000Y31750000D03*
X118110000Y31750000D03*
D19*
X118110000Y36830000D03*
D18*
X125730000Y44450000D03*
D20*
X44450000Y5080000D03*
D21*
X41910000Y5080000D03*
X39370000Y5080000D03*
X36830000Y5080000D03*
X34290000Y5080000D03*
X31750000Y5080000D03*
D22*
X5160000Y35520000D03*
X5160000Y30520000D03*
D23*
X2460000Y36520000D03*
X2460000Y29520000D03*
D24*
X102220000Y36830000D03*
D14*
X94020000Y29830000D03*
X94020000Y44330000D03*
X96520000Y44330000D03*
X99020000Y44330000D03*
X99020000Y29830000D03*
D24*
X90820000Y36830000D03*
D20*
X137795000Y44450000D03*
D21*
X137795000Y41910000D03*
X137795000Y39370000D03*
X137795000Y36830000D03*
X137795000Y34290000D03*
X137795000Y31750000D03*
X137795000Y29210000D03*
D25*
X5080000Y44450000D03*
X5080000Y5080000D03*
X144780000Y5080000D03*
X144780000Y44450000D03*
D20*
X106680000Y5080000D03*
D21*
X104140000Y5080000D03*
X101600000Y5080000D03*
X99060000Y5080000D03*
D26*
X55870512Y32855397D03*
X56578500Y32385000D03*
X57658000Y35496500D03*
X74282601Y37363785D03*
X73914000Y42354500D03*
X58880345Y40474990D03*
X73406000Y38227000D03*
X72453500Y37338000D03*
X62865000Y41275000D03*
X87503000Y40513000D03*
X80645000Y18415000D03*
X68706998Y13081000D03*
X63373000Y30226000D03*
X63754000Y18161000D03*
X62262000Y15208000D03*
X67818000Y10287000D03*
X133350000Y41910000D03*
X35560000Y24130000D03*
X118110000Y25400000D03*
X117475000Y21590000D03*
X99695000Y20955000D03*
X111125000Y21590000D03*
X49530000Y31115000D03*
X60325000Y31115000D03*
X62230000Y27940000D03*
X73660000Y33655000D03*
X54610000Y39370000D03*
X60960000Y38735000D03*
X43180000Y8890000D03*
X36830000Y8890000D03*
X36830000Y8890000D03*
X95250000Y24130000D03*
X91440000Y17780000D03*
X69596000Y14986000D03*
X81026000Y13589004D03*
X80312280Y9250010D03*
X83133114Y7493000D03*
X75506942Y6789058D03*
X80391000Y11620500D03*
X51015002Y26670000D03*
X77470000Y21971000D03*
X77282776Y18031173D03*
X79375000Y24511000D03*
X67056000Y23495000D03*
X80264000Y25400000D03*
X65659000Y23495000D03*
X86360000Y34290000D03*
X129540000Y40640000D03*
X8509000Y33655000D03*
X59690000Y35560000D03*
X26670000Y15240000D03*
X25400000Y15240000D03*
X24130000Y15240000D03*
X24130000Y17780000D03*
X25400000Y17780000D03*
X26670000Y17780000D03*
X24130000Y16510000D03*
X25400000Y16510000D03*
X26670000Y16510000D03*
X96393000Y22098000D03*
X67183000Y4953000D03*
X128905000Y29210000D03*
X120015000Y27940000D03*
X67754500Y14986000D03*
X68649361Y14985764D03*
X68071999Y21209000D03*
X49149000Y11557000D03*
X70231000Y18923000D03*
X47879000Y11557000D03*
X67818000Y6477000D03*
X78994000Y12700000D03*
X103378000Y16129000D03*
D27*
X47849397Y32855397D02*
X55870512Y32855397D01*
X45720000Y30726000D02*
X47849397Y32855397D01*
X45720000Y29210000D02*
X45720000Y30726000D01*
X54903501Y30710001D02*
X56578500Y32385000D01*
X50800000Y29210000D02*
X52300001Y30710001D01*
X52300001Y30710001D02*
X54903501Y30710001D01*
X57658000Y35496500D02*
X57658000Y30988000D01*
X57658000Y30988000D02*
X55880000Y29210000D01*
X66128816Y29210000D02*
X74282601Y37363785D01*
X58420000Y29210000D02*
X66128816Y29210000D01*
X55129991Y42660009D02*
X53340000Y44450000D01*
X73914000Y42354500D02*
X73608491Y42660009D01*
X73608491Y42660009D02*
X55129991Y42660009D01*
X71158010Y40474990D02*
X58880345Y40474990D01*
X73406000Y38227000D02*
X71158010Y40474990D01*
X72453500Y37338000D02*
X52832000Y37338000D01*
X52832000Y37338000D02*
X45720000Y44450000D01*
X62865000Y41275000D02*
X53975000Y41275000D01*
X53975000Y41275000D02*
X50800000Y44450000D01*
X90820000Y36830000D02*
X87503000Y40147000D01*
X87503000Y40147000D02*
X87503000Y40513000D01*
X90820000Y36830000D02*
X90678000Y36830000D01*
X68706998Y12656736D02*
X68706998Y13081000D01*
X68706998Y11175998D02*
X68706998Y12656736D01*
X67818000Y10287000D02*
X68706998Y11175998D01*
X63073001Y30525999D02*
X63373000Y30226000D01*
X62484000Y31115000D02*
X63073001Y30525999D01*
X60325000Y31115000D02*
X62484000Y31115000D01*
X62262000Y15208000D02*
X62262000Y16669000D01*
X62262000Y16669000D02*
X63754000Y18161000D01*
X125730000Y36830000D02*
X128270000Y36830000D01*
X128270000Y36830000D02*
X133350000Y41910000D01*
X117475000Y21590000D02*
X117475000Y24765000D01*
X117475000Y24765000D02*
X118110000Y25400000D01*
X111125000Y21590000D02*
X117475000Y21590000D01*
X96520000Y24130000D02*
X99695000Y20955000D01*
X95250000Y24130000D02*
X108585000Y24130000D01*
X108585000Y24130000D02*
X111125000Y21590000D01*
X72390000Y33655000D02*
X66675000Y27940000D01*
X66675000Y27940000D02*
X62230000Y27940000D01*
X73660000Y33655000D02*
X72390000Y33655000D01*
X55245000Y38735000D02*
X54610000Y39370000D01*
X60960000Y38735000D02*
X55245000Y38735000D01*
X36830000Y8890000D02*
X43180000Y8890000D01*
X31750000Y5080000D02*
X35560000Y8890000D01*
X35560000Y8890000D02*
X36830000Y8890000D01*
X95250000Y24130000D02*
X96520000Y24130000D01*
X87630000Y15240000D02*
X90170000Y17780000D01*
X90170000Y17780000D02*
X91440000Y17780000D01*
X69895999Y14686001D02*
X69596000Y14986000D01*
X70992996Y13589004D02*
X69895999Y14686001D01*
X81026000Y13589004D02*
X70992996Y13589004D01*
X80612279Y8950011D02*
X80312280Y9250010D01*
X82069290Y7493000D02*
X80612279Y8950011D01*
X83133114Y7493000D02*
X82069290Y7493000D01*
X80391000Y11620500D02*
X75559558Y6789058D01*
X75559558Y6789058D02*
X75506942Y6789058D01*
X110809998Y26670000D02*
X51015002Y26670000D01*
X117679987Y33539989D02*
X110809998Y26670000D01*
X135842908Y33539989D02*
X117679987Y33539989D01*
X136592919Y34290000D02*
X135842908Y33539989D01*
X137795000Y34290000D02*
X136592919Y34290000D01*
X77470000Y21971000D02*
X77470000Y18218397D01*
X77470000Y18218397D02*
X77282776Y18031173D01*
X67056000Y23495000D02*
X67691000Y24130000D01*
X67691000Y24130000D02*
X78994000Y24130000D01*
X78994000Y24130000D02*
X79075001Y24211001D01*
X79075001Y24211001D02*
X79375000Y24511000D01*
X65659000Y23495000D02*
X67564000Y25400000D01*
X67564000Y25400000D02*
X79839736Y25400000D01*
X79839736Y25400000D02*
X80264000Y25400000D01*
X129540000Y40640000D02*
X125603000Y40640000D01*
X125603000Y40640000D02*
X119253000Y34290000D01*
X119253000Y34290000D02*
X86360000Y34290000D01*
X59690000Y35560000D02*
X58953499Y36296501D01*
X58953499Y36296501D02*
X57273999Y36296501D01*
X57273999Y36296501D02*
X54632498Y33655000D01*
X54632498Y33655000D02*
X48345998Y33655000D01*
X48345998Y33655000D02*
X8509000Y33655000D01*
X25400000Y15240000D02*
X26670000Y15240000D01*
X24130000Y17780000D02*
X24130000Y15240000D01*
X26670000Y17780000D02*
X25400000Y17780000D01*
X87630000Y10160000D02*
X86266399Y11523601D01*
X86266399Y11523601D02*
X86266399Y15894529D01*
X86266399Y15894529D02*
X92469870Y22098000D01*
X92469870Y22098000D02*
X96393000Y22098000D01*
X67183000Y4953000D02*
X72539498Y4953000D01*
X72539498Y4953000D02*
X80375501Y12789003D01*
X80375501Y12789003D02*
X81623003Y12789003D01*
X81623003Y12789003D02*
X94234000Y25400000D01*
X94234000Y25400000D02*
X116925998Y25400000D01*
X116925998Y25400000D02*
X119465998Y27940000D01*
X119465998Y27940000D02*
X119590736Y27940000D01*
X119590736Y27940000D02*
X120015000Y27940000D01*
X120015000Y27940000D02*
X121285000Y29210000D01*
X121285000Y29210000D02*
X128905000Y29210000D01*
X57848500Y5080000D02*
X67754500Y14986000D01*
X44450000Y5080000D02*
X57848500Y5080000D01*
X68649361Y14561500D02*
X68649361Y14985764D01*
X57817860Y3729999D02*
X68649361Y14561500D01*
X43260001Y3729999D02*
X57817860Y3729999D01*
X41910000Y5080000D02*
X43260001Y3729999D01*
X67647735Y21209000D02*
X68071999Y21209000D01*
X58801000Y21209000D02*
X67647735Y21209000D01*
X49149000Y11557000D02*
X58801000Y21209000D01*
X47879000Y11557000D02*
X58458002Y22136002D01*
X69303998Y22136002D02*
X70231000Y21209000D01*
X58458002Y22136002D02*
X69303998Y22136002D01*
X70231000Y21209000D02*
X70231000Y19347264D01*
X70231000Y19347264D02*
X70231000Y18923000D01*
X78994000Y12700000D02*
X72263000Y5969000D01*
X72263000Y5969000D02*
X68326000Y5969000D01*
X68326000Y5969000D02*
X67818000Y6477000D01*
D28*
X144780000Y12700000D02*
X137330000Y12700000D01*
X137330000Y12700000D02*
X136456000Y11826000D01*
X144780000Y17780000D02*
X122302000Y17780000D01*
X122302000Y17780000D02*
X122256000Y17826000D01*
X144780000Y22860000D02*
X137422000Y22860000D01*
X137422000Y22860000D02*
X136406000Y23876000D01*
D27*
X104140000Y5080000D02*
X104140000Y15367000D01*
X104140000Y15367000D02*
X103378000Y16129000D01*
D29*
G36*
X43053000Y10287000D02*
X20447000Y10287000D01*
X20447000Y22733000D01*
X43053000Y22733000D01*
X43053000Y10287000D01*
X43053000Y10287000D01*
G37*
X43053000Y10287000D02*
X20447000Y10287000D01*
X20447000Y22733000D01*
X43053000Y22733000D01*
X43053000Y10287000D01*
G36*
X146437249Y48450953D02*
X147842197Y47512196D01*
X148780953Y46107249D01*
X149125000Y44377609D01*
X149125000Y28067000D01*
X138723914Y28067000D01*
X139066645Y28443076D01*
X139236476Y28853110D01*
X139115155Y29083000D01*
X137922000Y29083000D01*
X137922000Y29063000D01*
X137668000Y29063000D01*
X137668000Y29083000D01*
X136474845Y29083000D01*
X136353524Y28853110D01*
X136523355Y28443076D01*
X136866086Y28067000D01*
X121393579Y28067000D01*
X121651579Y28325000D01*
X128598178Y28325000D01*
X128718201Y28275162D01*
X129090167Y28274838D01*
X129433943Y28416883D01*
X129697192Y28679673D01*
X129839838Y29023201D01*
X129840162Y29395167D01*
X129698117Y29738943D01*
X129435327Y30002192D01*
X129091799Y30144838D01*
X128719833Y30145162D01*
X128598431Y30095000D01*
X121285005Y30095000D01*
X121285000Y30095001D01*
X120946325Y30027633D01*
X120659210Y29835790D01*
X120659208Y29835787D01*
X119648420Y28825000D01*
X119465998Y28825000D01*
X119462494Y28824303D01*
X119506757Y28930900D01*
X119507242Y29486661D01*
X119295010Y30000303D01*
X118962656Y30333238D01*
X119034943Y30363106D01*
X119495278Y30822637D01*
X119744716Y31423352D01*
X119745284Y32073795D01*
X119505139Y32654989D01*
X124335432Y32654989D01*
X124095284Y32076648D01*
X124094716Y31426205D01*
X124343106Y30825057D01*
X124802637Y30364722D01*
X125403352Y30115284D01*
X126053795Y30114716D01*
X126654943Y30363106D01*
X127115278Y30822637D01*
X127364716Y31423352D01*
X127365284Y32073795D01*
X127125139Y32654989D01*
X135842903Y32654989D01*
X135842908Y32654988D01*
X136125392Y32711179D01*
X136181583Y32722356D01*
X136468698Y32914199D01*
X136468699Y32914200D01*
X136762965Y33208467D01*
X137045026Y33020000D01*
X136715853Y32800054D01*
X136393946Y32318285D01*
X136280907Y31750000D01*
X136393946Y31181715D01*
X136715853Y30699946D01*
X137056553Y30472298D01*
X136913642Y30405183D01*
X136523355Y29976924D01*
X136353524Y29566890D01*
X136474845Y29337000D01*
X137668000Y29337000D01*
X137668000Y29357000D01*
X137922000Y29357000D01*
X137922000Y29337000D01*
X139115155Y29337000D01*
X139236476Y29566890D01*
X139066645Y29976924D01*
X138676358Y30405183D01*
X138533447Y30472298D01*
X138874147Y30699946D01*
X139196054Y31181715D01*
X139309093Y31750000D01*
X139196054Y32318285D01*
X138874147Y32800054D01*
X138544974Y33020000D01*
X138874147Y33239946D01*
X139196054Y33721715D01*
X139309093Y34290000D01*
X139196054Y34858285D01*
X138874147Y35340054D01*
X138544974Y35560000D01*
X138874147Y35779946D01*
X139196054Y36261715D01*
X139309093Y36830000D01*
X139196054Y37398285D01*
X138874147Y37880054D01*
X138544974Y38100000D01*
X138874147Y38319946D01*
X139196054Y38801715D01*
X139309093Y39370000D01*
X139196054Y39938285D01*
X138874147Y40420054D01*
X138544974Y40640000D01*
X138874147Y40859946D01*
X139196054Y41341715D01*
X139309093Y41910000D01*
X139196054Y42478285D01*
X138874147Y42960054D01*
X138832548Y42987850D01*
X138880317Y42996838D01*
X139096441Y43135910D01*
X139241431Y43348110D01*
X139292440Y43600000D01*
X139292440Y43690518D01*
X140944336Y43690518D01*
X141526950Y42280485D01*
X142604811Y41200741D01*
X144013825Y40615667D01*
X145539482Y40614336D01*
X146949515Y41196950D01*
X148029259Y42274811D01*
X148614333Y43683825D01*
X148615664Y45209482D01*
X148033050Y46619515D01*
X146955189Y47699259D01*
X145546175Y48284333D01*
X144020518Y48285664D01*
X142610485Y47703050D01*
X141530741Y46625189D01*
X140945667Y45216175D01*
X140944336Y43690518D01*
X139292440Y43690518D01*
X139292440Y45300000D01*
X139248162Y45535317D01*
X139109090Y45751441D01*
X138896890Y45896431D01*
X138645000Y45947440D01*
X136945000Y45947440D01*
X136709683Y45903162D01*
X136493559Y45764090D01*
X136348569Y45551890D01*
X136297560Y45300000D01*
X136297560Y43600000D01*
X136341838Y43364683D01*
X136480910Y43148559D01*
X136693110Y43003569D01*
X136760541Y42989914D01*
X136715853Y42960054D01*
X136393946Y42478285D01*
X136280907Y41910000D01*
X136393946Y41341715D01*
X136715853Y40859946D01*
X137045026Y40640000D01*
X136715853Y40420054D01*
X136393946Y39938285D01*
X136280907Y39370000D01*
X136393946Y38801715D01*
X136715853Y38319946D01*
X137045026Y38100000D01*
X136715853Y37880054D01*
X136393946Y37398285D01*
X136280907Y36830000D01*
X136393946Y36261715D01*
X136715853Y35779946D01*
X137045026Y35560000D01*
X136715853Y35340054D01*
X136605568Y35175000D01*
X136592924Y35175000D01*
X136592919Y35175001D01*
X136310435Y35118810D01*
X136254244Y35107633D01*
X135967129Y34915790D01*
X135967127Y34915787D01*
X135476328Y34424989D01*
X120639569Y34424989D01*
X121892047Y35677468D01*
X124757073Y35677468D01*
X124855736Y35410613D01*
X125465461Y35184092D01*
X126115460Y35208144D01*
X126604264Y35410613D01*
X126702927Y35677468D01*
X125730000Y36650395D01*
X124757073Y35677468D01*
X121892047Y35677468D01*
X123309118Y37094539D01*
X124084092Y37094539D01*
X124108144Y36444540D01*
X124310613Y35955736D01*
X124577468Y35857073D01*
X125550395Y36830000D01*
X125909605Y36830000D01*
X126882532Y35857073D01*
X127149387Y35955736D01*
X127375908Y36565461D01*
X127351856Y37215460D01*
X127149387Y37704264D01*
X126882532Y37802927D01*
X125909605Y36830000D01*
X125550395Y36830000D01*
X124577468Y37802927D01*
X124310613Y37704264D01*
X124084092Y37094539D01*
X123309118Y37094539D01*
X124197111Y37982532D01*
X124757073Y37982532D01*
X125730000Y37009605D01*
X126702927Y37982532D01*
X126604264Y38249387D01*
X125994539Y38475908D01*
X125344540Y38451856D01*
X124855736Y38249387D01*
X124757073Y37982532D01*
X124197111Y37982532D01*
X125969579Y39755000D01*
X129233178Y39755000D01*
X129353201Y39705162D01*
X129725167Y39704838D01*
X130068943Y39846883D01*
X130332192Y40109673D01*
X130474838Y40453201D01*
X130475162Y40825167D01*
X130333117Y41168943D01*
X130070327Y41432192D01*
X129726799Y41574838D01*
X129354833Y41575162D01*
X129233431Y41525000D01*
X127082784Y41525000D01*
X127126757Y41630900D01*
X127127242Y42186661D01*
X126915010Y42700303D01*
X126522370Y43093629D01*
X126314488Y43179949D01*
X126520303Y43264990D01*
X126913629Y43657630D01*
X127126757Y44170900D01*
X127127242Y44726661D01*
X126915010Y45240303D01*
X126522370Y45633629D01*
X126009100Y45846757D01*
X125453339Y45847242D01*
X124939697Y45635010D01*
X124546371Y45242370D01*
X124333243Y44729100D01*
X124332758Y44173339D01*
X124544990Y43659697D01*
X124937630Y43266371D01*
X125145512Y43180051D01*
X124939697Y43095010D01*
X124546371Y42702370D01*
X124460051Y42494488D01*
X124375010Y42700303D01*
X123982370Y43093629D01*
X123469100Y43306757D01*
X122913339Y43307242D01*
X122399697Y43095010D01*
X122006371Y42702370D01*
X121920051Y42494488D01*
X121835010Y42700303D01*
X121442370Y43093629D01*
X120929100Y43306757D01*
X120373339Y43307242D01*
X119859697Y43095010D01*
X119466371Y42702370D01*
X119380051Y42494488D01*
X119295010Y42700303D01*
X118902370Y43093629D01*
X118389100Y43306757D01*
X117833339Y43307242D01*
X117319697Y43095010D01*
X116926371Y42702370D01*
X116713243Y42189100D01*
X116712758Y41633339D01*
X116924990Y41119697D01*
X117317630Y40726371D01*
X117830900Y40513243D01*
X118386661Y40512758D01*
X118900303Y40724990D01*
X119293629Y41117630D01*
X119379949Y41325512D01*
X119464990Y41119697D01*
X119857630Y40726371D01*
X120370900Y40513243D01*
X120926661Y40512758D01*
X121440303Y40724990D01*
X121833629Y41117630D01*
X121919949Y41325512D01*
X122004990Y41119697D01*
X122397630Y40726371D01*
X122910900Y40513243D01*
X123466661Y40512758D01*
X123980303Y40724990D01*
X124373629Y41117630D01*
X124459949Y41325512D01*
X124544990Y41119697D01*
X124687929Y40976508D01*
X119745000Y36033580D01*
X119745000Y36544250D01*
X119586250Y36703000D01*
X118237000Y36703000D01*
X118237000Y35353750D01*
X118395750Y35195000D01*
X118906420Y35195000D01*
X118886420Y35175000D01*
X104162890Y35175000D01*
X104465743Y35355353D01*
X104859119Y36327012D01*
X104857377Y36544250D01*
X116475000Y36544250D01*
X116475000Y35703690D01*
X116571673Y35470301D01*
X116750302Y35291673D01*
X116983691Y35195000D01*
X117824250Y35195000D01*
X117983000Y35353750D01*
X117983000Y36703000D01*
X116633750Y36703000D01*
X116475000Y36544250D01*
X104857377Y36544250D01*
X104850713Y37375247D01*
X104610029Y37956310D01*
X116475000Y37956310D01*
X116475000Y37115750D01*
X116633750Y36957000D01*
X117983000Y36957000D01*
X117983000Y38306250D01*
X118237000Y38306250D01*
X118237000Y36957000D01*
X119586250Y36957000D01*
X119745000Y37115750D01*
X119745000Y37956310D01*
X119648327Y38189699D01*
X119469698Y38368327D01*
X119236309Y38465000D01*
X118395750Y38465000D01*
X118237000Y38306250D01*
X117983000Y38306250D01*
X117824250Y38465000D01*
X116983691Y38465000D01*
X116750302Y38368327D01*
X116571673Y38189699D01*
X116475000Y37956310D01*
X104610029Y37956310D01*
X104465743Y38304647D01*
X104095022Y38525416D01*
X102399605Y36830000D01*
X102413748Y36815858D01*
X102234142Y36636252D01*
X102220000Y36650395D01*
X102205858Y36636252D01*
X102026252Y36815858D01*
X102040395Y36830000D01*
X100344978Y38525416D01*
X99974257Y38304647D01*
X99580881Y37332988D01*
X99589287Y36284753D01*
X99974257Y35355353D01*
X100277110Y35175000D01*
X92762890Y35175000D01*
X93065743Y35355353D01*
X93459119Y36327012D01*
X93450713Y37375247D01*
X93065743Y38304647D01*
X92695022Y38525416D01*
X90999605Y36830000D01*
X91013748Y36815858D01*
X90834142Y36636252D01*
X90820000Y36650395D01*
X90805858Y36636252D01*
X90626252Y36815858D01*
X90640395Y36830000D01*
X88944978Y38525416D01*
X88574257Y38304647D01*
X88180881Y37332988D01*
X88189287Y36284753D01*
X88574257Y35355353D01*
X88877110Y35175000D01*
X86666822Y35175000D01*
X86546799Y35224838D01*
X86174833Y35225162D01*
X85831057Y35083117D01*
X85567808Y34820327D01*
X85425162Y34476799D01*
X85424838Y34104833D01*
X85566883Y33761057D01*
X85829673Y33497808D01*
X86173201Y33355162D01*
X86545167Y33354838D01*
X86666569Y33405000D01*
X116293419Y33405000D01*
X110443418Y27555000D01*
X51321824Y27555000D01*
X51201801Y27604838D01*
X51196706Y27604842D01*
X51724943Y27823106D01*
X52070199Y28167759D01*
X52412637Y27824722D01*
X53013352Y27575284D01*
X53663795Y27574716D01*
X54264943Y27823106D01*
X54610199Y28167759D01*
X54952637Y27824722D01*
X55553352Y27575284D01*
X56203795Y27574716D01*
X56804943Y27823106D01*
X57150199Y28167759D01*
X57492637Y27824722D01*
X58093352Y27575284D01*
X58743795Y27574716D01*
X59344943Y27823106D01*
X59805278Y28282637D01*
X59822869Y28325000D01*
X66128811Y28325000D01*
X66128816Y28324999D01*
X66411300Y28381190D01*
X66467491Y28392367D01*
X66754606Y28584210D01*
X66847863Y28677468D01*
X93047073Y28677468D01*
X93145736Y28410613D01*
X93755461Y28184092D01*
X94405460Y28208144D01*
X94894264Y28410613D01*
X94992927Y28677468D01*
X94020000Y29650395D01*
X93047073Y28677468D01*
X66847863Y28677468D01*
X68264934Y30094539D01*
X92374092Y30094539D01*
X92398144Y29444540D01*
X92600613Y28955736D01*
X92867468Y28857073D01*
X93840395Y29830000D01*
X94199605Y29830000D01*
X95172532Y28857073D01*
X95439387Y28955736D01*
X95643893Y29506205D01*
X97384716Y29506205D01*
X97633106Y28905057D01*
X98092637Y28444722D01*
X98693352Y28195284D01*
X99343795Y28194716D01*
X99944943Y28443106D01*
X100405278Y28902637D01*
X100654716Y29503352D01*
X100655284Y30153795D01*
X100406894Y30754943D01*
X99947363Y31215278D01*
X99346648Y31464716D01*
X98696205Y31465284D01*
X98095057Y31216894D01*
X97634722Y30757363D01*
X97385284Y30156648D01*
X97384716Y29506205D01*
X95643893Y29506205D01*
X95665908Y29565461D01*
X95641856Y30215460D01*
X95439387Y30704264D01*
X95172532Y30802927D01*
X94199605Y29830000D01*
X93840395Y29830000D01*
X92867468Y30802927D01*
X92600613Y30704264D01*
X92374092Y30094539D01*
X68264934Y30094539D01*
X69152927Y30982532D01*
X93047073Y30982532D01*
X94020000Y30009605D01*
X94992927Y30982532D01*
X94894264Y31249387D01*
X94284539Y31475908D01*
X93634540Y31451856D01*
X93145736Y31249387D01*
X93047073Y30982532D01*
X69152927Y30982532D01*
X74691435Y36521040D01*
X74811544Y36570668D01*
X75074793Y36833458D01*
X75217439Y37176986D01*
X75217763Y37548952D01*
X75075718Y37892728D01*
X74812928Y38155977D01*
X74469400Y38298623D01*
X74341063Y38298735D01*
X74341162Y38412167D01*
X74220158Y38705022D01*
X89124584Y38705022D01*
X90820000Y37009605D01*
X92515416Y38705022D01*
X100524584Y38705022D01*
X102220000Y37009605D01*
X103915416Y38705022D01*
X103694647Y39075743D01*
X102722988Y39469119D01*
X101674753Y39460713D01*
X100745353Y39075743D01*
X100524584Y38705022D01*
X92515416Y38705022D01*
X92294647Y39075743D01*
X91322988Y39469119D01*
X90274753Y39460713D01*
X89345353Y39075743D01*
X89124584Y38705022D01*
X74220158Y38705022D01*
X74199117Y38755943D01*
X73936327Y39019192D01*
X73815013Y39069566D01*
X71783800Y41100780D01*
X71758582Y41117630D01*
X71496685Y41292623D01*
X71440494Y41303800D01*
X71158010Y41359991D01*
X71158005Y41359990D01*
X63800075Y41359990D01*
X63800162Y41460167D01*
X63670072Y41775009D01*
X73171343Y41775009D01*
X73383673Y41562308D01*
X73727201Y41419662D01*
X74099167Y41419338D01*
X74442943Y41561383D01*
X74706192Y41824173D01*
X74848838Y42167701D01*
X74849162Y42539667D01*
X74707117Y42883443D01*
X74444327Y43146692D01*
X74323014Y43197066D01*
X74234281Y43285799D01*
X74070849Y43395000D01*
X73947166Y43477642D01*
X73890975Y43488819D01*
X73608491Y43545010D01*
X73608486Y43545009D01*
X59814568Y43545009D01*
X60006072Y44006205D01*
X92384716Y44006205D01*
X92633106Y43405057D01*
X93092637Y42944722D01*
X93693352Y42695284D01*
X94343795Y42694716D01*
X94944943Y42943106D01*
X95179715Y43177468D01*
X95547073Y43177468D01*
X95645736Y42910613D01*
X96255461Y42684092D01*
X96905460Y42708144D01*
X97394264Y42910613D01*
X97492927Y43177468D01*
X96520000Y44150395D01*
X95547073Y43177468D01*
X95179715Y43177468D01*
X95361752Y43359187D01*
X95367468Y43357073D01*
X96340395Y44330000D01*
X96699605Y44330000D01*
X97672532Y43357073D01*
X97678722Y43359361D01*
X98092637Y42944722D01*
X98693352Y42695284D01*
X99343795Y42694716D01*
X99944943Y42943106D01*
X100405278Y43402637D01*
X100654716Y44003352D01*
X100655284Y44653795D01*
X100406894Y45254943D01*
X99947363Y45715278D01*
X99346648Y45964716D01*
X98696205Y45965284D01*
X98095057Y45716894D01*
X97678248Y45300813D01*
X97672532Y45302927D01*
X96699605Y44330000D01*
X96340395Y44330000D01*
X95367468Y45302927D01*
X95361278Y45300639D01*
X95179703Y45482532D01*
X95547073Y45482532D01*
X96520000Y44509605D01*
X97492927Y45482532D01*
X97394264Y45749387D01*
X96784539Y45975908D01*
X96134540Y45951856D01*
X95645736Y45749387D01*
X95547073Y45482532D01*
X95179703Y45482532D01*
X94947363Y45715278D01*
X94346648Y45964716D01*
X93696205Y45965284D01*
X93095057Y45716894D01*
X92634722Y45257363D01*
X92385284Y44656648D01*
X92384716Y44006205D01*
X60006072Y44006205D01*
X60054716Y44123352D01*
X60055284Y44773795D01*
X59806894Y45374943D01*
X59347363Y45835278D01*
X58746648Y46084716D01*
X58096205Y46085284D01*
X57495057Y45836894D01*
X57149801Y45492241D01*
X56807363Y45835278D01*
X56206648Y46084716D01*
X55556205Y46085284D01*
X54955057Y45836894D01*
X54609801Y45492241D01*
X54267363Y45835278D01*
X53666648Y46084716D01*
X53016205Y46085284D01*
X52415057Y45836894D01*
X52069801Y45492241D01*
X51727363Y45835278D01*
X51126648Y46084716D01*
X50476205Y46085284D01*
X49875057Y45836894D01*
X49529801Y45492241D01*
X49187363Y45835278D01*
X48586648Y46084716D01*
X47936205Y46085284D01*
X47335057Y45836894D01*
X46989801Y45492241D01*
X46647363Y45835278D01*
X46046648Y46084716D01*
X45396205Y46085284D01*
X44795057Y45836894D01*
X44334722Y45377363D01*
X44085284Y44776648D01*
X44084716Y44126205D01*
X44333106Y43525057D01*
X44792637Y43064722D01*
X45393352Y42815284D01*
X46043795Y42814716D01*
X46086188Y42832232D01*
X52206208Y36712213D01*
X52206210Y36712210D01*
X52493325Y36520367D01*
X52549516Y36509190D01*
X52832000Y36452999D01*
X52832005Y36453000D01*
X56178919Y36453000D01*
X54265918Y34540000D01*
X8815822Y34540000D01*
X8695799Y34589838D01*
X8323833Y34590162D01*
X7980057Y34448117D01*
X7716808Y34185327D01*
X7574162Y33841799D01*
X7573838Y33469833D01*
X7715883Y33126057D01*
X7978673Y32862808D01*
X8322201Y32720162D01*
X8694167Y32719838D01*
X8815569Y32770000D01*
X12677521Y32770000D01*
X12584722Y32677363D01*
X12335284Y32076648D01*
X12334716Y31426205D01*
X12583106Y30825057D01*
X13042637Y30364722D01*
X13118006Y30333426D01*
X12786371Y30002370D01*
X12573243Y29489100D01*
X12572758Y28933339D01*
X12784990Y28419697D01*
X13177630Y28026371D01*
X13690900Y27813243D01*
X14246661Y27812758D01*
X14760303Y28024990D01*
X15153629Y28417630D01*
X15366757Y28930900D01*
X15367242Y29486661D01*
X15155010Y30000303D01*
X14822656Y30333238D01*
X14894943Y30363106D01*
X15355278Y30822637D01*
X15604716Y31423352D01*
X15605284Y32073795D01*
X15356894Y32674943D01*
X15262003Y32770000D01*
X20297521Y32770000D01*
X20204722Y32677363D01*
X19955284Y32076648D01*
X19954716Y31426205D01*
X20203106Y30825057D01*
X20662637Y30364722D01*
X21263352Y30115284D01*
X21913795Y30114716D01*
X22514943Y30363106D01*
X22975278Y30822637D01*
X23224716Y31423352D01*
X23225284Y32073795D01*
X22976894Y32674943D01*
X22882003Y32770000D01*
X46512421Y32770000D01*
X45094210Y31351790D01*
X44902367Y31064675D01*
X44891190Y31008484D01*
X44864327Y30873440D01*
X44704000Y30873440D01*
X44468683Y30829162D01*
X44252559Y30690090D01*
X44107569Y30477890D01*
X44056560Y30226000D01*
X44056560Y28194000D01*
X44100838Y27958683D01*
X44239910Y27742559D01*
X44452110Y27597569D01*
X44704000Y27546560D01*
X46736000Y27546560D01*
X46971317Y27590838D01*
X47187441Y27729910D01*
X47284899Y27872544D01*
X47332637Y27824722D01*
X47933352Y27575284D01*
X48583795Y27574716D01*
X49184943Y27823106D01*
X49530199Y28167759D01*
X49872637Y27824722D01*
X50473352Y27575284D01*
X50756925Y27575036D01*
X50486059Y27463117D01*
X50222810Y27200327D01*
X50080164Y26856799D01*
X50079840Y26484833D01*
X50221885Y26141057D01*
X50484675Y25877808D01*
X50828203Y25735162D01*
X51200169Y25734838D01*
X51321571Y25785000D01*
X66697421Y25785000D01*
X65250164Y24337744D01*
X65130057Y24288117D01*
X64866808Y24025327D01*
X64724162Y23681799D01*
X64723838Y23309833D01*
X64843180Y23021002D01*
X58458007Y23021002D01*
X58458002Y23021003D01*
X58174818Y22964673D01*
X58119327Y22953635D01*
X57832212Y22761792D01*
X57832210Y22761789D01*
X47470164Y12399744D01*
X47350057Y12350117D01*
X47086808Y12087327D01*
X46944162Y11743799D01*
X46943838Y11371833D01*
X47085883Y11028057D01*
X47348673Y10764808D01*
X47692201Y10622162D01*
X48064167Y10621838D01*
X48407943Y10763883D01*
X48513954Y10869710D01*
X48618673Y10764808D01*
X48962201Y10622162D01*
X49334167Y10621838D01*
X49677943Y10763883D01*
X49941192Y11026673D01*
X49991566Y11147986D01*
X56689585Y17846006D01*
X76347614Y17846006D01*
X76489659Y17502230D01*
X76752449Y17238981D01*
X77095977Y17096335D01*
X77467943Y17096011D01*
X77811719Y17238056D01*
X78074968Y17500846D01*
X78141440Y17660927D01*
X78287633Y17879722D01*
X78309203Y17988162D01*
X78355001Y18218397D01*
X78355000Y18218402D01*
X78355000Y21664178D01*
X78404838Y21784201D01*
X78405162Y22156167D01*
X78263117Y22499943D01*
X78000327Y22763192D01*
X77656799Y22905838D01*
X77284833Y22906162D01*
X76941057Y22764117D01*
X76677808Y22501327D01*
X76535162Y22157799D01*
X76534838Y21785833D01*
X76585000Y21664431D01*
X76585000Y18655751D01*
X76490584Y18561500D01*
X76347938Y18217972D01*
X76347614Y17846006D01*
X56689585Y17846006D01*
X59167579Y20324000D01*
X67765177Y20324000D01*
X67885200Y20274162D01*
X68257166Y20273838D01*
X68600942Y20415883D01*
X68864191Y20678673D01*
X69006837Y21022201D01*
X69006976Y21181445D01*
X69346000Y20842421D01*
X69346000Y19229822D01*
X69296162Y19109799D01*
X69295838Y18737833D01*
X69437883Y18394057D01*
X69700673Y18130808D01*
X70044201Y17988162D01*
X70416167Y17987838D01*
X70759943Y18129883D01*
X71023192Y18392673D01*
X71165838Y18736201D01*
X71166162Y19108167D01*
X71116000Y19229569D01*
X71116000Y21208995D01*
X71116001Y21209000D01*
X71048633Y21547674D01*
X71048633Y21547675D01*
X70856790Y21834790D01*
X70856787Y21834792D01*
X69929788Y22761792D01*
X69858196Y22809628D01*
X69642673Y22953635D01*
X69580224Y22966057D01*
X69303998Y23021003D01*
X69303993Y23021002D01*
X67871582Y23021002D01*
X67898566Y23085986D01*
X68057579Y23245000D01*
X78993995Y23245000D01*
X78994000Y23244999D01*
X79311731Y23308201D01*
X79332675Y23312367D01*
X79619790Y23504210D01*
X79619791Y23504211D01*
X79700788Y23585209D01*
X79700791Y23585211D01*
X79783835Y23668256D01*
X79903943Y23717883D01*
X80167192Y23980673D01*
X80309838Y24324201D01*
X80309961Y24464959D01*
X80449167Y24464838D01*
X80792943Y24606883D01*
X81056192Y24869673D01*
X81198838Y25213201D01*
X81199162Y25585167D01*
X81116593Y25785000D01*
X93367421Y25785000D01*
X81759794Y14177374D01*
X81556327Y14381196D01*
X81212799Y14523842D01*
X80840833Y14524166D01*
X80719431Y14474004D01*
X71359575Y14474004D01*
X70521789Y15311791D01*
X70521786Y15311793D01*
X70438745Y15394835D01*
X70389117Y15514943D01*
X70126327Y15778192D01*
X69782799Y15920838D01*
X69410833Y15921162D01*
X69122110Y15801864D01*
X68836160Y15920602D01*
X68464194Y15920926D01*
X68201994Y15812587D01*
X67941299Y15920838D01*
X67569333Y15921162D01*
X67225557Y15779117D01*
X66962308Y15516327D01*
X66911934Y15395013D01*
X57481920Y5965000D01*
X45940854Y5965000D01*
X45903162Y6165317D01*
X45764090Y6381441D01*
X45551890Y6526431D01*
X45300000Y6577440D01*
X43600000Y6577440D01*
X43364683Y6533162D01*
X43148559Y6394090D01*
X43003569Y6181890D01*
X42989914Y6114459D01*
X42960054Y6159147D01*
X42478285Y6481054D01*
X41910000Y6594093D01*
X41341715Y6481054D01*
X40859946Y6159147D01*
X40640000Y5829974D01*
X40420054Y6159147D01*
X39938285Y6481054D01*
X39370000Y6594093D01*
X38801715Y6481054D01*
X38319946Y6159147D01*
X38100000Y5829974D01*
X37880054Y6159147D01*
X37398285Y6481054D01*
X36830000Y6594093D01*
X36261715Y6481054D01*
X35779946Y6159147D01*
X35560000Y5829974D01*
X35340054Y6159147D01*
X34858285Y6481054D01*
X34290000Y6594093D01*
X33721715Y6481054D01*
X33239946Y6159147D01*
X33012298Y5818447D01*
X32945183Y5961358D01*
X32516924Y6351645D01*
X32106890Y6521476D01*
X31877000Y6400155D01*
X31877000Y5207000D01*
X31897000Y5207000D01*
X31897000Y4953000D01*
X31877000Y4953000D01*
X31877000Y3759845D01*
X32106890Y3638524D01*
X32516924Y3808355D01*
X32945183Y4198642D01*
X33012298Y4341553D01*
X33239946Y4000853D01*
X33721715Y3678946D01*
X34290000Y3565907D01*
X34858285Y3678946D01*
X35340054Y4000853D01*
X35560000Y4330026D01*
X35779946Y4000853D01*
X36261715Y3678946D01*
X36830000Y3565907D01*
X37398285Y3678946D01*
X37880054Y4000853D01*
X38100000Y4330026D01*
X38319946Y4000853D01*
X38801715Y3678946D01*
X39370000Y3565907D01*
X39938285Y3678946D01*
X40420054Y4000853D01*
X40640000Y4330026D01*
X40859946Y4000853D01*
X41341715Y3678946D01*
X41910000Y3565907D01*
X42128960Y3609461D01*
X42634209Y3104212D01*
X42634211Y3104209D01*
X42921326Y2912366D01*
X42977517Y2901189D01*
X43260001Y2844998D01*
X43260006Y2844999D01*
X57817855Y2844999D01*
X57817860Y2844998D01*
X58100344Y2901189D01*
X58156535Y2912366D01*
X58443650Y3104209D01*
X69275148Y13935708D01*
X69275151Y13935710D01*
X69323039Y14007381D01*
X70367204Y12963217D01*
X70367206Y12963214D01*
X70654321Y12771371D01*
X70710512Y12760194D01*
X70992996Y12704003D01*
X70993001Y12704004D01*
X77746425Y12704004D01*
X71896420Y6854000D01*
X68692580Y6854000D01*
X68660744Y6885835D01*
X68611117Y7005943D01*
X68348327Y7269192D01*
X68004799Y7411838D01*
X67632833Y7412162D01*
X67289057Y7270117D01*
X67025808Y7007327D01*
X66883162Y6663799D01*
X66882838Y6291833D01*
X67024883Y5948057D01*
X67084749Y5888086D01*
X66997833Y5888162D01*
X66654057Y5746117D01*
X66390808Y5483327D01*
X66248162Y5139799D01*
X66247838Y4767833D01*
X66389883Y4424057D01*
X66652673Y4160808D01*
X66996201Y4018162D01*
X67368167Y4017838D01*
X67489569Y4068000D01*
X72539493Y4068000D01*
X72539498Y4067999D01*
X72821982Y4124190D01*
X72878173Y4135367D01*
X73165288Y4327210D01*
X74905841Y6067763D01*
X74976615Y5996866D01*
X75320143Y5854220D01*
X75692109Y5853896D01*
X75981350Y5973408D01*
X75972560Y5930000D01*
X75972560Y4230000D01*
X76016838Y3994683D01*
X76155910Y3778559D01*
X76368110Y3633569D01*
X76620000Y3582560D01*
X78320000Y3582560D01*
X78555317Y3626838D01*
X78771441Y3765910D01*
X78916431Y3978110D01*
X78930086Y4045541D01*
X78959946Y4000853D01*
X79441715Y3678946D01*
X80010000Y3565907D01*
X80578285Y3678946D01*
X81060054Y4000853D01*
X81381961Y4482622D01*
X81429796Y4723108D01*
X97618514Y4723108D01*
X97864817Y4198642D01*
X98293076Y3808355D01*
X98703110Y3638524D01*
X98933000Y3759845D01*
X98933000Y4953000D01*
X97739181Y4953000D01*
X97618514Y4723108D01*
X81429796Y4723108D01*
X81495000Y5050907D01*
X81495000Y5109093D01*
X81429797Y5436892D01*
X97618514Y5436892D01*
X97739181Y5207000D01*
X98933000Y5207000D01*
X98933000Y6400155D01*
X99187000Y6400155D01*
X99187000Y5207000D01*
X99207000Y5207000D01*
X99207000Y4953000D01*
X99187000Y4953000D01*
X99187000Y3759845D01*
X99416890Y3638524D01*
X99826924Y3808355D01*
X100255183Y4198642D01*
X100322298Y4341553D01*
X100549946Y4000853D01*
X101031715Y3678946D01*
X101600000Y3565907D01*
X102168285Y3678946D01*
X102650054Y4000853D01*
X102870000Y4330026D01*
X103089946Y4000853D01*
X103571715Y3678946D01*
X104140000Y3565907D01*
X104708285Y3678946D01*
X105190054Y4000853D01*
X105217850Y4042452D01*
X105226838Y3994683D01*
X105365910Y3778559D01*
X105578110Y3633569D01*
X105830000Y3582560D01*
X107530000Y3582560D01*
X107765317Y3626838D01*
X107981441Y3765910D01*
X108126431Y3978110D01*
X108177440Y4230000D01*
X108177440Y5930000D01*
X108133162Y6165317D01*
X107994090Y6381441D01*
X107781890Y6526431D01*
X107530000Y6577440D01*
X105830000Y6577440D01*
X105594683Y6533162D01*
X105378559Y6394090D01*
X105233569Y6181890D01*
X105219914Y6114459D01*
X105190054Y6159147D01*
X105025000Y6269432D01*
X105025000Y15366995D01*
X105025001Y15367000D01*
X104957633Y15705674D01*
X104957633Y15705675D01*
X104765790Y15992790D01*
X104765787Y15992792D01*
X104220744Y16537835D01*
X104171117Y16657943D01*
X103908327Y16921192D01*
X103564799Y17063838D01*
X103192833Y17064162D01*
X102849057Y16922117D01*
X102585808Y16659327D01*
X102443162Y16315799D01*
X102442838Y15943833D01*
X102584883Y15600057D01*
X102847673Y15336808D01*
X102968986Y15286434D01*
X103255000Y15000421D01*
X103255000Y6269432D01*
X103089946Y6159147D01*
X102870000Y5829974D01*
X102650054Y6159147D01*
X102168285Y6481054D01*
X101600000Y6594093D01*
X101031715Y6481054D01*
X100549946Y6159147D01*
X100322298Y5818447D01*
X100255183Y5961358D01*
X99826924Y6351645D01*
X99416890Y6521476D01*
X99187000Y6400155D01*
X98933000Y6400155D01*
X98703110Y6521476D01*
X98293076Y6351645D01*
X97864817Y5961358D01*
X97618514Y5436892D01*
X81429797Y5436892D01*
X81381961Y5677378D01*
X81060054Y6159147D01*
X80578285Y6481054D01*
X80010000Y6594093D01*
X79441715Y6481054D01*
X78959946Y6159147D01*
X78932150Y6117548D01*
X78923162Y6165317D01*
X78784090Y6381441D01*
X78571890Y6526431D01*
X78320000Y6577440D01*
X76620000Y6577440D01*
X76594773Y6572693D01*
X79377371Y9355292D01*
X79377118Y9064843D01*
X79519163Y8721067D01*
X79781953Y8457818D01*
X79903267Y8407444D01*
X79986487Y8324224D01*
X79986489Y8324221D01*
X81443498Y6867213D01*
X81443500Y6867210D01*
X81730615Y6675367D01*
X81786806Y6664190D01*
X82069290Y6607999D01*
X82069295Y6608000D01*
X82826292Y6608000D01*
X82946315Y6558162D01*
X83318281Y6557838D01*
X83662057Y6699883D01*
X83925306Y6962673D01*
X84067952Y7306201D01*
X84068276Y7678167D01*
X83926231Y8021943D01*
X83663441Y8285192D01*
X83319913Y8427838D01*
X82947947Y8428162D01*
X82826545Y8378000D01*
X82435869Y8378000D01*
X81238069Y9575801D01*
X81238066Y9575803D01*
X81155025Y9658845D01*
X81105397Y9778953D01*
X80842607Y10042202D01*
X80499079Y10184848D01*
X80207181Y10185102D01*
X80799834Y10777755D01*
X80919943Y10827383D01*
X81183192Y11090173D01*
X81325838Y11433701D01*
X81326162Y11805667D01*
X81285530Y11904003D01*
X81622998Y11904003D01*
X81623003Y11904002D01*
X81905487Y11960193D01*
X81961678Y11971370D01*
X82248793Y12163213D01*
X85381399Y15295819D01*
X85381399Y11523606D01*
X85381398Y11523601D01*
X85434048Y11258917D01*
X85448766Y11184926D01*
X85575863Y10994711D01*
X85640609Y10897811D01*
X86167512Y10370908D01*
X86131400Y10189359D01*
X86131400Y10130641D01*
X86245474Y9557152D01*
X86570330Y9070971D01*
X87056511Y8746115D01*
X87630000Y8632041D01*
X88203489Y8746115D01*
X88689670Y9070971D01*
X88698805Y9084642D01*
X88703238Y9061083D01*
X88842310Y8844959D01*
X89054510Y8699969D01*
X89306400Y8648960D01*
X91033600Y8648960D01*
X91268917Y8693238D01*
X91485041Y8832310D01*
X91630031Y9044510D01*
X91681040Y9296400D01*
X91681040Y11023600D01*
X91636762Y11258917D01*
X91497690Y11475041D01*
X91285490Y11620031D01*
X91241655Y11628908D01*
X91554526Y12097152D01*
X91668600Y12670641D01*
X91668600Y12729359D01*
X91554526Y13302848D01*
X91229670Y13789029D01*
X90958828Y13970000D01*
X91229670Y14150971D01*
X91554526Y14637152D01*
X91668600Y15210641D01*
X91668600Y15269359D01*
X91554526Y15842848D01*
X91229670Y16329029D01*
X90743489Y16653885D01*
X90170000Y16767959D01*
X89596511Y16653885D01*
X89110330Y16329029D01*
X88894336Y16005772D01*
X88836821Y16128490D01*
X88404947Y16522688D01*
X88221938Y16598488D01*
X92836449Y21213000D01*
X96086178Y21213000D01*
X96206201Y21163162D01*
X96578167Y21162838D01*
X96921943Y21304883D01*
X97185192Y21567673D01*
X97327838Y21911201D01*
X97328162Y22283167D01*
X97186117Y22626943D01*
X96923327Y22890192D01*
X96579799Y23032838D01*
X96207833Y23033162D01*
X96086431Y22983000D01*
X93068579Y22983000D01*
X94600579Y24515000D01*
X116925993Y24515000D01*
X116925998Y24514999D01*
X117208482Y24571190D01*
X117264673Y24582367D01*
X117551788Y24774210D01*
X118618000Y25840422D01*
X118618000Y19826426D01*
X118519625Y19589512D01*
X118423785Y19446077D01*
X118390424Y19278362D01*
X118129718Y18650513D01*
X118128285Y17008690D01*
X118354895Y16460253D01*
X118423785Y16113923D01*
X118618000Y15823258D01*
X118618000Y735000D01*
X5152391Y735000D01*
X3422751Y1079047D01*
X2017804Y2017803D01*
X1079047Y3422751D01*
X900470Y4320518D01*
X1244336Y4320518D01*
X1826950Y2910485D01*
X2904811Y1830741D01*
X4313825Y1245667D01*
X5839482Y1244336D01*
X7249515Y1826950D01*
X8329259Y2904811D01*
X8914333Y4313825D01*
X8914690Y4723108D01*
X30308514Y4723108D01*
X30554817Y4198642D01*
X30983076Y3808355D01*
X31393110Y3638524D01*
X31623000Y3759845D01*
X31623000Y4953000D01*
X30429181Y4953000D01*
X30308514Y4723108D01*
X8914690Y4723108D01*
X8915312Y5436892D01*
X30308514Y5436892D01*
X30429181Y5207000D01*
X31623000Y5207000D01*
X31623000Y6400155D01*
X31393110Y6521476D01*
X30983076Y6351645D01*
X30554817Y5961358D01*
X30308514Y5436892D01*
X8915312Y5436892D01*
X8915664Y5839482D01*
X8333050Y7249515D01*
X7255189Y8329259D01*
X5846175Y8914333D01*
X4320518Y8915664D01*
X2910485Y8333050D01*
X1830741Y7255189D01*
X1245667Y5846175D01*
X1244336Y4320518D01*
X900470Y4320518D01*
X735000Y5152390D01*
X735000Y13547185D01*
X2944630Y13547185D01*
X3268980Y12762200D01*
X3869041Y12161091D01*
X4653459Y11835372D01*
X5502815Y11834630D01*
X6287800Y12158980D01*
X6888909Y12759041D01*
X7214628Y13543459D01*
X7215370Y14392815D01*
X6891020Y15177800D01*
X6290959Y15778909D01*
X5506541Y16104628D01*
X4657185Y16105370D01*
X3872200Y15781020D01*
X3271091Y15180959D01*
X2945372Y14396541D01*
X2944630Y13547185D01*
X735000Y13547185D01*
X735000Y18764250D01*
X2945000Y18764250D01*
X2945000Y17423691D01*
X3041673Y17190302D01*
X3220301Y17011673D01*
X3453690Y16915000D01*
X4794250Y16915000D01*
X4953000Y17073750D01*
X4953000Y18923000D01*
X5207000Y18923000D01*
X5207000Y17073750D01*
X5365750Y16915000D01*
X6706310Y16915000D01*
X6939699Y17011673D01*
X7118327Y17190302D01*
X7215000Y17423691D01*
X7215000Y18764250D01*
X7056250Y18923000D01*
X5207000Y18923000D01*
X4953000Y18923000D01*
X3103750Y18923000D01*
X2945000Y18764250D01*
X735000Y18764250D01*
X735000Y20676309D01*
X2945000Y20676309D01*
X2945000Y19335750D01*
X3103750Y19177000D01*
X4953000Y19177000D01*
X4953000Y21026250D01*
X5207000Y21026250D01*
X5207000Y19177000D01*
X7056250Y19177000D01*
X7215000Y19335750D01*
X7215000Y20676309D01*
X7118327Y20909698D01*
X6939699Y21088327D01*
X6706310Y21185000D01*
X5365750Y21185000D01*
X5207000Y21026250D01*
X4953000Y21026250D01*
X4794250Y21185000D01*
X3453690Y21185000D01*
X3220301Y21088327D01*
X3041673Y20909698D01*
X2945000Y20676309D01*
X735000Y20676309D01*
X735000Y22860000D01*
X19685000Y22860000D01*
X19685000Y10160000D01*
X19728427Y9929205D01*
X19864827Y9717233D01*
X20072949Y9575029D01*
X20320000Y9525000D01*
X43180000Y9525000D01*
X43410795Y9568427D01*
X43622767Y9704827D01*
X43764971Y9912949D01*
X43815000Y10160000D01*
X43815000Y22860000D01*
X43771573Y23090795D01*
X43635173Y23302767D01*
X43427051Y23444971D01*
X43180000Y23495000D01*
X20320000Y23495000D01*
X20089205Y23451573D01*
X19877233Y23315173D01*
X19735029Y23107051D01*
X19685000Y22860000D01*
X735000Y22860000D01*
X735000Y29218126D01*
X1090881Y29218126D01*
X1292632Y28807237D01*
X1633322Y28519998D01*
X2058000Y28385000D01*
X2333000Y28385000D01*
X2333000Y29393000D01*
X2587000Y29393000D01*
X2587000Y28385000D01*
X2862000Y28385000D01*
X3286678Y28519998D01*
X3627368Y28807237D01*
X3829119Y29218126D01*
X3702954Y29393000D01*
X2587000Y29393000D01*
X2333000Y29393000D01*
X1217046Y29393000D01*
X1090881Y29218126D01*
X735000Y29218126D01*
X735000Y29821874D01*
X1090881Y29821874D01*
X1217046Y29647000D01*
X2333000Y29647000D01*
X2333000Y30655000D01*
X2587000Y30655000D01*
X2587000Y29647000D01*
X3702954Y29647000D01*
X3829119Y29821874D01*
X3634191Y30218869D01*
X4058771Y30218869D01*
X4200432Y29808951D01*
X4488179Y29484448D01*
X4862062Y29300732D01*
X5033000Y29427266D01*
X5033000Y30393000D01*
X5287000Y30393000D01*
X5287000Y29427266D01*
X5457938Y29300732D01*
X5831821Y29484448D01*
X6119568Y29808951D01*
X6261229Y30218869D01*
X6112563Y30393000D01*
X5287000Y30393000D01*
X5033000Y30393000D01*
X4207437Y30393000D01*
X4058771Y30218869D01*
X3634191Y30218869D01*
X3627368Y30232763D01*
X3286678Y30520002D01*
X2862000Y30655000D01*
X2587000Y30655000D01*
X2333000Y30655000D01*
X2058000Y30655000D01*
X1633322Y30520002D01*
X1292632Y30232763D01*
X1090881Y29821874D01*
X735000Y29821874D01*
X735000Y30821131D01*
X4058771Y30821131D01*
X4207437Y30647000D01*
X5033000Y30647000D01*
X5033000Y31612734D01*
X5287000Y31612734D01*
X5287000Y30647000D01*
X6112563Y30647000D01*
X6261229Y30821131D01*
X6119568Y31231049D01*
X5831821Y31555552D01*
X5457938Y31739268D01*
X5287000Y31612734D01*
X5033000Y31612734D01*
X4862062Y31739268D01*
X4488179Y31555552D01*
X4200432Y31231049D01*
X4058771Y30821131D01*
X735000Y30821131D01*
X735000Y35218869D01*
X4058771Y35218869D01*
X4200432Y34808951D01*
X4488179Y34484448D01*
X4862062Y34300732D01*
X5033000Y34427266D01*
X5033000Y35393000D01*
X5287000Y35393000D01*
X5287000Y34427266D01*
X5457938Y34300732D01*
X5831821Y34484448D01*
X6119568Y34808951D01*
X6261229Y35218869D01*
X6112563Y35393000D01*
X5287000Y35393000D01*
X5033000Y35393000D01*
X4207437Y35393000D01*
X4058771Y35218869D01*
X735000Y35218869D01*
X735000Y36218126D01*
X1090881Y36218126D01*
X1292632Y35807237D01*
X1633322Y35519998D01*
X2058000Y35385000D01*
X2333000Y35385000D01*
X2333000Y36393000D01*
X2587000Y36393000D01*
X2587000Y35385000D01*
X2862000Y35385000D01*
X3286678Y35519998D01*
X3627368Y35807237D01*
X3634190Y35821131D01*
X4058771Y35821131D01*
X4207437Y35647000D01*
X5033000Y35647000D01*
X5033000Y36612734D01*
X5287000Y36612734D01*
X5287000Y35647000D01*
X6112563Y35647000D01*
X6261229Y35821131D01*
X6119568Y36231049D01*
X5841843Y36544250D01*
X12335000Y36544250D01*
X12335000Y35703690D01*
X12431673Y35470301D01*
X12610302Y35291673D01*
X12843691Y35195000D01*
X13684250Y35195000D01*
X13843000Y35353750D01*
X13843000Y36703000D01*
X14097000Y36703000D01*
X14097000Y35353750D01*
X14255750Y35195000D01*
X15096309Y35195000D01*
X15329698Y35291673D01*
X15508327Y35470301D01*
X15594138Y35677468D01*
X20617073Y35677468D01*
X20715736Y35410613D01*
X21325461Y35184092D01*
X21975460Y35208144D01*
X22464264Y35410613D01*
X22562927Y35677468D01*
X21590000Y36650395D01*
X20617073Y35677468D01*
X15594138Y35677468D01*
X15605000Y35703690D01*
X15605000Y36544250D01*
X15446250Y36703000D01*
X14097000Y36703000D01*
X13843000Y36703000D01*
X12493750Y36703000D01*
X12335000Y36544250D01*
X5841843Y36544250D01*
X5831821Y36555552D01*
X5457938Y36739268D01*
X5287000Y36612734D01*
X5033000Y36612734D01*
X4862062Y36739268D01*
X4488179Y36555552D01*
X4200432Y36231049D01*
X4058771Y35821131D01*
X3634190Y35821131D01*
X3829119Y36218126D01*
X3702954Y36393000D01*
X2587000Y36393000D01*
X2333000Y36393000D01*
X1217046Y36393000D01*
X1090881Y36218126D01*
X735000Y36218126D01*
X735000Y36821874D01*
X1090881Y36821874D01*
X1217046Y36647000D01*
X2333000Y36647000D01*
X2333000Y37655000D01*
X2587000Y37655000D01*
X2587000Y36647000D01*
X3702954Y36647000D01*
X3829119Y36821874D01*
X3627368Y37232763D01*
X3286678Y37520002D01*
X2862000Y37655000D01*
X2587000Y37655000D01*
X2333000Y37655000D01*
X2058000Y37655000D01*
X1633322Y37520002D01*
X1292632Y37232763D01*
X1090881Y36821874D01*
X735000Y36821874D01*
X735000Y37956310D01*
X12335000Y37956310D01*
X12335000Y37115750D01*
X12493750Y36957000D01*
X13843000Y36957000D01*
X13843000Y38306250D01*
X14097000Y38306250D01*
X14097000Y36957000D01*
X15446250Y36957000D01*
X15583789Y37094539D01*
X19944092Y37094539D01*
X19968144Y36444540D01*
X20170613Y35955736D01*
X20437468Y35857073D01*
X21410395Y36830000D01*
X21769605Y36830000D01*
X22742532Y35857073D01*
X23009387Y35955736D01*
X23235908Y36565461D01*
X23211856Y37215460D01*
X23009387Y37704264D01*
X22742532Y37802927D01*
X21769605Y36830000D01*
X21410395Y36830000D01*
X20437468Y37802927D01*
X20170613Y37704264D01*
X19944092Y37094539D01*
X15583789Y37094539D01*
X15605000Y37115750D01*
X15605000Y37956310D01*
X15594139Y37982532D01*
X20617073Y37982532D01*
X21590000Y37009605D01*
X22562927Y37982532D01*
X22464264Y38249387D01*
X21854539Y38475908D01*
X21204540Y38451856D01*
X20715736Y38249387D01*
X20617073Y37982532D01*
X15594139Y37982532D01*
X15508327Y38189699D01*
X15329698Y38368327D01*
X15096309Y38465000D01*
X14255750Y38465000D01*
X14097000Y38306250D01*
X13843000Y38306250D01*
X13684250Y38465000D01*
X12843691Y38465000D01*
X12610302Y38368327D01*
X12431673Y38189699D01*
X12335000Y37956310D01*
X735000Y37956310D01*
X735000Y43690518D01*
X1244336Y43690518D01*
X1826950Y42280485D01*
X2904811Y41200741D01*
X4313825Y40615667D01*
X5839482Y40614336D01*
X7249515Y41196950D01*
X7686666Y41633339D01*
X12572758Y41633339D01*
X12784990Y41119697D01*
X13177630Y40726371D01*
X13690900Y40513243D01*
X14246661Y40512758D01*
X14760303Y40724990D01*
X15153629Y41117630D01*
X15239949Y41325512D01*
X15324990Y41119697D01*
X15717630Y40726371D01*
X16230900Y40513243D01*
X16786661Y40512758D01*
X17300303Y40724990D01*
X17693629Y41117630D01*
X17779949Y41325512D01*
X17864990Y41119697D01*
X18257630Y40726371D01*
X18770900Y40513243D01*
X19326661Y40512758D01*
X19840303Y40724990D01*
X20233629Y41117630D01*
X20319949Y41325512D01*
X20404990Y41119697D01*
X20797630Y40726371D01*
X21310900Y40513243D01*
X21866661Y40512758D01*
X22380303Y40724990D01*
X22773629Y41117630D01*
X22986757Y41630900D01*
X22987242Y42186661D01*
X22775010Y42700303D01*
X22382370Y43093629D01*
X22174488Y43179949D01*
X22380303Y43264990D01*
X22773629Y43657630D01*
X22986757Y44170900D01*
X22987242Y44726661D01*
X22775010Y45240303D01*
X22382370Y45633629D01*
X21869100Y45846757D01*
X21313339Y45847242D01*
X20799697Y45635010D01*
X20406371Y45242370D01*
X20193243Y44729100D01*
X20192758Y44173339D01*
X20404990Y43659697D01*
X20797630Y43266371D01*
X21005512Y43180051D01*
X20799697Y43095010D01*
X20406371Y42702370D01*
X20320051Y42494488D01*
X20235010Y42700303D01*
X19842370Y43093629D01*
X19329100Y43306757D01*
X18773339Y43307242D01*
X18259697Y43095010D01*
X17866371Y42702370D01*
X17780051Y42494488D01*
X17695010Y42700303D01*
X17302370Y43093629D01*
X16789100Y43306757D01*
X16233339Y43307242D01*
X15719697Y43095010D01*
X15326371Y42702370D01*
X15240051Y42494488D01*
X15155010Y42700303D01*
X14762370Y43093629D01*
X14249100Y43306757D01*
X13693339Y43307242D01*
X13179697Y43095010D01*
X12786371Y42702370D01*
X12573243Y42189100D01*
X12572758Y41633339D01*
X7686666Y41633339D01*
X8329259Y42274811D01*
X8914333Y43683825D01*
X8915664Y45209482D01*
X8333050Y46619515D01*
X7255189Y47699259D01*
X5846175Y48284333D01*
X4320518Y48285664D01*
X2910485Y47703050D01*
X1830741Y46625189D01*
X1245667Y45216175D01*
X1244336Y43690518D01*
X735000Y43690518D01*
X735000Y44377610D01*
X1079047Y46107249D01*
X2017804Y47512197D01*
X3422751Y48450953D01*
X5152391Y48795000D01*
X144707610Y48795000D01*
X146437249Y48450953D01*
X146437249Y48450953D01*
G37*
X146437249Y48450953D02*
X147842197Y47512196D01*
X148780953Y46107249D01*
X149125000Y44377609D01*
X149125000Y28067000D01*
X138723914Y28067000D01*
X139066645Y28443076D01*
X139236476Y28853110D01*
X139115155Y29083000D01*
X137922000Y29083000D01*
X137922000Y29063000D01*
X137668000Y29063000D01*
X137668000Y29083000D01*
X136474845Y29083000D01*
X136353524Y28853110D01*
X136523355Y28443076D01*
X136866086Y28067000D01*
X121393579Y28067000D01*
X121651579Y28325000D01*
X128598178Y28325000D01*
X128718201Y28275162D01*
X129090167Y28274838D01*
X129433943Y28416883D01*
X129697192Y28679673D01*
X129839838Y29023201D01*
X129840162Y29395167D01*
X129698117Y29738943D01*
X129435327Y30002192D01*
X129091799Y30144838D01*
X128719833Y30145162D01*
X128598431Y30095000D01*
X121285005Y30095000D01*
X121285000Y30095001D01*
X120946325Y30027633D01*
X120659210Y29835790D01*
X120659208Y29835787D01*
X119648420Y28825000D01*
X119465998Y28825000D01*
X119462494Y28824303D01*
X119506757Y28930900D01*
X119507242Y29486661D01*
X119295010Y30000303D01*
X118962656Y30333238D01*
X119034943Y30363106D01*
X119495278Y30822637D01*
X119744716Y31423352D01*
X119745284Y32073795D01*
X119505139Y32654989D01*
X124335432Y32654989D01*
X124095284Y32076648D01*
X124094716Y31426205D01*
X124343106Y30825057D01*
X124802637Y30364722D01*
X125403352Y30115284D01*
X126053795Y30114716D01*
X126654943Y30363106D01*
X127115278Y30822637D01*
X127364716Y31423352D01*
X127365284Y32073795D01*
X127125139Y32654989D01*
X135842903Y32654989D01*
X135842908Y32654988D01*
X136125392Y32711179D01*
X136181583Y32722356D01*
X136468698Y32914199D01*
X136468699Y32914200D01*
X136762965Y33208467D01*
X137045026Y33020000D01*
X136715853Y32800054D01*
X136393946Y32318285D01*
X136280907Y31750000D01*
X136393946Y31181715D01*
X136715853Y30699946D01*
X137056553Y30472298D01*
X136913642Y30405183D01*
X136523355Y29976924D01*
X136353524Y29566890D01*
X136474845Y29337000D01*
X137668000Y29337000D01*
X137668000Y29357000D01*
X137922000Y29357000D01*
X137922000Y29337000D01*
X139115155Y29337000D01*
X139236476Y29566890D01*
X139066645Y29976924D01*
X138676358Y30405183D01*
X138533447Y30472298D01*
X138874147Y30699946D01*
X139196054Y31181715D01*
X139309093Y31750000D01*
X139196054Y32318285D01*
X138874147Y32800054D01*
X138544974Y33020000D01*
X138874147Y33239946D01*
X139196054Y33721715D01*
X139309093Y34290000D01*
X139196054Y34858285D01*
X138874147Y35340054D01*
X138544974Y35560000D01*
X138874147Y35779946D01*
X139196054Y36261715D01*
X139309093Y36830000D01*
X139196054Y37398285D01*
X138874147Y37880054D01*
X138544974Y38100000D01*
X138874147Y38319946D01*
X139196054Y38801715D01*
X139309093Y39370000D01*
X139196054Y39938285D01*
X138874147Y40420054D01*
X138544974Y40640000D01*
X138874147Y40859946D01*
X139196054Y41341715D01*
X139309093Y41910000D01*
X139196054Y42478285D01*
X138874147Y42960054D01*
X138832548Y42987850D01*
X138880317Y42996838D01*
X139096441Y43135910D01*
X139241431Y43348110D01*
X139292440Y43600000D01*
X139292440Y43690518D01*
X140944336Y43690518D01*
X141526950Y42280485D01*
X142604811Y41200741D01*
X144013825Y40615667D01*
X145539482Y40614336D01*
X146949515Y41196950D01*
X148029259Y42274811D01*
X148614333Y43683825D01*
X148615664Y45209482D01*
X148033050Y46619515D01*
X146955189Y47699259D01*
X145546175Y48284333D01*
X144020518Y48285664D01*
X142610485Y47703050D01*
X141530741Y46625189D01*
X140945667Y45216175D01*
X140944336Y43690518D01*
X139292440Y43690518D01*
X139292440Y45300000D01*
X139248162Y45535317D01*
X139109090Y45751441D01*
X138896890Y45896431D01*
X138645000Y45947440D01*
X136945000Y45947440D01*
X136709683Y45903162D01*
X136493559Y45764090D01*
X136348569Y45551890D01*
X136297560Y45300000D01*
X136297560Y43600000D01*
X136341838Y43364683D01*
X136480910Y43148559D01*
X136693110Y43003569D01*
X136760541Y42989914D01*
X136715853Y42960054D01*
X136393946Y42478285D01*
X136280907Y41910000D01*
X136393946Y41341715D01*
X136715853Y40859946D01*
X137045026Y40640000D01*
X136715853Y40420054D01*
X136393946Y39938285D01*
X136280907Y39370000D01*
X136393946Y38801715D01*
X136715853Y38319946D01*
X137045026Y38100000D01*
X136715853Y37880054D01*
X136393946Y37398285D01*
X136280907Y36830000D01*
X136393946Y36261715D01*
X136715853Y35779946D01*
X137045026Y35560000D01*
X136715853Y35340054D01*
X136605568Y35175000D01*
X136592924Y35175000D01*
X136592919Y35175001D01*
X136310435Y35118810D01*
X136254244Y35107633D01*
X135967129Y34915790D01*
X135967127Y34915787D01*
X135476328Y34424989D01*
X120639569Y34424989D01*
X121892047Y35677468D01*
X124757073Y35677468D01*
X124855736Y35410613D01*
X125465461Y35184092D01*
X126115460Y35208144D01*
X126604264Y35410613D01*
X126702927Y35677468D01*
X125730000Y36650395D01*
X124757073Y35677468D01*
X121892047Y35677468D01*
X123309118Y37094539D01*
X124084092Y37094539D01*
X124108144Y36444540D01*
X124310613Y35955736D01*
X124577468Y35857073D01*
X125550395Y36830000D01*
X125909605Y36830000D01*
X126882532Y35857073D01*
X127149387Y35955736D01*
X127375908Y36565461D01*
X127351856Y37215460D01*
X127149387Y37704264D01*
X126882532Y37802927D01*
X125909605Y36830000D01*
X125550395Y36830000D01*
X124577468Y37802927D01*
X124310613Y37704264D01*
X124084092Y37094539D01*
X123309118Y37094539D01*
X124197111Y37982532D01*
X124757073Y37982532D01*
X125730000Y37009605D01*
X126702927Y37982532D01*
X126604264Y38249387D01*
X125994539Y38475908D01*
X125344540Y38451856D01*
X124855736Y38249387D01*
X124757073Y37982532D01*
X124197111Y37982532D01*
X125969579Y39755000D01*
X129233178Y39755000D01*
X129353201Y39705162D01*
X129725167Y39704838D01*
X130068943Y39846883D01*
X130332192Y40109673D01*
X130474838Y40453201D01*
X130475162Y40825167D01*
X130333117Y41168943D01*
X130070327Y41432192D01*
X129726799Y41574838D01*
X129354833Y41575162D01*
X129233431Y41525000D01*
X127082784Y41525000D01*
X127126757Y41630900D01*
X127127242Y42186661D01*
X126915010Y42700303D01*
X126522370Y43093629D01*
X126314488Y43179949D01*
X126520303Y43264990D01*
X126913629Y43657630D01*
X127126757Y44170900D01*
X127127242Y44726661D01*
X126915010Y45240303D01*
X126522370Y45633629D01*
X126009100Y45846757D01*
X125453339Y45847242D01*
X124939697Y45635010D01*
X124546371Y45242370D01*
X124333243Y44729100D01*
X124332758Y44173339D01*
X124544990Y43659697D01*
X124937630Y43266371D01*
X125145512Y43180051D01*
X124939697Y43095010D01*
X124546371Y42702370D01*
X124460051Y42494488D01*
X124375010Y42700303D01*
X123982370Y43093629D01*
X123469100Y43306757D01*
X122913339Y43307242D01*
X122399697Y43095010D01*
X122006371Y42702370D01*
X121920051Y42494488D01*
X121835010Y42700303D01*
X121442370Y43093629D01*
X120929100Y43306757D01*
X120373339Y43307242D01*
X119859697Y43095010D01*
X119466371Y42702370D01*
X119380051Y42494488D01*
X119295010Y42700303D01*
X118902370Y43093629D01*
X118389100Y43306757D01*
X117833339Y43307242D01*
X117319697Y43095010D01*
X116926371Y42702370D01*
X116713243Y42189100D01*
X116712758Y41633339D01*
X116924990Y41119697D01*
X117317630Y40726371D01*
X117830900Y40513243D01*
X118386661Y40512758D01*
X118900303Y40724990D01*
X119293629Y41117630D01*
X119379949Y41325512D01*
X119464990Y41119697D01*
X119857630Y40726371D01*
X120370900Y40513243D01*
X120926661Y40512758D01*
X121440303Y40724990D01*
X121833629Y41117630D01*
X121919949Y41325512D01*
X122004990Y41119697D01*
X122397630Y40726371D01*
X122910900Y40513243D01*
X123466661Y40512758D01*
X123980303Y40724990D01*
X124373629Y41117630D01*
X124459949Y41325512D01*
X124544990Y41119697D01*
X124687929Y40976508D01*
X119745000Y36033580D01*
X119745000Y36544250D01*
X119586250Y36703000D01*
X118237000Y36703000D01*
X118237000Y35353750D01*
X118395750Y35195000D01*
X118906420Y35195000D01*
X118886420Y35175000D01*
X104162890Y35175000D01*
X104465743Y35355353D01*
X104859119Y36327012D01*
X104857377Y36544250D01*
X116475000Y36544250D01*
X116475000Y35703690D01*
X116571673Y35470301D01*
X116750302Y35291673D01*
X116983691Y35195000D01*
X117824250Y35195000D01*
X117983000Y35353750D01*
X117983000Y36703000D01*
X116633750Y36703000D01*
X116475000Y36544250D01*
X104857377Y36544250D01*
X104850713Y37375247D01*
X104610029Y37956310D01*
X116475000Y37956310D01*
X116475000Y37115750D01*
X116633750Y36957000D01*
X117983000Y36957000D01*
X117983000Y38306250D01*
X118237000Y38306250D01*
X118237000Y36957000D01*
X119586250Y36957000D01*
X119745000Y37115750D01*
X119745000Y37956310D01*
X119648327Y38189699D01*
X119469698Y38368327D01*
X119236309Y38465000D01*
X118395750Y38465000D01*
X118237000Y38306250D01*
X117983000Y38306250D01*
X117824250Y38465000D01*
X116983691Y38465000D01*
X116750302Y38368327D01*
X116571673Y38189699D01*
X116475000Y37956310D01*
X104610029Y37956310D01*
X104465743Y38304647D01*
X104095022Y38525416D01*
X102399605Y36830000D01*
X102413748Y36815858D01*
X102234142Y36636252D01*
X102220000Y36650395D01*
X102205858Y36636252D01*
X102026252Y36815858D01*
X102040395Y36830000D01*
X100344978Y38525416D01*
X99974257Y38304647D01*
X99580881Y37332988D01*
X99589287Y36284753D01*
X99974257Y35355353D01*
X100277110Y35175000D01*
X92762890Y35175000D01*
X93065743Y35355353D01*
X93459119Y36327012D01*
X93450713Y37375247D01*
X93065743Y38304647D01*
X92695022Y38525416D01*
X90999605Y36830000D01*
X91013748Y36815858D01*
X90834142Y36636252D01*
X90820000Y36650395D01*
X90805858Y36636252D01*
X90626252Y36815858D01*
X90640395Y36830000D01*
X88944978Y38525416D01*
X88574257Y38304647D01*
X88180881Y37332988D01*
X88189287Y36284753D01*
X88574257Y35355353D01*
X88877110Y35175000D01*
X86666822Y35175000D01*
X86546799Y35224838D01*
X86174833Y35225162D01*
X85831057Y35083117D01*
X85567808Y34820327D01*
X85425162Y34476799D01*
X85424838Y34104833D01*
X85566883Y33761057D01*
X85829673Y33497808D01*
X86173201Y33355162D01*
X86545167Y33354838D01*
X86666569Y33405000D01*
X116293419Y33405000D01*
X110443418Y27555000D01*
X51321824Y27555000D01*
X51201801Y27604838D01*
X51196706Y27604842D01*
X51724943Y27823106D01*
X52070199Y28167759D01*
X52412637Y27824722D01*
X53013352Y27575284D01*
X53663795Y27574716D01*
X54264943Y27823106D01*
X54610199Y28167759D01*
X54952637Y27824722D01*
X55553352Y27575284D01*
X56203795Y27574716D01*
X56804943Y27823106D01*
X57150199Y28167759D01*
X57492637Y27824722D01*
X58093352Y27575284D01*
X58743795Y27574716D01*
X59344943Y27823106D01*
X59805278Y28282637D01*
X59822869Y28325000D01*
X66128811Y28325000D01*
X66128816Y28324999D01*
X66411300Y28381190D01*
X66467491Y28392367D01*
X66754606Y28584210D01*
X66847863Y28677468D01*
X93047073Y28677468D01*
X93145736Y28410613D01*
X93755461Y28184092D01*
X94405460Y28208144D01*
X94894264Y28410613D01*
X94992927Y28677468D01*
X94020000Y29650395D01*
X93047073Y28677468D01*
X66847863Y28677468D01*
X68264934Y30094539D01*
X92374092Y30094539D01*
X92398144Y29444540D01*
X92600613Y28955736D01*
X92867468Y28857073D01*
X93840395Y29830000D01*
X94199605Y29830000D01*
X95172532Y28857073D01*
X95439387Y28955736D01*
X95643893Y29506205D01*
X97384716Y29506205D01*
X97633106Y28905057D01*
X98092637Y28444722D01*
X98693352Y28195284D01*
X99343795Y28194716D01*
X99944943Y28443106D01*
X100405278Y28902637D01*
X100654716Y29503352D01*
X100655284Y30153795D01*
X100406894Y30754943D01*
X99947363Y31215278D01*
X99346648Y31464716D01*
X98696205Y31465284D01*
X98095057Y31216894D01*
X97634722Y30757363D01*
X97385284Y30156648D01*
X97384716Y29506205D01*
X95643893Y29506205D01*
X95665908Y29565461D01*
X95641856Y30215460D01*
X95439387Y30704264D01*
X95172532Y30802927D01*
X94199605Y29830000D01*
X93840395Y29830000D01*
X92867468Y30802927D01*
X92600613Y30704264D01*
X92374092Y30094539D01*
X68264934Y30094539D01*
X69152927Y30982532D01*
X93047073Y30982532D01*
X94020000Y30009605D01*
X94992927Y30982532D01*
X94894264Y31249387D01*
X94284539Y31475908D01*
X93634540Y31451856D01*
X93145736Y31249387D01*
X93047073Y30982532D01*
X69152927Y30982532D01*
X74691435Y36521040D01*
X74811544Y36570668D01*
X75074793Y36833458D01*
X75217439Y37176986D01*
X75217763Y37548952D01*
X75075718Y37892728D01*
X74812928Y38155977D01*
X74469400Y38298623D01*
X74341063Y38298735D01*
X74341162Y38412167D01*
X74220158Y38705022D01*
X89124584Y38705022D01*
X90820000Y37009605D01*
X92515416Y38705022D01*
X100524584Y38705022D01*
X102220000Y37009605D01*
X103915416Y38705022D01*
X103694647Y39075743D01*
X102722988Y39469119D01*
X101674753Y39460713D01*
X100745353Y39075743D01*
X100524584Y38705022D01*
X92515416Y38705022D01*
X92294647Y39075743D01*
X91322988Y39469119D01*
X90274753Y39460713D01*
X89345353Y39075743D01*
X89124584Y38705022D01*
X74220158Y38705022D01*
X74199117Y38755943D01*
X73936327Y39019192D01*
X73815013Y39069566D01*
X71783800Y41100780D01*
X71758582Y41117630D01*
X71496685Y41292623D01*
X71440494Y41303800D01*
X71158010Y41359991D01*
X71158005Y41359990D01*
X63800075Y41359990D01*
X63800162Y41460167D01*
X63670072Y41775009D01*
X73171343Y41775009D01*
X73383673Y41562308D01*
X73727201Y41419662D01*
X74099167Y41419338D01*
X74442943Y41561383D01*
X74706192Y41824173D01*
X74848838Y42167701D01*
X74849162Y42539667D01*
X74707117Y42883443D01*
X74444327Y43146692D01*
X74323014Y43197066D01*
X74234281Y43285799D01*
X74070849Y43395000D01*
X73947166Y43477642D01*
X73890975Y43488819D01*
X73608491Y43545010D01*
X73608486Y43545009D01*
X59814568Y43545009D01*
X60006072Y44006205D01*
X92384716Y44006205D01*
X92633106Y43405057D01*
X93092637Y42944722D01*
X93693352Y42695284D01*
X94343795Y42694716D01*
X94944943Y42943106D01*
X95179715Y43177468D01*
X95547073Y43177468D01*
X95645736Y42910613D01*
X96255461Y42684092D01*
X96905460Y42708144D01*
X97394264Y42910613D01*
X97492927Y43177468D01*
X96520000Y44150395D01*
X95547073Y43177468D01*
X95179715Y43177468D01*
X95361752Y43359187D01*
X95367468Y43357073D01*
X96340395Y44330000D01*
X96699605Y44330000D01*
X97672532Y43357073D01*
X97678722Y43359361D01*
X98092637Y42944722D01*
X98693352Y42695284D01*
X99343795Y42694716D01*
X99944943Y42943106D01*
X100405278Y43402637D01*
X100654716Y44003352D01*
X100655284Y44653795D01*
X100406894Y45254943D01*
X99947363Y45715278D01*
X99346648Y45964716D01*
X98696205Y45965284D01*
X98095057Y45716894D01*
X97678248Y45300813D01*
X97672532Y45302927D01*
X96699605Y44330000D01*
X96340395Y44330000D01*
X95367468Y45302927D01*
X95361278Y45300639D01*
X95179703Y45482532D01*
X95547073Y45482532D01*
X96520000Y44509605D01*
X97492927Y45482532D01*
X97394264Y45749387D01*
X96784539Y45975908D01*
X96134540Y45951856D01*
X95645736Y45749387D01*
X95547073Y45482532D01*
X95179703Y45482532D01*
X94947363Y45715278D01*
X94346648Y45964716D01*
X93696205Y45965284D01*
X93095057Y45716894D01*
X92634722Y45257363D01*
X92385284Y44656648D01*
X92384716Y44006205D01*
X60006072Y44006205D01*
X60054716Y44123352D01*
X60055284Y44773795D01*
X59806894Y45374943D01*
X59347363Y45835278D01*
X58746648Y46084716D01*
X58096205Y46085284D01*
X57495057Y45836894D01*
X57149801Y45492241D01*
X56807363Y45835278D01*
X56206648Y46084716D01*
X55556205Y46085284D01*
X54955057Y45836894D01*
X54609801Y45492241D01*
X54267363Y45835278D01*
X53666648Y46084716D01*
X53016205Y46085284D01*
X52415057Y45836894D01*
X52069801Y45492241D01*
X51727363Y45835278D01*
X51126648Y46084716D01*
X50476205Y46085284D01*
X49875057Y45836894D01*
X49529801Y45492241D01*
X49187363Y45835278D01*
X48586648Y46084716D01*
X47936205Y46085284D01*
X47335057Y45836894D01*
X46989801Y45492241D01*
X46647363Y45835278D01*
X46046648Y46084716D01*
X45396205Y46085284D01*
X44795057Y45836894D01*
X44334722Y45377363D01*
X44085284Y44776648D01*
X44084716Y44126205D01*
X44333106Y43525057D01*
X44792637Y43064722D01*
X45393352Y42815284D01*
X46043795Y42814716D01*
X46086188Y42832232D01*
X52206208Y36712213D01*
X52206210Y36712210D01*
X52493325Y36520367D01*
X52549516Y36509190D01*
X52832000Y36452999D01*
X52832005Y36453000D01*
X56178919Y36453000D01*
X54265918Y34540000D01*
X8815822Y34540000D01*
X8695799Y34589838D01*
X8323833Y34590162D01*
X7980057Y34448117D01*
X7716808Y34185327D01*
X7574162Y33841799D01*
X7573838Y33469833D01*
X7715883Y33126057D01*
X7978673Y32862808D01*
X8322201Y32720162D01*
X8694167Y32719838D01*
X8815569Y32770000D01*
X12677521Y32770000D01*
X12584722Y32677363D01*
X12335284Y32076648D01*
X12334716Y31426205D01*
X12583106Y30825057D01*
X13042637Y30364722D01*
X13118006Y30333426D01*
X12786371Y30002370D01*
X12573243Y29489100D01*
X12572758Y28933339D01*
X12784990Y28419697D01*
X13177630Y28026371D01*
X13690900Y27813243D01*
X14246661Y27812758D01*
X14760303Y28024990D01*
X15153629Y28417630D01*
X15366757Y28930900D01*
X15367242Y29486661D01*
X15155010Y30000303D01*
X14822656Y30333238D01*
X14894943Y30363106D01*
X15355278Y30822637D01*
X15604716Y31423352D01*
X15605284Y32073795D01*
X15356894Y32674943D01*
X15262003Y32770000D01*
X20297521Y32770000D01*
X20204722Y32677363D01*
X19955284Y32076648D01*
X19954716Y31426205D01*
X20203106Y30825057D01*
X20662637Y30364722D01*
X21263352Y30115284D01*
X21913795Y30114716D01*
X22514943Y30363106D01*
X22975278Y30822637D01*
X23224716Y31423352D01*
X23225284Y32073795D01*
X22976894Y32674943D01*
X22882003Y32770000D01*
X46512421Y32770000D01*
X45094210Y31351790D01*
X44902367Y31064675D01*
X44891190Y31008484D01*
X44864327Y30873440D01*
X44704000Y30873440D01*
X44468683Y30829162D01*
X44252559Y30690090D01*
X44107569Y30477890D01*
X44056560Y30226000D01*
X44056560Y28194000D01*
X44100838Y27958683D01*
X44239910Y27742559D01*
X44452110Y27597569D01*
X44704000Y27546560D01*
X46736000Y27546560D01*
X46971317Y27590838D01*
X47187441Y27729910D01*
X47284899Y27872544D01*
X47332637Y27824722D01*
X47933352Y27575284D01*
X48583795Y27574716D01*
X49184943Y27823106D01*
X49530199Y28167759D01*
X49872637Y27824722D01*
X50473352Y27575284D01*
X50756925Y27575036D01*
X50486059Y27463117D01*
X50222810Y27200327D01*
X50080164Y26856799D01*
X50079840Y26484833D01*
X50221885Y26141057D01*
X50484675Y25877808D01*
X50828203Y25735162D01*
X51200169Y25734838D01*
X51321571Y25785000D01*
X66697421Y25785000D01*
X65250164Y24337744D01*
X65130057Y24288117D01*
X64866808Y24025327D01*
X64724162Y23681799D01*
X64723838Y23309833D01*
X64843180Y23021002D01*
X58458007Y23021002D01*
X58458002Y23021003D01*
X58174818Y22964673D01*
X58119327Y22953635D01*
X57832212Y22761792D01*
X57832210Y22761789D01*
X47470164Y12399744D01*
X47350057Y12350117D01*
X47086808Y12087327D01*
X46944162Y11743799D01*
X46943838Y11371833D01*
X47085883Y11028057D01*
X47348673Y10764808D01*
X47692201Y10622162D01*
X48064167Y10621838D01*
X48407943Y10763883D01*
X48513954Y10869710D01*
X48618673Y10764808D01*
X48962201Y10622162D01*
X49334167Y10621838D01*
X49677943Y10763883D01*
X49941192Y11026673D01*
X49991566Y11147986D01*
X56689585Y17846006D01*
X76347614Y17846006D01*
X76489659Y17502230D01*
X76752449Y17238981D01*
X77095977Y17096335D01*
X77467943Y17096011D01*
X77811719Y17238056D01*
X78074968Y17500846D01*
X78141440Y17660927D01*
X78287633Y17879722D01*
X78309203Y17988162D01*
X78355001Y18218397D01*
X78355000Y18218402D01*
X78355000Y21664178D01*
X78404838Y21784201D01*
X78405162Y22156167D01*
X78263117Y22499943D01*
X78000327Y22763192D01*
X77656799Y22905838D01*
X77284833Y22906162D01*
X76941057Y22764117D01*
X76677808Y22501327D01*
X76535162Y22157799D01*
X76534838Y21785833D01*
X76585000Y21664431D01*
X76585000Y18655751D01*
X76490584Y18561500D01*
X76347938Y18217972D01*
X76347614Y17846006D01*
X56689585Y17846006D01*
X59167579Y20324000D01*
X67765177Y20324000D01*
X67885200Y20274162D01*
X68257166Y20273838D01*
X68600942Y20415883D01*
X68864191Y20678673D01*
X69006837Y21022201D01*
X69006976Y21181445D01*
X69346000Y20842421D01*
X69346000Y19229822D01*
X69296162Y19109799D01*
X69295838Y18737833D01*
X69437883Y18394057D01*
X69700673Y18130808D01*
X70044201Y17988162D01*
X70416167Y17987838D01*
X70759943Y18129883D01*
X71023192Y18392673D01*
X71165838Y18736201D01*
X71166162Y19108167D01*
X71116000Y19229569D01*
X71116000Y21208995D01*
X71116001Y21209000D01*
X71048633Y21547674D01*
X71048633Y21547675D01*
X70856790Y21834790D01*
X70856787Y21834792D01*
X69929788Y22761792D01*
X69858196Y22809628D01*
X69642673Y22953635D01*
X69580224Y22966057D01*
X69303998Y23021003D01*
X69303993Y23021002D01*
X67871582Y23021002D01*
X67898566Y23085986D01*
X68057579Y23245000D01*
X78993995Y23245000D01*
X78994000Y23244999D01*
X79311731Y23308201D01*
X79332675Y23312367D01*
X79619790Y23504210D01*
X79619791Y23504211D01*
X79700788Y23585209D01*
X79700791Y23585211D01*
X79783835Y23668256D01*
X79903943Y23717883D01*
X80167192Y23980673D01*
X80309838Y24324201D01*
X80309961Y24464959D01*
X80449167Y24464838D01*
X80792943Y24606883D01*
X81056192Y24869673D01*
X81198838Y25213201D01*
X81199162Y25585167D01*
X81116593Y25785000D01*
X93367421Y25785000D01*
X81759794Y14177374D01*
X81556327Y14381196D01*
X81212799Y14523842D01*
X80840833Y14524166D01*
X80719431Y14474004D01*
X71359575Y14474004D01*
X70521789Y15311791D01*
X70521786Y15311793D01*
X70438745Y15394835D01*
X70389117Y15514943D01*
X70126327Y15778192D01*
X69782799Y15920838D01*
X69410833Y15921162D01*
X69122110Y15801864D01*
X68836160Y15920602D01*
X68464194Y15920926D01*
X68201994Y15812587D01*
X67941299Y15920838D01*
X67569333Y15921162D01*
X67225557Y15779117D01*
X66962308Y15516327D01*
X66911934Y15395013D01*
X57481920Y5965000D01*
X45940854Y5965000D01*
X45903162Y6165317D01*
X45764090Y6381441D01*
X45551890Y6526431D01*
X45300000Y6577440D01*
X43600000Y6577440D01*
X43364683Y6533162D01*
X43148559Y6394090D01*
X43003569Y6181890D01*
X42989914Y6114459D01*
X42960054Y6159147D01*
X42478285Y6481054D01*
X41910000Y6594093D01*
X41341715Y6481054D01*
X40859946Y6159147D01*
X40640000Y5829974D01*
X40420054Y6159147D01*
X39938285Y6481054D01*
X39370000Y6594093D01*
X38801715Y6481054D01*
X38319946Y6159147D01*
X38100000Y5829974D01*
X37880054Y6159147D01*
X37398285Y6481054D01*
X36830000Y6594093D01*
X36261715Y6481054D01*
X35779946Y6159147D01*
X35560000Y5829974D01*
X35340054Y6159147D01*
X34858285Y6481054D01*
X34290000Y6594093D01*
X33721715Y6481054D01*
X33239946Y6159147D01*
X33012298Y5818447D01*
X32945183Y5961358D01*
X32516924Y6351645D01*
X32106890Y6521476D01*
X31877000Y6400155D01*
X31877000Y5207000D01*
X31897000Y5207000D01*
X31897000Y4953000D01*
X31877000Y4953000D01*
X31877000Y3759845D01*
X32106890Y3638524D01*
X32516924Y3808355D01*
X32945183Y4198642D01*
X33012298Y4341553D01*
X33239946Y4000853D01*
X33721715Y3678946D01*
X34290000Y3565907D01*
X34858285Y3678946D01*
X35340054Y4000853D01*
X35560000Y4330026D01*
X35779946Y4000853D01*
X36261715Y3678946D01*
X36830000Y3565907D01*
X37398285Y3678946D01*
X37880054Y4000853D01*
X38100000Y4330026D01*
X38319946Y4000853D01*
X38801715Y3678946D01*
X39370000Y3565907D01*
X39938285Y3678946D01*
X40420054Y4000853D01*
X40640000Y4330026D01*
X40859946Y4000853D01*
X41341715Y3678946D01*
X41910000Y3565907D01*
X42128960Y3609461D01*
X42634209Y3104212D01*
X42634211Y3104209D01*
X42921326Y2912366D01*
X42977517Y2901189D01*
X43260001Y2844998D01*
X43260006Y2844999D01*
X57817855Y2844999D01*
X57817860Y2844998D01*
X58100344Y2901189D01*
X58156535Y2912366D01*
X58443650Y3104209D01*
X69275148Y13935708D01*
X69275151Y13935710D01*
X69323039Y14007381D01*
X70367204Y12963217D01*
X70367206Y12963214D01*
X70654321Y12771371D01*
X70710512Y12760194D01*
X70992996Y12704003D01*
X70993001Y12704004D01*
X77746425Y12704004D01*
X71896420Y6854000D01*
X68692580Y6854000D01*
X68660744Y6885835D01*
X68611117Y7005943D01*
X68348327Y7269192D01*
X68004799Y7411838D01*
X67632833Y7412162D01*
X67289057Y7270117D01*
X67025808Y7007327D01*
X66883162Y6663799D01*
X66882838Y6291833D01*
X67024883Y5948057D01*
X67084749Y5888086D01*
X66997833Y5888162D01*
X66654057Y5746117D01*
X66390808Y5483327D01*
X66248162Y5139799D01*
X66247838Y4767833D01*
X66389883Y4424057D01*
X66652673Y4160808D01*
X66996201Y4018162D01*
X67368167Y4017838D01*
X67489569Y4068000D01*
X72539493Y4068000D01*
X72539498Y4067999D01*
X72821982Y4124190D01*
X72878173Y4135367D01*
X73165288Y4327210D01*
X74905841Y6067763D01*
X74976615Y5996866D01*
X75320143Y5854220D01*
X75692109Y5853896D01*
X75981350Y5973408D01*
X75972560Y5930000D01*
X75972560Y4230000D01*
X76016838Y3994683D01*
X76155910Y3778559D01*
X76368110Y3633569D01*
X76620000Y3582560D01*
X78320000Y3582560D01*
X78555317Y3626838D01*
X78771441Y3765910D01*
X78916431Y3978110D01*
X78930086Y4045541D01*
X78959946Y4000853D01*
X79441715Y3678946D01*
X80010000Y3565907D01*
X80578285Y3678946D01*
X81060054Y4000853D01*
X81381961Y4482622D01*
X81429796Y4723108D01*
X97618514Y4723108D01*
X97864817Y4198642D01*
X98293076Y3808355D01*
X98703110Y3638524D01*
X98933000Y3759845D01*
X98933000Y4953000D01*
X97739181Y4953000D01*
X97618514Y4723108D01*
X81429796Y4723108D01*
X81495000Y5050907D01*
X81495000Y5109093D01*
X81429797Y5436892D01*
X97618514Y5436892D01*
X97739181Y5207000D01*
X98933000Y5207000D01*
X98933000Y6400155D01*
X99187000Y6400155D01*
X99187000Y5207000D01*
X99207000Y5207000D01*
X99207000Y4953000D01*
X99187000Y4953000D01*
X99187000Y3759845D01*
X99416890Y3638524D01*
X99826924Y3808355D01*
X100255183Y4198642D01*
X100322298Y4341553D01*
X100549946Y4000853D01*
X101031715Y3678946D01*
X101600000Y3565907D01*
X102168285Y3678946D01*
X102650054Y4000853D01*
X102870000Y4330026D01*
X103089946Y4000853D01*
X103571715Y3678946D01*
X104140000Y3565907D01*
X104708285Y3678946D01*
X105190054Y4000853D01*
X105217850Y4042452D01*
X105226838Y3994683D01*
X105365910Y3778559D01*
X105578110Y3633569D01*
X105830000Y3582560D01*
X107530000Y3582560D01*
X107765317Y3626838D01*
X107981441Y3765910D01*
X108126431Y3978110D01*
X108177440Y4230000D01*
X108177440Y5930000D01*
X108133162Y6165317D01*
X107994090Y6381441D01*
X107781890Y6526431D01*
X107530000Y6577440D01*
X105830000Y6577440D01*
X105594683Y6533162D01*
X105378559Y6394090D01*
X105233569Y6181890D01*
X105219914Y6114459D01*
X105190054Y6159147D01*
X105025000Y6269432D01*
X105025000Y15366995D01*
X105025001Y15367000D01*
X104957633Y15705674D01*
X104957633Y15705675D01*
X104765790Y15992790D01*
X104765787Y15992792D01*
X104220744Y16537835D01*
X104171117Y16657943D01*
X103908327Y16921192D01*
X103564799Y17063838D01*
X103192833Y17064162D01*
X102849057Y16922117D01*
X102585808Y16659327D01*
X102443162Y16315799D01*
X102442838Y15943833D01*
X102584883Y15600057D01*
X102847673Y15336808D01*
X102968986Y15286434D01*
X103255000Y15000421D01*
X103255000Y6269432D01*
X103089946Y6159147D01*
X102870000Y5829974D01*
X102650054Y6159147D01*
X102168285Y6481054D01*
X101600000Y6594093D01*
X101031715Y6481054D01*
X100549946Y6159147D01*
X100322298Y5818447D01*
X100255183Y5961358D01*
X99826924Y6351645D01*
X99416890Y6521476D01*
X99187000Y6400155D01*
X98933000Y6400155D01*
X98703110Y6521476D01*
X98293076Y6351645D01*
X97864817Y5961358D01*
X97618514Y5436892D01*
X81429797Y5436892D01*
X81381961Y5677378D01*
X81060054Y6159147D01*
X80578285Y6481054D01*
X80010000Y6594093D01*
X79441715Y6481054D01*
X78959946Y6159147D01*
X78932150Y6117548D01*
X78923162Y6165317D01*
X78784090Y6381441D01*
X78571890Y6526431D01*
X78320000Y6577440D01*
X76620000Y6577440D01*
X76594773Y6572693D01*
X79377371Y9355292D01*
X79377118Y9064843D01*
X79519163Y8721067D01*
X79781953Y8457818D01*
X79903267Y8407444D01*
X79986487Y8324224D01*
X79986489Y8324221D01*
X81443498Y6867213D01*
X81443500Y6867210D01*
X81730615Y6675367D01*
X81786806Y6664190D01*
X82069290Y6607999D01*
X82069295Y6608000D01*
X82826292Y6608000D01*
X82946315Y6558162D01*
X83318281Y6557838D01*
X83662057Y6699883D01*
X83925306Y6962673D01*
X84067952Y7306201D01*
X84068276Y7678167D01*
X83926231Y8021943D01*
X83663441Y8285192D01*
X83319913Y8427838D01*
X82947947Y8428162D01*
X82826545Y8378000D01*
X82435869Y8378000D01*
X81238069Y9575801D01*
X81238066Y9575803D01*
X81155025Y9658845D01*
X81105397Y9778953D01*
X80842607Y10042202D01*
X80499079Y10184848D01*
X80207181Y10185102D01*
X80799834Y10777755D01*
X80919943Y10827383D01*
X81183192Y11090173D01*
X81325838Y11433701D01*
X81326162Y11805667D01*
X81285530Y11904003D01*
X81622998Y11904003D01*
X81623003Y11904002D01*
X81905487Y11960193D01*
X81961678Y11971370D01*
X82248793Y12163213D01*
X85381399Y15295819D01*
X85381399Y11523606D01*
X85381398Y11523601D01*
X85434048Y11258917D01*
X85448766Y11184926D01*
X85575863Y10994711D01*
X85640609Y10897811D01*
X86167512Y10370908D01*
X86131400Y10189359D01*
X86131400Y10130641D01*
X86245474Y9557152D01*
X86570330Y9070971D01*
X87056511Y8746115D01*
X87630000Y8632041D01*
X88203489Y8746115D01*
X88689670Y9070971D01*
X88698805Y9084642D01*
X88703238Y9061083D01*
X88842310Y8844959D01*
X89054510Y8699969D01*
X89306400Y8648960D01*
X91033600Y8648960D01*
X91268917Y8693238D01*
X91485041Y8832310D01*
X91630031Y9044510D01*
X91681040Y9296400D01*
X91681040Y11023600D01*
X91636762Y11258917D01*
X91497690Y11475041D01*
X91285490Y11620031D01*
X91241655Y11628908D01*
X91554526Y12097152D01*
X91668600Y12670641D01*
X91668600Y12729359D01*
X91554526Y13302848D01*
X91229670Y13789029D01*
X90958828Y13970000D01*
X91229670Y14150971D01*
X91554526Y14637152D01*
X91668600Y15210641D01*
X91668600Y15269359D01*
X91554526Y15842848D01*
X91229670Y16329029D01*
X90743489Y16653885D01*
X90170000Y16767959D01*
X89596511Y16653885D01*
X89110330Y16329029D01*
X88894336Y16005772D01*
X88836821Y16128490D01*
X88404947Y16522688D01*
X88221938Y16598488D01*
X92836449Y21213000D01*
X96086178Y21213000D01*
X96206201Y21163162D01*
X96578167Y21162838D01*
X96921943Y21304883D01*
X97185192Y21567673D01*
X97327838Y21911201D01*
X97328162Y22283167D01*
X97186117Y22626943D01*
X96923327Y22890192D01*
X96579799Y23032838D01*
X96207833Y23033162D01*
X96086431Y22983000D01*
X93068579Y22983000D01*
X94600579Y24515000D01*
X116925993Y24515000D01*
X116925998Y24514999D01*
X117208482Y24571190D01*
X117264673Y24582367D01*
X117551788Y24774210D01*
X118618000Y25840422D01*
X118618000Y19826426D01*
X118519625Y19589512D01*
X118423785Y19446077D01*
X118390424Y19278362D01*
X118129718Y18650513D01*
X118128285Y17008690D01*
X118354895Y16460253D01*
X118423785Y16113923D01*
X118618000Y15823258D01*
X118618000Y735000D01*
X5152391Y735000D01*
X3422751Y1079047D01*
X2017804Y2017803D01*
X1079047Y3422751D01*
X900470Y4320518D01*
X1244336Y4320518D01*
X1826950Y2910485D01*
X2904811Y1830741D01*
X4313825Y1245667D01*
X5839482Y1244336D01*
X7249515Y1826950D01*
X8329259Y2904811D01*
X8914333Y4313825D01*
X8914690Y4723108D01*
X30308514Y4723108D01*
X30554817Y4198642D01*
X30983076Y3808355D01*
X31393110Y3638524D01*
X31623000Y3759845D01*
X31623000Y4953000D01*
X30429181Y4953000D01*
X30308514Y4723108D01*
X8914690Y4723108D01*
X8915312Y5436892D01*
X30308514Y5436892D01*
X30429181Y5207000D01*
X31623000Y5207000D01*
X31623000Y6400155D01*
X31393110Y6521476D01*
X30983076Y6351645D01*
X30554817Y5961358D01*
X30308514Y5436892D01*
X8915312Y5436892D01*
X8915664Y5839482D01*
X8333050Y7249515D01*
X7255189Y8329259D01*
X5846175Y8914333D01*
X4320518Y8915664D01*
X2910485Y8333050D01*
X1830741Y7255189D01*
X1245667Y5846175D01*
X1244336Y4320518D01*
X900470Y4320518D01*
X735000Y5152390D01*
X735000Y13547185D01*
X2944630Y13547185D01*
X3268980Y12762200D01*
X3869041Y12161091D01*
X4653459Y11835372D01*
X5502815Y11834630D01*
X6287800Y12158980D01*
X6888909Y12759041D01*
X7214628Y13543459D01*
X7215370Y14392815D01*
X6891020Y15177800D01*
X6290959Y15778909D01*
X5506541Y16104628D01*
X4657185Y16105370D01*
X3872200Y15781020D01*
X3271091Y15180959D01*
X2945372Y14396541D01*
X2944630Y13547185D01*
X735000Y13547185D01*
X735000Y18764250D01*
X2945000Y18764250D01*
X2945000Y17423691D01*
X3041673Y17190302D01*
X3220301Y17011673D01*
X3453690Y16915000D01*
X4794250Y16915000D01*
X4953000Y17073750D01*
X4953000Y18923000D01*
X5207000Y18923000D01*
X5207000Y17073750D01*
X5365750Y16915000D01*
X6706310Y16915000D01*
X6939699Y17011673D01*
X7118327Y17190302D01*
X7215000Y17423691D01*
X7215000Y18764250D01*
X7056250Y18923000D01*
X5207000Y18923000D01*
X4953000Y18923000D01*
X3103750Y18923000D01*
X2945000Y18764250D01*
X735000Y18764250D01*
X735000Y20676309D01*
X2945000Y20676309D01*
X2945000Y19335750D01*
X3103750Y19177000D01*
X4953000Y19177000D01*
X4953000Y21026250D01*
X5207000Y21026250D01*
X5207000Y19177000D01*
X7056250Y19177000D01*
X7215000Y19335750D01*
X7215000Y20676309D01*
X7118327Y20909698D01*
X6939699Y21088327D01*
X6706310Y21185000D01*
X5365750Y21185000D01*
X5207000Y21026250D01*
X4953000Y21026250D01*
X4794250Y21185000D01*
X3453690Y21185000D01*
X3220301Y21088327D01*
X3041673Y20909698D01*
X2945000Y20676309D01*
X735000Y20676309D01*
X735000Y22860000D01*
X19685000Y22860000D01*
X19685000Y10160000D01*
X19728427Y9929205D01*
X19864827Y9717233D01*
X20072949Y9575029D01*
X20320000Y9525000D01*
X43180000Y9525000D01*
X43410795Y9568427D01*
X43622767Y9704827D01*
X43764971Y9912949D01*
X43815000Y10160000D01*
X43815000Y22860000D01*
X43771573Y23090795D01*
X43635173Y23302767D01*
X43427051Y23444971D01*
X43180000Y23495000D01*
X20320000Y23495000D01*
X20089205Y23451573D01*
X19877233Y23315173D01*
X19735029Y23107051D01*
X19685000Y22860000D01*
X735000Y22860000D01*
X735000Y29218126D01*
X1090881Y29218126D01*
X1292632Y28807237D01*
X1633322Y28519998D01*
X2058000Y28385000D01*
X2333000Y28385000D01*
X2333000Y29393000D01*
X2587000Y29393000D01*
X2587000Y28385000D01*
X2862000Y28385000D01*
X3286678Y28519998D01*
X3627368Y28807237D01*
X3829119Y29218126D01*
X3702954Y29393000D01*
X2587000Y29393000D01*
X2333000Y29393000D01*
X1217046Y29393000D01*
X1090881Y29218126D01*
X735000Y29218126D01*
X735000Y29821874D01*
X1090881Y29821874D01*
X1217046Y29647000D01*
X2333000Y29647000D01*
X2333000Y30655000D01*
X2587000Y30655000D01*
X2587000Y29647000D01*
X3702954Y29647000D01*
X3829119Y29821874D01*
X3634191Y30218869D01*
X4058771Y30218869D01*
X4200432Y29808951D01*
X4488179Y29484448D01*
X4862062Y29300732D01*
X5033000Y29427266D01*
X5033000Y30393000D01*
X5287000Y30393000D01*
X5287000Y29427266D01*
X5457938Y29300732D01*
X5831821Y29484448D01*
X6119568Y29808951D01*
X6261229Y30218869D01*
X6112563Y30393000D01*
X5287000Y30393000D01*
X5033000Y30393000D01*
X4207437Y30393000D01*
X4058771Y30218869D01*
X3634191Y30218869D01*
X3627368Y30232763D01*
X3286678Y30520002D01*
X2862000Y30655000D01*
X2587000Y30655000D01*
X2333000Y30655000D01*
X2058000Y30655000D01*
X1633322Y30520002D01*
X1292632Y30232763D01*
X1090881Y29821874D01*
X735000Y29821874D01*
X735000Y30821131D01*
X4058771Y30821131D01*
X4207437Y30647000D01*
X5033000Y30647000D01*
X5033000Y31612734D01*
X5287000Y31612734D01*
X5287000Y30647000D01*
X6112563Y30647000D01*
X6261229Y30821131D01*
X6119568Y31231049D01*
X5831821Y31555552D01*
X5457938Y31739268D01*
X5287000Y31612734D01*
X5033000Y31612734D01*
X4862062Y31739268D01*
X4488179Y31555552D01*
X4200432Y31231049D01*
X4058771Y30821131D01*
X735000Y30821131D01*
X735000Y35218869D01*
X4058771Y35218869D01*
X4200432Y34808951D01*
X4488179Y34484448D01*
X4862062Y34300732D01*
X5033000Y34427266D01*
X5033000Y35393000D01*
X5287000Y35393000D01*
X5287000Y34427266D01*
X5457938Y34300732D01*
X5831821Y34484448D01*
X6119568Y34808951D01*
X6261229Y35218869D01*
X6112563Y35393000D01*
X5287000Y35393000D01*
X5033000Y35393000D01*
X4207437Y35393000D01*
X4058771Y35218869D01*
X735000Y35218869D01*
X735000Y36218126D01*
X1090881Y36218126D01*
X1292632Y35807237D01*
X1633322Y35519998D01*
X2058000Y35385000D01*
X2333000Y35385000D01*
X2333000Y36393000D01*
X2587000Y36393000D01*
X2587000Y35385000D01*
X2862000Y35385000D01*
X3286678Y35519998D01*
X3627368Y35807237D01*
X3634190Y35821131D01*
X4058771Y35821131D01*
X4207437Y35647000D01*
X5033000Y35647000D01*
X5033000Y36612734D01*
X5287000Y36612734D01*
X5287000Y35647000D01*
X6112563Y35647000D01*
X6261229Y35821131D01*
X6119568Y36231049D01*
X5841843Y36544250D01*
X12335000Y36544250D01*
X12335000Y35703690D01*
X12431673Y35470301D01*
X12610302Y35291673D01*
X12843691Y35195000D01*
X13684250Y35195000D01*
X13843000Y35353750D01*
X13843000Y36703000D01*
X14097000Y36703000D01*
X14097000Y35353750D01*
X14255750Y35195000D01*
X15096309Y35195000D01*
X15329698Y35291673D01*
X15508327Y35470301D01*
X15594138Y35677468D01*
X20617073Y35677468D01*
X20715736Y35410613D01*
X21325461Y35184092D01*
X21975460Y35208144D01*
X22464264Y35410613D01*
X22562927Y35677468D01*
X21590000Y36650395D01*
X20617073Y35677468D01*
X15594138Y35677468D01*
X15605000Y35703690D01*
X15605000Y36544250D01*
X15446250Y36703000D01*
X14097000Y36703000D01*
X13843000Y36703000D01*
X12493750Y36703000D01*
X12335000Y36544250D01*
X5841843Y36544250D01*
X5831821Y36555552D01*
X5457938Y36739268D01*
X5287000Y36612734D01*
X5033000Y36612734D01*
X4862062Y36739268D01*
X4488179Y36555552D01*
X4200432Y36231049D01*
X4058771Y35821131D01*
X3634190Y35821131D01*
X3829119Y36218126D01*
X3702954Y36393000D01*
X2587000Y36393000D01*
X2333000Y36393000D01*
X1217046Y36393000D01*
X1090881Y36218126D01*
X735000Y36218126D01*
X735000Y36821874D01*
X1090881Y36821874D01*
X1217046Y36647000D01*
X2333000Y36647000D01*
X2333000Y37655000D01*
X2587000Y37655000D01*
X2587000Y36647000D01*
X3702954Y36647000D01*
X3829119Y36821874D01*
X3627368Y37232763D01*
X3286678Y37520002D01*
X2862000Y37655000D01*
X2587000Y37655000D01*
X2333000Y37655000D01*
X2058000Y37655000D01*
X1633322Y37520002D01*
X1292632Y37232763D01*
X1090881Y36821874D01*
X735000Y36821874D01*
X735000Y37956310D01*
X12335000Y37956310D01*
X12335000Y37115750D01*
X12493750Y36957000D01*
X13843000Y36957000D01*
X13843000Y38306250D01*
X14097000Y38306250D01*
X14097000Y36957000D01*
X15446250Y36957000D01*
X15583789Y37094539D01*
X19944092Y37094539D01*
X19968144Y36444540D01*
X20170613Y35955736D01*
X20437468Y35857073D01*
X21410395Y36830000D01*
X21769605Y36830000D01*
X22742532Y35857073D01*
X23009387Y35955736D01*
X23235908Y36565461D01*
X23211856Y37215460D01*
X23009387Y37704264D01*
X22742532Y37802927D01*
X21769605Y36830000D01*
X21410395Y36830000D01*
X20437468Y37802927D01*
X20170613Y37704264D01*
X19944092Y37094539D01*
X15583789Y37094539D01*
X15605000Y37115750D01*
X15605000Y37956310D01*
X15594139Y37982532D01*
X20617073Y37982532D01*
X21590000Y37009605D01*
X22562927Y37982532D01*
X22464264Y38249387D01*
X21854539Y38475908D01*
X21204540Y38451856D01*
X20715736Y38249387D01*
X20617073Y37982532D01*
X15594139Y37982532D01*
X15508327Y38189699D01*
X15329698Y38368327D01*
X15096309Y38465000D01*
X14255750Y38465000D01*
X14097000Y38306250D01*
X13843000Y38306250D01*
X13684250Y38465000D01*
X12843691Y38465000D01*
X12610302Y38368327D01*
X12431673Y38189699D01*
X12335000Y37956310D01*
X735000Y37956310D01*
X735000Y43690518D01*
X1244336Y43690518D01*
X1826950Y42280485D01*
X2904811Y41200741D01*
X4313825Y40615667D01*
X5839482Y40614336D01*
X7249515Y41196950D01*
X7686666Y41633339D01*
X12572758Y41633339D01*
X12784990Y41119697D01*
X13177630Y40726371D01*
X13690900Y40513243D01*
X14246661Y40512758D01*
X14760303Y40724990D01*
X15153629Y41117630D01*
X15239949Y41325512D01*
X15324990Y41119697D01*
X15717630Y40726371D01*
X16230900Y40513243D01*
X16786661Y40512758D01*
X17300303Y40724990D01*
X17693629Y41117630D01*
X17779949Y41325512D01*
X17864990Y41119697D01*
X18257630Y40726371D01*
X18770900Y40513243D01*
X19326661Y40512758D01*
X19840303Y40724990D01*
X20233629Y41117630D01*
X20319949Y41325512D01*
X20404990Y41119697D01*
X20797630Y40726371D01*
X21310900Y40513243D01*
X21866661Y40512758D01*
X22380303Y40724990D01*
X22773629Y41117630D01*
X22986757Y41630900D01*
X22987242Y42186661D01*
X22775010Y42700303D01*
X22382370Y43093629D01*
X22174488Y43179949D01*
X22380303Y43264990D01*
X22773629Y43657630D01*
X22986757Y44170900D01*
X22987242Y44726661D01*
X22775010Y45240303D01*
X22382370Y45633629D01*
X21869100Y45846757D01*
X21313339Y45847242D01*
X20799697Y45635010D01*
X20406371Y45242370D01*
X20193243Y44729100D01*
X20192758Y44173339D01*
X20404990Y43659697D01*
X20797630Y43266371D01*
X21005512Y43180051D01*
X20799697Y43095010D01*
X20406371Y42702370D01*
X20320051Y42494488D01*
X20235010Y42700303D01*
X19842370Y43093629D01*
X19329100Y43306757D01*
X18773339Y43307242D01*
X18259697Y43095010D01*
X17866371Y42702370D01*
X17780051Y42494488D01*
X17695010Y42700303D01*
X17302370Y43093629D01*
X16789100Y43306757D01*
X16233339Y43307242D01*
X15719697Y43095010D01*
X15326371Y42702370D01*
X15240051Y42494488D01*
X15155010Y42700303D01*
X14762370Y43093629D01*
X14249100Y43306757D01*
X13693339Y43307242D01*
X13179697Y43095010D01*
X12786371Y42702370D01*
X12573243Y42189100D01*
X12572758Y41633339D01*
X7686666Y41633339D01*
X8329259Y42274811D01*
X8914333Y43683825D01*
X8915664Y45209482D01*
X8333050Y46619515D01*
X7255189Y47699259D01*
X5846175Y48284333D01*
X4320518Y48285664D01*
X2910485Y47703050D01*
X1830741Y46625189D01*
X1245667Y45216175D01*
X1244336Y43690518D01*
X735000Y43690518D01*
X735000Y44377610D01*
X1079047Y46107249D01*
X2017804Y47512197D01*
X3422751Y48450953D01*
X5152391Y48795000D01*
X144707610Y48795000D01*
X146437249Y48450953D01*
G36*
X87757000Y15367000D02*
X87777000Y15367000D01*
X87777000Y15113000D01*
X87757000Y15113000D01*
X87757000Y15093000D01*
X87503000Y15093000D01*
X87503000Y15113000D01*
X87483000Y15113000D01*
X87483000Y15367000D01*
X87503000Y15367000D01*
X87503000Y15387000D01*
X87757000Y15387000D01*
X87757000Y15367000D01*
X87757000Y15367000D01*
G37*
X87757000Y15367000D02*
X87777000Y15367000D01*
X87777000Y15113000D01*
X87757000Y15113000D01*
X87757000Y15093000D01*
X87503000Y15093000D01*
X87503000Y15113000D01*
X87483000Y15113000D01*
X87483000Y15367000D01*
X87503000Y15367000D01*
X87503000Y15387000D01*
X87757000Y15387000D01*
X87757000Y15367000D01*
G36*
X65762236Y30095000D02*
X59823398Y30095000D01*
X59806894Y30134943D01*
X59347363Y30595278D01*
X58746648Y30844716D01*
X58514540Y30844919D01*
X58543001Y30988000D01*
X58543000Y30988005D01*
X58543000Y35189678D01*
X58592838Y35309701D01*
X58592921Y35405499D01*
X58847255Y35151165D01*
X58896883Y35031057D01*
X59159673Y34767808D01*
X59503201Y34625162D01*
X59875167Y34624838D01*
X60218943Y34766883D01*
X60482192Y35029673D01*
X60624838Y35373201D01*
X60625162Y35745167D01*
X60483117Y36088943D01*
X60220327Y36352192D01*
X60099013Y36402566D01*
X60048579Y36453000D01*
X72120237Y36453000D01*
X65762236Y30095000D01*
X65762236Y30095000D01*
G37*
X65762236Y30095000D02*
X59823398Y30095000D01*
X59806894Y30134943D01*
X59347363Y30595278D01*
X58746648Y30844716D01*
X58514540Y30844919D01*
X58543001Y30988000D01*
X58543000Y30988005D01*
X58543000Y35189678D01*
X58592838Y35309701D01*
X58592921Y35405499D01*
X58847255Y35151165D01*
X58896883Y35031057D01*
X59159673Y34767808D01*
X59503201Y34625162D01*
X59875167Y34624838D01*
X60218943Y34766883D01*
X60482192Y35029673D01*
X60624838Y35373201D01*
X60625162Y35745167D01*
X60483117Y36088943D01*
X60220327Y36352192D01*
X60099013Y36402566D01*
X60048579Y36453000D01*
X72120237Y36453000D01*
X65762236Y30095000D01*
G36*
X54536921Y31595001D02*
X52300006Y31595001D01*
X52300001Y31595002D01*
X52041758Y31543633D01*
X51961326Y31527634D01*
X51674211Y31335791D01*
X51674209Y31335788D01*
X51166563Y30828142D01*
X51126648Y30844716D01*
X50476205Y30845284D01*
X49875057Y30596894D01*
X49529801Y30252241D01*
X49187363Y30595278D01*
X48586648Y30844716D01*
X47936205Y30845284D01*
X47335057Y30596894D01*
X47284437Y30546362D01*
X47200090Y30677441D01*
X47035488Y30789909D01*
X48215976Y31970397D01*
X54912317Y31970397D01*
X54536921Y31595001D01*
X54536921Y31595001D01*
G37*
X54536921Y31595001D02*
X52300006Y31595001D01*
X52300001Y31595002D01*
X52041758Y31543633D01*
X51961326Y31527634D01*
X51674211Y31335791D01*
X51674209Y31335788D01*
X51166563Y30828142D01*
X51126648Y30844716D01*
X50476205Y30845284D01*
X49875057Y30596894D01*
X49529801Y30252241D01*
X49187363Y30595278D01*
X48586648Y30844716D01*
X47936205Y30845284D01*
X47335057Y30596894D01*
X47284437Y30546362D01*
X47200090Y30677441D01*
X47035488Y30789909D01*
X48215976Y31970397D01*
X54912317Y31970397D01*
X54536921Y31595001D01*
G36*
X49872637Y43064722D02*
X50473352Y42815284D01*
X51123795Y42814716D01*
X51166188Y42832232D01*
X53349208Y40649213D01*
X53349210Y40649210D01*
X53636325Y40457367D01*
X53657269Y40453201D01*
X53975000Y40389999D01*
X53975005Y40390000D01*
X57945270Y40390000D01*
X57945183Y40289823D01*
X58087228Y39946047D01*
X58350018Y39682798D01*
X58693546Y39540152D01*
X59065512Y39539828D01*
X59186914Y39589990D01*
X70791430Y39589990D01*
X72155061Y38226359D01*
X72146931Y38223000D01*
X53198579Y38223000D01*
X48600119Y42821461D01*
X49184943Y43063106D01*
X49530199Y43407759D01*
X49872637Y43064722D01*
X49872637Y43064722D01*
G37*
X49872637Y43064722D02*
X50473352Y42815284D01*
X51123795Y42814716D01*
X51166188Y42832232D01*
X53349208Y40649213D01*
X53349210Y40649210D01*
X53636325Y40457367D01*
X53657269Y40453201D01*
X53975000Y40389999D01*
X53975005Y40390000D01*
X57945270Y40390000D01*
X57945183Y40289823D01*
X58087228Y39946047D01*
X58350018Y39682798D01*
X58693546Y39540152D01*
X59065512Y39539828D01*
X59186914Y39589990D01*
X70791430Y39589990D01*
X72155061Y38226359D01*
X72146931Y38223000D01*
X53198579Y38223000D01*
X48600119Y42821461D01*
X49184943Y43063106D01*
X49530199Y43407759D01*
X49872637Y43064722D01*
M02*
