G04 #@! TF.FileFunction,Legend,Top*
%FSLAX46Y46*%
G04 Gerber Fmt 4.6, Leading zero omitted, Abs format (unit mm)*
G04 Created by KiCad (PCBNEW 4.0.7-e2-6376~58~ubuntu16.04.1) date Fri Oct 20 12:03:34 2017*
%MOMM*%
%LPD*%
G01*
G04 APERTURE LIST*
%ADD10C,0.100000*%
%ADD11C,0.200000*%
%ADD12C,0.150000*%
%ADD13C,0.120000*%
%ADD14C,2.900000*%
%ADD15C,3.400000*%
%ADD16R,2.432000X2.432000*%
%ADD17C,2.400000*%
%ADD18R,1.650000X1.400000*%
%ADD19R,2.127200X2.127200*%
%ADD20O,2.127200X2.127200*%
%ADD21R,3.400000X3.400000*%
%ADD22R,1.300000X1.200000*%
%ADD23R,1.700000X1.100000*%
%ADD24R,1.100000X1.700000*%
%ADD25C,1.924000*%
%ADD26R,2.400000X2.400000*%
%ADD27R,2.400000X1.000000*%
%ADD28R,1.600000X1.600000*%
%ADD29R,2.180000X2.400000*%
%ADD30R,2.400000X4.200000*%
%ADD31R,2.400000X1.900000*%
%ADD32R,2.100000X2.100000*%
%ADD33O,2.100000X2.100000*%
%ADD34R,2.000000X3.900000*%
%ADD35R,1.600000X1.300000*%
%ADD36R,1.300000X1.600000*%
%ADD37R,1.750000X0.800000*%
%ADD38O,1.350000X1.650000*%
%ADD39O,1.950000X1.400000*%
%ADD40C,4.400000*%
%ADD41R,2.300000X0.800000*%
%ADD42C,6.800000*%
%ADD43C,2.540000*%
%ADD44R,2.000000X0.950000*%
%ADD45R,0.950000X2.000000*%
G04 APERTURE END LIST*
D10*
D11*
X106132381Y2111571D02*
X106132381Y2302048D01*
X106180000Y2397286D01*
X106275238Y2492524D01*
X106465714Y2540143D01*
X106799048Y2540143D01*
X106989524Y2492524D01*
X107084762Y2397286D01*
X107132381Y2302048D01*
X107132381Y2111571D01*
X107084762Y2016333D01*
X106989524Y1921095D01*
X106799048Y1873476D01*
X106465714Y1873476D01*
X106275238Y1921095D01*
X106180000Y2016333D01*
X106132381Y2111571D01*
X106227619Y2921095D02*
X106180000Y2968714D01*
X106132381Y3063952D01*
X106132381Y3302048D01*
X106180000Y3397286D01*
X106227619Y3444905D01*
X106322857Y3492524D01*
X106418095Y3492524D01*
X106560952Y3444905D01*
X107132381Y2873476D01*
X107132381Y3492524D01*
X103592381Y2111571D02*
X103592381Y2302048D01*
X103640000Y2397286D01*
X103735238Y2492524D01*
X103925714Y2540143D01*
X104259048Y2540143D01*
X104449524Y2492524D01*
X104544762Y2397286D01*
X104592381Y2302048D01*
X104592381Y2111571D01*
X104544762Y2016333D01*
X104449524Y1921095D01*
X104259048Y1873476D01*
X103925714Y1873476D01*
X103735238Y1921095D01*
X103640000Y2016333D01*
X103592381Y2111571D01*
X104592381Y3492524D02*
X104592381Y2921095D01*
X104592381Y3206809D02*
X103592381Y3206809D01*
X103735238Y3111571D01*
X103830476Y3016333D01*
X103878095Y2921095D01*
X101052381Y2587762D02*
X101052381Y2111571D01*
X101528571Y2063952D01*
X101480952Y2111571D01*
X101433333Y2206809D01*
X101433333Y2444905D01*
X101480952Y2540143D01*
X101528571Y2587762D01*
X101623810Y2635381D01*
X101861905Y2635381D01*
X101957143Y2587762D01*
X102004762Y2540143D01*
X102052381Y2444905D01*
X102052381Y2206809D01*
X102004762Y2111571D01*
X101957143Y2063952D01*
X101052381Y2921095D02*
X102052381Y3254428D01*
X101052381Y3587762D01*
X98560000Y1397286D02*
X98512381Y1302048D01*
X98512381Y1159191D01*
X98560000Y1016333D01*
X98655238Y921095D01*
X98750476Y873476D01*
X98940952Y825857D01*
X99083810Y825857D01*
X99274286Y873476D01*
X99369524Y921095D01*
X99464762Y1016333D01*
X99512381Y1159191D01*
X99512381Y1254429D01*
X99464762Y1397286D01*
X99417143Y1444905D01*
X99083810Y1444905D01*
X99083810Y1254429D01*
X99512381Y1873476D02*
X98512381Y1873476D01*
X99512381Y2444905D01*
X98512381Y2444905D01*
X99512381Y2921095D02*
X98512381Y2921095D01*
X98512381Y3159190D01*
X98560000Y3302048D01*
X98655238Y3397286D01*
X98750476Y3444905D01*
X98940952Y3492524D01*
X99083810Y3492524D01*
X99274286Y3444905D01*
X99369524Y3397286D01*
X99464762Y3302048D01*
X99512381Y3159190D01*
X99512381Y2921095D01*
X46823381Y13350952D02*
X46823381Y13541429D01*
X46871000Y13636667D01*
X46966238Y13731905D01*
X47156714Y13779524D01*
X47490048Y13779524D01*
X47680524Y13731905D01*
X47775762Y13636667D01*
X47823381Y13541429D01*
X47823381Y13350952D01*
X47775762Y13255714D01*
X47680524Y13160476D01*
X47490048Y13112857D01*
X47156714Y13112857D01*
X46966238Y13160476D01*
X46871000Y13255714D01*
X46823381Y13350952D01*
X47823381Y14208095D02*
X46823381Y14208095D01*
X47823381Y14779524D01*
X46823381Y14779524D01*
X149677381Y22050476D02*
X148677381Y22050476D01*
X149677381Y22621905D01*
X148677381Y22621905D01*
X148677381Y23288571D02*
X148677381Y23479048D01*
X148725000Y23574286D01*
X148820238Y23669524D01*
X149010714Y23717143D01*
X149344048Y23717143D01*
X149534524Y23669524D01*
X149629762Y23574286D01*
X149677381Y23479048D01*
X149677381Y23288571D01*
X149629762Y23193333D01*
X149534524Y23098095D01*
X149344048Y23050476D01*
X149010714Y23050476D01*
X148820238Y23098095D01*
X148725000Y23193333D01*
X148677381Y23288571D01*
X149677381Y11914286D02*
X148677381Y11914286D01*
X149677381Y12485715D01*
X148677381Y12485715D01*
X149582143Y13533334D02*
X149629762Y13485715D01*
X149677381Y13342858D01*
X149677381Y13247620D01*
X149629762Y13104762D01*
X149534524Y13009524D01*
X149439286Y12961905D01*
X149248810Y12914286D01*
X149105952Y12914286D01*
X148915476Y12961905D01*
X148820238Y13009524D01*
X148725000Y13104762D01*
X148677381Y13247620D01*
X148677381Y13342858D01*
X148725000Y13485715D01*
X148772619Y13533334D01*
X149582143Y16994286D02*
X149629762Y16946667D01*
X149677381Y16803810D01*
X149677381Y16708572D01*
X149629762Y16565714D01*
X149534524Y16470476D01*
X149439286Y16422857D01*
X149248810Y16375238D01*
X149105952Y16375238D01*
X148915476Y16422857D01*
X148820238Y16470476D01*
X148725000Y16565714D01*
X148677381Y16708572D01*
X148677381Y16803810D01*
X148725000Y16946667D01*
X148772619Y16994286D01*
X148677381Y17613333D02*
X148677381Y17803810D01*
X148725000Y17899048D01*
X148820238Y17994286D01*
X149010714Y18041905D01*
X149344048Y18041905D01*
X149534524Y17994286D01*
X149629762Y17899048D01*
X149677381Y17803810D01*
X149677381Y17613333D01*
X149629762Y17518095D01*
X149534524Y17422857D01*
X149344048Y17375238D01*
X149010714Y17375238D01*
X148820238Y17422857D01*
X148725000Y17518095D01*
X148677381Y17613333D01*
X149677381Y18470476D02*
X148677381Y18470476D01*
X149391667Y18803810D01*
X148677381Y19137143D01*
X149677381Y19137143D01*
X1206667Y10707619D02*
X1540000Y9707619D01*
X1873334Y10707619D01*
X2778096Y9802857D02*
X2730477Y9755238D01*
X2587620Y9707619D01*
X2492382Y9707619D01*
X2349524Y9755238D01*
X2254286Y9850476D01*
X2206667Y9945714D01*
X2159048Y10136190D01*
X2159048Y10279048D01*
X2206667Y10469524D01*
X2254286Y10564762D01*
X2349524Y10660000D01*
X2492382Y10707619D01*
X2587620Y10707619D01*
X2730477Y10660000D01*
X2778096Y10612381D01*
X3778096Y9802857D02*
X3730477Y9755238D01*
X3587620Y9707619D01*
X3492382Y9707619D01*
X3349524Y9755238D01*
X3254286Y9850476D01*
X3206667Y9945714D01*
X3159048Y10136190D01*
X3159048Y10279048D01*
X3206667Y10469524D01*
X3254286Y10564762D01*
X3349524Y10660000D01*
X3492382Y10707619D01*
X3587620Y10707619D01*
X3730477Y10660000D01*
X3778096Y10612381D01*
X1778096Y23360000D02*
X1682858Y23407619D01*
X1540001Y23407619D01*
X1397143Y23360000D01*
X1301905Y23264762D01*
X1254286Y23169524D01*
X1206667Y22979048D01*
X1206667Y22836190D01*
X1254286Y22645714D01*
X1301905Y22550476D01*
X1397143Y22455238D01*
X1540001Y22407619D01*
X1635239Y22407619D01*
X1778096Y22455238D01*
X1825715Y22502857D01*
X1825715Y22836190D01*
X1635239Y22836190D01*
X2254286Y22407619D02*
X2254286Y23407619D01*
X2825715Y22407619D01*
X2825715Y23407619D01*
X3301905Y22407619D02*
X3301905Y23407619D01*
X3540000Y23407619D01*
X3682858Y23360000D01*
X3778096Y23264762D01*
X3825715Y23169524D01*
X3873334Y22979048D01*
X3873334Y22836190D01*
X3825715Y22645714D01*
X3778096Y22550476D01*
X3682858Y22455238D01*
X3540000Y22407619D01*
X3301905Y22407619D01*
X132294524Y44521429D02*
X132437381Y44473810D01*
X132485000Y44426190D01*
X132532619Y44330952D01*
X132532619Y44188095D01*
X132485000Y44092857D01*
X132437381Y44045238D01*
X132342143Y43997619D01*
X131961190Y43997619D01*
X131961190Y44997619D01*
X132294524Y44997619D01*
X132389762Y44950000D01*
X132437381Y44902381D01*
X132485000Y44807143D01*
X132485000Y44711905D01*
X132437381Y44616667D01*
X132389762Y44569048D01*
X132294524Y44521429D01*
X131961190Y44521429D01*
X132818333Y44997619D02*
X133389762Y44997619D01*
X133104047Y43997619D02*
X133104047Y44997619D01*
X133723095Y43997619D02*
X133723095Y44997619D01*
X134294524Y43997619D01*
X134294524Y44997619D01*
X135437381Y44997619D02*
X136056429Y44997619D01*
X135723095Y44616667D01*
X135865953Y44616667D01*
X135961191Y44569048D01*
X136008810Y44521429D01*
X136056429Y44426190D01*
X136056429Y44188095D01*
X136008810Y44092857D01*
X135961191Y44045238D01*
X135865953Y43997619D01*
X135580238Y43997619D01*
X135485000Y44045238D01*
X135437381Y44092857D01*
X131865952Y41981429D02*
X132199286Y41981429D01*
X132342143Y41457619D02*
X131865952Y41457619D01*
X131865952Y42457619D01*
X132342143Y42457619D01*
X132770714Y41457619D02*
X132770714Y42457619D01*
X133342143Y41457619D01*
X133342143Y42457619D01*
X134389762Y41552857D02*
X134342143Y41505238D01*
X134199286Y41457619D01*
X134104048Y41457619D01*
X133961190Y41505238D01*
X133865952Y41600476D01*
X133818333Y41695714D01*
X133770714Y41886190D01*
X133770714Y42029048D01*
X133818333Y42219524D01*
X133865952Y42314762D01*
X133961190Y42410000D01*
X134104048Y42457619D01*
X134199286Y42457619D01*
X134342143Y42410000D01*
X134389762Y42362381D01*
X135913572Y41981429D02*
X136056429Y41933810D01*
X136104048Y41886190D01*
X136151667Y41790952D01*
X136151667Y41648095D01*
X136104048Y41552857D01*
X136056429Y41505238D01*
X135961191Y41457619D01*
X135580238Y41457619D01*
X135580238Y42457619D01*
X135913572Y42457619D01*
X136008810Y42410000D01*
X136056429Y42362381D01*
X136104048Y42267143D01*
X136104048Y42171905D01*
X136056429Y42076667D01*
X136008810Y42029048D01*
X135913572Y41981429D01*
X135580238Y41981429D01*
X131937381Y39441429D02*
X132270715Y39441429D01*
X132413572Y38917619D02*
X131937381Y38917619D01*
X131937381Y39917619D01*
X132413572Y39917619D01*
X132842143Y38917619D02*
X132842143Y39917619D01*
X133413572Y38917619D01*
X133413572Y39917619D01*
X134461191Y39012857D02*
X134413572Y38965238D01*
X134270715Y38917619D01*
X134175477Y38917619D01*
X134032619Y38965238D01*
X133937381Y39060476D01*
X133889762Y39155714D01*
X133842143Y39346190D01*
X133842143Y39489048D01*
X133889762Y39679524D01*
X133937381Y39774762D01*
X134032619Y39870000D01*
X134175477Y39917619D01*
X134270715Y39917619D01*
X134413572Y39870000D01*
X134461191Y39822381D01*
X135604048Y39203333D02*
X136080239Y39203333D01*
X135508810Y38917619D02*
X135842143Y39917619D01*
X136175477Y38917619D01*
X132294524Y36901429D02*
X132437381Y36853810D01*
X132485000Y36806190D01*
X132532619Y36710952D01*
X132532619Y36568095D01*
X132485000Y36472857D01*
X132437381Y36425238D01*
X132342143Y36377619D01*
X131961190Y36377619D01*
X131961190Y37377619D01*
X132294524Y37377619D01*
X132389762Y37330000D01*
X132437381Y37282381D01*
X132485000Y37187143D01*
X132485000Y37091905D01*
X132437381Y36996667D01*
X132389762Y36949048D01*
X132294524Y36901429D01*
X131961190Y36901429D01*
X132818333Y37377619D02*
X133389762Y37377619D01*
X133104047Y36377619D02*
X133104047Y37377619D01*
X133723095Y36377619D02*
X133723095Y37377619D01*
X134294524Y36377619D01*
X134294524Y37377619D01*
X135485000Y37282381D02*
X135532619Y37330000D01*
X135627857Y37377619D01*
X135865953Y37377619D01*
X135961191Y37330000D01*
X136008810Y37282381D01*
X136056429Y37187143D01*
X136056429Y37091905D01*
X136008810Y36949048D01*
X135437381Y36377619D01*
X136056429Y36377619D01*
X132294524Y34361429D02*
X132437381Y34313810D01*
X132485000Y34266190D01*
X132532619Y34170952D01*
X132532619Y34028095D01*
X132485000Y33932857D01*
X132437381Y33885238D01*
X132342143Y33837619D01*
X131961190Y33837619D01*
X131961190Y34837619D01*
X132294524Y34837619D01*
X132389762Y34790000D01*
X132437381Y34742381D01*
X132485000Y34647143D01*
X132485000Y34551905D01*
X132437381Y34456667D01*
X132389762Y34409048D01*
X132294524Y34361429D01*
X131961190Y34361429D01*
X132818333Y34837619D02*
X133389762Y34837619D01*
X133104047Y33837619D02*
X133104047Y34837619D01*
X133723095Y33837619D02*
X133723095Y34837619D01*
X134294524Y33837619D01*
X134294524Y34837619D01*
X136056429Y33837619D02*
X135485000Y33837619D01*
X135770714Y33837619D02*
X135770714Y34837619D01*
X135675476Y34694762D01*
X135580238Y34599524D01*
X135485000Y34551905D01*
X133858096Y29710000D02*
X133762858Y29757619D01*
X133620001Y29757619D01*
X133477143Y29710000D01*
X133381905Y29614762D01*
X133334286Y29519524D01*
X133286667Y29329048D01*
X133286667Y29186190D01*
X133334286Y28995714D01*
X133381905Y28900476D01*
X133477143Y28805238D01*
X133620001Y28757619D01*
X133715239Y28757619D01*
X133858096Y28805238D01*
X133905715Y28852857D01*
X133905715Y29186190D01*
X133715239Y29186190D01*
X134334286Y28757619D02*
X134334286Y29757619D01*
X134905715Y28757619D01*
X134905715Y29757619D01*
X135381905Y28757619D02*
X135381905Y29757619D01*
X135620000Y29757619D01*
X135762858Y29710000D01*
X135858096Y29614762D01*
X135905715Y29519524D01*
X135953334Y29329048D01*
X135953334Y29186190D01*
X135905715Y28995714D01*
X135858096Y28900476D01*
X135762858Y28805238D01*
X135620000Y28757619D01*
X135381905Y28757619D01*
X135064524Y32297619D02*
X134588333Y32297619D01*
X134540714Y31821429D01*
X134588333Y31869048D01*
X134683571Y31916667D01*
X134921667Y31916667D01*
X135016905Y31869048D01*
X135064524Y31821429D01*
X135112143Y31726190D01*
X135112143Y31488095D01*
X135064524Y31392857D01*
X135016905Y31345238D01*
X134921667Y31297619D01*
X134683571Y31297619D01*
X134588333Y31345238D01*
X134540714Y31392857D01*
X135397857Y32297619D02*
X135731190Y31297619D01*
X136064524Y32297619D01*
X84899524Y10707619D02*
X84423333Y10707619D01*
X84375714Y10231429D01*
X84423333Y10279048D01*
X84518571Y10326667D01*
X84756667Y10326667D01*
X84851905Y10279048D01*
X84899524Y10231429D01*
X84947143Y10136190D01*
X84947143Y9898095D01*
X84899524Y9802857D01*
X84851905Y9755238D01*
X84756667Y9707619D01*
X84518571Y9707619D01*
X84423333Y9755238D01*
X84375714Y9802857D01*
X85232857Y10707619D02*
X85566190Y9707619D01*
X85899524Y10707619D01*
X83518572Y12247619D02*
X83518572Y13247619D01*
X83851906Y12533333D01*
X84185239Y13247619D01*
X84185239Y12247619D01*
X84851905Y13247619D02*
X85042382Y13247619D01*
X85137620Y13200000D01*
X85232858Y13104762D01*
X85280477Y12914286D01*
X85280477Y12580952D01*
X85232858Y12390476D01*
X85137620Y12295238D01*
X85042382Y12247619D01*
X84851905Y12247619D01*
X84756667Y12295238D01*
X84661429Y12390476D01*
X84613810Y12580952D01*
X84613810Y12914286D01*
X84661429Y13104762D01*
X84756667Y13200000D01*
X84851905Y13247619D01*
X85661429Y12295238D02*
X85804286Y12247619D01*
X86042382Y12247619D01*
X86137620Y12295238D01*
X86185239Y12342857D01*
X86232858Y12438095D01*
X86232858Y12533333D01*
X86185239Y12628571D01*
X86137620Y12676190D01*
X86042382Y12723810D01*
X85851905Y12771429D01*
X85756667Y12819048D01*
X85709048Y12866667D01*
X85661429Y12961905D01*
X85661429Y13057143D01*
X85709048Y13152381D01*
X85756667Y13200000D01*
X85851905Y13247619D01*
X86090001Y13247619D01*
X86232858Y13200000D01*
X86661429Y12247619D02*
X86661429Y13247619D01*
X84328096Y15740000D02*
X84232858Y15787619D01*
X84090001Y15787619D01*
X83947143Y15740000D01*
X83851905Y15644762D01*
X83804286Y15549524D01*
X83756667Y15359048D01*
X83756667Y15216190D01*
X83804286Y15025714D01*
X83851905Y14930476D01*
X83947143Y14835238D01*
X84090001Y14787619D01*
X84185239Y14787619D01*
X84328096Y14835238D01*
X84375715Y14882857D01*
X84375715Y15216190D01*
X84185239Y15216190D01*
X84804286Y14787619D02*
X84804286Y15787619D01*
X85375715Y14787619D01*
X85375715Y15787619D01*
X85851905Y14787619D02*
X85851905Y15787619D01*
X86090000Y15787619D01*
X86232858Y15740000D01*
X86328096Y15644762D01*
X86375715Y15549524D01*
X86423334Y15359048D01*
X86423334Y15216190D01*
X86375715Y15025714D01*
X86328096Y14930476D01*
X86232858Y14835238D01*
X86090000Y14787619D01*
X85851905Y14787619D01*
X91138572Y9707619D02*
X91138572Y10707619D01*
X91471906Y9993333D01*
X91805239Y10707619D01*
X91805239Y9707619D01*
X92281429Y9707619D02*
X92281429Y10707619D01*
X92710000Y9755238D02*
X92852857Y9707619D01*
X93090953Y9707619D01*
X93186191Y9755238D01*
X93233810Y9802857D01*
X93281429Y9898095D01*
X93281429Y9993333D01*
X93233810Y10088571D01*
X93186191Y10136190D01*
X93090953Y10183810D01*
X92900476Y10231429D01*
X92805238Y10279048D01*
X92757619Y10326667D01*
X92710000Y10421905D01*
X92710000Y10517143D01*
X92757619Y10612381D01*
X92805238Y10660000D01*
X92900476Y10707619D01*
X93138572Y10707619D01*
X93281429Y10660000D01*
X93900476Y10707619D02*
X94090953Y10707619D01*
X94186191Y10660000D01*
X94281429Y10564762D01*
X94329048Y10374286D01*
X94329048Y10040952D01*
X94281429Y9850476D01*
X94186191Y9755238D01*
X94090953Y9707619D01*
X93900476Y9707619D01*
X93805238Y9755238D01*
X93710000Y9850476D01*
X93662381Y10040952D01*
X93662381Y10374286D01*
X93710000Y10564762D01*
X93805238Y10660000D01*
X93900476Y10707619D01*
X91424286Y12295238D02*
X91567143Y12247619D01*
X91805239Y12247619D01*
X91900477Y12295238D01*
X91948096Y12342857D01*
X91995715Y12438095D01*
X91995715Y12533333D01*
X91948096Y12628571D01*
X91900477Y12676190D01*
X91805239Y12723810D01*
X91614762Y12771429D01*
X91519524Y12819048D01*
X91471905Y12866667D01*
X91424286Y12961905D01*
X91424286Y13057143D01*
X91471905Y13152381D01*
X91519524Y13200000D01*
X91614762Y13247619D01*
X91852858Y13247619D01*
X91995715Y13200000D01*
X92995715Y12342857D02*
X92948096Y12295238D01*
X92805239Y12247619D01*
X92710001Y12247619D01*
X92567143Y12295238D01*
X92471905Y12390476D01*
X92424286Y12485714D01*
X92376667Y12676190D01*
X92376667Y12819048D01*
X92424286Y13009524D01*
X92471905Y13104762D01*
X92567143Y13200000D01*
X92710001Y13247619D01*
X92805239Y13247619D01*
X92948096Y13200000D01*
X92995715Y13152381D01*
X93424286Y12247619D02*
X93424286Y13247619D01*
X93995715Y12247619D02*
X93567143Y12819048D01*
X93995715Y13247619D02*
X93424286Y12676190D01*
X92162381Y14787619D02*
X91829047Y15263810D01*
X91590952Y14787619D02*
X91590952Y15787619D01*
X91971905Y15787619D01*
X92067143Y15740000D01*
X92114762Y15692381D01*
X92162381Y15597143D01*
X92162381Y15454286D01*
X92114762Y15359048D01*
X92067143Y15311429D01*
X91971905Y15263810D01*
X91590952Y15263810D01*
X92543333Y14835238D02*
X92686190Y14787619D01*
X92924286Y14787619D01*
X93019524Y14835238D01*
X93067143Y14882857D01*
X93114762Y14978095D01*
X93114762Y15073333D01*
X93067143Y15168571D01*
X93019524Y15216190D01*
X92924286Y15263810D01*
X92733809Y15311429D01*
X92638571Y15359048D01*
X92590952Y15406667D01*
X92543333Y15501905D01*
X92543333Y15597143D01*
X92590952Y15692381D01*
X92638571Y15740000D01*
X92733809Y15787619D01*
X92971905Y15787619D01*
X93114762Y15740000D01*
X93400476Y15787619D02*
X93971905Y15787619D01*
X93686190Y14787619D02*
X93686190Y15787619D01*
X43902381Y1143095D02*
X43902381Y1714524D01*
X44902381Y1428809D02*
X43902381Y1428809D01*
X43902381Y1952619D02*
X44902381Y2619286D01*
X43902381Y2619286D02*
X44902381Y1952619D01*
X42362381Y1738334D02*
X41886190Y1405000D01*
X42362381Y1166905D02*
X41362381Y1166905D01*
X41362381Y1547858D01*
X41410000Y1643096D01*
X41457619Y1690715D01*
X41552857Y1738334D01*
X41695714Y1738334D01*
X41790952Y1690715D01*
X41838571Y1643096D01*
X41886190Y1547858D01*
X41886190Y1166905D01*
X41362381Y2071667D02*
X42362381Y2738334D01*
X41362381Y2738334D02*
X42362381Y2071667D01*
X39774762Y690714D02*
X39822381Y833571D01*
X39822381Y1071667D01*
X39774762Y1166905D01*
X39727143Y1214524D01*
X39631905Y1262143D01*
X39536667Y1262143D01*
X39441429Y1214524D01*
X39393810Y1166905D01*
X39346190Y1071667D01*
X39298571Y881190D01*
X39250952Y785952D01*
X39203333Y738333D01*
X39108095Y690714D01*
X39012857Y690714D01*
X38917619Y738333D01*
X38870000Y785952D01*
X38822381Y881190D01*
X38822381Y1119286D01*
X38870000Y1262143D01*
X39822381Y1690714D02*
X38822381Y1690714D01*
X38822381Y1928809D01*
X38870000Y2071667D01*
X38965238Y2166905D01*
X39060476Y2214524D01*
X39250952Y2262143D01*
X39393810Y2262143D01*
X39584286Y2214524D01*
X39679524Y2166905D01*
X39774762Y2071667D01*
X39822381Y1928809D01*
X39822381Y1690714D01*
X39536667Y2643095D02*
X39536667Y3119286D01*
X39822381Y2547857D02*
X38822381Y2881190D01*
X39822381Y3214524D01*
X37234762Y714524D02*
X37282381Y857381D01*
X37282381Y1095477D01*
X37234762Y1190715D01*
X37187143Y1238334D01*
X37091905Y1285953D01*
X36996667Y1285953D01*
X36901429Y1238334D01*
X36853810Y1190715D01*
X36806190Y1095477D01*
X36758571Y905000D01*
X36710952Y809762D01*
X36663333Y762143D01*
X36568095Y714524D01*
X36472857Y714524D01*
X36377619Y762143D01*
X36330000Y809762D01*
X36282381Y905000D01*
X36282381Y1143096D01*
X36330000Y1285953D01*
X37187143Y2285953D02*
X37234762Y2238334D01*
X37282381Y2095477D01*
X37282381Y2000239D01*
X37234762Y1857381D01*
X37139524Y1762143D01*
X37044286Y1714524D01*
X36853810Y1666905D01*
X36710952Y1666905D01*
X36520476Y1714524D01*
X36425238Y1762143D01*
X36330000Y1857381D01*
X36282381Y2000239D01*
X36282381Y2095477D01*
X36330000Y2238334D01*
X36377619Y2285953D01*
X37282381Y3190715D02*
X37282381Y2714524D01*
X36282381Y2714524D01*
X33742381Y1714524D02*
X33742381Y1238333D01*
X34218571Y1190714D01*
X34170952Y1238333D01*
X34123333Y1333571D01*
X34123333Y1571667D01*
X34170952Y1666905D01*
X34218571Y1714524D01*
X34313810Y1762143D01*
X34551905Y1762143D01*
X34647143Y1714524D01*
X34694762Y1666905D01*
X34742381Y1571667D01*
X34742381Y1333571D01*
X34694762Y1238333D01*
X34647143Y1190714D01*
X33742381Y2047857D02*
X34742381Y2381190D01*
X33742381Y2714524D01*
X31250000Y1143096D02*
X31202381Y1047858D01*
X31202381Y905001D01*
X31250000Y762143D01*
X31345238Y666905D01*
X31440476Y619286D01*
X31630952Y571667D01*
X31773810Y571667D01*
X31964286Y619286D01*
X32059524Y666905D01*
X32154762Y762143D01*
X32202381Y905001D01*
X32202381Y1000239D01*
X32154762Y1143096D01*
X32107143Y1190715D01*
X31773810Y1190715D01*
X31773810Y1000239D01*
X32202381Y1619286D02*
X31202381Y1619286D01*
X32202381Y2190715D01*
X31202381Y2190715D01*
X32202381Y2666905D02*
X31202381Y2666905D01*
X31202381Y2905000D01*
X31250000Y3047858D01*
X31345238Y3143096D01*
X31440476Y3190715D01*
X31630952Y3238334D01*
X31773810Y3238334D01*
X31964286Y3190715D01*
X32059524Y3143096D01*
X32154762Y3047858D01*
X32202381Y2905000D01*
X32202381Y2666905D01*
D12*
X77220000Y27330000D02*
X26920000Y27330000D01*
X26920000Y27330000D02*
X26920000Y46330000D01*
X26920000Y46330000D02*
X77220000Y46330000D01*
X77220000Y46330000D02*
X77220000Y27330000D01*
X67700000Y36830000D02*
X72700000Y36830000D01*
X65950000Y30830000D02*
X71200000Y30830000D01*
X73450000Y37330000D02*
X74950000Y42830000D01*
X71700000Y30830000D02*
X73200000Y36330000D01*
X67200000Y37330000D02*
X68700000Y42830000D01*
X65450000Y30830000D02*
X66950000Y36330000D01*
X69200000Y42830000D02*
X74450000Y42830000D01*
X30870000Y36830000D02*
X35870000Y36830000D01*
X29120000Y30830000D02*
X34370000Y30830000D01*
X36620000Y37330000D02*
X38120000Y42830000D01*
X34870000Y30830000D02*
X36370000Y36330000D01*
X30370000Y37330000D02*
X31870000Y42830000D01*
X28620000Y30830000D02*
X30120000Y36330000D01*
X32370000Y42830000D02*
X37620000Y42830000D01*
X45070000Y42830000D02*
X50320000Y42830000D01*
X41320000Y30830000D02*
X42820000Y36330000D01*
X43070000Y37330000D02*
X44570000Y42830000D01*
X47570000Y30830000D02*
X49070000Y36330000D01*
X49320000Y37330000D02*
X50820000Y42830000D01*
X41820000Y30830000D02*
X47070000Y30830000D01*
X43570000Y36830000D02*
X48570000Y36830000D01*
X61955000Y37330000D02*
X63455000Y42830000D01*
X57705000Y42830000D02*
X62955000Y42830000D01*
X55705000Y37330000D02*
X57205000Y42830000D01*
X56205000Y36830000D02*
X61205000Y36830000D01*
X54455000Y30830000D02*
X59705000Y30830000D01*
X53955000Y30830000D02*
X55455000Y36330000D01*
X60205000Y30830000D02*
X61705000Y36330000D01*
X74450000Y31330000D02*
G75*
G03X74450000Y31330000I-500000J0D01*
G01*
X37620000Y31330000D02*
G75*
G03X37620000Y31330000I-500000J0D01*
G01*
X62955000Y31330000D02*
G75*
G03X62955000Y31330000I-500000J0D01*
G01*
X50320000Y31330000D02*
G75*
G03X50320000Y31330000I-500000J0D01*
G01*
D13*
X61810000Y36330000D02*
X61810000Y37330000D01*
X60110000Y37330000D02*
X60110000Y36330000D01*
X84100000Y4830000D02*
X84100000Y20570000D01*
X84100000Y20570000D02*
X93700000Y20570000D01*
X93700000Y20570000D02*
X93700000Y4830000D01*
X93700000Y4830000D02*
X84100000Y4830000D01*
X148590000Y10160000D02*
X140970000Y10160000D01*
X148590000Y25400000D02*
X140970000Y25400000D01*
X147320000Y10160000D02*
X147320000Y25400000D01*
X140970000Y10160000D02*
X140970000Y25400000D01*
X148590000Y10160000D02*
X148590000Y25400000D01*
X2540000Y11430000D02*
X2540000Y21590000D01*
X1270000Y11430000D02*
X8890000Y11430000D01*
X8890000Y11430000D02*
X8890000Y21590000D01*
X8890000Y21590000D02*
X1270000Y21590000D01*
X1270000Y21590000D02*
X1270000Y11430000D01*
X115060000Y12390000D02*
X115060000Y13320000D01*
X115060000Y15550000D02*
X115060000Y14620000D01*
X115060000Y15550000D02*
X112900000Y15550000D01*
X115060000Y12390000D02*
X113600000Y12390000D01*
X97400000Y15840000D02*
X97400000Y14640000D01*
X95640000Y14640000D02*
X95640000Y15840000D01*
X64380000Y37430000D02*
X64380000Y36230000D01*
X62620000Y36230000D02*
X62620000Y37430000D01*
X84175000Y42790000D02*
X85375000Y42790000D01*
X85375000Y41030000D02*
X84175000Y41030000D01*
X84170000Y37710000D02*
X85370000Y37710000D01*
X85370000Y35950000D02*
X84170000Y35950000D01*
X17180000Y27550000D02*
X18380000Y27550000D01*
X18380000Y25790000D02*
X17180000Y25790000D01*
X102480000Y15840000D02*
X102480000Y14640000D01*
X100720000Y14640000D02*
X100720000Y15840000D01*
X107280000Y21980000D02*
X106080000Y21980000D01*
X106080000Y23740000D02*
X107280000Y23740000D01*
X114900000Y18170000D02*
X113700000Y18170000D01*
X113700000Y19930000D02*
X114900000Y19930000D01*
D12*
X19780000Y41910000D02*
G75*
G03X19780000Y41910000I-2000000J0D01*
G01*
X11580000Y28080000D02*
X23980000Y28080000D01*
X11580000Y45580000D02*
X11580000Y28080000D01*
X11580000Y45580000D02*
X23980000Y45580000D01*
X23980000Y45580000D02*
X23980000Y28080000D01*
X74995000Y28955000D02*
X74995000Y29230000D01*
X67245000Y28955000D02*
X67245000Y29320000D01*
X67245000Y44705000D02*
X67245000Y44340000D01*
X74995000Y44705000D02*
X74995000Y44340000D01*
X74995000Y28955000D02*
X67245000Y28955000D01*
X74995000Y44705000D02*
X67245000Y44705000D01*
X74995000Y29230000D02*
X76820000Y29230000D01*
D13*
X100900000Y17250000D02*
X102300000Y17250000D01*
X102300000Y17250000D02*
X102300000Y20050000D01*
X100900000Y17250000D02*
X100900000Y20050000D01*
X46420000Y15770000D02*
X45020000Y15770000D01*
X45020000Y15770000D02*
X45020000Y12970000D01*
X46420000Y15770000D02*
X46420000Y12970000D01*
X46600000Y19650000D02*
X46600000Y18450000D01*
X44840000Y18450000D02*
X44840000Y19650000D01*
X109340000Y17510000D02*
X109340000Y19080000D01*
X109340000Y19080000D02*
X104020000Y19080000D01*
X104020000Y19080000D02*
X104020000Y13940000D01*
X104020000Y13940000D02*
X109340000Y13940000D01*
X109340000Y13940000D02*
X109340000Y15510000D01*
X109340000Y15510000D02*
G75*
G02X109340000Y17510000I0J1000000D01*
G01*
X27310000Y13100000D02*
X27310000Y14360000D01*
X27310000Y19920000D02*
X27310000Y18660000D01*
X23550000Y13100000D02*
X27310000Y13100000D01*
X21300000Y19920000D02*
X27310000Y19920000D01*
X78740000Y3750000D02*
X81340000Y3750000D01*
X81340000Y3750000D02*
X81340000Y6410000D01*
X81340000Y6410000D02*
X78740000Y6410000D01*
X78740000Y6410000D02*
X78740000Y3750000D01*
X77470000Y3750000D02*
X76140000Y3750000D01*
X76140000Y3750000D02*
X76140000Y5080000D01*
X73270000Y5555500D02*
X73270000Y4355500D01*
X71510000Y4355500D02*
X71510000Y5555500D01*
X122520000Y25790000D02*
X121320000Y25790000D01*
X121320000Y27550000D02*
X122520000Y27550000D01*
D12*
X123920000Y41910000D02*
G75*
G03X123920000Y41910000I-2000000J0D01*
G01*
X115720000Y28080000D02*
X128120000Y28080000D01*
X115720000Y45580000D02*
X115720000Y28080000D01*
X115720000Y45580000D02*
X128120000Y45580000D01*
X128120000Y45580000D02*
X128120000Y28080000D01*
D13*
X43180000Y6410000D02*
X30420000Y6410000D01*
X30420000Y6410000D02*
X30420000Y3750000D01*
X30420000Y3750000D02*
X43180000Y3750000D01*
X43180000Y3750000D02*
X43180000Y6410000D01*
X44450000Y6410000D02*
X45780000Y6410000D01*
X45780000Y6410000D02*
X45780000Y5080000D01*
X18540000Y19810000D02*
X16360000Y19810000D01*
X11940000Y19810000D02*
X14120000Y19810000D01*
X17780000Y13210000D02*
X16360000Y13210000D01*
X12700000Y13210000D02*
X14120000Y13210000D01*
X18540000Y19810000D02*
X18540000Y13970000D01*
X18540000Y13970000D02*
X17780000Y13210000D01*
X12700000Y13210000D02*
X11940000Y13970000D01*
X11940000Y13970000D02*
X11940000Y19810000D01*
X38860000Y19810000D02*
X36680000Y19810000D01*
X32260000Y19810000D02*
X34440000Y19810000D01*
X38100000Y13210000D02*
X36680000Y13210000D01*
X33020000Y13210000D02*
X34440000Y13210000D01*
X38860000Y19810000D02*
X38860000Y13970000D01*
X38860000Y13970000D02*
X38100000Y13210000D01*
X33020000Y13210000D02*
X32260000Y13970000D01*
X32260000Y13970000D02*
X32260000Y19810000D01*
X97520000Y21300000D02*
X95520000Y21300000D01*
X95520000Y21300000D02*
X95520000Y17400000D01*
X97520000Y21300000D02*
X97520000Y17400000D01*
X116550000Y23130000D02*
X116550000Y25130000D01*
X116550000Y25130000D02*
X112650000Y25130000D01*
X116550000Y23130000D02*
X112650000Y23130000D01*
X-220000Y37370000D02*
X-220000Y28670000D01*
X6190000Y37370000D02*
X6190000Y28670000D01*
X6190000Y28670000D02*
X-220000Y28670000D01*
X1010000Y28670000D02*
X1010000Y37370000D01*
X-220000Y37370000D02*
X6190000Y37370000D01*
X85375000Y30870000D02*
X84175000Y30870000D01*
X84175000Y32630000D02*
X85375000Y32630000D01*
D12*
X102720000Y30230000D02*
X90320000Y30230000D01*
X90320000Y30230000D02*
X90320000Y43430000D01*
X102720000Y43430000D02*
X90320000Y43430000D01*
X102720000Y30230000D02*
X102720000Y43430000D01*
X100020000Y36830000D02*
G75*
G03X100020000Y36830000I-3500000J0D01*
G01*
D13*
X136465000Y43180000D02*
X136465000Y27880000D01*
X136465000Y27880000D02*
X139125000Y27880000D01*
X139125000Y27880000D02*
X139125000Y43180000D01*
X139125000Y43180000D02*
X136465000Y43180000D01*
X136465000Y44450000D02*
X136465000Y45780000D01*
X136465000Y45780000D02*
X137795000Y45780000D01*
X40425000Y17010000D02*
X40425000Y16010000D01*
X42125000Y16010000D02*
X42125000Y17010000D01*
X61429000Y13613000D02*
X61429000Y14613000D01*
X59729000Y14613000D02*
X59729000Y13613000D01*
D12*
X66225000Y16325000D02*
X66225000Y16100000D01*
X73475000Y16325000D02*
X73475000Y16000000D01*
X73475000Y9075000D02*
X73475000Y9400000D01*
X66225000Y9075000D02*
X66225000Y9400000D01*
X66225000Y16325000D02*
X66550000Y16325000D01*
X66225000Y9075000D02*
X66550000Y9075000D01*
X73475000Y9075000D02*
X73150000Y9075000D01*
X73475000Y16325000D02*
X73150000Y16325000D01*
X66225000Y16100000D02*
X64800000Y16100000D01*
D13*
X97730000Y6410000D02*
X97730000Y3750000D01*
X105410000Y6410000D02*
X97730000Y6410000D01*
X105410000Y3750000D02*
X97730000Y3750000D01*
X105410000Y6410000D02*
X105410000Y3750000D01*
X106680000Y6410000D02*
X108010000Y6410000D01*
X108010000Y6410000D02*
X108010000Y5080000D01*
D12*
X27638571Y46823333D02*
X28114762Y46823333D01*
X27543333Y46537619D02*
X27876666Y47537619D01*
X28210000Y46537619D01*
X28876667Y47061429D02*
X28543333Y47061429D01*
X28543333Y46537619D02*
X28543333Y47537619D01*
X29019524Y47537619D01*
X29733810Y47061429D02*
X29400476Y47061429D01*
X29400476Y46537619D02*
X29400476Y47537619D01*
X29876667Y47537619D01*
X30781429Y46537619D02*
X30210000Y46537619D01*
X30495714Y46537619D02*
X30495714Y47537619D01*
X30400476Y47394762D01*
X30305238Y47299524D01*
X30210000Y47251905D01*
X61317143Y33742334D02*
X61364762Y33694715D01*
X61412381Y33551858D01*
X61412381Y33456620D01*
X61364762Y33313762D01*
X61269524Y33218524D01*
X61174286Y33170905D01*
X60983810Y33123286D01*
X60840952Y33123286D01*
X60650476Y33170905D01*
X60555238Y33218524D01*
X60460000Y33313762D01*
X60412381Y33456620D01*
X60412381Y33551858D01*
X60460000Y33694715D01*
X60507619Y33742334D01*
X60412381Y34647096D02*
X60412381Y34170905D01*
X60888571Y34123286D01*
X60840952Y34170905D01*
X60793333Y34266143D01*
X60793333Y34504239D01*
X60840952Y34599477D01*
X60888571Y34647096D01*
X60983810Y34694715D01*
X61221905Y34694715D01*
X61317143Y34647096D01*
X61364762Y34599477D01*
X61412381Y34504239D01*
X61412381Y34266143D01*
X61364762Y34170905D01*
X61317143Y34123286D01*
X82122381Y12826667D02*
X82836667Y12826667D01*
X82979524Y12779047D01*
X83074762Y12683809D01*
X83122381Y12540952D01*
X83122381Y12445714D01*
X83122381Y13826667D02*
X83122381Y13255238D01*
X83122381Y13540952D02*
X82122381Y13540952D01*
X82265238Y13445714D01*
X82360476Y13350476D01*
X82408095Y13255238D01*
X87423810Y3357619D02*
X87423810Y4357619D01*
X88471429Y3452857D02*
X88423810Y3405238D01*
X88280953Y3357619D01*
X88185715Y3357619D01*
X88042857Y3405238D01*
X87947619Y3500476D01*
X87900000Y3595714D01*
X87852381Y3786190D01*
X87852381Y3929048D01*
X87900000Y4119524D01*
X87947619Y4214762D01*
X88042857Y4310000D01*
X88185715Y4357619D01*
X88280953Y4357619D01*
X88423810Y4310000D01*
X88471429Y4262381D01*
X88852381Y3405238D02*
X88995238Y3357619D01*
X89233334Y3357619D01*
X89328572Y3405238D01*
X89376191Y3452857D01*
X89423810Y3548095D01*
X89423810Y3643333D01*
X89376191Y3738571D01*
X89328572Y3786190D01*
X89233334Y3833810D01*
X89042857Y3881429D01*
X88947619Y3929048D01*
X88900000Y3976667D01*
X88852381Y4071905D01*
X88852381Y4167143D01*
X88900000Y4262381D01*
X88947619Y4310000D01*
X89042857Y4357619D01*
X89280953Y4357619D01*
X89423810Y4310000D01*
X89852381Y3357619D02*
X89852381Y4357619D01*
X90233334Y4357619D01*
X90328572Y4310000D01*
X90376191Y4262381D01*
X90423810Y4167143D01*
X90423810Y4024286D01*
X90376191Y3929048D01*
X90328572Y3881429D01*
X90233334Y3833810D01*
X89852381Y3833810D01*
D13*
X92342381Y10465715D02*
X92342381Y9894286D01*
X92342381Y10180000D02*
X91342381Y10180000D01*
X91485238Y10084762D01*
X91580476Y9989524D01*
X91628095Y9894286D01*
D12*
X139582381Y17416667D02*
X140296667Y17416667D01*
X140439524Y17369047D01*
X140534762Y17273809D01*
X140582381Y17130952D01*
X140582381Y17035714D01*
X139582381Y17797619D02*
X139582381Y18464286D01*
X140582381Y18035714D01*
X9612381Y16176667D02*
X10326667Y16176667D01*
X10469524Y16129047D01*
X10564762Y16033809D01*
X10612381Y15890952D01*
X10612381Y15795714D01*
X9707619Y16605238D02*
X9660000Y16652857D01*
X9612381Y16748095D01*
X9612381Y16986191D01*
X9660000Y17081429D01*
X9707619Y17129048D01*
X9802857Y17176667D01*
X9898095Y17176667D01*
X10040952Y17129048D01*
X10612381Y16557619D01*
X10612381Y17176667D01*
X114204762Y15922381D02*
X114109524Y15970000D01*
X114014286Y16065238D01*
X113871429Y16208095D01*
X113776190Y16255714D01*
X113680952Y16255714D01*
X113728571Y16017619D02*
X113633333Y16065238D01*
X113538095Y16160476D01*
X113490476Y16350952D01*
X113490476Y16684286D01*
X113538095Y16874762D01*
X113633333Y16970000D01*
X113728571Y17017619D01*
X113919048Y17017619D01*
X114014286Y16970000D01*
X114109524Y16874762D01*
X114157143Y16684286D01*
X114157143Y16350952D01*
X114109524Y16160476D01*
X114014286Y16065238D01*
X113919048Y16017619D01*
X113728571Y16017619D01*
X115109524Y16017619D02*
X114538095Y16017619D01*
X114823809Y16017619D02*
X114823809Y17017619D01*
X114728571Y16874762D01*
X114633333Y16779524D01*
X114538095Y16731905D01*
X95322381Y15073334D02*
X94846190Y14740000D01*
X95322381Y14501905D02*
X94322381Y14501905D01*
X94322381Y14882858D01*
X94370000Y14978096D01*
X94417619Y15025715D01*
X94512857Y15073334D01*
X94655714Y15073334D01*
X94750952Y15025715D01*
X94798571Y14978096D01*
X94846190Y14882858D01*
X94846190Y14501905D01*
X94417619Y15454286D02*
X94370000Y15501905D01*
X94322381Y15597143D01*
X94322381Y15835239D01*
X94370000Y15930477D01*
X94417619Y15978096D01*
X94512857Y16025715D01*
X94608095Y16025715D01*
X94750952Y15978096D01*
X95322381Y15406667D01*
X95322381Y16025715D01*
X63952381Y33742334D02*
X63476190Y33409000D01*
X63952381Y33170905D02*
X62952381Y33170905D01*
X62952381Y33551858D01*
X63000000Y33647096D01*
X63047619Y33694715D01*
X63142857Y33742334D01*
X63285714Y33742334D01*
X63380952Y33694715D01*
X63428571Y33647096D01*
X63476190Y33551858D01*
X63476190Y33170905D01*
X62952381Y34599477D02*
X62952381Y34409000D01*
X63000000Y34313762D01*
X63047619Y34266143D01*
X63190476Y34170905D01*
X63380952Y34123286D01*
X63761905Y34123286D01*
X63857143Y34170905D01*
X63904762Y34218524D01*
X63952381Y34313762D01*
X63952381Y34504239D01*
X63904762Y34599477D01*
X63857143Y34647096D01*
X63761905Y34694715D01*
X63523810Y34694715D01*
X63428571Y34647096D01*
X63380952Y34599477D01*
X63333333Y34504239D01*
X63333333Y34313762D01*
X63380952Y34218524D01*
X63428571Y34170905D01*
X63523810Y34123286D01*
X84608334Y39807619D02*
X84275000Y40283810D01*
X84036905Y39807619D02*
X84036905Y40807619D01*
X84417858Y40807619D01*
X84513096Y40760000D01*
X84560715Y40712381D01*
X84608334Y40617143D01*
X84608334Y40474286D01*
X84560715Y40379048D01*
X84513096Y40331429D01*
X84417858Y40283810D01*
X84036905Y40283810D01*
X85465477Y40474286D02*
X85465477Y39807619D01*
X85227381Y40855238D02*
X84989286Y40140952D01*
X85608334Y40140952D01*
X84603334Y34727619D02*
X84270000Y35203810D01*
X84031905Y34727619D02*
X84031905Y35727619D01*
X84412858Y35727619D01*
X84508096Y35680000D01*
X84555715Y35632381D01*
X84603334Y35537143D01*
X84603334Y35394286D01*
X84555715Y35299048D01*
X84508096Y35251429D01*
X84412858Y35203810D01*
X84031905Y35203810D01*
X85508096Y35727619D02*
X85031905Y35727619D01*
X84984286Y35251429D01*
X85031905Y35299048D01*
X85127143Y35346667D01*
X85365239Y35346667D01*
X85460477Y35299048D01*
X85508096Y35251429D01*
X85555715Y35156190D01*
X85555715Y34918095D01*
X85508096Y34822857D01*
X85460477Y34775238D01*
X85365239Y34727619D01*
X85127143Y34727619D01*
X85031905Y34775238D01*
X84984286Y34822857D01*
X17137143Y24567619D02*
X16803809Y25043810D01*
X16565714Y24567619D02*
X16565714Y25567619D01*
X16946667Y25567619D01*
X17041905Y25520000D01*
X17089524Y25472381D01*
X17137143Y25377143D01*
X17137143Y25234286D01*
X17089524Y25139048D01*
X17041905Y25091429D01*
X16946667Y25043810D01*
X16565714Y25043810D01*
X18089524Y24567619D02*
X17518095Y24567619D01*
X17803809Y24567619D02*
X17803809Y25567619D01*
X17708571Y25424762D01*
X17613333Y25329524D01*
X17518095Y25281905D01*
X19041905Y24567619D02*
X18470476Y24567619D01*
X18756190Y24567619D02*
X18756190Y25567619D01*
X18660952Y25424762D01*
X18565714Y25329524D01*
X18470476Y25281905D01*
X100402381Y15073334D02*
X99926190Y14740000D01*
X100402381Y14501905D02*
X99402381Y14501905D01*
X99402381Y14882858D01*
X99450000Y14978096D01*
X99497619Y15025715D01*
X99592857Y15073334D01*
X99735714Y15073334D01*
X99830952Y15025715D01*
X99878571Y14978096D01*
X99926190Y14882858D01*
X99926190Y14501905D01*
X99830952Y15644762D02*
X99783333Y15549524D01*
X99735714Y15501905D01*
X99640476Y15454286D01*
X99592857Y15454286D01*
X99497619Y15501905D01*
X99450000Y15549524D01*
X99402381Y15644762D01*
X99402381Y15835239D01*
X99450000Y15930477D01*
X99497619Y15978096D01*
X99592857Y16025715D01*
X99640476Y16025715D01*
X99735714Y15978096D01*
X99783333Y15930477D01*
X99830952Y15835239D01*
X99830952Y15644762D01*
X99878571Y15549524D01*
X99926190Y15501905D01*
X100021429Y15454286D01*
X100211905Y15454286D01*
X100307143Y15501905D01*
X100354762Y15549524D01*
X100402381Y15644762D01*
X100402381Y15835239D01*
X100354762Y15930477D01*
X100307143Y15978096D01*
X100211905Y16025715D01*
X100021429Y16025715D01*
X99926190Y15978096D01*
X99878571Y15930477D01*
X99830952Y15835239D01*
X106513334Y24057619D02*
X106180000Y24533810D01*
X105941905Y24057619D02*
X105941905Y25057619D01*
X106322858Y25057619D01*
X106418096Y25010000D01*
X106465715Y24962381D01*
X106513334Y24867143D01*
X106513334Y24724286D01*
X106465715Y24629048D01*
X106418096Y24581429D01*
X106322858Y24533810D01*
X105941905Y24533810D01*
X106989524Y24057619D02*
X107180000Y24057619D01*
X107275239Y24105238D01*
X107322858Y24152857D01*
X107418096Y24295714D01*
X107465715Y24486190D01*
X107465715Y24867143D01*
X107418096Y24962381D01*
X107370477Y25010000D01*
X107275239Y25057619D01*
X107084762Y25057619D01*
X106989524Y25010000D01*
X106941905Y24962381D01*
X106894286Y24867143D01*
X106894286Y24629048D01*
X106941905Y24533810D01*
X106989524Y24486190D01*
X107084762Y24438571D01*
X107275239Y24438571D01*
X107370477Y24486190D01*
X107418096Y24533810D01*
X107465715Y24629048D01*
X113657143Y20247619D02*
X113323809Y20723810D01*
X113085714Y20247619D02*
X113085714Y21247619D01*
X113466667Y21247619D01*
X113561905Y21200000D01*
X113609524Y21152381D01*
X113657143Y21057143D01*
X113657143Y20914286D01*
X113609524Y20819048D01*
X113561905Y20771429D01*
X113466667Y20723810D01*
X113085714Y20723810D01*
X114609524Y20247619D02*
X114038095Y20247619D01*
X114323809Y20247619D02*
X114323809Y21247619D01*
X114228571Y21104762D01*
X114133333Y21009524D01*
X114038095Y20961905D01*
X115228571Y21247619D02*
X115323810Y21247619D01*
X115419048Y21200000D01*
X115466667Y21152381D01*
X115514286Y21057143D01*
X115561905Y20866667D01*
X115561905Y20628571D01*
X115514286Y20438095D01*
X115466667Y20342857D01*
X115419048Y20295238D01*
X115323810Y20247619D01*
X115228571Y20247619D01*
X115133333Y20295238D01*
X115085714Y20342857D01*
X115038095Y20438095D01*
X114990476Y20628571D01*
X114990476Y20866667D01*
X115038095Y21057143D01*
X115085714Y21152381D01*
X115133333Y21200000D01*
X115228571Y21247619D01*
X12636667Y46585238D02*
X12779524Y46537619D01*
X13017620Y46537619D01*
X13112858Y46585238D01*
X13160477Y46632857D01*
X13208096Y46728095D01*
X13208096Y46823333D01*
X13160477Y46918571D01*
X13112858Y46966190D01*
X13017620Y47013810D01*
X12827143Y47061429D01*
X12731905Y47109048D01*
X12684286Y47156667D01*
X12636667Y47251905D01*
X12636667Y47347143D01*
X12684286Y47442381D01*
X12731905Y47490000D01*
X12827143Y47537619D01*
X13065239Y47537619D01*
X13208096Y47490000D01*
X13541429Y47537619D02*
X13779524Y46537619D01*
X13970001Y47251905D01*
X14160477Y46537619D01*
X14398572Y47537619D01*
X14731905Y47442381D02*
X14779524Y47490000D01*
X14874762Y47537619D01*
X15112858Y47537619D01*
X15208096Y47490000D01*
X15255715Y47442381D01*
X15303334Y47347143D01*
X15303334Y47251905D01*
X15255715Y47109048D01*
X14684286Y46537619D01*
X15303334Y46537619D01*
X70358095Y28577619D02*
X70358095Y27768095D01*
X70405714Y27672857D01*
X70453333Y27625238D01*
X70548571Y27577619D01*
X70739048Y27577619D01*
X70834286Y27625238D01*
X70881905Y27672857D01*
X70929524Y27768095D01*
X70929524Y28577619D01*
X71310476Y28577619D02*
X71929524Y28577619D01*
X71596190Y28196667D01*
X71739048Y28196667D01*
X71834286Y28149048D01*
X71881905Y28101429D01*
X71929524Y28006190D01*
X71929524Y27768095D01*
X71881905Y27672857D01*
X71834286Y27625238D01*
X71739048Y27577619D01*
X71453333Y27577619D01*
X71358095Y27625238D01*
X71310476Y27672857D01*
X100602381Y18311905D02*
X99602381Y18311905D01*
X99602381Y18550000D01*
X99650000Y18692858D01*
X99745238Y18788096D01*
X99840476Y18835715D01*
X100030952Y18883334D01*
X100173810Y18883334D01*
X100364286Y18835715D01*
X100459524Y18788096D01*
X100554762Y18692858D01*
X100602381Y18550000D01*
X100602381Y18311905D01*
X99602381Y19216667D02*
X99602381Y19835715D01*
X99983333Y19502381D01*
X99983333Y19645239D01*
X100030952Y19740477D01*
X100078571Y19788096D01*
X100173810Y19835715D01*
X100411905Y19835715D01*
X100507143Y19788096D01*
X100554762Y19740477D01*
X100602381Y19645239D01*
X100602381Y19359524D01*
X100554762Y19264286D01*
X100507143Y19216667D01*
X44648381Y13231905D02*
X43648381Y13231905D01*
X43648381Y13470000D01*
X43696000Y13612858D01*
X43791238Y13708096D01*
X43886476Y13755715D01*
X44076952Y13803334D01*
X44219810Y13803334D01*
X44410286Y13755715D01*
X44505524Y13708096D01*
X44600762Y13612858D01*
X44648381Y13470000D01*
X44648381Y13231905D01*
X43743619Y14184286D02*
X43696000Y14231905D01*
X43648381Y14327143D01*
X43648381Y14565239D01*
X43696000Y14660477D01*
X43743619Y14708096D01*
X43838857Y14755715D01*
X43934095Y14755715D01*
X44076952Y14708096D01*
X44648381Y14136667D01*
X44648381Y14755715D01*
X44522381Y18883334D02*
X44046190Y18550000D01*
X44522381Y18311905D02*
X43522381Y18311905D01*
X43522381Y18692858D01*
X43570000Y18788096D01*
X43617619Y18835715D01*
X43712857Y18883334D01*
X43855714Y18883334D01*
X43950952Y18835715D01*
X43998571Y18788096D01*
X44046190Y18692858D01*
X44046190Y18311905D01*
X43522381Y19216667D02*
X43522381Y19835715D01*
X43903333Y19502381D01*
X43903333Y19645239D01*
X43950952Y19740477D01*
X43998571Y19788096D01*
X44093810Y19835715D01*
X44331905Y19835715D01*
X44427143Y19788096D01*
X44474762Y19740477D01*
X44522381Y19645239D01*
X44522381Y19359524D01*
X44474762Y19264286D01*
X44427143Y19216667D01*
X109792381Y15748095D02*
X110601905Y15748095D01*
X110697143Y15795714D01*
X110744762Y15843333D01*
X110792381Y15938571D01*
X110792381Y16129048D01*
X110744762Y16224286D01*
X110697143Y16271905D01*
X110601905Y16319524D01*
X109792381Y16319524D01*
X110125714Y17224286D02*
X110792381Y17224286D01*
X109744762Y16986190D02*
X110459048Y16748095D01*
X110459048Y17367143D01*
X24638095Y21557619D02*
X24638095Y20748095D01*
X24685714Y20652857D01*
X24733333Y20605238D01*
X24828571Y20557619D01*
X25019048Y20557619D01*
X25114286Y20605238D01*
X25161905Y20652857D01*
X25209524Y20748095D01*
X25209524Y21557619D01*
X25638095Y21462381D02*
X25685714Y21510000D01*
X25780952Y21557619D01*
X26019048Y21557619D01*
X26114286Y21510000D01*
X26161905Y21462381D01*
X26209524Y21367143D01*
X26209524Y21271905D01*
X26161905Y21129048D01*
X25590476Y20557619D01*
X26209524Y20557619D01*
X74592381Y4746667D02*
X75306667Y4746667D01*
X75449524Y4699047D01*
X75544762Y4603809D01*
X75592381Y4460952D01*
X75592381Y4365714D01*
X74592381Y5127619D02*
X74592381Y5746667D01*
X74973333Y5413333D01*
X74973333Y5556191D01*
X75020952Y5651429D01*
X75068571Y5699048D01*
X75163810Y5746667D01*
X75401905Y5746667D01*
X75497143Y5699048D01*
X75544762Y5651429D01*
X75592381Y5556191D01*
X75592381Y5270476D01*
X75544762Y5175238D01*
X75497143Y5127619D01*
X76954286Y2087619D02*
X76954286Y3087619D01*
X77335239Y3087619D01*
X77430477Y3040000D01*
X77478096Y2992381D01*
X77525715Y2897143D01*
X77525715Y2754286D01*
X77478096Y2659048D01*
X77430477Y2611429D01*
X77335239Y2563810D01*
X76954286Y2563810D01*
X77954286Y2087619D02*
X77954286Y2754286D01*
X77954286Y3087619D02*
X77906667Y3040000D01*
X77954286Y2992381D01*
X78001905Y3040000D01*
X77954286Y3087619D01*
X77954286Y2992381D01*
X78811429Y2135238D02*
X78716191Y2087619D01*
X78525714Y2087619D01*
X78430476Y2135238D01*
X78382857Y2230476D01*
X78382857Y2611429D01*
X78430476Y2706667D01*
X78525714Y2754286D01*
X78716191Y2754286D01*
X78811429Y2706667D01*
X78859048Y2611429D01*
X78859048Y2516190D01*
X78382857Y2420952D01*
X79192381Y2754286D02*
X79716191Y2754286D01*
X79192381Y2087619D01*
X79716191Y2087619D01*
X80240000Y2087619D02*
X80144762Y2135238D01*
X80097143Y2182857D01*
X80049524Y2278095D01*
X80049524Y2563810D01*
X80097143Y2659048D01*
X80144762Y2706667D01*
X80240000Y2754286D01*
X80382858Y2754286D01*
X80478096Y2706667D01*
X80525715Y2659048D01*
X80573334Y2563810D01*
X80573334Y2278095D01*
X80525715Y2182857D01*
X80478096Y2135238D01*
X80382858Y2087619D01*
X80240000Y2087619D01*
X71192381Y4788834D02*
X70716190Y4455500D01*
X71192381Y4217405D02*
X70192381Y4217405D01*
X70192381Y4598358D01*
X70240000Y4693596D01*
X70287619Y4741215D01*
X70382857Y4788834D01*
X70525714Y4788834D01*
X70620952Y4741215D01*
X70668571Y4693596D01*
X70716190Y4598358D01*
X70716190Y4217405D01*
X71192381Y5741215D02*
X71192381Y5169786D01*
X71192381Y5455500D02*
X70192381Y5455500D01*
X70335238Y5360262D01*
X70430476Y5265024D01*
X70478095Y5169786D01*
X121277143Y27867619D02*
X120943809Y28343810D01*
X120705714Y27867619D02*
X120705714Y28867619D01*
X121086667Y28867619D01*
X121181905Y28820000D01*
X121229524Y28772381D01*
X121277143Y28677143D01*
X121277143Y28534286D01*
X121229524Y28439048D01*
X121181905Y28391429D01*
X121086667Y28343810D01*
X120705714Y28343810D01*
X122229524Y27867619D02*
X121658095Y27867619D01*
X121943809Y27867619D02*
X121943809Y28867619D01*
X121848571Y28724762D01*
X121753333Y28629524D01*
X121658095Y28581905D01*
X122610476Y28772381D02*
X122658095Y28820000D01*
X122753333Y28867619D01*
X122991429Y28867619D01*
X123086667Y28820000D01*
X123134286Y28772381D01*
X123181905Y28677143D01*
X123181905Y28581905D01*
X123134286Y28439048D01*
X122562857Y27867619D01*
X123181905Y27867619D01*
X116776667Y46585238D02*
X116919524Y46537619D01*
X117157620Y46537619D01*
X117252858Y46585238D01*
X117300477Y46632857D01*
X117348096Y46728095D01*
X117348096Y46823333D01*
X117300477Y46918571D01*
X117252858Y46966190D01*
X117157620Y47013810D01*
X116967143Y47061429D01*
X116871905Y47109048D01*
X116824286Y47156667D01*
X116776667Y47251905D01*
X116776667Y47347143D01*
X116824286Y47442381D01*
X116871905Y47490000D01*
X116967143Y47537619D01*
X117205239Y47537619D01*
X117348096Y47490000D01*
X117681429Y47537619D02*
X117919524Y46537619D01*
X118110001Y47251905D01*
X118300477Y46537619D01*
X118538572Y47537619D01*
X118824286Y47537619D02*
X119443334Y47537619D01*
X119110000Y47156667D01*
X119252858Y47156667D01*
X119348096Y47109048D01*
X119395715Y47061429D01*
X119443334Y46966190D01*
X119443334Y46728095D01*
X119395715Y46632857D01*
X119348096Y46585238D01*
X119252858Y46537619D01*
X118967143Y46537619D01*
X118871905Y46585238D01*
X118824286Y46632857D01*
X46232381Y4746667D02*
X46946667Y4746667D01*
X47089524Y4699047D01*
X47184762Y4603809D01*
X47232381Y4460952D01*
X47232381Y4365714D01*
X46232381Y5699048D02*
X46232381Y5222857D01*
X46708571Y5175238D01*
X46660952Y5222857D01*
X46613333Y5318095D01*
X46613333Y5556191D01*
X46660952Y5651429D01*
X46708571Y5699048D01*
X46803810Y5746667D01*
X47041905Y5746667D01*
X47137143Y5699048D01*
X47184762Y5651429D01*
X47232381Y5556191D01*
X47232381Y5318095D01*
X47184762Y5222857D01*
X47137143Y5175238D01*
X26487619Y4627619D02*
X26487619Y5627619D01*
X26725714Y5627619D01*
X26868572Y5580000D01*
X26963810Y5484762D01*
X27011429Y5389524D01*
X27059048Y5199048D01*
X27059048Y5056190D01*
X27011429Y4865714D01*
X26963810Y4770476D01*
X26868572Y4675238D01*
X26725714Y4627619D01*
X26487619Y4627619D01*
X27916191Y4627619D02*
X27916191Y5151429D01*
X27868572Y5246667D01*
X27773334Y5294286D01*
X27582857Y5294286D01*
X27487619Y5246667D01*
X27916191Y4675238D02*
X27820953Y4627619D01*
X27582857Y4627619D01*
X27487619Y4675238D01*
X27440000Y4770476D01*
X27440000Y4865714D01*
X27487619Y4960952D01*
X27582857Y5008571D01*
X27820953Y5008571D01*
X27916191Y5056190D01*
X28249524Y5294286D02*
X28630476Y5294286D01*
X28392381Y5627619D02*
X28392381Y4770476D01*
X28440000Y4675238D01*
X28535238Y4627619D01*
X28630476Y4627619D01*
X29392382Y4627619D02*
X29392382Y5151429D01*
X29344763Y5246667D01*
X29249525Y5294286D01*
X29059048Y5294286D01*
X28963810Y5246667D01*
X29392382Y4675238D02*
X29297144Y4627619D01*
X29059048Y4627619D01*
X28963810Y4675238D01*
X28916191Y4770476D01*
X28916191Y4865714D01*
X28963810Y4960952D01*
X29059048Y5008571D01*
X29297144Y5008571D01*
X29392382Y5056190D01*
X20157143Y16343334D02*
X20204762Y16295715D01*
X20252381Y16152858D01*
X20252381Y16057620D01*
X20204762Y15914762D01*
X20109524Y15819524D01*
X20014286Y15771905D01*
X19823810Y15724286D01*
X19680952Y15724286D01*
X19490476Y15771905D01*
X19395238Y15819524D01*
X19300000Y15914762D01*
X19252381Y16057620D01*
X19252381Y16152858D01*
X19300000Y16295715D01*
X19347619Y16343334D01*
X19347619Y16724286D02*
X19300000Y16771905D01*
X19252381Y16867143D01*
X19252381Y17105239D01*
X19300000Y17200477D01*
X19347619Y17248096D01*
X19442857Y17295715D01*
X19538095Y17295715D01*
X19680952Y17248096D01*
X20252381Y16676667D01*
X20252381Y17295715D01*
X18321429Y11849048D02*
X18321429Y12610953D01*
X18702381Y12230001D02*
X17940476Y12230001D01*
X39981143Y16343334D02*
X40028762Y16295715D01*
X40076381Y16152858D01*
X40076381Y16057620D01*
X40028762Y15914762D01*
X39933524Y15819524D01*
X39838286Y15771905D01*
X39647810Y15724286D01*
X39504952Y15724286D01*
X39314476Y15771905D01*
X39219238Y15819524D01*
X39124000Y15914762D01*
X39076381Y16057620D01*
X39076381Y16152858D01*
X39124000Y16295715D01*
X39171619Y16343334D01*
X39076381Y16676667D02*
X39076381Y17295715D01*
X39457333Y16962381D01*
X39457333Y17105239D01*
X39504952Y17200477D01*
X39552571Y17248096D01*
X39647810Y17295715D01*
X39885905Y17295715D01*
X39981143Y17248096D01*
X40028762Y17200477D01*
X40076381Y17105239D01*
X40076381Y16819524D01*
X40028762Y16724286D01*
X39981143Y16676667D01*
X38641429Y11849048D02*
X38641429Y12610953D01*
X39022381Y12230001D02*
X38260476Y12230001D01*
X98972381Y18311905D02*
X97972381Y18311905D01*
X97972381Y18550000D01*
X98020000Y18692858D01*
X98115238Y18788096D01*
X98210476Y18835715D01*
X98400952Y18883334D01*
X98543810Y18883334D01*
X98734286Y18835715D01*
X98829524Y18788096D01*
X98924762Y18692858D01*
X98972381Y18550000D01*
X98972381Y18311905D01*
X98972381Y19835715D02*
X98972381Y19264286D01*
X98972381Y19550000D02*
X97972381Y19550000D01*
X98115238Y19454762D01*
X98210476Y19359524D01*
X98258095Y19264286D01*
X113561905Y21677619D02*
X113561905Y22677619D01*
X113800000Y22677619D01*
X113942858Y22630000D01*
X114038096Y22534762D01*
X114085715Y22439524D01*
X114133334Y22249048D01*
X114133334Y22106190D01*
X114085715Y21915714D01*
X114038096Y21820476D01*
X113942858Y21725238D01*
X113800000Y21677619D01*
X113561905Y21677619D01*
X114990477Y22344286D02*
X114990477Y21677619D01*
X114752381Y22725238D02*
X114514286Y22010952D01*
X115133334Y22010952D01*
X6502381Y32686667D02*
X7216667Y32686667D01*
X7359524Y32639047D01*
X7454762Y32543809D01*
X7502381Y32400952D01*
X7502381Y32305714D01*
X6502381Y33591429D02*
X6502381Y33400952D01*
X6550000Y33305714D01*
X6597619Y33258095D01*
X6740476Y33162857D01*
X6930952Y33115238D01*
X7311905Y33115238D01*
X7407143Y33162857D01*
X7454762Y33210476D01*
X7502381Y33305714D01*
X7502381Y33496191D01*
X7454762Y33591429D01*
X7407143Y33639048D01*
X7311905Y33686667D01*
X7073810Y33686667D01*
X6978571Y33639048D01*
X6930952Y33591429D01*
X6883333Y33496191D01*
X6883333Y33305714D01*
X6930952Y33210476D01*
X6978571Y33162857D01*
X7073810Y33115238D01*
X84608334Y32947619D02*
X84275000Y33423810D01*
X84036905Y32947619D02*
X84036905Y33947619D01*
X84417858Y33947619D01*
X84513096Y33900000D01*
X84560715Y33852381D01*
X84608334Y33757143D01*
X84608334Y33614286D01*
X84560715Y33519048D01*
X84513096Y33471429D01*
X84417858Y33423810D01*
X84036905Y33423810D01*
X84941667Y33947619D02*
X85608334Y33947619D01*
X85179762Y32947619D01*
X90106667Y46585238D02*
X90249524Y46537619D01*
X90487620Y46537619D01*
X90582858Y46585238D01*
X90630477Y46632857D01*
X90678096Y46728095D01*
X90678096Y46823333D01*
X90630477Y46918571D01*
X90582858Y46966190D01*
X90487620Y47013810D01*
X90297143Y47061429D01*
X90201905Y47109048D01*
X90154286Y47156667D01*
X90106667Y47251905D01*
X90106667Y47347143D01*
X90154286Y47442381D01*
X90201905Y47490000D01*
X90297143Y47537619D01*
X90535239Y47537619D01*
X90678096Y47490000D01*
X91011429Y47537619D02*
X91249524Y46537619D01*
X91440001Y47251905D01*
X91630477Y46537619D01*
X91868572Y47537619D01*
X92773334Y46537619D02*
X92201905Y46537619D01*
X92487619Y46537619D02*
X92487619Y47537619D01*
X92392381Y47394762D01*
X92297143Y47299524D01*
X92201905Y47251905D01*
X58396190Y9683809D02*
X58872381Y9683809D01*
X57872381Y9350476D02*
X58396190Y9683809D01*
X57872381Y10017143D01*
X58872381Y10874286D02*
X58872381Y10302857D01*
X58872381Y10588571D02*
X57872381Y10588571D01*
X58015238Y10493333D01*
X58110476Y10398095D01*
X58158095Y10302857D01*
X137461667Y47327619D02*
X137461667Y46613333D01*
X137414047Y46470476D01*
X137318809Y46375238D01*
X137175952Y46327619D01*
X137080714Y46327619D01*
X138366429Y46994286D02*
X138366429Y46327619D01*
X138128333Y47375238D02*
X137890238Y46660952D01*
X138509286Y46660952D01*
X141422381Y34782381D02*
X140422381Y34782381D01*
X140755714Y35258571D02*
X141422381Y35258571D01*
X140850952Y35258571D02*
X140803333Y35306190D01*
X140755714Y35401428D01*
X140755714Y35544286D01*
X140803333Y35639524D01*
X140898571Y35687143D01*
X141422381Y35687143D01*
X140755714Y36163333D02*
X141755714Y36163333D01*
X140803333Y36163333D02*
X140755714Y36258571D01*
X140755714Y36449048D01*
X140803333Y36544286D01*
X140850952Y36591905D01*
X140946190Y36639524D01*
X141231905Y36639524D01*
X141327143Y36591905D01*
X141374762Y36544286D01*
X141422381Y36449048D01*
X141422381Y36258571D01*
X141374762Y36163333D01*
X140755714Y37496667D02*
X141422381Y37496667D01*
X140755714Y37068095D02*
X141279524Y37068095D01*
X141374762Y37115714D01*
X141422381Y37210952D01*
X141422381Y37353810D01*
X141374762Y37449048D01*
X141327143Y37496667D01*
X140755714Y37830000D02*
X140755714Y38210952D01*
X140422381Y37972857D02*
X141279524Y37972857D01*
X141374762Y38020476D01*
X141422381Y38115714D01*
X141422381Y38210952D01*
X141374762Y38496667D02*
X141422381Y38591905D01*
X141422381Y38782381D01*
X141374762Y38877620D01*
X141279524Y38925239D01*
X141231905Y38925239D01*
X141136667Y38877620D01*
X141089048Y38782381D01*
X141089048Y38639524D01*
X141041429Y38544286D01*
X140946190Y38496667D01*
X140898571Y38496667D01*
X140803333Y38544286D01*
X140755714Y38639524D01*
X140755714Y38782381D01*
X140803333Y38877620D01*
X43283143Y16343334D02*
X43330762Y16295715D01*
X43378381Y16152858D01*
X43378381Y16057620D01*
X43330762Y15914762D01*
X43235524Y15819524D01*
X43140286Y15771905D01*
X42949810Y15724286D01*
X42806952Y15724286D01*
X42616476Y15771905D01*
X42521238Y15819524D01*
X42426000Y15914762D01*
X42378381Y16057620D01*
X42378381Y16152858D01*
X42426000Y16295715D01*
X42473619Y16343334D01*
X42711714Y17200477D02*
X43378381Y17200477D01*
X42330762Y16962381D02*
X43045048Y16724286D01*
X43045048Y17343334D01*
X62436143Y13946334D02*
X62483762Y13898715D01*
X62531381Y13755858D01*
X62531381Y13660620D01*
X62483762Y13517762D01*
X62388524Y13422524D01*
X62293286Y13374905D01*
X62102810Y13327286D01*
X61959952Y13327286D01*
X61769476Y13374905D01*
X61674238Y13422524D01*
X61579000Y13517762D01*
X61531381Y13660620D01*
X61531381Y13755858D01*
X61579000Y13898715D01*
X61626619Y13946334D01*
X62531381Y14898715D02*
X62531381Y14327286D01*
X62531381Y14613000D02*
X61531381Y14613000D01*
X61674238Y14517762D01*
X61769476Y14422524D01*
X61817095Y14327286D01*
X69088095Y19297619D02*
X69088095Y18488095D01*
X69135714Y18392857D01*
X69183333Y18345238D01*
X69278571Y18297619D01*
X69469048Y18297619D01*
X69564286Y18345238D01*
X69611905Y18392857D01*
X69659524Y18488095D01*
X69659524Y19297619D01*
X70659524Y18297619D02*
X70088095Y18297619D01*
X70373809Y18297619D02*
X70373809Y19297619D01*
X70278571Y19154762D01*
X70183333Y19059524D01*
X70088095Y19011905D01*
X108462381Y4746667D02*
X109176667Y4746667D01*
X109319524Y4699047D01*
X109414762Y4603809D01*
X109462381Y4460952D01*
X109462381Y4365714D01*
X108890952Y5365714D02*
X108843333Y5270476D01*
X108795714Y5222857D01*
X108700476Y5175238D01*
X108652857Y5175238D01*
X108557619Y5222857D01*
X108510000Y5270476D01*
X108462381Y5365714D01*
X108462381Y5556191D01*
X108510000Y5651429D01*
X108557619Y5699048D01*
X108652857Y5746667D01*
X108700476Y5746667D01*
X108795714Y5699048D01*
X108843333Y5651429D01*
X108890952Y5556191D01*
X108890952Y5365714D01*
X108938571Y5270476D01*
X108986190Y5222857D01*
X109081429Y5175238D01*
X109271905Y5175238D01*
X109367143Y5222857D01*
X109414762Y5270476D01*
X109462381Y5365714D01*
X109462381Y5556191D01*
X109414762Y5651429D01*
X109367143Y5699048D01*
X109271905Y5746667D01*
X109081429Y5746667D01*
X108986190Y5699048D01*
X108938571Y5651429D01*
X108890952Y5556191D01*
X100441428Y8040619D02*
X100631905Y8040619D01*
X100727143Y7993000D01*
X100822381Y7897762D01*
X100870000Y7707286D01*
X100870000Y7373952D01*
X100822381Y7183476D01*
X100727143Y7088238D01*
X100631905Y7040619D01*
X100441428Y7040619D01*
X100346190Y7088238D01*
X100250952Y7183476D01*
X100203333Y7373952D01*
X100203333Y7707286D01*
X100250952Y7897762D01*
X100346190Y7993000D01*
X100441428Y8040619D01*
X101727143Y7707286D02*
X101727143Y7040619D01*
X101298571Y7707286D02*
X101298571Y7183476D01*
X101346190Y7088238D01*
X101441428Y7040619D01*
X101584286Y7040619D01*
X101679524Y7088238D01*
X101727143Y7135857D01*
X102060476Y7707286D02*
X102441428Y7707286D01*
X102203333Y8040619D02*
X102203333Y7183476D01*
X102250952Y7088238D01*
X102346190Y7040619D01*
X102441428Y7040619D01*
X102774762Y7707286D02*
X102774762Y6707286D01*
X102774762Y7659667D02*
X102870000Y7707286D01*
X103060477Y7707286D01*
X103155715Y7659667D01*
X103203334Y7612048D01*
X103250953Y7516810D01*
X103250953Y7231095D01*
X103203334Y7135857D01*
X103155715Y7088238D01*
X103060477Y7040619D01*
X102870000Y7040619D01*
X102774762Y7088238D01*
X104108096Y7707286D02*
X104108096Y7040619D01*
X103679524Y7707286D02*
X103679524Y7183476D01*
X103727143Y7088238D01*
X103822381Y7040619D01*
X103965239Y7040619D01*
X104060477Y7088238D01*
X104108096Y7135857D01*
X104441429Y7707286D02*
X104822381Y7707286D01*
X104584286Y8040619D02*
X104584286Y7183476D01*
X104631905Y7088238D01*
X104727143Y7040619D01*
X104822381Y7040619D01*
X105108096Y7088238D02*
X105203334Y7040619D01*
X105393810Y7040619D01*
X105489049Y7088238D01*
X105536668Y7183476D01*
X105536668Y7231095D01*
X105489049Y7326333D01*
X105393810Y7373952D01*
X105250953Y7373952D01*
X105155715Y7421571D01*
X105108096Y7516810D01*
X105108096Y7564429D01*
X105155715Y7659667D01*
X105250953Y7707286D01*
X105393810Y7707286D01*
X105489049Y7659667D01*
%LPC*%
D14*
X124206000Y23876000D03*
D15*
X136406000Y23876000D03*
X136456000Y11826000D03*
D14*
X124206000Y11876000D03*
D15*
X122256000Y17826000D03*
D16*
X45720000Y29210000D03*
D17*
X48260000Y29210000D03*
X50800000Y29210000D03*
X53340000Y29210000D03*
X55880000Y29210000D03*
X58420000Y29210000D03*
X53340000Y44450000D03*
X55880000Y44450000D03*
X45720000Y44450000D03*
X48260000Y44450000D03*
X58420000Y44450000D03*
X50800000Y44450000D03*
D18*
X60960000Y37830000D03*
X60960000Y35830000D03*
D19*
X90170000Y10160000D03*
D20*
X87630000Y10160000D03*
X90170000Y12700000D03*
X87630000Y12700000D03*
X90170000Y15240000D03*
X87630000Y15240000D03*
D21*
X144780000Y12700000D03*
D15*
X144780000Y17780000D03*
X144780000Y22860000D03*
D21*
X5080000Y19050000D03*
D15*
X5080000Y13970000D03*
D22*
X113300000Y14920000D03*
X113300000Y13020000D03*
X115300000Y13970000D03*
D23*
X96520000Y14290000D03*
X96520000Y16190000D03*
X63500000Y35880000D03*
X63500000Y37780000D03*
D24*
X85725000Y41910000D03*
X83825000Y41910000D03*
X85720000Y36830000D03*
X83820000Y36830000D03*
X18730000Y26670000D03*
X16830000Y26670000D03*
D23*
X101600000Y14290000D03*
X101600000Y16190000D03*
D24*
X105730000Y22860000D03*
X107630000Y22860000D03*
X113350000Y19050000D03*
X115250000Y19050000D03*
D25*
X13970000Y29210000D03*
X13970000Y41910000D03*
X16510000Y41910000D03*
X19050000Y41910000D03*
X21590000Y41910000D03*
D17*
X21590000Y36830000D03*
X21590000Y31750000D03*
X13970000Y31750000D03*
D26*
X13970000Y36830000D03*
D25*
X21590000Y44450000D03*
D27*
X75820000Y29845000D03*
X75820000Y31115000D03*
X75820000Y32385000D03*
X75820000Y33655000D03*
X75820000Y34925000D03*
X75820000Y36195000D03*
X75820000Y37465000D03*
X75820000Y38735000D03*
X75820000Y40005000D03*
X75820000Y41275000D03*
X75820000Y42545000D03*
X75820000Y43815000D03*
X66420000Y43815000D03*
X66420000Y42545000D03*
X66420000Y41275000D03*
X66420000Y40005000D03*
X66420000Y38735000D03*
X66420000Y37465000D03*
X66420000Y36195000D03*
X66420000Y34925000D03*
X66420000Y33655000D03*
X66420000Y32385000D03*
X66420000Y31115000D03*
X66420000Y29845000D03*
D28*
X101600000Y20150000D03*
X101600000Y17950000D03*
X45720000Y12870000D03*
X45720000Y15070000D03*
D23*
X45720000Y18100000D03*
X45720000Y20000000D03*
D29*
X107950000Y20320000D03*
X105410000Y12700000D03*
X105410000Y20320000D03*
X107950000Y12700000D03*
D30*
X28550000Y16510000D03*
D31*
X22250000Y16510000D03*
X22250000Y14210000D03*
X22250000Y18810000D03*
D32*
X77470000Y5080000D03*
D33*
X80010000Y5080000D03*
D23*
X72390000Y4005500D03*
X72390000Y5905500D03*
D24*
X120970000Y26670000D03*
X122870000Y26670000D03*
D25*
X118110000Y29210000D03*
X118110000Y41910000D03*
X120650000Y41910000D03*
X123190000Y41910000D03*
X125730000Y41910000D03*
D17*
X125730000Y36830000D03*
X125730000Y31750000D03*
X118110000Y31750000D03*
D26*
X118110000Y36830000D03*
D25*
X125730000Y44450000D03*
D32*
X44450000Y5080000D03*
D33*
X41910000Y5080000D03*
X39370000Y5080000D03*
X36830000Y5080000D03*
X34290000Y5080000D03*
X31750000Y5080000D03*
D34*
X15240000Y13810000D03*
X15240000Y19210000D03*
X35560000Y13810000D03*
X35560000Y19210000D03*
D35*
X96520000Y20700000D03*
X96520000Y17400000D03*
D36*
X115950000Y24130000D03*
X112650000Y24130000D03*
D37*
X5160000Y34320000D03*
X5160000Y33670000D03*
X5160000Y33020000D03*
X5160000Y32370000D03*
X5160000Y31720000D03*
D38*
X5160000Y35520000D03*
X5160000Y30520000D03*
D39*
X2460000Y36520000D03*
X2460000Y29520000D03*
D24*
X83825000Y31750000D03*
X85725000Y31750000D03*
D40*
X102220000Y36830000D03*
D17*
X94020000Y29830000D03*
X94020000Y44330000D03*
X96520000Y44330000D03*
X99020000Y44330000D03*
X99020000Y29830000D03*
D40*
X90820000Y36830000D03*
D41*
X60960000Y10160000D03*
X60960000Y8960000D03*
X60960000Y11360000D03*
D32*
X137795000Y44450000D03*
D33*
X137795000Y41910000D03*
X137795000Y39370000D03*
X137795000Y36830000D03*
X137795000Y34290000D03*
X137795000Y31750000D03*
X137795000Y29210000D03*
D42*
X5080000Y44450000D03*
X5080000Y5080000D03*
X144780000Y5080000D03*
X144780000Y44450000D03*
D43*
X13970000Y5080000D03*
X144780000Y34290000D03*
D18*
X41275000Y15510000D03*
X41275000Y17510000D03*
X60579000Y15113000D03*
X60579000Y13113000D03*
D44*
X65600000Y15500000D03*
X65600000Y14700000D03*
X65600000Y13900000D03*
X65600000Y13100000D03*
X65600000Y12300000D03*
X65600000Y11500000D03*
X65600000Y10700000D03*
X65600000Y9900000D03*
D45*
X67050000Y8450000D03*
X67850000Y8450000D03*
X68650000Y8450000D03*
X69450000Y8450000D03*
X70250000Y8450000D03*
X71050000Y8450000D03*
X71850000Y8450000D03*
X72650000Y8450000D03*
D44*
X74100000Y9900000D03*
X74100000Y10700000D03*
X74100000Y11500000D03*
X74100000Y12300000D03*
X74100000Y13100000D03*
X74100000Y13900000D03*
X74100000Y14700000D03*
X74100000Y15500000D03*
D45*
X72650000Y16950000D03*
X71850000Y16950000D03*
X71050000Y16950000D03*
X70250000Y16950000D03*
X69450000Y16950000D03*
X68650000Y16950000D03*
X67850000Y16950000D03*
X67050000Y16950000D03*
D32*
X106680000Y5080000D03*
D33*
X104140000Y5080000D03*
X101600000Y5080000D03*
X99060000Y5080000D03*
M02*
