M48
;DRILL file {KiCad 4.0.7-e2-6376~58~ubuntu16.04.1} date Fri Oct 20 12:03:43 2017
;FORMAT={-:-/ absolute / metric / decimal}
FMAT,2
METRIC,TZ
T1C0.400
T2C0.500
T3C0.550
T4C0.700
T5C0.900
T6C1.000
T7C1.100
T8C1.300
T9C1.520
T10C2.200
%
G90
G05
M71
T1
X8.509Y33.655
X24.13Y17.78
X24.13Y16.51
X24.13Y15.24
X25.4Y17.78
X25.4Y16.51
X25.4Y15.24
X26.67Y17.78
X26.67Y16.51
X26.67Y15.24
X35.56Y24.13
X36.83Y8.89
X36.83Y8.89
X43.18Y8.89
X47.879Y11.557
X49.149Y11.557
X49.53Y31.115
X51.015Y26.67
X54.61Y39.37
X55.871Y32.855
X56.578Y32.385
X57.658Y35.496
X58.88Y40.475
X59.69Y35.56
X60.325Y31.115
X60.96Y38.735
X62.23Y27.94
X62.262Y15.208
X62.865Y41.275
X63.373Y30.226
X63.754Y18.161
X65.659Y23.495
X67.056Y23.495
X67.183Y4.953
X67.754Y14.986
X67.818Y10.287
X67.818Y6.477
X68.072Y21.209
X68.649Y14.986
X68.707Y13.081
X69.596Y14.986
X70.231Y18.923
X72.453Y37.338
X73.406Y38.227
X73.66Y33.655
X73.914Y42.355
X74.283Y37.364
X75.507Y6.789
X77.283Y18.031
X77.47Y21.971
X78.994Y12.7
X79.375Y24.511
X80.264Y25.4
X80.312Y9.25
X80.391Y11.62
X80.645Y18.415
X81.026Y13.589
X83.133Y7.493
X86.36Y34.29
X87.503Y40.513
X91.44Y17.78
X95.25Y24.13
X96.393Y22.098
X99.695Y20.955
X103.378Y16.129
X111.125Y21.59
X117.475Y21.59
X118.11Y25.4
X120.015Y27.94
X128.905Y29.21
X129.54Y40.64
X133.35Y41.91
T4
X13.97Y41.91
X16.51Y41.91
X19.05Y41.91
X21.59Y41.91
X118.11Y41.91
X120.65Y41.91
X123.19Y41.91
X125.73Y41.91
T5
X13.97Y36.83
X13.97Y31.75
X21.59Y36.83
X21.59Y31.75
X118.11Y36.83
X118.11Y31.75
X125.73Y36.83
X125.73Y31.75
T6
X31.75Y5.08
X34.29Y5.08
X36.83Y5.08
X39.37Y5.08
X41.91Y5.08
X44.45Y5.08
X45.72Y44.45
X45.72Y29.21
X48.26Y44.45
X48.26Y29.21
X50.8Y44.45
X50.8Y29.21
X53.34Y44.45
X53.34Y29.21
X55.88Y44.45
X55.88Y29.21
X58.42Y44.45
X58.42Y29.21
X77.47Y5.08
X80.01Y5.08
X87.63Y15.24
X87.63Y12.7
X87.63Y10.16
X90.17Y15.24
X90.17Y12.7
X90.17Y10.16
X94.02Y44.33
X94.02Y29.83
X96.52Y44.33
X99.02Y44.33
X99.02Y29.83
X99.06Y5.08
X101.6Y5.08
X104.14Y5.08
X106.68Y5.08
X124.206Y23.876
X124.206Y11.876
X137.795Y44.45
X137.795Y41.91
X137.795Y39.37
X137.795Y36.83
X137.795Y34.29
X137.795Y31.75
X137.795Y29.21
T7
X13.97Y29.21
X21.59Y44.45
X118.11Y29.21
X125.73Y44.45
T8
X122.256Y17.826
X136.406Y23.876
X136.456Y11.826
T9
X5.08Y19.05
X5.08Y13.97
X144.78Y22.86
X144.78Y17.78
X144.78Y12.7
T10
X90.82Y36.83
X102.22Y36.83
T2
X2.135Y36.52G85X2.785Y36.52
G05
X2.135Y29.52G85X2.785Y29.52
G05
T3
X5.16Y35.67G85X5.16Y35.37
G05
X5.16Y30.67G85X5.16Y30.37
G05
T0
M30
