G04 #@! TF.FileFunction,Legend,Bot*
%FSLAX46Y46*%
G04 Gerber Fmt 4.6, Leading zero omitted, Abs format (unit mm)*
G04 Created by KiCad (PCBNEW 4.0.7-e2-6376~58~ubuntu16.04.1) date Fri Oct 20 12:03:34 2017*
%MOMM*%
%LPD*%
G01*
G04 APERTURE LIST*
%ADD10C,0.100000*%
%ADD11C,0.500000*%
%ADD12C,0.120000*%
%ADD13C,0.300000*%
%ADD14C,0.150000*%
%ADD15C,2.900000*%
%ADD16C,3.400000*%
%ADD17R,2.432000X2.432000*%
%ADD18C,2.400000*%
%ADD19R,2.127200X2.127200*%
%ADD20O,2.127200X2.127200*%
%ADD21R,3.400000X3.400000*%
%ADD22C,1.924000*%
%ADD23R,2.400000X2.400000*%
%ADD24R,2.100000X2.100000*%
%ADD25O,2.100000X2.100000*%
%ADD26O,1.350000X1.650000*%
%ADD27O,1.950000X1.400000*%
%ADD28C,4.400000*%
%ADD29C,6.800000*%
G04 APERTURE END LIST*
D10*
D11*
X113686905Y22732857D02*
X113311905Y25732857D01*
X112615476Y22732857D02*
X112419047Y24304286D01*
X112502381Y24590000D01*
X112722619Y24732857D01*
X113079762Y24732857D01*
X113335714Y24590000D01*
X113472619Y24447143D01*
X111532143Y24732857D02*
X110579762Y24732857D01*
X111050000Y25732857D02*
X111371428Y23161429D01*
X111288095Y22875714D01*
X111067857Y22732857D01*
X110829762Y22732857D01*
X110103572Y24732857D02*
X109151191Y24732857D01*
X109621429Y25732857D02*
X109942857Y23161429D01*
X109859524Y22875714D01*
X109639286Y22732857D01*
X109401191Y22732857D01*
X108317858Y24732857D02*
X108692858Y21732857D01*
X108335715Y24590000D02*
X108079763Y24732857D01*
X107603572Y24732857D01*
X107383334Y24590000D01*
X107282143Y24447143D01*
X107198810Y24161429D01*
X107305953Y23304286D01*
X107460715Y23018571D01*
X107597620Y22875714D01*
X107853572Y22732857D01*
X108329763Y22732857D01*
X108550001Y22875714D01*
X106407144Y22875714D02*
X106186905Y22732857D01*
X105710715Y22732857D01*
X105454763Y22875714D01*
X105300000Y23161429D01*
X105282143Y23304286D01*
X105365477Y23590000D01*
X105585715Y23732857D01*
X105942858Y23732857D01*
X106163096Y23875714D01*
X106246429Y24161429D01*
X106228572Y24304286D01*
X106073810Y24590000D01*
X105817858Y24732857D01*
X105460715Y24732857D01*
X105240477Y24590000D01*
X104246429Y23018571D02*
X104145238Y22875714D01*
X104282143Y22732857D01*
X104383334Y22875714D01*
X104246429Y23018571D01*
X104282143Y22732857D01*
X104050000Y24590000D02*
X103948809Y24447143D01*
X104085714Y24304286D01*
X104186905Y24447143D01*
X104050000Y24590000D01*
X104085714Y24304286D01*
X100913096Y25875714D02*
X103538096Y22018571D01*
X98294048Y25875714D02*
X100919048Y22018571D01*
X97841666Y24732857D02*
X97615476Y22732857D01*
X96960713Y24161429D01*
X96663095Y22732857D01*
X95936904Y24732857D01*
X95222618Y24732857D02*
X94996428Y22732857D01*
X94341665Y24161429D01*
X94044047Y22732857D01*
X93317856Y24732857D01*
X92603570Y24732857D02*
X92377380Y22732857D01*
X91722617Y24161429D01*
X91424999Y22732857D01*
X90698808Y24732857D01*
X89960713Y23018571D02*
X89859522Y22875714D01*
X89996427Y22732857D01*
X90097618Y22875714D01*
X89960713Y23018571D01*
X89996427Y22732857D01*
X88448808Y22732857D02*
X88669046Y22875714D01*
X88752379Y23161429D01*
X88430951Y25732857D01*
X86526189Y22875714D02*
X86782141Y22732857D01*
X87258332Y22732857D01*
X87478570Y22875714D01*
X87561903Y23161429D01*
X87419046Y24304286D01*
X87264284Y24590000D01*
X87008332Y24732857D01*
X86532141Y24732857D01*
X86311903Y24590000D01*
X86228569Y24304286D01*
X86264284Y24018571D01*
X87490475Y23732857D01*
X84996427Y22732857D02*
X85216665Y22875714D01*
X85299998Y23161429D01*
X84978570Y25732857D01*
X82972617Y22732857D02*
X82776188Y24304286D01*
X82859522Y24590000D01*
X83079760Y24732857D01*
X83555951Y24732857D01*
X83811903Y24590000D01*
X82954760Y22875714D02*
X83210713Y22732857D01*
X83805951Y22732857D01*
X84026189Y22875714D01*
X84109522Y23161429D01*
X84073808Y23447143D01*
X83919046Y23732857D01*
X83663094Y23875714D01*
X83067856Y23875714D01*
X82811903Y24018571D01*
X81782141Y22732857D02*
X81407141Y25732857D01*
X81549998Y24590000D02*
X81294046Y24732857D01*
X80817855Y24732857D01*
X80597617Y24590000D01*
X80496426Y24447143D01*
X80413093Y24161429D01*
X80520236Y23304286D01*
X80674998Y23018571D01*
X80811903Y22875714D01*
X81067855Y22732857D01*
X81544046Y22732857D01*
X81764284Y22875714D01*
X79163093Y22732857D02*
X79383331Y22875714D01*
X79484522Y23018571D01*
X79567855Y23304286D01*
X79460712Y24161429D01*
X79305950Y24447143D01*
X79169045Y24590000D01*
X78913093Y24732857D01*
X78555950Y24732857D01*
X78335712Y24590000D01*
X78234521Y24447143D01*
X78151188Y24161429D01*
X78258331Y23304286D01*
X78413093Y23018571D01*
X78549998Y22875714D01*
X78805950Y22732857D01*
X79163093Y22732857D01*
X76186902Y22732857D02*
X75811902Y25732857D01*
X76169045Y22875714D02*
X76424998Y22732857D01*
X76901188Y22732857D01*
X77121426Y22875714D01*
X77222617Y23018571D01*
X77305950Y23304286D01*
X77198807Y24161429D01*
X77044045Y24447143D01*
X76907140Y24590000D01*
X76651188Y24732857D01*
X76174998Y24732857D01*
X75954759Y24590000D01*
X73674997Y24732857D02*
X73924997Y22732857D01*
X74746426Y24732857D02*
X74942854Y23161429D01*
X74859521Y22875714D01*
X74639283Y22732857D01*
X74282140Y22732857D01*
X74026188Y22875714D01*
X73889283Y23018571D01*
X72841664Y24732857D02*
X71889283Y24732857D01*
X72359521Y25732857D02*
X72680949Y23161429D01*
X72597616Y22875714D01*
X72377378Y22732857D01*
X72139283Y22732857D01*
X71305950Y22732857D02*
X71055950Y24732857D01*
X71127378Y24161429D02*
X70972616Y24447143D01*
X70835712Y24590000D01*
X70579759Y24732857D01*
X70341664Y24732857D01*
X69401188Y22732857D02*
X69621426Y22875714D01*
X69722617Y23018571D01*
X69805950Y23304286D01*
X69698807Y24161429D01*
X69544045Y24447143D01*
X69407140Y24590000D01*
X69151188Y24732857D01*
X68794045Y24732857D01*
X68573807Y24590000D01*
X68472616Y24447143D01*
X68389283Y24161429D01*
X68496426Y23304286D01*
X68651188Y23018571D01*
X68788093Y22875714D01*
X69044045Y22732857D01*
X69401188Y22732857D01*
X67496426Y22732857D02*
X67246426Y24732857D01*
X67121426Y25732857D02*
X67258331Y25590000D01*
X67157140Y25447143D01*
X67020235Y25590000D01*
X67121426Y25732857D01*
X67157140Y25447143D01*
X66407141Y22875714D02*
X66186902Y22732857D01*
X65710712Y22732857D01*
X65454760Y22875714D01*
X65299997Y23161429D01*
X65282140Y23304286D01*
X65365474Y23590000D01*
X65585712Y23732857D01*
X65942855Y23732857D01*
X66163093Y23875714D01*
X66246426Y24161429D01*
X66228569Y24304286D01*
X66073807Y24590000D01*
X65817855Y24732857D01*
X65460712Y24732857D01*
X65240474Y24590000D01*
X64282140Y22732857D02*
X64032140Y24732857D01*
X63907140Y25732857D02*
X64044045Y25590000D01*
X63942854Y25447143D01*
X63805949Y25590000D01*
X63907140Y25732857D01*
X63942854Y25447143D01*
X62121426Y22875714D02*
X62377378Y22732857D01*
X62853569Y22732857D01*
X63073807Y22875714D01*
X63157140Y23161429D01*
X63014283Y24304286D01*
X62859521Y24590000D01*
X62603569Y24732857D01*
X62127378Y24732857D01*
X61907140Y24590000D01*
X61823806Y24304286D01*
X61859521Y24018571D01*
X63085712Y23732857D01*
X60948807Y22732857D02*
X60698807Y24732857D01*
X60734521Y24447143D02*
X60597616Y24590000D01*
X60341664Y24732857D01*
X59984521Y24732857D01*
X59764283Y24590000D01*
X59680949Y24304286D01*
X59877378Y22732857D01*
X59680949Y24304286D02*
X59526188Y24590000D01*
X59270235Y24732857D01*
X58913093Y24732857D01*
X58692854Y24590000D01*
X58609521Y24304286D01*
X58805950Y22732857D01*
X56645236Y22875714D02*
X56901188Y22732857D01*
X57377379Y22732857D01*
X57597617Y22875714D01*
X57680950Y23161429D01*
X57538093Y24304286D01*
X57383331Y24590000D01*
X57127379Y24732857D01*
X56651188Y24732857D01*
X56430950Y24590000D01*
X56347616Y24304286D01*
X56383331Y24018571D01*
X57609522Y23732857D01*
X55436903Y23018571D02*
X55335712Y22875714D01*
X55472617Y22732857D01*
X55573808Y22875714D01*
X55436903Y23018571D01*
X55472617Y22732857D01*
X54389284Y24732857D02*
X53436903Y24732857D01*
X54282141Y22732857D02*
X53960712Y25304286D01*
X53805950Y25590000D01*
X53549998Y25732857D01*
X53311903Y25732857D01*
X52853570Y22732857D02*
X52603570Y24732857D01*
X52674998Y24161429D02*
X52520236Y24447143D01*
X52383332Y24590000D01*
X52127379Y24732857D01*
X51889284Y24732857D01*
X112835714Y20732857D02*
X112597619Y20732857D01*
X112377381Y20590000D01*
X112276190Y20447143D01*
X112192857Y20161429D01*
X112145238Y19590000D01*
X112234524Y18875714D01*
X112425000Y18304286D01*
X112579762Y18018571D01*
X112716667Y17875714D01*
X112972619Y17732857D01*
X113210714Y17732857D01*
X113430953Y17875714D01*
X113532143Y18018571D01*
X113615476Y18304286D01*
X113663096Y18875714D01*
X113573810Y19590000D01*
X113383333Y20161429D01*
X113228571Y20447143D01*
X113091667Y20590000D01*
X112835714Y20732857D01*
X111186905Y17732857D02*
X110710715Y17732857D01*
X110454763Y17875714D01*
X110317858Y18018571D01*
X110026191Y18447143D01*
X109835715Y19018571D01*
X109692857Y20161429D01*
X109776191Y20447143D01*
X109877381Y20590000D01*
X110097620Y20732857D01*
X110573810Y20732857D01*
X110829762Y20590000D01*
X110966667Y20447143D01*
X111121429Y20161429D01*
X111210715Y19447143D01*
X111127381Y19161429D01*
X111026191Y19018571D01*
X110805953Y18875714D01*
X110329763Y18875714D01*
X110073810Y19018571D01*
X109936905Y19161429D01*
X109782143Y19447143D01*
X106746430Y20875714D02*
X109371430Y17018571D01*
X106085715Y20447143D02*
X105948810Y20590000D01*
X105692858Y20732857D01*
X105097620Y20732857D01*
X104877381Y20590000D01*
X104776191Y20447143D01*
X104692857Y20161429D01*
X104728572Y19875714D01*
X104901191Y19447143D01*
X106544048Y17732857D01*
X104996429Y17732857D01*
X103073810Y20732857D02*
X102835715Y20732857D01*
X102615477Y20590000D01*
X102514286Y20447143D01*
X102430953Y20161429D01*
X102383334Y19590000D01*
X102472620Y18875714D01*
X102663096Y18304286D01*
X102817858Y18018571D01*
X102954763Y17875714D01*
X103210715Y17732857D01*
X103448810Y17732857D01*
X103669049Y17875714D01*
X103770239Y18018571D01*
X103853572Y18304286D01*
X103901192Y18875714D01*
X103811906Y19590000D01*
X103621429Y20161429D01*
X103466667Y20447143D01*
X103329763Y20590000D01*
X103073810Y20732857D01*
X100234525Y17732857D02*
X101663097Y17732857D01*
X100948811Y17732857D02*
X100573811Y20732857D01*
X100865477Y20304286D01*
X101139287Y20018571D01*
X101395240Y19875714D01*
X99026192Y20732857D02*
X97359525Y20732857D01*
X98805954Y17732857D01*
X79424762Y34568095D02*
X78799762Y39568095D01*
X77579524Y35996667D01*
X75466428Y39568095D01*
X76091428Y34568095D01*
X73710476Y34568095D02*
X73293809Y37901429D01*
X73085476Y39568095D02*
X73353333Y39330000D01*
X73145000Y39091905D01*
X72877143Y39330000D01*
X73085476Y39568095D01*
X73145000Y39091905D01*
X70912857Y37901429D02*
X71329524Y34568095D01*
X70972381Y37425238D02*
X70704524Y37663333D01*
X70198571Y37901429D01*
X69484285Y37901429D01*
X69037857Y37663333D01*
X68859286Y37187143D01*
X69186667Y34568095D01*
X64246190Y37901429D02*
X64662857Y34568095D01*
X66389047Y37901429D02*
X66716428Y35282381D01*
X66537857Y34806190D01*
X66091428Y34568095D01*
X65377142Y34568095D01*
X64871190Y34806190D01*
X64603333Y35044286D01*
X62579523Y37901429D02*
X60674761Y37901429D01*
X61656904Y39568095D02*
X62192618Y35282381D01*
X62014047Y34806190D01*
X61567618Y34568095D01*
X61091428Y34568095D01*
X57490237Y34806190D02*
X57996189Y34568095D01*
X58948570Y34568095D01*
X59394999Y34806190D01*
X59573570Y35282381D01*
X59335475Y37187143D01*
X59037856Y37663333D01*
X58531903Y37901429D01*
X57579522Y37901429D01*
X57133094Y37663333D01*
X56954523Y37187143D01*
X57014047Y36710952D01*
X59454523Y36234762D01*
X52579523Y37901429D02*
X52996190Y34568095D01*
X54722380Y37901429D02*
X55049761Y35282381D01*
X54871190Y34806190D01*
X54424761Y34568095D01*
X53710475Y34568095D01*
X53204523Y34806190D01*
X52936666Y35044286D01*
X50615237Y34568095D02*
X50198570Y37901429D01*
X50317618Y36949048D02*
X50019999Y37425238D01*
X49752141Y37663333D01*
X49246189Y37901429D01*
X48769998Y37901429D01*
X43769998Y37901429D02*
X42996189Y34568095D01*
X41389046Y37901429D01*
X37281903Y34568095D02*
X40139046Y34568095D01*
X38710475Y34568095D02*
X38085475Y39568095D01*
X38650951Y38853810D01*
X39186666Y38377619D01*
X39692617Y38139524D01*
D12*
X120856000Y19026000D02*
X120856000Y25626000D01*
X120856000Y10026000D02*
X120856000Y16626000D01*
X120856000Y10026000D02*
X140656000Y10026000D01*
X140656000Y10026000D02*
X140656000Y25626000D01*
X140656000Y25626000D02*
X120856000Y25626000D01*
X136406000Y22026000D02*
X136406000Y19576000D01*
X136406000Y13626000D02*
X136406000Y16126000D01*
X125806000Y23876000D02*
X128306000Y23876000D01*
X124906000Y17876000D02*
X124106000Y17876000D01*
X128306000Y11876000D02*
X125806000Y11876000D01*
X131706000Y17876000D02*
X133206000Y17876000D01*
X133206000Y17876000D02*
X137806000Y15376000D01*
X131706000Y21476000D02*
X124906000Y21476000D01*
X131706000Y17876000D02*
X131706000Y21476000D01*
X124906000Y17876000D02*
X124906000Y21476000D01*
X128306000Y11876000D02*
X128306000Y16076000D01*
X128306000Y19676000D02*
X128306000Y23876000D01*
X130306000Y19676000D02*
X126306000Y16076000D01*
X126306000Y19676000D02*
X126306000Y16076000D01*
X126306000Y16076000D02*
X130306000Y16076000D01*
X130306000Y16076000D02*
X130306000Y19676000D01*
X130306000Y19676000D02*
X126306000Y19676000D01*
D13*
X18669000Y13843000D02*
G75*
G03X18669000Y13843000I-5080000J0D01*
G01*
X30099000Y13843000D02*
G75*
G03X30099000Y13843000I-5080000J0D01*
G01*
X51054000Y18288000D02*
G75*
G03X51054000Y18288000I-10160000J0D01*
G01*
D14*
X130927428Y26573619D02*
X131260762Y27049810D01*
X131498857Y26573619D02*
X131498857Y27573619D01*
X131117904Y27573619D01*
X131022666Y27526000D01*
X130975047Y27478381D01*
X130927428Y27383143D01*
X130927428Y27240286D01*
X130975047Y27145048D01*
X131022666Y27097429D01*
X131117904Y27049810D01*
X131498857Y27049810D01*
X130022666Y26573619D02*
X130498857Y26573619D01*
X130498857Y27573619D01*
X129165523Y26573619D02*
X129736952Y26573619D01*
X129451238Y26573619D02*
X129451238Y27573619D01*
X129546476Y27430762D01*
X129641714Y27335524D01*
X129736952Y27287905D01*
%LPC*%
D15*
X124206000Y23876000D03*
D16*
X136406000Y23876000D03*
X136456000Y11826000D03*
D15*
X124206000Y11876000D03*
D16*
X122256000Y17826000D03*
D17*
X45720000Y29210000D03*
D18*
X48260000Y29210000D03*
X50800000Y29210000D03*
X53340000Y29210000D03*
X55880000Y29210000D03*
X58420000Y29210000D03*
X53340000Y44450000D03*
X55880000Y44450000D03*
X45720000Y44450000D03*
X48260000Y44450000D03*
X58420000Y44450000D03*
X50800000Y44450000D03*
D19*
X90170000Y10160000D03*
D20*
X87630000Y10160000D03*
X90170000Y12700000D03*
X87630000Y12700000D03*
X90170000Y15240000D03*
X87630000Y15240000D03*
D21*
X144780000Y12700000D03*
D16*
X144780000Y17780000D03*
X144780000Y22860000D03*
D21*
X5080000Y19050000D03*
D16*
X5080000Y13970000D03*
D22*
X13970000Y29210000D03*
X13970000Y41910000D03*
X16510000Y41910000D03*
X19050000Y41910000D03*
X21590000Y41910000D03*
D18*
X21590000Y36830000D03*
X21590000Y31750000D03*
X13970000Y31750000D03*
D23*
X13970000Y36830000D03*
D22*
X21590000Y44450000D03*
D24*
X77470000Y5080000D03*
D25*
X80010000Y5080000D03*
D22*
X118110000Y29210000D03*
X118110000Y41910000D03*
X120650000Y41910000D03*
X123190000Y41910000D03*
X125730000Y41910000D03*
D18*
X125730000Y36830000D03*
X125730000Y31750000D03*
X118110000Y31750000D03*
D23*
X118110000Y36830000D03*
D22*
X125730000Y44450000D03*
D24*
X44450000Y5080000D03*
D25*
X41910000Y5080000D03*
X39370000Y5080000D03*
X36830000Y5080000D03*
X34290000Y5080000D03*
X31750000Y5080000D03*
D26*
X5160000Y35520000D03*
X5160000Y30520000D03*
D27*
X2460000Y36520000D03*
X2460000Y29520000D03*
D28*
X102220000Y36830000D03*
D18*
X94020000Y29830000D03*
X94020000Y44330000D03*
X96520000Y44330000D03*
X99020000Y44330000D03*
X99020000Y29830000D03*
D28*
X90820000Y36830000D03*
D24*
X137795000Y44450000D03*
D25*
X137795000Y41910000D03*
X137795000Y39370000D03*
X137795000Y36830000D03*
X137795000Y34290000D03*
X137795000Y31750000D03*
X137795000Y29210000D03*
D29*
X5080000Y44450000D03*
X5080000Y5080000D03*
X144780000Y5080000D03*
X144780000Y44450000D03*
D24*
X106680000Y5080000D03*
D25*
X104140000Y5080000D03*
X101600000Y5080000D03*
X99060000Y5080000D03*
M02*
