G04 #@! TF.FileFunction,Paste,Top*
%FSLAX46Y46*%
G04 Gerber Fmt 4.6, Leading zero omitted, Abs format (unit mm)*
G04 Created by KiCad (PCBNEW 4.0.7-e2-6376~58~ubuntu16.04.1) date Fri Oct 20 12:03:34 2017*
%MOMM*%
%LPD*%
G01*
G04 APERTURE LIST*
%ADD10C,0.100000*%
%ADD11R,1.250000X1.000000*%
%ADD12R,0.900000X0.800000*%
%ADD13R,1.300000X0.700000*%
%ADD14R,0.700000X1.300000*%
%ADD15R,2.000000X0.600000*%
%ADD16R,1.200000X1.200000*%
%ADD17R,1.780000X2.000000*%
%ADD18R,2.000000X3.800000*%
%ADD19R,2.000000X1.500000*%
%ADD20R,1.600000X3.500000*%
%ADD21R,1.200000X0.900000*%
%ADD22R,0.900000X1.200000*%
%ADD23R,1.350000X0.400000*%
%ADD24R,1.900000X0.400000*%
%ADD25R,1.600000X0.550000*%
%ADD26R,0.550000X1.600000*%
G04 APERTURE END LIST*
D10*
D11*
X60960000Y37830000D03*
X60960000Y35830000D03*
D12*
X113300000Y14920000D03*
X113300000Y13020000D03*
X115300000Y13970000D03*
D13*
X96520000Y14290000D03*
X96520000Y16190000D03*
X63500000Y35880000D03*
X63500000Y37780000D03*
D14*
X85725000Y41910000D03*
X83825000Y41910000D03*
X85720000Y36830000D03*
X83820000Y36830000D03*
X18730000Y26670000D03*
X16830000Y26670000D03*
D13*
X101600000Y14290000D03*
X101600000Y16190000D03*
D14*
X105730000Y22860000D03*
X107630000Y22860000D03*
X113350000Y19050000D03*
X115250000Y19050000D03*
D15*
X75820000Y29845000D03*
X75820000Y31115000D03*
X75820000Y32385000D03*
X75820000Y33655000D03*
X75820000Y34925000D03*
X75820000Y36195000D03*
X75820000Y37465000D03*
X75820000Y38735000D03*
X75820000Y40005000D03*
X75820000Y41275000D03*
X75820000Y42545000D03*
X75820000Y43815000D03*
X66420000Y43815000D03*
X66420000Y42545000D03*
X66420000Y41275000D03*
X66420000Y40005000D03*
X66420000Y38735000D03*
X66420000Y37465000D03*
X66420000Y36195000D03*
X66420000Y34925000D03*
X66420000Y33655000D03*
X66420000Y32385000D03*
X66420000Y31115000D03*
X66420000Y29845000D03*
D16*
X101600000Y20150000D03*
X101600000Y17950000D03*
X45720000Y12870000D03*
X45720000Y15070000D03*
D13*
X45720000Y18100000D03*
X45720000Y20000000D03*
D17*
X107950000Y20320000D03*
X105410000Y12700000D03*
X105410000Y20320000D03*
X107950000Y12700000D03*
D18*
X28550000Y16510000D03*
D19*
X22250000Y16510000D03*
X22250000Y14210000D03*
X22250000Y18810000D03*
D13*
X72390000Y4005500D03*
X72390000Y5905500D03*
D14*
X120970000Y26670000D03*
X122870000Y26670000D03*
D20*
X15240000Y13810000D03*
X15240000Y19210000D03*
X35560000Y13810000D03*
X35560000Y19210000D03*
D21*
X96520000Y20700000D03*
X96520000Y17400000D03*
D22*
X115950000Y24130000D03*
X112650000Y24130000D03*
D23*
X5160000Y34320000D03*
X5160000Y33670000D03*
X5160000Y33020000D03*
X5160000Y32370000D03*
X5160000Y31720000D03*
D14*
X83825000Y31750000D03*
X85725000Y31750000D03*
D24*
X60960000Y10160000D03*
X60960000Y8960000D03*
X60960000Y11360000D03*
D11*
X41275000Y15510000D03*
X41275000Y17510000D03*
X60579000Y15113000D03*
X60579000Y13113000D03*
D25*
X65600000Y15500000D03*
X65600000Y14700000D03*
X65600000Y13900000D03*
X65600000Y13100000D03*
X65600000Y12300000D03*
X65600000Y11500000D03*
X65600000Y10700000D03*
X65600000Y9900000D03*
D26*
X67050000Y8450000D03*
X67850000Y8450000D03*
X68650000Y8450000D03*
X69450000Y8450000D03*
X70250000Y8450000D03*
X71050000Y8450000D03*
X71850000Y8450000D03*
X72650000Y8450000D03*
D25*
X74100000Y9900000D03*
X74100000Y10700000D03*
X74100000Y11500000D03*
X74100000Y12300000D03*
X74100000Y13100000D03*
X74100000Y13900000D03*
X74100000Y14700000D03*
X74100000Y15500000D03*
D26*
X72650000Y16950000D03*
X71850000Y16950000D03*
X71050000Y16950000D03*
X70250000Y16950000D03*
X69450000Y16950000D03*
X68650000Y16950000D03*
X67850000Y16950000D03*
X67050000Y16950000D03*
M02*
