G04 #@! TF.FileFunction,Soldermask,Bot*
%FSLAX46Y46*%
G04 Gerber Fmt 4.6, Leading zero omitted, Abs format (unit mm)*
G04 Created by KiCad (PCBNEW 4.0.7-e2-6376~58~ubuntu16.04.1) date Fri Oct 20 12:03:34 2017*
%MOMM*%
%LPD*%
G01*
G04 APERTURE LIST*
%ADD10C,0.100000*%
%ADD11C,2.900000*%
%ADD12C,3.400000*%
%ADD13R,2.432000X2.432000*%
%ADD14C,2.400000*%
%ADD15R,2.127200X2.127200*%
%ADD16O,2.127200X2.127200*%
%ADD17R,3.400000X3.400000*%
%ADD18C,1.924000*%
%ADD19R,2.400000X2.400000*%
%ADD20R,2.100000X2.100000*%
%ADD21O,2.100000X2.100000*%
%ADD22O,1.350000X1.650000*%
%ADD23O,1.950000X1.400000*%
%ADD24C,4.400000*%
%ADD25C,6.800000*%
G04 APERTURE END LIST*
D10*
D11*
X124206000Y23876000D03*
D12*
X136406000Y23876000D03*
X136456000Y11826000D03*
D11*
X124206000Y11876000D03*
D12*
X122256000Y17826000D03*
D13*
X45720000Y29210000D03*
D14*
X48260000Y29210000D03*
X50800000Y29210000D03*
X53340000Y29210000D03*
X55880000Y29210000D03*
X58420000Y29210000D03*
X53340000Y44450000D03*
X55880000Y44450000D03*
X45720000Y44450000D03*
X48260000Y44450000D03*
X58420000Y44450000D03*
X50800000Y44450000D03*
D15*
X90170000Y10160000D03*
D16*
X87630000Y10160000D03*
X90170000Y12700000D03*
X87630000Y12700000D03*
X90170000Y15240000D03*
X87630000Y15240000D03*
D17*
X144780000Y12700000D03*
D12*
X144780000Y17780000D03*
X144780000Y22860000D03*
D17*
X5080000Y19050000D03*
D12*
X5080000Y13970000D03*
D18*
X13970000Y29210000D03*
X13970000Y41910000D03*
X16510000Y41910000D03*
X19050000Y41910000D03*
X21590000Y41910000D03*
D14*
X21590000Y36830000D03*
X21590000Y31750000D03*
X13970000Y31750000D03*
D19*
X13970000Y36830000D03*
D18*
X21590000Y44450000D03*
D20*
X77470000Y5080000D03*
D21*
X80010000Y5080000D03*
D18*
X118110000Y29210000D03*
X118110000Y41910000D03*
X120650000Y41910000D03*
X123190000Y41910000D03*
X125730000Y41910000D03*
D14*
X125730000Y36830000D03*
X125730000Y31750000D03*
X118110000Y31750000D03*
D19*
X118110000Y36830000D03*
D18*
X125730000Y44450000D03*
D20*
X44450000Y5080000D03*
D21*
X41910000Y5080000D03*
X39370000Y5080000D03*
X36830000Y5080000D03*
X34290000Y5080000D03*
X31750000Y5080000D03*
D22*
X5160000Y35520000D03*
X5160000Y30520000D03*
D23*
X2460000Y36520000D03*
X2460000Y29520000D03*
D24*
X102220000Y36830000D03*
D14*
X94020000Y29830000D03*
X94020000Y44330000D03*
X96520000Y44330000D03*
X99020000Y44330000D03*
X99020000Y29830000D03*
D24*
X90820000Y36830000D03*
D20*
X137795000Y44450000D03*
D21*
X137795000Y41910000D03*
X137795000Y39370000D03*
X137795000Y36830000D03*
X137795000Y34290000D03*
X137795000Y31750000D03*
X137795000Y29210000D03*
D25*
X5080000Y44450000D03*
X5080000Y5080000D03*
X144780000Y5080000D03*
X144780000Y44450000D03*
D20*
X106680000Y5080000D03*
D21*
X104140000Y5080000D03*
X101600000Y5080000D03*
X99060000Y5080000D03*
M02*
