G04 #@! TF.FileFunction,Copper,L1,Top,Signal*
%FSLAX46Y46*%
G04 Gerber Fmt 4.6, Leading zero omitted, Abs format (unit mm)*
G04 Created by KiCad (PCBNEW 4.0.6) date Friday 09 June 2017 00:17:03*
%MOMM*%
%LPD*%
G01*
G04 APERTURE LIST*
%ADD10C,0.100000*%
%ADD11C,2.500000*%
%ADD12C,3.000000*%
%ADD13R,2.032000X2.032000*%
%ADD14C,2.000000*%
%ADD15R,1.000000X1.250000*%
%ADD16R,1.250000X1.000000*%
%ADD17R,1.727200X1.727200*%
%ADD18O,1.727200X1.727200*%
%ADD19R,3.000000X3.000000*%
%ADD20R,0.900000X0.800000*%
%ADD21R,1.300000X0.700000*%
%ADD22R,0.700000X1.300000*%
%ADD23C,1.524000*%
%ADD24R,2.000000X2.000000*%
%ADD25R,2.000000X0.600000*%
%ADD26R,1.200000X1.200000*%
%ADD27R,1.600000X0.550000*%
%ADD28R,0.550000X1.600000*%
%ADD29R,1.780000X2.000000*%
%ADD30R,2.000000X3.800000*%
%ADD31R,2.000000X1.500000*%
%ADD32R,1.700000X1.700000*%
%ADD33O,1.700000X1.700000*%
%ADD34R,1.600000X3.500000*%
%ADD35R,1.200000X0.900000*%
%ADD36R,0.900000X1.200000*%
%ADD37R,1.350000X0.400000*%
%ADD38O,0.950000X1.250000*%
%ADD39O,1.550000X1.000000*%
%ADD40C,4.000000*%
%ADD41C,6.400000*%
%ADD42C,1.000000*%
%ADD43R,1.900000X0.400000*%
%ADD44C,0.600000*%
%ADD45C,0.500000*%
%ADD46C,1.000000*%
%ADD47C,2.000000*%
%ADD48C,0.254000*%
G04 APERTURE END LIST*
D10*
D11*
X193720000Y-114000000D03*
D12*
X205920000Y-114000000D03*
X205970000Y-101950000D03*
D11*
X193720000Y-102000000D03*
D12*
X191770000Y-107950000D03*
D13*
X115570000Y-96520000D03*
D14*
X118110000Y-96520000D03*
X120650000Y-96520000D03*
X123190000Y-96520000D03*
X125730000Y-96520000D03*
X128270000Y-96520000D03*
X123190000Y-81280000D03*
X125730000Y-81280000D03*
X115570000Y-81280000D03*
X118110000Y-81280000D03*
X128270000Y-81280000D03*
X120650000Y-81280000D03*
D15*
X127381000Y-109601000D03*
X129381000Y-109601000D03*
D16*
X130810000Y-87900000D03*
X130810000Y-89900000D03*
D17*
X160020000Y-115570000D03*
D18*
X157480000Y-115570000D03*
X160020000Y-113030000D03*
X157480000Y-113030000D03*
X160020000Y-110490000D03*
X157480000Y-110490000D03*
D19*
X214630000Y-113030000D03*
D12*
X214630000Y-107950000D03*
X214630000Y-102870000D03*
D19*
X74930000Y-106680000D03*
D12*
X74930000Y-111760000D03*
D20*
X183150000Y-110810000D03*
X183150000Y-112710000D03*
X185150000Y-111760000D03*
D21*
X166370000Y-111440000D03*
X166370000Y-109540000D03*
X133350000Y-89850000D03*
X133350000Y-87950000D03*
D22*
X155575000Y-83820000D03*
X153675000Y-83820000D03*
X155570000Y-88900000D03*
X153670000Y-88900000D03*
X88580000Y-99060000D03*
X86680000Y-99060000D03*
D21*
X171450000Y-111440000D03*
X171450000Y-109540000D03*
D22*
X175580000Y-102870000D03*
X177480000Y-102870000D03*
X183200000Y-106680000D03*
X185100000Y-106680000D03*
D23*
X83820000Y-96520000D03*
X83820000Y-83820000D03*
X86360000Y-83820000D03*
X88900000Y-83820000D03*
X91440000Y-83820000D03*
D14*
X91440000Y-88900000D03*
X91440000Y-93980000D03*
X83820000Y-93980000D03*
D24*
X83820000Y-88900000D03*
D23*
X91440000Y-81280000D03*
D25*
X145670000Y-95885000D03*
X145670000Y-94615000D03*
X145670000Y-93345000D03*
X145670000Y-92075000D03*
X145670000Y-90805000D03*
X145670000Y-89535000D03*
X145670000Y-88265000D03*
X145670000Y-86995000D03*
X145670000Y-85725000D03*
X145670000Y-84455000D03*
X145670000Y-83185000D03*
X145670000Y-81915000D03*
X136270000Y-81915000D03*
X136270000Y-83185000D03*
X136270000Y-84455000D03*
X136270000Y-85725000D03*
X136270000Y-86995000D03*
X136270000Y-88265000D03*
X136270000Y-89535000D03*
X136270000Y-90805000D03*
X136270000Y-92075000D03*
X136270000Y-93345000D03*
X136270000Y-94615000D03*
X136270000Y-95885000D03*
D26*
X171450000Y-105580000D03*
X171450000Y-107780000D03*
D27*
X135450000Y-110230000D03*
X135450000Y-111030000D03*
X135450000Y-111830000D03*
X135450000Y-112630000D03*
X135450000Y-113430000D03*
X135450000Y-114230000D03*
X135450000Y-115030000D03*
X135450000Y-115830000D03*
D28*
X136900000Y-117280000D03*
X137700000Y-117280000D03*
X138500000Y-117280000D03*
X139300000Y-117280000D03*
X140100000Y-117280000D03*
X140900000Y-117280000D03*
X141700000Y-117280000D03*
X142500000Y-117280000D03*
D27*
X143950000Y-115830000D03*
X143950000Y-115030000D03*
X143950000Y-114230000D03*
X143950000Y-113430000D03*
X143950000Y-112630000D03*
X143950000Y-111830000D03*
X143950000Y-111030000D03*
X143950000Y-110230000D03*
D28*
X142500000Y-108780000D03*
X141700000Y-108780000D03*
X140900000Y-108780000D03*
X140100000Y-108780000D03*
X139300000Y-108780000D03*
X138500000Y-108780000D03*
X137700000Y-108780000D03*
X136900000Y-108780000D03*
D26*
X115570000Y-112860000D03*
X115570000Y-110660000D03*
D21*
X115570000Y-107630000D03*
X115570000Y-105730000D03*
D29*
X177800000Y-105410000D03*
X175260000Y-113030000D03*
X175260000Y-105410000D03*
X177800000Y-113030000D03*
D30*
X98400000Y-109220000D03*
D31*
X92100000Y-109220000D03*
X92100000Y-111520000D03*
X92100000Y-106920000D03*
D32*
X147320000Y-120650000D03*
D33*
X149860000Y-120650000D03*
D21*
X142240000Y-121724500D03*
X142240000Y-119824500D03*
D22*
X190820000Y-99060000D03*
X192720000Y-99060000D03*
D23*
X187960000Y-96520000D03*
X187960000Y-83820000D03*
X190500000Y-83820000D03*
X193040000Y-83820000D03*
X195580000Y-83820000D03*
D14*
X195580000Y-88900000D03*
X195580000Y-93980000D03*
X187960000Y-93980000D03*
D24*
X187960000Y-88900000D03*
D23*
X195580000Y-81280000D03*
D32*
X114300000Y-120650000D03*
D33*
X111760000Y-120650000D03*
X109220000Y-120650000D03*
X106680000Y-120650000D03*
X104140000Y-120650000D03*
X101600000Y-120650000D03*
D34*
X85090000Y-111920000D03*
X85090000Y-106520000D03*
X105410000Y-111920000D03*
X105410000Y-106520000D03*
D35*
X166370000Y-105030000D03*
X166370000Y-108330000D03*
D36*
X185800000Y-101600000D03*
X182500000Y-101600000D03*
D37*
X75010000Y-91410000D03*
X75010000Y-92060000D03*
X75010000Y-92710000D03*
X75010000Y-93360000D03*
X75010000Y-94010000D03*
D38*
X75010000Y-90210000D03*
X75010000Y-95210000D03*
D39*
X72310000Y-89210000D03*
X72310000Y-96210000D03*
D22*
X153675000Y-93980000D03*
X155575000Y-93980000D03*
D40*
X172070000Y-88900000D03*
D14*
X163870000Y-95900000D03*
X163870000Y-81400000D03*
X166370000Y-81400000D03*
X168870000Y-81400000D03*
X168870000Y-95900000D03*
D40*
X160670000Y-88900000D03*
D32*
X207645000Y-81280000D03*
D33*
X207645000Y-83820000D03*
X207645000Y-86360000D03*
X207645000Y-88900000D03*
X207645000Y-91440000D03*
X207645000Y-93980000D03*
X207645000Y-96520000D03*
D41*
X74930000Y-81280000D03*
X74930000Y-120650000D03*
X214630000Y-120650000D03*
X214630000Y-81280000D03*
D42*
X83820000Y-120650000D03*
X214630000Y-91440000D03*
D16*
X111125000Y-110220000D03*
X111125000Y-108220000D03*
D43*
X130937000Y-116459000D03*
X130937000Y-117659000D03*
X130937000Y-115259000D03*
D44*
X125720512Y-92874603D03*
X126428500Y-93345000D03*
X127508000Y-90233500D03*
X144132601Y-88366215D03*
X143764000Y-83375500D03*
X128730345Y-85255010D03*
X143256000Y-87503000D03*
X142303500Y-88392000D03*
X132715000Y-84455000D03*
X158750000Y-84455000D03*
X158115000Y-80645000D03*
X151765000Y-92710000D03*
X137795000Y-115570000D03*
X132749307Y-111229307D03*
X139700000Y-111760000D03*
X139700000Y-120650000D03*
X203200000Y-83820000D03*
X105410000Y-101600000D03*
X187960000Y-100330000D03*
X187325000Y-104140000D03*
X169545000Y-104775000D03*
X180975000Y-104140000D03*
X119380000Y-94615000D03*
X130175000Y-94615000D03*
X133350000Y-95250000D03*
X132080000Y-97790000D03*
X143510000Y-92075000D03*
X124460000Y-86360000D03*
X130810000Y-86995000D03*
X113030000Y-116840000D03*
X106680000Y-116840000D03*
X106680000Y-116840000D03*
X165100000Y-101600000D03*
X161290000Y-107950000D03*
X133350000Y-107950000D03*
X151464721Y-112093339D03*
X138049000Y-106616500D03*
X150162280Y-116730008D03*
X152983114Y-118237000D03*
X144780000Y-118872000D03*
X150241000Y-114109500D03*
X120865002Y-99060000D03*
X147320000Y-103759000D03*
X147132776Y-107698827D03*
X140258012Y-115570000D03*
X146304000Y-113030000D03*
X156210000Y-91440000D03*
X199390000Y-85090000D03*
X139407999Y-115570000D03*
X147574000Y-113030000D03*
X78359000Y-92075000D03*
X129540000Y-90170000D03*
X96520000Y-110490000D03*
X95250000Y-110490000D03*
X93980000Y-110490000D03*
X93980000Y-107950000D03*
X95250000Y-107950000D03*
X96520000Y-107950000D03*
X93980000Y-109220000D03*
X95250000Y-109220000D03*
X96520000Y-109220000D03*
X166243000Y-103632000D03*
X127635000Y-119379996D03*
X130175000Y-121919998D03*
X135890000Y-109220000D03*
X173355000Y-111125000D03*
X191643000Y-96647000D03*
X197427307Y-95192307D03*
X154432000Y-121158000D03*
X154940000Y-104140000D03*
X137604500Y-110744000D03*
X138493500Y-110744000D03*
X127717314Y-104780927D03*
X119316500Y-113855500D03*
X139890500Y-106870500D03*
X117729000Y-114173000D03*
X137922000Y-119126000D03*
X148844000Y-113030000D03*
D45*
X136270000Y-92075000D02*
X126520115Y-92075000D01*
X126520115Y-92075000D02*
X125720512Y-92874603D01*
X119610001Y-98020001D02*
X118110000Y-96520000D01*
X128990001Y-98020001D02*
X119610001Y-98020001D01*
X132560004Y-94449998D02*
X128990001Y-98020001D01*
X134604998Y-94449998D02*
X132560004Y-94449998D01*
X134770000Y-94615000D02*
X134604998Y-94449998D01*
X136270000Y-94615000D02*
X134770000Y-94615000D01*
X136270000Y-93345000D02*
X126428500Y-93345000D01*
X136270000Y-90805000D02*
X131764998Y-90805000D01*
X131764998Y-90805000D02*
X131245009Y-91324989D01*
X131245009Y-91324989D02*
X126133121Y-91324989D01*
X126133121Y-91324989D02*
X123190000Y-94268110D01*
X123190000Y-94268110D02*
X123190000Y-96520000D01*
X127508000Y-89112996D02*
X127508000Y-90233500D01*
X130425998Y-86194998D02*
X127508000Y-89112996D01*
X131194002Y-86194998D02*
X130425998Y-86194998D01*
X131994004Y-86995000D02*
X131194002Y-86194998D01*
X136270000Y-86995000D02*
X131994004Y-86995000D01*
X144132601Y-88302399D02*
X144132601Y-88366215D01*
X145670000Y-88265000D02*
X144170000Y-88265000D01*
X144170000Y-88265000D02*
X144132601Y-88302399D01*
X145670000Y-83185000D02*
X143954500Y-83185000D01*
X143954500Y-83185000D02*
X143764000Y-83375500D01*
X128730345Y-84280345D02*
X128730345Y-85255010D01*
X125730000Y-81280000D02*
X128730345Y-84280345D01*
X143256000Y-88621000D02*
X143256000Y-87503000D01*
X145670000Y-89535000D02*
X144170000Y-89535000D01*
X144170000Y-89535000D02*
X143256000Y-88621000D01*
X145670000Y-94615000D02*
X144170000Y-94615000D01*
X144170000Y-94615000D02*
X142303500Y-92748500D01*
X142303500Y-92748500D02*
X142303500Y-88392000D01*
X119610001Y-79779999D02*
X118110000Y-81280000D01*
X128990001Y-79779999D02*
X119610001Y-79779999D01*
X132395002Y-83185000D02*
X128990001Y-79779999D01*
X136270000Y-83185000D02*
X132395002Y-83185000D01*
X136270000Y-85725000D02*
X132715000Y-85725000D01*
X132715000Y-85725000D02*
X128270000Y-81280000D01*
X136270000Y-84455000D02*
X132715000Y-84455000D01*
X75010000Y-95210000D02*
X75010000Y-94060001D01*
X133049306Y-111529306D02*
X132749307Y-111229307D01*
X134150000Y-111830000D02*
X134141636Y-111821636D01*
X135450000Y-111830000D02*
X134150000Y-111830000D01*
X133341636Y-111821636D02*
X133049306Y-111529306D01*
X134141636Y-111821636D02*
X133341636Y-111821636D01*
X105410000Y-106520000D02*
X110425000Y-106520000D01*
X110425000Y-106520000D02*
X111125000Y-107220000D01*
X111125000Y-107220000D02*
X111125000Y-108220000D01*
X91700000Y-106520000D02*
X92100000Y-106920000D01*
X85090000Y-106520000D02*
X91700000Y-106520000D01*
X139700000Y-111760000D02*
X138030000Y-113430000D01*
X138030000Y-113430000D02*
X135450000Y-113430000D01*
X139700000Y-111760000D02*
X139630000Y-111830000D01*
X139630000Y-111830000D02*
X135450000Y-111830000D01*
X143950000Y-112630000D02*
X140570000Y-112630000D01*
X140570000Y-112630000D02*
X139700000Y-111760000D01*
X105410000Y-106520000D02*
X105410000Y-101600000D01*
X124460000Y-89535000D02*
X119380000Y-94615000D01*
X124460000Y-86360000D02*
X124460000Y-89535000D01*
X132080000Y-96520000D02*
X133350000Y-95250000D01*
X132080000Y-97790000D02*
X132080000Y-96520000D01*
X145670000Y-92075000D02*
X143510000Y-92075000D01*
X130810000Y-87900000D02*
X130810000Y-86995000D01*
X161290000Y-107950000D02*
X161290000Y-105410000D01*
X161290000Y-105410000D02*
X165100000Y-101600000D01*
D46*
X85090000Y-111920000D02*
X91700000Y-111920000D01*
X91700000Y-111920000D02*
X92100000Y-111520000D01*
X74930000Y-111760000D02*
X84930000Y-111760000D01*
X84930000Y-111760000D02*
X85090000Y-111920000D01*
D45*
X154454058Y-109104002D02*
X151464721Y-112093339D01*
X160020000Y-110490000D02*
X158634002Y-109104002D01*
X158634002Y-109104002D02*
X154454058Y-109104002D01*
X138049000Y-106616500D02*
X138473264Y-106616500D01*
X138473264Y-106616500D02*
X139300000Y-107443236D01*
X139300000Y-107443236D02*
X139300000Y-108780000D01*
X166370000Y-109540000D02*
X166370000Y-108330000D01*
X160020000Y-110490000D02*
X166270000Y-110490000D01*
X166270000Y-110490000D02*
X166370000Y-110390000D01*
X166370000Y-110390000D02*
X166370000Y-109540000D01*
X150546282Y-117530010D02*
X143525010Y-117530010D01*
X160020000Y-116933600D02*
X159673600Y-117280000D01*
X150796292Y-117280000D02*
X150546282Y-117530010D01*
X160020000Y-115570000D02*
X160020000Y-116933600D01*
X143525010Y-117530010D02*
X143275000Y-117280000D01*
X159673600Y-117280000D02*
X150796292Y-117280000D01*
X143275000Y-117280000D02*
X142500000Y-117280000D01*
X143950000Y-115830000D02*
X149262272Y-115830000D01*
X160020000Y-113030000D02*
X161383601Y-114393601D01*
X161383601Y-114393601D02*
X161383601Y-116833601D01*
X161383601Y-116833601D02*
X159980202Y-118237000D01*
X159980202Y-118237000D02*
X152983114Y-118237000D01*
X149262272Y-115830000D02*
X150162280Y-116730008D01*
X144780000Y-118872000D02*
X141992000Y-118872000D01*
X141992000Y-118872000D02*
X141700000Y-118580000D01*
X141700000Y-118580000D02*
X141700000Y-117280000D01*
X157480000Y-113030000D02*
X151320500Y-113030000D01*
X151320500Y-113030000D02*
X150241000Y-114109500D01*
X136270000Y-88265000D02*
X133665000Y-88265000D01*
X133665000Y-88265000D02*
X133350000Y-87950000D01*
X133734004Y-111030000D02*
X133133309Y-110429305D01*
X121165001Y-99359999D02*
X120865002Y-99060000D01*
X132234307Y-110429305D02*
X121165001Y-99359999D01*
X133133309Y-110429305D02*
X132234307Y-110429305D01*
X135450000Y-111030000D02*
X133734004Y-111030000D01*
X88580000Y-99060000D02*
X120865002Y-99060000D01*
X147320000Y-103759000D02*
X147320000Y-96835000D01*
X147320000Y-96835000D02*
X146370000Y-95885000D01*
X146370000Y-95885000D02*
X145670000Y-95885000D01*
X146837498Y-107994105D02*
X147132776Y-107698827D01*
X146837498Y-109442502D02*
X146837498Y-107994105D01*
X143950000Y-111030000D02*
X145250000Y-111030000D01*
X145250000Y-111030000D02*
X146837498Y-109442502D01*
X143950000Y-109455000D02*
X143950000Y-110230000D01*
X148359978Y-105045022D02*
X143950000Y-109455000D01*
X148359978Y-91238672D02*
X148359978Y-105045022D01*
X148717000Y-90881650D02*
X148359978Y-91238672D01*
X148717000Y-83462000D02*
X148717000Y-90881650D01*
X147170000Y-81915000D02*
X148717000Y-83462000D01*
X145670000Y-81915000D02*
X147170000Y-81915000D01*
X142500000Y-107276325D02*
X142500000Y-108780000D01*
X137985500Y-102761825D02*
X142500000Y-107276325D01*
X137770000Y-81915000D02*
X137985500Y-82130500D01*
X136270000Y-81915000D02*
X137770000Y-81915000D01*
X137985500Y-82130500D02*
X137985500Y-102761825D01*
X207705002Y-78740000D02*
X158455000Y-78740000D01*
X158455000Y-78740000D02*
X153675000Y-83520000D01*
X153675000Y-83520000D02*
X153675000Y-83820000D01*
X209550000Y-80584998D02*
X207705002Y-78740000D01*
X209550000Y-84455000D02*
X209550000Y-80584998D01*
X207645000Y-86360000D02*
X209550000Y-84455000D01*
X149109989Y-110224011D02*
X146304000Y-113030000D01*
X149109989Y-91549336D02*
X149109989Y-110224011D01*
X153675000Y-86984325D02*
X149109989Y-91549336D01*
X153675000Y-83820000D02*
X153675000Y-86984325D01*
X140258012Y-115821988D02*
X140258012Y-115570000D01*
X140100000Y-115980000D02*
X140258012Y-115821988D01*
X140100000Y-117280000D02*
X140100000Y-115980000D01*
X156210000Y-91440000D02*
X153670000Y-88900000D01*
X207645000Y-83820000D02*
X206382999Y-85082001D01*
X206382999Y-85082001D02*
X199397999Y-85082001D01*
X199397999Y-85082001D02*
X199390000Y-85090000D01*
X153670000Y-88900000D02*
X152820000Y-88900000D01*
X139407999Y-115570000D02*
X139300000Y-115677999D01*
X139300000Y-115677999D02*
X139300000Y-117280000D01*
X149860000Y-91860000D02*
X149860000Y-110744000D01*
X149860000Y-110744000D02*
X147574000Y-113030000D01*
X152820000Y-88900000D02*
X149860000Y-91860000D01*
X153670000Y-88900000D02*
X153670000Y-89200000D01*
X194969999Y-98781001D02*
X199771000Y-93980000D01*
X199771000Y-93980000D02*
X207645000Y-93980000D01*
X193720000Y-102000000D02*
X194969999Y-100750001D01*
X194969999Y-100750001D02*
X194969999Y-98781001D01*
X133741378Y-112629988D02*
X134149988Y-112629988D01*
X132915033Y-112571647D02*
X133683037Y-112571647D01*
X133683037Y-112571647D02*
X133741378Y-112629988D01*
X132626680Y-112860000D02*
X132915033Y-112571647D01*
X115570000Y-112860000D02*
X132626680Y-112860000D01*
X134149988Y-112629988D02*
X134150000Y-112630000D01*
X129381000Y-109726000D02*
X132226647Y-112571647D01*
X132226647Y-112571647D02*
X133683037Y-112571647D01*
X129381000Y-109601000D02*
X129381000Y-109726000D01*
X132499034Y-112844034D02*
X132050000Y-112395000D01*
X135450000Y-114230000D02*
X132973384Y-114230000D01*
X132973384Y-114230000D02*
X132499034Y-113755650D01*
X132499034Y-113755650D02*
X132499034Y-112844034D01*
X105410000Y-111920000D02*
X110425000Y-111920000D01*
X110425000Y-111920000D02*
X111125000Y-111220000D01*
X111125000Y-111220000D02*
X111125000Y-110220000D01*
X78359000Y-95713325D02*
X78359000Y-92499264D01*
X88315674Y-105669999D02*
X78359000Y-95713325D01*
X93600001Y-105769999D02*
X93500001Y-105669999D01*
X93600001Y-107969999D02*
X93600001Y-105769999D01*
X93500001Y-105669999D02*
X88315674Y-105669999D01*
X92350000Y-109220000D02*
X93600001Y-107969999D01*
X78359000Y-92499264D02*
X78359000Y-92075000D01*
X92100000Y-109220000D02*
X92350000Y-109220000D01*
X166370000Y-111440000D02*
X167520000Y-111440000D01*
X167520000Y-111440000D02*
X171450000Y-111440000D01*
X135450000Y-114230000D02*
X141974998Y-114230000D01*
X130810000Y-89900000D02*
X129810000Y-89900000D01*
X129810000Y-89900000D02*
X129540000Y-90170000D01*
X133350000Y-89850000D02*
X130860000Y-89850000D01*
X130860000Y-89850000D02*
X130810000Y-89900000D01*
X136270000Y-89535000D02*
X133665000Y-89535000D01*
X133665000Y-89535000D02*
X133350000Y-89850000D01*
X96520000Y-110490000D02*
X96520000Y-109220000D01*
X93980000Y-110490000D02*
X95250000Y-110490000D01*
X95250000Y-107950000D02*
X93980000Y-107950000D01*
X96520000Y-109220000D02*
X96520000Y-107950000D01*
X95250000Y-109220000D02*
X96520000Y-109220000D01*
X95250000Y-109220000D02*
X93980000Y-109220000D01*
X92100000Y-109220000D02*
X93980000Y-109220000D01*
X96520000Y-109220000D02*
X98400000Y-109220000D01*
X193720000Y-102000000D02*
X186200000Y-102000000D01*
X186200000Y-102000000D02*
X185800000Y-101600000D01*
X171450000Y-111440000D02*
X171450000Y-112290000D01*
X171450000Y-112290000D02*
X174095000Y-114935000D01*
X174095000Y-114935000D02*
X177165000Y-114934998D01*
X177165000Y-114934998D02*
X177800000Y-114299998D01*
X177800000Y-114299998D02*
X177800000Y-113030000D01*
X166243000Y-103632000D02*
X167470001Y-104859001D01*
X167470001Y-104859001D02*
X167470001Y-107760001D01*
X167470001Y-107760001D02*
X171150000Y-111440000D01*
X171150000Y-111440000D02*
X171450000Y-111440000D01*
X175580000Y-102870000D02*
X175580000Y-102570000D01*
X175580000Y-102570000D02*
X177650001Y-100499999D01*
X177650001Y-100499999D02*
X183749999Y-100499999D01*
X183749999Y-100499999D02*
X184850000Y-101600000D01*
X184850000Y-101600000D02*
X185800000Y-101600000D01*
X166243000Y-103632000D02*
X174818000Y-103632000D01*
X174818000Y-103632000D02*
X175580000Y-102870000D01*
X166243000Y-103632000D02*
X166243000Y-104903000D01*
X166243000Y-104903000D02*
X166370000Y-105030000D01*
X143950000Y-115030000D02*
X156940000Y-115030000D01*
X156940000Y-115030000D02*
X157480000Y-115570000D01*
X134150000Y-112630000D02*
X135450000Y-112630000D01*
X104140000Y-120650000D02*
X104140000Y-113190000D01*
X104140000Y-113190000D02*
X105410000Y-111920000D01*
X141974998Y-114230000D02*
X141974998Y-114105002D01*
X141974998Y-114105002D02*
X142650000Y-113430000D01*
X142650000Y-113430000D02*
X143950000Y-113430000D01*
X141974998Y-114230000D02*
X142774998Y-115030000D01*
X142774998Y-115030000D02*
X143950000Y-115030000D01*
X76135002Y-91410000D02*
X76085001Y-91359999D01*
X76085001Y-91359999D02*
X75010000Y-91359999D01*
X78359000Y-92075000D02*
X77694000Y-91410000D01*
X77694000Y-91410000D02*
X76135002Y-91410000D01*
X105410000Y-111920000D02*
X100200000Y-111920000D01*
X100200000Y-111920000D02*
X98400000Y-110120000D01*
X98400000Y-110120000D02*
X98400000Y-109220000D01*
X115570000Y-112860000D02*
X106350000Y-112860000D01*
X106350000Y-112860000D02*
X105410000Y-111920000D01*
X127934999Y-119679995D02*
X127635000Y-119379996D01*
X129875001Y-121619997D02*
X127934999Y-119679995D01*
X130175000Y-121919998D02*
X129875001Y-121619997D01*
X135890000Y-109220000D02*
X135890000Y-109790000D01*
X135890000Y-109790000D02*
X135450000Y-110230000D01*
X171450000Y-109540000D02*
X171770000Y-109540000D01*
X171770000Y-109540000D02*
X173355000Y-111125000D01*
X171450000Y-107780000D02*
X171450000Y-109540000D01*
X185100000Y-106680000D02*
X185100000Y-108860000D01*
X185100000Y-108860000D02*
X183150000Y-110810000D01*
X156425000Y-83820000D02*
X155575000Y-83820000D01*
X160345001Y-79899999D02*
X156425000Y-83820000D01*
X168870000Y-81400000D02*
X167369999Y-79899999D01*
X167369999Y-79899999D02*
X160345001Y-79899999D01*
X83820000Y-93980000D02*
X86680000Y-96840000D01*
X86680000Y-96840000D02*
X86680000Y-99060000D01*
X185150000Y-111760000D02*
X187690000Y-114300000D01*
X187690000Y-114300000D02*
X193420000Y-114300000D01*
X193420000Y-114300000D02*
X193720000Y-114000000D01*
X185150000Y-111760000D02*
X185150000Y-110860000D01*
X185150000Y-110860000D02*
X185950001Y-110059999D01*
X185950001Y-110059999D02*
X185950001Y-105200001D01*
X185950001Y-105200001D02*
X182500000Y-101750000D01*
X182500000Y-101750000D02*
X182500000Y-101600000D01*
X142240000Y-121724500D02*
X146245500Y-121724500D01*
X146245500Y-121724500D02*
X147320000Y-120650000D01*
X175260000Y-105410000D02*
X171620000Y-105410000D01*
X171620000Y-105410000D02*
X171450000Y-105580000D01*
X115570000Y-107630000D02*
X115570000Y-110660000D01*
X191343001Y-96946999D02*
X191643000Y-96647000D01*
X190820000Y-99060000D02*
X190820000Y-97470000D01*
X190820000Y-97470000D02*
X191343001Y-96946999D01*
X197727306Y-94892308D02*
X197427307Y-95192307D01*
X207645000Y-88900000D02*
X203719614Y-88900000D01*
X203719614Y-88900000D02*
X197727306Y-94892308D01*
X190820000Y-99060000D02*
X190820000Y-99360000D01*
X139338501Y-122574501D02*
X136900000Y-120136000D01*
X136900000Y-120136000D02*
X136900000Y-117280000D01*
X154432000Y-121158000D02*
X153015499Y-122574501D01*
X153015499Y-122574501D02*
X139338501Y-122574501D01*
X190820000Y-99060000D02*
X160020000Y-99060000D01*
X160020000Y-99060000D02*
X154940000Y-104140000D01*
X137604500Y-110744000D02*
X137604500Y-110319736D01*
X137604500Y-110319736D02*
X137700000Y-110224236D01*
X137700000Y-110224236D02*
X137700000Y-108780000D01*
X138493500Y-110744000D02*
X138493500Y-108786500D01*
X138493500Y-108786500D02*
X138500000Y-108780000D01*
X140900000Y-106737000D02*
X138943927Y-104780927D01*
X138943927Y-104780927D02*
X127717314Y-104780927D01*
X140900000Y-108780000D02*
X140900000Y-106737000D01*
X109220000Y-120650000D02*
X110570001Y-119299999D01*
X110570001Y-119299999D02*
X113872001Y-119299999D01*
X113872001Y-119299999D02*
X119316500Y-113855500D01*
X113030000Y-118110000D02*
X109220000Y-118110000D01*
X109220000Y-118110000D02*
X106680000Y-120650000D01*
X116967000Y-114173000D02*
X113030000Y-118110000D01*
X117729000Y-114173000D02*
X116967000Y-114173000D01*
X139890500Y-106870500D02*
X140100000Y-107080000D01*
X140100000Y-107080000D02*
X140100000Y-108780000D01*
D47*
X214630000Y-113030000D02*
X206890000Y-113030000D01*
X206890000Y-113030000D02*
X205920000Y-114000000D01*
X191770000Y-107950000D02*
X214630000Y-107950000D01*
X214630000Y-102870000D02*
X206890000Y-102870000D01*
X206890000Y-102870000D02*
X205970000Y-101950000D01*
D45*
X142240000Y-119824500D02*
X141090000Y-119824500D01*
X141090000Y-119824500D02*
X140900000Y-119634500D01*
X140900000Y-119634500D02*
X140900000Y-118580000D01*
X140900000Y-118580000D02*
X140900000Y-117280000D01*
X168870000Y-95900000D02*
X166950000Y-93980000D01*
X166950000Y-93980000D02*
X155575000Y-93980000D01*
X207645000Y-81280000D02*
X200979998Y-81280000D01*
X200979998Y-81280000D02*
X189779999Y-92479999D01*
X189779999Y-92479999D02*
X154875001Y-92479999D01*
X154875001Y-92479999D02*
X153675000Y-93680000D01*
X153675000Y-93680000D02*
X153675000Y-93980000D01*
X137922000Y-119126000D02*
X137700000Y-118904000D01*
X137700000Y-118904000D02*
X137700000Y-117280000D01*
X153675000Y-93980000D02*
X153675000Y-108199000D01*
X153675000Y-108199000D02*
X148844000Y-113030000D01*
X192720000Y-99060000D02*
X192720000Y-96539998D01*
X190160002Y-93980000D02*
X189374213Y-93980000D01*
X192720000Y-96539998D02*
X190160002Y-93980000D01*
X189374213Y-93980000D02*
X187960000Y-93980000D01*
X163870000Y-81400000D02*
X156370000Y-88900000D01*
X156370000Y-88900000D02*
X155570000Y-88900000D01*
X177480000Y-102870000D02*
X177480000Y-105090000D01*
X177480000Y-105090000D02*
X177800000Y-105410000D01*
X175260000Y-113030000D02*
X175260000Y-112395000D01*
X175260000Y-112395000D02*
X180975000Y-106680000D01*
X180975000Y-106680000D02*
X183200000Y-106680000D01*
X130937000Y-115259000D02*
X131166000Y-115030000D01*
X131166000Y-115030000D02*
X135450000Y-115030000D01*
X130937000Y-117659000D02*
X134396000Y-117659000D01*
X134396000Y-117659000D02*
X135450000Y-116605000D01*
X135450000Y-116605000D02*
X135450000Y-115830000D01*
D48*
G36*
X104525000Y-104138554D02*
X104374683Y-104166838D01*
X104158559Y-104305910D01*
X104013569Y-104518110D01*
X103962560Y-104770000D01*
X103962560Y-108270000D01*
X104006838Y-108505317D01*
X104145910Y-108721441D01*
X104358110Y-108866431D01*
X104610000Y-108917440D01*
X106210000Y-108917440D01*
X106445317Y-108873162D01*
X106661441Y-108734090D01*
X106806431Y-108521890D01*
X106857440Y-108270000D01*
X106857440Y-107405000D01*
X109946690Y-107405000D01*
X109903569Y-107468110D01*
X109852560Y-107720000D01*
X109852560Y-108720000D01*
X109896838Y-108955317D01*
X110035910Y-109171441D01*
X110248110Y-109316431D01*
X110500000Y-109367440D01*
X111750000Y-109367440D01*
X111985317Y-109323162D01*
X112201441Y-109184090D01*
X112346431Y-108971890D01*
X112397440Y-108720000D01*
X112397440Y-107720000D01*
X112353162Y-107484683D01*
X112214090Y-107268559D01*
X112001890Y-107123569D01*
X111990354Y-107121233D01*
X111942633Y-106881325D01*
X111750790Y-106594210D01*
X111750787Y-106594208D01*
X111050790Y-105894210D01*
X110918890Y-105806078D01*
X110763675Y-105702367D01*
X110707484Y-105691190D01*
X110425000Y-105634999D01*
X110424995Y-105635000D01*
X106857440Y-105635000D01*
X106857440Y-104770000D01*
X106813162Y-104534683D01*
X106674090Y-104318559D01*
X106461890Y-104173569D01*
X106295000Y-104139773D01*
X106295000Y-102997000D01*
X112903000Y-102997000D01*
X112903000Y-115443000D01*
X90297000Y-115443000D01*
X90297000Y-113055000D01*
X91700000Y-113055000D01*
X92134346Y-112968603D01*
X92210917Y-112917440D01*
X93100000Y-112917440D01*
X93335317Y-112873162D01*
X93551441Y-112734090D01*
X93696431Y-112521890D01*
X93747440Y-112270000D01*
X93747440Y-110770000D01*
X93703162Y-110534683D01*
X93564090Y-110318559D01*
X93351890Y-110173569D01*
X93100000Y-110122560D01*
X91100000Y-110122560D01*
X90864683Y-110166838D01*
X90648559Y-110305910D01*
X90503569Y-110518110D01*
X90452560Y-110770000D01*
X90452560Y-110785000D01*
X90297000Y-110785000D01*
X90297000Y-107405000D01*
X90452560Y-107405000D01*
X90452560Y-107670000D01*
X90496838Y-107905317D01*
X90635910Y-108121441D01*
X90848110Y-108266431D01*
X91100000Y-108317440D01*
X93100000Y-108317440D01*
X93335317Y-108273162D01*
X93551441Y-108134090D01*
X93696431Y-107921890D01*
X93747440Y-107670000D01*
X93747440Y-106170000D01*
X93703162Y-105934683D01*
X93564090Y-105718559D01*
X93351890Y-105573569D01*
X93100000Y-105522560D01*
X91100000Y-105522560D01*
X90864683Y-105566838D01*
X90758756Y-105635000D01*
X90297000Y-105635000D01*
X90297000Y-102997000D01*
X104525000Y-102997000D01*
X104525000Y-104138554D01*
X104525000Y-104138554D01*
G37*
X104525000Y-104138554D02*
X104374683Y-104166838D01*
X104158559Y-104305910D01*
X104013569Y-104518110D01*
X103962560Y-104770000D01*
X103962560Y-108270000D01*
X104006838Y-108505317D01*
X104145910Y-108721441D01*
X104358110Y-108866431D01*
X104610000Y-108917440D01*
X106210000Y-108917440D01*
X106445317Y-108873162D01*
X106661441Y-108734090D01*
X106806431Y-108521890D01*
X106857440Y-108270000D01*
X106857440Y-107405000D01*
X109946690Y-107405000D01*
X109903569Y-107468110D01*
X109852560Y-107720000D01*
X109852560Y-108720000D01*
X109896838Y-108955317D01*
X110035910Y-109171441D01*
X110248110Y-109316431D01*
X110500000Y-109367440D01*
X111750000Y-109367440D01*
X111985317Y-109323162D01*
X112201441Y-109184090D01*
X112346431Y-108971890D01*
X112397440Y-108720000D01*
X112397440Y-107720000D01*
X112353162Y-107484683D01*
X112214090Y-107268559D01*
X112001890Y-107123569D01*
X111990354Y-107121233D01*
X111942633Y-106881325D01*
X111750790Y-106594210D01*
X111750787Y-106594208D01*
X111050790Y-105894210D01*
X110918890Y-105806078D01*
X110763675Y-105702367D01*
X110707484Y-105691190D01*
X110425000Y-105634999D01*
X110424995Y-105635000D01*
X106857440Y-105635000D01*
X106857440Y-104770000D01*
X106813162Y-104534683D01*
X106674090Y-104318559D01*
X106461890Y-104173569D01*
X106295000Y-104139773D01*
X106295000Y-102997000D01*
X112903000Y-102997000D01*
X112903000Y-115443000D01*
X90297000Y-115443000D01*
X90297000Y-113055000D01*
X91700000Y-113055000D01*
X92134346Y-112968603D01*
X92210917Y-112917440D01*
X93100000Y-112917440D01*
X93335317Y-112873162D01*
X93551441Y-112734090D01*
X93696431Y-112521890D01*
X93747440Y-112270000D01*
X93747440Y-110770000D01*
X93703162Y-110534683D01*
X93564090Y-110318559D01*
X93351890Y-110173569D01*
X93100000Y-110122560D01*
X91100000Y-110122560D01*
X90864683Y-110166838D01*
X90648559Y-110305910D01*
X90503569Y-110518110D01*
X90452560Y-110770000D01*
X90452560Y-110785000D01*
X90297000Y-110785000D01*
X90297000Y-107405000D01*
X90452560Y-107405000D01*
X90452560Y-107670000D01*
X90496838Y-107905317D01*
X90635910Y-108121441D01*
X90848110Y-108266431D01*
X91100000Y-108317440D01*
X93100000Y-108317440D01*
X93335317Y-108273162D01*
X93551441Y-108134090D01*
X93696431Y-107921890D01*
X93747440Y-107670000D01*
X93747440Y-106170000D01*
X93703162Y-105934683D01*
X93564090Y-105718559D01*
X93351890Y-105573569D01*
X93100000Y-105522560D01*
X91100000Y-105522560D01*
X90864683Y-105566838D01*
X90758756Y-105635000D01*
X90297000Y-105635000D01*
X90297000Y-102997000D01*
X104525000Y-102997000D01*
X104525000Y-104138554D01*
G36*
X216287249Y-77279047D02*
X217692197Y-78217804D01*
X218630953Y-79622751D01*
X218975000Y-81352391D01*
X218975000Y-97663000D01*
X208573914Y-97663000D01*
X208916645Y-97286924D01*
X209086476Y-96876890D01*
X208965155Y-96647000D01*
X207772000Y-96647000D01*
X207772000Y-96667000D01*
X207518000Y-96667000D01*
X207518000Y-96647000D01*
X206324845Y-96647000D01*
X206203524Y-96876890D01*
X206373355Y-97286924D01*
X206716086Y-97663000D01*
X197339580Y-97663000D01*
X200137579Y-94865000D01*
X206455568Y-94865000D01*
X206565853Y-95030054D01*
X206906553Y-95257702D01*
X206763642Y-95324817D01*
X206373355Y-95753076D01*
X206203524Y-96163110D01*
X206324845Y-96393000D01*
X207518000Y-96393000D01*
X207518000Y-96373000D01*
X207772000Y-96373000D01*
X207772000Y-96393000D01*
X208965155Y-96393000D01*
X209086476Y-96163110D01*
X208916645Y-95753076D01*
X208526358Y-95324817D01*
X208383447Y-95257702D01*
X208724147Y-95030054D01*
X209046054Y-94548285D01*
X209159093Y-93980000D01*
X209046054Y-93411715D01*
X208724147Y-92929946D01*
X208394974Y-92710000D01*
X208724147Y-92490054D01*
X209046054Y-92008285D01*
X209104061Y-91716661D01*
X213232758Y-91716661D01*
X213444990Y-92230303D01*
X213837630Y-92623629D01*
X214350900Y-92836757D01*
X214906661Y-92837242D01*
X215420303Y-92625010D01*
X215813629Y-92232370D01*
X216026757Y-91719100D01*
X216027242Y-91163339D01*
X215815010Y-90649697D01*
X215422370Y-90256371D01*
X214909100Y-90043243D01*
X214353339Y-90042758D01*
X213839697Y-90254990D01*
X213446371Y-90647630D01*
X213233243Y-91160900D01*
X213232758Y-91716661D01*
X209104061Y-91716661D01*
X209159093Y-91440000D01*
X209046054Y-90871715D01*
X208724147Y-90389946D01*
X208394974Y-90170000D01*
X208724147Y-89950054D01*
X209046054Y-89468285D01*
X209159093Y-88900000D01*
X209046054Y-88331715D01*
X208724147Y-87849946D01*
X208394974Y-87630000D01*
X208724147Y-87410054D01*
X209046054Y-86928285D01*
X209159093Y-86360000D01*
X209115539Y-86141040D01*
X210175787Y-85080792D01*
X210175790Y-85080790D01*
X210367633Y-84793675D01*
X210385209Y-84705317D01*
X210435001Y-84455000D01*
X210435000Y-84454995D01*
X210435000Y-82039482D01*
X210794336Y-82039482D01*
X211376950Y-83449515D01*
X212454811Y-84529259D01*
X213863825Y-85114333D01*
X215389482Y-85115664D01*
X216799515Y-84533050D01*
X217879259Y-83455189D01*
X218464333Y-82046175D01*
X218465664Y-80520518D01*
X217883050Y-79110485D01*
X216805189Y-78030741D01*
X215396175Y-77445667D01*
X213870518Y-77444336D01*
X212460485Y-78026950D01*
X211380741Y-79104811D01*
X210795667Y-80513825D01*
X210794336Y-82039482D01*
X210435000Y-82039482D01*
X210435000Y-80585003D01*
X210435001Y-80584998D01*
X210367633Y-80246323D01*
X210282340Y-80118673D01*
X210175790Y-79959208D01*
X210175787Y-79959206D01*
X208330792Y-78114210D01*
X208200197Y-78026950D01*
X208043677Y-77922367D01*
X207987486Y-77911190D01*
X207705002Y-77854999D01*
X207704997Y-77855000D01*
X158455005Y-77855000D01*
X158455000Y-77854999D01*
X158172516Y-77911190D01*
X158116325Y-77922367D01*
X157829210Y-78114210D01*
X157829208Y-78114213D01*
X153420860Y-82522560D01*
X153325000Y-82522560D01*
X153089683Y-82566838D01*
X152873559Y-82705910D01*
X152728569Y-82918110D01*
X152677560Y-83170000D01*
X152677560Y-84470000D01*
X152721838Y-84705317D01*
X152790000Y-84811244D01*
X152790000Y-86617746D01*
X149602000Y-89805745D01*
X149602000Y-83462000D01*
X149534633Y-83123325D01*
X149342790Y-82836210D01*
X149342787Y-82836208D01*
X147795790Y-81289210D01*
X147678421Y-81210787D01*
X147508675Y-81097367D01*
X147452484Y-81086190D01*
X147170000Y-81029999D01*
X147169995Y-81030000D01*
X146938620Y-81030000D01*
X146921890Y-81018569D01*
X146670000Y-80967560D01*
X144670000Y-80967560D01*
X144434683Y-81011838D01*
X144218559Y-81150910D01*
X144073569Y-81363110D01*
X144022560Y-81615000D01*
X144022560Y-82215000D01*
X144038554Y-82300000D01*
X143954505Y-82300000D01*
X143954500Y-82299999D01*
X143672016Y-82356190D01*
X143615825Y-82367367D01*
X143389590Y-82518531D01*
X143235057Y-82582383D01*
X142971808Y-82845173D01*
X142829162Y-83188701D01*
X142828838Y-83560667D01*
X142970883Y-83904443D01*
X143233673Y-84167692D01*
X143577201Y-84310338D01*
X143949167Y-84310662D01*
X144022560Y-84280337D01*
X144022560Y-84755000D01*
X144066838Y-84990317D01*
X144125178Y-85080980D01*
X144035000Y-85298690D01*
X144035000Y-85439250D01*
X144193750Y-85598000D01*
X145543000Y-85598000D01*
X145543000Y-85578000D01*
X145797000Y-85578000D01*
X145797000Y-85598000D01*
X147146250Y-85598000D01*
X147305000Y-85439250D01*
X147305000Y-85298690D01*
X147215194Y-85081878D01*
X147266431Y-85006890D01*
X147317440Y-84755000D01*
X147317440Y-84155000D01*
X147273162Y-83919683D01*
X147209322Y-83820472D01*
X147266431Y-83736890D01*
X147317440Y-83485000D01*
X147317440Y-83314020D01*
X147832000Y-83828579D01*
X147832000Y-90515070D01*
X147734188Y-90612882D01*
X147542345Y-90899997D01*
X147537661Y-90923546D01*
X147474977Y-91238672D01*
X147474978Y-91238677D01*
X147474978Y-95738399D01*
X147316481Y-95579901D01*
X147273162Y-95349683D01*
X147209322Y-95250472D01*
X147266431Y-95166890D01*
X147317440Y-94915000D01*
X147317440Y-94315000D01*
X147273162Y-94079683D01*
X147209322Y-93980472D01*
X147266431Y-93896890D01*
X147317440Y-93645000D01*
X147317440Y-93045000D01*
X147273162Y-92809683D01*
X147214822Y-92719020D01*
X147305000Y-92501310D01*
X147305000Y-92360750D01*
X147146250Y-92202000D01*
X145797000Y-92202000D01*
X145797000Y-92222000D01*
X145543000Y-92222000D01*
X145543000Y-92202000D01*
X144193750Y-92202000D01*
X144035000Y-92360750D01*
X144035000Y-92501310D01*
X144124806Y-92718122D01*
X144073569Y-92793110D01*
X144022560Y-93045000D01*
X144022560Y-93215981D01*
X143188500Y-92381920D01*
X143188500Y-89805079D01*
X143544208Y-90160787D01*
X143544210Y-90160790D01*
X143819901Y-90345000D01*
X143831325Y-90352633D01*
X144044815Y-90395100D01*
X144022560Y-90505000D01*
X144022560Y-91105000D01*
X144066838Y-91340317D01*
X144125178Y-91430980D01*
X144035000Y-91648690D01*
X144035000Y-91789250D01*
X144193750Y-91948000D01*
X145543000Y-91948000D01*
X145543000Y-91928000D01*
X145797000Y-91928000D01*
X145797000Y-91948000D01*
X147146250Y-91948000D01*
X147305000Y-91789250D01*
X147305000Y-91648690D01*
X147215194Y-91431878D01*
X147266431Y-91356890D01*
X147317440Y-91105000D01*
X147317440Y-90505000D01*
X147273162Y-90269683D01*
X147209322Y-90170472D01*
X147266431Y-90086890D01*
X147317440Y-89835000D01*
X147317440Y-89235000D01*
X147273162Y-88999683D01*
X147209322Y-88900472D01*
X147266431Y-88816890D01*
X147317440Y-88565000D01*
X147317440Y-87965000D01*
X147273162Y-87729683D01*
X147209322Y-87630472D01*
X147266431Y-87546890D01*
X147317440Y-87295000D01*
X147317440Y-86695000D01*
X147273162Y-86459683D01*
X147214822Y-86369020D01*
X147305000Y-86151310D01*
X147305000Y-86010750D01*
X147146250Y-85852000D01*
X145797000Y-85852000D01*
X145797000Y-85872000D01*
X145543000Y-85872000D01*
X145543000Y-85852000D01*
X144193750Y-85852000D01*
X144035000Y-86010750D01*
X144035000Y-86151310D01*
X144124806Y-86368122D01*
X144073569Y-86443110D01*
X144022560Y-86695000D01*
X144022560Y-86947454D01*
X143786327Y-86710808D01*
X143442799Y-86568162D01*
X143070833Y-86567838D01*
X142727057Y-86709883D01*
X142463808Y-86972673D01*
X142321162Y-87316201D01*
X142321039Y-87457015D01*
X142118333Y-87456838D01*
X141774557Y-87598883D01*
X141511308Y-87861673D01*
X141368662Y-88205201D01*
X141368338Y-88577167D01*
X141418500Y-88698569D01*
X141418500Y-92748495D01*
X141418499Y-92748500D01*
X141451286Y-92913327D01*
X141485867Y-93087175D01*
X141648117Y-93330000D01*
X141677710Y-93374290D01*
X143544208Y-95240787D01*
X143544210Y-95240790D01*
X143707181Y-95349683D01*
X143831326Y-95432634D01*
X144044815Y-95475100D01*
X144022560Y-95585000D01*
X144022560Y-96185000D01*
X144066838Y-96420317D01*
X144205910Y-96636441D01*
X144418110Y-96781431D01*
X144670000Y-96832440D01*
X146065860Y-96832440D01*
X146435000Y-97201579D01*
X146435000Y-103452178D01*
X146385162Y-103572201D01*
X146384838Y-103944167D01*
X146526883Y-104287943D01*
X146789673Y-104551192D01*
X147133201Y-104693838D01*
X147459299Y-104694122D01*
X143422440Y-108730980D01*
X143422440Y-107980000D01*
X143385000Y-107781024D01*
X143385000Y-107276330D01*
X143385001Y-107276325D01*
X143317633Y-106937650D01*
X143311259Y-106928110D01*
X143125790Y-106650535D01*
X143125787Y-106650533D01*
X138870500Y-102395245D01*
X138870500Y-82130505D01*
X138870501Y-82130500D01*
X138803133Y-81791826D01*
X138803133Y-81791825D01*
X138611290Y-81504710D01*
X138611287Y-81504708D01*
X138395790Y-81289210D01*
X138278421Y-81210787D01*
X138108675Y-81097367D01*
X138052484Y-81086190D01*
X137770000Y-81029999D01*
X137769995Y-81030000D01*
X137538620Y-81030000D01*
X137521890Y-81018569D01*
X137270000Y-80967560D01*
X135270000Y-80967560D01*
X135034683Y-81011838D01*
X134818559Y-81150910D01*
X134673569Y-81363110D01*
X134622560Y-81615000D01*
X134622560Y-82215000D01*
X134638554Y-82300000D01*
X132761581Y-82300000D01*
X129615791Y-79154209D01*
X129541861Y-79104811D01*
X129328676Y-78962366D01*
X129272485Y-78951189D01*
X128990001Y-78894998D01*
X128989996Y-78894999D01*
X119610006Y-78894999D01*
X119610001Y-78894998D01*
X119327517Y-78951189D01*
X119271326Y-78962366D01*
X118984211Y-79154209D01*
X118984209Y-79154212D01*
X118476563Y-79661858D01*
X118436648Y-79645284D01*
X117786205Y-79644716D01*
X117185057Y-79893106D01*
X116839801Y-80237759D01*
X116497363Y-79894722D01*
X115896648Y-79645284D01*
X115246205Y-79644716D01*
X114645057Y-79893106D01*
X114184722Y-80352637D01*
X113935284Y-80953352D01*
X113934716Y-81603795D01*
X114183106Y-82204943D01*
X114642637Y-82665278D01*
X115243352Y-82914716D01*
X115893795Y-82915284D01*
X116494943Y-82666894D01*
X116840199Y-82322241D01*
X117182637Y-82665278D01*
X117783352Y-82914716D01*
X118433795Y-82915284D01*
X119034943Y-82666894D01*
X119380199Y-82322241D01*
X119722637Y-82665278D01*
X120323352Y-82914716D01*
X120973795Y-82915284D01*
X121574943Y-82666894D01*
X121920199Y-82322241D01*
X122262637Y-82665278D01*
X122863352Y-82914716D01*
X123513795Y-82915284D01*
X124114943Y-82666894D01*
X124460199Y-82322241D01*
X124802637Y-82665278D01*
X125403352Y-82914716D01*
X126053795Y-82915284D01*
X126096188Y-82897768D01*
X127845345Y-84646924D01*
X127845345Y-84948188D01*
X127795507Y-85068211D01*
X127795183Y-85440177D01*
X127937228Y-85783953D01*
X128200018Y-86047202D01*
X128543546Y-86189848D01*
X128915512Y-86190172D01*
X129259288Y-86048127D01*
X129522537Y-85785337D01*
X129665183Y-85441809D01*
X129665507Y-85069843D01*
X129615345Y-84948441D01*
X129615345Y-84280350D01*
X129615346Y-84280345D01*
X129547979Y-83941671D01*
X129460527Y-83810790D01*
X129356135Y-83654555D01*
X129356132Y-83654553D01*
X128610118Y-82908539D01*
X128636188Y-82897768D01*
X131048419Y-85309998D01*
X130425998Y-85309998D01*
X130087323Y-85377365D01*
X129800208Y-85569208D01*
X129800206Y-85569211D01*
X126882210Y-88487206D01*
X126690367Y-88774321D01*
X126679190Y-88830512D01*
X126622999Y-89112996D01*
X126623000Y-89113001D01*
X126623000Y-89926678D01*
X126573162Y-90046701D01*
X126572838Y-90418667D01*
X126581648Y-90439989D01*
X126133126Y-90439989D01*
X126133121Y-90439988D01*
X125850637Y-90496179D01*
X125794446Y-90507356D01*
X125507331Y-90699199D01*
X125507329Y-90699202D01*
X122564210Y-93642320D01*
X122372367Y-93929435D01*
X122372367Y-93929436D01*
X122304999Y-94268110D01*
X122305000Y-94268115D01*
X122305000Y-95116602D01*
X122265057Y-95133106D01*
X121919801Y-95477759D01*
X121577363Y-95134722D01*
X120976648Y-94885284D01*
X120326205Y-94884716D01*
X119725057Y-95133106D01*
X119379801Y-95477759D01*
X119037363Y-95134722D01*
X118436648Y-94885284D01*
X117786205Y-94884716D01*
X117185057Y-95133106D01*
X117134437Y-95183638D01*
X117050090Y-95052559D01*
X116837890Y-94907569D01*
X116586000Y-94856560D01*
X114554000Y-94856560D01*
X114318683Y-94900838D01*
X114102559Y-95039910D01*
X113957569Y-95252110D01*
X113906560Y-95504000D01*
X113906560Y-97536000D01*
X113950838Y-97771317D01*
X114089910Y-97987441D01*
X114302110Y-98132431D01*
X114512322Y-98175000D01*
X89533222Y-98175000D01*
X89533162Y-98174683D01*
X89394090Y-97958559D01*
X89181890Y-97813569D01*
X88930000Y-97762560D01*
X88230000Y-97762560D01*
X87994683Y-97806838D01*
X87778559Y-97945910D01*
X87633569Y-98158110D01*
X87630919Y-98171197D01*
X87565000Y-98068756D01*
X87565000Y-96840005D01*
X87565001Y-96840000D01*
X87497633Y-96501326D01*
X87497633Y-96501325D01*
X87305790Y-96214210D01*
X87305787Y-96214208D01*
X85438142Y-94346562D01*
X85454716Y-94306648D01*
X85454718Y-94303795D01*
X89804716Y-94303795D01*
X90053106Y-94904943D01*
X90512637Y-95365278D01*
X91113352Y-95614716D01*
X91763795Y-95615284D01*
X92364943Y-95366894D01*
X92825278Y-94907363D01*
X93074716Y-94306648D01*
X93075284Y-93656205D01*
X92826894Y-93055057D01*
X92367363Y-92594722D01*
X91766648Y-92345284D01*
X91116205Y-92344716D01*
X90515057Y-92593106D01*
X90054722Y-93052637D01*
X89805284Y-93653352D01*
X89804716Y-94303795D01*
X85454718Y-94303795D01*
X85455284Y-93656205D01*
X85206894Y-93055057D01*
X84747363Y-92594722D01*
X84146648Y-92345284D01*
X83496205Y-92344716D01*
X82895057Y-92593106D01*
X82434722Y-93052637D01*
X82185284Y-93653352D01*
X82184716Y-94303795D01*
X82433106Y-94904943D01*
X82892637Y-95365278D01*
X82968006Y-95396574D01*
X82636371Y-95727630D01*
X82423243Y-96240900D01*
X82422758Y-96796661D01*
X82634990Y-97310303D01*
X83027630Y-97703629D01*
X83540900Y-97916757D01*
X84096661Y-97917242D01*
X84610303Y-97705010D01*
X85003629Y-97312370D01*
X85216757Y-96799100D01*
X85216906Y-96628485D01*
X85795000Y-97206579D01*
X85795000Y-98068203D01*
X85733569Y-98158110D01*
X85682560Y-98410000D01*
X85682560Y-99710000D01*
X85726838Y-99945317D01*
X85865910Y-100161441D01*
X86078110Y-100306431D01*
X86330000Y-100357440D01*
X87030000Y-100357440D01*
X87265317Y-100313162D01*
X87481441Y-100174090D01*
X87626431Y-99961890D01*
X87629081Y-99948803D01*
X87765910Y-100161441D01*
X87978110Y-100306431D01*
X88230000Y-100357440D01*
X88930000Y-100357440D01*
X89165317Y-100313162D01*
X89381441Y-100174090D01*
X89526431Y-99961890D01*
X89529851Y-99945000D01*
X120498423Y-99945000D01*
X120539209Y-99985786D01*
X120539211Y-99985789D01*
X128881983Y-108328560D01*
X128881000Y-108328560D01*
X128645683Y-108372838D01*
X128429559Y-108511910D01*
X128383031Y-108580006D01*
X128240698Y-108437673D01*
X128007309Y-108341000D01*
X127666750Y-108341000D01*
X127508000Y-108499750D01*
X127508000Y-109474000D01*
X127528000Y-109474000D01*
X127528000Y-109728000D01*
X127508000Y-109728000D01*
X127508000Y-110702250D01*
X127666750Y-110861000D01*
X128007309Y-110861000D01*
X128240698Y-110764327D01*
X128381936Y-110623090D01*
X128416910Y-110677441D01*
X128629110Y-110822431D01*
X128881000Y-110873440D01*
X129276860Y-110873440D01*
X130378421Y-111975000D01*
X116741192Y-111975000D01*
X116634090Y-111808559D01*
X116564289Y-111760866D01*
X116621441Y-111724090D01*
X116766431Y-111511890D01*
X116817440Y-111260000D01*
X116817440Y-110060000D01*
X116784841Y-109886750D01*
X126246000Y-109886750D01*
X126246000Y-110352310D01*
X126342673Y-110585699D01*
X126521302Y-110764327D01*
X126754691Y-110861000D01*
X127095250Y-110861000D01*
X127254000Y-110702250D01*
X127254000Y-109728000D01*
X126404750Y-109728000D01*
X126246000Y-109886750D01*
X116784841Y-109886750D01*
X116773162Y-109824683D01*
X116634090Y-109608559D01*
X116455000Y-109486192D01*
X116455000Y-108849690D01*
X126246000Y-108849690D01*
X126246000Y-109315250D01*
X126404750Y-109474000D01*
X127254000Y-109474000D01*
X127254000Y-108499750D01*
X127095250Y-108341000D01*
X126754691Y-108341000D01*
X126521302Y-108437673D01*
X126342673Y-108616301D01*
X126246000Y-108849690D01*
X116455000Y-108849690D01*
X116455000Y-108583222D01*
X116455317Y-108583162D01*
X116671441Y-108444090D01*
X116816431Y-108231890D01*
X116867440Y-107980000D01*
X116867440Y-107280000D01*
X116823162Y-107044683D01*
X116684090Y-106828559D01*
X116471890Y-106683569D01*
X116438510Y-106676809D01*
X116579699Y-106618327D01*
X116758327Y-106439698D01*
X116855000Y-106206309D01*
X116855000Y-106015750D01*
X116696250Y-105857000D01*
X115697000Y-105857000D01*
X115697000Y-105877000D01*
X115443000Y-105877000D01*
X115443000Y-105857000D01*
X114443750Y-105857000D01*
X114285000Y-106015750D01*
X114285000Y-106206309D01*
X114381673Y-106439698D01*
X114560301Y-106618327D01*
X114696287Y-106674654D01*
X114684683Y-106676838D01*
X114468559Y-106815910D01*
X114323569Y-107028110D01*
X114272560Y-107280000D01*
X114272560Y-107980000D01*
X114316838Y-108215317D01*
X114455910Y-108431441D01*
X114668110Y-108576431D01*
X114685000Y-108579851D01*
X114685000Y-109488808D01*
X114518559Y-109595910D01*
X114373569Y-109808110D01*
X114322560Y-110060000D01*
X114322560Y-111260000D01*
X114366838Y-111495317D01*
X114505910Y-111711441D01*
X114575711Y-111759134D01*
X114518559Y-111795910D01*
X114396192Y-111975000D01*
X113665000Y-111975000D01*
X113665000Y-105253691D01*
X114285000Y-105253691D01*
X114285000Y-105444250D01*
X114443750Y-105603000D01*
X115443000Y-105603000D01*
X115443000Y-104903750D01*
X115697000Y-104903750D01*
X115697000Y-105603000D01*
X116696250Y-105603000D01*
X116855000Y-105444250D01*
X116855000Y-105253691D01*
X116758327Y-105020302D01*
X116579699Y-104841673D01*
X116346310Y-104745000D01*
X115855750Y-104745000D01*
X115697000Y-104903750D01*
X115443000Y-104903750D01*
X115284250Y-104745000D01*
X114793690Y-104745000D01*
X114560301Y-104841673D01*
X114381673Y-105020302D01*
X114285000Y-105253691D01*
X113665000Y-105253691D01*
X113665000Y-102870000D01*
X113621573Y-102639205D01*
X113485173Y-102427233D01*
X113277051Y-102285029D01*
X113030000Y-102235000D01*
X90170000Y-102235000D01*
X89939205Y-102278427D01*
X89727233Y-102414827D01*
X89585029Y-102622949D01*
X89535000Y-102870000D01*
X89535000Y-104784999D01*
X88682253Y-104784999D01*
X79244000Y-95346745D01*
X79244000Y-92381822D01*
X79293838Y-92261799D01*
X79294162Y-91889833D01*
X79152117Y-91546057D01*
X78889327Y-91282808D01*
X78768013Y-91232434D01*
X78319790Y-90784210D01*
X78306039Y-90775022D01*
X78032675Y-90592367D01*
X77976484Y-90581190D01*
X77694000Y-90524999D01*
X77693995Y-90525000D01*
X76336372Y-90525000D01*
X76085001Y-90474998D01*
X76084996Y-90474999D01*
X76080381Y-90474999D01*
X75962563Y-90337000D01*
X75137000Y-90337000D01*
X75137000Y-90357000D01*
X74883000Y-90357000D01*
X74883000Y-90337000D01*
X74057437Y-90337000D01*
X73908771Y-90511131D01*
X73970560Y-90689926D01*
X73883559Y-90745910D01*
X73738569Y-90958110D01*
X73687560Y-91210000D01*
X73687560Y-91610000D01*
X73711944Y-91739589D01*
X73687560Y-91860000D01*
X73687560Y-92260000D01*
X73711944Y-92389589D01*
X73687560Y-92510000D01*
X73687560Y-92910000D01*
X73711944Y-93039589D01*
X73687560Y-93160000D01*
X73687560Y-93560000D01*
X73707450Y-93665705D01*
X73700000Y-93683690D01*
X73700000Y-93751250D01*
X73729004Y-93780254D01*
X73731838Y-93795317D01*
X73870910Y-94011441D01*
X74015156Y-94110000D01*
X73858750Y-94110000D01*
X73700000Y-94268750D01*
X73700000Y-94336310D01*
X73796673Y-94569699D01*
X73967090Y-94740115D01*
X73908771Y-94908869D01*
X74057437Y-95083000D01*
X74883000Y-95083000D01*
X74883000Y-95063000D01*
X75137000Y-95063000D01*
X75137000Y-95083000D01*
X75962563Y-95083000D01*
X76111229Y-94908869D01*
X76052910Y-94740115D01*
X76223327Y-94569699D01*
X76320000Y-94336310D01*
X76320000Y-94268750D01*
X76161250Y-94110000D01*
X76002933Y-94110000D01*
X76136441Y-94024090D01*
X76281431Y-93811890D01*
X76287035Y-93784215D01*
X76320000Y-93751250D01*
X76320000Y-93683690D01*
X76311532Y-93663247D01*
X76332440Y-93560000D01*
X76332440Y-93160000D01*
X76308056Y-93030411D01*
X76332440Y-92910000D01*
X76332440Y-92510000D01*
X76308056Y-92380411D01*
X76325352Y-92295000D01*
X77327420Y-92295000D01*
X77474000Y-92441579D01*
X77474000Y-95713320D01*
X77473999Y-95713325D01*
X77515319Y-95921049D01*
X77541367Y-96052000D01*
X77666098Y-96238674D01*
X77733210Y-96339115D01*
X85529096Y-104135000D01*
X85375750Y-104135000D01*
X85217000Y-104293750D01*
X85217000Y-106393000D01*
X86366250Y-106393000D01*
X86525000Y-106234250D01*
X86525000Y-105130904D01*
X87689882Y-106295786D01*
X87689884Y-106295789D01*
X87976999Y-106487632D01*
X88315674Y-106554999D01*
X89535000Y-106554999D01*
X89535000Y-110785000D01*
X86537440Y-110785000D01*
X86537440Y-110170000D01*
X86493162Y-109934683D01*
X86354090Y-109718559D01*
X86141890Y-109573569D01*
X85890000Y-109522560D01*
X84290000Y-109522560D01*
X84054683Y-109566838D01*
X83838559Y-109705910D01*
X83693569Y-109918110D01*
X83642560Y-110170000D01*
X83642560Y-110625000D01*
X76771100Y-110625000D01*
X76741020Y-110552200D01*
X76140959Y-109951091D01*
X75356541Y-109625372D01*
X74507185Y-109624630D01*
X73722200Y-109948980D01*
X73121091Y-110549041D01*
X72795372Y-111333459D01*
X72794630Y-112182815D01*
X73118980Y-112967800D01*
X73719041Y-113568909D01*
X74503459Y-113894628D01*
X75352815Y-113895370D01*
X76137800Y-113571020D01*
X76738909Y-112970959D01*
X76770450Y-112895000D01*
X83642560Y-112895000D01*
X83642560Y-113670000D01*
X83686838Y-113905317D01*
X83825910Y-114121441D01*
X84038110Y-114266431D01*
X84290000Y-114317440D01*
X85890000Y-114317440D01*
X86125317Y-114273162D01*
X86341441Y-114134090D01*
X86486431Y-113921890D01*
X86537440Y-113670000D01*
X86537440Y-113055000D01*
X89535000Y-113055000D01*
X89535000Y-115570000D01*
X89578427Y-115800795D01*
X89714827Y-116012767D01*
X89922949Y-116154971D01*
X90170000Y-116205000D01*
X103255000Y-116205000D01*
X103255000Y-119460568D01*
X103089946Y-119570853D01*
X102862298Y-119911553D01*
X102795183Y-119768642D01*
X102366924Y-119378355D01*
X101956890Y-119208524D01*
X101727000Y-119329845D01*
X101727000Y-120523000D01*
X101747000Y-120523000D01*
X101747000Y-120777000D01*
X101727000Y-120777000D01*
X101727000Y-121970155D01*
X101956890Y-122091476D01*
X102366924Y-121921645D01*
X102795183Y-121531358D01*
X102862298Y-121388447D01*
X103089946Y-121729147D01*
X103571715Y-122051054D01*
X104140000Y-122164093D01*
X104708285Y-122051054D01*
X105190054Y-121729147D01*
X105410000Y-121399974D01*
X105629946Y-121729147D01*
X106111715Y-122051054D01*
X106680000Y-122164093D01*
X107248285Y-122051054D01*
X107730054Y-121729147D01*
X107950000Y-121399974D01*
X108169946Y-121729147D01*
X108651715Y-122051054D01*
X109220000Y-122164093D01*
X109788285Y-122051054D01*
X110270054Y-121729147D01*
X110490000Y-121399974D01*
X110709946Y-121729147D01*
X111191715Y-122051054D01*
X111760000Y-122164093D01*
X112328285Y-122051054D01*
X112810054Y-121729147D01*
X112837850Y-121687548D01*
X112846838Y-121735317D01*
X112985910Y-121951441D01*
X113198110Y-122096431D01*
X113450000Y-122147440D01*
X115150000Y-122147440D01*
X115385317Y-122103162D01*
X115601441Y-121964090D01*
X115746431Y-121751890D01*
X115797440Y-121500000D01*
X115797440Y-119800000D01*
X115753253Y-119565163D01*
X126699838Y-119565163D01*
X126841883Y-119908939D01*
X127104673Y-120172188D01*
X127225987Y-120222562D01*
X127309207Y-120305782D01*
X127309209Y-120305785D01*
X129249209Y-122245784D01*
X129332254Y-122328830D01*
X129381883Y-122448941D01*
X129644673Y-122712190D01*
X129988201Y-122854836D01*
X130360167Y-122855160D01*
X130703943Y-122713115D01*
X130967192Y-122450325D01*
X131109838Y-122106797D01*
X131110162Y-121734831D01*
X130968117Y-121391055D01*
X130705327Y-121127806D01*
X130584015Y-121077433D01*
X130500793Y-120994210D01*
X130500791Y-120994209D01*
X130500790Y-120994207D01*
X128560789Y-119054205D01*
X128560786Y-119054203D01*
X128477745Y-118971161D01*
X128428117Y-118851053D01*
X128165327Y-118587804D01*
X127821799Y-118445158D01*
X127449833Y-118444834D01*
X127106057Y-118586879D01*
X126842808Y-118849669D01*
X126700162Y-119193197D01*
X126699838Y-119565163D01*
X115753253Y-119565163D01*
X115753162Y-119564683D01*
X115614090Y-119348559D01*
X115401890Y-119203569D01*
X115250640Y-119172940D01*
X119725334Y-114698245D01*
X119845443Y-114648617D01*
X120108692Y-114385827D01*
X120251338Y-114042299D01*
X120251597Y-113745000D01*
X131614034Y-113745000D01*
X131614034Y-113755645D01*
X131614033Y-113755650D01*
X131659894Y-113986201D01*
X131681401Y-114094325D01*
X131715261Y-114145000D01*
X131166005Y-114145000D01*
X131166000Y-114144999D01*
X130883516Y-114201190D01*
X130827325Y-114212367D01*
X130540210Y-114404210D01*
X130540208Y-114404213D01*
X130532861Y-114411560D01*
X129987000Y-114411560D01*
X129751683Y-114455838D01*
X129535559Y-114594910D01*
X129390569Y-114807110D01*
X129339560Y-115059000D01*
X129339560Y-115459000D01*
X129383838Y-115694317D01*
X129489482Y-115858492D01*
X129448673Y-115899301D01*
X129352000Y-116132690D01*
X129352000Y-116200250D01*
X129510750Y-116359000D01*
X130810000Y-116359000D01*
X130810000Y-116312000D01*
X131064000Y-116312000D01*
X131064000Y-116359000D01*
X132363250Y-116359000D01*
X132522000Y-116200250D01*
X132522000Y-116132690D01*
X132431830Y-115915000D01*
X134002560Y-115915000D01*
X134002560Y-116105000D01*
X134046838Y-116340317D01*
X134185910Y-116556441D01*
X134222190Y-116581230D01*
X134029420Y-116774000D01*
X132522000Y-116774000D01*
X132522000Y-116717750D01*
X132363250Y-116559000D01*
X131064000Y-116559000D01*
X131064000Y-116606000D01*
X130810000Y-116606000D01*
X130810000Y-116559000D01*
X129510750Y-116559000D01*
X129352000Y-116717750D01*
X129352000Y-116785310D01*
X129448673Y-117018699D01*
X129490634Y-117060660D01*
X129390569Y-117207110D01*
X129339560Y-117459000D01*
X129339560Y-117859000D01*
X129383838Y-118094317D01*
X129522910Y-118310441D01*
X129735110Y-118455431D01*
X129987000Y-118506440D01*
X130748174Y-118506440D01*
X130937000Y-118544000D01*
X134395995Y-118544000D01*
X134396000Y-118544001D01*
X134705853Y-118482366D01*
X134734675Y-118476633D01*
X135021790Y-118284790D01*
X135977560Y-117329019D01*
X135977560Y-118080000D01*
X136015000Y-118278976D01*
X136015000Y-120135995D01*
X136014999Y-120136000D01*
X136050572Y-120314834D01*
X136082367Y-120474675D01*
X136185521Y-120629057D01*
X136274210Y-120761790D01*
X138712709Y-123200288D01*
X138712711Y-123200291D01*
X138999826Y-123392134D01*
X139338501Y-123459502D01*
X139338506Y-123459501D01*
X153015494Y-123459501D01*
X153015499Y-123459502D01*
X153297983Y-123403311D01*
X153354174Y-123392134D01*
X153641289Y-123200291D01*
X153641290Y-123200290D01*
X154840834Y-122000745D01*
X154960943Y-121951117D01*
X155224192Y-121688327D01*
X155366838Y-121344799D01*
X155367162Y-120972833D01*
X155225117Y-120629057D01*
X154962327Y-120365808D01*
X154618799Y-120223162D01*
X154246833Y-120222838D01*
X153903057Y-120364883D01*
X153639808Y-120627673D01*
X153589434Y-120748987D01*
X152648919Y-121689501D01*
X150881654Y-121689501D01*
X151055183Y-121531358D01*
X151301486Y-121006892D01*
X151180819Y-120777000D01*
X149987000Y-120777000D01*
X149987000Y-120797000D01*
X149733000Y-120797000D01*
X149733000Y-120777000D01*
X149713000Y-120777000D01*
X149713000Y-120523000D01*
X149733000Y-120523000D01*
X149733000Y-119329845D01*
X149987000Y-119329845D01*
X149987000Y-120523000D01*
X151180819Y-120523000D01*
X151301486Y-120293108D01*
X151055183Y-119768642D01*
X150626924Y-119378355D01*
X150216890Y-119208524D01*
X149987000Y-119329845D01*
X149733000Y-119329845D01*
X149503110Y-119208524D01*
X149093076Y-119378355D01*
X148790063Y-119654501D01*
X148773162Y-119564683D01*
X148634090Y-119348559D01*
X148421890Y-119203569D01*
X148170000Y-119152560D01*
X146470000Y-119152560D01*
X146234683Y-119196838D01*
X146018559Y-119335910D01*
X145873569Y-119548110D01*
X145822560Y-119800000D01*
X145822560Y-120839500D01*
X143231797Y-120839500D01*
X143141890Y-120778069D01*
X143128803Y-120775419D01*
X143341441Y-120638590D01*
X143486431Y-120426390D01*
X143537440Y-120174500D01*
X143537440Y-119757000D01*
X144473178Y-119757000D01*
X144593201Y-119806838D01*
X144965167Y-119807162D01*
X145308943Y-119665117D01*
X145572192Y-119402327D01*
X145714838Y-119058799D01*
X145715162Y-118686833D01*
X145602847Y-118415010D01*
X150546277Y-118415010D01*
X150546282Y-118415011D01*
X150828766Y-118358820D01*
X150884957Y-118347643D01*
X151158303Y-118165000D01*
X152048176Y-118165000D01*
X152047952Y-118422167D01*
X152189997Y-118765943D01*
X152452787Y-119029192D01*
X152796315Y-119171838D01*
X153168281Y-119172162D01*
X153289683Y-119122000D01*
X159980197Y-119122000D01*
X159980202Y-119122001D01*
X160297933Y-119058799D01*
X160318877Y-119054633D01*
X160605992Y-118862790D01*
X162009388Y-117459393D01*
X162009391Y-117459391D01*
X162201234Y-117172276D01*
X162228896Y-117033210D01*
X162268602Y-116833601D01*
X162268601Y-116833596D01*
X162268601Y-114393606D01*
X162268602Y-114393601D01*
X162212183Y-114109969D01*
X162201234Y-114054926D01*
X162009391Y-113767811D01*
X162009388Y-113767809D01*
X161482488Y-113240908D01*
X161518600Y-113059359D01*
X161518600Y-113000641D01*
X161404526Y-112427152D01*
X161079670Y-111940971D01*
X160808828Y-111760000D01*
X161079670Y-111579029D01*
X161215998Y-111375000D01*
X165072560Y-111375000D01*
X165072560Y-111790000D01*
X165116838Y-112025317D01*
X165255910Y-112241441D01*
X165468110Y-112386431D01*
X165720000Y-112437440D01*
X167020000Y-112437440D01*
X167255317Y-112393162D01*
X167361244Y-112325000D01*
X170458203Y-112325000D01*
X170548110Y-112386431D01*
X170585695Y-112394042D01*
X170611014Y-112521326D01*
X170632367Y-112628675D01*
X170776798Y-112844833D01*
X170824210Y-112915790D01*
X173469208Y-115560787D01*
X173469210Y-115560790D01*
X173669049Y-115694317D01*
X173756326Y-115752633D01*
X174095000Y-115820001D01*
X174095005Y-115820000D01*
X177164995Y-115819998D01*
X177165000Y-115819999D01*
X177420931Y-115769090D01*
X177503676Y-115752631D01*
X177790790Y-115560788D01*
X178425787Y-114925790D01*
X178425790Y-114925788D01*
X178582452Y-114691325D01*
X178591730Y-114677440D01*
X178690000Y-114677440D01*
X178925317Y-114633162D01*
X179141441Y-114494090D01*
X179286431Y-114281890D01*
X179337440Y-114030000D01*
X179337440Y-112995750D01*
X182065000Y-112995750D01*
X182065000Y-113236310D01*
X182161673Y-113469699D01*
X182340302Y-113648327D01*
X182573691Y-113745000D01*
X182864250Y-113745000D01*
X183023000Y-113586250D01*
X183023000Y-112837000D01*
X183277000Y-112837000D01*
X183277000Y-113586250D01*
X183435750Y-113745000D01*
X183726309Y-113745000D01*
X183959698Y-113648327D01*
X184138327Y-113469699D01*
X184235000Y-113236310D01*
X184235000Y-112995750D01*
X184076250Y-112837000D01*
X183277000Y-112837000D01*
X183023000Y-112837000D01*
X182223750Y-112837000D01*
X182065000Y-112995750D01*
X179337440Y-112995750D01*
X179337440Y-112030000D01*
X179293162Y-111794683D01*
X179154090Y-111578559D01*
X178941890Y-111433569D01*
X178690000Y-111382560D01*
X177524020Y-111382560D01*
X181341579Y-107565000D01*
X182246778Y-107565000D01*
X182246838Y-107565317D01*
X182385910Y-107781441D01*
X182598110Y-107926431D01*
X182850000Y-107977440D01*
X183550000Y-107977440D01*
X183785317Y-107933162D01*
X184001441Y-107794090D01*
X184146431Y-107581890D01*
X184149081Y-107568803D01*
X184215000Y-107671244D01*
X184215000Y-108493421D01*
X182945860Y-109762560D01*
X182700000Y-109762560D01*
X182464683Y-109806838D01*
X182248559Y-109945910D01*
X182103569Y-110158110D01*
X182052560Y-110410000D01*
X182052560Y-111210000D01*
X182096838Y-111445317D01*
X182235910Y-111661441D01*
X182375750Y-111756990D01*
X182340302Y-111771673D01*
X182161673Y-111950301D01*
X182065000Y-112183690D01*
X182065000Y-112424250D01*
X182223750Y-112583000D01*
X183023000Y-112583000D01*
X183023000Y-112563000D01*
X183277000Y-112563000D01*
X183277000Y-112583000D01*
X184076250Y-112583000D01*
X184162262Y-112496988D01*
X184235910Y-112611441D01*
X184448110Y-112756431D01*
X184700000Y-112807440D01*
X184945860Y-112807440D01*
X187064208Y-114925787D01*
X187064210Y-114925790D01*
X187263574Y-115059000D01*
X187351325Y-115117633D01*
X187690000Y-115185000D01*
X188468000Y-115185000D01*
X188468000Y-124995000D01*
X75002391Y-124995000D01*
X73272751Y-124650953D01*
X71867804Y-123712197D01*
X70929047Y-122307249D01*
X70750470Y-121409482D01*
X71094336Y-121409482D01*
X71676950Y-122819515D01*
X72754811Y-123899259D01*
X74163825Y-124484333D01*
X75689482Y-124485664D01*
X77099515Y-123903050D01*
X78179259Y-122825189D01*
X78764333Y-121416175D01*
X78764760Y-120926661D01*
X82422758Y-120926661D01*
X82634990Y-121440303D01*
X83027630Y-121833629D01*
X83540900Y-122046757D01*
X84096661Y-122047242D01*
X84610303Y-121835010D01*
X85003629Y-121442370D01*
X85184454Y-121006892D01*
X100158514Y-121006892D01*
X100404817Y-121531358D01*
X100833076Y-121921645D01*
X101243110Y-122091476D01*
X101473000Y-121970155D01*
X101473000Y-120777000D01*
X100279181Y-120777000D01*
X100158514Y-121006892D01*
X85184454Y-121006892D01*
X85216757Y-120929100D01*
X85217242Y-120373339D01*
X85184092Y-120293108D01*
X100158514Y-120293108D01*
X100279181Y-120523000D01*
X101473000Y-120523000D01*
X101473000Y-119329845D01*
X101243110Y-119208524D01*
X100833076Y-119378355D01*
X100404817Y-119768642D01*
X100158514Y-120293108D01*
X85184092Y-120293108D01*
X85005010Y-119859697D01*
X84612370Y-119466371D01*
X84099100Y-119253243D01*
X83543339Y-119252758D01*
X83029697Y-119464990D01*
X82636371Y-119857630D01*
X82423243Y-120370900D01*
X82422758Y-120926661D01*
X78764760Y-120926661D01*
X78765664Y-119890518D01*
X78183050Y-118480485D01*
X77105189Y-117400741D01*
X75696175Y-116815667D01*
X74170518Y-116814336D01*
X72760485Y-117396950D01*
X71680741Y-118474811D01*
X71095667Y-119883825D01*
X71094336Y-121409482D01*
X70750470Y-121409482D01*
X70585000Y-120577610D01*
X70585000Y-106965750D01*
X72795000Y-106965750D01*
X72795000Y-108306309D01*
X72891673Y-108539698D01*
X73070301Y-108718327D01*
X73303690Y-108815000D01*
X74644250Y-108815000D01*
X74803000Y-108656250D01*
X74803000Y-106807000D01*
X75057000Y-106807000D01*
X75057000Y-108656250D01*
X75215750Y-108815000D01*
X76556310Y-108815000D01*
X76789699Y-108718327D01*
X76968327Y-108539698D01*
X77065000Y-108306309D01*
X77065000Y-106965750D01*
X76906250Y-106807000D01*
X75057000Y-106807000D01*
X74803000Y-106807000D01*
X72953750Y-106807000D01*
X72795000Y-106965750D01*
X70585000Y-106965750D01*
X70585000Y-106805750D01*
X83655000Y-106805750D01*
X83655000Y-108396309D01*
X83751673Y-108629698D01*
X83930301Y-108808327D01*
X84163690Y-108905000D01*
X84804250Y-108905000D01*
X84963000Y-108746250D01*
X84963000Y-106647000D01*
X85217000Y-106647000D01*
X85217000Y-108746250D01*
X85375750Y-108905000D01*
X86016310Y-108905000D01*
X86249699Y-108808327D01*
X86428327Y-108629698D01*
X86525000Y-108396309D01*
X86525000Y-106805750D01*
X86366250Y-106647000D01*
X85217000Y-106647000D01*
X84963000Y-106647000D01*
X83813750Y-106647000D01*
X83655000Y-106805750D01*
X70585000Y-106805750D01*
X70585000Y-105053691D01*
X72795000Y-105053691D01*
X72795000Y-106394250D01*
X72953750Y-106553000D01*
X74803000Y-106553000D01*
X74803000Y-104703750D01*
X75057000Y-104703750D01*
X75057000Y-106553000D01*
X76906250Y-106553000D01*
X77065000Y-106394250D01*
X77065000Y-105053691D01*
X76968327Y-104820302D01*
X76791717Y-104643691D01*
X83655000Y-104643691D01*
X83655000Y-106234250D01*
X83813750Y-106393000D01*
X84963000Y-106393000D01*
X84963000Y-104293750D01*
X84804250Y-104135000D01*
X84163690Y-104135000D01*
X83930301Y-104231673D01*
X83751673Y-104410302D01*
X83655000Y-104643691D01*
X76791717Y-104643691D01*
X76789699Y-104641673D01*
X76556310Y-104545000D01*
X75215750Y-104545000D01*
X75057000Y-104703750D01*
X74803000Y-104703750D01*
X74644250Y-104545000D01*
X73303690Y-104545000D01*
X73070301Y-104641673D01*
X72891673Y-104820302D01*
X72795000Y-105053691D01*
X70585000Y-105053691D01*
X70585000Y-96511874D01*
X70940881Y-96511874D01*
X71142632Y-96922763D01*
X71483322Y-97210002D01*
X71908000Y-97345000D01*
X72183000Y-97345000D01*
X72183000Y-96337000D01*
X72437000Y-96337000D01*
X72437000Y-97345000D01*
X72712000Y-97345000D01*
X73136678Y-97210002D01*
X73477368Y-96922763D01*
X73679119Y-96511874D01*
X73552954Y-96337000D01*
X72437000Y-96337000D01*
X72183000Y-96337000D01*
X71067046Y-96337000D01*
X70940881Y-96511874D01*
X70585000Y-96511874D01*
X70585000Y-95908126D01*
X70940881Y-95908126D01*
X71067046Y-96083000D01*
X72183000Y-96083000D01*
X72183000Y-95075000D01*
X72437000Y-95075000D01*
X72437000Y-96083000D01*
X73552954Y-96083000D01*
X73679119Y-95908126D01*
X73484191Y-95511131D01*
X73908771Y-95511131D01*
X74050432Y-95921049D01*
X74338179Y-96245552D01*
X74712062Y-96429268D01*
X74883000Y-96302734D01*
X74883000Y-95337000D01*
X75137000Y-95337000D01*
X75137000Y-96302734D01*
X75307938Y-96429268D01*
X75681821Y-96245552D01*
X75969568Y-95921049D01*
X76111229Y-95511131D01*
X75962563Y-95337000D01*
X75137000Y-95337000D01*
X74883000Y-95337000D01*
X74057437Y-95337000D01*
X73908771Y-95511131D01*
X73484191Y-95511131D01*
X73477368Y-95497237D01*
X73136678Y-95209998D01*
X72712000Y-95075000D01*
X72437000Y-95075000D01*
X72183000Y-95075000D01*
X71908000Y-95075000D01*
X71483322Y-95209998D01*
X71142632Y-95497237D01*
X70940881Y-95908126D01*
X70585000Y-95908126D01*
X70585000Y-89511874D01*
X70940881Y-89511874D01*
X71142632Y-89922763D01*
X71483322Y-90210002D01*
X71908000Y-90345000D01*
X72183000Y-90345000D01*
X72183000Y-89337000D01*
X72437000Y-89337000D01*
X72437000Y-90345000D01*
X72712000Y-90345000D01*
X73136678Y-90210002D01*
X73477368Y-89922763D01*
X73484190Y-89908869D01*
X73908771Y-89908869D01*
X74057437Y-90083000D01*
X74883000Y-90083000D01*
X74883000Y-89117266D01*
X75137000Y-89117266D01*
X75137000Y-90083000D01*
X75962563Y-90083000D01*
X76111229Y-89908869D01*
X75969568Y-89498951D01*
X75691843Y-89185750D01*
X82185000Y-89185750D01*
X82185000Y-90026310D01*
X82281673Y-90259699D01*
X82460302Y-90438327D01*
X82693691Y-90535000D01*
X83534250Y-90535000D01*
X83693000Y-90376250D01*
X83693000Y-89027000D01*
X83947000Y-89027000D01*
X83947000Y-90376250D01*
X84105750Y-90535000D01*
X84946309Y-90535000D01*
X85179698Y-90438327D01*
X85358327Y-90259699D01*
X85444138Y-90052532D01*
X90467073Y-90052532D01*
X90565736Y-90319387D01*
X91175461Y-90545908D01*
X91825460Y-90521856D01*
X92314264Y-90319387D01*
X92412927Y-90052532D01*
X91440000Y-89079605D01*
X90467073Y-90052532D01*
X85444138Y-90052532D01*
X85455000Y-90026310D01*
X85455000Y-89185750D01*
X85296250Y-89027000D01*
X83947000Y-89027000D01*
X83693000Y-89027000D01*
X82343750Y-89027000D01*
X82185000Y-89185750D01*
X75691843Y-89185750D01*
X75681821Y-89174448D01*
X75307938Y-88990732D01*
X75137000Y-89117266D01*
X74883000Y-89117266D01*
X74712062Y-88990732D01*
X74338179Y-89174448D01*
X74050432Y-89498951D01*
X73908771Y-89908869D01*
X73484190Y-89908869D01*
X73679119Y-89511874D01*
X73552954Y-89337000D01*
X72437000Y-89337000D01*
X72183000Y-89337000D01*
X71067046Y-89337000D01*
X70940881Y-89511874D01*
X70585000Y-89511874D01*
X70585000Y-88908126D01*
X70940881Y-88908126D01*
X71067046Y-89083000D01*
X72183000Y-89083000D01*
X72183000Y-88075000D01*
X72437000Y-88075000D01*
X72437000Y-89083000D01*
X73552954Y-89083000D01*
X73679119Y-88908126D01*
X73477368Y-88497237D01*
X73136678Y-88209998D01*
X72712000Y-88075000D01*
X72437000Y-88075000D01*
X72183000Y-88075000D01*
X71908000Y-88075000D01*
X71483322Y-88209998D01*
X71142632Y-88497237D01*
X70940881Y-88908126D01*
X70585000Y-88908126D01*
X70585000Y-87773690D01*
X82185000Y-87773690D01*
X82185000Y-88614250D01*
X82343750Y-88773000D01*
X83693000Y-88773000D01*
X83693000Y-87423750D01*
X83947000Y-87423750D01*
X83947000Y-88773000D01*
X85296250Y-88773000D01*
X85433789Y-88635461D01*
X89794092Y-88635461D01*
X89818144Y-89285460D01*
X90020613Y-89774264D01*
X90287468Y-89872927D01*
X91260395Y-88900000D01*
X91619605Y-88900000D01*
X92592532Y-89872927D01*
X92859387Y-89774264D01*
X93085908Y-89164539D01*
X93061856Y-88514540D01*
X92859387Y-88025736D01*
X92592532Y-87927073D01*
X91619605Y-88900000D01*
X91260395Y-88900000D01*
X90287468Y-87927073D01*
X90020613Y-88025736D01*
X89794092Y-88635461D01*
X85433789Y-88635461D01*
X85455000Y-88614250D01*
X85455000Y-87773690D01*
X85444139Y-87747468D01*
X90467073Y-87747468D01*
X91440000Y-88720395D01*
X92412927Y-87747468D01*
X92314264Y-87480613D01*
X91704539Y-87254092D01*
X91054540Y-87278144D01*
X90565736Y-87480613D01*
X90467073Y-87747468D01*
X85444139Y-87747468D01*
X85358327Y-87540301D01*
X85179698Y-87361673D01*
X84946309Y-87265000D01*
X84105750Y-87265000D01*
X83947000Y-87423750D01*
X83693000Y-87423750D01*
X83534250Y-87265000D01*
X82693691Y-87265000D01*
X82460302Y-87361673D01*
X82281673Y-87540301D01*
X82185000Y-87773690D01*
X70585000Y-87773690D01*
X70585000Y-82039482D01*
X71094336Y-82039482D01*
X71676950Y-83449515D01*
X72754811Y-84529259D01*
X74163825Y-85114333D01*
X75689482Y-85115664D01*
X77099515Y-84533050D01*
X77536666Y-84096661D01*
X82422758Y-84096661D01*
X82634990Y-84610303D01*
X83027630Y-85003629D01*
X83540900Y-85216757D01*
X84096661Y-85217242D01*
X84610303Y-85005010D01*
X85003629Y-84612370D01*
X85089949Y-84404488D01*
X85174990Y-84610303D01*
X85567630Y-85003629D01*
X86080900Y-85216757D01*
X86636661Y-85217242D01*
X87150303Y-85005010D01*
X87543629Y-84612370D01*
X87629949Y-84404488D01*
X87714990Y-84610303D01*
X88107630Y-85003629D01*
X88620900Y-85216757D01*
X89176661Y-85217242D01*
X89690303Y-85005010D01*
X90083629Y-84612370D01*
X90169949Y-84404488D01*
X90254990Y-84610303D01*
X90647630Y-85003629D01*
X91160900Y-85216757D01*
X91716661Y-85217242D01*
X92230303Y-85005010D01*
X92623629Y-84612370D01*
X92836757Y-84099100D01*
X92837242Y-83543339D01*
X92625010Y-83029697D01*
X92232370Y-82636371D01*
X92024488Y-82550051D01*
X92230303Y-82465010D01*
X92623629Y-82072370D01*
X92836757Y-81559100D01*
X92837242Y-81003339D01*
X92625010Y-80489697D01*
X92232370Y-80096371D01*
X91719100Y-79883243D01*
X91163339Y-79882758D01*
X90649697Y-80094990D01*
X90256371Y-80487630D01*
X90043243Y-81000900D01*
X90042758Y-81556661D01*
X90254990Y-82070303D01*
X90647630Y-82463629D01*
X90855512Y-82549949D01*
X90649697Y-82634990D01*
X90256371Y-83027630D01*
X90170051Y-83235512D01*
X90085010Y-83029697D01*
X89692370Y-82636371D01*
X89179100Y-82423243D01*
X88623339Y-82422758D01*
X88109697Y-82634990D01*
X87716371Y-83027630D01*
X87630051Y-83235512D01*
X87545010Y-83029697D01*
X87152370Y-82636371D01*
X86639100Y-82423243D01*
X86083339Y-82422758D01*
X85569697Y-82634990D01*
X85176371Y-83027630D01*
X85090051Y-83235512D01*
X85005010Y-83029697D01*
X84612370Y-82636371D01*
X84099100Y-82423243D01*
X83543339Y-82422758D01*
X83029697Y-82634990D01*
X82636371Y-83027630D01*
X82423243Y-83540900D01*
X82422758Y-84096661D01*
X77536666Y-84096661D01*
X78179259Y-83455189D01*
X78764333Y-82046175D01*
X78765664Y-80520518D01*
X78183050Y-79110485D01*
X77105189Y-78030741D01*
X75696175Y-77445667D01*
X74170518Y-77444336D01*
X72760485Y-78026950D01*
X71680741Y-79104811D01*
X71095667Y-80513825D01*
X71094336Y-82039482D01*
X70585000Y-82039482D01*
X70585000Y-81352390D01*
X70929047Y-79622751D01*
X71867804Y-78217803D01*
X73272751Y-77279047D01*
X75002391Y-76935000D01*
X214557610Y-76935000D01*
X216287249Y-77279047D01*
X216287249Y-77279047D01*
G37*
X216287249Y-77279047D02*
X217692197Y-78217804D01*
X218630953Y-79622751D01*
X218975000Y-81352391D01*
X218975000Y-97663000D01*
X208573914Y-97663000D01*
X208916645Y-97286924D01*
X209086476Y-96876890D01*
X208965155Y-96647000D01*
X207772000Y-96647000D01*
X207772000Y-96667000D01*
X207518000Y-96667000D01*
X207518000Y-96647000D01*
X206324845Y-96647000D01*
X206203524Y-96876890D01*
X206373355Y-97286924D01*
X206716086Y-97663000D01*
X197339580Y-97663000D01*
X200137579Y-94865000D01*
X206455568Y-94865000D01*
X206565853Y-95030054D01*
X206906553Y-95257702D01*
X206763642Y-95324817D01*
X206373355Y-95753076D01*
X206203524Y-96163110D01*
X206324845Y-96393000D01*
X207518000Y-96393000D01*
X207518000Y-96373000D01*
X207772000Y-96373000D01*
X207772000Y-96393000D01*
X208965155Y-96393000D01*
X209086476Y-96163110D01*
X208916645Y-95753076D01*
X208526358Y-95324817D01*
X208383447Y-95257702D01*
X208724147Y-95030054D01*
X209046054Y-94548285D01*
X209159093Y-93980000D01*
X209046054Y-93411715D01*
X208724147Y-92929946D01*
X208394974Y-92710000D01*
X208724147Y-92490054D01*
X209046054Y-92008285D01*
X209104061Y-91716661D01*
X213232758Y-91716661D01*
X213444990Y-92230303D01*
X213837630Y-92623629D01*
X214350900Y-92836757D01*
X214906661Y-92837242D01*
X215420303Y-92625010D01*
X215813629Y-92232370D01*
X216026757Y-91719100D01*
X216027242Y-91163339D01*
X215815010Y-90649697D01*
X215422370Y-90256371D01*
X214909100Y-90043243D01*
X214353339Y-90042758D01*
X213839697Y-90254990D01*
X213446371Y-90647630D01*
X213233243Y-91160900D01*
X213232758Y-91716661D01*
X209104061Y-91716661D01*
X209159093Y-91440000D01*
X209046054Y-90871715D01*
X208724147Y-90389946D01*
X208394974Y-90170000D01*
X208724147Y-89950054D01*
X209046054Y-89468285D01*
X209159093Y-88900000D01*
X209046054Y-88331715D01*
X208724147Y-87849946D01*
X208394974Y-87630000D01*
X208724147Y-87410054D01*
X209046054Y-86928285D01*
X209159093Y-86360000D01*
X209115539Y-86141040D01*
X210175787Y-85080792D01*
X210175790Y-85080790D01*
X210367633Y-84793675D01*
X210385209Y-84705317D01*
X210435001Y-84455000D01*
X210435000Y-84454995D01*
X210435000Y-82039482D01*
X210794336Y-82039482D01*
X211376950Y-83449515D01*
X212454811Y-84529259D01*
X213863825Y-85114333D01*
X215389482Y-85115664D01*
X216799515Y-84533050D01*
X217879259Y-83455189D01*
X218464333Y-82046175D01*
X218465664Y-80520518D01*
X217883050Y-79110485D01*
X216805189Y-78030741D01*
X215396175Y-77445667D01*
X213870518Y-77444336D01*
X212460485Y-78026950D01*
X211380741Y-79104811D01*
X210795667Y-80513825D01*
X210794336Y-82039482D01*
X210435000Y-82039482D01*
X210435000Y-80585003D01*
X210435001Y-80584998D01*
X210367633Y-80246323D01*
X210282340Y-80118673D01*
X210175790Y-79959208D01*
X210175787Y-79959206D01*
X208330792Y-78114210D01*
X208200197Y-78026950D01*
X208043677Y-77922367D01*
X207987486Y-77911190D01*
X207705002Y-77854999D01*
X207704997Y-77855000D01*
X158455005Y-77855000D01*
X158455000Y-77854999D01*
X158172516Y-77911190D01*
X158116325Y-77922367D01*
X157829210Y-78114210D01*
X157829208Y-78114213D01*
X153420860Y-82522560D01*
X153325000Y-82522560D01*
X153089683Y-82566838D01*
X152873559Y-82705910D01*
X152728569Y-82918110D01*
X152677560Y-83170000D01*
X152677560Y-84470000D01*
X152721838Y-84705317D01*
X152790000Y-84811244D01*
X152790000Y-86617746D01*
X149602000Y-89805745D01*
X149602000Y-83462000D01*
X149534633Y-83123325D01*
X149342790Y-82836210D01*
X149342787Y-82836208D01*
X147795790Y-81289210D01*
X147678421Y-81210787D01*
X147508675Y-81097367D01*
X147452484Y-81086190D01*
X147170000Y-81029999D01*
X147169995Y-81030000D01*
X146938620Y-81030000D01*
X146921890Y-81018569D01*
X146670000Y-80967560D01*
X144670000Y-80967560D01*
X144434683Y-81011838D01*
X144218559Y-81150910D01*
X144073569Y-81363110D01*
X144022560Y-81615000D01*
X144022560Y-82215000D01*
X144038554Y-82300000D01*
X143954505Y-82300000D01*
X143954500Y-82299999D01*
X143672016Y-82356190D01*
X143615825Y-82367367D01*
X143389590Y-82518531D01*
X143235057Y-82582383D01*
X142971808Y-82845173D01*
X142829162Y-83188701D01*
X142828838Y-83560667D01*
X142970883Y-83904443D01*
X143233673Y-84167692D01*
X143577201Y-84310338D01*
X143949167Y-84310662D01*
X144022560Y-84280337D01*
X144022560Y-84755000D01*
X144066838Y-84990317D01*
X144125178Y-85080980D01*
X144035000Y-85298690D01*
X144035000Y-85439250D01*
X144193750Y-85598000D01*
X145543000Y-85598000D01*
X145543000Y-85578000D01*
X145797000Y-85578000D01*
X145797000Y-85598000D01*
X147146250Y-85598000D01*
X147305000Y-85439250D01*
X147305000Y-85298690D01*
X147215194Y-85081878D01*
X147266431Y-85006890D01*
X147317440Y-84755000D01*
X147317440Y-84155000D01*
X147273162Y-83919683D01*
X147209322Y-83820472D01*
X147266431Y-83736890D01*
X147317440Y-83485000D01*
X147317440Y-83314020D01*
X147832000Y-83828579D01*
X147832000Y-90515070D01*
X147734188Y-90612882D01*
X147542345Y-90899997D01*
X147537661Y-90923546D01*
X147474977Y-91238672D01*
X147474978Y-91238677D01*
X147474978Y-95738399D01*
X147316481Y-95579901D01*
X147273162Y-95349683D01*
X147209322Y-95250472D01*
X147266431Y-95166890D01*
X147317440Y-94915000D01*
X147317440Y-94315000D01*
X147273162Y-94079683D01*
X147209322Y-93980472D01*
X147266431Y-93896890D01*
X147317440Y-93645000D01*
X147317440Y-93045000D01*
X147273162Y-92809683D01*
X147214822Y-92719020D01*
X147305000Y-92501310D01*
X147305000Y-92360750D01*
X147146250Y-92202000D01*
X145797000Y-92202000D01*
X145797000Y-92222000D01*
X145543000Y-92222000D01*
X145543000Y-92202000D01*
X144193750Y-92202000D01*
X144035000Y-92360750D01*
X144035000Y-92501310D01*
X144124806Y-92718122D01*
X144073569Y-92793110D01*
X144022560Y-93045000D01*
X144022560Y-93215981D01*
X143188500Y-92381920D01*
X143188500Y-89805079D01*
X143544208Y-90160787D01*
X143544210Y-90160790D01*
X143819901Y-90345000D01*
X143831325Y-90352633D01*
X144044815Y-90395100D01*
X144022560Y-90505000D01*
X144022560Y-91105000D01*
X144066838Y-91340317D01*
X144125178Y-91430980D01*
X144035000Y-91648690D01*
X144035000Y-91789250D01*
X144193750Y-91948000D01*
X145543000Y-91948000D01*
X145543000Y-91928000D01*
X145797000Y-91928000D01*
X145797000Y-91948000D01*
X147146250Y-91948000D01*
X147305000Y-91789250D01*
X147305000Y-91648690D01*
X147215194Y-91431878D01*
X147266431Y-91356890D01*
X147317440Y-91105000D01*
X147317440Y-90505000D01*
X147273162Y-90269683D01*
X147209322Y-90170472D01*
X147266431Y-90086890D01*
X147317440Y-89835000D01*
X147317440Y-89235000D01*
X147273162Y-88999683D01*
X147209322Y-88900472D01*
X147266431Y-88816890D01*
X147317440Y-88565000D01*
X147317440Y-87965000D01*
X147273162Y-87729683D01*
X147209322Y-87630472D01*
X147266431Y-87546890D01*
X147317440Y-87295000D01*
X147317440Y-86695000D01*
X147273162Y-86459683D01*
X147214822Y-86369020D01*
X147305000Y-86151310D01*
X147305000Y-86010750D01*
X147146250Y-85852000D01*
X145797000Y-85852000D01*
X145797000Y-85872000D01*
X145543000Y-85872000D01*
X145543000Y-85852000D01*
X144193750Y-85852000D01*
X144035000Y-86010750D01*
X144035000Y-86151310D01*
X144124806Y-86368122D01*
X144073569Y-86443110D01*
X144022560Y-86695000D01*
X144022560Y-86947454D01*
X143786327Y-86710808D01*
X143442799Y-86568162D01*
X143070833Y-86567838D01*
X142727057Y-86709883D01*
X142463808Y-86972673D01*
X142321162Y-87316201D01*
X142321039Y-87457015D01*
X142118333Y-87456838D01*
X141774557Y-87598883D01*
X141511308Y-87861673D01*
X141368662Y-88205201D01*
X141368338Y-88577167D01*
X141418500Y-88698569D01*
X141418500Y-92748495D01*
X141418499Y-92748500D01*
X141451286Y-92913327D01*
X141485867Y-93087175D01*
X141648117Y-93330000D01*
X141677710Y-93374290D01*
X143544208Y-95240787D01*
X143544210Y-95240790D01*
X143707181Y-95349683D01*
X143831326Y-95432634D01*
X144044815Y-95475100D01*
X144022560Y-95585000D01*
X144022560Y-96185000D01*
X144066838Y-96420317D01*
X144205910Y-96636441D01*
X144418110Y-96781431D01*
X144670000Y-96832440D01*
X146065860Y-96832440D01*
X146435000Y-97201579D01*
X146435000Y-103452178D01*
X146385162Y-103572201D01*
X146384838Y-103944167D01*
X146526883Y-104287943D01*
X146789673Y-104551192D01*
X147133201Y-104693838D01*
X147459299Y-104694122D01*
X143422440Y-108730980D01*
X143422440Y-107980000D01*
X143385000Y-107781024D01*
X143385000Y-107276330D01*
X143385001Y-107276325D01*
X143317633Y-106937650D01*
X143311259Y-106928110D01*
X143125790Y-106650535D01*
X143125787Y-106650533D01*
X138870500Y-102395245D01*
X138870500Y-82130505D01*
X138870501Y-82130500D01*
X138803133Y-81791826D01*
X138803133Y-81791825D01*
X138611290Y-81504710D01*
X138611287Y-81504708D01*
X138395790Y-81289210D01*
X138278421Y-81210787D01*
X138108675Y-81097367D01*
X138052484Y-81086190D01*
X137770000Y-81029999D01*
X137769995Y-81030000D01*
X137538620Y-81030000D01*
X137521890Y-81018569D01*
X137270000Y-80967560D01*
X135270000Y-80967560D01*
X135034683Y-81011838D01*
X134818559Y-81150910D01*
X134673569Y-81363110D01*
X134622560Y-81615000D01*
X134622560Y-82215000D01*
X134638554Y-82300000D01*
X132761581Y-82300000D01*
X129615791Y-79154209D01*
X129541861Y-79104811D01*
X129328676Y-78962366D01*
X129272485Y-78951189D01*
X128990001Y-78894998D01*
X128989996Y-78894999D01*
X119610006Y-78894999D01*
X119610001Y-78894998D01*
X119327517Y-78951189D01*
X119271326Y-78962366D01*
X118984211Y-79154209D01*
X118984209Y-79154212D01*
X118476563Y-79661858D01*
X118436648Y-79645284D01*
X117786205Y-79644716D01*
X117185057Y-79893106D01*
X116839801Y-80237759D01*
X116497363Y-79894722D01*
X115896648Y-79645284D01*
X115246205Y-79644716D01*
X114645057Y-79893106D01*
X114184722Y-80352637D01*
X113935284Y-80953352D01*
X113934716Y-81603795D01*
X114183106Y-82204943D01*
X114642637Y-82665278D01*
X115243352Y-82914716D01*
X115893795Y-82915284D01*
X116494943Y-82666894D01*
X116840199Y-82322241D01*
X117182637Y-82665278D01*
X117783352Y-82914716D01*
X118433795Y-82915284D01*
X119034943Y-82666894D01*
X119380199Y-82322241D01*
X119722637Y-82665278D01*
X120323352Y-82914716D01*
X120973795Y-82915284D01*
X121574943Y-82666894D01*
X121920199Y-82322241D01*
X122262637Y-82665278D01*
X122863352Y-82914716D01*
X123513795Y-82915284D01*
X124114943Y-82666894D01*
X124460199Y-82322241D01*
X124802637Y-82665278D01*
X125403352Y-82914716D01*
X126053795Y-82915284D01*
X126096188Y-82897768D01*
X127845345Y-84646924D01*
X127845345Y-84948188D01*
X127795507Y-85068211D01*
X127795183Y-85440177D01*
X127937228Y-85783953D01*
X128200018Y-86047202D01*
X128543546Y-86189848D01*
X128915512Y-86190172D01*
X129259288Y-86048127D01*
X129522537Y-85785337D01*
X129665183Y-85441809D01*
X129665507Y-85069843D01*
X129615345Y-84948441D01*
X129615345Y-84280350D01*
X129615346Y-84280345D01*
X129547979Y-83941671D01*
X129460527Y-83810790D01*
X129356135Y-83654555D01*
X129356132Y-83654553D01*
X128610118Y-82908539D01*
X128636188Y-82897768D01*
X131048419Y-85309998D01*
X130425998Y-85309998D01*
X130087323Y-85377365D01*
X129800208Y-85569208D01*
X129800206Y-85569211D01*
X126882210Y-88487206D01*
X126690367Y-88774321D01*
X126679190Y-88830512D01*
X126622999Y-89112996D01*
X126623000Y-89113001D01*
X126623000Y-89926678D01*
X126573162Y-90046701D01*
X126572838Y-90418667D01*
X126581648Y-90439989D01*
X126133126Y-90439989D01*
X126133121Y-90439988D01*
X125850637Y-90496179D01*
X125794446Y-90507356D01*
X125507331Y-90699199D01*
X125507329Y-90699202D01*
X122564210Y-93642320D01*
X122372367Y-93929435D01*
X122372367Y-93929436D01*
X122304999Y-94268110D01*
X122305000Y-94268115D01*
X122305000Y-95116602D01*
X122265057Y-95133106D01*
X121919801Y-95477759D01*
X121577363Y-95134722D01*
X120976648Y-94885284D01*
X120326205Y-94884716D01*
X119725057Y-95133106D01*
X119379801Y-95477759D01*
X119037363Y-95134722D01*
X118436648Y-94885284D01*
X117786205Y-94884716D01*
X117185057Y-95133106D01*
X117134437Y-95183638D01*
X117050090Y-95052559D01*
X116837890Y-94907569D01*
X116586000Y-94856560D01*
X114554000Y-94856560D01*
X114318683Y-94900838D01*
X114102559Y-95039910D01*
X113957569Y-95252110D01*
X113906560Y-95504000D01*
X113906560Y-97536000D01*
X113950838Y-97771317D01*
X114089910Y-97987441D01*
X114302110Y-98132431D01*
X114512322Y-98175000D01*
X89533222Y-98175000D01*
X89533162Y-98174683D01*
X89394090Y-97958559D01*
X89181890Y-97813569D01*
X88930000Y-97762560D01*
X88230000Y-97762560D01*
X87994683Y-97806838D01*
X87778559Y-97945910D01*
X87633569Y-98158110D01*
X87630919Y-98171197D01*
X87565000Y-98068756D01*
X87565000Y-96840005D01*
X87565001Y-96840000D01*
X87497633Y-96501326D01*
X87497633Y-96501325D01*
X87305790Y-96214210D01*
X87305787Y-96214208D01*
X85438142Y-94346562D01*
X85454716Y-94306648D01*
X85454718Y-94303795D01*
X89804716Y-94303795D01*
X90053106Y-94904943D01*
X90512637Y-95365278D01*
X91113352Y-95614716D01*
X91763795Y-95615284D01*
X92364943Y-95366894D01*
X92825278Y-94907363D01*
X93074716Y-94306648D01*
X93075284Y-93656205D01*
X92826894Y-93055057D01*
X92367363Y-92594722D01*
X91766648Y-92345284D01*
X91116205Y-92344716D01*
X90515057Y-92593106D01*
X90054722Y-93052637D01*
X89805284Y-93653352D01*
X89804716Y-94303795D01*
X85454718Y-94303795D01*
X85455284Y-93656205D01*
X85206894Y-93055057D01*
X84747363Y-92594722D01*
X84146648Y-92345284D01*
X83496205Y-92344716D01*
X82895057Y-92593106D01*
X82434722Y-93052637D01*
X82185284Y-93653352D01*
X82184716Y-94303795D01*
X82433106Y-94904943D01*
X82892637Y-95365278D01*
X82968006Y-95396574D01*
X82636371Y-95727630D01*
X82423243Y-96240900D01*
X82422758Y-96796661D01*
X82634990Y-97310303D01*
X83027630Y-97703629D01*
X83540900Y-97916757D01*
X84096661Y-97917242D01*
X84610303Y-97705010D01*
X85003629Y-97312370D01*
X85216757Y-96799100D01*
X85216906Y-96628485D01*
X85795000Y-97206579D01*
X85795000Y-98068203D01*
X85733569Y-98158110D01*
X85682560Y-98410000D01*
X85682560Y-99710000D01*
X85726838Y-99945317D01*
X85865910Y-100161441D01*
X86078110Y-100306431D01*
X86330000Y-100357440D01*
X87030000Y-100357440D01*
X87265317Y-100313162D01*
X87481441Y-100174090D01*
X87626431Y-99961890D01*
X87629081Y-99948803D01*
X87765910Y-100161441D01*
X87978110Y-100306431D01*
X88230000Y-100357440D01*
X88930000Y-100357440D01*
X89165317Y-100313162D01*
X89381441Y-100174090D01*
X89526431Y-99961890D01*
X89529851Y-99945000D01*
X120498423Y-99945000D01*
X120539209Y-99985786D01*
X120539211Y-99985789D01*
X128881983Y-108328560D01*
X128881000Y-108328560D01*
X128645683Y-108372838D01*
X128429559Y-108511910D01*
X128383031Y-108580006D01*
X128240698Y-108437673D01*
X128007309Y-108341000D01*
X127666750Y-108341000D01*
X127508000Y-108499750D01*
X127508000Y-109474000D01*
X127528000Y-109474000D01*
X127528000Y-109728000D01*
X127508000Y-109728000D01*
X127508000Y-110702250D01*
X127666750Y-110861000D01*
X128007309Y-110861000D01*
X128240698Y-110764327D01*
X128381936Y-110623090D01*
X128416910Y-110677441D01*
X128629110Y-110822431D01*
X128881000Y-110873440D01*
X129276860Y-110873440D01*
X130378421Y-111975000D01*
X116741192Y-111975000D01*
X116634090Y-111808559D01*
X116564289Y-111760866D01*
X116621441Y-111724090D01*
X116766431Y-111511890D01*
X116817440Y-111260000D01*
X116817440Y-110060000D01*
X116784841Y-109886750D01*
X126246000Y-109886750D01*
X126246000Y-110352310D01*
X126342673Y-110585699D01*
X126521302Y-110764327D01*
X126754691Y-110861000D01*
X127095250Y-110861000D01*
X127254000Y-110702250D01*
X127254000Y-109728000D01*
X126404750Y-109728000D01*
X126246000Y-109886750D01*
X116784841Y-109886750D01*
X116773162Y-109824683D01*
X116634090Y-109608559D01*
X116455000Y-109486192D01*
X116455000Y-108849690D01*
X126246000Y-108849690D01*
X126246000Y-109315250D01*
X126404750Y-109474000D01*
X127254000Y-109474000D01*
X127254000Y-108499750D01*
X127095250Y-108341000D01*
X126754691Y-108341000D01*
X126521302Y-108437673D01*
X126342673Y-108616301D01*
X126246000Y-108849690D01*
X116455000Y-108849690D01*
X116455000Y-108583222D01*
X116455317Y-108583162D01*
X116671441Y-108444090D01*
X116816431Y-108231890D01*
X116867440Y-107980000D01*
X116867440Y-107280000D01*
X116823162Y-107044683D01*
X116684090Y-106828559D01*
X116471890Y-106683569D01*
X116438510Y-106676809D01*
X116579699Y-106618327D01*
X116758327Y-106439698D01*
X116855000Y-106206309D01*
X116855000Y-106015750D01*
X116696250Y-105857000D01*
X115697000Y-105857000D01*
X115697000Y-105877000D01*
X115443000Y-105877000D01*
X115443000Y-105857000D01*
X114443750Y-105857000D01*
X114285000Y-106015750D01*
X114285000Y-106206309D01*
X114381673Y-106439698D01*
X114560301Y-106618327D01*
X114696287Y-106674654D01*
X114684683Y-106676838D01*
X114468559Y-106815910D01*
X114323569Y-107028110D01*
X114272560Y-107280000D01*
X114272560Y-107980000D01*
X114316838Y-108215317D01*
X114455910Y-108431441D01*
X114668110Y-108576431D01*
X114685000Y-108579851D01*
X114685000Y-109488808D01*
X114518559Y-109595910D01*
X114373569Y-109808110D01*
X114322560Y-110060000D01*
X114322560Y-111260000D01*
X114366838Y-111495317D01*
X114505910Y-111711441D01*
X114575711Y-111759134D01*
X114518559Y-111795910D01*
X114396192Y-111975000D01*
X113665000Y-111975000D01*
X113665000Y-105253691D01*
X114285000Y-105253691D01*
X114285000Y-105444250D01*
X114443750Y-105603000D01*
X115443000Y-105603000D01*
X115443000Y-104903750D01*
X115697000Y-104903750D01*
X115697000Y-105603000D01*
X116696250Y-105603000D01*
X116855000Y-105444250D01*
X116855000Y-105253691D01*
X116758327Y-105020302D01*
X116579699Y-104841673D01*
X116346310Y-104745000D01*
X115855750Y-104745000D01*
X115697000Y-104903750D01*
X115443000Y-104903750D01*
X115284250Y-104745000D01*
X114793690Y-104745000D01*
X114560301Y-104841673D01*
X114381673Y-105020302D01*
X114285000Y-105253691D01*
X113665000Y-105253691D01*
X113665000Y-102870000D01*
X113621573Y-102639205D01*
X113485173Y-102427233D01*
X113277051Y-102285029D01*
X113030000Y-102235000D01*
X90170000Y-102235000D01*
X89939205Y-102278427D01*
X89727233Y-102414827D01*
X89585029Y-102622949D01*
X89535000Y-102870000D01*
X89535000Y-104784999D01*
X88682253Y-104784999D01*
X79244000Y-95346745D01*
X79244000Y-92381822D01*
X79293838Y-92261799D01*
X79294162Y-91889833D01*
X79152117Y-91546057D01*
X78889327Y-91282808D01*
X78768013Y-91232434D01*
X78319790Y-90784210D01*
X78306039Y-90775022D01*
X78032675Y-90592367D01*
X77976484Y-90581190D01*
X77694000Y-90524999D01*
X77693995Y-90525000D01*
X76336372Y-90525000D01*
X76085001Y-90474998D01*
X76084996Y-90474999D01*
X76080381Y-90474999D01*
X75962563Y-90337000D01*
X75137000Y-90337000D01*
X75137000Y-90357000D01*
X74883000Y-90357000D01*
X74883000Y-90337000D01*
X74057437Y-90337000D01*
X73908771Y-90511131D01*
X73970560Y-90689926D01*
X73883559Y-90745910D01*
X73738569Y-90958110D01*
X73687560Y-91210000D01*
X73687560Y-91610000D01*
X73711944Y-91739589D01*
X73687560Y-91860000D01*
X73687560Y-92260000D01*
X73711944Y-92389589D01*
X73687560Y-92510000D01*
X73687560Y-92910000D01*
X73711944Y-93039589D01*
X73687560Y-93160000D01*
X73687560Y-93560000D01*
X73707450Y-93665705D01*
X73700000Y-93683690D01*
X73700000Y-93751250D01*
X73729004Y-93780254D01*
X73731838Y-93795317D01*
X73870910Y-94011441D01*
X74015156Y-94110000D01*
X73858750Y-94110000D01*
X73700000Y-94268750D01*
X73700000Y-94336310D01*
X73796673Y-94569699D01*
X73967090Y-94740115D01*
X73908771Y-94908869D01*
X74057437Y-95083000D01*
X74883000Y-95083000D01*
X74883000Y-95063000D01*
X75137000Y-95063000D01*
X75137000Y-95083000D01*
X75962563Y-95083000D01*
X76111229Y-94908869D01*
X76052910Y-94740115D01*
X76223327Y-94569699D01*
X76320000Y-94336310D01*
X76320000Y-94268750D01*
X76161250Y-94110000D01*
X76002933Y-94110000D01*
X76136441Y-94024090D01*
X76281431Y-93811890D01*
X76287035Y-93784215D01*
X76320000Y-93751250D01*
X76320000Y-93683690D01*
X76311532Y-93663247D01*
X76332440Y-93560000D01*
X76332440Y-93160000D01*
X76308056Y-93030411D01*
X76332440Y-92910000D01*
X76332440Y-92510000D01*
X76308056Y-92380411D01*
X76325352Y-92295000D01*
X77327420Y-92295000D01*
X77474000Y-92441579D01*
X77474000Y-95713320D01*
X77473999Y-95713325D01*
X77515319Y-95921049D01*
X77541367Y-96052000D01*
X77666098Y-96238674D01*
X77733210Y-96339115D01*
X85529096Y-104135000D01*
X85375750Y-104135000D01*
X85217000Y-104293750D01*
X85217000Y-106393000D01*
X86366250Y-106393000D01*
X86525000Y-106234250D01*
X86525000Y-105130904D01*
X87689882Y-106295786D01*
X87689884Y-106295789D01*
X87976999Y-106487632D01*
X88315674Y-106554999D01*
X89535000Y-106554999D01*
X89535000Y-110785000D01*
X86537440Y-110785000D01*
X86537440Y-110170000D01*
X86493162Y-109934683D01*
X86354090Y-109718559D01*
X86141890Y-109573569D01*
X85890000Y-109522560D01*
X84290000Y-109522560D01*
X84054683Y-109566838D01*
X83838559Y-109705910D01*
X83693569Y-109918110D01*
X83642560Y-110170000D01*
X83642560Y-110625000D01*
X76771100Y-110625000D01*
X76741020Y-110552200D01*
X76140959Y-109951091D01*
X75356541Y-109625372D01*
X74507185Y-109624630D01*
X73722200Y-109948980D01*
X73121091Y-110549041D01*
X72795372Y-111333459D01*
X72794630Y-112182815D01*
X73118980Y-112967800D01*
X73719041Y-113568909D01*
X74503459Y-113894628D01*
X75352815Y-113895370D01*
X76137800Y-113571020D01*
X76738909Y-112970959D01*
X76770450Y-112895000D01*
X83642560Y-112895000D01*
X83642560Y-113670000D01*
X83686838Y-113905317D01*
X83825910Y-114121441D01*
X84038110Y-114266431D01*
X84290000Y-114317440D01*
X85890000Y-114317440D01*
X86125317Y-114273162D01*
X86341441Y-114134090D01*
X86486431Y-113921890D01*
X86537440Y-113670000D01*
X86537440Y-113055000D01*
X89535000Y-113055000D01*
X89535000Y-115570000D01*
X89578427Y-115800795D01*
X89714827Y-116012767D01*
X89922949Y-116154971D01*
X90170000Y-116205000D01*
X103255000Y-116205000D01*
X103255000Y-119460568D01*
X103089946Y-119570853D01*
X102862298Y-119911553D01*
X102795183Y-119768642D01*
X102366924Y-119378355D01*
X101956890Y-119208524D01*
X101727000Y-119329845D01*
X101727000Y-120523000D01*
X101747000Y-120523000D01*
X101747000Y-120777000D01*
X101727000Y-120777000D01*
X101727000Y-121970155D01*
X101956890Y-122091476D01*
X102366924Y-121921645D01*
X102795183Y-121531358D01*
X102862298Y-121388447D01*
X103089946Y-121729147D01*
X103571715Y-122051054D01*
X104140000Y-122164093D01*
X104708285Y-122051054D01*
X105190054Y-121729147D01*
X105410000Y-121399974D01*
X105629946Y-121729147D01*
X106111715Y-122051054D01*
X106680000Y-122164093D01*
X107248285Y-122051054D01*
X107730054Y-121729147D01*
X107950000Y-121399974D01*
X108169946Y-121729147D01*
X108651715Y-122051054D01*
X109220000Y-122164093D01*
X109788285Y-122051054D01*
X110270054Y-121729147D01*
X110490000Y-121399974D01*
X110709946Y-121729147D01*
X111191715Y-122051054D01*
X111760000Y-122164093D01*
X112328285Y-122051054D01*
X112810054Y-121729147D01*
X112837850Y-121687548D01*
X112846838Y-121735317D01*
X112985910Y-121951441D01*
X113198110Y-122096431D01*
X113450000Y-122147440D01*
X115150000Y-122147440D01*
X115385317Y-122103162D01*
X115601441Y-121964090D01*
X115746431Y-121751890D01*
X115797440Y-121500000D01*
X115797440Y-119800000D01*
X115753253Y-119565163D01*
X126699838Y-119565163D01*
X126841883Y-119908939D01*
X127104673Y-120172188D01*
X127225987Y-120222562D01*
X127309207Y-120305782D01*
X127309209Y-120305785D01*
X129249209Y-122245784D01*
X129332254Y-122328830D01*
X129381883Y-122448941D01*
X129644673Y-122712190D01*
X129988201Y-122854836D01*
X130360167Y-122855160D01*
X130703943Y-122713115D01*
X130967192Y-122450325D01*
X131109838Y-122106797D01*
X131110162Y-121734831D01*
X130968117Y-121391055D01*
X130705327Y-121127806D01*
X130584015Y-121077433D01*
X130500793Y-120994210D01*
X130500791Y-120994209D01*
X130500790Y-120994207D01*
X128560789Y-119054205D01*
X128560786Y-119054203D01*
X128477745Y-118971161D01*
X128428117Y-118851053D01*
X128165327Y-118587804D01*
X127821799Y-118445158D01*
X127449833Y-118444834D01*
X127106057Y-118586879D01*
X126842808Y-118849669D01*
X126700162Y-119193197D01*
X126699838Y-119565163D01*
X115753253Y-119565163D01*
X115753162Y-119564683D01*
X115614090Y-119348559D01*
X115401890Y-119203569D01*
X115250640Y-119172940D01*
X119725334Y-114698245D01*
X119845443Y-114648617D01*
X120108692Y-114385827D01*
X120251338Y-114042299D01*
X120251597Y-113745000D01*
X131614034Y-113745000D01*
X131614034Y-113755645D01*
X131614033Y-113755650D01*
X131659894Y-113986201D01*
X131681401Y-114094325D01*
X131715261Y-114145000D01*
X131166005Y-114145000D01*
X131166000Y-114144999D01*
X130883516Y-114201190D01*
X130827325Y-114212367D01*
X130540210Y-114404210D01*
X130540208Y-114404213D01*
X130532861Y-114411560D01*
X129987000Y-114411560D01*
X129751683Y-114455838D01*
X129535559Y-114594910D01*
X129390569Y-114807110D01*
X129339560Y-115059000D01*
X129339560Y-115459000D01*
X129383838Y-115694317D01*
X129489482Y-115858492D01*
X129448673Y-115899301D01*
X129352000Y-116132690D01*
X129352000Y-116200250D01*
X129510750Y-116359000D01*
X130810000Y-116359000D01*
X130810000Y-116312000D01*
X131064000Y-116312000D01*
X131064000Y-116359000D01*
X132363250Y-116359000D01*
X132522000Y-116200250D01*
X132522000Y-116132690D01*
X132431830Y-115915000D01*
X134002560Y-115915000D01*
X134002560Y-116105000D01*
X134046838Y-116340317D01*
X134185910Y-116556441D01*
X134222190Y-116581230D01*
X134029420Y-116774000D01*
X132522000Y-116774000D01*
X132522000Y-116717750D01*
X132363250Y-116559000D01*
X131064000Y-116559000D01*
X131064000Y-116606000D01*
X130810000Y-116606000D01*
X130810000Y-116559000D01*
X129510750Y-116559000D01*
X129352000Y-116717750D01*
X129352000Y-116785310D01*
X129448673Y-117018699D01*
X129490634Y-117060660D01*
X129390569Y-117207110D01*
X129339560Y-117459000D01*
X129339560Y-117859000D01*
X129383838Y-118094317D01*
X129522910Y-118310441D01*
X129735110Y-118455431D01*
X129987000Y-118506440D01*
X130748174Y-118506440D01*
X130937000Y-118544000D01*
X134395995Y-118544000D01*
X134396000Y-118544001D01*
X134705853Y-118482366D01*
X134734675Y-118476633D01*
X135021790Y-118284790D01*
X135977560Y-117329019D01*
X135977560Y-118080000D01*
X136015000Y-118278976D01*
X136015000Y-120135995D01*
X136014999Y-120136000D01*
X136050572Y-120314834D01*
X136082367Y-120474675D01*
X136185521Y-120629057D01*
X136274210Y-120761790D01*
X138712709Y-123200288D01*
X138712711Y-123200291D01*
X138999826Y-123392134D01*
X139338501Y-123459502D01*
X139338506Y-123459501D01*
X153015494Y-123459501D01*
X153015499Y-123459502D01*
X153297983Y-123403311D01*
X153354174Y-123392134D01*
X153641289Y-123200291D01*
X153641290Y-123200290D01*
X154840834Y-122000745D01*
X154960943Y-121951117D01*
X155224192Y-121688327D01*
X155366838Y-121344799D01*
X155367162Y-120972833D01*
X155225117Y-120629057D01*
X154962327Y-120365808D01*
X154618799Y-120223162D01*
X154246833Y-120222838D01*
X153903057Y-120364883D01*
X153639808Y-120627673D01*
X153589434Y-120748987D01*
X152648919Y-121689501D01*
X150881654Y-121689501D01*
X151055183Y-121531358D01*
X151301486Y-121006892D01*
X151180819Y-120777000D01*
X149987000Y-120777000D01*
X149987000Y-120797000D01*
X149733000Y-120797000D01*
X149733000Y-120777000D01*
X149713000Y-120777000D01*
X149713000Y-120523000D01*
X149733000Y-120523000D01*
X149733000Y-119329845D01*
X149987000Y-119329845D01*
X149987000Y-120523000D01*
X151180819Y-120523000D01*
X151301486Y-120293108D01*
X151055183Y-119768642D01*
X150626924Y-119378355D01*
X150216890Y-119208524D01*
X149987000Y-119329845D01*
X149733000Y-119329845D01*
X149503110Y-119208524D01*
X149093076Y-119378355D01*
X148790063Y-119654501D01*
X148773162Y-119564683D01*
X148634090Y-119348559D01*
X148421890Y-119203569D01*
X148170000Y-119152560D01*
X146470000Y-119152560D01*
X146234683Y-119196838D01*
X146018559Y-119335910D01*
X145873569Y-119548110D01*
X145822560Y-119800000D01*
X145822560Y-120839500D01*
X143231797Y-120839500D01*
X143141890Y-120778069D01*
X143128803Y-120775419D01*
X143341441Y-120638590D01*
X143486431Y-120426390D01*
X143537440Y-120174500D01*
X143537440Y-119757000D01*
X144473178Y-119757000D01*
X144593201Y-119806838D01*
X144965167Y-119807162D01*
X145308943Y-119665117D01*
X145572192Y-119402327D01*
X145714838Y-119058799D01*
X145715162Y-118686833D01*
X145602847Y-118415010D01*
X150546277Y-118415010D01*
X150546282Y-118415011D01*
X150828766Y-118358820D01*
X150884957Y-118347643D01*
X151158303Y-118165000D01*
X152048176Y-118165000D01*
X152047952Y-118422167D01*
X152189997Y-118765943D01*
X152452787Y-119029192D01*
X152796315Y-119171838D01*
X153168281Y-119172162D01*
X153289683Y-119122000D01*
X159980197Y-119122000D01*
X159980202Y-119122001D01*
X160297933Y-119058799D01*
X160318877Y-119054633D01*
X160605992Y-118862790D01*
X162009388Y-117459393D01*
X162009391Y-117459391D01*
X162201234Y-117172276D01*
X162228896Y-117033210D01*
X162268602Y-116833601D01*
X162268601Y-116833596D01*
X162268601Y-114393606D01*
X162268602Y-114393601D01*
X162212183Y-114109969D01*
X162201234Y-114054926D01*
X162009391Y-113767811D01*
X162009388Y-113767809D01*
X161482488Y-113240908D01*
X161518600Y-113059359D01*
X161518600Y-113000641D01*
X161404526Y-112427152D01*
X161079670Y-111940971D01*
X160808828Y-111760000D01*
X161079670Y-111579029D01*
X161215998Y-111375000D01*
X165072560Y-111375000D01*
X165072560Y-111790000D01*
X165116838Y-112025317D01*
X165255910Y-112241441D01*
X165468110Y-112386431D01*
X165720000Y-112437440D01*
X167020000Y-112437440D01*
X167255317Y-112393162D01*
X167361244Y-112325000D01*
X170458203Y-112325000D01*
X170548110Y-112386431D01*
X170585695Y-112394042D01*
X170611014Y-112521326D01*
X170632367Y-112628675D01*
X170776798Y-112844833D01*
X170824210Y-112915790D01*
X173469208Y-115560787D01*
X173469210Y-115560790D01*
X173669049Y-115694317D01*
X173756326Y-115752633D01*
X174095000Y-115820001D01*
X174095005Y-115820000D01*
X177164995Y-115819998D01*
X177165000Y-115819999D01*
X177420931Y-115769090D01*
X177503676Y-115752631D01*
X177790790Y-115560788D01*
X178425787Y-114925790D01*
X178425790Y-114925788D01*
X178582452Y-114691325D01*
X178591730Y-114677440D01*
X178690000Y-114677440D01*
X178925317Y-114633162D01*
X179141441Y-114494090D01*
X179286431Y-114281890D01*
X179337440Y-114030000D01*
X179337440Y-112995750D01*
X182065000Y-112995750D01*
X182065000Y-113236310D01*
X182161673Y-113469699D01*
X182340302Y-113648327D01*
X182573691Y-113745000D01*
X182864250Y-113745000D01*
X183023000Y-113586250D01*
X183023000Y-112837000D01*
X183277000Y-112837000D01*
X183277000Y-113586250D01*
X183435750Y-113745000D01*
X183726309Y-113745000D01*
X183959698Y-113648327D01*
X184138327Y-113469699D01*
X184235000Y-113236310D01*
X184235000Y-112995750D01*
X184076250Y-112837000D01*
X183277000Y-112837000D01*
X183023000Y-112837000D01*
X182223750Y-112837000D01*
X182065000Y-112995750D01*
X179337440Y-112995750D01*
X179337440Y-112030000D01*
X179293162Y-111794683D01*
X179154090Y-111578559D01*
X178941890Y-111433569D01*
X178690000Y-111382560D01*
X177524020Y-111382560D01*
X181341579Y-107565000D01*
X182246778Y-107565000D01*
X182246838Y-107565317D01*
X182385910Y-107781441D01*
X182598110Y-107926431D01*
X182850000Y-107977440D01*
X183550000Y-107977440D01*
X183785317Y-107933162D01*
X184001441Y-107794090D01*
X184146431Y-107581890D01*
X184149081Y-107568803D01*
X184215000Y-107671244D01*
X184215000Y-108493421D01*
X182945860Y-109762560D01*
X182700000Y-109762560D01*
X182464683Y-109806838D01*
X182248559Y-109945910D01*
X182103569Y-110158110D01*
X182052560Y-110410000D01*
X182052560Y-111210000D01*
X182096838Y-111445317D01*
X182235910Y-111661441D01*
X182375750Y-111756990D01*
X182340302Y-111771673D01*
X182161673Y-111950301D01*
X182065000Y-112183690D01*
X182065000Y-112424250D01*
X182223750Y-112583000D01*
X183023000Y-112583000D01*
X183023000Y-112563000D01*
X183277000Y-112563000D01*
X183277000Y-112583000D01*
X184076250Y-112583000D01*
X184162262Y-112496988D01*
X184235910Y-112611441D01*
X184448110Y-112756431D01*
X184700000Y-112807440D01*
X184945860Y-112807440D01*
X187064208Y-114925787D01*
X187064210Y-114925790D01*
X187263574Y-115059000D01*
X187351325Y-115117633D01*
X187690000Y-115185000D01*
X188468000Y-115185000D01*
X188468000Y-124995000D01*
X75002391Y-124995000D01*
X73272751Y-124650953D01*
X71867804Y-123712197D01*
X70929047Y-122307249D01*
X70750470Y-121409482D01*
X71094336Y-121409482D01*
X71676950Y-122819515D01*
X72754811Y-123899259D01*
X74163825Y-124484333D01*
X75689482Y-124485664D01*
X77099515Y-123903050D01*
X78179259Y-122825189D01*
X78764333Y-121416175D01*
X78764760Y-120926661D01*
X82422758Y-120926661D01*
X82634990Y-121440303D01*
X83027630Y-121833629D01*
X83540900Y-122046757D01*
X84096661Y-122047242D01*
X84610303Y-121835010D01*
X85003629Y-121442370D01*
X85184454Y-121006892D01*
X100158514Y-121006892D01*
X100404817Y-121531358D01*
X100833076Y-121921645D01*
X101243110Y-122091476D01*
X101473000Y-121970155D01*
X101473000Y-120777000D01*
X100279181Y-120777000D01*
X100158514Y-121006892D01*
X85184454Y-121006892D01*
X85216757Y-120929100D01*
X85217242Y-120373339D01*
X85184092Y-120293108D01*
X100158514Y-120293108D01*
X100279181Y-120523000D01*
X101473000Y-120523000D01*
X101473000Y-119329845D01*
X101243110Y-119208524D01*
X100833076Y-119378355D01*
X100404817Y-119768642D01*
X100158514Y-120293108D01*
X85184092Y-120293108D01*
X85005010Y-119859697D01*
X84612370Y-119466371D01*
X84099100Y-119253243D01*
X83543339Y-119252758D01*
X83029697Y-119464990D01*
X82636371Y-119857630D01*
X82423243Y-120370900D01*
X82422758Y-120926661D01*
X78764760Y-120926661D01*
X78765664Y-119890518D01*
X78183050Y-118480485D01*
X77105189Y-117400741D01*
X75696175Y-116815667D01*
X74170518Y-116814336D01*
X72760485Y-117396950D01*
X71680741Y-118474811D01*
X71095667Y-119883825D01*
X71094336Y-121409482D01*
X70750470Y-121409482D01*
X70585000Y-120577610D01*
X70585000Y-106965750D01*
X72795000Y-106965750D01*
X72795000Y-108306309D01*
X72891673Y-108539698D01*
X73070301Y-108718327D01*
X73303690Y-108815000D01*
X74644250Y-108815000D01*
X74803000Y-108656250D01*
X74803000Y-106807000D01*
X75057000Y-106807000D01*
X75057000Y-108656250D01*
X75215750Y-108815000D01*
X76556310Y-108815000D01*
X76789699Y-108718327D01*
X76968327Y-108539698D01*
X77065000Y-108306309D01*
X77065000Y-106965750D01*
X76906250Y-106807000D01*
X75057000Y-106807000D01*
X74803000Y-106807000D01*
X72953750Y-106807000D01*
X72795000Y-106965750D01*
X70585000Y-106965750D01*
X70585000Y-106805750D01*
X83655000Y-106805750D01*
X83655000Y-108396309D01*
X83751673Y-108629698D01*
X83930301Y-108808327D01*
X84163690Y-108905000D01*
X84804250Y-108905000D01*
X84963000Y-108746250D01*
X84963000Y-106647000D01*
X85217000Y-106647000D01*
X85217000Y-108746250D01*
X85375750Y-108905000D01*
X86016310Y-108905000D01*
X86249699Y-108808327D01*
X86428327Y-108629698D01*
X86525000Y-108396309D01*
X86525000Y-106805750D01*
X86366250Y-106647000D01*
X85217000Y-106647000D01*
X84963000Y-106647000D01*
X83813750Y-106647000D01*
X83655000Y-106805750D01*
X70585000Y-106805750D01*
X70585000Y-105053691D01*
X72795000Y-105053691D01*
X72795000Y-106394250D01*
X72953750Y-106553000D01*
X74803000Y-106553000D01*
X74803000Y-104703750D01*
X75057000Y-104703750D01*
X75057000Y-106553000D01*
X76906250Y-106553000D01*
X77065000Y-106394250D01*
X77065000Y-105053691D01*
X76968327Y-104820302D01*
X76791717Y-104643691D01*
X83655000Y-104643691D01*
X83655000Y-106234250D01*
X83813750Y-106393000D01*
X84963000Y-106393000D01*
X84963000Y-104293750D01*
X84804250Y-104135000D01*
X84163690Y-104135000D01*
X83930301Y-104231673D01*
X83751673Y-104410302D01*
X83655000Y-104643691D01*
X76791717Y-104643691D01*
X76789699Y-104641673D01*
X76556310Y-104545000D01*
X75215750Y-104545000D01*
X75057000Y-104703750D01*
X74803000Y-104703750D01*
X74644250Y-104545000D01*
X73303690Y-104545000D01*
X73070301Y-104641673D01*
X72891673Y-104820302D01*
X72795000Y-105053691D01*
X70585000Y-105053691D01*
X70585000Y-96511874D01*
X70940881Y-96511874D01*
X71142632Y-96922763D01*
X71483322Y-97210002D01*
X71908000Y-97345000D01*
X72183000Y-97345000D01*
X72183000Y-96337000D01*
X72437000Y-96337000D01*
X72437000Y-97345000D01*
X72712000Y-97345000D01*
X73136678Y-97210002D01*
X73477368Y-96922763D01*
X73679119Y-96511874D01*
X73552954Y-96337000D01*
X72437000Y-96337000D01*
X72183000Y-96337000D01*
X71067046Y-96337000D01*
X70940881Y-96511874D01*
X70585000Y-96511874D01*
X70585000Y-95908126D01*
X70940881Y-95908126D01*
X71067046Y-96083000D01*
X72183000Y-96083000D01*
X72183000Y-95075000D01*
X72437000Y-95075000D01*
X72437000Y-96083000D01*
X73552954Y-96083000D01*
X73679119Y-95908126D01*
X73484191Y-95511131D01*
X73908771Y-95511131D01*
X74050432Y-95921049D01*
X74338179Y-96245552D01*
X74712062Y-96429268D01*
X74883000Y-96302734D01*
X74883000Y-95337000D01*
X75137000Y-95337000D01*
X75137000Y-96302734D01*
X75307938Y-96429268D01*
X75681821Y-96245552D01*
X75969568Y-95921049D01*
X76111229Y-95511131D01*
X75962563Y-95337000D01*
X75137000Y-95337000D01*
X74883000Y-95337000D01*
X74057437Y-95337000D01*
X73908771Y-95511131D01*
X73484191Y-95511131D01*
X73477368Y-95497237D01*
X73136678Y-95209998D01*
X72712000Y-95075000D01*
X72437000Y-95075000D01*
X72183000Y-95075000D01*
X71908000Y-95075000D01*
X71483322Y-95209998D01*
X71142632Y-95497237D01*
X70940881Y-95908126D01*
X70585000Y-95908126D01*
X70585000Y-89511874D01*
X70940881Y-89511874D01*
X71142632Y-89922763D01*
X71483322Y-90210002D01*
X71908000Y-90345000D01*
X72183000Y-90345000D01*
X72183000Y-89337000D01*
X72437000Y-89337000D01*
X72437000Y-90345000D01*
X72712000Y-90345000D01*
X73136678Y-90210002D01*
X73477368Y-89922763D01*
X73484190Y-89908869D01*
X73908771Y-89908869D01*
X74057437Y-90083000D01*
X74883000Y-90083000D01*
X74883000Y-89117266D01*
X75137000Y-89117266D01*
X75137000Y-90083000D01*
X75962563Y-90083000D01*
X76111229Y-89908869D01*
X75969568Y-89498951D01*
X75691843Y-89185750D01*
X82185000Y-89185750D01*
X82185000Y-90026310D01*
X82281673Y-90259699D01*
X82460302Y-90438327D01*
X82693691Y-90535000D01*
X83534250Y-90535000D01*
X83693000Y-90376250D01*
X83693000Y-89027000D01*
X83947000Y-89027000D01*
X83947000Y-90376250D01*
X84105750Y-90535000D01*
X84946309Y-90535000D01*
X85179698Y-90438327D01*
X85358327Y-90259699D01*
X85444138Y-90052532D01*
X90467073Y-90052532D01*
X90565736Y-90319387D01*
X91175461Y-90545908D01*
X91825460Y-90521856D01*
X92314264Y-90319387D01*
X92412927Y-90052532D01*
X91440000Y-89079605D01*
X90467073Y-90052532D01*
X85444138Y-90052532D01*
X85455000Y-90026310D01*
X85455000Y-89185750D01*
X85296250Y-89027000D01*
X83947000Y-89027000D01*
X83693000Y-89027000D01*
X82343750Y-89027000D01*
X82185000Y-89185750D01*
X75691843Y-89185750D01*
X75681821Y-89174448D01*
X75307938Y-88990732D01*
X75137000Y-89117266D01*
X74883000Y-89117266D01*
X74712062Y-88990732D01*
X74338179Y-89174448D01*
X74050432Y-89498951D01*
X73908771Y-89908869D01*
X73484190Y-89908869D01*
X73679119Y-89511874D01*
X73552954Y-89337000D01*
X72437000Y-89337000D01*
X72183000Y-89337000D01*
X71067046Y-89337000D01*
X70940881Y-89511874D01*
X70585000Y-89511874D01*
X70585000Y-88908126D01*
X70940881Y-88908126D01*
X71067046Y-89083000D01*
X72183000Y-89083000D01*
X72183000Y-88075000D01*
X72437000Y-88075000D01*
X72437000Y-89083000D01*
X73552954Y-89083000D01*
X73679119Y-88908126D01*
X73477368Y-88497237D01*
X73136678Y-88209998D01*
X72712000Y-88075000D01*
X72437000Y-88075000D01*
X72183000Y-88075000D01*
X71908000Y-88075000D01*
X71483322Y-88209998D01*
X71142632Y-88497237D01*
X70940881Y-88908126D01*
X70585000Y-88908126D01*
X70585000Y-87773690D01*
X82185000Y-87773690D01*
X82185000Y-88614250D01*
X82343750Y-88773000D01*
X83693000Y-88773000D01*
X83693000Y-87423750D01*
X83947000Y-87423750D01*
X83947000Y-88773000D01*
X85296250Y-88773000D01*
X85433789Y-88635461D01*
X89794092Y-88635461D01*
X89818144Y-89285460D01*
X90020613Y-89774264D01*
X90287468Y-89872927D01*
X91260395Y-88900000D01*
X91619605Y-88900000D01*
X92592532Y-89872927D01*
X92859387Y-89774264D01*
X93085908Y-89164539D01*
X93061856Y-88514540D01*
X92859387Y-88025736D01*
X92592532Y-87927073D01*
X91619605Y-88900000D01*
X91260395Y-88900000D01*
X90287468Y-87927073D01*
X90020613Y-88025736D01*
X89794092Y-88635461D01*
X85433789Y-88635461D01*
X85455000Y-88614250D01*
X85455000Y-87773690D01*
X85444139Y-87747468D01*
X90467073Y-87747468D01*
X91440000Y-88720395D01*
X92412927Y-87747468D01*
X92314264Y-87480613D01*
X91704539Y-87254092D01*
X91054540Y-87278144D01*
X90565736Y-87480613D01*
X90467073Y-87747468D01*
X85444139Y-87747468D01*
X85358327Y-87540301D01*
X85179698Y-87361673D01*
X84946309Y-87265000D01*
X84105750Y-87265000D01*
X83947000Y-87423750D01*
X83693000Y-87423750D01*
X83534250Y-87265000D01*
X82693691Y-87265000D01*
X82460302Y-87361673D01*
X82281673Y-87540301D01*
X82185000Y-87773690D01*
X70585000Y-87773690D01*
X70585000Y-82039482D01*
X71094336Y-82039482D01*
X71676950Y-83449515D01*
X72754811Y-84529259D01*
X74163825Y-85114333D01*
X75689482Y-85115664D01*
X77099515Y-84533050D01*
X77536666Y-84096661D01*
X82422758Y-84096661D01*
X82634990Y-84610303D01*
X83027630Y-85003629D01*
X83540900Y-85216757D01*
X84096661Y-85217242D01*
X84610303Y-85005010D01*
X85003629Y-84612370D01*
X85089949Y-84404488D01*
X85174990Y-84610303D01*
X85567630Y-85003629D01*
X86080900Y-85216757D01*
X86636661Y-85217242D01*
X87150303Y-85005010D01*
X87543629Y-84612370D01*
X87629949Y-84404488D01*
X87714990Y-84610303D01*
X88107630Y-85003629D01*
X88620900Y-85216757D01*
X89176661Y-85217242D01*
X89690303Y-85005010D01*
X90083629Y-84612370D01*
X90169949Y-84404488D01*
X90254990Y-84610303D01*
X90647630Y-85003629D01*
X91160900Y-85216757D01*
X91716661Y-85217242D01*
X92230303Y-85005010D01*
X92623629Y-84612370D01*
X92836757Y-84099100D01*
X92837242Y-83543339D01*
X92625010Y-83029697D01*
X92232370Y-82636371D01*
X92024488Y-82550051D01*
X92230303Y-82465010D01*
X92623629Y-82072370D01*
X92836757Y-81559100D01*
X92837242Y-81003339D01*
X92625010Y-80489697D01*
X92232370Y-80096371D01*
X91719100Y-79883243D01*
X91163339Y-79882758D01*
X90649697Y-80094990D01*
X90256371Y-80487630D01*
X90043243Y-81000900D01*
X90042758Y-81556661D01*
X90254990Y-82070303D01*
X90647630Y-82463629D01*
X90855512Y-82549949D01*
X90649697Y-82634990D01*
X90256371Y-83027630D01*
X90170051Y-83235512D01*
X90085010Y-83029697D01*
X89692370Y-82636371D01*
X89179100Y-82423243D01*
X88623339Y-82422758D01*
X88109697Y-82634990D01*
X87716371Y-83027630D01*
X87630051Y-83235512D01*
X87545010Y-83029697D01*
X87152370Y-82636371D01*
X86639100Y-82423243D01*
X86083339Y-82422758D01*
X85569697Y-82634990D01*
X85176371Y-83027630D01*
X85090051Y-83235512D01*
X85005010Y-83029697D01*
X84612370Y-82636371D01*
X84099100Y-82423243D01*
X83543339Y-82422758D01*
X83029697Y-82634990D01*
X82636371Y-83027630D01*
X82423243Y-83540900D01*
X82422758Y-84096661D01*
X77536666Y-84096661D01*
X78179259Y-83455189D01*
X78764333Y-82046175D01*
X78765664Y-80520518D01*
X78183050Y-79110485D01*
X77105189Y-78030741D01*
X75696175Y-77445667D01*
X74170518Y-77444336D01*
X72760485Y-78026950D01*
X71680741Y-79104811D01*
X71095667Y-80513825D01*
X71094336Y-82039482D01*
X70585000Y-82039482D01*
X70585000Y-81352390D01*
X70929047Y-79622751D01*
X71867804Y-78217803D01*
X73272751Y-77279047D01*
X75002391Y-76935000D01*
X214557610Y-76935000D01*
X216287249Y-77279047D01*
G36*
X139825000Y-118727440D02*
X140015000Y-118727440D01*
X140015000Y-119634495D01*
X140014999Y-119634500D01*
X140059795Y-119859697D01*
X140082367Y-119973175D01*
X140223903Y-120185000D01*
X140274210Y-120260290D01*
X140464208Y-120450287D01*
X140464210Y-120450290D01*
X140548498Y-120506609D01*
X140751326Y-120642134D01*
X141090000Y-120709501D01*
X141090005Y-120709500D01*
X141248203Y-120709500D01*
X141338110Y-120770931D01*
X141351197Y-120773581D01*
X141138559Y-120910410D01*
X140993569Y-121122610D01*
X140942560Y-121374500D01*
X140942560Y-121689501D01*
X139705080Y-121689501D01*
X138076715Y-120061135D01*
X138107167Y-120061162D01*
X138450943Y-119919117D01*
X138714192Y-119656327D01*
X138856838Y-119312799D01*
X138857162Y-118940833D01*
X138768990Y-118727440D01*
X138775000Y-118727440D01*
X138904589Y-118703056D01*
X139025000Y-118727440D01*
X139575000Y-118727440D01*
X139704589Y-118703056D01*
X139825000Y-118727440D01*
X139825000Y-118727440D01*
G37*
X139825000Y-118727440D02*
X140015000Y-118727440D01*
X140015000Y-119634495D01*
X140014999Y-119634500D01*
X140059795Y-119859697D01*
X140082367Y-119973175D01*
X140223903Y-120185000D01*
X140274210Y-120260290D01*
X140464208Y-120450287D01*
X140464210Y-120450290D01*
X140548498Y-120506609D01*
X140751326Y-120642134D01*
X141090000Y-120709501D01*
X141090005Y-120709500D01*
X141248203Y-120709500D01*
X141338110Y-120770931D01*
X141351197Y-120773581D01*
X141138559Y-120910410D01*
X140993569Y-121122610D01*
X140942560Y-121374500D01*
X140942560Y-121689501D01*
X139705080Y-121689501D01*
X138076715Y-120061135D01*
X138107167Y-120061162D01*
X138450943Y-119919117D01*
X138714192Y-119656327D01*
X138856838Y-119312799D01*
X138857162Y-118940833D01*
X138768990Y-118727440D01*
X138775000Y-118727440D01*
X138904589Y-118703056D01*
X139025000Y-118727440D01*
X139575000Y-118727440D01*
X139704589Y-118703056D01*
X139825000Y-118727440D01*
G36*
X114505910Y-113911441D02*
X114718110Y-114056431D01*
X114970000Y-114107440D01*
X115780981Y-114107440D01*
X112663420Y-117225000D01*
X109220000Y-117225000D01*
X108881325Y-117292367D01*
X108594210Y-117484210D01*
X108594208Y-117484213D01*
X106898960Y-119179461D01*
X106680000Y-119135907D01*
X106111715Y-119248946D01*
X105629946Y-119570853D01*
X105410000Y-119900026D01*
X105190054Y-119570853D01*
X105025000Y-119460568D01*
X105025000Y-116205000D01*
X113030000Y-116205000D01*
X113260795Y-116161573D01*
X113472767Y-116025173D01*
X113614971Y-115817051D01*
X113665000Y-115570000D01*
X113665000Y-113745000D01*
X114398808Y-113745000D01*
X114505910Y-113911441D01*
X114505910Y-113911441D01*
G37*
X114505910Y-113911441D02*
X114718110Y-114056431D01*
X114970000Y-114107440D01*
X115780981Y-114107440D01*
X112663420Y-117225000D01*
X109220000Y-117225000D01*
X108881325Y-117292367D01*
X108594210Y-117484210D01*
X108594208Y-117484213D01*
X106898960Y-119179461D01*
X106680000Y-119135907D01*
X106111715Y-119248946D01*
X105629946Y-119570853D01*
X105410000Y-119900026D01*
X105190054Y-119570853D01*
X105025000Y-119460568D01*
X105025000Y-116205000D01*
X113030000Y-116205000D01*
X113260795Y-116161573D01*
X113472767Y-116025173D01*
X113614971Y-115817051D01*
X113665000Y-115570000D01*
X113665000Y-113745000D01*
X114398808Y-113745000D01*
X114505910Y-113911441D01*
G36*
X138506177Y-115303689D02*
X138482367Y-115339324D01*
X138482367Y-115339325D01*
X138474079Y-115380990D01*
X138473161Y-115383201D01*
X138473159Y-115385616D01*
X138414999Y-115677999D01*
X138415000Y-115678004D01*
X138415000Y-115832560D01*
X138225000Y-115832560D01*
X138095411Y-115856944D01*
X137975000Y-115832560D01*
X137425000Y-115832560D01*
X137295411Y-115856944D01*
X137175000Y-115832560D01*
X136897440Y-115832560D01*
X136897440Y-115555000D01*
X136873056Y-115425411D01*
X136897440Y-115305000D01*
X136897440Y-115115000D01*
X138584528Y-115115000D01*
X138506177Y-115303689D01*
X138506177Y-115303689D01*
G37*
X138506177Y-115303689D02*
X138482367Y-115339324D01*
X138482367Y-115339325D01*
X138474079Y-115380990D01*
X138473161Y-115383201D01*
X138473159Y-115385616D01*
X138414999Y-115677999D01*
X138415000Y-115678004D01*
X138415000Y-115832560D01*
X138225000Y-115832560D01*
X138095411Y-115856944D01*
X137975000Y-115832560D01*
X137425000Y-115832560D01*
X137295411Y-115856944D01*
X137175000Y-115832560D01*
X136897440Y-115832560D01*
X136897440Y-115555000D01*
X136873056Y-115425411D01*
X136897440Y-115305000D01*
X136897440Y-115115000D01*
X138584528Y-115115000D01*
X138506177Y-115303689D01*
G36*
X184511325Y-102417633D02*
X184768358Y-102468760D01*
X184885910Y-102651441D01*
X185098110Y-102796431D01*
X185350000Y-102847440D01*
X186011174Y-102847440D01*
X186200000Y-102885000D01*
X188468000Y-102885000D01*
X188468000Y-105414869D01*
X188273340Y-105609190D01*
X187643718Y-107125487D01*
X187642285Y-108767310D01*
X188269259Y-110284704D01*
X188468000Y-110483792D01*
X188468000Y-113415000D01*
X188056579Y-113415000D01*
X186247440Y-111605860D01*
X186247440Y-111360000D01*
X186203162Y-111124683D01*
X186177217Y-111084363D01*
X186575788Y-110685791D01*
X186575791Y-110685789D01*
X186767634Y-110398674D01*
X186776502Y-110354090D01*
X186835002Y-110059999D01*
X186835001Y-110059994D01*
X186835001Y-105200006D01*
X186835002Y-105200001D01*
X186767634Y-104861326D01*
X186716634Y-104784999D01*
X186575791Y-104574211D01*
X186575788Y-104574209D01*
X184233732Y-102232152D01*
X184511325Y-102417633D01*
X184511325Y-102417633D01*
G37*
X184511325Y-102417633D02*
X184768358Y-102468760D01*
X184885910Y-102651441D01*
X185098110Y-102796431D01*
X185350000Y-102847440D01*
X186011174Y-102847440D01*
X186200000Y-102885000D01*
X188468000Y-102885000D01*
X188468000Y-105414869D01*
X188273340Y-105609190D01*
X187643718Y-107125487D01*
X187642285Y-108767310D01*
X188269259Y-110284704D01*
X188468000Y-110483792D01*
X188468000Y-113415000D01*
X188056579Y-113415000D01*
X186247440Y-111605860D01*
X186247440Y-111360000D01*
X186203162Y-111124683D01*
X186177217Y-111084363D01*
X186575788Y-110685791D01*
X186575791Y-110685789D01*
X186767634Y-110398674D01*
X186776502Y-110354090D01*
X186835002Y-110059999D01*
X186835001Y-110059994D01*
X186835001Y-105200006D01*
X186835002Y-105200001D01*
X186767634Y-104861326D01*
X186716634Y-104784999D01*
X186575791Y-104574211D01*
X186575788Y-104574209D01*
X184233732Y-102232152D01*
X184511325Y-102417633D01*
G36*
X142225000Y-110227440D02*
X142502560Y-110227440D01*
X142502560Y-110505000D01*
X142526944Y-110634589D01*
X142502560Y-110755000D01*
X142502560Y-111305000D01*
X142526944Y-111434589D01*
X142502560Y-111555000D01*
X142502560Y-112105000D01*
X142522450Y-112210705D01*
X142515000Y-112228690D01*
X142515000Y-112344250D01*
X142611401Y-112440651D01*
X142651520Y-112502998D01*
X142515000Y-112502998D01*
X142515000Y-112571853D01*
X142367516Y-112601190D01*
X142311325Y-112612367D01*
X142024210Y-112804210D01*
X142024208Y-112804213D01*
X141483420Y-113345000D01*
X136885000Y-113345000D01*
X136885000Y-113302998D01*
X136746600Y-113302998D01*
X136790495Y-113238755D01*
X136885000Y-113144250D01*
X136885000Y-113028690D01*
X136876532Y-113008247D01*
X136897440Y-112905000D01*
X136897440Y-112355000D01*
X136877550Y-112249295D01*
X136885000Y-112231310D01*
X136885000Y-112115750D01*
X136788599Y-112019349D01*
X136714090Y-111903559D01*
X136606603Y-111830116D01*
X136701441Y-111769090D01*
X136790495Y-111638755D01*
X136885000Y-111544250D01*
X136885000Y-111428690D01*
X136876532Y-111408247D01*
X136888324Y-111350018D01*
X137074173Y-111536192D01*
X137417701Y-111678838D01*
X137789667Y-111679162D01*
X138049214Y-111571920D01*
X138306701Y-111678838D01*
X138678667Y-111679162D01*
X139022443Y-111537117D01*
X139285692Y-111274327D01*
X139428338Y-110930799D01*
X139428662Y-110558833D01*
X139378500Y-110437431D01*
X139378500Y-110227440D01*
X139575000Y-110227440D01*
X139704589Y-110203056D01*
X139825000Y-110227440D01*
X140375000Y-110227440D01*
X140504589Y-110203056D01*
X140625000Y-110227440D01*
X141175000Y-110227440D01*
X141304589Y-110203056D01*
X141425000Y-110227440D01*
X141975000Y-110227440D01*
X142104589Y-110203056D01*
X142225000Y-110227440D01*
X142225000Y-110227440D01*
G37*
X142225000Y-110227440D02*
X142502560Y-110227440D01*
X142502560Y-110505000D01*
X142526944Y-110634589D01*
X142502560Y-110755000D01*
X142502560Y-111305000D01*
X142526944Y-111434589D01*
X142502560Y-111555000D01*
X142502560Y-112105000D01*
X142522450Y-112210705D01*
X142515000Y-112228690D01*
X142515000Y-112344250D01*
X142611401Y-112440651D01*
X142651520Y-112502998D01*
X142515000Y-112502998D01*
X142515000Y-112571853D01*
X142367516Y-112601190D01*
X142311325Y-112612367D01*
X142024210Y-112804210D01*
X142024208Y-112804213D01*
X141483420Y-113345000D01*
X136885000Y-113345000D01*
X136885000Y-113302998D01*
X136746600Y-113302998D01*
X136790495Y-113238755D01*
X136885000Y-113144250D01*
X136885000Y-113028690D01*
X136876532Y-113008247D01*
X136897440Y-112905000D01*
X136897440Y-112355000D01*
X136877550Y-112249295D01*
X136885000Y-112231310D01*
X136885000Y-112115750D01*
X136788599Y-112019349D01*
X136714090Y-111903559D01*
X136606603Y-111830116D01*
X136701441Y-111769090D01*
X136790495Y-111638755D01*
X136885000Y-111544250D01*
X136885000Y-111428690D01*
X136876532Y-111408247D01*
X136888324Y-111350018D01*
X137074173Y-111536192D01*
X137417701Y-111678838D01*
X137789667Y-111679162D01*
X138049214Y-111571920D01*
X138306701Y-111678838D01*
X138678667Y-111679162D01*
X139022443Y-111537117D01*
X139285692Y-111274327D01*
X139428338Y-110930799D01*
X139428662Y-110558833D01*
X139378500Y-110437431D01*
X139378500Y-110227440D01*
X139575000Y-110227440D01*
X139704589Y-110203056D01*
X139825000Y-110227440D01*
X140375000Y-110227440D01*
X140504589Y-110203056D01*
X140625000Y-110227440D01*
X141175000Y-110227440D01*
X141304589Y-110203056D01*
X141425000Y-110227440D01*
X141975000Y-110227440D01*
X142104589Y-110203056D01*
X142225000Y-110227440D01*
G36*
X156025032Y-110130973D02*
X156145531Y-110363000D01*
X157353000Y-110363000D01*
X157353000Y-110343000D01*
X157607000Y-110343000D01*
X157607000Y-110363000D01*
X157627000Y-110363000D01*
X157627000Y-110617000D01*
X157607000Y-110617000D01*
X157607000Y-110637000D01*
X157353000Y-110637000D01*
X157353000Y-110617000D01*
X156145531Y-110617000D01*
X156025032Y-110849027D01*
X156273179Y-111378490D01*
X156691161Y-111760008D01*
X156420330Y-111940971D01*
X156284002Y-112145000D01*
X152664640Y-112145000D01*
X154820637Y-109989002D01*
X156091571Y-109989002D01*
X156025032Y-110130973D01*
X156025032Y-110130973D01*
G37*
X156025032Y-110130973D02*
X156145531Y-110363000D01*
X157353000Y-110363000D01*
X157353000Y-110343000D01*
X157607000Y-110343000D01*
X157607000Y-110363000D01*
X157627000Y-110363000D01*
X157627000Y-110617000D01*
X157607000Y-110617000D01*
X157607000Y-110637000D01*
X157353000Y-110637000D01*
X157353000Y-110617000D01*
X156145531Y-110617000D01*
X156025032Y-110849027D01*
X156273179Y-111378490D01*
X156691161Y-111760008D01*
X156420330Y-111940971D01*
X156284002Y-112145000D01*
X152664640Y-112145000D01*
X154820637Y-109989002D01*
X156091571Y-109989002D01*
X156025032Y-110130973D01*
G36*
X181402560Y-102200000D02*
X181446838Y-102435317D01*
X181585910Y-102651441D01*
X181798110Y-102796431D01*
X182050000Y-102847440D01*
X182345860Y-102847440D01*
X184880981Y-105382560D01*
X184750000Y-105382560D01*
X184514683Y-105426838D01*
X184298559Y-105565910D01*
X184153569Y-105778110D01*
X184150919Y-105791197D01*
X184014090Y-105578559D01*
X183801890Y-105433569D01*
X183550000Y-105382560D01*
X182850000Y-105382560D01*
X182614683Y-105426838D01*
X182398559Y-105565910D01*
X182253569Y-105778110D01*
X182250149Y-105795000D01*
X180975005Y-105795000D01*
X180975000Y-105794999D01*
X180636326Y-105862366D01*
X180568579Y-105907633D01*
X180349210Y-106054210D01*
X180349208Y-106054213D01*
X175020860Y-111382560D01*
X174370000Y-111382560D01*
X174251171Y-111404919D01*
X174289838Y-111311799D01*
X174290162Y-110939833D01*
X174148117Y-110596057D01*
X173885327Y-110332808D01*
X173764013Y-110282434D01*
X172747440Y-109265860D01*
X172747440Y-109190000D01*
X172703162Y-108954683D01*
X172568677Y-108745687D01*
X172646431Y-108631890D01*
X172697440Y-108380000D01*
X172697440Y-107180000D01*
X172653162Y-106944683D01*
X172514090Y-106728559D01*
X172444289Y-106680866D01*
X172501441Y-106644090D01*
X172646431Y-106431890D01*
X172674152Y-106295000D01*
X173722560Y-106295000D01*
X173722560Y-106410000D01*
X173766838Y-106645317D01*
X173905910Y-106861441D01*
X174118110Y-107006431D01*
X174370000Y-107057440D01*
X176150000Y-107057440D01*
X176385317Y-107013162D01*
X176530877Y-106919497D01*
X176658110Y-107006431D01*
X176910000Y-107057440D01*
X178690000Y-107057440D01*
X178925317Y-107013162D01*
X179141441Y-106874090D01*
X179286431Y-106661890D01*
X179337440Y-106410000D01*
X179337440Y-104410000D01*
X179293162Y-104174683D01*
X179154090Y-103958559D01*
X178941890Y-103813569D01*
X178690000Y-103762560D01*
X178428320Y-103762560D01*
X178477440Y-103520000D01*
X178477440Y-102220000D01*
X178433162Y-101984683D01*
X178294090Y-101768559D01*
X178081890Y-101623569D01*
X177830000Y-101572560D01*
X177829019Y-101572560D01*
X178016580Y-101384999D01*
X181402560Y-101384999D01*
X181402560Y-102200000D01*
X181402560Y-102200000D01*
G37*
X181402560Y-102200000D02*
X181446838Y-102435317D01*
X181585910Y-102651441D01*
X181798110Y-102796431D01*
X182050000Y-102847440D01*
X182345860Y-102847440D01*
X184880981Y-105382560D01*
X184750000Y-105382560D01*
X184514683Y-105426838D01*
X184298559Y-105565910D01*
X184153569Y-105778110D01*
X184150919Y-105791197D01*
X184014090Y-105578559D01*
X183801890Y-105433569D01*
X183550000Y-105382560D01*
X182850000Y-105382560D01*
X182614683Y-105426838D01*
X182398559Y-105565910D01*
X182253569Y-105778110D01*
X182250149Y-105795000D01*
X180975005Y-105795000D01*
X180975000Y-105794999D01*
X180636326Y-105862366D01*
X180568579Y-105907633D01*
X180349210Y-106054210D01*
X180349208Y-106054213D01*
X175020860Y-111382560D01*
X174370000Y-111382560D01*
X174251171Y-111404919D01*
X174289838Y-111311799D01*
X174290162Y-110939833D01*
X174148117Y-110596057D01*
X173885327Y-110332808D01*
X173764013Y-110282434D01*
X172747440Y-109265860D01*
X172747440Y-109190000D01*
X172703162Y-108954683D01*
X172568677Y-108745687D01*
X172646431Y-108631890D01*
X172697440Y-108380000D01*
X172697440Y-107180000D01*
X172653162Y-106944683D01*
X172514090Y-106728559D01*
X172444289Y-106680866D01*
X172501441Y-106644090D01*
X172646431Y-106431890D01*
X172674152Y-106295000D01*
X173722560Y-106295000D01*
X173722560Y-106410000D01*
X173766838Y-106645317D01*
X173905910Y-106861441D01*
X174118110Y-107006431D01*
X174370000Y-107057440D01*
X176150000Y-107057440D01*
X176385317Y-107013162D01*
X176530877Y-106919497D01*
X176658110Y-107006431D01*
X176910000Y-107057440D01*
X178690000Y-107057440D01*
X178925317Y-107013162D01*
X179141441Y-106874090D01*
X179286431Y-106661890D01*
X179337440Y-106410000D01*
X179337440Y-104410000D01*
X179293162Y-104174683D01*
X179154090Y-103958559D01*
X178941890Y-103813569D01*
X178690000Y-103762560D01*
X178428320Y-103762560D01*
X178477440Y-103520000D01*
X178477440Y-102220000D01*
X178433162Y-101984683D01*
X178294090Y-101768559D01*
X178081890Y-101623569D01*
X177830000Y-101572560D01*
X177829019Y-101572560D01*
X178016580Y-101384999D01*
X181402560Y-101384999D01*
X181402560Y-102200000D01*
G36*
X138685046Y-105773626D02*
X138473264Y-105731499D01*
X138473259Y-105731500D01*
X138355822Y-105731500D01*
X138235799Y-105681662D01*
X137863833Y-105681338D01*
X137520057Y-105823383D01*
X137256808Y-106086173D01*
X137114162Y-106429701D01*
X137113838Y-106801667D01*
X137255883Y-107145443D01*
X137442674Y-107332560D01*
X137425000Y-107332560D01*
X137295411Y-107356944D01*
X137175000Y-107332560D01*
X136625000Y-107332560D01*
X136389683Y-107376838D01*
X136173559Y-107515910D01*
X136028569Y-107728110D01*
X135977560Y-107980000D01*
X135977560Y-108285076D01*
X135704833Y-108284838D01*
X135361057Y-108426883D01*
X135097808Y-108689673D01*
X134955162Y-109033201D01*
X134954923Y-109307560D01*
X134650000Y-109307560D01*
X134414683Y-109351838D01*
X134198559Y-109490910D01*
X134053569Y-109703110D01*
X134002560Y-109955000D01*
X134002560Y-110046976D01*
X133759099Y-109803515D01*
X133679497Y-109750327D01*
X133471984Y-109611672D01*
X133401406Y-109597633D01*
X133133309Y-109544304D01*
X133133304Y-109544305D01*
X132600886Y-109544305D01*
X128722508Y-105665927D01*
X138577347Y-105665927D01*
X138685046Y-105773626D01*
X138685046Y-105773626D01*
G37*
X138685046Y-105773626D02*
X138473264Y-105731499D01*
X138473259Y-105731500D01*
X138355822Y-105731500D01*
X138235799Y-105681662D01*
X137863833Y-105681338D01*
X137520057Y-105823383D01*
X137256808Y-106086173D01*
X137114162Y-106429701D01*
X137113838Y-106801667D01*
X137255883Y-107145443D01*
X137442674Y-107332560D01*
X137425000Y-107332560D01*
X137295411Y-107356944D01*
X137175000Y-107332560D01*
X136625000Y-107332560D01*
X136389683Y-107376838D01*
X136173559Y-107515910D01*
X136028569Y-107728110D01*
X135977560Y-107980000D01*
X135977560Y-108285076D01*
X135704833Y-108284838D01*
X135361057Y-108426883D01*
X135097808Y-108689673D01*
X134955162Y-109033201D01*
X134954923Y-109307560D01*
X134650000Y-109307560D01*
X134414683Y-109351838D01*
X134198559Y-109490910D01*
X134053569Y-109703110D01*
X134002560Y-109955000D01*
X134002560Y-110046976D01*
X133759099Y-109803515D01*
X133679497Y-109750327D01*
X133471984Y-109611672D01*
X133401406Y-109597633D01*
X133133309Y-109544304D01*
X133133304Y-109544305D01*
X132600886Y-109544305D01*
X128722508Y-105665927D01*
X138577347Y-105665927D01*
X138685046Y-105773626D01*
G36*
X153068110Y-90146431D02*
X153320000Y-90197440D01*
X153715860Y-90197440D01*
X155113420Y-91594999D01*
X154875006Y-91594999D01*
X154875001Y-91594998D01*
X154592517Y-91651189D01*
X154536326Y-91662366D01*
X154249211Y-91854209D01*
X154249209Y-91854212D01*
X153420860Y-92682560D01*
X153325000Y-92682560D01*
X153089683Y-92726838D01*
X152873559Y-92865910D01*
X152728569Y-93078110D01*
X152677560Y-93330000D01*
X152677560Y-94630000D01*
X152721838Y-94865317D01*
X152790000Y-94971244D01*
X152790000Y-107832421D01*
X150745000Y-109877421D01*
X150745000Y-92226580D01*
X152923771Y-90047808D01*
X153068110Y-90146431D01*
X153068110Y-90146431D01*
G37*
X153068110Y-90146431D02*
X153320000Y-90197440D01*
X153715860Y-90197440D01*
X155113420Y-91594999D01*
X154875006Y-91594999D01*
X154875001Y-91594998D01*
X154592517Y-91651189D01*
X154536326Y-91662366D01*
X154249211Y-91854209D01*
X154249209Y-91854212D01*
X153420860Y-92682560D01*
X153325000Y-92682560D01*
X153089683Y-92726838D01*
X152873559Y-92865910D01*
X152728569Y-93078110D01*
X152677560Y-93330000D01*
X152677560Y-94630000D01*
X152721838Y-94865317D01*
X152790000Y-94971244D01*
X152790000Y-107832421D01*
X150745000Y-109877421D01*
X150745000Y-92226580D01*
X152923771Y-90047808D01*
X153068110Y-90146431D01*
G36*
X175325860Y-101572560D02*
X175230000Y-101572560D01*
X174994683Y-101616838D01*
X174778559Y-101755910D01*
X174633569Y-101968110D01*
X174582560Y-102220000D01*
X174582560Y-102615861D01*
X174451420Y-102747000D01*
X166549822Y-102747000D01*
X166429799Y-102697162D01*
X166057833Y-102696838D01*
X165714057Y-102838883D01*
X165450808Y-103101673D01*
X165308162Y-103445201D01*
X165307838Y-103817167D01*
X165358000Y-103938569D01*
X165358000Y-104090530D01*
X165318559Y-104115910D01*
X165173569Y-104328110D01*
X165122560Y-104580000D01*
X165122560Y-105480000D01*
X165166838Y-105715317D01*
X165305910Y-105931441D01*
X165518110Y-106076431D01*
X165770000Y-106127440D01*
X166585001Y-106127440D01*
X166585001Y-107232560D01*
X165770000Y-107232560D01*
X165534683Y-107276838D01*
X165318559Y-107415910D01*
X165173569Y-107628110D01*
X165122560Y-107880000D01*
X165122560Y-108780000D01*
X165146105Y-108905128D01*
X165123569Y-108938110D01*
X165072560Y-109190000D01*
X165072560Y-109605000D01*
X161215998Y-109605000D01*
X161079670Y-109400971D01*
X160593489Y-109076115D01*
X160020000Y-108962041D01*
X159789475Y-109007895D01*
X159259792Y-108478212D01*
X159214314Y-108447825D01*
X158972677Y-108286369D01*
X158916486Y-108275192D01*
X158634002Y-108219001D01*
X158633997Y-108219002D01*
X154556022Y-108219002D01*
X154560001Y-108199000D01*
X154560000Y-108198995D01*
X154560000Y-104994614D01*
X154753201Y-105074838D01*
X155125167Y-105075162D01*
X155468943Y-104933117D01*
X155732192Y-104670327D01*
X155782566Y-104549014D01*
X160386579Y-99945000D01*
X176953421Y-99945000D01*
X175325860Y-101572560D01*
X175325860Y-101572560D01*
G37*
X175325860Y-101572560D02*
X175230000Y-101572560D01*
X174994683Y-101616838D01*
X174778559Y-101755910D01*
X174633569Y-101968110D01*
X174582560Y-102220000D01*
X174582560Y-102615861D01*
X174451420Y-102747000D01*
X166549822Y-102747000D01*
X166429799Y-102697162D01*
X166057833Y-102696838D01*
X165714057Y-102838883D01*
X165450808Y-103101673D01*
X165308162Y-103445201D01*
X165307838Y-103817167D01*
X165358000Y-103938569D01*
X165358000Y-104090530D01*
X165318559Y-104115910D01*
X165173569Y-104328110D01*
X165122560Y-104580000D01*
X165122560Y-105480000D01*
X165166838Y-105715317D01*
X165305910Y-105931441D01*
X165518110Y-106076431D01*
X165770000Y-106127440D01*
X166585001Y-106127440D01*
X166585001Y-107232560D01*
X165770000Y-107232560D01*
X165534683Y-107276838D01*
X165318559Y-107415910D01*
X165173569Y-107628110D01*
X165122560Y-107880000D01*
X165122560Y-108780000D01*
X165146105Y-108905128D01*
X165123569Y-108938110D01*
X165072560Y-109190000D01*
X165072560Y-109605000D01*
X161215998Y-109605000D01*
X161079670Y-109400971D01*
X160593489Y-109076115D01*
X160020000Y-108962041D01*
X159789475Y-109007895D01*
X159259792Y-108478212D01*
X159214314Y-108447825D01*
X158972677Y-108286369D01*
X158916486Y-108275192D01*
X158634002Y-108219001D01*
X158633997Y-108219002D01*
X154556022Y-108219002D01*
X154560001Y-108199000D01*
X154560000Y-108198995D01*
X154560000Y-104994614D01*
X154753201Y-105074838D01*
X155125167Y-105075162D01*
X155468943Y-104933117D01*
X155732192Y-104670327D01*
X155782566Y-104549014D01*
X160386579Y-99945000D01*
X176953421Y-99945000D01*
X175325860Y-101572560D01*
G36*
X170253569Y-104728110D02*
X170202560Y-104980000D01*
X170202560Y-106180000D01*
X170246838Y-106415317D01*
X170385910Y-106631441D01*
X170455711Y-106679134D01*
X170398559Y-106715910D01*
X170253569Y-106928110D01*
X170202560Y-107180000D01*
X170202560Y-108380000D01*
X170246838Y-108615317D01*
X170332823Y-108748941D01*
X170203569Y-108938110D01*
X170152560Y-109190000D01*
X170152560Y-109190981D01*
X168355001Y-107393421D01*
X168355001Y-104859001D01*
X168287634Y-104520326D01*
X168285412Y-104517000D01*
X170397814Y-104517000D01*
X170253569Y-104728110D01*
X170253569Y-104728110D01*
G37*
X170253569Y-104728110D02*
X170202560Y-104980000D01*
X170202560Y-106180000D01*
X170246838Y-106415317D01*
X170385910Y-106631441D01*
X170455711Y-106679134D01*
X170398559Y-106715910D01*
X170253569Y-106928110D01*
X170202560Y-107180000D01*
X170202560Y-108380000D01*
X170246838Y-108615317D01*
X170332823Y-108748941D01*
X170203569Y-108938110D01*
X170152560Y-109190000D01*
X170152560Y-109190981D01*
X168355001Y-107393421D01*
X168355001Y-104859001D01*
X168287634Y-104520326D01*
X168285412Y-104517000D01*
X170397814Y-104517000D01*
X170253569Y-104728110D01*
G36*
X134431325Y-95432633D02*
X134487516Y-95443810D01*
X134644815Y-95475100D01*
X134622560Y-95585000D01*
X134622560Y-96185000D01*
X134666838Y-96420317D01*
X134805910Y-96636441D01*
X135018110Y-96781431D01*
X135270000Y-96832440D01*
X137100500Y-96832440D01*
X137100500Y-102761820D01*
X137100499Y-102761825D01*
X137122017Y-102870000D01*
X137167867Y-103100500D01*
X137326554Y-103337993D01*
X137359710Y-103387615D01*
X137868022Y-103895927D01*
X128024136Y-103895927D01*
X127904113Y-103846089D01*
X127532147Y-103845765D01*
X127188371Y-103987810D01*
X127116318Y-104059737D01*
X121961583Y-98905001D01*
X128989996Y-98905001D01*
X128990001Y-98905002D01*
X129272485Y-98848811D01*
X129328676Y-98837634D01*
X129615791Y-98645791D01*
X132926583Y-95334998D01*
X134285203Y-95334998D01*
X134431325Y-95432633D01*
X134431325Y-95432633D01*
G37*
X134431325Y-95432633D02*
X134487516Y-95443810D01*
X134644815Y-95475100D01*
X134622560Y-95585000D01*
X134622560Y-96185000D01*
X134666838Y-96420317D01*
X134805910Y-96636441D01*
X135018110Y-96781431D01*
X135270000Y-96832440D01*
X137100500Y-96832440D01*
X137100500Y-102761820D01*
X137100499Y-102761825D01*
X137122017Y-102870000D01*
X137167867Y-103100500D01*
X137326554Y-103337993D01*
X137359710Y-103387615D01*
X137868022Y-103895927D01*
X128024136Y-103895927D01*
X127904113Y-103846089D01*
X127532147Y-103845765D01*
X127188371Y-103987810D01*
X127116318Y-104059737D01*
X121961583Y-98905001D01*
X128989996Y-98905001D01*
X128990001Y-98905002D01*
X129272485Y-98848811D01*
X129328676Y-98837634D01*
X129615791Y-98645791D01*
X132926583Y-95334998D01*
X134285203Y-95334998D01*
X134431325Y-95432633D01*
G36*
X186325284Y-93653352D02*
X186324716Y-94303795D01*
X186573106Y-94904943D01*
X187032637Y-95365278D01*
X187108006Y-95396574D01*
X186776371Y-95727630D01*
X186563243Y-96240900D01*
X186562758Y-96796661D01*
X186774990Y-97310303D01*
X187167630Y-97703629D01*
X187680900Y-97916757D01*
X188236661Y-97917242D01*
X188468000Y-97821655D01*
X188468000Y-98175000D01*
X160020005Y-98175000D01*
X160020000Y-98174999D01*
X159737516Y-98231190D01*
X159681325Y-98242367D01*
X159394210Y-98434210D01*
X159394208Y-98434213D01*
X154560000Y-103268420D01*
X154560000Y-97052532D01*
X162897073Y-97052532D01*
X162995736Y-97319387D01*
X163605461Y-97545908D01*
X164255460Y-97521856D01*
X164744264Y-97319387D01*
X164842927Y-97052532D01*
X163870000Y-96079605D01*
X162897073Y-97052532D01*
X154560000Y-97052532D01*
X154560000Y-94971797D01*
X154621431Y-94881890D01*
X154624081Y-94868803D01*
X154760910Y-95081441D01*
X154973110Y-95226431D01*
X155225000Y-95277440D01*
X155925000Y-95277440D01*
X156160317Y-95233162D01*
X156376441Y-95094090D01*
X156521431Y-94881890D01*
X156524851Y-94865000D01*
X162655392Y-94865000D01*
X162717466Y-94927074D01*
X162450613Y-95025736D01*
X162224092Y-95635461D01*
X162248144Y-96285460D01*
X162450613Y-96774264D01*
X162717468Y-96872927D01*
X163690395Y-95900000D01*
X163676253Y-95885858D01*
X163855858Y-95706253D01*
X163870000Y-95720395D01*
X163884143Y-95706253D01*
X164063748Y-95885858D01*
X164049605Y-95900000D01*
X165022532Y-96872927D01*
X165289387Y-96774264D01*
X165515908Y-96164539D01*
X165491856Y-95514540D01*
X165289387Y-95025736D01*
X165022534Y-94927074D01*
X165084608Y-94865000D01*
X166583420Y-94865000D01*
X167251858Y-95533437D01*
X167235284Y-95573352D01*
X167234716Y-96223795D01*
X167483106Y-96824943D01*
X167942637Y-97285278D01*
X168543352Y-97534716D01*
X169193795Y-97535284D01*
X169794943Y-97286894D01*
X170255278Y-96827363D01*
X170504716Y-96226648D01*
X170505284Y-95576205D01*
X170256894Y-94975057D01*
X169797363Y-94514722D01*
X169196648Y-94265284D01*
X168546205Y-94264716D01*
X168503812Y-94282232D01*
X167586579Y-93364999D01*
X186445018Y-93364999D01*
X186325284Y-93653352D01*
X186325284Y-93653352D01*
G37*
X186325284Y-93653352D02*
X186324716Y-94303795D01*
X186573106Y-94904943D01*
X187032637Y-95365278D01*
X187108006Y-95396574D01*
X186776371Y-95727630D01*
X186563243Y-96240900D01*
X186562758Y-96796661D01*
X186774990Y-97310303D01*
X187167630Y-97703629D01*
X187680900Y-97916757D01*
X188236661Y-97917242D01*
X188468000Y-97821655D01*
X188468000Y-98175000D01*
X160020005Y-98175000D01*
X160020000Y-98174999D01*
X159737516Y-98231190D01*
X159681325Y-98242367D01*
X159394210Y-98434210D01*
X159394208Y-98434213D01*
X154560000Y-103268420D01*
X154560000Y-97052532D01*
X162897073Y-97052532D01*
X162995736Y-97319387D01*
X163605461Y-97545908D01*
X164255460Y-97521856D01*
X164744264Y-97319387D01*
X164842927Y-97052532D01*
X163870000Y-96079605D01*
X162897073Y-97052532D01*
X154560000Y-97052532D01*
X154560000Y-94971797D01*
X154621431Y-94881890D01*
X154624081Y-94868803D01*
X154760910Y-95081441D01*
X154973110Y-95226431D01*
X155225000Y-95277440D01*
X155925000Y-95277440D01*
X156160317Y-95233162D01*
X156376441Y-95094090D01*
X156521431Y-94881890D01*
X156524851Y-94865000D01*
X162655392Y-94865000D01*
X162717466Y-94927074D01*
X162450613Y-95025736D01*
X162224092Y-95635461D01*
X162248144Y-96285460D01*
X162450613Y-96774264D01*
X162717468Y-96872927D01*
X163690395Y-95900000D01*
X163676253Y-95885858D01*
X163855858Y-95706253D01*
X163870000Y-95720395D01*
X163884143Y-95706253D01*
X164063748Y-95885858D01*
X164049605Y-95900000D01*
X165022532Y-96872927D01*
X165289387Y-96774264D01*
X165515908Y-96164539D01*
X165491856Y-95514540D01*
X165289387Y-95025736D01*
X165022534Y-94927074D01*
X165084608Y-94865000D01*
X166583420Y-94865000D01*
X167251858Y-95533437D01*
X167235284Y-95573352D01*
X167234716Y-96223795D01*
X167483106Y-96824943D01*
X167942637Y-97285278D01*
X168543352Y-97534716D01*
X169193795Y-97535284D01*
X169794943Y-97286894D01*
X170255278Y-96827363D01*
X170504716Y-96226648D01*
X170505284Y-95576205D01*
X170256894Y-94975057D01*
X169797363Y-94514722D01*
X169196648Y-94265284D01*
X168546205Y-94264716D01*
X168503812Y-94282232D01*
X167586579Y-93364999D01*
X186445018Y-93364999D01*
X186325284Y-93653352D01*
G36*
X188468000Y-101115000D02*
X186897440Y-101115000D01*
X186897440Y-101000000D01*
X186853162Y-100764683D01*
X186714090Y-100548559D01*
X186501890Y-100403569D01*
X186250000Y-100352560D01*
X185350000Y-100352560D01*
X185114683Y-100396838D01*
X184983093Y-100481514D01*
X184446580Y-99945000D01*
X188468000Y-99945000D01*
X188468000Y-101115000D01*
X188468000Y-101115000D01*
G37*
X188468000Y-101115000D02*
X186897440Y-101115000D01*
X186897440Y-101000000D01*
X186853162Y-100764683D01*
X186714090Y-100548559D01*
X186501890Y-100403569D01*
X186250000Y-100352560D01*
X185350000Y-100352560D01*
X185114683Y-100396838D01*
X184983093Y-100481514D01*
X184446580Y-99945000D01*
X188468000Y-99945000D01*
X188468000Y-101115000D01*
G36*
X198454838Y-85275167D02*
X198596883Y-85618943D01*
X198859673Y-85882192D01*
X199203201Y-86024838D01*
X199575167Y-86025162D01*
X199715928Y-85967001D01*
X206209079Y-85967001D01*
X206130907Y-86360000D01*
X206243946Y-86928285D01*
X206565853Y-87410054D01*
X206895026Y-87630000D01*
X206565853Y-87849946D01*
X206455568Y-88015000D01*
X203719619Y-88015000D01*
X203719614Y-88014999D01*
X203417975Y-88075000D01*
X203380939Y-88082367D01*
X203093824Y-88274210D01*
X203093822Y-88274213D01*
X197214850Y-94153184D01*
X197215284Y-93656205D01*
X196966894Y-93055057D01*
X196507363Y-92594722D01*
X195906648Y-92345284D01*
X195256205Y-92344716D01*
X194655057Y-92593106D01*
X194194722Y-93052637D01*
X193945284Y-93653352D01*
X193944716Y-94303795D01*
X194193106Y-94904943D01*
X194652637Y-95365278D01*
X195253352Y-95614716D01*
X195903795Y-95615284D01*
X196492150Y-95372180D01*
X196492145Y-95377474D01*
X196634190Y-95721250D01*
X196706117Y-95793303D01*
X194836420Y-97663000D01*
X193605000Y-97663000D01*
X193605000Y-96540003D01*
X193605001Y-96539998D01*
X193546431Y-96245552D01*
X193537633Y-96201323D01*
X193345790Y-95914208D01*
X193345787Y-95914206D01*
X190785792Y-93354210D01*
X190729949Y-93316897D01*
X190498677Y-93162367D01*
X190442486Y-93151190D01*
X190361848Y-93135150D01*
X190405789Y-93105789D01*
X193459046Y-90052532D01*
X194607073Y-90052532D01*
X194705736Y-90319387D01*
X195315461Y-90545908D01*
X195965460Y-90521856D01*
X196454264Y-90319387D01*
X196552927Y-90052532D01*
X195580000Y-89079605D01*
X194607073Y-90052532D01*
X193459046Y-90052532D01*
X194036632Y-89474946D01*
X194160613Y-89774264D01*
X194427468Y-89872927D01*
X195400395Y-88900000D01*
X195759605Y-88900000D01*
X196732532Y-89872927D01*
X196999387Y-89774264D01*
X197225908Y-89164539D01*
X197201856Y-88514540D01*
X196999387Y-88025736D01*
X196732532Y-87927073D01*
X195759605Y-88900000D01*
X195400395Y-88900000D01*
X195386253Y-88885858D01*
X195565858Y-88706253D01*
X195580000Y-88720395D01*
X196552927Y-87747468D01*
X196454264Y-87480613D01*
X196145627Y-87365950D01*
X198455028Y-85056549D01*
X198454838Y-85275167D01*
X198454838Y-85275167D01*
G37*
X198454838Y-85275167D02*
X198596883Y-85618943D01*
X198859673Y-85882192D01*
X199203201Y-86024838D01*
X199575167Y-86025162D01*
X199715928Y-85967001D01*
X206209079Y-85967001D01*
X206130907Y-86360000D01*
X206243946Y-86928285D01*
X206565853Y-87410054D01*
X206895026Y-87630000D01*
X206565853Y-87849946D01*
X206455568Y-88015000D01*
X203719619Y-88015000D01*
X203719614Y-88014999D01*
X203417975Y-88075000D01*
X203380939Y-88082367D01*
X203093824Y-88274210D01*
X203093822Y-88274213D01*
X197214850Y-94153184D01*
X197215284Y-93656205D01*
X196966894Y-93055057D01*
X196507363Y-92594722D01*
X195906648Y-92345284D01*
X195256205Y-92344716D01*
X194655057Y-92593106D01*
X194194722Y-93052637D01*
X193945284Y-93653352D01*
X193944716Y-94303795D01*
X194193106Y-94904943D01*
X194652637Y-95365278D01*
X195253352Y-95614716D01*
X195903795Y-95615284D01*
X196492150Y-95372180D01*
X196492145Y-95377474D01*
X196634190Y-95721250D01*
X196706117Y-95793303D01*
X194836420Y-97663000D01*
X193605000Y-97663000D01*
X193605000Y-96540003D01*
X193605001Y-96539998D01*
X193546431Y-96245552D01*
X193537633Y-96201323D01*
X193345790Y-95914208D01*
X193345787Y-95914206D01*
X190785792Y-93354210D01*
X190729949Y-93316897D01*
X190498677Y-93162367D01*
X190442486Y-93151190D01*
X190361848Y-93135150D01*
X190405789Y-93105789D01*
X193459046Y-90052532D01*
X194607073Y-90052532D01*
X194705736Y-90319387D01*
X195315461Y-90545908D01*
X195965460Y-90521856D01*
X196454264Y-90319387D01*
X196552927Y-90052532D01*
X195580000Y-89079605D01*
X194607073Y-90052532D01*
X193459046Y-90052532D01*
X194036632Y-89474946D01*
X194160613Y-89774264D01*
X194427468Y-89872927D01*
X195400395Y-88900000D01*
X195759605Y-88900000D01*
X196732532Y-89872927D01*
X196999387Y-89774264D01*
X197225908Y-89164539D01*
X197201856Y-88514540D01*
X196999387Y-88025736D01*
X196732532Y-87927073D01*
X195759605Y-88900000D01*
X195400395Y-88900000D01*
X195386253Y-88885858D01*
X195565858Y-88706253D01*
X195580000Y-88720395D01*
X196552927Y-87747468D01*
X196454264Y-87480613D01*
X196145627Y-87365950D01*
X198455028Y-85056549D01*
X198454838Y-85275167D01*
G36*
X125190185Y-93666795D02*
X125533713Y-93809441D01*
X125608758Y-93809506D01*
X125635383Y-93873943D01*
X125898173Y-94137192D01*
X126241701Y-94279838D01*
X126613667Y-94280162D01*
X126735069Y-94230000D01*
X131528423Y-94230000D01*
X129804977Y-95953445D01*
X129656894Y-95595057D01*
X129197363Y-95134722D01*
X128596648Y-94885284D01*
X127946205Y-94884716D01*
X127345057Y-95133106D01*
X126999801Y-95477759D01*
X126657363Y-95134722D01*
X126056648Y-94885284D01*
X125406205Y-94884716D01*
X124805057Y-95133106D01*
X124459801Y-95477759D01*
X124117363Y-95134722D01*
X124075000Y-95117131D01*
X124075000Y-94634690D01*
X125116604Y-93593086D01*
X125190185Y-93666795D01*
X125190185Y-93666795D01*
G37*
X125190185Y-93666795D02*
X125533713Y-93809441D01*
X125608758Y-93809506D01*
X125635383Y-93873943D01*
X125898173Y-94137192D01*
X126241701Y-94279838D01*
X126613667Y-94280162D01*
X126735069Y-94230000D01*
X131528423Y-94230000D01*
X129804977Y-95953445D01*
X129656894Y-95595057D01*
X129197363Y-95134722D01*
X128596648Y-94885284D01*
X127946205Y-94884716D01*
X127345057Y-95133106D01*
X126999801Y-95477759D01*
X126657363Y-95134722D01*
X126056648Y-94885284D01*
X125406205Y-94884716D01*
X124805057Y-95133106D01*
X124459801Y-95477759D01*
X124117363Y-95134722D01*
X124075000Y-95117131D01*
X124075000Y-94634690D01*
X125116604Y-93593086D01*
X125190185Y-93666795D01*
G36*
X207495982Y-79782560D02*
X206795000Y-79782560D01*
X206559683Y-79826838D01*
X206343559Y-79965910D01*
X206198569Y-80178110D01*
X206154648Y-80395000D01*
X200979998Y-80395000D01*
X200641323Y-80462367D01*
X200354208Y-80654210D01*
X200354206Y-80654213D01*
X196976816Y-84031603D01*
X196977242Y-83543339D01*
X196765010Y-83029697D01*
X196372370Y-82636371D01*
X196164488Y-82550051D01*
X196370303Y-82465010D01*
X196763629Y-82072370D01*
X196976757Y-81559100D01*
X196977242Y-81003339D01*
X196765010Y-80489697D01*
X196372370Y-80096371D01*
X195859100Y-79883243D01*
X195303339Y-79882758D01*
X194789697Y-80094990D01*
X194396371Y-80487630D01*
X194183243Y-81000900D01*
X194182758Y-81556661D01*
X194394990Y-82070303D01*
X194787630Y-82463629D01*
X194995512Y-82549949D01*
X194789697Y-82634990D01*
X194396371Y-83027630D01*
X194310051Y-83235512D01*
X194225010Y-83029697D01*
X193832370Y-82636371D01*
X193319100Y-82423243D01*
X192763339Y-82422758D01*
X192249697Y-82634990D01*
X191856371Y-83027630D01*
X191770051Y-83235512D01*
X191685010Y-83029697D01*
X191292370Y-82636371D01*
X190779100Y-82423243D01*
X190223339Y-82422758D01*
X189709697Y-82634990D01*
X189316371Y-83027630D01*
X189230051Y-83235512D01*
X189145010Y-83029697D01*
X188752370Y-82636371D01*
X188239100Y-82423243D01*
X187683339Y-82422758D01*
X187169697Y-82634990D01*
X186776371Y-83027630D01*
X186563243Y-83540900D01*
X186562758Y-84096661D01*
X186774990Y-84610303D01*
X187167630Y-85003629D01*
X187680900Y-85216757D01*
X188236661Y-85217242D01*
X188750303Y-85005010D01*
X189143629Y-84612370D01*
X189229949Y-84404488D01*
X189314990Y-84610303D01*
X189707630Y-85003629D01*
X190220900Y-85216757D01*
X190776661Y-85217242D01*
X191290303Y-85005010D01*
X191683629Y-84612370D01*
X191769949Y-84404488D01*
X191854990Y-84610303D01*
X192247630Y-85003629D01*
X192760900Y-85216757D01*
X193316661Y-85217242D01*
X193830303Y-85005010D01*
X194223629Y-84612370D01*
X194309949Y-84404488D01*
X194394990Y-84610303D01*
X194787630Y-85003629D01*
X195300900Y-85216757D01*
X195791234Y-85217185D01*
X189413419Y-91594999D01*
X157144866Y-91594999D01*
X157145162Y-91254833D01*
X157003117Y-90911057D01*
X156867320Y-90775022D01*
X158974584Y-90775022D01*
X159195353Y-91145743D01*
X160167012Y-91539119D01*
X161215247Y-91530713D01*
X162144647Y-91145743D01*
X162365416Y-90775022D01*
X170374584Y-90775022D01*
X170595353Y-91145743D01*
X171567012Y-91539119D01*
X172615247Y-91530713D01*
X173544647Y-91145743D01*
X173765416Y-90775022D01*
X172070000Y-89079605D01*
X170374584Y-90775022D01*
X162365416Y-90775022D01*
X160670000Y-89079605D01*
X158974584Y-90775022D01*
X156867320Y-90775022D01*
X156740327Y-90647808D01*
X156619013Y-90597434D01*
X156167136Y-90145557D01*
X156371441Y-90014090D01*
X156516431Y-89801890D01*
X156526141Y-89753942D01*
X156652484Y-89728810D01*
X156708675Y-89717633D01*
X156995790Y-89525790D01*
X158031626Y-88489954D01*
X158039287Y-89445247D01*
X158424257Y-90374647D01*
X158794978Y-90595416D01*
X160490395Y-88900000D01*
X160849605Y-88900000D01*
X162545022Y-90595416D01*
X162915743Y-90374647D01*
X163309119Y-89402988D01*
X163301052Y-88397012D01*
X169430881Y-88397012D01*
X169439287Y-89445247D01*
X169824257Y-90374647D01*
X170194978Y-90595416D01*
X171890395Y-88900000D01*
X172249605Y-88900000D01*
X173945022Y-90595416D01*
X174315743Y-90374647D01*
X174709119Y-89402988D01*
X174707377Y-89185750D01*
X186325000Y-89185750D01*
X186325000Y-90026310D01*
X186421673Y-90259699D01*
X186600302Y-90438327D01*
X186833691Y-90535000D01*
X187674250Y-90535000D01*
X187833000Y-90376250D01*
X187833000Y-89027000D01*
X188087000Y-89027000D01*
X188087000Y-90376250D01*
X188245750Y-90535000D01*
X189086309Y-90535000D01*
X189319698Y-90438327D01*
X189498327Y-90259699D01*
X189595000Y-90026310D01*
X189595000Y-89185750D01*
X189436250Y-89027000D01*
X188087000Y-89027000D01*
X187833000Y-89027000D01*
X186483750Y-89027000D01*
X186325000Y-89185750D01*
X174707377Y-89185750D01*
X174700713Y-88354753D01*
X174460029Y-87773690D01*
X186325000Y-87773690D01*
X186325000Y-88614250D01*
X186483750Y-88773000D01*
X187833000Y-88773000D01*
X187833000Y-87423750D01*
X188087000Y-87423750D01*
X188087000Y-88773000D01*
X189436250Y-88773000D01*
X189595000Y-88614250D01*
X189595000Y-87773690D01*
X189498327Y-87540301D01*
X189319698Y-87361673D01*
X189086309Y-87265000D01*
X188245750Y-87265000D01*
X188087000Y-87423750D01*
X187833000Y-87423750D01*
X187674250Y-87265000D01*
X186833691Y-87265000D01*
X186600302Y-87361673D01*
X186421673Y-87540301D01*
X186325000Y-87773690D01*
X174460029Y-87773690D01*
X174315743Y-87425353D01*
X173945022Y-87204584D01*
X172249605Y-88900000D01*
X171890395Y-88900000D01*
X170194978Y-87204584D01*
X169824257Y-87425353D01*
X169430881Y-88397012D01*
X163301052Y-88397012D01*
X163300713Y-88354753D01*
X162915743Y-87425353D01*
X162545022Y-87204584D01*
X160849605Y-88900000D01*
X160490395Y-88900000D01*
X160476252Y-88885858D01*
X160655858Y-88706252D01*
X160670000Y-88720395D01*
X162365416Y-87024978D01*
X170374584Y-87024978D01*
X172070000Y-88720395D01*
X173765416Y-87024978D01*
X173544647Y-86654257D01*
X172572988Y-86260881D01*
X171524753Y-86269287D01*
X170595353Y-86654257D01*
X170374584Y-87024978D01*
X162365416Y-87024978D01*
X162144647Y-86654257D01*
X161172988Y-86260881D01*
X160253324Y-86268256D01*
X163503437Y-83018142D01*
X163543352Y-83034716D01*
X164193795Y-83035284D01*
X164794943Y-82786894D01*
X165029715Y-82552532D01*
X165397073Y-82552532D01*
X165495736Y-82819387D01*
X166105461Y-83045908D01*
X166755460Y-83021856D01*
X167244264Y-82819387D01*
X167342927Y-82552532D01*
X166370000Y-81579605D01*
X165397073Y-82552532D01*
X165029715Y-82552532D01*
X165211752Y-82370813D01*
X165217468Y-82372927D01*
X166190395Y-81400000D01*
X166176253Y-81385858D01*
X166355858Y-81206253D01*
X166370000Y-81220395D01*
X166384143Y-81206253D01*
X166563748Y-81385858D01*
X166549605Y-81400000D01*
X167522532Y-82372927D01*
X167528722Y-82370639D01*
X167942637Y-82785278D01*
X168543352Y-83034716D01*
X169193795Y-83035284D01*
X169794943Y-82786894D01*
X170255278Y-82327363D01*
X170504716Y-81726648D01*
X170505284Y-81076205D01*
X170256894Y-80475057D01*
X169797363Y-80014722D01*
X169196648Y-79765284D01*
X168546205Y-79764716D01*
X168503812Y-79782232D01*
X168346580Y-79625000D01*
X207338422Y-79625000D01*
X207495982Y-79782560D01*
X207495982Y-79782560D01*
G37*
X207495982Y-79782560D02*
X206795000Y-79782560D01*
X206559683Y-79826838D01*
X206343559Y-79965910D01*
X206198569Y-80178110D01*
X206154648Y-80395000D01*
X200979998Y-80395000D01*
X200641323Y-80462367D01*
X200354208Y-80654210D01*
X200354206Y-80654213D01*
X196976816Y-84031603D01*
X196977242Y-83543339D01*
X196765010Y-83029697D01*
X196372370Y-82636371D01*
X196164488Y-82550051D01*
X196370303Y-82465010D01*
X196763629Y-82072370D01*
X196976757Y-81559100D01*
X196977242Y-81003339D01*
X196765010Y-80489697D01*
X196372370Y-80096371D01*
X195859100Y-79883243D01*
X195303339Y-79882758D01*
X194789697Y-80094990D01*
X194396371Y-80487630D01*
X194183243Y-81000900D01*
X194182758Y-81556661D01*
X194394990Y-82070303D01*
X194787630Y-82463629D01*
X194995512Y-82549949D01*
X194789697Y-82634990D01*
X194396371Y-83027630D01*
X194310051Y-83235512D01*
X194225010Y-83029697D01*
X193832370Y-82636371D01*
X193319100Y-82423243D01*
X192763339Y-82422758D01*
X192249697Y-82634990D01*
X191856371Y-83027630D01*
X191770051Y-83235512D01*
X191685010Y-83029697D01*
X191292370Y-82636371D01*
X190779100Y-82423243D01*
X190223339Y-82422758D01*
X189709697Y-82634990D01*
X189316371Y-83027630D01*
X189230051Y-83235512D01*
X189145010Y-83029697D01*
X188752370Y-82636371D01*
X188239100Y-82423243D01*
X187683339Y-82422758D01*
X187169697Y-82634990D01*
X186776371Y-83027630D01*
X186563243Y-83540900D01*
X186562758Y-84096661D01*
X186774990Y-84610303D01*
X187167630Y-85003629D01*
X187680900Y-85216757D01*
X188236661Y-85217242D01*
X188750303Y-85005010D01*
X189143629Y-84612370D01*
X189229949Y-84404488D01*
X189314990Y-84610303D01*
X189707630Y-85003629D01*
X190220900Y-85216757D01*
X190776661Y-85217242D01*
X191290303Y-85005010D01*
X191683629Y-84612370D01*
X191769949Y-84404488D01*
X191854990Y-84610303D01*
X192247630Y-85003629D01*
X192760900Y-85216757D01*
X193316661Y-85217242D01*
X193830303Y-85005010D01*
X194223629Y-84612370D01*
X194309949Y-84404488D01*
X194394990Y-84610303D01*
X194787630Y-85003629D01*
X195300900Y-85216757D01*
X195791234Y-85217185D01*
X189413419Y-91594999D01*
X157144866Y-91594999D01*
X157145162Y-91254833D01*
X157003117Y-90911057D01*
X156867320Y-90775022D01*
X158974584Y-90775022D01*
X159195353Y-91145743D01*
X160167012Y-91539119D01*
X161215247Y-91530713D01*
X162144647Y-91145743D01*
X162365416Y-90775022D01*
X170374584Y-90775022D01*
X170595353Y-91145743D01*
X171567012Y-91539119D01*
X172615247Y-91530713D01*
X173544647Y-91145743D01*
X173765416Y-90775022D01*
X172070000Y-89079605D01*
X170374584Y-90775022D01*
X162365416Y-90775022D01*
X160670000Y-89079605D01*
X158974584Y-90775022D01*
X156867320Y-90775022D01*
X156740327Y-90647808D01*
X156619013Y-90597434D01*
X156167136Y-90145557D01*
X156371441Y-90014090D01*
X156516431Y-89801890D01*
X156526141Y-89753942D01*
X156652484Y-89728810D01*
X156708675Y-89717633D01*
X156995790Y-89525790D01*
X158031626Y-88489954D01*
X158039287Y-89445247D01*
X158424257Y-90374647D01*
X158794978Y-90595416D01*
X160490395Y-88900000D01*
X160849605Y-88900000D01*
X162545022Y-90595416D01*
X162915743Y-90374647D01*
X163309119Y-89402988D01*
X163301052Y-88397012D01*
X169430881Y-88397012D01*
X169439287Y-89445247D01*
X169824257Y-90374647D01*
X170194978Y-90595416D01*
X171890395Y-88900000D01*
X172249605Y-88900000D01*
X173945022Y-90595416D01*
X174315743Y-90374647D01*
X174709119Y-89402988D01*
X174707377Y-89185750D01*
X186325000Y-89185750D01*
X186325000Y-90026310D01*
X186421673Y-90259699D01*
X186600302Y-90438327D01*
X186833691Y-90535000D01*
X187674250Y-90535000D01*
X187833000Y-90376250D01*
X187833000Y-89027000D01*
X188087000Y-89027000D01*
X188087000Y-90376250D01*
X188245750Y-90535000D01*
X189086309Y-90535000D01*
X189319698Y-90438327D01*
X189498327Y-90259699D01*
X189595000Y-90026310D01*
X189595000Y-89185750D01*
X189436250Y-89027000D01*
X188087000Y-89027000D01*
X187833000Y-89027000D01*
X186483750Y-89027000D01*
X186325000Y-89185750D01*
X174707377Y-89185750D01*
X174700713Y-88354753D01*
X174460029Y-87773690D01*
X186325000Y-87773690D01*
X186325000Y-88614250D01*
X186483750Y-88773000D01*
X187833000Y-88773000D01*
X187833000Y-87423750D01*
X188087000Y-87423750D01*
X188087000Y-88773000D01*
X189436250Y-88773000D01*
X189595000Y-88614250D01*
X189595000Y-87773690D01*
X189498327Y-87540301D01*
X189319698Y-87361673D01*
X189086309Y-87265000D01*
X188245750Y-87265000D01*
X188087000Y-87423750D01*
X187833000Y-87423750D01*
X187674250Y-87265000D01*
X186833691Y-87265000D01*
X186600302Y-87361673D01*
X186421673Y-87540301D01*
X186325000Y-87773690D01*
X174460029Y-87773690D01*
X174315743Y-87425353D01*
X173945022Y-87204584D01*
X172249605Y-88900000D01*
X171890395Y-88900000D01*
X170194978Y-87204584D01*
X169824257Y-87425353D01*
X169430881Y-88397012D01*
X163301052Y-88397012D01*
X163300713Y-88354753D01*
X162915743Y-87425353D01*
X162545022Y-87204584D01*
X160849605Y-88900000D01*
X160490395Y-88900000D01*
X160476252Y-88885858D01*
X160655858Y-88706252D01*
X160670000Y-88720395D01*
X162365416Y-87024978D01*
X170374584Y-87024978D01*
X172070000Y-88720395D01*
X173765416Y-87024978D01*
X173544647Y-86654257D01*
X172572988Y-86260881D01*
X171524753Y-86269287D01*
X170595353Y-86654257D01*
X170374584Y-87024978D01*
X162365416Y-87024978D01*
X162144647Y-86654257D01*
X161172988Y-86260881D01*
X160253324Y-86268256D01*
X163503437Y-83018142D01*
X163543352Y-83034716D01*
X164193795Y-83035284D01*
X164794943Y-82786894D01*
X165029715Y-82552532D01*
X165397073Y-82552532D01*
X165495736Y-82819387D01*
X166105461Y-83045908D01*
X166755460Y-83021856D01*
X167244264Y-82819387D01*
X167342927Y-82552532D01*
X166370000Y-81579605D01*
X165397073Y-82552532D01*
X165029715Y-82552532D01*
X165211752Y-82370813D01*
X165217468Y-82372927D01*
X166190395Y-81400000D01*
X166176253Y-81385858D01*
X166355858Y-81206253D01*
X166370000Y-81220395D01*
X166384143Y-81206253D01*
X166563748Y-81385858D01*
X166549605Y-81400000D01*
X167522532Y-82372927D01*
X167528722Y-82370639D01*
X167942637Y-82785278D01*
X168543352Y-83034716D01*
X169193795Y-83035284D01*
X169794943Y-82786894D01*
X170255278Y-82327363D01*
X170504716Y-81726648D01*
X170505284Y-81076205D01*
X170256894Y-80475057D01*
X169797363Y-80014722D01*
X169196648Y-79765284D01*
X168546205Y-79764716D01*
X168503812Y-79782232D01*
X168346580Y-79625000D01*
X207338422Y-79625000D01*
X207495982Y-79782560D01*
G36*
X130937000Y-87773000D02*
X130957000Y-87773000D01*
X130957000Y-88027000D01*
X130937000Y-88027000D01*
X130937000Y-88047000D01*
X130683000Y-88047000D01*
X130683000Y-88027000D01*
X130663000Y-88027000D01*
X130663000Y-87773000D01*
X130683000Y-87773000D01*
X130683000Y-87753000D01*
X130937000Y-87753000D01*
X130937000Y-87773000D01*
X130937000Y-87773000D01*
G37*
X130937000Y-87773000D02*
X130957000Y-87773000D01*
X130957000Y-88027000D01*
X130937000Y-88027000D01*
X130937000Y-88047000D01*
X130683000Y-88047000D01*
X130683000Y-88027000D01*
X130663000Y-88027000D01*
X130663000Y-87773000D01*
X130683000Y-87773000D01*
X130683000Y-87753000D01*
X130937000Y-87753000D01*
X130937000Y-87773000D01*
G36*
X162235284Y-81073352D02*
X162234716Y-81723795D01*
X162252233Y-81766188D01*
X156286525Y-87731895D01*
X156171890Y-87653569D01*
X155920000Y-87602560D01*
X155220000Y-87602560D01*
X154984683Y-87646838D01*
X154768559Y-87785910D01*
X154623569Y-87998110D01*
X154620919Y-88011197D01*
X154484090Y-87798559D01*
X154271890Y-87653569D01*
X154259786Y-87651118D01*
X154300787Y-87610117D01*
X154300790Y-87610115D01*
X154492633Y-87323000D01*
X154560000Y-86984325D01*
X154560000Y-84811797D01*
X154621431Y-84721890D01*
X154624081Y-84708803D01*
X154760910Y-84921441D01*
X154973110Y-85066431D01*
X155225000Y-85117440D01*
X155925000Y-85117440D01*
X156160317Y-85073162D01*
X156376441Y-84934090D01*
X156521431Y-84721890D01*
X156529042Y-84684305D01*
X156742731Y-84641799D01*
X156763675Y-84637633D01*
X157050790Y-84445790D01*
X157050791Y-84445789D01*
X160711580Y-80784999D01*
X162355018Y-80784999D01*
X162235284Y-81073352D01*
X162235284Y-81073352D01*
G37*
X162235284Y-81073352D02*
X162234716Y-81723795D01*
X162252233Y-81766188D01*
X156286525Y-87731895D01*
X156171890Y-87653569D01*
X155920000Y-87602560D01*
X155220000Y-87602560D01*
X154984683Y-87646838D01*
X154768559Y-87785910D01*
X154623569Y-87998110D01*
X154620919Y-88011197D01*
X154484090Y-87798559D01*
X154271890Y-87653569D01*
X154259786Y-87651118D01*
X154300787Y-87610117D01*
X154300790Y-87610115D01*
X154492633Y-87323000D01*
X154560000Y-86984325D01*
X154560000Y-84811797D01*
X154621431Y-84721890D01*
X154624081Y-84708803D01*
X154760910Y-84921441D01*
X154973110Y-85066431D01*
X155225000Y-85117440D01*
X155925000Y-85117440D01*
X156160317Y-85073162D01*
X156376441Y-84934090D01*
X156521431Y-84721890D01*
X156529042Y-84684305D01*
X156742731Y-84641799D01*
X156763675Y-84637633D01*
X157050790Y-84445790D01*
X157050791Y-84445789D01*
X160711580Y-80784999D01*
X162355018Y-80784999D01*
X162235284Y-81073352D01*
G36*
X206191838Y-82365317D02*
X206330910Y-82581441D01*
X206543110Y-82726431D01*
X206610541Y-82740086D01*
X206565853Y-82769946D01*
X206243946Y-83251715D01*
X206130907Y-83820000D01*
X206174461Y-84038960D01*
X206016419Y-84197001D01*
X199677558Y-84197001D01*
X199576799Y-84155162D01*
X199356607Y-84154970D01*
X201346577Y-82165000D01*
X206154146Y-82165000D01*
X206191838Y-82365317D01*
X206191838Y-82365317D01*
G37*
X206191838Y-82365317D02*
X206330910Y-82581441D01*
X206543110Y-82726431D01*
X206610541Y-82740086D01*
X206565853Y-82769946D01*
X206243946Y-83251715D01*
X206130907Y-83820000D01*
X206174461Y-84038960D01*
X206016419Y-84197001D01*
X199677558Y-84197001D01*
X199576799Y-84155162D01*
X199356607Y-84154970D01*
X201346577Y-82165000D01*
X206154146Y-82165000D01*
X206191838Y-82365317D01*
G36*
X156321229Y-82672191D02*
X156176890Y-82573569D01*
X155925000Y-82522560D01*
X155924020Y-82522560D01*
X158821579Y-79625000D01*
X159368421Y-79625000D01*
X156321229Y-82672191D01*
X156321229Y-82672191D01*
G37*
X156321229Y-82672191D02*
X156176890Y-82573569D01*
X155925000Y-82522560D01*
X155924020Y-82522560D01*
X158821579Y-79625000D01*
X159368421Y-79625000D01*
X156321229Y-82672191D01*
M02*
