G04 #@! TF.FileFunction,Legend,Bot*
%FSLAX46Y46*%
G04 Gerber Fmt 4.6, Leading zero omitted, Abs format (unit mm)*
G04 Created by KiCad (PCBNEW 4.0.6) date Friday 09 June 2017 00:17:03*
%MOMM*%
%LPD*%
G01*
G04 APERTURE LIST*
%ADD10C,0.100000*%
%ADD11C,0.500000*%
%ADD12C,0.300000*%
G04 APERTURE END LIST*
D10*
D11*
X183536905Y-102997143D02*
X183161905Y-99997143D01*
X182465476Y-102997143D02*
X182269047Y-101425714D01*
X182352381Y-101140000D01*
X182572619Y-100997143D01*
X182929762Y-100997143D01*
X183185714Y-101140000D01*
X183322619Y-101282857D01*
X181382143Y-100997143D02*
X180429762Y-100997143D01*
X180900000Y-99997143D02*
X181221428Y-102568571D01*
X181138095Y-102854286D01*
X180917857Y-102997143D01*
X180679762Y-102997143D01*
X179953572Y-100997143D02*
X179001191Y-100997143D01*
X179471429Y-99997143D02*
X179792857Y-102568571D01*
X179709524Y-102854286D01*
X179489286Y-102997143D01*
X179251191Y-102997143D01*
X178167858Y-100997143D02*
X178542858Y-103997143D01*
X178185715Y-101140000D02*
X177929763Y-100997143D01*
X177453572Y-100997143D01*
X177233334Y-101140000D01*
X177132143Y-101282857D01*
X177048810Y-101568571D01*
X177155953Y-102425714D01*
X177310715Y-102711429D01*
X177447620Y-102854286D01*
X177703572Y-102997143D01*
X178179763Y-102997143D01*
X178400001Y-102854286D01*
X176257144Y-102854286D02*
X176036905Y-102997143D01*
X175560715Y-102997143D01*
X175304763Y-102854286D01*
X175150000Y-102568571D01*
X175132143Y-102425714D01*
X175215477Y-102140000D01*
X175435715Y-101997143D01*
X175792858Y-101997143D01*
X176013096Y-101854286D01*
X176096429Y-101568571D01*
X176078572Y-101425714D01*
X175923810Y-101140000D01*
X175667858Y-100997143D01*
X175310715Y-100997143D01*
X175090477Y-101140000D01*
X174096429Y-102711429D02*
X173995238Y-102854286D01*
X174132143Y-102997143D01*
X174233334Y-102854286D01*
X174096429Y-102711429D01*
X174132143Y-102997143D01*
X173900000Y-101140000D02*
X173798809Y-101282857D01*
X173935714Y-101425714D01*
X174036905Y-101282857D01*
X173900000Y-101140000D01*
X173935714Y-101425714D01*
X170763096Y-99854286D02*
X173388096Y-103711429D01*
X168144048Y-99854286D02*
X170769048Y-103711429D01*
X167691666Y-100997143D02*
X167465476Y-102997143D01*
X166810713Y-101568571D01*
X166513095Y-102997143D01*
X165786904Y-100997143D01*
X165072618Y-100997143D02*
X164846428Y-102997143D01*
X164191665Y-101568571D01*
X163894047Y-102997143D01*
X163167856Y-100997143D01*
X162453570Y-100997143D02*
X162227380Y-102997143D01*
X161572617Y-101568571D01*
X161274999Y-102997143D01*
X160548808Y-100997143D01*
X159810713Y-102711429D02*
X159709522Y-102854286D01*
X159846427Y-102997143D01*
X159947618Y-102854286D01*
X159810713Y-102711429D01*
X159846427Y-102997143D01*
X158298808Y-102997143D02*
X158519046Y-102854286D01*
X158602379Y-102568571D01*
X158280951Y-99997143D01*
X156376189Y-102854286D02*
X156632141Y-102997143D01*
X157108332Y-102997143D01*
X157328570Y-102854286D01*
X157411903Y-102568571D01*
X157269046Y-101425714D01*
X157114284Y-101140000D01*
X156858332Y-100997143D01*
X156382141Y-100997143D01*
X156161903Y-101140000D01*
X156078569Y-101425714D01*
X156114284Y-101711429D01*
X157340475Y-101997143D01*
X154846427Y-102997143D02*
X155066665Y-102854286D01*
X155149998Y-102568571D01*
X154828570Y-99997143D01*
X152822617Y-102997143D02*
X152626188Y-101425714D01*
X152709522Y-101140000D01*
X152929760Y-100997143D01*
X153405951Y-100997143D01*
X153661903Y-101140000D01*
X152804760Y-102854286D02*
X153060713Y-102997143D01*
X153655951Y-102997143D01*
X153876189Y-102854286D01*
X153959522Y-102568571D01*
X153923808Y-102282857D01*
X153769046Y-101997143D01*
X153513094Y-101854286D01*
X152917856Y-101854286D01*
X152661903Y-101711429D01*
X151632141Y-102997143D02*
X151257141Y-99997143D01*
X151399998Y-101140000D02*
X151144046Y-100997143D01*
X150667855Y-100997143D01*
X150447617Y-101140000D01*
X150346426Y-101282857D01*
X150263093Y-101568571D01*
X150370236Y-102425714D01*
X150524998Y-102711429D01*
X150661903Y-102854286D01*
X150917855Y-102997143D01*
X151394046Y-102997143D01*
X151614284Y-102854286D01*
X149013093Y-102997143D02*
X149233331Y-102854286D01*
X149334522Y-102711429D01*
X149417855Y-102425714D01*
X149310712Y-101568571D01*
X149155950Y-101282857D01*
X149019045Y-101140000D01*
X148763093Y-100997143D01*
X148405950Y-100997143D01*
X148185712Y-101140000D01*
X148084521Y-101282857D01*
X148001188Y-101568571D01*
X148108331Y-102425714D01*
X148263093Y-102711429D01*
X148399998Y-102854286D01*
X148655950Y-102997143D01*
X149013093Y-102997143D01*
X146036902Y-102997143D02*
X145661902Y-99997143D01*
X146019045Y-102854286D02*
X146274998Y-102997143D01*
X146751188Y-102997143D01*
X146971426Y-102854286D01*
X147072617Y-102711429D01*
X147155950Y-102425714D01*
X147048807Y-101568571D01*
X146894045Y-101282857D01*
X146757140Y-101140000D01*
X146501188Y-100997143D01*
X146024998Y-100997143D01*
X145804759Y-101140000D01*
X143524997Y-100997143D02*
X143774997Y-102997143D01*
X144596426Y-100997143D02*
X144792854Y-102568571D01*
X144709521Y-102854286D01*
X144489283Y-102997143D01*
X144132140Y-102997143D01*
X143876188Y-102854286D01*
X143739283Y-102711429D01*
X142691664Y-100997143D02*
X141739283Y-100997143D01*
X142209521Y-99997143D02*
X142530949Y-102568571D01*
X142447616Y-102854286D01*
X142227378Y-102997143D01*
X141989283Y-102997143D01*
X141155950Y-102997143D02*
X140905950Y-100997143D01*
X140977378Y-101568571D02*
X140822616Y-101282857D01*
X140685712Y-101140000D01*
X140429759Y-100997143D01*
X140191664Y-100997143D01*
X139251188Y-102997143D02*
X139471426Y-102854286D01*
X139572617Y-102711429D01*
X139655950Y-102425714D01*
X139548807Y-101568571D01*
X139394045Y-101282857D01*
X139257140Y-101140000D01*
X139001188Y-100997143D01*
X138644045Y-100997143D01*
X138423807Y-101140000D01*
X138322616Y-101282857D01*
X138239283Y-101568571D01*
X138346426Y-102425714D01*
X138501188Y-102711429D01*
X138638093Y-102854286D01*
X138894045Y-102997143D01*
X139251188Y-102997143D01*
X137346426Y-102997143D02*
X137096426Y-100997143D01*
X136971426Y-99997143D02*
X137108331Y-100140000D01*
X137007140Y-100282857D01*
X136870235Y-100140000D01*
X136971426Y-99997143D01*
X137007140Y-100282857D01*
X136257141Y-102854286D02*
X136036902Y-102997143D01*
X135560712Y-102997143D01*
X135304760Y-102854286D01*
X135149997Y-102568571D01*
X135132140Y-102425714D01*
X135215474Y-102140000D01*
X135435712Y-101997143D01*
X135792855Y-101997143D01*
X136013093Y-101854286D01*
X136096426Y-101568571D01*
X136078569Y-101425714D01*
X135923807Y-101140000D01*
X135667855Y-100997143D01*
X135310712Y-100997143D01*
X135090474Y-101140000D01*
X134132140Y-102997143D02*
X133882140Y-100997143D01*
X133757140Y-99997143D02*
X133894045Y-100140000D01*
X133792854Y-100282857D01*
X133655949Y-100140000D01*
X133757140Y-99997143D01*
X133792854Y-100282857D01*
X131971426Y-102854286D02*
X132227378Y-102997143D01*
X132703569Y-102997143D01*
X132923807Y-102854286D01*
X133007140Y-102568571D01*
X132864283Y-101425714D01*
X132709521Y-101140000D01*
X132453569Y-100997143D01*
X131977378Y-100997143D01*
X131757140Y-101140000D01*
X131673806Y-101425714D01*
X131709521Y-101711429D01*
X132935712Y-101997143D01*
X130798807Y-102997143D02*
X130548807Y-100997143D01*
X130584521Y-101282857D02*
X130447616Y-101140000D01*
X130191664Y-100997143D01*
X129834521Y-100997143D01*
X129614283Y-101140000D01*
X129530949Y-101425714D01*
X129727378Y-102997143D01*
X129530949Y-101425714D02*
X129376188Y-101140000D01*
X129120235Y-100997143D01*
X128763093Y-100997143D01*
X128542854Y-101140000D01*
X128459521Y-101425714D01*
X128655950Y-102997143D01*
X126495236Y-102854286D02*
X126751188Y-102997143D01*
X127227379Y-102997143D01*
X127447617Y-102854286D01*
X127530950Y-102568571D01*
X127388093Y-101425714D01*
X127233331Y-101140000D01*
X126977379Y-100997143D01*
X126501188Y-100997143D01*
X126280950Y-101140000D01*
X126197616Y-101425714D01*
X126233331Y-101711429D01*
X127459522Y-101997143D01*
X125286903Y-102711429D02*
X125185712Y-102854286D01*
X125322617Y-102997143D01*
X125423808Y-102854286D01*
X125286903Y-102711429D01*
X125322617Y-102997143D01*
X124239284Y-100997143D02*
X123286903Y-100997143D01*
X124132141Y-102997143D02*
X123810712Y-100425714D01*
X123655950Y-100140000D01*
X123399998Y-99997143D01*
X123161903Y-99997143D01*
X122703570Y-102997143D02*
X122453570Y-100997143D01*
X122524998Y-101568571D02*
X122370236Y-101282857D01*
X122233332Y-101140000D01*
X121977379Y-100997143D01*
X121739284Y-100997143D01*
X182685714Y-104997143D02*
X182447619Y-104997143D01*
X182227381Y-105140000D01*
X182126190Y-105282857D01*
X182042857Y-105568571D01*
X181995238Y-106140000D01*
X182084524Y-106854286D01*
X182275000Y-107425714D01*
X182429762Y-107711429D01*
X182566667Y-107854286D01*
X182822619Y-107997143D01*
X183060714Y-107997143D01*
X183280953Y-107854286D01*
X183382143Y-107711429D01*
X183465476Y-107425714D01*
X183513096Y-106854286D01*
X183423810Y-106140000D01*
X183233333Y-105568571D01*
X183078571Y-105282857D01*
X182941667Y-105140000D01*
X182685714Y-104997143D01*
X179709524Y-104997143D02*
X180185715Y-104997143D01*
X180441667Y-105140000D01*
X180578572Y-105282857D01*
X180870239Y-105711429D01*
X181060715Y-106282857D01*
X181203572Y-107425714D01*
X181120239Y-107711429D01*
X181019048Y-107854286D01*
X180798810Y-107997143D01*
X180322620Y-107997143D01*
X180066667Y-107854286D01*
X179929763Y-107711429D01*
X179775000Y-107425714D01*
X179685715Y-106711429D01*
X179769048Y-106425714D01*
X179870238Y-106282857D01*
X180090477Y-106140000D01*
X180566667Y-106140000D01*
X180822619Y-106282857D01*
X180959524Y-106425714D01*
X181114287Y-106711429D01*
X176596430Y-104854286D02*
X179221430Y-108711429D01*
X175935715Y-105282857D02*
X175798810Y-105140000D01*
X175542858Y-104997143D01*
X174947620Y-104997143D01*
X174727381Y-105140000D01*
X174626191Y-105282857D01*
X174542857Y-105568571D01*
X174578572Y-105854286D01*
X174751191Y-106282857D01*
X176394048Y-107997143D01*
X174846429Y-107997143D01*
X172923810Y-104997143D02*
X172685715Y-104997143D01*
X172465477Y-105140000D01*
X172364286Y-105282857D01*
X172280953Y-105568571D01*
X172233334Y-106140000D01*
X172322620Y-106854286D01*
X172513096Y-107425714D01*
X172667858Y-107711429D01*
X172804763Y-107854286D01*
X173060715Y-107997143D01*
X173298810Y-107997143D01*
X173519049Y-107854286D01*
X173620239Y-107711429D01*
X173703572Y-107425714D01*
X173751192Y-106854286D01*
X173661906Y-106140000D01*
X173471429Y-105568571D01*
X173316667Y-105282857D01*
X173179763Y-105140000D01*
X172923810Y-104997143D01*
X170084525Y-107997143D02*
X171513097Y-107997143D01*
X170798811Y-107997143D02*
X170423811Y-104997143D01*
X170715477Y-105425714D01*
X170989287Y-105711429D01*
X171245240Y-105854286D01*
X168876192Y-104997143D02*
X167209525Y-104997143D01*
X168655954Y-107997143D01*
X149274762Y-91161905D02*
X148649762Y-86161905D01*
X147429524Y-89733333D01*
X145316428Y-86161905D01*
X145941428Y-91161905D01*
X143560476Y-91161905D02*
X143143809Y-87828571D01*
X142935476Y-86161905D02*
X143203333Y-86400000D01*
X142995000Y-86638095D01*
X142727143Y-86400000D01*
X142935476Y-86161905D01*
X142995000Y-86638095D01*
X140762857Y-87828571D02*
X141179524Y-91161905D01*
X140822381Y-88304762D02*
X140554524Y-88066667D01*
X140048571Y-87828571D01*
X139334285Y-87828571D01*
X138887857Y-88066667D01*
X138709286Y-88542857D01*
X139036667Y-91161905D01*
X134096190Y-87828571D02*
X134512857Y-91161905D01*
X136239047Y-87828571D02*
X136566428Y-90447619D01*
X136387857Y-90923810D01*
X135941428Y-91161905D01*
X135227142Y-91161905D01*
X134721190Y-90923810D01*
X134453333Y-90685714D01*
X132429523Y-87828571D02*
X130524761Y-87828571D01*
X131506904Y-86161905D02*
X132042618Y-90447619D01*
X131864047Y-90923810D01*
X131417618Y-91161905D01*
X130941428Y-91161905D01*
X127340237Y-90923810D02*
X127846189Y-91161905D01*
X128798570Y-91161905D01*
X129244999Y-90923810D01*
X129423570Y-90447619D01*
X129185475Y-88542857D01*
X128887856Y-88066667D01*
X128381903Y-87828571D01*
X127429522Y-87828571D01*
X126983094Y-88066667D01*
X126804523Y-88542857D01*
X126864047Y-89019048D01*
X129304523Y-89495238D01*
X122429523Y-87828571D02*
X122846190Y-91161905D01*
X124572380Y-87828571D02*
X124899761Y-90447619D01*
X124721190Y-90923810D01*
X124274761Y-91161905D01*
X123560475Y-91161905D01*
X123054523Y-90923810D01*
X122786666Y-90685714D01*
X120465237Y-91161905D02*
X120048570Y-87828571D01*
X120167618Y-88780952D02*
X119869999Y-88304762D01*
X119602141Y-88066667D01*
X119096189Y-87828571D01*
X118619998Y-87828571D01*
X113619998Y-87828571D02*
X112846189Y-91161905D01*
X111239046Y-87828571D01*
X108173570Y-86161905D02*
X107697379Y-86161905D01*
X107250951Y-86400000D01*
X107042618Y-86638095D01*
X106864046Y-87114286D01*
X106744998Y-88066667D01*
X106893808Y-89257143D01*
X107250950Y-90209524D01*
X107548570Y-90685714D01*
X107816427Y-90923810D01*
X108322379Y-91161905D01*
X108798570Y-91161905D01*
X109244998Y-90923810D01*
X109453332Y-90685714D01*
X109631903Y-90209524D01*
X109750951Y-89257143D01*
X109602141Y-88066667D01*
X109244999Y-87114286D01*
X108947380Y-86638095D01*
X108679522Y-86400000D01*
X108173570Y-86161905D01*
X104929522Y-90685714D02*
X104721189Y-90923810D01*
X104989046Y-91161905D01*
X105197379Y-90923810D01*
X104929522Y-90685714D01*
X104989046Y-91161905D01*
X102369999Y-91161905D02*
X101417618Y-91161905D01*
X100911665Y-90923810D01*
X100643808Y-90685714D01*
X100078332Y-89971429D01*
X99721189Y-89019048D01*
X99483094Y-87114286D01*
X99661665Y-86638095D01*
X99869999Y-86400000D01*
X100316427Y-86161905D01*
X101268808Y-86161905D01*
X101774761Y-86400000D01*
X102042618Y-86638095D01*
X102340237Y-87114286D01*
X102489046Y-88304762D01*
X102310475Y-88780952D01*
X102102142Y-89019048D01*
X101655713Y-89257143D01*
X100703332Y-89257143D01*
X100197380Y-89019048D01*
X99929522Y-88780952D01*
X99631903Y-88304762D01*
D12*
X88265000Y-113030000D02*
G75*
G03X88265000Y-113030000I-5080000J0D01*
G01*
X99695000Y-113030000D02*
G75*
G03X99695000Y-113030000I-5080000J0D01*
G01*
X120650000Y-108585000D02*
G75*
G03X120650000Y-108585000I-10160000J0D01*
G01*
M02*
