G04 #@! TF.FileFunction,Copper,L2,Bot,Signal*
%FSLAX46Y46*%
G04 Gerber Fmt 4.6, Leading zero omitted, Abs format (unit mm)*
G04 Created by KiCad (PCBNEW 4.0.6) date Friday 09 June 2017 00:17:03*
%MOMM*%
%LPD*%
G01*
G04 APERTURE LIST*
%ADD10C,0.100000*%
%ADD11C,2.500000*%
%ADD12C,3.000000*%
%ADD13R,2.032000X2.032000*%
%ADD14C,2.000000*%
%ADD15R,1.727200X1.727200*%
%ADD16O,1.727200X1.727200*%
%ADD17R,3.000000X3.000000*%
%ADD18C,1.524000*%
%ADD19R,2.000000X2.000000*%
%ADD20R,1.700000X1.700000*%
%ADD21O,1.700000X1.700000*%
%ADD22O,0.950000X1.250000*%
%ADD23O,1.550000X1.000000*%
%ADD24C,4.000000*%
%ADD25C,6.400000*%
%ADD26C,0.600000*%
%ADD27C,0.500000*%
%ADD28C,2.000000*%
%ADD29C,0.254000*%
G04 APERTURE END LIST*
D10*
D11*
X193720000Y-114000000D03*
D12*
X205920000Y-114000000D03*
X205970000Y-101950000D03*
D11*
X193720000Y-102000000D03*
D12*
X191770000Y-107950000D03*
D13*
X115570000Y-96520000D03*
D14*
X118110000Y-96520000D03*
X120650000Y-96520000D03*
X123190000Y-96520000D03*
X125730000Y-96520000D03*
X128270000Y-96520000D03*
X123190000Y-81280000D03*
X125730000Y-81280000D03*
X115570000Y-81280000D03*
X118110000Y-81280000D03*
X128270000Y-81280000D03*
X120650000Y-81280000D03*
D15*
X160020000Y-115570000D03*
D16*
X157480000Y-115570000D03*
X160020000Y-113030000D03*
X157480000Y-113030000D03*
X160020000Y-110490000D03*
X157480000Y-110490000D03*
D17*
X214630000Y-113030000D03*
D12*
X214630000Y-107950000D03*
X214630000Y-102870000D03*
D17*
X74930000Y-106680000D03*
D12*
X74930000Y-111760000D03*
D18*
X83820000Y-96520000D03*
X83820000Y-83820000D03*
X86360000Y-83820000D03*
X88900000Y-83820000D03*
X91440000Y-83820000D03*
D14*
X91440000Y-88900000D03*
X91440000Y-93980000D03*
X83820000Y-93980000D03*
D19*
X83820000Y-88900000D03*
D18*
X91440000Y-81280000D03*
D20*
X147320000Y-120650000D03*
D21*
X149860000Y-120650000D03*
D18*
X187960000Y-96520000D03*
X187960000Y-83820000D03*
X190500000Y-83820000D03*
X193040000Y-83820000D03*
X195580000Y-83820000D03*
D14*
X195580000Y-88900000D03*
X195580000Y-93980000D03*
X187960000Y-93980000D03*
D19*
X187960000Y-88900000D03*
D18*
X195580000Y-81280000D03*
D20*
X114300000Y-120650000D03*
D21*
X111760000Y-120650000D03*
X109220000Y-120650000D03*
X106680000Y-120650000D03*
X104140000Y-120650000D03*
X101600000Y-120650000D03*
D22*
X75010000Y-90210000D03*
X75010000Y-95210000D03*
D23*
X72310000Y-89210000D03*
X72310000Y-96210000D03*
D24*
X172070000Y-88900000D03*
D14*
X163870000Y-95900000D03*
X163870000Y-81400000D03*
X166370000Y-81400000D03*
X168870000Y-81400000D03*
X168870000Y-95900000D03*
D24*
X160670000Y-88900000D03*
D20*
X207645000Y-81280000D03*
D21*
X207645000Y-83820000D03*
X207645000Y-86360000D03*
X207645000Y-88900000D03*
X207645000Y-91440000D03*
X207645000Y-93980000D03*
X207645000Y-96520000D03*
D25*
X74930000Y-81280000D03*
X74930000Y-120650000D03*
X214630000Y-120650000D03*
X214630000Y-81280000D03*
D26*
X125720512Y-92874603D03*
X126428500Y-93345000D03*
X127508000Y-90233500D03*
X144132601Y-88366215D03*
X143764000Y-83375500D03*
X128730345Y-85255010D03*
X143256000Y-87503000D03*
X142303500Y-88392000D03*
X132715000Y-84455000D03*
X158750000Y-84455000D03*
X158115000Y-80645000D03*
X151765000Y-92710000D03*
X137795000Y-115570000D03*
X132749307Y-111229307D03*
X139700000Y-111760000D03*
X139700000Y-120650000D03*
X203200000Y-83820000D03*
X105410000Y-101600000D03*
X187960000Y-100330000D03*
X187325000Y-104140000D03*
X169545000Y-104775000D03*
X180975000Y-104140000D03*
X119380000Y-94615000D03*
X130175000Y-94615000D03*
X133350000Y-95250000D03*
X132080000Y-97790000D03*
X143510000Y-92075000D03*
X124460000Y-86360000D03*
X130810000Y-86995000D03*
X113030000Y-116840000D03*
X106680000Y-116840000D03*
X106680000Y-116840000D03*
X165100000Y-101600000D03*
X161290000Y-107950000D03*
X133350000Y-107950000D03*
X151464721Y-112093339D03*
X138049000Y-106616500D03*
X150162280Y-116730008D03*
X152983114Y-118237000D03*
X144780000Y-118872000D03*
X150241000Y-114109500D03*
X120865002Y-99060000D03*
X147320000Y-103759000D03*
X147132776Y-107698827D03*
X140258012Y-115570000D03*
X146304000Y-113030000D03*
X156210000Y-91440000D03*
X199390000Y-85090000D03*
X139407999Y-115570000D03*
X147574000Y-113030000D03*
X78359000Y-92075000D03*
X129540000Y-90170000D03*
X96520000Y-110490000D03*
X95250000Y-110490000D03*
X93980000Y-110490000D03*
X93980000Y-107950000D03*
X95250000Y-107950000D03*
X96520000Y-107950000D03*
X93980000Y-109220000D03*
X95250000Y-109220000D03*
X96520000Y-109220000D03*
X166243000Y-103632000D03*
X127635000Y-119379996D03*
X130175000Y-121919998D03*
X135890000Y-109220000D03*
X173355000Y-111125000D03*
X191643000Y-96647000D03*
X197427307Y-95192307D03*
X154432000Y-121158000D03*
X154940000Y-104140000D03*
X137604500Y-110744000D03*
X138493500Y-110744000D03*
X127717314Y-104780927D03*
X119316500Y-113855500D03*
X139890500Y-106870500D03*
X117729000Y-114173000D03*
X137922000Y-119126000D03*
X148844000Y-113030000D03*
D27*
X117699397Y-92874603D02*
X125720512Y-92874603D01*
X115570000Y-95004000D02*
X117699397Y-92874603D01*
X115570000Y-96520000D02*
X115570000Y-95004000D01*
X124753501Y-95019999D02*
X126428500Y-93345000D01*
X120650000Y-96520000D02*
X122150001Y-95019999D01*
X122150001Y-95019999D02*
X124753501Y-95019999D01*
X127508000Y-90233500D02*
X127508000Y-94742000D01*
X127508000Y-94742000D02*
X125730000Y-96520000D01*
X135978816Y-96520000D02*
X144132601Y-88366215D01*
X128270000Y-96520000D02*
X135978816Y-96520000D01*
X124979991Y-83069991D02*
X123190000Y-81280000D01*
X143764000Y-83375500D02*
X143458491Y-83069991D01*
X143458491Y-83069991D02*
X124979991Y-83069991D01*
X141008010Y-85255010D02*
X128730345Y-85255010D01*
X143256000Y-87503000D02*
X141008010Y-85255010D01*
X142303500Y-88392000D02*
X122682000Y-88392000D01*
X122682000Y-88392000D02*
X115570000Y-81280000D01*
X132715000Y-84455000D02*
X123825000Y-84455000D01*
X123825000Y-84455000D02*
X120650000Y-81280000D01*
X158750000Y-84455000D02*
X158750000Y-81280000D01*
X158750000Y-81280000D02*
X158115000Y-80645000D01*
X160670000Y-86071573D02*
X159053427Y-84455000D01*
X158750000Y-84455000D02*
X158750000Y-85725000D01*
X159053427Y-84455000D02*
X158750000Y-84455000D01*
X158750000Y-85725000D02*
X151765000Y-92710000D01*
X160670000Y-88900000D02*
X160670000Y-86071573D01*
X139700000Y-111760000D02*
X139700000Y-113665000D01*
X139700000Y-113665000D02*
X137795000Y-115570000D01*
X133049306Y-110929308D02*
X132749307Y-111229307D01*
X133350000Y-110628614D02*
X133049306Y-110929308D01*
X133350000Y-107950000D02*
X133350000Y-110628614D01*
X148590000Y-123190000D02*
X142240000Y-123190000D01*
X142240000Y-123190000D02*
X139700000Y-120650000D01*
X149860000Y-121920000D02*
X148590000Y-123190000D01*
X149860000Y-120650000D02*
X149860000Y-121920000D01*
X195580000Y-88900000D02*
X198120000Y-88900000D01*
X198120000Y-88900000D02*
X203200000Y-83820000D01*
X187325000Y-104140000D02*
X187325000Y-100965000D01*
X187325000Y-100965000D02*
X187960000Y-100330000D01*
X180975000Y-104140000D02*
X187325000Y-104140000D01*
X166370000Y-101600000D02*
X169545000Y-104775000D01*
X165100000Y-101600000D02*
X178435000Y-101600000D01*
X178435000Y-101600000D02*
X180975000Y-104140000D01*
X133350000Y-95250000D02*
X130810000Y-95250000D01*
X130810000Y-95250000D02*
X130175000Y-94615000D01*
X142240000Y-92075000D02*
X136525000Y-97790000D01*
X136525000Y-97790000D02*
X132080000Y-97790000D01*
X143510000Y-92075000D02*
X142240000Y-92075000D01*
X125095000Y-86995000D02*
X124460000Y-86360000D01*
X130810000Y-86995000D02*
X125095000Y-86995000D01*
X106680000Y-116840000D02*
X113030000Y-116840000D01*
X101600000Y-120650000D02*
X105410000Y-116840000D01*
X105410000Y-116840000D02*
X106680000Y-116840000D01*
X165100000Y-101600000D02*
X166370000Y-101600000D01*
X157480000Y-110490000D02*
X160020000Y-107950000D01*
X160020000Y-107950000D02*
X161290000Y-107950000D01*
X143525839Y-112093339D02*
X151464721Y-112093339D01*
X138049000Y-106616500D02*
X143525839Y-112093339D01*
X152983114Y-118237000D02*
X151669272Y-118237000D01*
X151669272Y-118237000D02*
X150162280Y-116730008D01*
X150241000Y-114109500D02*
X145478500Y-118872000D01*
X145478500Y-118872000D02*
X144780000Y-118872000D01*
X180659998Y-99060000D02*
X120865002Y-99060000D01*
X187529987Y-92190011D02*
X180659998Y-99060000D01*
X205692908Y-92190011D02*
X187529987Y-92190011D01*
X206442919Y-91440000D02*
X205692908Y-92190011D01*
X207645000Y-91440000D02*
X206442919Y-91440000D01*
X147320000Y-103759000D02*
X147320000Y-107511603D01*
X147320000Y-107511603D02*
X147132776Y-107698827D01*
X143764000Y-115570000D02*
X140258012Y-115570000D01*
X146304000Y-113030000D02*
X143764000Y-115570000D01*
X199390000Y-85090000D02*
X197169998Y-85090000D01*
X197169998Y-85090000D02*
X190819998Y-91440000D01*
X190819998Y-91440000D02*
X156210000Y-91440000D01*
X147574000Y-113030000D02*
X147104001Y-113030000D01*
X147104001Y-113030000D02*
X147104001Y-113414001D01*
X146688001Y-113830001D02*
X146564673Y-113830001D01*
X147104001Y-113414001D02*
X146688001Y-113830001D01*
X146564673Y-113830001D02*
X144074664Y-116320010D01*
X140592001Y-116370001D02*
X139823999Y-116370001D01*
X144074664Y-116320010D02*
X140641992Y-116320010D01*
X140641992Y-116320010D02*
X140592001Y-116370001D01*
X139823999Y-116370001D02*
X139407999Y-115954001D01*
X139407999Y-115954001D02*
X139407999Y-115570000D01*
X124647499Y-91909999D02*
X118360999Y-91909999D01*
X118195998Y-92075000D02*
X78359000Y-92075000D01*
X127123999Y-89433499D02*
X124647499Y-91909999D01*
X128803499Y-89433499D02*
X127123999Y-89433499D01*
X129540000Y-90170000D02*
X128803499Y-89433499D01*
X118360999Y-91909999D02*
X118195998Y-92075000D01*
X95250000Y-110490000D02*
X96520000Y-110490000D01*
X93980000Y-107950000D02*
X93980000Y-110490000D01*
X96520000Y-107950000D02*
X95250000Y-107950000D01*
X157480000Y-115570000D02*
X156116399Y-114206399D01*
X156116399Y-114206399D02*
X156116399Y-109835471D01*
X156116399Y-109835471D02*
X162319870Y-103632000D01*
X162319870Y-103632000D02*
X166243000Y-103632000D01*
X127635000Y-118955732D02*
X127635000Y-119379996D01*
X127635000Y-117475000D02*
X127635000Y-118955732D01*
X135890000Y-109220000D02*
X127635000Y-117475000D01*
X130474999Y-122219997D02*
X130175000Y-121919998D01*
X132715002Y-124460000D02*
X130474999Y-122219997D01*
X160020000Y-124460000D02*
X132715002Y-124460000D01*
X173355000Y-111125000D02*
X160020000Y-124460000D01*
X192067264Y-96647000D02*
X191643000Y-96647000D01*
X195972614Y-96647000D02*
X192067264Y-96647000D01*
X197427307Y-95192307D02*
X195972614Y-96647000D01*
X154940000Y-104140000D02*
X154432000Y-104648000D01*
X154432000Y-104648000D02*
X154432000Y-121158000D01*
X127698500Y-120650000D02*
X137604500Y-110744000D01*
X114300000Y-120650000D02*
X127698500Y-120650000D01*
X138493500Y-111168264D02*
X138493500Y-110744000D01*
X127661763Y-122000001D02*
X138493500Y-111168264D01*
X113110001Y-122000001D02*
X127661763Y-122000001D01*
X111760000Y-120650000D02*
X113110001Y-122000001D01*
X126445069Y-104780927D02*
X127717314Y-104780927D01*
X119316500Y-111909496D02*
X126445069Y-104780927D01*
X119316500Y-113855500D02*
X119316500Y-111909496D01*
X137000926Y-103980926D02*
X139890500Y-106870500D01*
X126184395Y-103980926D02*
X137000926Y-103980926D01*
X117729000Y-114173000D02*
X117729000Y-112436321D01*
X117729000Y-112436321D02*
X126184395Y-103980926D01*
D28*
X214630000Y-113030000D02*
X206890000Y-113030000D01*
X206890000Y-113030000D02*
X205920000Y-114000000D01*
X214630000Y-107950000D02*
X191770000Y-107950000D01*
X214630000Y-102870000D02*
X206890000Y-102870000D01*
X206890000Y-102870000D02*
X205970000Y-101950000D01*
D27*
X148844000Y-113030000D02*
X142748000Y-119126000D01*
X142748000Y-119126000D02*
X137922000Y-119126000D01*
D29*
G36*
X112903000Y-115443000D02*
X90297000Y-115443000D01*
X90297000Y-102997000D01*
X112903000Y-102997000D01*
X112903000Y-115443000D01*
X112903000Y-115443000D01*
G37*
X112903000Y-115443000D02*
X90297000Y-115443000D01*
X90297000Y-102997000D01*
X112903000Y-102997000D01*
X112903000Y-115443000D01*
G36*
X216287249Y-77279047D02*
X217692197Y-78217804D01*
X218630953Y-79622751D01*
X218975000Y-81352391D01*
X218975000Y-97663000D01*
X208573914Y-97663000D01*
X208916645Y-97286924D01*
X209086476Y-96876890D01*
X208965155Y-96647000D01*
X207772000Y-96647000D01*
X207772000Y-96667000D01*
X207518000Y-96667000D01*
X207518000Y-96647000D01*
X206324845Y-96647000D01*
X206203524Y-96876890D01*
X206373355Y-97286924D01*
X206716086Y-97663000D01*
X188792386Y-97663000D01*
X189143629Y-97312370D01*
X189356757Y-96799100D01*
X189357242Y-96243339D01*
X189145010Y-95729697D01*
X188812656Y-95396762D01*
X188884943Y-95366894D01*
X189345278Y-94907363D01*
X189594716Y-94306648D01*
X189595284Y-93656205D01*
X189355139Y-93075011D01*
X194185432Y-93075011D01*
X193945284Y-93653352D01*
X193944716Y-94303795D01*
X194193106Y-94904943D01*
X194652637Y-95365278D01*
X195253352Y-95614716D01*
X195752882Y-95615152D01*
X195606034Y-95762000D01*
X191949822Y-95762000D01*
X191829799Y-95712162D01*
X191457833Y-95711838D01*
X191114057Y-95853883D01*
X190850808Y-96116673D01*
X190708162Y-96460201D01*
X190707838Y-96832167D01*
X190849883Y-97175943D01*
X191112673Y-97439192D01*
X191456201Y-97581838D01*
X191828167Y-97582162D01*
X191949569Y-97532000D01*
X195972609Y-97532000D01*
X195972614Y-97532001D01*
X196255098Y-97475810D01*
X196311289Y-97464633D01*
X196598404Y-97272790D01*
X197836141Y-96035052D01*
X197956250Y-95985424D01*
X198219499Y-95722634D01*
X198362145Y-95379106D01*
X198362469Y-95007140D01*
X198220424Y-94663364D01*
X197957634Y-94400115D01*
X197614106Y-94257469D01*
X197242140Y-94257145D01*
X197214749Y-94268463D01*
X197215284Y-93656205D01*
X196975139Y-93075011D01*
X205692903Y-93075011D01*
X205692908Y-93075012D01*
X205975392Y-93018821D01*
X206031583Y-93007644D01*
X206318698Y-92815801D01*
X206318699Y-92815800D01*
X206612965Y-92521533D01*
X206895026Y-92710000D01*
X206565853Y-92929946D01*
X206243946Y-93411715D01*
X206130907Y-93980000D01*
X206243946Y-94548285D01*
X206565853Y-95030054D01*
X206906553Y-95257702D01*
X206763642Y-95324817D01*
X206373355Y-95753076D01*
X206203524Y-96163110D01*
X206324845Y-96393000D01*
X207518000Y-96393000D01*
X207518000Y-96373000D01*
X207772000Y-96373000D01*
X207772000Y-96393000D01*
X208965155Y-96393000D01*
X209086476Y-96163110D01*
X208916645Y-95753076D01*
X208526358Y-95324817D01*
X208383447Y-95257702D01*
X208724147Y-95030054D01*
X209046054Y-94548285D01*
X209159093Y-93980000D01*
X209046054Y-93411715D01*
X208724147Y-92929946D01*
X208394974Y-92710000D01*
X208724147Y-92490054D01*
X209046054Y-92008285D01*
X209159093Y-91440000D01*
X209046054Y-90871715D01*
X208724147Y-90389946D01*
X208394974Y-90170000D01*
X208724147Y-89950054D01*
X209046054Y-89468285D01*
X209159093Y-88900000D01*
X209046054Y-88331715D01*
X208724147Y-87849946D01*
X208394974Y-87630000D01*
X208724147Y-87410054D01*
X209046054Y-86928285D01*
X209159093Y-86360000D01*
X209046054Y-85791715D01*
X208724147Y-85309946D01*
X208394974Y-85090000D01*
X208724147Y-84870054D01*
X209046054Y-84388285D01*
X209159093Y-83820000D01*
X209046054Y-83251715D01*
X208724147Y-82769946D01*
X208682548Y-82742150D01*
X208730317Y-82733162D01*
X208946441Y-82594090D01*
X209091431Y-82381890D01*
X209142440Y-82130000D01*
X209142440Y-82039482D01*
X210794336Y-82039482D01*
X211376950Y-83449515D01*
X212454811Y-84529259D01*
X213863825Y-85114333D01*
X215389482Y-85115664D01*
X216799515Y-84533050D01*
X217879259Y-83455189D01*
X218464333Y-82046175D01*
X218465664Y-80520518D01*
X217883050Y-79110485D01*
X216805189Y-78030741D01*
X215396175Y-77445667D01*
X213870518Y-77444336D01*
X212460485Y-78026950D01*
X211380741Y-79104811D01*
X210795667Y-80513825D01*
X210794336Y-82039482D01*
X209142440Y-82039482D01*
X209142440Y-80430000D01*
X209098162Y-80194683D01*
X208959090Y-79978559D01*
X208746890Y-79833569D01*
X208495000Y-79782560D01*
X206795000Y-79782560D01*
X206559683Y-79826838D01*
X206343559Y-79965910D01*
X206198569Y-80178110D01*
X206147560Y-80430000D01*
X206147560Y-82130000D01*
X206191838Y-82365317D01*
X206330910Y-82581441D01*
X206543110Y-82726431D01*
X206610541Y-82740086D01*
X206565853Y-82769946D01*
X206243946Y-83251715D01*
X206130907Y-83820000D01*
X206243946Y-84388285D01*
X206565853Y-84870054D01*
X206895026Y-85090000D01*
X206565853Y-85309946D01*
X206243946Y-85791715D01*
X206130907Y-86360000D01*
X206243946Y-86928285D01*
X206565853Y-87410054D01*
X206895026Y-87630000D01*
X206565853Y-87849946D01*
X206243946Y-88331715D01*
X206130907Y-88900000D01*
X206243946Y-89468285D01*
X206565853Y-89950054D01*
X206895026Y-90170000D01*
X206565853Y-90389946D01*
X206455568Y-90555000D01*
X206442924Y-90555000D01*
X206442919Y-90554999D01*
X206160435Y-90611190D01*
X206104244Y-90622367D01*
X205817129Y-90814210D01*
X205817127Y-90814213D01*
X205326328Y-91305011D01*
X192206567Y-91305011D01*
X193459046Y-90052532D01*
X194607073Y-90052532D01*
X194705736Y-90319387D01*
X195315461Y-90545908D01*
X195965460Y-90521856D01*
X196454264Y-90319387D01*
X196552927Y-90052532D01*
X195580000Y-89079605D01*
X194607073Y-90052532D01*
X193459046Y-90052532D01*
X194036632Y-89474946D01*
X194160613Y-89774264D01*
X194427468Y-89872927D01*
X195400395Y-88900000D01*
X195759605Y-88900000D01*
X196732532Y-89872927D01*
X196999387Y-89774264D01*
X197225908Y-89164539D01*
X197201856Y-88514540D01*
X196999387Y-88025736D01*
X196732532Y-87927073D01*
X195759605Y-88900000D01*
X195400395Y-88900000D01*
X195386253Y-88885858D01*
X195565858Y-88706253D01*
X195580000Y-88720395D01*
X196552927Y-87747468D01*
X196454264Y-87480613D01*
X196145627Y-87365950D01*
X197536577Y-85975000D01*
X199083178Y-85975000D01*
X199203201Y-86024838D01*
X199575167Y-86025162D01*
X199918943Y-85883117D01*
X200182192Y-85620327D01*
X200324838Y-85276799D01*
X200325162Y-84904833D01*
X200183117Y-84561057D01*
X199920327Y-84297808D01*
X199576799Y-84155162D01*
X199204833Y-84154838D01*
X199083431Y-84205000D01*
X197170003Y-84205000D01*
X197169998Y-84204999D01*
X196911427Y-84256433D01*
X196976757Y-84099100D01*
X196977242Y-83543339D01*
X196765010Y-83029697D01*
X196372370Y-82636371D01*
X196164488Y-82550051D01*
X196370303Y-82465010D01*
X196763629Y-82072370D01*
X196976757Y-81559100D01*
X196977242Y-81003339D01*
X196765010Y-80489697D01*
X196372370Y-80096371D01*
X195859100Y-79883243D01*
X195303339Y-79882758D01*
X194789697Y-80094990D01*
X194396371Y-80487630D01*
X194183243Y-81000900D01*
X194182758Y-81556661D01*
X194394990Y-82070303D01*
X194787630Y-82463629D01*
X194995512Y-82549949D01*
X194789697Y-82634990D01*
X194396371Y-83027630D01*
X194310051Y-83235512D01*
X194225010Y-83029697D01*
X193832370Y-82636371D01*
X193319100Y-82423243D01*
X192763339Y-82422758D01*
X192249697Y-82634990D01*
X191856371Y-83027630D01*
X191770051Y-83235512D01*
X191685010Y-83029697D01*
X191292370Y-82636371D01*
X190779100Y-82423243D01*
X190223339Y-82422758D01*
X189709697Y-82634990D01*
X189316371Y-83027630D01*
X189230051Y-83235512D01*
X189145010Y-83029697D01*
X188752370Y-82636371D01*
X188239100Y-82423243D01*
X187683339Y-82422758D01*
X187169697Y-82634990D01*
X186776371Y-83027630D01*
X186563243Y-83540900D01*
X186562758Y-84096661D01*
X186774990Y-84610303D01*
X187167630Y-85003629D01*
X187680900Y-85216757D01*
X188236661Y-85217242D01*
X188750303Y-85005010D01*
X189143629Y-84612370D01*
X189229949Y-84404488D01*
X189314990Y-84610303D01*
X189707630Y-85003629D01*
X190220900Y-85216757D01*
X190776661Y-85217242D01*
X191290303Y-85005010D01*
X191683629Y-84612370D01*
X191769949Y-84404488D01*
X191854990Y-84610303D01*
X192247630Y-85003629D01*
X192760900Y-85216757D01*
X193316661Y-85217242D01*
X193830303Y-85005010D01*
X194223629Y-84612370D01*
X194309949Y-84404488D01*
X194394990Y-84610303D01*
X194787630Y-85003629D01*
X195300900Y-85216757D01*
X195791234Y-85217185D01*
X190453418Y-90555000D01*
X174012890Y-90555000D01*
X174315743Y-90374647D01*
X174709119Y-89402988D01*
X174707377Y-89185750D01*
X186325000Y-89185750D01*
X186325000Y-90026310D01*
X186421673Y-90259699D01*
X186600302Y-90438327D01*
X186833691Y-90535000D01*
X187674250Y-90535000D01*
X187833000Y-90376250D01*
X187833000Y-89027000D01*
X188087000Y-89027000D01*
X188087000Y-90376250D01*
X188245750Y-90535000D01*
X189086309Y-90535000D01*
X189319698Y-90438327D01*
X189498327Y-90259699D01*
X189595000Y-90026310D01*
X189595000Y-89185750D01*
X189436250Y-89027000D01*
X188087000Y-89027000D01*
X187833000Y-89027000D01*
X186483750Y-89027000D01*
X186325000Y-89185750D01*
X174707377Y-89185750D01*
X174700713Y-88354753D01*
X174460029Y-87773690D01*
X186325000Y-87773690D01*
X186325000Y-88614250D01*
X186483750Y-88773000D01*
X187833000Y-88773000D01*
X187833000Y-87423750D01*
X188087000Y-87423750D01*
X188087000Y-88773000D01*
X189436250Y-88773000D01*
X189595000Y-88614250D01*
X189595000Y-87773690D01*
X189498327Y-87540301D01*
X189319698Y-87361673D01*
X189086309Y-87265000D01*
X188245750Y-87265000D01*
X188087000Y-87423750D01*
X187833000Y-87423750D01*
X187674250Y-87265000D01*
X186833691Y-87265000D01*
X186600302Y-87361673D01*
X186421673Y-87540301D01*
X186325000Y-87773690D01*
X174460029Y-87773690D01*
X174315743Y-87425353D01*
X173945022Y-87204584D01*
X172249605Y-88900000D01*
X172263748Y-88914142D01*
X172084142Y-89093748D01*
X172070000Y-89079605D01*
X172055858Y-89093748D01*
X171876252Y-88914142D01*
X171890395Y-88900000D01*
X170194978Y-87204584D01*
X169824257Y-87425353D01*
X169430881Y-88397012D01*
X169439287Y-89445247D01*
X169824257Y-90374647D01*
X170127110Y-90555000D01*
X162612890Y-90555000D01*
X162915743Y-90374647D01*
X163309119Y-89402988D01*
X163300713Y-88354753D01*
X162915743Y-87425353D01*
X162545022Y-87204584D01*
X160849605Y-88900000D01*
X160863748Y-88914142D01*
X160684142Y-89093748D01*
X160670000Y-89079605D01*
X160655858Y-89093748D01*
X160476252Y-88914142D01*
X160490395Y-88900000D01*
X158794978Y-87204584D01*
X158424257Y-87425353D01*
X158030881Y-88397012D01*
X158039287Y-89445247D01*
X158424257Y-90374647D01*
X158727110Y-90555000D01*
X156516822Y-90555000D01*
X156396799Y-90505162D01*
X156024833Y-90504838D01*
X155681057Y-90646883D01*
X155417808Y-90909673D01*
X155275162Y-91253201D01*
X155274838Y-91625167D01*
X155416883Y-91968943D01*
X155679673Y-92232192D01*
X156023201Y-92374838D01*
X156395167Y-92375162D01*
X156516569Y-92325000D01*
X186143419Y-92325000D01*
X180293418Y-98175000D01*
X121171824Y-98175000D01*
X121051801Y-98125162D01*
X121046706Y-98125158D01*
X121574943Y-97906894D01*
X121920199Y-97562241D01*
X122262637Y-97905278D01*
X122863352Y-98154716D01*
X123513795Y-98155284D01*
X124114943Y-97906894D01*
X124460199Y-97562241D01*
X124802637Y-97905278D01*
X125403352Y-98154716D01*
X126053795Y-98155284D01*
X126654943Y-97906894D01*
X127000199Y-97562241D01*
X127342637Y-97905278D01*
X127943352Y-98154716D01*
X128593795Y-98155284D01*
X129194943Y-97906894D01*
X129655278Y-97447363D01*
X129672869Y-97405000D01*
X135978811Y-97405000D01*
X135978816Y-97405001D01*
X136261300Y-97348810D01*
X136317491Y-97337633D01*
X136604606Y-97145790D01*
X136697863Y-97052532D01*
X162897073Y-97052532D01*
X162995736Y-97319387D01*
X163605461Y-97545908D01*
X164255460Y-97521856D01*
X164744264Y-97319387D01*
X164842927Y-97052532D01*
X163870000Y-96079605D01*
X162897073Y-97052532D01*
X136697863Y-97052532D01*
X138114934Y-95635461D01*
X162224092Y-95635461D01*
X162248144Y-96285460D01*
X162450613Y-96774264D01*
X162717468Y-96872927D01*
X163690395Y-95900000D01*
X164049605Y-95900000D01*
X165022532Y-96872927D01*
X165289387Y-96774264D01*
X165493893Y-96223795D01*
X167234716Y-96223795D01*
X167483106Y-96824943D01*
X167942637Y-97285278D01*
X168543352Y-97534716D01*
X169193795Y-97535284D01*
X169794943Y-97286894D01*
X170255278Y-96827363D01*
X170504716Y-96226648D01*
X170505284Y-95576205D01*
X170256894Y-94975057D01*
X169797363Y-94514722D01*
X169196648Y-94265284D01*
X168546205Y-94264716D01*
X167945057Y-94513106D01*
X167484722Y-94972637D01*
X167235284Y-95573352D01*
X167234716Y-96223795D01*
X165493893Y-96223795D01*
X165515908Y-96164539D01*
X165491856Y-95514540D01*
X165289387Y-95025736D01*
X165022532Y-94927073D01*
X164049605Y-95900000D01*
X163690395Y-95900000D01*
X162717468Y-94927073D01*
X162450613Y-95025736D01*
X162224092Y-95635461D01*
X138114934Y-95635461D01*
X139002927Y-94747468D01*
X162897073Y-94747468D01*
X163870000Y-95720395D01*
X164842927Y-94747468D01*
X164744264Y-94480613D01*
X164134539Y-94254092D01*
X163484540Y-94278144D01*
X162995736Y-94480613D01*
X162897073Y-94747468D01*
X139002927Y-94747468D01*
X144541435Y-89208960D01*
X144661544Y-89159332D01*
X144924793Y-88896542D01*
X145067439Y-88553014D01*
X145067763Y-88181048D01*
X144925718Y-87837272D01*
X144662928Y-87574023D01*
X144319400Y-87431377D01*
X144191063Y-87431265D01*
X144191162Y-87317833D01*
X144070158Y-87024978D01*
X158974584Y-87024978D01*
X160670000Y-88720395D01*
X162365416Y-87024978D01*
X170374584Y-87024978D01*
X172070000Y-88720395D01*
X173765416Y-87024978D01*
X173544647Y-86654257D01*
X172572988Y-86260881D01*
X171524753Y-86269287D01*
X170595353Y-86654257D01*
X170374584Y-87024978D01*
X162365416Y-87024978D01*
X162144647Y-86654257D01*
X161172988Y-86260881D01*
X160124753Y-86269287D01*
X159195353Y-86654257D01*
X158974584Y-87024978D01*
X144070158Y-87024978D01*
X144049117Y-86974057D01*
X143786327Y-86710808D01*
X143665013Y-86660434D01*
X141633800Y-84629220D01*
X141608582Y-84612370D01*
X141346685Y-84437377D01*
X141290494Y-84426200D01*
X141008010Y-84370009D01*
X141008005Y-84370010D01*
X133650075Y-84370010D01*
X133650162Y-84269833D01*
X133520072Y-83954991D01*
X143021343Y-83954991D01*
X143233673Y-84167692D01*
X143577201Y-84310338D01*
X143949167Y-84310662D01*
X144292943Y-84168617D01*
X144556192Y-83905827D01*
X144698838Y-83562299D01*
X144699162Y-83190333D01*
X144557117Y-82846557D01*
X144294327Y-82583308D01*
X144173014Y-82532934D01*
X144084281Y-82444201D01*
X143920849Y-82335000D01*
X143797166Y-82252358D01*
X143740975Y-82241181D01*
X143458491Y-82184990D01*
X143458486Y-82184991D01*
X129664568Y-82184991D01*
X129856072Y-81723795D01*
X162234716Y-81723795D01*
X162483106Y-82324943D01*
X162942637Y-82785278D01*
X163543352Y-83034716D01*
X164193795Y-83035284D01*
X164794943Y-82786894D01*
X165029715Y-82552532D01*
X165397073Y-82552532D01*
X165495736Y-82819387D01*
X166105461Y-83045908D01*
X166755460Y-83021856D01*
X167244264Y-82819387D01*
X167342927Y-82552532D01*
X166370000Y-81579605D01*
X165397073Y-82552532D01*
X165029715Y-82552532D01*
X165211752Y-82370813D01*
X165217468Y-82372927D01*
X166190395Y-81400000D01*
X166549605Y-81400000D01*
X167522532Y-82372927D01*
X167528722Y-82370639D01*
X167942637Y-82785278D01*
X168543352Y-83034716D01*
X169193795Y-83035284D01*
X169794943Y-82786894D01*
X170255278Y-82327363D01*
X170504716Y-81726648D01*
X170505284Y-81076205D01*
X170256894Y-80475057D01*
X169797363Y-80014722D01*
X169196648Y-79765284D01*
X168546205Y-79764716D01*
X167945057Y-80013106D01*
X167528248Y-80429187D01*
X167522532Y-80427073D01*
X166549605Y-81400000D01*
X166190395Y-81400000D01*
X165217468Y-80427073D01*
X165211278Y-80429361D01*
X165029703Y-80247468D01*
X165397073Y-80247468D01*
X166370000Y-81220395D01*
X167342927Y-80247468D01*
X167244264Y-79980613D01*
X166634539Y-79754092D01*
X165984540Y-79778144D01*
X165495736Y-79980613D01*
X165397073Y-80247468D01*
X165029703Y-80247468D01*
X164797363Y-80014722D01*
X164196648Y-79765284D01*
X163546205Y-79764716D01*
X162945057Y-80013106D01*
X162484722Y-80472637D01*
X162235284Y-81073352D01*
X162234716Y-81723795D01*
X129856072Y-81723795D01*
X129904716Y-81606648D01*
X129905284Y-80956205D01*
X129656894Y-80355057D01*
X129197363Y-79894722D01*
X128596648Y-79645284D01*
X127946205Y-79644716D01*
X127345057Y-79893106D01*
X126999801Y-80237759D01*
X126657363Y-79894722D01*
X126056648Y-79645284D01*
X125406205Y-79644716D01*
X124805057Y-79893106D01*
X124459801Y-80237759D01*
X124117363Y-79894722D01*
X123516648Y-79645284D01*
X122866205Y-79644716D01*
X122265057Y-79893106D01*
X121919801Y-80237759D01*
X121577363Y-79894722D01*
X120976648Y-79645284D01*
X120326205Y-79644716D01*
X119725057Y-79893106D01*
X119379801Y-80237759D01*
X119037363Y-79894722D01*
X118436648Y-79645284D01*
X117786205Y-79644716D01*
X117185057Y-79893106D01*
X116839801Y-80237759D01*
X116497363Y-79894722D01*
X115896648Y-79645284D01*
X115246205Y-79644716D01*
X114645057Y-79893106D01*
X114184722Y-80352637D01*
X113935284Y-80953352D01*
X113934716Y-81603795D01*
X114183106Y-82204943D01*
X114642637Y-82665278D01*
X115243352Y-82914716D01*
X115893795Y-82915284D01*
X115936188Y-82897768D01*
X122056208Y-89017787D01*
X122056210Y-89017790D01*
X122343325Y-89209633D01*
X122399516Y-89220810D01*
X122682000Y-89277001D01*
X122682005Y-89277000D01*
X126028919Y-89277000D01*
X124280919Y-91024999D01*
X118361004Y-91024999D01*
X118360999Y-91024998D01*
X118078515Y-91081189D01*
X118022324Y-91092366D01*
X117876204Y-91190000D01*
X78665822Y-91190000D01*
X78545799Y-91140162D01*
X78173833Y-91139838D01*
X77830057Y-91281883D01*
X77566808Y-91544673D01*
X77424162Y-91888201D01*
X77423838Y-92260167D01*
X77565883Y-92603943D01*
X77828673Y-92867192D01*
X78172201Y-93009838D01*
X78544167Y-93010162D01*
X78665569Y-92960000D01*
X82527521Y-92960000D01*
X82434722Y-93052637D01*
X82185284Y-93653352D01*
X82184716Y-94303795D01*
X82433106Y-94904943D01*
X82892637Y-95365278D01*
X82968006Y-95396574D01*
X82636371Y-95727630D01*
X82423243Y-96240900D01*
X82422758Y-96796661D01*
X82634990Y-97310303D01*
X83027630Y-97703629D01*
X83540900Y-97916757D01*
X84096661Y-97917242D01*
X84610303Y-97705010D01*
X85003629Y-97312370D01*
X85216757Y-96799100D01*
X85217242Y-96243339D01*
X85005010Y-95729697D01*
X84672656Y-95396762D01*
X84744943Y-95366894D01*
X85205278Y-94907363D01*
X85454716Y-94306648D01*
X85455284Y-93656205D01*
X85206894Y-93055057D01*
X85112003Y-92960000D01*
X90147521Y-92960000D01*
X90054722Y-93052637D01*
X89805284Y-93653352D01*
X89804716Y-94303795D01*
X90053106Y-94904943D01*
X90512637Y-95365278D01*
X91113352Y-95614716D01*
X91763795Y-95615284D01*
X92364943Y-95366894D01*
X92825278Y-94907363D01*
X93074716Y-94306648D01*
X93075284Y-93656205D01*
X92826894Y-93055057D01*
X92732003Y-92960000D01*
X116362421Y-92960000D01*
X114944210Y-94378210D01*
X114752367Y-94665325D01*
X114741190Y-94721516D01*
X114714327Y-94856560D01*
X114554000Y-94856560D01*
X114318683Y-94900838D01*
X114102559Y-95039910D01*
X113957569Y-95252110D01*
X113906560Y-95504000D01*
X113906560Y-97536000D01*
X113950838Y-97771317D01*
X114089910Y-97987441D01*
X114302110Y-98132431D01*
X114554000Y-98183440D01*
X116586000Y-98183440D01*
X116821317Y-98139162D01*
X117037441Y-98000090D01*
X117134899Y-97857456D01*
X117182637Y-97905278D01*
X117783352Y-98154716D01*
X118433795Y-98155284D01*
X119034943Y-97906894D01*
X119380199Y-97562241D01*
X119722637Y-97905278D01*
X120323352Y-98154716D01*
X120606925Y-98154964D01*
X120336059Y-98266883D01*
X120072810Y-98529673D01*
X119930164Y-98873201D01*
X119929840Y-99245167D01*
X120071885Y-99588943D01*
X120334675Y-99852192D01*
X120678203Y-99994838D01*
X121050169Y-99995162D01*
X121171571Y-99945000D01*
X180659993Y-99945000D01*
X180659998Y-99945001D01*
X180942482Y-99888810D01*
X180998673Y-99877633D01*
X181285788Y-99685790D01*
X186425023Y-94546555D01*
X186573106Y-94904943D01*
X187032637Y-95365278D01*
X187108006Y-95396574D01*
X186776371Y-95727630D01*
X186563243Y-96240900D01*
X186562758Y-96796661D01*
X186774990Y-97310303D01*
X187167630Y-97703629D01*
X187680900Y-97916757D01*
X188236661Y-97917242D01*
X188468000Y-97821655D01*
X188468000Y-105414869D01*
X188273340Y-105609190D01*
X187643718Y-107125487D01*
X187642285Y-108767310D01*
X188269259Y-110284704D01*
X188468000Y-110483792D01*
X188468000Y-124995000D01*
X160736580Y-124995000D01*
X173763834Y-111967745D01*
X173883943Y-111918117D01*
X174147192Y-111655327D01*
X174289838Y-111311799D01*
X174290162Y-110939833D01*
X174148117Y-110596057D01*
X173885327Y-110332808D01*
X173541799Y-110190162D01*
X173169833Y-110189838D01*
X172826057Y-110331883D01*
X172562808Y-110594673D01*
X172512434Y-110715987D01*
X159653420Y-123575000D01*
X133081581Y-123575000D01*
X131100789Y-121594207D01*
X131100786Y-121594205D01*
X131017745Y-121511163D01*
X130968117Y-121391055D01*
X130705327Y-121127806D01*
X130361799Y-120985160D01*
X129989833Y-120984836D01*
X129885327Y-121028017D01*
X139119287Y-111794056D01*
X139119290Y-111794054D01*
X139311133Y-111506939D01*
X139378500Y-111168264D01*
X139378500Y-111050822D01*
X139428338Y-110930799D01*
X139428662Y-110558833D01*
X139286617Y-110215057D01*
X139023827Y-109951808D01*
X138680299Y-109809162D01*
X138308333Y-109808838D01*
X138048786Y-109916080D01*
X137791299Y-109809162D01*
X137419333Y-109808838D01*
X137075557Y-109950883D01*
X136812308Y-110213673D01*
X136761934Y-110334987D01*
X128520000Y-118576920D01*
X128520000Y-117841580D01*
X136298834Y-110062745D01*
X136418943Y-110013117D01*
X136682192Y-109750327D01*
X136824838Y-109406799D01*
X136825162Y-109034833D01*
X136683117Y-108691057D01*
X136420327Y-108427808D01*
X136076799Y-108285162D01*
X135704833Y-108284838D01*
X135361057Y-108426883D01*
X135097808Y-108689673D01*
X135047434Y-108810987D01*
X127009210Y-116849210D01*
X126817367Y-117136325D01*
X126817367Y-117136326D01*
X126749999Y-117475000D01*
X126750000Y-117475005D01*
X126750000Y-119073174D01*
X126700162Y-119193197D01*
X126699838Y-119565163D01*
X126782409Y-119765000D01*
X115790854Y-119765000D01*
X115753162Y-119564683D01*
X115614090Y-119348559D01*
X115401890Y-119203569D01*
X115150000Y-119152560D01*
X113450000Y-119152560D01*
X113214683Y-119196838D01*
X112998559Y-119335910D01*
X112853569Y-119548110D01*
X112839914Y-119615541D01*
X112810054Y-119570853D01*
X112328285Y-119248946D01*
X111760000Y-119135907D01*
X111191715Y-119248946D01*
X110709946Y-119570853D01*
X110490000Y-119900026D01*
X110270054Y-119570853D01*
X109788285Y-119248946D01*
X109220000Y-119135907D01*
X108651715Y-119248946D01*
X108169946Y-119570853D01*
X107950000Y-119900026D01*
X107730054Y-119570853D01*
X107248285Y-119248946D01*
X106680000Y-119135907D01*
X106111715Y-119248946D01*
X105629946Y-119570853D01*
X105410000Y-119900026D01*
X105190054Y-119570853D01*
X104708285Y-119248946D01*
X104140000Y-119135907D01*
X103571715Y-119248946D01*
X103089946Y-119570853D01*
X102862298Y-119911553D01*
X102795183Y-119768642D01*
X102366924Y-119378355D01*
X101956890Y-119208524D01*
X101727000Y-119329845D01*
X101727000Y-120523000D01*
X101747000Y-120523000D01*
X101747000Y-120777000D01*
X101727000Y-120777000D01*
X101727000Y-121970155D01*
X101956890Y-122091476D01*
X102366924Y-121921645D01*
X102795183Y-121531358D01*
X102862298Y-121388447D01*
X103089946Y-121729147D01*
X103571715Y-122051054D01*
X104140000Y-122164093D01*
X104708285Y-122051054D01*
X105190054Y-121729147D01*
X105410000Y-121399974D01*
X105629946Y-121729147D01*
X106111715Y-122051054D01*
X106680000Y-122164093D01*
X107248285Y-122051054D01*
X107730054Y-121729147D01*
X107950000Y-121399974D01*
X108169946Y-121729147D01*
X108651715Y-122051054D01*
X109220000Y-122164093D01*
X109788285Y-122051054D01*
X110270054Y-121729147D01*
X110490000Y-121399974D01*
X110709946Y-121729147D01*
X111191715Y-122051054D01*
X111760000Y-122164093D01*
X111978960Y-122120539D01*
X112484209Y-122625788D01*
X112484211Y-122625791D01*
X112771326Y-122817634D01*
X112827517Y-122828811D01*
X113110001Y-122885002D01*
X113110006Y-122885001D01*
X127661758Y-122885001D01*
X127661763Y-122885002D01*
X127944247Y-122828811D01*
X128000438Y-122817634D01*
X128287553Y-122625791D01*
X129282780Y-121630564D01*
X129240162Y-121733199D01*
X129239838Y-122105165D01*
X129381883Y-122448941D01*
X129644673Y-122712190D01*
X129765987Y-122762564D01*
X129849207Y-122845784D01*
X129849209Y-122845787D01*
X131998423Y-124995000D01*
X75002391Y-124995000D01*
X73272751Y-124650953D01*
X71867804Y-123712197D01*
X70929047Y-122307249D01*
X70750470Y-121409482D01*
X71094336Y-121409482D01*
X71676950Y-122819515D01*
X72754811Y-123899259D01*
X74163825Y-124484333D01*
X75689482Y-124485664D01*
X77099515Y-123903050D01*
X78179259Y-122825189D01*
X78764333Y-121416175D01*
X78764690Y-121006892D01*
X100158514Y-121006892D01*
X100404817Y-121531358D01*
X100833076Y-121921645D01*
X101243110Y-122091476D01*
X101473000Y-121970155D01*
X101473000Y-120777000D01*
X100279181Y-120777000D01*
X100158514Y-121006892D01*
X78764690Y-121006892D01*
X78765312Y-120293108D01*
X100158514Y-120293108D01*
X100279181Y-120523000D01*
X101473000Y-120523000D01*
X101473000Y-119329845D01*
X101243110Y-119208524D01*
X100833076Y-119378355D01*
X100404817Y-119768642D01*
X100158514Y-120293108D01*
X78765312Y-120293108D01*
X78765664Y-119890518D01*
X78183050Y-118480485D01*
X77105189Y-117400741D01*
X75696175Y-116815667D01*
X74170518Y-116814336D01*
X72760485Y-117396950D01*
X71680741Y-118474811D01*
X71095667Y-119883825D01*
X71094336Y-121409482D01*
X70750470Y-121409482D01*
X70585000Y-120577610D01*
X70585000Y-112182815D01*
X72794630Y-112182815D01*
X73118980Y-112967800D01*
X73719041Y-113568909D01*
X74503459Y-113894628D01*
X75352815Y-113895370D01*
X76137800Y-113571020D01*
X76738909Y-112970959D01*
X77064628Y-112186541D01*
X77065370Y-111337185D01*
X76741020Y-110552200D01*
X76140959Y-109951091D01*
X75356541Y-109625372D01*
X74507185Y-109624630D01*
X73722200Y-109948980D01*
X73121091Y-110549041D01*
X72795372Y-111333459D01*
X72794630Y-112182815D01*
X70585000Y-112182815D01*
X70585000Y-106965750D01*
X72795000Y-106965750D01*
X72795000Y-108306309D01*
X72891673Y-108539698D01*
X73070301Y-108718327D01*
X73303690Y-108815000D01*
X74644250Y-108815000D01*
X74803000Y-108656250D01*
X74803000Y-106807000D01*
X75057000Y-106807000D01*
X75057000Y-108656250D01*
X75215750Y-108815000D01*
X76556310Y-108815000D01*
X76789699Y-108718327D01*
X76968327Y-108539698D01*
X77065000Y-108306309D01*
X77065000Y-106965750D01*
X76906250Y-106807000D01*
X75057000Y-106807000D01*
X74803000Y-106807000D01*
X72953750Y-106807000D01*
X72795000Y-106965750D01*
X70585000Y-106965750D01*
X70585000Y-105053691D01*
X72795000Y-105053691D01*
X72795000Y-106394250D01*
X72953750Y-106553000D01*
X74803000Y-106553000D01*
X74803000Y-104703750D01*
X75057000Y-104703750D01*
X75057000Y-106553000D01*
X76906250Y-106553000D01*
X77065000Y-106394250D01*
X77065000Y-105053691D01*
X76968327Y-104820302D01*
X76789699Y-104641673D01*
X76556310Y-104545000D01*
X75215750Y-104545000D01*
X75057000Y-104703750D01*
X74803000Y-104703750D01*
X74644250Y-104545000D01*
X73303690Y-104545000D01*
X73070301Y-104641673D01*
X72891673Y-104820302D01*
X72795000Y-105053691D01*
X70585000Y-105053691D01*
X70585000Y-102870000D01*
X89535000Y-102870000D01*
X89535000Y-115570000D01*
X89578427Y-115800795D01*
X89714827Y-116012767D01*
X89922949Y-116154971D01*
X90170000Y-116205000D01*
X113030000Y-116205000D01*
X113260795Y-116161573D01*
X113472767Y-116025173D01*
X113614971Y-115817051D01*
X113665000Y-115570000D01*
X113665000Y-114358167D01*
X116793838Y-114358167D01*
X116935883Y-114701943D01*
X117198673Y-114965192D01*
X117542201Y-115107838D01*
X117914167Y-115108162D01*
X118257943Y-114966117D01*
X118521192Y-114703327D01*
X118615350Y-114476571D01*
X118786173Y-114647692D01*
X119129701Y-114790338D01*
X119501667Y-114790662D01*
X119845443Y-114648617D01*
X120108692Y-114385827D01*
X120251338Y-114042299D01*
X120251662Y-113670333D01*
X120201500Y-113548931D01*
X120201500Y-112276076D01*
X126811648Y-105665927D01*
X127410492Y-105665927D01*
X127530515Y-105715765D01*
X127902481Y-105716089D01*
X128246257Y-105574044D01*
X128509506Y-105311254D01*
X128652152Y-104967726D01*
X128652241Y-104865926D01*
X136634346Y-104865926D01*
X137570826Y-105802406D01*
X137520057Y-105823383D01*
X137256808Y-106086173D01*
X137114162Y-106429701D01*
X137113838Y-106801667D01*
X137255883Y-107145443D01*
X137518673Y-107408692D01*
X137639986Y-107459066D01*
X142900047Y-112719126D01*
X142900049Y-112719129D01*
X143187164Y-112910972D01*
X143234250Y-112920338D01*
X143525839Y-112978340D01*
X143525844Y-112978339D01*
X145104082Y-112978339D01*
X143397420Y-114685000D01*
X140564834Y-114685000D01*
X140444811Y-114635162D01*
X140072845Y-114634838D01*
X139832840Y-114734006D01*
X139594798Y-114635162D01*
X139222832Y-114634838D01*
X138879056Y-114776883D01*
X138615807Y-115039673D01*
X138473161Y-115383201D01*
X138472837Y-115755167D01*
X138522999Y-115876569D01*
X138522999Y-115953996D01*
X138522998Y-115954001D01*
X138571094Y-116195789D01*
X138590366Y-116292676D01*
X138732127Y-116504838D01*
X138782209Y-116579791D01*
X139198207Y-116995788D01*
X139198209Y-116995791D01*
X139485324Y-117187634D01*
X139541515Y-117198811D01*
X139823999Y-117255002D01*
X139824004Y-117255001D01*
X140591996Y-117255001D01*
X140592001Y-117255002D01*
X140843322Y-117205010D01*
X143417410Y-117205010D01*
X142381420Y-118241000D01*
X138228822Y-118241000D01*
X138108799Y-118191162D01*
X137736833Y-118190838D01*
X137393057Y-118332883D01*
X137129808Y-118595673D01*
X136987162Y-118939201D01*
X136986838Y-119311167D01*
X137128883Y-119654943D01*
X137391673Y-119918192D01*
X137735201Y-120060838D01*
X138107167Y-120061162D01*
X138228569Y-120011000D01*
X142747995Y-120011000D01*
X142748000Y-120011001D01*
X143030484Y-119954810D01*
X143086675Y-119943633D01*
X143373790Y-119751790D01*
X143910207Y-119215373D01*
X143986883Y-119400943D01*
X144249673Y-119664192D01*
X144593201Y-119806838D01*
X144965167Y-119807162D01*
X145086569Y-119757000D01*
X145478495Y-119757000D01*
X145478500Y-119757001D01*
X145760984Y-119700810D01*
X145817175Y-119689633D01*
X145849250Y-119668201D01*
X145822560Y-119800000D01*
X145822560Y-121500000D01*
X145866838Y-121735317D01*
X146005910Y-121951441D01*
X146218110Y-122096431D01*
X146470000Y-122147440D01*
X148170000Y-122147440D01*
X148405317Y-122103162D01*
X148621441Y-121964090D01*
X148766431Y-121751890D01*
X148788301Y-121643893D01*
X149093076Y-121921645D01*
X149503110Y-122091476D01*
X149733000Y-121970155D01*
X149733000Y-120777000D01*
X149987000Y-120777000D01*
X149987000Y-121970155D01*
X150216890Y-122091476D01*
X150626924Y-121921645D01*
X151055183Y-121531358D01*
X151301486Y-121006892D01*
X151180819Y-120777000D01*
X149987000Y-120777000D01*
X149733000Y-120777000D01*
X149713000Y-120777000D01*
X149713000Y-120523000D01*
X149733000Y-120523000D01*
X149733000Y-119329845D01*
X149987000Y-119329845D01*
X149987000Y-120523000D01*
X151180819Y-120523000D01*
X151301486Y-120293108D01*
X151055183Y-119768642D01*
X150626924Y-119378355D01*
X150216890Y-119208524D01*
X149987000Y-119329845D01*
X149733000Y-119329845D01*
X149503110Y-119208524D01*
X149093076Y-119378355D01*
X148790063Y-119654501D01*
X148773162Y-119564683D01*
X148634090Y-119348559D01*
X148421890Y-119203569D01*
X148170000Y-119152560D01*
X146470000Y-119152560D01*
X146444773Y-119157307D01*
X149347144Y-116254935D01*
X149227442Y-116543209D01*
X149227118Y-116915175D01*
X149369163Y-117258951D01*
X149631953Y-117522200D01*
X149753266Y-117572574D01*
X151043480Y-118862787D01*
X151043482Y-118862790D01*
X151235326Y-118990975D01*
X151330598Y-119054634D01*
X151669272Y-119122001D01*
X151669277Y-119122000D01*
X152676292Y-119122000D01*
X152796315Y-119171838D01*
X153168281Y-119172162D01*
X153512057Y-119030117D01*
X153547000Y-118995235D01*
X153547000Y-120851178D01*
X153497162Y-120971201D01*
X153496838Y-121343167D01*
X153638883Y-121686943D01*
X153901673Y-121950192D01*
X154245201Y-122092838D01*
X154617167Y-122093162D01*
X154960943Y-121951117D01*
X155224192Y-121688327D01*
X155366838Y-121344799D01*
X155367162Y-120972833D01*
X155317000Y-120851431D01*
X155317000Y-114572363D01*
X155358744Y-114634838D01*
X155490609Y-114832189D01*
X156017512Y-115359092D01*
X155981400Y-115540641D01*
X155981400Y-115599359D01*
X156095474Y-116172848D01*
X156420330Y-116659029D01*
X156906511Y-116983885D01*
X157480000Y-117097959D01*
X158053489Y-116983885D01*
X158539670Y-116659029D01*
X158548805Y-116645358D01*
X158553238Y-116668917D01*
X158692310Y-116885041D01*
X158904510Y-117030031D01*
X159156400Y-117081040D01*
X160883600Y-117081040D01*
X161118917Y-117036762D01*
X161335041Y-116897690D01*
X161480031Y-116685490D01*
X161531040Y-116433600D01*
X161531040Y-114706400D01*
X161486762Y-114471083D01*
X161347690Y-114254959D01*
X161135490Y-114109969D01*
X161091655Y-114101092D01*
X161404526Y-113632848D01*
X161518600Y-113059359D01*
X161518600Y-113000641D01*
X161404526Y-112427152D01*
X161079670Y-111940971D01*
X160808828Y-111760000D01*
X161079670Y-111579029D01*
X161404526Y-111092848D01*
X161518600Y-110519359D01*
X161518600Y-110460641D01*
X161404526Y-109887152D01*
X161079670Y-109400971D01*
X160593489Y-109076115D01*
X160020000Y-108962041D01*
X159446511Y-109076115D01*
X158960330Y-109400971D01*
X158744336Y-109724228D01*
X158686821Y-109601510D01*
X158254947Y-109207312D01*
X158071938Y-109131512D01*
X162686449Y-104517000D01*
X165936178Y-104517000D01*
X166056201Y-104566838D01*
X166428167Y-104567162D01*
X166771943Y-104425117D01*
X167035192Y-104162327D01*
X167177838Y-103818799D01*
X167178162Y-103446833D01*
X167036117Y-103103057D01*
X166773327Y-102839808D01*
X166429799Y-102697162D01*
X166057833Y-102696838D01*
X165936431Y-102747000D01*
X162319875Y-102747000D01*
X162319870Y-102746999D01*
X162037386Y-102803190D01*
X161981195Y-102814367D01*
X161694080Y-103006210D01*
X161694078Y-103006213D01*
X155490609Y-109209681D01*
X155317000Y-109469507D01*
X155317000Y-105014579D01*
X155348835Y-104982745D01*
X155468943Y-104933117D01*
X155732192Y-104670327D01*
X155874838Y-104326799D01*
X155875162Y-103954833D01*
X155733117Y-103611057D01*
X155470327Y-103347808D01*
X155126799Y-103205162D01*
X154754833Y-103204838D01*
X154411057Y-103346883D01*
X154147808Y-103609673D01*
X154097434Y-103730987D01*
X153806210Y-104022210D01*
X153614367Y-104309325D01*
X153614367Y-104309326D01*
X153546999Y-104648000D01*
X153547000Y-104648005D01*
X153547000Y-117478426D01*
X153513441Y-117444808D01*
X153169913Y-117302162D01*
X152797947Y-117301838D01*
X152676545Y-117352000D01*
X152035851Y-117352000D01*
X151005024Y-116321172D01*
X150955397Y-116201065D01*
X150692607Y-115937816D01*
X150349079Y-115795170D01*
X149977113Y-115794846D01*
X149687616Y-115914464D01*
X150649834Y-114952245D01*
X150769943Y-114902617D01*
X151033192Y-114639827D01*
X151175838Y-114296299D01*
X151176162Y-113924333D01*
X151034117Y-113580557D01*
X150771327Y-113317308D01*
X150427799Y-113174662D01*
X150055833Y-113174338D01*
X149742754Y-113303699D01*
X149778838Y-113216799D01*
X149779046Y-112978339D01*
X151157899Y-112978339D01*
X151277922Y-113028177D01*
X151649888Y-113028501D01*
X151993664Y-112886456D01*
X152256913Y-112623666D01*
X152399559Y-112280138D01*
X152399883Y-111908172D01*
X152257838Y-111564396D01*
X151995048Y-111301147D01*
X151651520Y-111158501D01*
X151279554Y-111158177D01*
X151158152Y-111208339D01*
X143892418Y-111208339D01*
X140568074Y-107883994D01*
X146197614Y-107883994D01*
X146339659Y-108227770D01*
X146602449Y-108491019D01*
X146945977Y-108633665D01*
X147317943Y-108633989D01*
X147661719Y-108491944D01*
X147924968Y-108229154D01*
X147991440Y-108069073D01*
X148137633Y-107850278D01*
X148154954Y-107763201D01*
X148205001Y-107511603D01*
X148205000Y-107511598D01*
X148205000Y-104065822D01*
X148254838Y-103945799D01*
X148255162Y-103573833D01*
X148113117Y-103230057D01*
X147850327Y-102966808D01*
X147506799Y-102824162D01*
X147134833Y-102823838D01*
X146791057Y-102965883D01*
X146527808Y-103228673D01*
X146385162Y-103572201D01*
X146384838Y-103944167D01*
X146435000Y-104065569D01*
X146435000Y-107074249D01*
X146340584Y-107168500D01*
X146197938Y-107512028D01*
X146197614Y-107883994D01*
X140568074Y-107883994D01*
X140368674Y-107684594D01*
X140419443Y-107663617D01*
X140682692Y-107400827D01*
X140825338Y-107057299D01*
X140825662Y-106685333D01*
X140683617Y-106341557D01*
X140420827Y-106078308D01*
X140299513Y-106027934D01*
X137626716Y-103355136D01*
X137614364Y-103346883D01*
X137339601Y-103163293D01*
X137283410Y-103152116D01*
X137000926Y-103095925D01*
X137000921Y-103095926D01*
X126184400Y-103095926D01*
X126184395Y-103095925D01*
X125845720Y-103163293D01*
X125558605Y-103355136D01*
X125558603Y-103355139D01*
X117103210Y-111810531D01*
X116911367Y-112097646D01*
X116911367Y-112097647D01*
X116843999Y-112436321D01*
X116844000Y-112436326D01*
X116844000Y-113866178D01*
X116794162Y-113986201D01*
X116793838Y-114358167D01*
X113665000Y-114358167D01*
X113665000Y-102870000D01*
X113621573Y-102639205D01*
X113485173Y-102427233D01*
X113277051Y-102285029D01*
X113030000Y-102235000D01*
X90170000Y-102235000D01*
X89939205Y-102278427D01*
X89727233Y-102414827D01*
X89585029Y-102622949D01*
X89535000Y-102870000D01*
X70585000Y-102870000D01*
X70585000Y-96511874D01*
X70940881Y-96511874D01*
X71142632Y-96922763D01*
X71483322Y-97210002D01*
X71908000Y-97345000D01*
X72183000Y-97345000D01*
X72183000Y-96337000D01*
X72437000Y-96337000D01*
X72437000Y-97345000D01*
X72712000Y-97345000D01*
X73136678Y-97210002D01*
X73477368Y-96922763D01*
X73679119Y-96511874D01*
X73552954Y-96337000D01*
X72437000Y-96337000D01*
X72183000Y-96337000D01*
X71067046Y-96337000D01*
X70940881Y-96511874D01*
X70585000Y-96511874D01*
X70585000Y-95908126D01*
X70940881Y-95908126D01*
X71067046Y-96083000D01*
X72183000Y-96083000D01*
X72183000Y-95075000D01*
X72437000Y-95075000D01*
X72437000Y-96083000D01*
X73552954Y-96083000D01*
X73679119Y-95908126D01*
X73484191Y-95511131D01*
X73908771Y-95511131D01*
X74050432Y-95921049D01*
X74338179Y-96245552D01*
X74712062Y-96429268D01*
X74883000Y-96302734D01*
X74883000Y-95337000D01*
X75137000Y-95337000D01*
X75137000Y-96302734D01*
X75307938Y-96429268D01*
X75681821Y-96245552D01*
X75969568Y-95921049D01*
X76111229Y-95511131D01*
X75962563Y-95337000D01*
X75137000Y-95337000D01*
X74883000Y-95337000D01*
X74057437Y-95337000D01*
X73908771Y-95511131D01*
X73484191Y-95511131D01*
X73477368Y-95497237D01*
X73136678Y-95209998D01*
X72712000Y-95075000D01*
X72437000Y-95075000D01*
X72183000Y-95075000D01*
X71908000Y-95075000D01*
X71483322Y-95209998D01*
X71142632Y-95497237D01*
X70940881Y-95908126D01*
X70585000Y-95908126D01*
X70585000Y-94908869D01*
X73908771Y-94908869D01*
X74057437Y-95083000D01*
X74883000Y-95083000D01*
X74883000Y-94117266D01*
X75137000Y-94117266D01*
X75137000Y-95083000D01*
X75962563Y-95083000D01*
X76111229Y-94908869D01*
X75969568Y-94498951D01*
X75681821Y-94174448D01*
X75307938Y-93990732D01*
X75137000Y-94117266D01*
X74883000Y-94117266D01*
X74712062Y-93990732D01*
X74338179Y-94174448D01*
X74050432Y-94498951D01*
X73908771Y-94908869D01*
X70585000Y-94908869D01*
X70585000Y-90511131D01*
X73908771Y-90511131D01*
X74050432Y-90921049D01*
X74338179Y-91245552D01*
X74712062Y-91429268D01*
X74883000Y-91302734D01*
X74883000Y-90337000D01*
X75137000Y-90337000D01*
X75137000Y-91302734D01*
X75307938Y-91429268D01*
X75681821Y-91245552D01*
X75969568Y-90921049D01*
X76111229Y-90511131D01*
X75962563Y-90337000D01*
X75137000Y-90337000D01*
X74883000Y-90337000D01*
X74057437Y-90337000D01*
X73908771Y-90511131D01*
X70585000Y-90511131D01*
X70585000Y-89511874D01*
X70940881Y-89511874D01*
X71142632Y-89922763D01*
X71483322Y-90210002D01*
X71908000Y-90345000D01*
X72183000Y-90345000D01*
X72183000Y-89337000D01*
X72437000Y-89337000D01*
X72437000Y-90345000D01*
X72712000Y-90345000D01*
X73136678Y-90210002D01*
X73477368Y-89922763D01*
X73484190Y-89908869D01*
X73908771Y-89908869D01*
X74057437Y-90083000D01*
X74883000Y-90083000D01*
X74883000Y-89117266D01*
X75137000Y-89117266D01*
X75137000Y-90083000D01*
X75962563Y-90083000D01*
X76111229Y-89908869D01*
X75969568Y-89498951D01*
X75691843Y-89185750D01*
X82185000Y-89185750D01*
X82185000Y-90026310D01*
X82281673Y-90259699D01*
X82460302Y-90438327D01*
X82693691Y-90535000D01*
X83534250Y-90535000D01*
X83693000Y-90376250D01*
X83693000Y-89027000D01*
X83947000Y-89027000D01*
X83947000Y-90376250D01*
X84105750Y-90535000D01*
X84946309Y-90535000D01*
X85179698Y-90438327D01*
X85358327Y-90259699D01*
X85444138Y-90052532D01*
X90467073Y-90052532D01*
X90565736Y-90319387D01*
X91175461Y-90545908D01*
X91825460Y-90521856D01*
X92314264Y-90319387D01*
X92412927Y-90052532D01*
X91440000Y-89079605D01*
X90467073Y-90052532D01*
X85444138Y-90052532D01*
X85455000Y-90026310D01*
X85455000Y-89185750D01*
X85296250Y-89027000D01*
X83947000Y-89027000D01*
X83693000Y-89027000D01*
X82343750Y-89027000D01*
X82185000Y-89185750D01*
X75691843Y-89185750D01*
X75681821Y-89174448D01*
X75307938Y-88990732D01*
X75137000Y-89117266D01*
X74883000Y-89117266D01*
X74712062Y-88990732D01*
X74338179Y-89174448D01*
X74050432Y-89498951D01*
X73908771Y-89908869D01*
X73484190Y-89908869D01*
X73679119Y-89511874D01*
X73552954Y-89337000D01*
X72437000Y-89337000D01*
X72183000Y-89337000D01*
X71067046Y-89337000D01*
X70940881Y-89511874D01*
X70585000Y-89511874D01*
X70585000Y-88908126D01*
X70940881Y-88908126D01*
X71067046Y-89083000D01*
X72183000Y-89083000D01*
X72183000Y-88075000D01*
X72437000Y-88075000D01*
X72437000Y-89083000D01*
X73552954Y-89083000D01*
X73679119Y-88908126D01*
X73477368Y-88497237D01*
X73136678Y-88209998D01*
X72712000Y-88075000D01*
X72437000Y-88075000D01*
X72183000Y-88075000D01*
X71908000Y-88075000D01*
X71483322Y-88209998D01*
X71142632Y-88497237D01*
X70940881Y-88908126D01*
X70585000Y-88908126D01*
X70585000Y-87773690D01*
X82185000Y-87773690D01*
X82185000Y-88614250D01*
X82343750Y-88773000D01*
X83693000Y-88773000D01*
X83693000Y-87423750D01*
X83947000Y-87423750D01*
X83947000Y-88773000D01*
X85296250Y-88773000D01*
X85433789Y-88635461D01*
X89794092Y-88635461D01*
X89818144Y-89285460D01*
X90020613Y-89774264D01*
X90287468Y-89872927D01*
X91260395Y-88900000D01*
X91619605Y-88900000D01*
X92592532Y-89872927D01*
X92859387Y-89774264D01*
X93085908Y-89164539D01*
X93061856Y-88514540D01*
X92859387Y-88025736D01*
X92592532Y-87927073D01*
X91619605Y-88900000D01*
X91260395Y-88900000D01*
X90287468Y-87927073D01*
X90020613Y-88025736D01*
X89794092Y-88635461D01*
X85433789Y-88635461D01*
X85455000Y-88614250D01*
X85455000Y-87773690D01*
X85444139Y-87747468D01*
X90467073Y-87747468D01*
X91440000Y-88720395D01*
X92412927Y-87747468D01*
X92314264Y-87480613D01*
X91704539Y-87254092D01*
X91054540Y-87278144D01*
X90565736Y-87480613D01*
X90467073Y-87747468D01*
X85444139Y-87747468D01*
X85358327Y-87540301D01*
X85179698Y-87361673D01*
X84946309Y-87265000D01*
X84105750Y-87265000D01*
X83947000Y-87423750D01*
X83693000Y-87423750D01*
X83534250Y-87265000D01*
X82693691Y-87265000D01*
X82460302Y-87361673D01*
X82281673Y-87540301D01*
X82185000Y-87773690D01*
X70585000Y-87773690D01*
X70585000Y-82039482D01*
X71094336Y-82039482D01*
X71676950Y-83449515D01*
X72754811Y-84529259D01*
X74163825Y-85114333D01*
X75689482Y-85115664D01*
X77099515Y-84533050D01*
X77536666Y-84096661D01*
X82422758Y-84096661D01*
X82634990Y-84610303D01*
X83027630Y-85003629D01*
X83540900Y-85216757D01*
X84096661Y-85217242D01*
X84610303Y-85005010D01*
X85003629Y-84612370D01*
X85089949Y-84404488D01*
X85174990Y-84610303D01*
X85567630Y-85003629D01*
X86080900Y-85216757D01*
X86636661Y-85217242D01*
X87150303Y-85005010D01*
X87543629Y-84612370D01*
X87629949Y-84404488D01*
X87714990Y-84610303D01*
X88107630Y-85003629D01*
X88620900Y-85216757D01*
X89176661Y-85217242D01*
X89690303Y-85005010D01*
X90083629Y-84612370D01*
X90169949Y-84404488D01*
X90254990Y-84610303D01*
X90647630Y-85003629D01*
X91160900Y-85216757D01*
X91716661Y-85217242D01*
X92230303Y-85005010D01*
X92623629Y-84612370D01*
X92836757Y-84099100D01*
X92837242Y-83543339D01*
X92625010Y-83029697D01*
X92232370Y-82636371D01*
X92024488Y-82550051D01*
X92230303Y-82465010D01*
X92623629Y-82072370D01*
X92836757Y-81559100D01*
X92837242Y-81003339D01*
X92625010Y-80489697D01*
X92232370Y-80096371D01*
X91719100Y-79883243D01*
X91163339Y-79882758D01*
X90649697Y-80094990D01*
X90256371Y-80487630D01*
X90043243Y-81000900D01*
X90042758Y-81556661D01*
X90254990Y-82070303D01*
X90647630Y-82463629D01*
X90855512Y-82549949D01*
X90649697Y-82634990D01*
X90256371Y-83027630D01*
X90170051Y-83235512D01*
X90085010Y-83029697D01*
X89692370Y-82636371D01*
X89179100Y-82423243D01*
X88623339Y-82422758D01*
X88109697Y-82634990D01*
X87716371Y-83027630D01*
X87630051Y-83235512D01*
X87545010Y-83029697D01*
X87152370Y-82636371D01*
X86639100Y-82423243D01*
X86083339Y-82422758D01*
X85569697Y-82634990D01*
X85176371Y-83027630D01*
X85090051Y-83235512D01*
X85005010Y-83029697D01*
X84612370Y-82636371D01*
X84099100Y-82423243D01*
X83543339Y-82422758D01*
X83029697Y-82634990D01*
X82636371Y-83027630D01*
X82423243Y-83540900D01*
X82422758Y-84096661D01*
X77536666Y-84096661D01*
X78179259Y-83455189D01*
X78764333Y-82046175D01*
X78765664Y-80520518D01*
X78183050Y-79110485D01*
X77105189Y-78030741D01*
X75696175Y-77445667D01*
X74170518Y-77444336D01*
X72760485Y-78026950D01*
X71680741Y-79104811D01*
X71095667Y-80513825D01*
X71094336Y-82039482D01*
X70585000Y-82039482D01*
X70585000Y-81352390D01*
X70929047Y-79622751D01*
X71867804Y-78217803D01*
X73272751Y-77279047D01*
X75002391Y-76935000D01*
X214557610Y-76935000D01*
X216287249Y-77279047D01*
X216287249Y-77279047D01*
G37*
X216287249Y-77279047D02*
X217692197Y-78217804D01*
X218630953Y-79622751D01*
X218975000Y-81352391D01*
X218975000Y-97663000D01*
X208573914Y-97663000D01*
X208916645Y-97286924D01*
X209086476Y-96876890D01*
X208965155Y-96647000D01*
X207772000Y-96647000D01*
X207772000Y-96667000D01*
X207518000Y-96667000D01*
X207518000Y-96647000D01*
X206324845Y-96647000D01*
X206203524Y-96876890D01*
X206373355Y-97286924D01*
X206716086Y-97663000D01*
X188792386Y-97663000D01*
X189143629Y-97312370D01*
X189356757Y-96799100D01*
X189357242Y-96243339D01*
X189145010Y-95729697D01*
X188812656Y-95396762D01*
X188884943Y-95366894D01*
X189345278Y-94907363D01*
X189594716Y-94306648D01*
X189595284Y-93656205D01*
X189355139Y-93075011D01*
X194185432Y-93075011D01*
X193945284Y-93653352D01*
X193944716Y-94303795D01*
X194193106Y-94904943D01*
X194652637Y-95365278D01*
X195253352Y-95614716D01*
X195752882Y-95615152D01*
X195606034Y-95762000D01*
X191949822Y-95762000D01*
X191829799Y-95712162D01*
X191457833Y-95711838D01*
X191114057Y-95853883D01*
X190850808Y-96116673D01*
X190708162Y-96460201D01*
X190707838Y-96832167D01*
X190849883Y-97175943D01*
X191112673Y-97439192D01*
X191456201Y-97581838D01*
X191828167Y-97582162D01*
X191949569Y-97532000D01*
X195972609Y-97532000D01*
X195972614Y-97532001D01*
X196255098Y-97475810D01*
X196311289Y-97464633D01*
X196598404Y-97272790D01*
X197836141Y-96035052D01*
X197956250Y-95985424D01*
X198219499Y-95722634D01*
X198362145Y-95379106D01*
X198362469Y-95007140D01*
X198220424Y-94663364D01*
X197957634Y-94400115D01*
X197614106Y-94257469D01*
X197242140Y-94257145D01*
X197214749Y-94268463D01*
X197215284Y-93656205D01*
X196975139Y-93075011D01*
X205692903Y-93075011D01*
X205692908Y-93075012D01*
X205975392Y-93018821D01*
X206031583Y-93007644D01*
X206318698Y-92815801D01*
X206318699Y-92815800D01*
X206612965Y-92521533D01*
X206895026Y-92710000D01*
X206565853Y-92929946D01*
X206243946Y-93411715D01*
X206130907Y-93980000D01*
X206243946Y-94548285D01*
X206565853Y-95030054D01*
X206906553Y-95257702D01*
X206763642Y-95324817D01*
X206373355Y-95753076D01*
X206203524Y-96163110D01*
X206324845Y-96393000D01*
X207518000Y-96393000D01*
X207518000Y-96373000D01*
X207772000Y-96373000D01*
X207772000Y-96393000D01*
X208965155Y-96393000D01*
X209086476Y-96163110D01*
X208916645Y-95753076D01*
X208526358Y-95324817D01*
X208383447Y-95257702D01*
X208724147Y-95030054D01*
X209046054Y-94548285D01*
X209159093Y-93980000D01*
X209046054Y-93411715D01*
X208724147Y-92929946D01*
X208394974Y-92710000D01*
X208724147Y-92490054D01*
X209046054Y-92008285D01*
X209159093Y-91440000D01*
X209046054Y-90871715D01*
X208724147Y-90389946D01*
X208394974Y-90170000D01*
X208724147Y-89950054D01*
X209046054Y-89468285D01*
X209159093Y-88900000D01*
X209046054Y-88331715D01*
X208724147Y-87849946D01*
X208394974Y-87630000D01*
X208724147Y-87410054D01*
X209046054Y-86928285D01*
X209159093Y-86360000D01*
X209046054Y-85791715D01*
X208724147Y-85309946D01*
X208394974Y-85090000D01*
X208724147Y-84870054D01*
X209046054Y-84388285D01*
X209159093Y-83820000D01*
X209046054Y-83251715D01*
X208724147Y-82769946D01*
X208682548Y-82742150D01*
X208730317Y-82733162D01*
X208946441Y-82594090D01*
X209091431Y-82381890D01*
X209142440Y-82130000D01*
X209142440Y-82039482D01*
X210794336Y-82039482D01*
X211376950Y-83449515D01*
X212454811Y-84529259D01*
X213863825Y-85114333D01*
X215389482Y-85115664D01*
X216799515Y-84533050D01*
X217879259Y-83455189D01*
X218464333Y-82046175D01*
X218465664Y-80520518D01*
X217883050Y-79110485D01*
X216805189Y-78030741D01*
X215396175Y-77445667D01*
X213870518Y-77444336D01*
X212460485Y-78026950D01*
X211380741Y-79104811D01*
X210795667Y-80513825D01*
X210794336Y-82039482D01*
X209142440Y-82039482D01*
X209142440Y-80430000D01*
X209098162Y-80194683D01*
X208959090Y-79978559D01*
X208746890Y-79833569D01*
X208495000Y-79782560D01*
X206795000Y-79782560D01*
X206559683Y-79826838D01*
X206343559Y-79965910D01*
X206198569Y-80178110D01*
X206147560Y-80430000D01*
X206147560Y-82130000D01*
X206191838Y-82365317D01*
X206330910Y-82581441D01*
X206543110Y-82726431D01*
X206610541Y-82740086D01*
X206565853Y-82769946D01*
X206243946Y-83251715D01*
X206130907Y-83820000D01*
X206243946Y-84388285D01*
X206565853Y-84870054D01*
X206895026Y-85090000D01*
X206565853Y-85309946D01*
X206243946Y-85791715D01*
X206130907Y-86360000D01*
X206243946Y-86928285D01*
X206565853Y-87410054D01*
X206895026Y-87630000D01*
X206565853Y-87849946D01*
X206243946Y-88331715D01*
X206130907Y-88900000D01*
X206243946Y-89468285D01*
X206565853Y-89950054D01*
X206895026Y-90170000D01*
X206565853Y-90389946D01*
X206455568Y-90555000D01*
X206442924Y-90555000D01*
X206442919Y-90554999D01*
X206160435Y-90611190D01*
X206104244Y-90622367D01*
X205817129Y-90814210D01*
X205817127Y-90814213D01*
X205326328Y-91305011D01*
X192206567Y-91305011D01*
X193459046Y-90052532D01*
X194607073Y-90052532D01*
X194705736Y-90319387D01*
X195315461Y-90545908D01*
X195965460Y-90521856D01*
X196454264Y-90319387D01*
X196552927Y-90052532D01*
X195580000Y-89079605D01*
X194607073Y-90052532D01*
X193459046Y-90052532D01*
X194036632Y-89474946D01*
X194160613Y-89774264D01*
X194427468Y-89872927D01*
X195400395Y-88900000D01*
X195759605Y-88900000D01*
X196732532Y-89872927D01*
X196999387Y-89774264D01*
X197225908Y-89164539D01*
X197201856Y-88514540D01*
X196999387Y-88025736D01*
X196732532Y-87927073D01*
X195759605Y-88900000D01*
X195400395Y-88900000D01*
X195386253Y-88885858D01*
X195565858Y-88706253D01*
X195580000Y-88720395D01*
X196552927Y-87747468D01*
X196454264Y-87480613D01*
X196145627Y-87365950D01*
X197536577Y-85975000D01*
X199083178Y-85975000D01*
X199203201Y-86024838D01*
X199575167Y-86025162D01*
X199918943Y-85883117D01*
X200182192Y-85620327D01*
X200324838Y-85276799D01*
X200325162Y-84904833D01*
X200183117Y-84561057D01*
X199920327Y-84297808D01*
X199576799Y-84155162D01*
X199204833Y-84154838D01*
X199083431Y-84205000D01*
X197170003Y-84205000D01*
X197169998Y-84204999D01*
X196911427Y-84256433D01*
X196976757Y-84099100D01*
X196977242Y-83543339D01*
X196765010Y-83029697D01*
X196372370Y-82636371D01*
X196164488Y-82550051D01*
X196370303Y-82465010D01*
X196763629Y-82072370D01*
X196976757Y-81559100D01*
X196977242Y-81003339D01*
X196765010Y-80489697D01*
X196372370Y-80096371D01*
X195859100Y-79883243D01*
X195303339Y-79882758D01*
X194789697Y-80094990D01*
X194396371Y-80487630D01*
X194183243Y-81000900D01*
X194182758Y-81556661D01*
X194394990Y-82070303D01*
X194787630Y-82463629D01*
X194995512Y-82549949D01*
X194789697Y-82634990D01*
X194396371Y-83027630D01*
X194310051Y-83235512D01*
X194225010Y-83029697D01*
X193832370Y-82636371D01*
X193319100Y-82423243D01*
X192763339Y-82422758D01*
X192249697Y-82634990D01*
X191856371Y-83027630D01*
X191770051Y-83235512D01*
X191685010Y-83029697D01*
X191292370Y-82636371D01*
X190779100Y-82423243D01*
X190223339Y-82422758D01*
X189709697Y-82634990D01*
X189316371Y-83027630D01*
X189230051Y-83235512D01*
X189145010Y-83029697D01*
X188752370Y-82636371D01*
X188239100Y-82423243D01*
X187683339Y-82422758D01*
X187169697Y-82634990D01*
X186776371Y-83027630D01*
X186563243Y-83540900D01*
X186562758Y-84096661D01*
X186774990Y-84610303D01*
X187167630Y-85003629D01*
X187680900Y-85216757D01*
X188236661Y-85217242D01*
X188750303Y-85005010D01*
X189143629Y-84612370D01*
X189229949Y-84404488D01*
X189314990Y-84610303D01*
X189707630Y-85003629D01*
X190220900Y-85216757D01*
X190776661Y-85217242D01*
X191290303Y-85005010D01*
X191683629Y-84612370D01*
X191769949Y-84404488D01*
X191854990Y-84610303D01*
X192247630Y-85003629D01*
X192760900Y-85216757D01*
X193316661Y-85217242D01*
X193830303Y-85005010D01*
X194223629Y-84612370D01*
X194309949Y-84404488D01*
X194394990Y-84610303D01*
X194787630Y-85003629D01*
X195300900Y-85216757D01*
X195791234Y-85217185D01*
X190453418Y-90555000D01*
X174012890Y-90555000D01*
X174315743Y-90374647D01*
X174709119Y-89402988D01*
X174707377Y-89185750D01*
X186325000Y-89185750D01*
X186325000Y-90026310D01*
X186421673Y-90259699D01*
X186600302Y-90438327D01*
X186833691Y-90535000D01*
X187674250Y-90535000D01*
X187833000Y-90376250D01*
X187833000Y-89027000D01*
X188087000Y-89027000D01*
X188087000Y-90376250D01*
X188245750Y-90535000D01*
X189086309Y-90535000D01*
X189319698Y-90438327D01*
X189498327Y-90259699D01*
X189595000Y-90026310D01*
X189595000Y-89185750D01*
X189436250Y-89027000D01*
X188087000Y-89027000D01*
X187833000Y-89027000D01*
X186483750Y-89027000D01*
X186325000Y-89185750D01*
X174707377Y-89185750D01*
X174700713Y-88354753D01*
X174460029Y-87773690D01*
X186325000Y-87773690D01*
X186325000Y-88614250D01*
X186483750Y-88773000D01*
X187833000Y-88773000D01*
X187833000Y-87423750D01*
X188087000Y-87423750D01*
X188087000Y-88773000D01*
X189436250Y-88773000D01*
X189595000Y-88614250D01*
X189595000Y-87773690D01*
X189498327Y-87540301D01*
X189319698Y-87361673D01*
X189086309Y-87265000D01*
X188245750Y-87265000D01*
X188087000Y-87423750D01*
X187833000Y-87423750D01*
X187674250Y-87265000D01*
X186833691Y-87265000D01*
X186600302Y-87361673D01*
X186421673Y-87540301D01*
X186325000Y-87773690D01*
X174460029Y-87773690D01*
X174315743Y-87425353D01*
X173945022Y-87204584D01*
X172249605Y-88900000D01*
X172263748Y-88914142D01*
X172084142Y-89093748D01*
X172070000Y-89079605D01*
X172055858Y-89093748D01*
X171876252Y-88914142D01*
X171890395Y-88900000D01*
X170194978Y-87204584D01*
X169824257Y-87425353D01*
X169430881Y-88397012D01*
X169439287Y-89445247D01*
X169824257Y-90374647D01*
X170127110Y-90555000D01*
X162612890Y-90555000D01*
X162915743Y-90374647D01*
X163309119Y-89402988D01*
X163300713Y-88354753D01*
X162915743Y-87425353D01*
X162545022Y-87204584D01*
X160849605Y-88900000D01*
X160863748Y-88914142D01*
X160684142Y-89093748D01*
X160670000Y-89079605D01*
X160655858Y-89093748D01*
X160476252Y-88914142D01*
X160490395Y-88900000D01*
X158794978Y-87204584D01*
X158424257Y-87425353D01*
X158030881Y-88397012D01*
X158039287Y-89445247D01*
X158424257Y-90374647D01*
X158727110Y-90555000D01*
X156516822Y-90555000D01*
X156396799Y-90505162D01*
X156024833Y-90504838D01*
X155681057Y-90646883D01*
X155417808Y-90909673D01*
X155275162Y-91253201D01*
X155274838Y-91625167D01*
X155416883Y-91968943D01*
X155679673Y-92232192D01*
X156023201Y-92374838D01*
X156395167Y-92375162D01*
X156516569Y-92325000D01*
X186143419Y-92325000D01*
X180293418Y-98175000D01*
X121171824Y-98175000D01*
X121051801Y-98125162D01*
X121046706Y-98125158D01*
X121574943Y-97906894D01*
X121920199Y-97562241D01*
X122262637Y-97905278D01*
X122863352Y-98154716D01*
X123513795Y-98155284D01*
X124114943Y-97906894D01*
X124460199Y-97562241D01*
X124802637Y-97905278D01*
X125403352Y-98154716D01*
X126053795Y-98155284D01*
X126654943Y-97906894D01*
X127000199Y-97562241D01*
X127342637Y-97905278D01*
X127943352Y-98154716D01*
X128593795Y-98155284D01*
X129194943Y-97906894D01*
X129655278Y-97447363D01*
X129672869Y-97405000D01*
X135978811Y-97405000D01*
X135978816Y-97405001D01*
X136261300Y-97348810D01*
X136317491Y-97337633D01*
X136604606Y-97145790D01*
X136697863Y-97052532D01*
X162897073Y-97052532D01*
X162995736Y-97319387D01*
X163605461Y-97545908D01*
X164255460Y-97521856D01*
X164744264Y-97319387D01*
X164842927Y-97052532D01*
X163870000Y-96079605D01*
X162897073Y-97052532D01*
X136697863Y-97052532D01*
X138114934Y-95635461D01*
X162224092Y-95635461D01*
X162248144Y-96285460D01*
X162450613Y-96774264D01*
X162717468Y-96872927D01*
X163690395Y-95900000D01*
X164049605Y-95900000D01*
X165022532Y-96872927D01*
X165289387Y-96774264D01*
X165493893Y-96223795D01*
X167234716Y-96223795D01*
X167483106Y-96824943D01*
X167942637Y-97285278D01*
X168543352Y-97534716D01*
X169193795Y-97535284D01*
X169794943Y-97286894D01*
X170255278Y-96827363D01*
X170504716Y-96226648D01*
X170505284Y-95576205D01*
X170256894Y-94975057D01*
X169797363Y-94514722D01*
X169196648Y-94265284D01*
X168546205Y-94264716D01*
X167945057Y-94513106D01*
X167484722Y-94972637D01*
X167235284Y-95573352D01*
X167234716Y-96223795D01*
X165493893Y-96223795D01*
X165515908Y-96164539D01*
X165491856Y-95514540D01*
X165289387Y-95025736D01*
X165022532Y-94927073D01*
X164049605Y-95900000D01*
X163690395Y-95900000D01*
X162717468Y-94927073D01*
X162450613Y-95025736D01*
X162224092Y-95635461D01*
X138114934Y-95635461D01*
X139002927Y-94747468D01*
X162897073Y-94747468D01*
X163870000Y-95720395D01*
X164842927Y-94747468D01*
X164744264Y-94480613D01*
X164134539Y-94254092D01*
X163484540Y-94278144D01*
X162995736Y-94480613D01*
X162897073Y-94747468D01*
X139002927Y-94747468D01*
X144541435Y-89208960D01*
X144661544Y-89159332D01*
X144924793Y-88896542D01*
X145067439Y-88553014D01*
X145067763Y-88181048D01*
X144925718Y-87837272D01*
X144662928Y-87574023D01*
X144319400Y-87431377D01*
X144191063Y-87431265D01*
X144191162Y-87317833D01*
X144070158Y-87024978D01*
X158974584Y-87024978D01*
X160670000Y-88720395D01*
X162365416Y-87024978D01*
X170374584Y-87024978D01*
X172070000Y-88720395D01*
X173765416Y-87024978D01*
X173544647Y-86654257D01*
X172572988Y-86260881D01*
X171524753Y-86269287D01*
X170595353Y-86654257D01*
X170374584Y-87024978D01*
X162365416Y-87024978D01*
X162144647Y-86654257D01*
X161172988Y-86260881D01*
X160124753Y-86269287D01*
X159195353Y-86654257D01*
X158974584Y-87024978D01*
X144070158Y-87024978D01*
X144049117Y-86974057D01*
X143786327Y-86710808D01*
X143665013Y-86660434D01*
X141633800Y-84629220D01*
X141608582Y-84612370D01*
X141346685Y-84437377D01*
X141290494Y-84426200D01*
X141008010Y-84370009D01*
X141008005Y-84370010D01*
X133650075Y-84370010D01*
X133650162Y-84269833D01*
X133520072Y-83954991D01*
X143021343Y-83954991D01*
X143233673Y-84167692D01*
X143577201Y-84310338D01*
X143949167Y-84310662D01*
X144292943Y-84168617D01*
X144556192Y-83905827D01*
X144698838Y-83562299D01*
X144699162Y-83190333D01*
X144557117Y-82846557D01*
X144294327Y-82583308D01*
X144173014Y-82532934D01*
X144084281Y-82444201D01*
X143920849Y-82335000D01*
X143797166Y-82252358D01*
X143740975Y-82241181D01*
X143458491Y-82184990D01*
X143458486Y-82184991D01*
X129664568Y-82184991D01*
X129856072Y-81723795D01*
X162234716Y-81723795D01*
X162483106Y-82324943D01*
X162942637Y-82785278D01*
X163543352Y-83034716D01*
X164193795Y-83035284D01*
X164794943Y-82786894D01*
X165029715Y-82552532D01*
X165397073Y-82552532D01*
X165495736Y-82819387D01*
X166105461Y-83045908D01*
X166755460Y-83021856D01*
X167244264Y-82819387D01*
X167342927Y-82552532D01*
X166370000Y-81579605D01*
X165397073Y-82552532D01*
X165029715Y-82552532D01*
X165211752Y-82370813D01*
X165217468Y-82372927D01*
X166190395Y-81400000D01*
X166549605Y-81400000D01*
X167522532Y-82372927D01*
X167528722Y-82370639D01*
X167942637Y-82785278D01*
X168543352Y-83034716D01*
X169193795Y-83035284D01*
X169794943Y-82786894D01*
X170255278Y-82327363D01*
X170504716Y-81726648D01*
X170505284Y-81076205D01*
X170256894Y-80475057D01*
X169797363Y-80014722D01*
X169196648Y-79765284D01*
X168546205Y-79764716D01*
X167945057Y-80013106D01*
X167528248Y-80429187D01*
X167522532Y-80427073D01*
X166549605Y-81400000D01*
X166190395Y-81400000D01*
X165217468Y-80427073D01*
X165211278Y-80429361D01*
X165029703Y-80247468D01*
X165397073Y-80247468D01*
X166370000Y-81220395D01*
X167342927Y-80247468D01*
X167244264Y-79980613D01*
X166634539Y-79754092D01*
X165984540Y-79778144D01*
X165495736Y-79980613D01*
X165397073Y-80247468D01*
X165029703Y-80247468D01*
X164797363Y-80014722D01*
X164196648Y-79765284D01*
X163546205Y-79764716D01*
X162945057Y-80013106D01*
X162484722Y-80472637D01*
X162235284Y-81073352D01*
X162234716Y-81723795D01*
X129856072Y-81723795D01*
X129904716Y-81606648D01*
X129905284Y-80956205D01*
X129656894Y-80355057D01*
X129197363Y-79894722D01*
X128596648Y-79645284D01*
X127946205Y-79644716D01*
X127345057Y-79893106D01*
X126999801Y-80237759D01*
X126657363Y-79894722D01*
X126056648Y-79645284D01*
X125406205Y-79644716D01*
X124805057Y-79893106D01*
X124459801Y-80237759D01*
X124117363Y-79894722D01*
X123516648Y-79645284D01*
X122866205Y-79644716D01*
X122265057Y-79893106D01*
X121919801Y-80237759D01*
X121577363Y-79894722D01*
X120976648Y-79645284D01*
X120326205Y-79644716D01*
X119725057Y-79893106D01*
X119379801Y-80237759D01*
X119037363Y-79894722D01*
X118436648Y-79645284D01*
X117786205Y-79644716D01*
X117185057Y-79893106D01*
X116839801Y-80237759D01*
X116497363Y-79894722D01*
X115896648Y-79645284D01*
X115246205Y-79644716D01*
X114645057Y-79893106D01*
X114184722Y-80352637D01*
X113935284Y-80953352D01*
X113934716Y-81603795D01*
X114183106Y-82204943D01*
X114642637Y-82665278D01*
X115243352Y-82914716D01*
X115893795Y-82915284D01*
X115936188Y-82897768D01*
X122056208Y-89017787D01*
X122056210Y-89017790D01*
X122343325Y-89209633D01*
X122399516Y-89220810D01*
X122682000Y-89277001D01*
X122682005Y-89277000D01*
X126028919Y-89277000D01*
X124280919Y-91024999D01*
X118361004Y-91024999D01*
X118360999Y-91024998D01*
X118078515Y-91081189D01*
X118022324Y-91092366D01*
X117876204Y-91190000D01*
X78665822Y-91190000D01*
X78545799Y-91140162D01*
X78173833Y-91139838D01*
X77830057Y-91281883D01*
X77566808Y-91544673D01*
X77424162Y-91888201D01*
X77423838Y-92260167D01*
X77565883Y-92603943D01*
X77828673Y-92867192D01*
X78172201Y-93009838D01*
X78544167Y-93010162D01*
X78665569Y-92960000D01*
X82527521Y-92960000D01*
X82434722Y-93052637D01*
X82185284Y-93653352D01*
X82184716Y-94303795D01*
X82433106Y-94904943D01*
X82892637Y-95365278D01*
X82968006Y-95396574D01*
X82636371Y-95727630D01*
X82423243Y-96240900D01*
X82422758Y-96796661D01*
X82634990Y-97310303D01*
X83027630Y-97703629D01*
X83540900Y-97916757D01*
X84096661Y-97917242D01*
X84610303Y-97705010D01*
X85003629Y-97312370D01*
X85216757Y-96799100D01*
X85217242Y-96243339D01*
X85005010Y-95729697D01*
X84672656Y-95396762D01*
X84744943Y-95366894D01*
X85205278Y-94907363D01*
X85454716Y-94306648D01*
X85455284Y-93656205D01*
X85206894Y-93055057D01*
X85112003Y-92960000D01*
X90147521Y-92960000D01*
X90054722Y-93052637D01*
X89805284Y-93653352D01*
X89804716Y-94303795D01*
X90053106Y-94904943D01*
X90512637Y-95365278D01*
X91113352Y-95614716D01*
X91763795Y-95615284D01*
X92364943Y-95366894D01*
X92825278Y-94907363D01*
X93074716Y-94306648D01*
X93075284Y-93656205D01*
X92826894Y-93055057D01*
X92732003Y-92960000D01*
X116362421Y-92960000D01*
X114944210Y-94378210D01*
X114752367Y-94665325D01*
X114741190Y-94721516D01*
X114714327Y-94856560D01*
X114554000Y-94856560D01*
X114318683Y-94900838D01*
X114102559Y-95039910D01*
X113957569Y-95252110D01*
X113906560Y-95504000D01*
X113906560Y-97536000D01*
X113950838Y-97771317D01*
X114089910Y-97987441D01*
X114302110Y-98132431D01*
X114554000Y-98183440D01*
X116586000Y-98183440D01*
X116821317Y-98139162D01*
X117037441Y-98000090D01*
X117134899Y-97857456D01*
X117182637Y-97905278D01*
X117783352Y-98154716D01*
X118433795Y-98155284D01*
X119034943Y-97906894D01*
X119380199Y-97562241D01*
X119722637Y-97905278D01*
X120323352Y-98154716D01*
X120606925Y-98154964D01*
X120336059Y-98266883D01*
X120072810Y-98529673D01*
X119930164Y-98873201D01*
X119929840Y-99245167D01*
X120071885Y-99588943D01*
X120334675Y-99852192D01*
X120678203Y-99994838D01*
X121050169Y-99995162D01*
X121171571Y-99945000D01*
X180659993Y-99945000D01*
X180659998Y-99945001D01*
X180942482Y-99888810D01*
X180998673Y-99877633D01*
X181285788Y-99685790D01*
X186425023Y-94546555D01*
X186573106Y-94904943D01*
X187032637Y-95365278D01*
X187108006Y-95396574D01*
X186776371Y-95727630D01*
X186563243Y-96240900D01*
X186562758Y-96796661D01*
X186774990Y-97310303D01*
X187167630Y-97703629D01*
X187680900Y-97916757D01*
X188236661Y-97917242D01*
X188468000Y-97821655D01*
X188468000Y-105414869D01*
X188273340Y-105609190D01*
X187643718Y-107125487D01*
X187642285Y-108767310D01*
X188269259Y-110284704D01*
X188468000Y-110483792D01*
X188468000Y-124995000D01*
X160736580Y-124995000D01*
X173763834Y-111967745D01*
X173883943Y-111918117D01*
X174147192Y-111655327D01*
X174289838Y-111311799D01*
X174290162Y-110939833D01*
X174148117Y-110596057D01*
X173885327Y-110332808D01*
X173541799Y-110190162D01*
X173169833Y-110189838D01*
X172826057Y-110331883D01*
X172562808Y-110594673D01*
X172512434Y-110715987D01*
X159653420Y-123575000D01*
X133081581Y-123575000D01*
X131100789Y-121594207D01*
X131100786Y-121594205D01*
X131017745Y-121511163D01*
X130968117Y-121391055D01*
X130705327Y-121127806D01*
X130361799Y-120985160D01*
X129989833Y-120984836D01*
X129885327Y-121028017D01*
X139119287Y-111794056D01*
X139119290Y-111794054D01*
X139311133Y-111506939D01*
X139378500Y-111168264D01*
X139378500Y-111050822D01*
X139428338Y-110930799D01*
X139428662Y-110558833D01*
X139286617Y-110215057D01*
X139023827Y-109951808D01*
X138680299Y-109809162D01*
X138308333Y-109808838D01*
X138048786Y-109916080D01*
X137791299Y-109809162D01*
X137419333Y-109808838D01*
X137075557Y-109950883D01*
X136812308Y-110213673D01*
X136761934Y-110334987D01*
X128520000Y-118576920D01*
X128520000Y-117841580D01*
X136298834Y-110062745D01*
X136418943Y-110013117D01*
X136682192Y-109750327D01*
X136824838Y-109406799D01*
X136825162Y-109034833D01*
X136683117Y-108691057D01*
X136420327Y-108427808D01*
X136076799Y-108285162D01*
X135704833Y-108284838D01*
X135361057Y-108426883D01*
X135097808Y-108689673D01*
X135047434Y-108810987D01*
X127009210Y-116849210D01*
X126817367Y-117136325D01*
X126817367Y-117136326D01*
X126749999Y-117475000D01*
X126750000Y-117475005D01*
X126750000Y-119073174D01*
X126700162Y-119193197D01*
X126699838Y-119565163D01*
X126782409Y-119765000D01*
X115790854Y-119765000D01*
X115753162Y-119564683D01*
X115614090Y-119348559D01*
X115401890Y-119203569D01*
X115150000Y-119152560D01*
X113450000Y-119152560D01*
X113214683Y-119196838D01*
X112998559Y-119335910D01*
X112853569Y-119548110D01*
X112839914Y-119615541D01*
X112810054Y-119570853D01*
X112328285Y-119248946D01*
X111760000Y-119135907D01*
X111191715Y-119248946D01*
X110709946Y-119570853D01*
X110490000Y-119900026D01*
X110270054Y-119570853D01*
X109788285Y-119248946D01*
X109220000Y-119135907D01*
X108651715Y-119248946D01*
X108169946Y-119570853D01*
X107950000Y-119900026D01*
X107730054Y-119570853D01*
X107248285Y-119248946D01*
X106680000Y-119135907D01*
X106111715Y-119248946D01*
X105629946Y-119570853D01*
X105410000Y-119900026D01*
X105190054Y-119570853D01*
X104708285Y-119248946D01*
X104140000Y-119135907D01*
X103571715Y-119248946D01*
X103089946Y-119570853D01*
X102862298Y-119911553D01*
X102795183Y-119768642D01*
X102366924Y-119378355D01*
X101956890Y-119208524D01*
X101727000Y-119329845D01*
X101727000Y-120523000D01*
X101747000Y-120523000D01*
X101747000Y-120777000D01*
X101727000Y-120777000D01*
X101727000Y-121970155D01*
X101956890Y-122091476D01*
X102366924Y-121921645D01*
X102795183Y-121531358D01*
X102862298Y-121388447D01*
X103089946Y-121729147D01*
X103571715Y-122051054D01*
X104140000Y-122164093D01*
X104708285Y-122051054D01*
X105190054Y-121729147D01*
X105410000Y-121399974D01*
X105629946Y-121729147D01*
X106111715Y-122051054D01*
X106680000Y-122164093D01*
X107248285Y-122051054D01*
X107730054Y-121729147D01*
X107950000Y-121399974D01*
X108169946Y-121729147D01*
X108651715Y-122051054D01*
X109220000Y-122164093D01*
X109788285Y-122051054D01*
X110270054Y-121729147D01*
X110490000Y-121399974D01*
X110709946Y-121729147D01*
X111191715Y-122051054D01*
X111760000Y-122164093D01*
X111978960Y-122120539D01*
X112484209Y-122625788D01*
X112484211Y-122625791D01*
X112771326Y-122817634D01*
X112827517Y-122828811D01*
X113110001Y-122885002D01*
X113110006Y-122885001D01*
X127661758Y-122885001D01*
X127661763Y-122885002D01*
X127944247Y-122828811D01*
X128000438Y-122817634D01*
X128287553Y-122625791D01*
X129282780Y-121630564D01*
X129240162Y-121733199D01*
X129239838Y-122105165D01*
X129381883Y-122448941D01*
X129644673Y-122712190D01*
X129765987Y-122762564D01*
X129849207Y-122845784D01*
X129849209Y-122845787D01*
X131998423Y-124995000D01*
X75002391Y-124995000D01*
X73272751Y-124650953D01*
X71867804Y-123712197D01*
X70929047Y-122307249D01*
X70750470Y-121409482D01*
X71094336Y-121409482D01*
X71676950Y-122819515D01*
X72754811Y-123899259D01*
X74163825Y-124484333D01*
X75689482Y-124485664D01*
X77099515Y-123903050D01*
X78179259Y-122825189D01*
X78764333Y-121416175D01*
X78764690Y-121006892D01*
X100158514Y-121006892D01*
X100404817Y-121531358D01*
X100833076Y-121921645D01*
X101243110Y-122091476D01*
X101473000Y-121970155D01*
X101473000Y-120777000D01*
X100279181Y-120777000D01*
X100158514Y-121006892D01*
X78764690Y-121006892D01*
X78765312Y-120293108D01*
X100158514Y-120293108D01*
X100279181Y-120523000D01*
X101473000Y-120523000D01*
X101473000Y-119329845D01*
X101243110Y-119208524D01*
X100833076Y-119378355D01*
X100404817Y-119768642D01*
X100158514Y-120293108D01*
X78765312Y-120293108D01*
X78765664Y-119890518D01*
X78183050Y-118480485D01*
X77105189Y-117400741D01*
X75696175Y-116815667D01*
X74170518Y-116814336D01*
X72760485Y-117396950D01*
X71680741Y-118474811D01*
X71095667Y-119883825D01*
X71094336Y-121409482D01*
X70750470Y-121409482D01*
X70585000Y-120577610D01*
X70585000Y-112182815D01*
X72794630Y-112182815D01*
X73118980Y-112967800D01*
X73719041Y-113568909D01*
X74503459Y-113894628D01*
X75352815Y-113895370D01*
X76137800Y-113571020D01*
X76738909Y-112970959D01*
X77064628Y-112186541D01*
X77065370Y-111337185D01*
X76741020Y-110552200D01*
X76140959Y-109951091D01*
X75356541Y-109625372D01*
X74507185Y-109624630D01*
X73722200Y-109948980D01*
X73121091Y-110549041D01*
X72795372Y-111333459D01*
X72794630Y-112182815D01*
X70585000Y-112182815D01*
X70585000Y-106965750D01*
X72795000Y-106965750D01*
X72795000Y-108306309D01*
X72891673Y-108539698D01*
X73070301Y-108718327D01*
X73303690Y-108815000D01*
X74644250Y-108815000D01*
X74803000Y-108656250D01*
X74803000Y-106807000D01*
X75057000Y-106807000D01*
X75057000Y-108656250D01*
X75215750Y-108815000D01*
X76556310Y-108815000D01*
X76789699Y-108718327D01*
X76968327Y-108539698D01*
X77065000Y-108306309D01*
X77065000Y-106965750D01*
X76906250Y-106807000D01*
X75057000Y-106807000D01*
X74803000Y-106807000D01*
X72953750Y-106807000D01*
X72795000Y-106965750D01*
X70585000Y-106965750D01*
X70585000Y-105053691D01*
X72795000Y-105053691D01*
X72795000Y-106394250D01*
X72953750Y-106553000D01*
X74803000Y-106553000D01*
X74803000Y-104703750D01*
X75057000Y-104703750D01*
X75057000Y-106553000D01*
X76906250Y-106553000D01*
X77065000Y-106394250D01*
X77065000Y-105053691D01*
X76968327Y-104820302D01*
X76789699Y-104641673D01*
X76556310Y-104545000D01*
X75215750Y-104545000D01*
X75057000Y-104703750D01*
X74803000Y-104703750D01*
X74644250Y-104545000D01*
X73303690Y-104545000D01*
X73070301Y-104641673D01*
X72891673Y-104820302D01*
X72795000Y-105053691D01*
X70585000Y-105053691D01*
X70585000Y-102870000D01*
X89535000Y-102870000D01*
X89535000Y-115570000D01*
X89578427Y-115800795D01*
X89714827Y-116012767D01*
X89922949Y-116154971D01*
X90170000Y-116205000D01*
X113030000Y-116205000D01*
X113260795Y-116161573D01*
X113472767Y-116025173D01*
X113614971Y-115817051D01*
X113665000Y-115570000D01*
X113665000Y-114358167D01*
X116793838Y-114358167D01*
X116935883Y-114701943D01*
X117198673Y-114965192D01*
X117542201Y-115107838D01*
X117914167Y-115108162D01*
X118257943Y-114966117D01*
X118521192Y-114703327D01*
X118615350Y-114476571D01*
X118786173Y-114647692D01*
X119129701Y-114790338D01*
X119501667Y-114790662D01*
X119845443Y-114648617D01*
X120108692Y-114385827D01*
X120251338Y-114042299D01*
X120251662Y-113670333D01*
X120201500Y-113548931D01*
X120201500Y-112276076D01*
X126811648Y-105665927D01*
X127410492Y-105665927D01*
X127530515Y-105715765D01*
X127902481Y-105716089D01*
X128246257Y-105574044D01*
X128509506Y-105311254D01*
X128652152Y-104967726D01*
X128652241Y-104865926D01*
X136634346Y-104865926D01*
X137570826Y-105802406D01*
X137520057Y-105823383D01*
X137256808Y-106086173D01*
X137114162Y-106429701D01*
X137113838Y-106801667D01*
X137255883Y-107145443D01*
X137518673Y-107408692D01*
X137639986Y-107459066D01*
X142900047Y-112719126D01*
X142900049Y-112719129D01*
X143187164Y-112910972D01*
X143234250Y-112920338D01*
X143525839Y-112978340D01*
X143525844Y-112978339D01*
X145104082Y-112978339D01*
X143397420Y-114685000D01*
X140564834Y-114685000D01*
X140444811Y-114635162D01*
X140072845Y-114634838D01*
X139832840Y-114734006D01*
X139594798Y-114635162D01*
X139222832Y-114634838D01*
X138879056Y-114776883D01*
X138615807Y-115039673D01*
X138473161Y-115383201D01*
X138472837Y-115755167D01*
X138522999Y-115876569D01*
X138522999Y-115953996D01*
X138522998Y-115954001D01*
X138571094Y-116195789D01*
X138590366Y-116292676D01*
X138732127Y-116504838D01*
X138782209Y-116579791D01*
X139198207Y-116995788D01*
X139198209Y-116995791D01*
X139485324Y-117187634D01*
X139541515Y-117198811D01*
X139823999Y-117255002D01*
X139824004Y-117255001D01*
X140591996Y-117255001D01*
X140592001Y-117255002D01*
X140843322Y-117205010D01*
X143417410Y-117205010D01*
X142381420Y-118241000D01*
X138228822Y-118241000D01*
X138108799Y-118191162D01*
X137736833Y-118190838D01*
X137393057Y-118332883D01*
X137129808Y-118595673D01*
X136987162Y-118939201D01*
X136986838Y-119311167D01*
X137128883Y-119654943D01*
X137391673Y-119918192D01*
X137735201Y-120060838D01*
X138107167Y-120061162D01*
X138228569Y-120011000D01*
X142747995Y-120011000D01*
X142748000Y-120011001D01*
X143030484Y-119954810D01*
X143086675Y-119943633D01*
X143373790Y-119751790D01*
X143910207Y-119215373D01*
X143986883Y-119400943D01*
X144249673Y-119664192D01*
X144593201Y-119806838D01*
X144965167Y-119807162D01*
X145086569Y-119757000D01*
X145478495Y-119757000D01*
X145478500Y-119757001D01*
X145760984Y-119700810D01*
X145817175Y-119689633D01*
X145849250Y-119668201D01*
X145822560Y-119800000D01*
X145822560Y-121500000D01*
X145866838Y-121735317D01*
X146005910Y-121951441D01*
X146218110Y-122096431D01*
X146470000Y-122147440D01*
X148170000Y-122147440D01*
X148405317Y-122103162D01*
X148621441Y-121964090D01*
X148766431Y-121751890D01*
X148788301Y-121643893D01*
X149093076Y-121921645D01*
X149503110Y-122091476D01*
X149733000Y-121970155D01*
X149733000Y-120777000D01*
X149987000Y-120777000D01*
X149987000Y-121970155D01*
X150216890Y-122091476D01*
X150626924Y-121921645D01*
X151055183Y-121531358D01*
X151301486Y-121006892D01*
X151180819Y-120777000D01*
X149987000Y-120777000D01*
X149733000Y-120777000D01*
X149713000Y-120777000D01*
X149713000Y-120523000D01*
X149733000Y-120523000D01*
X149733000Y-119329845D01*
X149987000Y-119329845D01*
X149987000Y-120523000D01*
X151180819Y-120523000D01*
X151301486Y-120293108D01*
X151055183Y-119768642D01*
X150626924Y-119378355D01*
X150216890Y-119208524D01*
X149987000Y-119329845D01*
X149733000Y-119329845D01*
X149503110Y-119208524D01*
X149093076Y-119378355D01*
X148790063Y-119654501D01*
X148773162Y-119564683D01*
X148634090Y-119348559D01*
X148421890Y-119203569D01*
X148170000Y-119152560D01*
X146470000Y-119152560D01*
X146444773Y-119157307D01*
X149347144Y-116254935D01*
X149227442Y-116543209D01*
X149227118Y-116915175D01*
X149369163Y-117258951D01*
X149631953Y-117522200D01*
X149753266Y-117572574D01*
X151043480Y-118862787D01*
X151043482Y-118862790D01*
X151235326Y-118990975D01*
X151330598Y-119054634D01*
X151669272Y-119122001D01*
X151669277Y-119122000D01*
X152676292Y-119122000D01*
X152796315Y-119171838D01*
X153168281Y-119172162D01*
X153512057Y-119030117D01*
X153547000Y-118995235D01*
X153547000Y-120851178D01*
X153497162Y-120971201D01*
X153496838Y-121343167D01*
X153638883Y-121686943D01*
X153901673Y-121950192D01*
X154245201Y-122092838D01*
X154617167Y-122093162D01*
X154960943Y-121951117D01*
X155224192Y-121688327D01*
X155366838Y-121344799D01*
X155367162Y-120972833D01*
X155317000Y-120851431D01*
X155317000Y-114572363D01*
X155358744Y-114634838D01*
X155490609Y-114832189D01*
X156017512Y-115359092D01*
X155981400Y-115540641D01*
X155981400Y-115599359D01*
X156095474Y-116172848D01*
X156420330Y-116659029D01*
X156906511Y-116983885D01*
X157480000Y-117097959D01*
X158053489Y-116983885D01*
X158539670Y-116659029D01*
X158548805Y-116645358D01*
X158553238Y-116668917D01*
X158692310Y-116885041D01*
X158904510Y-117030031D01*
X159156400Y-117081040D01*
X160883600Y-117081040D01*
X161118917Y-117036762D01*
X161335041Y-116897690D01*
X161480031Y-116685490D01*
X161531040Y-116433600D01*
X161531040Y-114706400D01*
X161486762Y-114471083D01*
X161347690Y-114254959D01*
X161135490Y-114109969D01*
X161091655Y-114101092D01*
X161404526Y-113632848D01*
X161518600Y-113059359D01*
X161518600Y-113000641D01*
X161404526Y-112427152D01*
X161079670Y-111940971D01*
X160808828Y-111760000D01*
X161079670Y-111579029D01*
X161404526Y-111092848D01*
X161518600Y-110519359D01*
X161518600Y-110460641D01*
X161404526Y-109887152D01*
X161079670Y-109400971D01*
X160593489Y-109076115D01*
X160020000Y-108962041D01*
X159446511Y-109076115D01*
X158960330Y-109400971D01*
X158744336Y-109724228D01*
X158686821Y-109601510D01*
X158254947Y-109207312D01*
X158071938Y-109131512D01*
X162686449Y-104517000D01*
X165936178Y-104517000D01*
X166056201Y-104566838D01*
X166428167Y-104567162D01*
X166771943Y-104425117D01*
X167035192Y-104162327D01*
X167177838Y-103818799D01*
X167178162Y-103446833D01*
X167036117Y-103103057D01*
X166773327Y-102839808D01*
X166429799Y-102697162D01*
X166057833Y-102696838D01*
X165936431Y-102747000D01*
X162319875Y-102747000D01*
X162319870Y-102746999D01*
X162037386Y-102803190D01*
X161981195Y-102814367D01*
X161694080Y-103006210D01*
X161694078Y-103006213D01*
X155490609Y-109209681D01*
X155317000Y-109469507D01*
X155317000Y-105014579D01*
X155348835Y-104982745D01*
X155468943Y-104933117D01*
X155732192Y-104670327D01*
X155874838Y-104326799D01*
X155875162Y-103954833D01*
X155733117Y-103611057D01*
X155470327Y-103347808D01*
X155126799Y-103205162D01*
X154754833Y-103204838D01*
X154411057Y-103346883D01*
X154147808Y-103609673D01*
X154097434Y-103730987D01*
X153806210Y-104022210D01*
X153614367Y-104309325D01*
X153614367Y-104309326D01*
X153546999Y-104648000D01*
X153547000Y-104648005D01*
X153547000Y-117478426D01*
X153513441Y-117444808D01*
X153169913Y-117302162D01*
X152797947Y-117301838D01*
X152676545Y-117352000D01*
X152035851Y-117352000D01*
X151005024Y-116321172D01*
X150955397Y-116201065D01*
X150692607Y-115937816D01*
X150349079Y-115795170D01*
X149977113Y-115794846D01*
X149687616Y-115914464D01*
X150649834Y-114952245D01*
X150769943Y-114902617D01*
X151033192Y-114639827D01*
X151175838Y-114296299D01*
X151176162Y-113924333D01*
X151034117Y-113580557D01*
X150771327Y-113317308D01*
X150427799Y-113174662D01*
X150055833Y-113174338D01*
X149742754Y-113303699D01*
X149778838Y-113216799D01*
X149779046Y-112978339D01*
X151157899Y-112978339D01*
X151277922Y-113028177D01*
X151649888Y-113028501D01*
X151993664Y-112886456D01*
X152256913Y-112623666D01*
X152399559Y-112280138D01*
X152399883Y-111908172D01*
X152257838Y-111564396D01*
X151995048Y-111301147D01*
X151651520Y-111158501D01*
X151279554Y-111158177D01*
X151158152Y-111208339D01*
X143892418Y-111208339D01*
X140568074Y-107883994D01*
X146197614Y-107883994D01*
X146339659Y-108227770D01*
X146602449Y-108491019D01*
X146945977Y-108633665D01*
X147317943Y-108633989D01*
X147661719Y-108491944D01*
X147924968Y-108229154D01*
X147991440Y-108069073D01*
X148137633Y-107850278D01*
X148154954Y-107763201D01*
X148205001Y-107511603D01*
X148205000Y-107511598D01*
X148205000Y-104065822D01*
X148254838Y-103945799D01*
X148255162Y-103573833D01*
X148113117Y-103230057D01*
X147850327Y-102966808D01*
X147506799Y-102824162D01*
X147134833Y-102823838D01*
X146791057Y-102965883D01*
X146527808Y-103228673D01*
X146385162Y-103572201D01*
X146384838Y-103944167D01*
X146435000Y-104065569D01*
X146435000Y-107074249D01*
X146340584Y-107168500D01*
X146197938Y-107512028D01*
X146197614Y-107883994D01*
X140568074Y-107883994D01*
X140368674Y-107684594D01*
X140419443Y-107663617D01*
X140682692Y-107400827D01*
X140825338Y-107057299D01*
X140825662Y-106685333D01*
X140683617Y-106341557D01*
X140420827Y-106078308D01*
X140299513Y-106027934D01*
X137626716Y-103355136D01*
X137614364Y-103346883D01*
X137339601Y-103163293D01*
X137283410Y-103152116D01*
X137000926Y-103095925D01*
X137000921Y-103095926D01*
X126184400Y-103095926D01*
X126184395Y-103095925D01*
X125845720Y-103163293D01*
X125558605Y-103355136D01*
X125558603Y-103355139D01*
X117103210Y-111810531D01*
X116911367Y-112097646D01*
X116911367Y-112097647D01*
X116843999Y-112436321D01*
X116844000Y-112436326D01*
X116844000Y-113866178D01*
X116794162Y-113986201D01*
X116793838Y-114358167D01*
X113665000Y-114358167D01*
X113665000Y-102870000D01*
X113621573Y-102639205D01*
X113485173Y-102427233D01*
X113277051Y-102285029D01*
X113030000Y-102235000D01*
X90170000Y-102235000D01*
X89939205Y-102278427D01*
X89727233Y-102414827D01*
X89585029Y-102622949D01*
X89535000Y-102870000D01*
X70585000Y-102870000D01*
X70585000Y-96511874D01*
X70940881Y-96511874D01*
X71142632Y-96922763D01*
X71483322Y-97210002D01*
X71908000Y-97345000D01*
X72183000Y-97345000D01*
X72183000Y-96337000D01*
X72437000Y-96337000D01*
X72437000Y-97345000D01*
X72712000Y-97345000D01*
X73136678Y-97210002D01*
X73477368Y-96922763D01*
X73679119Y-96511874D01*
X73552954Y-96337000D01*
X72437000Y-96337000D01*
X72183000Y-96337000D01*
X71067046Y-96337000D01*
X70940881Y-96511874D01*
X70585000Y-96511874D01*
X70585000Y-95908126D01*
X70940881Y-95908126D01*
X71067046Y-96083000D01*
X72183000Y-96083000D01*
X72183000Y-95075000D01*
X72437000Y-95075000D01*
X72437000Y-96083000D01*
X73552954Y-96083000D01*
X73679119Y-95908126D01*
X73484191Y-95511131D01*
X73908771Y-95511131D01*
X74050432Y-95921049D01*
X74338179Y-96245552D01*
X74712062Y-96429268D01*
X74883000Y-96302734D01*
X74883000Y-95337000D01*
X75137000Y-95337000D01*
X75137000Y-96302734D01*
X75307938Y-96429268D01*
X75681821Y-96245552D01*
X75969568Y-95921049D01*
X76111229Y-95511131D01*
X75962563Y-95337000D01*
X75137000Y-95337000D01*
X74883000Y-95337000D01*
X74057437Y-95337000D01*
X73908771Y-95511131D01*
X73484191Y-95511131D01*
X73477368Y-95497237D01*
X73136678Y-95209998D01*
X72712000Y-95075000D01*
X72437000Y-95075000D01*
X72183000Y-95075000D01*
X71908000Y-95075000D01*
X71483322Y-95209998D01*
X71142632Y-95497237D01*
X70940881Y-95908126D01*
X70585000Y-95908126D01*
X70585000Y-94908869D01*
X73908771Y-94908869D01*
X74057437Y-95083000D01*
X74883000Y-95083000D01*
X74883000Y-94117266D01*
X75137000Y-94117266D01*
X75137000Y-95083000D01*
X75962563Y-95083000D01*
X76111229Y-94908869D01*
X75969568Y-94498951D01*
X75681821Y-94174448D01*
X75307938Y-93990732D01*
X75137000Y-94117266D01*
X74883000Y-94117266D01*
X74712062Y-93990732D01*
X74338179Y-94174448D01*
X74050432Y-94498951D01*
X73908771Y-94908869D01*
X70585000Y-94908869D01*
X70585000Y-90511131D01*
X73908771Y-90511131D01*
X74050432Y-90921049D01*
X74338179Y-91245552D01*
X74712062Y-91429268D01*
X74883000Y-91302734D01*
X74883000Y-90337000D01*
X75137000Y-90337000D01*
X75137000Y-91302734D01*
X75307938Y-91429268D01*
X75681821Y-91245552D01*
X75969568Y-90921049D01*
X76111229Y-90511131D01*
X75962563Y-90337000D01*
X75137000Y-90337000D01*
X74883000Y-90337000D01*
X74057437Y-90337000D01*
X73908771Y-90511131D01*
X70585000Y-90511131D01*
X70585000Y-89511874D01*
X70940881Y-89511874D01*
X71142632Y-89922763D01*
X71483322Y-90210002D01*
X71908000Y-90345000D01*
X72183000Y-90345000D01*
X72183000Y-89337000D01*
X72437000Y-89337000D01*
X72437000Y-90345000D01*
X72712000Y-90345000D01*
X73136678Y-90210002D01*
X73477368Y-89922763D01*
X73484190Y-89908869D01*
X73908771Y-89908869D01*
X74057437Y-90083000D01*
X74883000Y-90083000D01*
X74883000Y-89117266D01*
X75137000Y-89117266D01*
X75137000Y-90083000D01*
X75962563Y-90083000D01*
X76111229Y-89908869D01*
X75969568Y-89498951D01*
X75691843Y-89185750D01*
X82185000Y-89185750D01*
X82185000Y-90026310D01*
X82281673Y-90259699D01*
X82460302Y-90438327D01*
X82693691Y-90535000D01*
X83534250Y-90535000D01*
X83693000Y-90376250D01*
X83693000Y-89027000D01*
X83947000Y-89027000D01*
X83947000Y-90376250D01*
X84105750Y-90535000D01*
X84946309Y-90535000D01*
X85179698Y-90438327D01*
X85358327Y-90259699D01*
X85444138Y-90052532D01*
X90467073Y-90052532D01*
X90565736Y-90319387D01*
X91175461Y-90545908D01*
X91825460Y-90521856D01*
X92314264Y-90319387D01*
X92412927Y-90052532D01*
X91440000Y-89079605D01*
X90467073Y-90052532D01*
X85444138Y-90052532D01*
X85455000Y-90026310D01*
X85455000Y-89185750D01*
X85296250Y-89027000D01*
X83947000Y-89027000D01*
X83693000Y-89027000D01*
X82343750Y-89027000D01*
X82185000Y-89185750D01*
X75691843Y-89185750D01*
X75681821Y-89174448D01*
X75307938Y-88990732D01*
X75137000Y-89117266D01*
X74883000Y-89117266D01*
X74712062Y-88990732D01*
X74338179Y-89174448D01*
X74050432Y-89498951D01*
X73908771Y-89908869D01*
X73484190Y-89908869D01*
X73679119Y-89511874D01*
X73552954Y-89337000D01*
X72437000Y-89337000D01*
X72183000Y-89337000D01*
X71067046Y-89337000D01*
X70940881Y-89511874D01*
X70585000Y-89511874D01*
X70585000Y-88908126D01*
X70940881Y-88908126D01*
X71067046Y-89083000D01*
X72183000Y-89083000D01*
X72183000Y-88075000D01*
X72437000Y-88075000D01*
X72437000Y-89083000D01*
X73552954Y-89083000D01*
X73679119Y-88908126D01*
X73477368Y-88497237D01*
X73136678Y-88209998D01*
X72712000Y-88075000D01*
X72437000Y-88075000D01*
X72183000Y-88075000D01*
X71908000Y-88075000D01*
X71483322Y-88209998D01*
X71142632Y-88497237D01*
X70940881Y-88908126D01*
X70585000Y-88908126D01*
X70585000Y-87773690D01*
X82185000Y-87773690D01*
X82185000Y-88614250D01*
X82343750Y-88773000D01*
X83693000Y-88773000D01*
X83693000Y-87423750D01*
X83947000Y-87423750D01*
X83947000Y-88773000D01*
X85296250Y-88773000D01*
X85433789Y-88635461D01*
X89794092Y-88635461D01*
X89818144Y-89285460D01*
X90020613Y-89774264D01*
X90287468Y-89872927D01*
X91260395Y-88900000D01*
X91619605Y-88900000D01*
X92592532Y-89872927D01*
X92859387Y-89774264D01*
X93085908Y-89164539D01*
X93061856Y-88514540D01*
X92859387Y-88025736D01*
X92592532Y-87927073D01*
X91619605Y-88900000D01*
X91260395Y-88900000D01*
X90287468Y-87927073D01*
X90020613Y-88025736D01*
X89794092Y-88635461D01*
X85433789Y-88635461D01*
X85455000Y-88614250D01*
X85455000Y-87773690D01*
X85444139Y-87747468D01*
X90467073Y-87747468D01*
X91440000Y-88720395D01*
X92412927Y-87747468D01*
X92314264Y-87480613D01*
X91704539Y-87254092D01*
X91054540Y-87278144D01*
X90565736Y-87480613D01*
X90467073Y-87747468D01*
X85444139Y-87747468D01*
X85358327Y-87540301D01*
X85179698Y-87361673D01*
X84946309Y-87265000D01*
X84105750Y-87265000D01*
X83947000Y-87423750D01*
X83693000Y-87423750D01*
X83534250Y-87265000D01*
X82693691Y-87265000D01*
X82460302Y-87361673D01*
X82281673Y-87540301D01*
X82185000Y-87773690D01*
X70585000Y-87773690D01*
X70585000Y-82039482D01*
X71094336Y-82039482D01*
X71676950Y-83449515D01*
X72754811Y-84529259D01*
X74163825Y-85114333D01*
X75689482Y-85115664D01*
X77099515Y-84533050D01*
X77536666Y-84096661D01*
X82422758Y-84096661D01*
X82634990Y-84610303D01*
X83027630Y-85003629D01*
X83540900Y-85216757D01*
X84096661Y-85217242D01*
X84610303Y-85005010D01*
X85003629Y-84612370D01*
X85089949Y-84404488D01*
X85174990Y-84610303D01*
X85567630Y-85003629D01*
X86080900Y-85216757D01*
X86636661Y-85217242D01*
X87150303Y-85005010D01*
X87543629Y-84612370D01*
X87629949Y-84404488D01*
X87714990Y-84610303D01*
X88107630Y-85003629D01*
X88620900Y-85216757D01*
X89176661Y-85217242D01*
X89690303Y-85005010D01*
X90083629Y-84612370D01*
X90169949Y-84404488D01*
X90254990Y-84610303D01*
X90647630Y-85003629D01*
X91160900Y-85216757D01*
X91716661Y-85217242D01*
X92230303Y-85005010D01*
X92623629Y-84612370D01*
X92836757Y-84099100D01*
X92837242Y-83543339D01*
X92625010Y-83029697D01*
X92232370Y-82636371D01*
X92024488Y-82550051D01*
X92230303Y-82465010D01*
X92623629Y-82072370D01*
X92836757Y-81559100D01*
X92837242Y-81003339D01*
X92625010Y-80489697D01*
X92232370Y-80096371D01*
X91719100Y-79883243D01*
X91163339Y-79882758D01*
X90649697Y-80094990D01*
X90256371Y-80487630D01*
X90043243Y-81000900D01*
X90042758Y-81556661D01*
X90254990Y-82070303D01*
X90647630Y-82463629D01*
X90855512Y-82549949D01*
X90649697Y-82634990D01*
X90256371Y-83027630D01*
X90170051Y-83235512D01*
X90085010Y-83029697D01*
X89692370Y-82636371D01*
X89179100Y-82423243D01*
X88623339Y-82422758D01*
X88109697Y-82634990D01*
X87716371Y-83027630D01*
X87630051Y-83235512D01*
X87545010Y-83029697D01*
X87152370Y-82636371D01*
X86639100Y-82423243D01*
X86083339Y-82422758D01*
X85569697Y-82634990D01*
X85176371Y-83027630D01*
X85090051Y-83235512D01*
X85005010Y-83029697D01*
X84612370Y-82636371D01*
X84099100Y-82423243D01*
X83543339Y-82422758D01*
X83029697Y-82634990D01*
X82636371Y-83027630D01*
X82423243Y-83540900D01*
X82422758Y-84096661D01*
X77536666Y-84096661D01*
X78179259Y-83455189D01*
X78764333Y-82046175D01*
X78765664Y-80520518D01*
X78183050Y-79110485D01*
X77105189Y-78030741D01*
X75696175Y-77445667D01*
X74170518Y-77444336D01*
X72760485Y-78026950D01*
X71680741Y-79104811D01*
X71095667Y-80513825D01*
X71094336Y-82039482D01*
X70585000Y-82039482D01*
X70585000Y-81352390D01*
X70929047Y-79622751D01*
X71867804Y-78217803D01*
X73272751Y-77279047D01*
X75002391Y-76935000D01*
X214557610Y-76935000D01*
X216287249Y-77279047D01*
G36*
X157607000Y-110363000D02*
X157627000Y-110363000D01*
X157627000Y-110617000D01*
X157607000Y-110617000D01*
X157607000Y-110637000D01*
X157353000Y-110637000D01*
X157353000Y-110617000D01*
X157333000Y-110617000D01*
X157333000Y-110363000D01*
X157353000Y-110363000D01*
X157353000Y-110343000D01*
X157607000Y-110343000D01*
X157607000Y-110363000D01*
X157607000Y-110363000D01*
G37*
X157607000Y-110363000D02*
X157627000Y-110363000D01*
X157627000Y-110617000D01*
X157607000Y-110617000D01*
X157607000Y-110637000D01*
X157353000Y-110637000D01*
X157353000Y-110617000D01*
X157333000Y-110617000D01*
X157333000Y-110363000D01*
X157353000Y-110363000D01*
X157353000Y-110343000D01*
X157607000Y-110343000D01*
X157607000Y-110363000D01*
G36*
X135612236Y-95635000D02*
X129673398Y-95635000D01*
X129656894Y-95595057D01*
X129197363Y-95134722D01*
X128596648Y-94885284D01*
X128364540Y-94885081D01*
X128393001Y-94742000D01*
X128393000Y-94741995D01*
X128393000Y-90540322D01*
X128442838Y-90420299D01*
X128442921Y-90324501D01*
X128697255Y-90578835D01*
X128746883Y-90698943D01*
X129009673Y-90962192D01*
X129353201Y-91104838D01*
X129725167Y-91105162D01*
X130068943Y-90963117D01*
X130332192Y-90700327D01*
X130474838Y-90356799D01*
X130475162Y-89984833D01*
X130333117Y-89641057D01*
X130070327Y-89377808D01*
X129949013Y-89327434D01*
X129898579Y-89277000D01*
X141970237Y-89277000D01*
X135612236Y-95635000D01*
X135612236Y-95635000D01*
G37*
X135612236Y-95635000D02*
X129673398Y-95635000D01*
X129656894Y-95595057D01*
X129197363Y-95134722D01*
X128596648Y-94885284D01*
X128364540Y-94885081D01*
X128393001Y-94742000D01*
X128393000Y-94741995D01*
X128393000Y-90540322D01*
X128442838Y-90420299D01*
X128442921Y-90324501D01*
X128697255Y-90578835D01*
X128746883Y-90698943D01*
X129009673Y-90962192D01*
X129353201Y-91104838D01*
X129725167Y-91105162D01*
X130068943Y-90963117D01*
X130332192Y-90700327D01*
X130474838Y-90356799D01*
X130475162Y-89984833D01*
X130333117Y-89641057D01*
X130070327Y-89377808D01*
X129949013Y-89327434D01*
X129898579Y-89277000D01*
X141970237Y-89277000D01*
X135612236Y-95635000D01*
G36*
X124386921Y-94134999D02*
X122150006Y-94134999D01*
X122150001Y-94134998D01*
X121891758Y-94186367D01*
X121811326Y-94202366D01*
X121524211Y-94394209D01*
X121524209Y-94394212D01*
X121016563Y-94901858D01*
X120976648Y-94885284D01*
X120326205Y-94884716D01*
X119725057Y-95133106D01*
X119379801Y-95477759D01*
X119037363Y-95134722D01*
X118436648Y-94885284D01*
X117786205Y-94884716D01*
X117185057Y-95133106D01*
X117134437Y-95183638D01*
X117050090Y-95052559D01*
X116885488Y-94940091D01*
X118065976Y-93759603D01*
X124762317Y-93759603D01*
X124386921Y-94134999D01*
X124386921Y-94134999D01*
G37*
X124386921Y-94134999D02*
X122150006Y-94134999D01*
X122150001Y-94134998D01*
X121891758Y-94186367D01*
X121811326Y-94202366D01*
X121524211Y-94394209D01*
X121524209Y-94394212D01*
X121016563Y-94901858D01*
X120976648Y-94885284D01*
X120326205Y-94884716D01*
X119725057Y-95133106D01*
X119379801Y-95477759D01*
X119037363Y-95134722D01*
X118436648Y-94885284D01*
X117786205Y-94884716D01*
X117185057Y-95133106D01*
X117134437Y-95183638D01*
X117050090Y-95052559D01*
X116885488Y-94940091D01*
X118065976Y-93759603D01*
X124762317Y-93759603D01*
X124386921Y-94134999D01*
G36*
X119722637Y-82665278D02*
X120323352Y-82914716D01*
X120973795Y-82915284D01*
X121016188Y-82897768D01*
X123199208Y-85080787D01*
X123199210Y-85080790D01*
X123486325Y-85272633D01*
X123507269Y-85276799D01*
X123825000Y-85340001D01*
X123825005Y-85340000D01*
X127795270Y-85340000D01*
X127795183Y-85440177D01*
X127937228Y-85783953D01*
X128200018Y-86047202D01*
X128543546Y-86189848D01*
X128915512Y-86190172D01*
X129036914Y-86140010D01*
X140641430Y-86140010D01*
X142005061Y-87503641D01*
X141996931Y-87507000D01*
X123048579Y-87507000D01*
X118450119Y-82908539D01*
X119034943Y-82666894D01*
X119380199Y-82322241D01*
X119722637Y-82665278D01*
X119722637Y-82665278D01*
G37*
X119722637Y-82665278D02*
X120323352Y-82914716D01*
X120973795Y-82915284D01*
X121016188Y-82897768D01*
X123199208Y-85080787D01*
X123199210Y-85080790D01*
X123486325Y-85272633D01*
X123507269Y-85276799D01*
X123825000Y-85340001D01*
X123825005Y-85340000D01*
X127795270Y-85340000D01*
X127795183Y-85440177D01*
X127937228Y-85783953D01*
X128200018Y-86047202D01*
X128543546Y-86189848D01*
X128915512Y-86190172D01*
X129036914Y-86140010D01*
X140641430Y-86140010D01*
X142005061Y-87503641D01*
X141996931Y-87507000D01*
X123048579Y-87507000D01*
X118450119Y-82908539D01*
X119034943Y-82666894D01*
X119380199Y-82322241D01*
X119722637Y-82665278D01*
M02*
